<?xml version="1.0" encoding="utf-8"?>
<!-- Generator: Adobe Illustrator 24.1.0, SVG Export Plug-In . SVG Version: 6.00 Build 0)  -->
<svg version="1.1" id="Calque_1" xmlns="http://www.w3.org/2000/svg" xmlns:xlink="http://www.w3.org/1999/xlink" x="0px" y="0px"
	 viewBox="0 0 185 170" style="enable-background:new 0 0 185 170;" xml:space="preserve">
<g>
	<path style="fill:#FFFFFF;" d="M161.17,76.3c-0.06,18.11-4.6,32.3-13.63,45.06c-2.04,2.89-4.92,3.68-7.2,2.04
		c-2.2-1.59-2.33-4.43-0.33-7.31c16.17-23.27,16.27-52.41-0.32-75.24c-11.52-15.86-27.31-24.71-46.99-26.44
		c-32.67-2.88-62.89,20.04-68.83,53.41c-5.11,28.74,11.37,59.04,38.38,70.16c12.29,5.06,24.91,6.57,37.91,3.75
		c5.8-1.26,11.07-3.71,14.54-8.92c2.01-3.02,2.53-6.33,1.4-9.77c-0.22-0.66-1.21-1.54-1.82-1.52c-9.7,0.31-18.36-3.02-26.48-7.82
		c-17.53-10.35-30.98-24.55-39.29-43.28c-2.9-6.53-4.68-13.38-3.47-20.65c0.76-4.58,2.7-8.35,7.27-10.32
		c2.06-0.89,3.99-2.06,5.99-3.1c1.89-0.99,3.54-0.67,4.9,0.96c3.89,4.67,7.82,9.31,11.63,14.04c1.78,2.21,1.59,3.6-0.42,5.7
		c-1.27,1.32-2.58,2.6-3.86,3.92c-1.49,1.55-1.85,3.26-0.8,5.24c7,13.18,17.11,23.24,30.27,30.24c1.84,0.98,3.52,0.76,5.01-0.74
		c1.35-1.36,2.72-2.7,4.08-4.05c1.73-1.72,3.6-2.02,5.56-0.42c4.76,3.91,9.51,7.84,14.25,11.78c1.57,1.3,1.84,2.98,0.93,4.72
		c-1.61,3.09-3.39,6.1-5,9.2c-0.32,0.62-0.49,1.59-0.25,2.21c3.8,9.88-0.82,20.1-9.06,25.77c-9.61,6.6-20.56,7.92-31.79,7.27
		c-19.74-1.13-36.63-8.81-50.09-23.36C18.96,112.97,12.4,94.05,14.22,72.49C16.91,40.7,38.3,14.9,69.3,7.39
		c29.02-7.03,54.09,0.92,74.05,23.3C155.49,44.28,161.06,60.58,161.17,76.3z M84.14,7.36C64.89,7.79,46.07,16.57,31.8,34.34
		C19.25,49.99,14.41,68.03,16.94,87.93c2.25,17.77,10.32,32.6,23.74,44.34c14.44,12.62,31.44,18.37,50.62,17.54
		c6.63-0.29,13.05-1.56,19.04-4.57c11.25-5.65,15.16-14.84,11.38-26.62c-0.21-0.66-0.04-1.63,0.31-2.26
		c1.66-2.96,3.39-5.88,5.21-8.75c0.91-1.43,0.6-2.39-0.65-3.39c-3.25-2.6-6.44-5.28-9.66-7.92c-4.86-4-4.87-4-9.41,0.44
		c-3.3,3.23-5.5,3.64-9.61,1.39c-12.82-7.02-22.71-17.03-29.84-29.75c-2.33-4.17-1.88-6.44,1.46-9.82c0.88-0.89,1.69-1.87,2.66-2.64
		c1.53-1.23,1.44-2.32,0.22-3.76c-3.4-3.99-6.78-8.02-10.02-12.14c-1.35-1.72-2.61-1.98-4.41-0.8c-1.39,0.9-2.89,1.67-4.42,2.32
		c-3.37,1.45-5.13,4.07-5.91,7.53c-1.56,6.93,0.15,13.46,2.83,19.7c7.68,17.87,20.38,31.47,36.71,41.72
		c8.57,5.38,17.72,9.23,28.22,8.53c0.81-0.05,2.09,1.01,2.49,1.86c2.1,4.51,1.54,8.93-1.03,13.1c-2.96,4.8-7.56,7.43-12.73,9.12
		c-9.83,3.22-19.88,3.16-29.88,1.11c-30.24-6.19-51.59-31.6-53.42-61.02c-1.2-19.28,4.63-36.28,17.88-50.29
		C54.35,16.4,73.85,9.59,96.43,12.43c18.91,2.38,34.16,11.54,45.22,26.96c17.19,23.96,17.09,53.84,0.24,78.28
		c-0.89,1.29-1.58,2.58-0.07,3.69c1.65,1.22,2.73,0.07,3.66-1.27c11.52-16.44,15.74-34.63,12.14-54.32
		C151.43,31.84,121.99,7.46,84.14,7.36z"/>
</g>
</svg>
