<?xml version="1.0" encoding="utf-8"?>
<!-- Generator: Adobe Illustrator 24.1.0, SVG Export Plug-In . SVG Version: 6.00 Build 0)  -->
<svg version="1.1" id="Calque_1" xmlns="http://www.w3.org/2000/svg" xmlns:xlink="http://www.w3.org/1999/xlink" x="0px" y="0px"
	 viewBox="0 0 119.6 143.5" style="enable-background:new 0 0 119.6 143.5;" xml:space="preserve">
<style type="text/css">
	.st0{fill:none;stroke:#150800;}
	.st1{enable-background:new    ;}
	.st2{fill:#282828;}
</style>
<g transform="matrix(1, 0, 0, 1, -364, 945)">
	<g id="Ellipse_104-2" transform="translate(9 21)">
		<circle class="st0" cx="416.3" cy="-899.8" r="55.5"/>
	</g>
</g>
<g class="st1">
	<path class="st2" d="M60.6,57.9L94.7,109c-3,0-6.3,0-9.5,0L55.8,65L45.3,80.7c0,11.3,0,20.5,0,28.2c-3.2,0-6.4,0-9.5,0
		c0-20.1,0-71.6,0-89.4c3.1,0,6.4,0,9.5,0c0,15.5,0,42.1,0,58.5l39-58.5c0.6,0,1.3,0,1.9,0L60.6,57.9z"/>
</g>
</svg>
