<?xml version="1.0" encoding="utf-8"?>
<!-- Generator: Adobe Illustrator 24.1.0, SVG Export Plug-In . SVG Version: 6.00 Build 0)  -->
<svg version="1.1" id="Calque_1" xmlns="http://www.w3.org/2000/svg" xmlns:xlink="http://www.w3.org/1999/xlink" x="0px" y="0px"
	 viewBox="0 0 124 138" style="enable-background:new 0 0 124 138;" xml:space="preserve">
<style type="text/css">
	.st0{fill:none;stroke:#FFFFFF;stroke-miterlimit:10;}
	.st1{fill:#FFFFFF;}
</style>
<g id="Ellipse_104-2" transform="translate(9 21)">
	<circle class="st0" cx="54.1" cy="47.1" r="55.5"/>
</g>
<path class="st1" d="M62.3,59.8l34.1,51.1c-3,0-6.3,0-9.5,0l-29.4-44L47,82.6c0,11.3,0,20.5,0,28.2c-3.2,0-6.4,0-9.5,0
	c0-20.1,0-71.6,0-89.4c3.1,0,6.4,0,9.5,0C47,37,47,63.6,47,80l39-58.5c0.6,0,1.3,0,1.9,0L62.3,59.8z"/>
</svg>
