<?xml version="1.0" encoding="utf-8"?>
<!-- Generator: Adobe Illustrator 24.1.0, SVG Export Plug-In . SVG Version: 6.00 Build 0)  -->
<svg version="1.1" id="Calque_1" xmlns="http://www.w3.org/2000/svg" xmlns:xlink="http://www.w3.org/1999/xlink" x="0px" y="0px"
	 viewBox="0 0 315.2 273.7" style="enable-background:new 0 0 315.2 273.7;" xml:space="preserve">
<style type="text/css">
	.st0{fill:#2E2E2E;}
	.st1{fill:#2B2B2B;}
	.st2{fill:#383838;}
	.st3{fill:#E4E4E4;}
	.st4{fill:#3B3B3B;}
	.st5{fill:#2F2F2F;}
	.st6{fill:#333333;}
	.st7{fill:#4E4E4E;}
	.st8{fill:#444444;}
	.st9{fill:#373737;}
</style>
<path d="M256,216.1c-0.1,0.4-0.3,0.7-0.4,1.1c-0.3,0.3-0.6,0.6-1,0.9c-0.5,0.1-1.1,0.3-1.6,0.4c-0.9-0.2-1.7-0.4-2.6-0.4
	c-75.1,0-150.2,0-225.3,0c-0.9,0-1.7,0.3-2.6,0.5c0,0.1,0,0.2,0,0.3c-2.6-0.8-3.6-2.6-3.6-5.3c0-49.2,0-98.4,0-147.6
	c0-2,0.4-3.8,2.6-4.6c0.9,0.1,1.7,0.4,2.6,0.4c58.8,0,117.5,0,176.3,0c1,0,1.9-0.3,2.9-0.5c0,2.7,0.1,5.5,0.1,8.2
	c-0.2,0-0.3,0-0.4-0.2c-0.8-0.2-1.5-0.5-2.3-0.5c-56.8,0-113.6,0-170.5,0c-0.8,0-1.5,0.4-2.3,0.6c-0.1,1.1-0.4,2.1-0.4,3.2
	c0,39,0,78,0,117c0,0.9,0,1.8,0,3c73.4,0,146.7,0,219.9,0c0.3-0.9,0.9-1.8,0.9-2.7c0.1-25.4,0.1-50.8,0.1-76.2c2.3,0,4.6,0,7,0
	c0,33.1,0,66.3,0.1,99.4C255.6,214.2,255.9,215.2,256,216.1z"/>
<path d="M255.6,113.8c-2.3,0-4.6,0-7,0c-0.3,0-0.6,0-0.9,0c-0.6-0.1-1.2-0.4-1.7-0.3c-5.5,1.1-7.9-2.1-7.4-7.1c0.1-0.5-0.1-1,0-1.5
	c0.3-1.6-0.4-2.5-2-3.2c-1.6-0.7-2.5-0.1-3.4,0.9c-0.8,0.9-1.6,1.7-2.5,2.5c-2.4,2.3-4.8,2.3-7.2,0c-3.1-3-6-6.2-9.2-9.1
	c-5.3-4.8-5.6-6.9,0-11.8c1.2-1,1.9-1.9,1.1-3.8c-0.8-2-2-2.1-3.7-2c-1.2,0.1-2.5,0-3.7,0c-2.8-0.1-4.3-1.5-4.5-4.3
	c-0.1-1.5-0.1-3-0.1-4.5c0-2.7-0.1-5.5-0.1-8.2c0-0.2,0.1-0.3,0.2-0.5c0-1.5,0-3,0.1-4.5c0.1-2.5,1.6-4,4.1-4.1
	c1.4-0.1,2.8-0.2,4.2,0c2,0.3,3.3-0.5,3.5-2.5c0.1-0.9-0.1-2-0.6-2.7c-0.9-1.3-2.2-2.3-3.3-3.4c-1.6-1.8-1.7-4.3-0.1-6.1
	c4-4.2,8-8.4,12.2-12.5c2.2-2.2,4.6-2,6.8,0.1c0.9,0.9,1.8,1.7,2.7,2.6c0.9,0.9,1.6,1.8,3.4,1c1.7-0.8,2.1-1.7,2.1-3.4
	c0-8.2,0.4-8.6,8.6-8.6c4.3,0,8.7,0,13,0c3.3,0,4.7,1.5,4.8,4.7c0,1.2,0.1,2.5,0,3.7c-0.3,1.9,0.7,2.7,2.3,3.5
	c1.8,0.9,2.4-0.3,3.3-1.2c5.7-5.6,6.3-5.6,12,0.1c3.1,3.1,6.1,6.1,9.2,9.2c2.4,2.4,2.4,4.5,0,6.9c-0.9,0.9-1.7,1.8-2.7,2.6
	c-1.1,1-1.5,2-0.9,3.5c0.6,1.6,1.6,2,3.2,2c8.4,0,8.6,0.2,8.6,8.5c0,4.3,0,8.6,0,13c0,3.4-1.5,4.8-4.9,4.9c-1.2,0-2.3,0-3.5,0
	c-1.5-0.1-2.6,0-3.3,1.8c-0.6,1.7-0.2,2.7,1,3.9c5.7,5.6,5.7,6.1,0.1,11.7c-3.1,3.1-6.2,6.3-9.4,9.4c-2.3,2.2-4.4,2.3-6.8,0.2
	c-0.9-0.8-1.9-1.7-2.6-2.6c-1.1-1.4-2.3-1.4-4-0.8c-1.7,0.6-1.7,1.7-1.7,3.1c0,1.2,0,2.3,0,3.5c0,3.6-1.6,5.3-5.3,5.4
	c-1.2,0-2.3,0.1-3.5,0.1C256,113.8,255.8,113.8,255.6,113.8z M251.9,43.4c-12.1,0-21.8,9.7-21.9,21.9c0,11.9,10,22,21.9,22
	c12,0,22.2-10,22.2-22C274.1,53.3,264.1,43.5,251.9,43.4z"/>
<path d="M155.1,236.4c3.3,0,6.6,0,10,0.1c11.4,0.3,21,10,21.1,21.1c0,3-1.1,4.4-4,4.9c-0.9-0.2-1.7-0.5-2.6-0.5c-31,0-61.9,0-92.9,0
	c-0.9,0-1.7,0.3-2.6,0.5c-3.2-0.4-3.2-2.6-3.1-5.1c0.3-9.8,6.2-17.5,15.7-20.1c1.6-0.4,3.3-0.5,4.9-0.7c0.2,0,0.3,0,0.5,0
	c3-0.1,6-0.1,9-0.2C125.7,236.4,140.4,236.4,155.1,236.4z"/>
<path d="M155.1,236.4c-14.7,0-29.4,0-44.1,0c0.2-4.6,0.3-9.1,0.6-13.7c0.2-2.5-0.5-3.2-3.1-3.2c-27.7,0.1-55.5,0.1-83.2,0
	c-0.9,0-1.8-0.4-2.7-0.7c0-0.1,0-0.2,0-0.3c0.9,0.1,1.8,0.1,2.7,0.1c74.8,0,149.7,0,224.5,0c0.9,0,1.8,0.1,2.7,0.1
	c-1,0.2-1.9,0.7-2.9,0.7c-30.4,0-60.8,0-91.2,0c-3.4,0-3.4,0-3.4,3.3C155.1,227.5,155.1,232,155.1,236.4z"/>
<path d="M203.6,61c-0.1,0.1-0.1,0.3-0.2,0.5c-1,0.2-1.9,0.5-2.9,0.5c-58.8,0-117.5,0-176.3,0c-0.9,0-1.7-0.3-2.6-0.4
	c1.4-0.2,2.8-0.5,4.2-0.5C85,61,144.3,61,203.6,61z"/>
<path class="st0" d="M252.6,218.9c-0.9,0-1.8-0.1-2.7-0.1c-74.8,0-149.7,0-224.5,0c-0.9,0-1.8-0.1-2.7-0.1c0.9-0.2,1.7-0.5,2.6-0.5
	c75.1,0,150.2,0,225.3,0c0.9,0,1.7,0.3,2.6,0.4C252.9,218.7,252.8,218.8,252.6,218.9z"/>
<path class="st1" d="M255.6,113.8c0.2,0,0.5,0,0.7,0c0,32.9,0,65.7,0,98.6c0,1.2-0.2,2.5-0.3,3.7c-0.1-1-0.4-1.9-0.4-2.9
	C255.6,180.1,255.6,146.9,255.6,113.8z"/>
<path class="st2" d="M84.1,262.6c0.9-0.2,1.7-0.5,2.6-0.5c31,0,61.9,0,92.9,0c0.9,0,1.7,0.3,2.6,0.5c-0.7,0-1.5,0.1-2.2,0.1
	c-31.2,0-62.4,0-93.6,0C85.6,262.7,84.8,262.6,84.1,262.6z"/>
<path class="st3" d="M254.6,218.2c0.3-0.3,0.6-0.6,1-0.9C255.3,217.5,255,217.9,254.6,218.2z"/>
<path class="st4" d="M102.1,236.6c-0.2,0-0.3,0-0.5,0C101.8,236.6,101.9,236.6,102.1,236.6z"/>
<path class="st5" d="M203.1,69.5c-0.7,0-1.5,0.1-2.2,0.1c-57,0-114,0-171,0c-0.6,0-1.2,0-1.7-0.1c0.8-0.2,1.5-0.6,2.3-0.6
	c56.8,0,113.6,0,170.5,0C201.6,69,202.4,69.3,203.1,69.5z"/>
<path class="st6" d="M247.6,192.7c0-1.1,0.1-2.2,0.1-3.2c0-25.2,0-50.4,0-75.6c0.3,0,0.6,0,0.9,0c0,25.4,0,50.8-0.1,76.2
	C248.5,190.9,247.9,191.8,247.6,192.7z"/>
<path d="M67.1,166.2c-2.8-0.5-4.3-2.1-4.1-4.6c0.2-2.4,1.8-3.9,4.5-4.1c0.4,0,0.8,0,1.2,0c40,0,80.1,0,120.1,0c0.5,0,1,0,1.5,0
	c2.6,0.2,4.2,1.6,4.4,3.9c0.2,2.4-1,4-3.7,4.8c-0.8-0.3-1.7-0.9-2.5-0.9c-13.2-0.1-26.5,0-39.7,0c-26.3,0-52.7,0-79,0
	C68.9,165.3,68,165.9,67.1,166.2z"/>
<path d="M67.6,175.2c0.7,0,1.3-0.1,2-0.1c39.7,0,79.4,0,119,0c0.7,0,1.3,0.1,2,0.1c0.3,0.1,0.6,0.3,0.9,0.4c0.5,0.2,1.1,0.4,1.6,0.6
	c0.2,0.2,0.3,0.3,0.5,0.5c0.4,3.3-0.6,4.5-3.9,4.5c-39.2,0-78.4,0-117.7,0c-3.4,0-6.3-1.2-7.7-4.7c0,0,0.1-0.1,0.1-0.1
	c0.4-0.3,0.8-0.5,1.2-0.8c0.5-0.1,1-0.3,1.5-0.4C67.3,175.3,67.4,175.2,67.6,175.2z"/>
<path d="M159.5,144.8c-1.3-1-3-1.7-3.5-2.9c-0.5-1.3-0.1-3.1,0.3-4.6c0.2-0.8,1.1-1.4,1.8-2c6.4-6.4,12.8-12.8,19.3-19.2
	c2.4-2.4,2.4-2.4,0.1-4.8c-6.4-6.4-12.7-12.7-19.1-19.1c-0.8-0.8-1.5-1.6-2.1-2.4c-1.4-2-1.2-4,0.5-5.6c1.6-1.5,3.9-1.7,5.7-0.3
	c1.2,1,2.4,2.1,3.5,3.2c7.4,7.4,14.8,14.8,22.3,22.2c3.2,3.2,3.3,5,0.2,8.2c-6,6.2-12.2,12.2-18.3,18.3c-2.4,2.4-4.8,4.9-7.3,7.2
	C161.9,143.7,160.8,144.1,159.5,144.8z"/>
<path d="M86.1,113.5c5.4,5.2,10.2,9.8,14.9,14.4c2.9,2.8,5.8,5.7,8.6,8.7c1.9,2,2,4.7,0.2,6.5c-1.7,1.8-4.4,1.7-6.5-0.3
	c-3.9-3.8-7.8-7.8-11.7-11.6c-4.5-4.5-9-8.9-13.4-13.4c-3-3-3.2-5.1-0.2-8.1c6.2-6.4,12.5-12.6,18.8-18.8c1.8-1.8,3.5-3.5,5.3-5.2
	c1-0.9,2-1.8,3.2-2.4c1.9-0.8,3.6-0.3,4.9,1.4c1.3,1.8,1.1,4.2-0.6,5.9c-5.5,5.5-11,11.1-16.6,16.6C91.1,109.1,88.9,111,86.1,113.5z
	"/>
<path d="M146.6,87.2c-0.4,1.4-0.7,2.9-1.2,4.3c-5.5,16.5-11.1,32.9-16.6,49.3c-0.7,2-1.9,3.3-4.1,3.4c-2.1,0.1-3.6-1-4.2-2.9
	c-0.3-1.1-0.2-2.5,0.2-3.6c3.8-11.7,7.8-23.3,11.6-35c1.8-5.5,3.6-11.1,5.4-16.6c0.7-2,2.1-3.6,4.2-3.3c1.5,0.2,2.9,1.5,4.2,2.5
	C146.5,85.8,146.5,86.6,146.6,87.2z"/>
<path class="st7" d="M64.3,176.5c1.4,3.5,4.3,4.7,7.7,4.7c39.2,0,78.4,0,117.7,0c3.3,0,4.3-1.2,3.9-4.5c1.5,1.4,1.4,3.1,0.7,4.8
	c-0.8,1.8-2.4,2.4-4.3,2.3c-10.8,0-21.6,0-32.5,0c-29.8,0-59.6,0-89.4,0c-2,0-3.7-0.4-4.6-2.3C62.7,179.7,62.7,178,64.3,176.5z"/>
<path class="st8" d="M67.1,166.2c0.9-0.3,1.8-0.9,2.7-0.9c26.3,0,52.7,0,79,0c13.2,0,26.5,0,39.7,0c0.8,0,1.7,0.6,2.5,0.9
	c-0.7,0-1.3,0.1-2,0.1c-40.1,0-80.2,0-120.3,0C68.2,166.3,67.7,166.2,67.1,166.2z"/>
<path class="st7" d="M193.1,176.2c-0.5-0.2-1.1-0.4-1.6-0.6c0-0.1,0-0.2,0.1-0.3C192.1,175.6,192.6,175.9,193.1,176.2z"/>
<path class="st7" d="M65.6,175.7c-0.4,0.3-0.8,0.5-1.2,0.8C64.8,176.2,65.2,175.9,65.6,175.7z"/>
<path class="st9" d="M191.6,175.4c0,0.1,0,0.2-0.1,0.3c-0.3-0.1-0.6-0.3-0.9-0.4C190.9,175.3,191.2,175.3,191.6,175.4z"/>
<path class="st9" d="M67.6,175.2c-0.2,0-0.3,0-0.5,0C67.3,175.3,67.4,175.2,67.6,175.2z"/>
</svg>
