<?xml version="1.0" encoding="utf-8"?>
<!-- Generator: Adobe Illustrator 24.1.0, SVG Export Plug-In . SVG Version: 6.00 Build 0)  -->
<svg version="1.1" id="Calque_1" xmlns="http://www.w3.org/2000/svg" xmlns:xlink="http://www.w3.org/1999/xlink" x="0px" y="0px"
	 viewBox="0 0 176 181" style="enable-background:new 0 0 176 181;" xml:space="preserve">
<g>
	<g>
		<path d="M137.9,146.7c4.8,0,9.1,0,13.4,0c2.8,0,3.3,0.6,3,3.5c-1,8-7.7,14.3-15.8,14.3c-26,0.1-52,0.1-78,0
			c-8.7,0-15.6-7.1-15.7-15.9c-0.1-8.2,0-16.5,0-24.7c0-27.2,0-54.3,0.1-81.5c0-2.6-0.7-3.2-3.2-3.2c-7.7,0.2-15.5,0.1-23.2,0.1
			c-3.1,0-3.6-0.6-3.1-3.7c1.2-8.3,7.9-14.1,16.5-14.1c20.5,0,41,0,61.5,0c9,0,18,0,27,0c10.9,0,17.7,6.7,17.7,17.6
			c0,34.7,0,69.5,0,104.2C137.9,144.3,137.9,145.4,137.9,146.7z M134.9,146.7c0-1.1,0-1.9,0-2.7c0-35.1,0-70.2,0-105.2
			c0-8.7-5.5-14.3-14.2-14.3c-25.6,0-51.2,0-76.7,0c-0.7,0-1.4,0.1-2.8,0.2c6.2,4.8,6.7,11,6.7,17.7c-0.1,35.2-0.1,70.3,0,105.5
			c0,7.5,5.1,13.2,12.1,13.7c7.3,0.5,13.4-4.3,14.2-11.8c0.3-2.6,1.4-3.1,3.7-3c17.9,0.1,35.8,0,53.7,0
			C132.6,146.7,133.6,146.7,134.9,146.7z M150.9,149.9c-0.8,0-1.6-0.1-2.4-0.1c-22.8,0-45.6,0-68.4,0c-1.9,0-2.5,0.6-3.2,2.4
			c-1,2.7-2.8,5.2-4.3,7.7c-0.3,0.5-0.7,0.9-1.4,1.6c1.5,0,2.6,0,3.7,0c17.9,0,35.8,0,53.7,0c3.3,0,6.7,0.1,10,0
			C145.1,161.3,150.9,155.9,150.9,149.9z M44.3,36c0.2-6.3-6.4-11.9-13.5-11.6c-6.5,0.3-12.6,6.1-12,11.6C27.3,36,35.8,36,44.3,36z"
			/>
		<path d="M93.1,52.1c-11.4,0-22.8,0-34.2,0c-0.7,0-1.5,0.1-2.2-0.1c-0.4-0.1-1.1-0.8-1-1.2c0-0.5,0.5-1.3,1-1.5
			c0.6-0.3,1.5-0.2,2.2-0.2c22.9,0,45.8,0,68.7,0c0.5,0,1.1-0.2,1.5,0.1c0.6,0.4,1.1,1,1.6,1.5c-0.5,0.5-0.9,1.1-1.5,1.3
			c-0.6,0.2-1.3,0.1-2,0.1C115.8,52.1,104.4,52.1,93.1,52.1z"/>
		<path d="M93,60.2c-11.2,0-22.5,0-33.7,0c-0.7,0-1.6,0.1-2.2-0.1c-0.6-0.2-1.4-0.9-1.4-1.4c0-0.5,0.7-1.2,1.3-1.4
			c0.6-0.3,1.3-0.1,2-0.1c22.8,0,45.6,0,68.4,0c0.6,0,1.3-0.1,1.7,0.1c0.6,0.3,1.4,0.9,1.4,1.4c0,0.5-0.7,1.2-1.3,1.4
			c-0.7,0.3-1.5,0.1-2.2,0.1C115.6,60.2,104.3,60.2,93,60.2z"/>
		<path d="M112.4,136.9c0-1.5-0.1-2.3,0-3.1c0.2-1.9-0.3-3-2.3-3.6c-2.9-0.9-4.1-2.9-3.9-5.4c0.2-2.7,1.8-4.1,4.2-5.1
			c1.1-0.5,2-1.9,3.1-1.9c1,0,2,1.3,3,2c1,0.6,2.2,0.9,3.1,1.6c0.4,0.3,0.6,1.4,0.3,1.7c-0.3,0.5-1.3,0.9-1.8,0.8
			c-1-0.2-1.9-0.8-3.3-1.4c0,1.8-0.2,3.3,0.1,4.7c0.1,0.6,1.2,1.2,1.9,1.5c2.4,1,4.2,2.4,4.2,5.3c0,2.5-1.4,4.5-4.1,5.3
			c-1.2,0.4-2.2,0.6-2.1,2.2c0,0.4-0.8,1.1-1.1,1.1c-0.5-0.1-1.3-0.7-1.3-1.1c0.1-1.6-1-1.8-2.2-2.1c-1.1-0.3-2.3-0.7-3.1-1.4
			c-0.7-0.6-0.9-1.7-1.3-2.5c0.9-0.1,1.9-0.4,2.8-0.2C109.8,135.5,110.8,136.2,112.4,136.9z M114.9,136.5c0.3,0.2,0.7,0.3,1,0.5
			c0.5-1,1.5-2,1.5-3c0-0.8-1.3-1.6-2-2.4c-0.2,0.1-0.3,0.3-0.5,0.4C114.9,133.5,114.9,135,114.9,136.5z M111.4,127.5
			c0.3-0.2,0.6-0.3,0.9-0.5c0-1.4,0-2.9,0-4.3c-0.2-0.1-0.4-0.3-0.6-0.4c-0.7,0.7-1.9,1.5-1.9,2.2
			C109.9,125.5,110.8,126.5,111.4,127.5z"/>
		<path d="M95,71.6c-6.3,0-12.7,0.1-19-0.1c-0.9,0-2.6-0.8-2.6-1.3c-0.1-1.8,1.5-1.6,2.7-1.6c12.7,0,25.5,0,38.2,0.1
			c0.9,0,2.5,0.8,2.6,1.4c0.2,1.9-1.5,1.5-2.7,1.6C107.8,71.6,101.4,71.6,95,71.6z"/>
		<path d="M95.2,42.8c-6.4,0-12.8,0.1-19.2-0.1c-0.9,0-2.5-0.8-2.6-1.4c-0.2-1.7,1.3-1.5,2.5-1.5c12.8,0,25.6,0,38.4,0.1
			c0.9,0,2.5,0.8,2.6,1.4c0.2,1.8-1.5,1.6-2.7,1.6C107.9,42.8,101.5,42.8,95.2,42.8z"/>
		<path d="M74.5,126c4.6,0,9.1-0.1,13.7,0.1c0.9,0,1.8,0.9,2.7,1.5c-0.9,0.5-1.8,1.4-2.7,1.4c-9.3,0.1-18.6,0.1-27.9,0
			c-0.9,0-1.8-1-2.7-1.5c0.9-0.5,1.8-1.4,2.7-1.4C65,125.9,69.8,126,74.5,126z"/>
		<path d="M74.1,140.5c-4.7,0-9.3,0.1-14-0.1c-0.9,0-1.7-0.9-2.5-1.3c0.9-0.5,1.7-1.5,2.6-1.5c9.4-0.1,18.8-0.1,28.2,0
			c0.8,0,2.3,0.8,2.4,1.4c0.2,1.7-1.3,1.6-2.4,1.6C83.6,140.5,78.9,140.5,74.1,140.5z"/>
		<path d="M95.6,103.7c2.6,0,5.2-0.1,7.7,0.1c0.7,0.1,1.4,1,2.1,1.6c-0.7,0.5-1.3,1.3-2,1.3c-5.3,0.1-10.6,0.1-15.9,0
			c-0.7,0-1.3-0.9-1.9-1.4c0.6-0.5,1.3-1.4,1.9-1.5C90.2,103.6,92.9,103.7,95.6,103.7C95.6,103.7,95.6,103.7,95.6,103.7z"/>
		<path d="M95.7,85.7c2.5,0,5-0.1,7.5,0.1c0.8,0.1,1.5,0.9,2.3,1.4c-0.7,0.5-1.4,1.5-2.1,1.5c-5.2,0.1-10.5,0.1-15.7,0
			c-0.7,0-1.4-1-2.1-1.5c0.7-0.5,1.5-1.3,2.2-1.4C90.4,85.6,93.1,85.7,95.7,85.7z"/>
		<path d="M95.3,97.7c-2.5,0-5,0.1-7.5-0.1c-0.8-0.1-1.6-1-2.3-1.5c0.7-0.5,1.5-1.4,2.2-1.4c5.1-0.1,10.3-0.1,15.5,0
			c0.8,0,1.5,0.9,2.2,1.4c-0.8,0.5-1.5,1.4-2.4,1.5C100.5,97.8,97.9,97.7,95.3,97.7z"/>
		<path d="M95.5,79.7c-2.5,0-5,0.1-7.5-0.1c-0.9-0.1-1.6-0.9-2.5-1.4c0.8-0.5,1.6-1.5,2.4-1.5c5.1-0.1,10.1-0.1,15.2,0
			c0.8,0,1.6,1,2.3,1.5c-0.7,0.5-1.5,1.3-2.2,1.4C100.6,79.8,98,79.7,95.5,79.7z"/>
		<path d="M95.6,115.8c-2.7,0-5.3,0.1-8-0.1c-0.7-0.1-1.4-1-2.1-1.5c0.7-0.5,1.3-1.3,2-1.3c5.3-0.1,10.6-0.1,16,0
			c0.7,0,1.3,0.9,2,1.4c-0.7,0.5-1.4,1.4-2.2,1.5C100.7,115.9,98.1,115.8,95.6,115.8z"/>
		<path d="M65.2,88.8c-1.8,0-3.7,0.2-5.5-0.1c-0.8-0.1-1.4-1-2.1-1.5c0.7-0.5,1.5-1.4,2.2-1.4c3.7-0.1,7.5-0.1,11.2,0
			c0.8,0,1.5,0.9,2.3,1.4c-0.8,0.5-1.5,1.4-2.4,1.5C69.1,88.9,67.1,88.8,65.2,88.8z"/>
		<path d="M65.4,106.8c-2,0-4,0.1-6-0.1c-0.7-0.1-1.2-1-1.8-1.5c0.6-0.5,1.2-1.3,1.8-1.3c4.1-0.1,8.1-0.1,12.2,0
			c0.6,0,1.1,0.9,1.7,1.4c-0.6,0.5-1.2,1.4-1.9,1.5C69.4,106.9,67.4,106.8,65.4,106.8C65.4,106.8,65.4,106.8,65.4,106.8z"/>
		<path d="M65.5,97.7c-1.9,0-3.8,0.1-5.7-0.1c-0.8-0.1-1.4-1-2.1-1.5c0.7-0.5,1.3-1.4,2-1.4c3.9-0.1,7.8-0.1,11.7,0
			c0.7,0,1.3,0.9,2,1.4c-0.7,0.5-1.4,1.4-2.1,1.5C69.3,97.8,67.4,97.7,65.5,97.7z"/>
		<path d="M65.5,79.7c-1.9,0-3.8,0.1-5.7-0.1c-0.8-0.1-1.4-0.9-2.1-1.5c0.7-0.5,1.5-1.4,2.2-1.4c3.8-0.1,7.6-0.1,11.5,0
			c0.7,0,1.3,0.9,2,1.4c-0.7,0.5-1.3,1.4-2.1,1.5C69.3,79.8,67.4,79.7,65.5,79.7C65.5,79.7,65.5,79.7,65.5,79.7z"/>
		<path d="M65.5,115.8c-1.9,0-3.8,0.2-5.7-0.1c-0.8-0.1-1.4-1-2.1-1.5c0.7-0.5,1.3-1.3,2-1.4c3.9-0.1,7.8-0.1,11.7,0
			c0.7,0,1.3,0.9,2,1.4c-0.7,0.5-1.4,1.4-2.1,1.5C69.3,115.9,67.4,115.8,65.5,115.8z"/>
		<path d="M127,106.7c-1.4,0-2.8,0.1-4.2-0.1c-0.6-0.1-1-0.9-1.6-1.3c0.5-0.5,1-1.5,1.6-1.5c2.8-0.1,5.7-0.1,8.5,0
			c0.5,0,1.3,0.9,1.3,1.4c0,0.5-0.8,1.3-1.4,1.4C129.9,106.9,128.4,106.7,127,106.7z"/>
		<path d="M127.2,85.8c1.3,0,2.7-0.1,4,0.1c0.6,0.1,1,0.8,1.5,1.3c-0.5,0.5-1,1.5-1.6,1.5c-2.7,0.2-5.5,0.2-8.2,0
			c-0.6,0-1.1-1-1.7-1.5c0.6-0.5,1.1-1.3,1.7-1.4C124.3,85.6,125.8,85.8,127.2,85.8C127.2,85.8,127.2,85.8,127.2,85.8z"/>
		<path d="M126.8,97.7c-1.2,0-2.5,0.2-3.7-0.1c-0.7-0.1-1.3-1-1.9-1.5c0.6-0.5,1.1-1.4,1.7-1.4c2.7-0.1,5.5-0.1,8.2,0
			c0.6,0,1.1,1,1.6,1.5c-0.6,0.5-1.1,1.3-1.7,1.4C129.6,97.8,128.2,97.7,126.8,97.7C126.8,97.7,126.8,97.7,126.8,97.7z"/>
		<path d="M126.9,115.8c-1.2,0-2.5,0.2-3.7-0.1c-0.7-0.1-1.3-0.9-2-1.4c0.6-0.5,1.2-1.4,1.8-1.5c2.6-0.2,5.3-0.2,7.9,0
			c0.6,0,1.2,0.9,1.8,1.3c-0.6,0.5-1.2,1.4-1.9,1.5C129.6,116,128.2,115.8,126.9,115.8C126.9,115.8,126.9,115.8,126.9,115.8z"/>
		<path d="M126.9,79.7c-1.2,0-2.5,0.2-3.7-0.1c-0.7-0.1-1.3-1-1.9-1.5c0.6-0.5,1.1-1.3,1.7-1.4c2.7-0.2,5.3-0.2,8,0
			c0.6,0,1.2,0.9,1.7,1.4c-0.6,0.5-1.2,1.4-1.9,1.5C129.5,79.8,128.2,79.7,126.9,79.7z"/>
	</g>
</g>
</svg>
