<?xml version="1.0" encoding="utf-8"?>
<!-- Generator: Adobe Illustrator 24.1.0, SVG Export Plug-In . SVG Version: 6.00 Build 0)  -->
<svg version="1.1" id="Calque_1" xmlns="http://www.w3.org/2000/svg" xmlns:xlink="http://www.w3.org/1999/xlink" x="0px" y="0px"
	 viewBox="0 0 242 267" style="enable-background:new 0 0 242 267;" xml:space="preserve">
<g>
	<g>
		<path d="M125.7,90.8c-12.1,0-24.2,0-36.2,0c-3.9,0-4.5,0.6-4.5,4.5c0,21.2,0,42.5,0.1,63.7c0,2.3-0.7,3.1-2.9,3.6
			c-20.3,5.2-41.1-7.2-46.3-27.7c-5.1-20.3,7.4-41.1,27.7-46c0.6-0.1,1.1-0.3,1.7-0.4c3-0.7,3.7-2,2.6-4.8
			C64.4,75.6,64,67.3,66.8,59c8.4-25.2,41.2-31.8,58.7-11.9c2.4,2.7,2.6,2.8,5.9,1.2c11.2-5.3,24.2-0.2,28.8,11.3
			c1.4,3.6,1.9,3.7,5.6,2.7c13.2-3.5,24.5-0.4,33.4,9.9c8.6,9.8,10,23.5,3.9,35.1c-1,1.9-1.1,3.4-0.4,5.4c7.3,22.2-9.6,44.8-33,44.3
			c-3.3-0.1-3.3-0.1-3.3-3.3c0-19.3,0-38.7,0-58c0-4.5-0.5-5-5.1-5C149.5,90.8,137.6,90.8,125.7,90.8z"/>
		<path d="M90.6,96.5c23.4,0,46.7,0,70.2,0c0,29.3,0,58.5,0,87.9c-23.4,0-46.7,0-70.2,0C90.6,155.2,90.6,126,90.6,96.5z
			 M125.7,150.6c8.6,0,17.1,0,25.7,0c2.9,0,3.7-0.8,3.8-3.7c0-4.4,0-8.8,0-13.2c0-2.6-0.9-3.5-3.5-3.5c-17.3,0-34.6,0-51.9,0
			c-2.8,0-3.7,1-3.7,3.8c0,4.2,0,8.3,0,12.5c0,3.3,0.8,4.1,4.2,4.1C108.7,150.6,117.2,150.6,125.7,150.6z M125.7,123.1
			c8.7,0,17.3,0,26,0c2.6,0,3.5-0.8,3.5-3.4c0-4.5,0-9,0-13.5c0-2.6-0.9-3.5-3.5-3.5c-17.3,0-34.6,0-51.9,0c-2.8,0-3.7,1-3.7,3.8
			c0,4.2,0,8.3,0,12.5c0,3.3,0.8,4.1,4.1,4.1C108.7,123.1,117.2,123.1,125.7,123.1z M125.7,157.8c-8.7,0-17.3,0-26,0
			c-2.7,0-3.6,0.9-3.7,3.6c0,4.3,0,8.7,0,13c0,2.9,0.9,3.8,3.7,3.8c17.2,0,34.5,0,51.7,0c2.8,0,3.6-0.8,3.6-3.6c0-4.2,0-8.5,0-12.7
			c0-3.3-0.7-4-3.9-4C142.7,157.8,134.2,157.9,125.7,157.8z"/>
		<path d="M110.7,230.9c0-4.4,0-8.7,0-13.2c0.6-0.1,1.3-0.2,1.9-0.2c8.6,0,17.1,0,25.7,0c1.8,0,2.5,0.5,2.4,2.4
			c-0.1,3.6,0,7.3,0,11.1C130.6,230.9,120.7,230.9,110.7,230.9z"/>
		<path d="M105,221.5c0,1.9,0,3.5,0,5.2c-0.7,0.1-1.4,0.2-2,0.2c-9.7,0-19.5,0.1-29.2-0.1c-1.2,0-2.7-0.6-3.4-1.5
			c-1.3-1.8,0.3-3.8,3.1-3.8c6.1,0,12.1,0,18.2,0C96,221.5,100.3,221.5,105,221.5z"/>
		<path d="M146.4,226.8c0-1.8,0-3.4,0-5.3c3,0,5.8,0,8.6,0c7.5,0,15,0,22.4,0c1.9,0,3.6,0.3,3.8,2.6c0.2,1.8-1.2,2.8-3.8,2.8
			c-9.6,0-19.3,0-28.9,0C147.8,226.9,147.2,226.9,146.4,226.8z"/>
		<path d="M128.2,211.8c-1.6,0-3.2,0-5,0c0-7.2,0-14.3,0-21.6c1.6,0,3.2,0,5,0C128.2,197.3,128.2,204.4,128.2,211.8z"/>
		<path d="M101.8,135.9c16,0,31.8,0,47.8,0c0,3.1,0,6,0,9.1c-15.9,0-31.8,0-47.8,0C101.8,142,101.8,139.1,101.8,135.9z M107.6,143.4
			c1-0.3,2.3-0.3,2.9-1c0.6-0.6,1-2,0.8-2.8c-0.4-1.8-2.1-1.9-3.6-1.8c-2.6,0-4,1-3.9,2.8C104,142.8,105.6,143.3,107.6,143.4z
			 M118.3,143.2c3.2,0,4.9-1.6,4-3.7c-0.6-1.6-3.2-2.5-5.5-1.5c-0.9,0.4-2,1.9-2,2.9C114.9,143,116.8,143.2,118.3,143.2z
			 M129.4,143.2c0.1,0.2,0.3,0.4,0.4,0.6c1.2-0.8,2.6-1.4,3.4-2.5c0.4-0.5-0.3-2.2-1-2.9c-0.6-0.6-1.8-0.5-2.8-0.6
			c-1.9-0.1-3.7,0.4-3.7,2.7C125.7,142.8,127.4,143.3,129.4,143.2z"/>
		<path d="M149.6,108.2c0,3.2,0,6.2,0,9.4c-1,0-1.8,0-2.6,0c-14.2,0-28.5,0-42.7,0c-2,0-2.7-0.5-2.7-2.6c0.1-6.8,0-6.8,6.7-6.8
			c12.8,0,25.7,0,38.5,0C147.6,108.2,148.5,108.2,149.6,108.2z M118.6,110.1c-2.5,0-4,1.1-3.8,2.8c0.2,2.4,2,2.8,4,2.7
			c2.5,0,4-1,3.8-2.8C122.3,110.4,120.5,110.1,118.6,110.1z M129.5,115.7c2.7,0,4.2-1.1,4-2.8c-0.3-2.4-2-2.8-4-2.7
			c-2.5,0.1-4,1.1-3.8,2.9C125.9,115.4,127.6,115.8,129.5,115.7z M107.7,115.7c2.6,0,4-0.9,3.9-2.8c-0.2-2.4-2-2.8-4-2.7
			c-1.9,0-3.6,0.4-3.7,2.7C103.7,114.7,105.1,115.6,107.7,115.7z"/>
		<path d="M101.6,163.5c16.2,0,32,0,48,0c0,3,0,5.8,0,9c-0.8,0.1-1.6,0.2-2.4,0.2c-14.3,0-28.6,0-42.9,0.1c-2,0-2.9-0.5-2.7-2.6
			C101.7,168,101.6,165.8,101.6,163.5z M118.6,170.7c3,0,4.6-1.6,3.8-3.7c-0.7-1.8-2.4-1.8-4-1.8c-1.6,0-3,0.2-3.6,2
			C114.2,169.3,115.7,170.7,118.6,170.7z M129.6,170.7c1.6,0.2,3.4-0.1,3.7-2.1c0.1-0.9-0.8-2.2-1.6-3c-0.5-0.5-1.6-0.3-2.4-0.3
			c-2-0.1-3.7,0.4-3.6,2.7C125.7,170.3,127.4,170.8,129.6,170.7z M107.9,165.3c-2.7,0-4,0.8-4,2.6c-0.1,1.8,1.2,2.8,3.8,2.8
			c2.6,0,4-0.9,3.9-2.8C111.4,165.7,109.8,165.2,107.9,165.3z"/>
	</g>
</g>
</svg>
