<?xml version="1.0" encoding="utf-8"?>
<!-- Generator: Adobe Illustrator 24.1.0, SVG Export Plug-In . SVG Version: 6.00 Build 0)  -->
<svg version="1.1" id="Calque_1" xmlns="http://www.w3.org/2000/svg" xmlns:xlink="http://www.w3.org/1999/xlink" x="0px" y="0px"
	 viewBox="0 0 233 228.6" style="enable-background:new 0 0 233 228.6;" xml:space="preserve">
<path d="M179.5,135.1c-3.1,1-5.7,1.8-8.4,2.7c-3.4,1.1-6.9,2.1-10.3,3.3c-0.8,0.3-1.7,1-2,1.8c-1.2,3.1-2.9,4.4-6.2,4.4
	c-10.4,0-20.9,0.1-31.3,0c-2,0-2.6,0.6-2.6,2.6c0.1,20.4,0.1,40.8,0,61.2c0,1-0.2,2.7-0.6,2.8c-1.4,0.4-3,0.3-4.5,0
	c-0.3,0-0.6-1.4-0.6-2.2c0-9.7,0-19.3,0-29c0-11-0.1-21.9,0-32.9c0-2.1-0.6-2.6-2.6-2.6c-10.3,0.1-20.6,0.1-30.8,0
	c-3.9,0-5.3-1-6.7-4.7c-0.2-0.5-0.6-1.1-1.1-1.3c-6.3-2-12.6-4-18.9-6c-0.1,0-0.3,0.1-0.6,0.2c0,0.5-0.2,1-0.1,1.5
	c0.2,5.8,0.4,11.7,0.5,17.5c0,1.8,0.6,2.4,2.4,2.3c7.8-0.4,15.6-0.6,23.5-0.8c6-0.2,9.5,2.1,11.9,7.6c5.8,13.4,11.7,26.9,17.5,40.3
	c2.1,5-0.6,9.8-5.5,10.2c-3.1,0.2-5.7-1.4-7.1-4.8c-4.6-10.6-9.2-21.3-13.8-31.9c-1.7-4-1.8-4-6.2-3.9c-1.8,0.1-3.7,0.2-5.5,0.1
	c-2.1-0.1-2.7,0.6-2.7,2.7c0.1,11.4,0,22.9,0,34.3c0,3.2-1.6,4.4-4.6,3.2c-0.6-0.2-1.1-1.5-1.1-2.3c-0.1-8.8-0.1-17.7-0.1-26.5
	c0-5.8,0-5.8-5.7-5.8c-8.7,0-17.5,0-26.2,0c-1.7,0-2.4,0.4-2.8,2.2c-2.2,10-4.5,20.1-6.8,30.1c-0.5,2.3-3.4,3.7-5.4,2.3
	c-0.5-0.3-0.6-1.6-0.5-2.4c1.5-7.1,2.9-14.3,4.9-21.3c2.2-7.6,2.2-15,0.9-22.7c-1.8-10.5-3-21.1-4.5-31.7c0-0.2-0.1-0.5-0.1-0.7
	c-0.2-1.8,0.3-3.2,2.3-3.7c1.7-0.4,3.1,0.7,3.4,2.8c1.1,7.4,2.1,14.7,3.1,22.1c0.7,5.1,1.5,10.2,2.1,15.3c0.2,1.5,0.8,1.9,2.2,1.9
	c2.9-0.1,5.8,0,8.7-0.5c-0.5-0.4-1.1-0.7-1.6-1.1c-5-3.3-8-7.8-8.3-13.9c-0.6-16.4-1.2-32.8-1.6-49.2c-0.2-7.2,5.3-12.8,12.4-13.1
	c7-0.3,12.8,5,13.3,12.2c0.9,11.1,6.5,18.3,17.2,21.8c4.9,1.6,9.8,3.1,14.7,4.7c3.9,1.3,4.9,2.7,4.7,6.9c18.7,0,37.5,0,56.2,0
	c0.2-5,0.8-5.6,5.6-7.2c5-1.6,9.9-3.1,14.9-4.8c9.4-3.1,15.5-11,16.1-20.9c0.5-7.5,6.1-13,13.3-12.7c7.3,0.3,12.7,6,12.5,13.5
	c-0.4,16.1-0.9,32.2-1.5,48.3c-0.2,6.3-3.2,11.1-8.5,14.5c-0.4,0.3-0.9,0.6-1.3,0.9c0,0,0,0.1-0.1,0.6c3.3,0,6.5,0.1,9.8-0.1
	c0.4,0,1.1-1.3,1.2-2.1c1.3-9.1,2.6-18.2,3.8-27.4c0.4-3.1,0.9-6.2,1.3-9.3c0.4-2.3,1.6-3.4,3.4-3.2c1.8,0.3,2.6,1.7,2.3,4
	c-1.9,13.8-3.9,27.7-5.8,41.5c-0.2,1.5-0.1,3.1,0.2,4.5c2.2,9.8,4.4,19.6,6.6,29.4c0.3,1.1,1.2,2.6-0.9,3.2c-2.8,0.7-4.3,0-4.8-2.2
	c-2.2-9.9-4.5-19.7-6.6-29.6c-0.5-2.1-1.2-3-3.5-3c-9.5,0.2-19,0.2-28.5,0c-2.5,0-2.9,0.8-2.9,3c0.1,9.7,0.1,19.3,0,29
	c0,0.9-0.4,2.4-0.8,2.6c-1.4,0.3-2.9,0.3-4.3-0.1c-0.4-0.1-0.6-1.6-0.6-2.5c0-11.4,0-22.7,0-34.1c0-3.4,0-3.4-3.3-3.5
	c-2.1-0.1-4.2,0-6.2-0.2c-2.4-0.2-3.6,0.8-4.6,2.9c-4.7,11-9.5,22-14.2,33c-1.4,3.2-3.9,4.9-6.9,4.7c-4.9-0.3-7.9-5.1-5.8-9.9
	c3.4-8,6.9-15.9,10.3-23.9c2.5-5.7,4.9-11.4,7.4-17.1c2.2-5.1,5.8-7.4,11.4-7.3c7.9,0.2,15.8,0.5,23.7,0.8c1.8,0.1,2.6-0.3,2.6-2.3
	c0-5.6,0.3-11.2,0.5-16.8C179.5,136.9,179.5,136.2,179.5,135.1z"/>
<path d="M66.1,71.2c2.3-3.5,4.6-7,6.9-10.4c-0.2-0.2-0.3-0.4-0.4-0.5c-5.7-1-7.2-2.9-7.2-8.7c0-9.8,0-19.6,0-29.5
	c0-5.2,2.6-7.8,7.8-7.8c16.2,0,32.4,0,48.6,0c4.9,0,7.5,2.6,7.5,7.5c0,10.2,0,20.4,0,30.6c0,5-2.6,7.6-7.7,7.6
	c-10.4,0-20.7-0.1-31.1,0.1c-1.9,0-3.9,0.6-5.6,1.5c-6.2,3.2-12.3,6.6-18.4,9.9C66.4,71.5,66.2,71.4,66.1,71.2z M92.9,36.8
	c-2.5,0-5.1-0.1-7.6,0.1c-0.7,0.1-1.4,1-2.1,1.6c0.7,0.6,1.4,1.6,2,1.6c4.9,0.1,9.8,0.1,14.7,0c0.7,0,1.5-1,2.2-1.5
	c-0.7-0.6-1.4-1.7-2.2-1.7C97.7,36.7,95.3,36.8,92.9,36.8z M87.4,30.3c-2.5,0-4.9-0.1-7.4,0.1c-0.8,0.1-1.5,1.1-2.3,1.6
	c0.8,0.5,1.5,1.5,2.3,1.6c4.8,0.1,9.5,0.1,14.3,0c0.8,0,1.5-1,2.3-1.6c-0.8-0.6-1.5-1.5-2.3-1.6C92,30.2,89.7,30.3,87.4,30.3z
	 M109.9,40.1C109.9,40.1,109.9,40.1,109.9,40.1c0.8,0,1.6,0.3,2.3,0c0.7-0.3,1.3-1,1.9-1.6c-0.6-0.6-1.1-1.5-1.8-1.6
	c-1.6-0.2-3.2-0.2-4.8,0c-0.6,0.1-1.3,1-1.4,1.7c-0.1,0.4,0.8,1.3,1.4,1.5C108.2,40.3,109.1,40.1,109.9,40.1z M112.5,33.6
	c0.9,0,1.9,0.2,2.7-0.1c0.6-0.2,1.3-0.9,1.4-1.5c0-0.5-0.7-1.5-1.2-1.6c-1.8-0.2-3.7-0.2-5.5,0c-0.5,0.1-1.3,1-1.2,1.6
	c0,0.5,0.8,1.3,1.3,1.5C110.8,33.8,111.7,33.6,112.5,33.6z M104.2,46.5C104.2,46.5,104.2,46.5,104.2,46.5c0.8,0,1.6,0.2,2.3,0
	c0.7-0.3,1.2-1,1.8-1.6c-0.6-0.5-1.1-1.4-1.7-1.5c-1.6-0.2-3.2-0.2-4.8,0c-0.6,0.1-1.1,1-1.6,1.6c0.6,0.5,1,1.2,1.7,1.5
	C102.5,46.7,103.4,46.5,104.2,46.5z M102.8,29.4c-1.2,1.1-2.5,1.8-2.6,2.6c-0.2,1.5,1.2,1.6,2.4,1.6c1.3,0,2.8,0,2.6-1.7
	C105.2,31.2,104,30.6,102.8,29.4z"/>
<path d="M158.5,73.7c2.5,3.7,4.8,7.2,7.5,11.2c-1-0.5-1.6-0.7-2.1-1c-5.8-3.2-11.6-6.4-17.4-9.4c-1.4-0.7-3-1.1-4.6-1.1
	c-10.5-0.1-21,0-31.5-0.1c-5.2,0-7.9-3.3-7.1-8.9c2.6,0,5.3,0,7.9,0c3.5,0,7.1,0,10.6,0c7.1,0,11.6-4.5,11.7-11.6c0-0.8,0-1.7,0-3
	c1.5,0,2.8,0,4.1,0c2.5,0,4.9,0,7.4,0c1.3,0,3.2,0.3,3.1-1.7c-0.1-2-1.9-1.6-3.2-1.6c-3.7,0-7.3,0-11.2,0c0-6.2,0-12.1,0-18.3
	c0.7,0,1.4-0.1,2.2-0.1c7.7,0,15.3,0,23,0c4.6,0,7.3,2.7,7.3,7.3c0,10.1,0,20.3,0,30.4c0,4.7-1.9,6.8-6.5,7.7
	C159.4,73.4,159.1,73.5,158.5,73.7z M150.1,56.4c1.4-0.3,3.8,0.7,3.9-1.6c0.1-2.6-2.4-1.8-3.9-1.8c-1.4,0-3.6-0.7-3.7,1.6
	C146.3,57.1,148.6,56.1,150.1,56.4z M155.2,50.4c0.1-0.2,0.2-0.4,0.4-0.6c0.8,0,1.7,0.2,2.5-0.1c0.6-0.2,1.5-1,1.5-1.5
	c0-0.6-0.9-1.3-1.5-1.6c-0.7-0.3-1.7-0.2-2.5-0.1c-1.4,0.1-3.7-0.7-3.6,1.8C152.1,49,154.1,49.7,155.2,50.4z"/>
<path d="M36.8,60.9c9.1,0,16.1,7.2,16.1,16.3c-0.1,8.9-7.3,16-16.2,16c-9,0-16.2-7.3-16.1-16.3C20.7,67.9,27.9,60.9,36.8,60.9z"/>
<path d="M211,77.2c0,8.9-7.2,16.1-16.1,16c-9,0-16.2-7.3-16.2-16.3c0.1-9,7.3-16.1,16.4-16C204,61,211,68.2,211,77.2z"/>
</svg>
