<?xml version="1.0" encoding="utf-8"?>
<!-- Generator: Adobe Illustrator 24.1.0, SVG Export Plug-In . SVG Version: 6.00 Build 0)  -->
<svg version="1.1" id="Calque_1" xmlns="http://www.w3.org/2000/svg" xmlns:xlink="http://www.w3.org/1999/xlink" x="0px" y="0px"
	 viewBox="0 0 231.4 230.3" style="enable-background:new 0 0 231.4 230.3;" xml:space="preserve">
<style type="text/css">
	.st0{fill:#45AB56;}
	.st1{fill:#45AA56;}
</style>
<g>
	<path d="M55.6,175.1c3.3-0.3,6.1-0.5,9.4-0.8c0-13.6,0-27.2,0-41.7c-8.2,0-16.6,0-25.4,0c0-12.3,0-23.7,0-35.8c8.5,0,16.7,0,25.4,0
		c0-12.4,0-23.9,0-35.8c-3.1-0.3-6.1-0.6-9.5-1c0-7.4,0-14.6,0-22.9c6.7,0,13.5-0.1,20.2,0.2c1,0,2.3,2.1,2.7,3.5
		c0.5,1.8,0.3,3.8,0.5,6.5c10.1,0,20,0.1,29.9-0.2c1.4,0,3.1-2.1,4-3.6c2-3.3,3.6-6.9,5.8-11.4c1.6,2.6,3,4,3.5,5.7
		c2.2,8.3,7.6,10.5,15.7,9.7c6.7-0.7,13.6-0.1,20.7-0.1c0.4-3.5,0.7-6.5,1.1-9.9c7.4,0,14.5,0,22.2,0c0,7.6,0,14.9,0,22.6
		c-3.1,0.3-5.9,0.5-9.2,0.8c0,11.6,0,23.1,0,35.7c6.5,0,13,0.3,19.5-0.1c4.7-0.2,6.8,1,6.6,6.2c-0.4,9.6-0.1,19.3-0.1,29.6
		c-9,0-17.3,0-26,0c0,14.2,0,27.7,0,41.9c2.9,0.3,5.8,0.6,9.2,0.9c0,7.5,0,14.8,0,22.5c-7.4,0-14.6,0-22.2,0c-0.3-3.1-0.6-6.1-1-9.9
		c-6.9,0-13.7-0.2-20.4,0.2c-1.4,0.1-3,2.1-4,3.5c-6.5,9.9-24,9.8-30.5-0.3c-0.9-1.3-2.3-3.2-3.5-3.2c-7-0.3-14-0.2-21.1-0.2
		c-0.3,3.6-0.5,6.4-0.8,9.7c-7.5,0-14.8,0-22.6,0C55.6,190.1,55.6,183,55.6,175.1z M101.8,184.7c0-17.7,0-34.7,0-51.7
		c-11.4,0-22.3,0-33.1,0c0,14.1,0,27.7,0,41.3c3.4,0.3,6.4,0.6,9.5,0.9c0.4,3.5,0.7,6.4,1,9.5C87,184.7,94.2,184.7,101.8,184.7z
		 M168.7,173.9c0-13.5,0-27,0-40.9c-11.1,0-21.9,0-32.7,0c0,17.4,0,34.3,0,51.4c7.7,0,15,0,22.3,0
		C159.7,175.5,159.7,175.5,168.7,173.9z M101.9,129.4c0-10,0-19.6,0-29.4c-20,0-39.7,0-59.5,0c0,10,0,19.6,0,29.4
		c3.3,0,6.3,0,10.2,0c0-5.9,0-11.3,0-16.8c0.7,0,1.3,0,2,0c0.3,5.6,0.6,11.2,0.9,16.9c3.4,0,6.2,0,9.2,0c0.4-3.5,0.7-6.7,1.1-9.9
		c0.6,0,1.1,0.1,1.7,0.1c0.4,3.3,0.7,6.6,1.1,9.8c3.3,0,6,0,10.1,0c0-5.9,0-11.3,0-16.8c0.7,0,1.4,0.1,2.1,0.1c0,5.4,0,10.8,0,16.6
		c3.7,0,6.6,0,9.6,0c0.4-3.6,0.8-6.9,1.2-10.1c0.5,0,1.1,0.1,1.6,0.1c0.3,3.3,0.7,6.6,1,10C97,129.4,99.3,129.4,101.9,129.4z
		 M155.1,129.4c0.3-5.9,0.5-11.4,0.8-16.9c0.7,0,1.5,0.1,2.2,0.1c0,5.5,0,11.1,0,16.6c3.9,0,6.8,0,9.9,0c0.2-3.6,0.4-6.7,0.6-9.8
		c0.6,0,1.3,0,1.9-0.1c0.3,3.2,0.6,6.5,0.9,9.9c3.3,0,6.2,0,10.2,0c0-5.9,0-11.3,0-16.7c0.7,0,1.4,0,2,0c0,5.5,0,11,0,16.9
		c4.4,0,7.8,0,11.5,0c0-10,0-19.7,0-29.4c-19.9,0-39.4,0-59.1,0c0,10.1,0,19.6,0,29.7c2.3-0.2,4.1-0.3,5.8-0.5
		c0.5-3.7,0.9-6.8,1.3-9.9c0.6,0.1,1.1,0.1,1.7,0.2c0.2,3.2,0.5,6.4,0.8,9.9C148.9,129.4,151.9,129.4,155.1,129.4z M68.9,60.4
		c0,12.8,0,24.3,0,35.8c11.3,0,22,0,33.2,0c1.5-15.5-3.3-31.7,7.8-45.6c-11.2,0-21,0-31.5,0C80.6,59.4,76.5,61.9,68.9,60.4z
		 M158.6,50.4c-10,0-19.5,0-28.7,0c2,7.4,4.6,14.6,5.5,22c1,7.7,0.2,15.7,0.2,23.8c11.5,0,22.1,0,32.8,0c0-12.1,0-23.8,0-35.4
		c-3.4-0.3-6.1-0.5-9.1-0.8C159.1,56.7,158.9,53.7,158.6,50.4z M118.2,172.3c0-33.2,0.1-65.5-0.2-97.9c0-2.3-2.7-4.5-4.1-6.8
		c-0.7,0.4-1.4,0.8-2.1,1.1c0,34.4,0,68.8,0,103.6C114.1,172.3,115.9,172.3,118.2,172.3z M125,68.5c-0.9,0-1.7-0.1-2.6-0.1
		c-0.5,2.1-1.5,4.2-1.5,6.3c0,31,0.2,62,0.5,93c0,1.6,1.6,3.3,2.5,4.9c0.8-1.7,2.2-3.5,2.2-5.2c0.1-31,0.1-62,0-93
		C126.2,72.4,125.4,70.5,125,68.5z M105.1,176c0.5,6.7-2.5,14.7,5,17.5c5.4,2,12.8,2,18.1-0.2c7.1-3,4.6-10.7,4.3-17.2
		C123.4,176,114.7,176,105.1,176z M129.9,172.9c3.5-3.2,4.5-95.8,1.6-102.9C128.6,73.4,127.2,158.5,129.9,172.9z M105,66.1
		c7,0,13.1,0,19.1,0c-0.1-0.2-0.1-0.5-0.2-0.7c2.1,0.5,4.1,1,6.2,1.5c-0.1-2.3,0.4-4.9-0.4-6.9c-3.2-7.2-6.9-14.1-10.9-22.2
		C114.3,47.3,110.1,55.7,105,66.1z M75.5,57.5c0-6,0-11.3,0-17c-5.9,0-11.5,0-17,0c0,5.9,0,11.3,0,17C64.2,57.5,69.5,57.5,75.5,57.5
		z M75.5,177.9c-5.9,0-11.4,0-16.9,0c0,6,0,11.5,0,16.9c6,0,11.3,0,16.9,0C75.5,189,75.5,183.6,75.5,177.9z M179.2,40.3
		c-5.9,0-11.3,0-16.9,0c0,5.9,0,11.4,0,17c5.9,0,11.3,0,16.9,0C179.2,51.6,179.2,46.4,179.2,40.3z M162.1,194.6c5.9,0,11.5,0,16.8,0
		c0-6,0-11.3,0-16.7c-5.9,0-11.3,0-16.8,0C162.1,183.8,162.1,189.2,162.1,194.6z M105.9,172.3c0.6,0,1.2,0.1,1.8,0.1
		c0.3-1,0.8-2,0.8-3c0.1-31.9,0.1-63.7,0-95.6c0-1.5-1.1-3-1.6-4.5c-0.3,0.1-0.6,0.3-0.9,0.4C105.9,104,105.9,138.2,105.9,172.3z"/>
	<g>
		<path class="st0" d="M12,114.6c0-5.1,0.4-10.2,1.2-15.2c2.4-15.7,8.1-30.2,17.2-43.2c10-14.4,22.8-25.5,38.5-33.4
			c8.4-4.2,17.3-7.2,26.6-9c3.3-0.6,6.5-1.1,9.8-1.4c4.1-0.4,8.3-0.5,12.4-0.4c4.2,0.1,8.3,0.5,12.5,1.1
			c11.5,1.7,22.4,5.3,32.6,10.7c1.1,0.6,2.1,1.1,3.1,1.7c1.7,1,2.6,2.5,3,4.5c0.5,2.5-0.8,6.1-4.6,7.2c-1.6,0.5-3.1,0.3-4.6-0.4
			c-0.3-0.2-0.7-0.4-1-0.5c-8.7-4.9-17.9-8.2-27.7-10c-3.2-0.6-6.5-1-9.7-1.3c-4-0.3-7.9-0.3-11.9-0.1c-8.6,0.5-16.9,2.1-25,5
			C73.5,34,63.7,39.8,55,47.6c-9,8.1-16.2,17.6-21.4,28.5c-3.4,7.1-5.8,14.5-7.2,22.3c-0.6,3.4-1,6.8-1.3,10.2
			c-0.3,3.6-0.3,7.1-0.1,10.7c0.6,10.9,3,21.5,7.4,31.5c8.9,20.3,25.1,36.7,45.2,45.8c6.9,3.1,14.2,5.3,21.7,6.6
			c7.1,1.2,14.2,1.6,21.3,1.1c17.8-1.2,33.9-7.1,48.2-17.9c11.8-8.9,20.9-20.1,27.3-33.5c3.3-7,5.6-14.3,7-21.9
			c0.8-4.2,1.2-8.4,1.4-12.6c0.2-3.4,0.1-6.7-0.1-10.1c-0.5-7.2-1.8-14.3-4.1-21.2c-0.3-0.9-0.6-1.9-0.6-2.9c0-3.2,2.2-5.8,5.4-6.3
			c2.6-0.5,5.8,0.8,7,4c0.7,1.8,1.2,3.7,1.7,5.6c1.2,4.4,2.1,8.9,2.7,13.5c0.9,6.4,1.1,12.9,0.7,19.3c-0.8,14.1-4.2,27.5-10.6,40
			c-11,21.8-27.7,37.8-49.9,47.9c-7.6,3.5-15.6,5.9-23.9,7.4c-3.7,0.7-7.5,1.1-11.3,1.4c-3.7,0.3-7.5,0.3-11.2,0.1
			c-3.8-0.1-7.6-0.5-11.4-1.1c-9.5-1.4-18.6-4.2-27.4-8.3c-8.7-4-16.6-9.1-23.8-15.4c-10-8.6-18-18.7-24.1-30.4
			c-4.4-8.4-7.5-17.2-9.5-26.4c-0.7-3.5-1.3-7-1.6-10.5C12.2,121.7,12,118.2,12,114.6z"/>
		<path class="st1" d="M90.7,138.4c0.4-0.3,0.7-0.6,1.1-0.8c8.6-7.2,17.2-14.4,25.6-21.9c4.8-4.3,9.6-8.6,14.3-13
			c9.5-8.8,18.7-17.9,27.8-27.2c9.5-9.6,18.8-19.4,28-29.2c0.3-0.3,0.6-0.6,0.9-0.9c1.9-1.8,4.6-2.2,6.9-1.1
			c2.3,1.1,3.7,3.4,3.5,5.9c-0.1,1.1-0.4,2.1-1,3c-0.6,0.9-1.1,1.7-1.7,2.6c-9.1,13.6-18.4,27-28.1,40.2c-8,11-16.2,21.8-24.8,32.3
			c-7.1,8.8-14.5,17.3-22.2,25.6c-6.1,6.6-12.4,13-18.9,19.2c-1.9,1.8-4.1,3-6.8,3.4c-3.4,0.6-6.4-0.2-9.2-2.1
			c-1-0.7-1.9-1.6-2.7-2.6c-3.8-4.8-7.4-9.7-10.9-14.6c-6.6-9.3-12.9-18.7-18.9-28.3c-0.2-0.4-0.4-0.7-0.6-1.1
			c-2.1-4-0.2-9.1,4.4-10.4c2.3-0.6,4.4-0.2,6.3,1.2c1.9,1.5,3.8,3,5.7,4.5c6.4,4.9,12.9,9.6,19.6,14.1
			C89.5,137.6,90.1,137.9,90.7,138.4z"/>
	</g>
</g>
</svg>
