<?xml version="1.0" encoding="utf-8"?>
<!-- Generator: Adobe Illustrator 24.1.0, SVG Export Plug-In . SVG Version: 6.00 Build 0)  -->
<svg version="1.1" id="Calque_1" xmlns="http://www.w3.org/2000/svg" xmlns:xlink="http://www.w3.org/1999/xlink" x="0px" y="0px"
	 viewBox="0 0 1920 1080" style="enable-background:new 0 0 1920 1080;" xml:space="preserve">
<g>
	<path d="M786.7,661.4c14.4,6.8,22.3,20.8,26.6,37.5c1.9,7.5,6.7,11.1,14.5,10.7c4.5-0.2,9.1-0.2,13.7,0.1
		c12.4,0.8,21.1,9.2,21.1,20.1c0,10.9-8.5,19.5-20.9,20.5c-7.8,0.6-15.8,0.7-23.6,0.2c-9.5-0.6-16.5,0.9-15.6,12.8
		c0.1,1.2-1.7,2.5-2.5,3.7c-1.3-0.6-2.6-0.9-2.6-1.3c-0.2-12.7-6.8-21.4-15.2-30.5c-6.7-7.2-9.5-18.1-14-27.4c1.5-0.8,3-1.6,4.5-2.4
		c2.4,3.8,5.6,7.3,7.1,11.4c7.1,20.1,21,28.8,42.1,26.8c5.3-0.5,10.8,0,16.2,0c9.4,0,17.1-3.1,17-13.7c-0.1-9.7-7.3-13.1-16.3-13.1
		c-0.4,0-0.8,0-1.2,0c-25.1-0.9-25.1-0.9-33.9-25c-7.2-19.9-24.8-30.6-44.7-27.2c-18.5,3.1-30.6,18.3-31.2,39.2
		c-0.3,9.5-0.1,19.1-0.2,28.6c-0.1,9.1,0,18.2-0.3,27.3c-0.1,3.3-1,6.7-1.6,10c-1.2,0.1-2.5,0.1-3.7,0.2c-0.5-3.6-1.5-7.2-1.5-10.8
		c-0.1-14.5,0.2-29,0.2-43.5c0.1-31.1,1-33.4,22.2-53.5c-4.1-14.3-9.6-27.2-11.2-40.6c-2.6-21.4,12.1-36,33.1-35.7
		c20.9,0.3,35,15.6,32.2,36.7C795.1,634.8,790.5,646.7,786.7,661.4z M764.7,592.9c-15.5-0.3-26.1,9.5-26.7,24.7
		c-0.8,23.2,9.2,38.4,25.4,38.9c15.8,0.4,26-13.4,26.9-36.5C790.9,604.2,780.6,593.3,764.7,592.9z"/>
	<path d="M920.1,658c-3-12.3-7.7-25.1-9.1-38.2c-2-19.6,12.7-33.9,32.5-34.1c20.1-0.1,34.8,13.5,32.9,33.5
		c-1.3,13.8-6.6,27.3-10.1,40.9c-1.2,0-2.4,0-3.7,0c4,3.5,9,6.3,11.6,10.5c4.9,7.9,11.2,16.5,11.9,25.2c1.9,23.1,1.1,46.3,1.2,69.5
		c0,1.4-1.2,2.8-4.5,4.6c-0.8-3.4-2.2-6.8-2.3-10.2c-0.3-15.7-0.2-31.5-0.3-47.2c-0.2-28.7-10.4-44.4-31.1-48
		c-22.4-3.9-38.6,8-47.7,35.1c-5,14.9-11.8,19-27.1,16.3c-1-0.2-1.9-1.3-3.6-2.4c1.3-1.4,2.4-3.4,3.2-3.3c15.8,1.9,19.1-9,24.3-20.7
		C903.5,678.1,912.8,668.4,920.1,658z M917.6,618.5c-0.3,23,10.4,38.3,26.6,38c15.6-0.2,25.1-13.6,25.8-36.2
		c0.5-16.3-9.3-27-25.2-27.5C928.7,592.5,917.8,602.7,917.6,618.5z"/>
	<path d="M813.3,626.7c-17.5-33.2-12.1-68.8-12.2-103.7c0-8.8,5.4-13.7,14.3-13.7c25.7-0.1,51.4-0.1,77,0c9.6,0.1,14.4,5.7,14.4,15
		c0.1,22.8,0.2,45.6,0,68.3c-0.1,9.4-5.3,14.5-14.8,14.8c-5.8,0.2-11.6,0.6-17.4,0.2c-20.7-1.5-40.6-0.7-55.5,17
		c-1,1.1-2.8,1.6-4.4,2.1C814.3,627.1,813.4,626.8,813.3,626.7z M821.2,615.2c15.1-21.4,37.2-12.9,57.2-14.3c3.3-0.2,6.6-0.1,9.9,0
		c8.4,0.2,11.9-4,11.8-12.2c-0.2-20.3-0.1-40.6,0-60.9c0-7.5-2.9-11.7-10.9-11.7c-23.6,0.1-47.2-0.4-70.8,0.5
		c-3.6,0.1-10.3,6.1-10.1,9C810.7,554.7,799.1,585.7,821.2,615.2z"/>
	<path d="M940.2,707.8c-5.7,10.4-9.9,22-17.5,30.9c-6.2,7.2-12,13.1-10.9,23.3c0.2,1.6-1.6,3.4-2.6,5.5c-3.8-6.1-6-13.6-10.8-16.1
		c-5.2-2.7-12.9-0.5-19.5-1c-2.5-0.2-4.9-1.6-10.5-3.6c17-3.2,32.7-2.5,43.7-9.3c10.5-6.5,16.2-20.9,24-31.8
		C937.6,706.3,938.9,707.1,940.2,707.8z"/>
	<path d="M876.4,546.1c-8.3,9.6-15.2,21.7-25.5,28c-7.9,4.8-13.7-5.7-18.7-12.9c2.2-0.8,3.3-1.6,3.6-1.3c11.5,10.6,18.6,3.4,25.4-6
		c3-4.1,7-7.6,10.5-11.3C873.4,543.7,874.9,544.9,876.4,546.1z"/>
</g>
</svg>
