<?xml version="1.0" encoding="utf-8"?>
<!-- Generator: Adobe Illustrator 24.1.0, SVG Export Plug-In . SVG Version: 6.00 Build 0)  -->
<svg version="1.1" xmlns="http://www.w3.org/2000/svg" xmlns:xlink="http://www.w3.org/1999/xlink" x="0px" y="0px"
	 viewBox="0 0 750 500" style="enable-background:new 0 0 750 500;" xml:space="preserve">
<style type="text/css">
	.st0{fill:#EBEBEB;}
	.st1{fill:#E0E0E0;}
	.st2{fill:#F5F5F5;}
	.st3{fill:#FFFFFF;}
	.st4{display:none;}
	.st5{display:inline;fill:#EBEBEB;}
	.st6{fill:#263238;}
	.st7{fill:#455A64;}
	.st8{fill-rule:evenodd;clip-rule:evenodd;fill:#E0E0E0;}
	.st9{fill-rule:evenodd;clip-rule:evenodd;fill:#F5F5F5;}
	.st10{fill:none;}
	.st11{fill:#E8505B;}
	.st12{fill:#FAFAFA;}
	.st13{fill:#EB996E;}
	.st14{opacity:0.4;}
	.st15{opacity:0.3;}
	.st16{fill:#FFBE9D;}
	.st17{fill:none;stroke:#FFFFFF;stroke-width:5.000000e-02;stroke-miterlimit:10;}
	.st18{fill:none;stroke:#4E585D;stroke-width:5.000000e-02;stroke-miterlimit:10;}
	.st19{fill:#B78876;}
	.st20{fill:#A36957;}
	.st21{opacity:0.2;}
</style>
<g id="Background_Complete">
	<g>
		<g>
			<rect x="231.7" y="69.2" class="st0" width="51.7" height="65.3"/>
		</g>
		<g>
			<rect x="254.3" y="133" class="st1" width="7.2" height="1.7"/>
		</g>
		<g>
			<g>
				<polygon class="st1" points="259.2,91.6 249.7,93 246.1,102 252.1,109.5 261.6,108.1 265.1,99.2 				"/>
			</g>
			<g>
				<polygon class="st2" points="263.6,97.4 254.1,98.8 250.5,107.8 256.5,115.3 266,113.9 269.6,105 				"/>
			</g>
		</g>
		<g>
			<rect x="255.3" y="68.3" class="st1" width="7.2" height="1.5"/>
		</g>
	</g>
	<g>
		<g>
			<rect x="294.6" y="51.6" class="st0" width="27.4" height="34.6"/>
		</g>
		<g>
			<rect x="306.6" y="85.4" class="st1" width="3.8" height="0.9"/>
		</g>
		<g>
			<g>
				<polygon class="st1" points="309.2,63.5 304.1,64.3 302.2,69 305.4,73 310.5,72.3 312.4,67.5 				"/>
			</g>
			<g>
				<polygon class="st2" points="311.6,66.6 306.5,67.3 304.6,72.1 307.8,76.1 312.8,75.3 314.7,70.6 				"/>
			</g>
		</g>
		<g>
			<rect x="307.1" y="51.1" class="st1" width="3.8" height="0.8"/>
		</g>
	</g>
	<g>
		<g>
			<rect x="66.2" y="59.3" class="st2" width="120.5" height="212.7"/>
		</g>
		<g>
			<path class="st3" d="M187.9,110.9v-1.3h-25.7V58.1h-1.7v51.4h-30.1V56.6h-6.7v52.9h-31V58.1h-1.7v51.4H66v1.3h24.8v51.4H66v6.7
				h24.8v53.5H66v1.3h24.8V272h1.7v-48.1h31v46.6h6.7v-46.6h30.1V272h1.7v-48.1h25.7v-1.3h-25.7V169h25.7v-6.7h-25.7v-51.4H187.9z
				 M92.6,110.9h31v51.4h-31V110.9z M92.6,222.5V169h31v53.5H92.6z M160.5,222.5h-30.1V169h30.1V222.5z M160.5,162.3h-30.1v-51.4
				h30.1V162.3z"/>
		</g>
	</g>
	<g>
		<g>
			<rect x="543.9" y="65.3" class="st2" width="120.5" height="212.7"/>
		</g>
		<g>
			<path class="st3" d="M665.6,116.9v-1.3h-25.7V64.2h-1.7v51.4H608V62.6h-6.7v52.9h-31V64.2h-1.7v51.4h-24.8v1.3h24.8v51.4h-24.8
				v6.7h24.8v53.5h-24.8v1.3h24.8V278h1.7v-48.1h31v46.6h6.7v-46.6h30.1V278h1.7v-48.1h25.7v-1.3h-25.7v-53.5h25.7v-6.7h-25.7v-51.4
				H665.6z M570.3,116.9h31v51.4h-31V116.9z M570.3,228.6v-53.5h31v53.5H570.3z M638.2,228.6H608v-53.5h30.1V228.6z M638.2,168.3
				H608v-51.4h30.1V168.3z"/>
		</g>
	</g>
</g>
<g id="Background_Simple" class="st4">
	<path class="st5" d="M146.1,110.3c83.5-71,266.5,89.4,333.5,76.4s163.7,21.3,145.5,99.9c-20.2,87.2-254.6,88.1-357,58.1
		C165.7,314.7,67.3,177.2,146.1,110.3z"/>
</g>
<g id="Floor">
	<g>
		<g>
			<path class="st6" d="M722.6,420.6c0,0.1-156.1,0.3-348.6,0.3c-192.6,0-348.7-0.1-348.7-0.3s156.1-0.3,348.7-0.3
				C566.5,420.4,722.6,420.5,722.6,420.6z"/>
		</g>
	</g>
</g>
<g id="Device">
	<g>
		<g>
			<g>
				<g>
					<g>
						<path class="st6" d="M525.9,416.7H153c-8,0-14.6-6.5-14.6-14.6V165.4c0-8,6.5-14.6,14.6-14.6h372.9c8,0,14.6,6.5,14.6,14.6
							v236.7C540.4,410.2,533.9,416.7,525.9,416.7z"/>
					</g>
				</g>
				<g>
					<g>
						<path class="st7" d="M539.9,420.3H140c-9.8,0-17.8-8-17.8-17.8v-5.5h435.6v5.5C557.7,412.4,549.8,420.3,539.9,420.3z"/>
					</g>
				</g>
				<g>
					<g>
						<rect x="149.8" y="161.4" class="st0" width="379.3" height="224.5"/>
					</g>
				</g>
				<g>
					<g>
						<g>
							<path class="st6" d="M300.4,397.1c0,0,0.1,0,0.4,0c0.3,0,0.7,0,1.3,0c1.2,0,2.8,0,5,0c4.4,0,10.6,0,18.4-0.1
								c15.6,0,37.3-0.1,61.5-0.1l0.5,0l-0.2,0.4c-0.8,1.3-1.6,2.7-2.4,4.2c-0.9,1.5-1.7,3-2.6,4.4l-0.1,0.1l-0.1,0
								c-33.4-0.1-62-0.1-76.1-0.1l-0.1,0l0-0.1c-1.7-2.8-3.1-5-4-6.5c-0.4-0.7-0.8-1.3-1-1.6C300.5,397.2,300.4,397.1,300.4,397.1
								s0.1,0.2,0.4,0.6c0.3,0.4,0.6,0.9,1.1,1.6c0.9,1.5,2.3,3.6,4.1,6.3l-0.1-0.1c14.1,0,42.6-0.1,76.1-0.1l-0.2,0.1
								c0.8-1.4,1.7-2.9,2.6-4.4c0.8-1.4,1.7-2.9,2.4-4.2l0.2,0.4c-24.1-0.1-45.6-0.1-61.2-0.1c-7.8,0-14.1-0.1-18.5-0.1
								c-2.2,0-3.9,0-5,0c-0.6,0-1,0-1.3,0C300.5,397.1,300.4,397.1,300.4,397.1z"/>
						</g>
					</g>
				</g>
			</g>
		</g>
		<g>
			<g>
				<path class="st8" d="M288.6,203.2c0.7-0.9,1.5-1.8,2.4-2.5l-0.6-3.1l4.9-2.1l1.9,2.6c1.1-0.2,2.3-0.2,3.4,0l1.8-2.6l4.9,2
					l-0.5,3.2c0.9,0.7,1.8,1.5,2.5,2.4l3.1-0.6l2.1,4.9l-2.6,1.9c0.2,1.1,0.2,2.3,0,3.4l2.6,1.8l-2,4.9l-3.2-0.5
					c-0.7,0.9-1.5,1.8-2.4,2.5l0.6,3.1l-4.9,2.1l-1.9-2.6c-1.1,0.2-2.3,0.2-3.4,0l-1.8,2.6l-4.9-2l0.5-3.2c-0.9-0.7-1.8-1.5-2.5-2.4
					l-3.1,0.6l-2.1-4.9l2.6-1.9c-0.2-1.1-0.2-2.3,0-3.4l-2.6-1.8l2-4.9L288.6,203.2L288.6,203.2z M293.8,208.6
					c-1.2,2.9,0.2,6.2,3.1,7.4c2.9,1.2,6.2-0.2,7.4-3.1c1.2-2.9-0.2-6.2-3.1-7.4C298.3,204.3,295,205.7,293.8,208.6z"/>
			</g>
			<g>
				<path class="st9" d="M268.9,305.1c2-2.7,4.4-5.1,7-7.1l-1.7-9.1l14.1-6l5.4,7.5c3.3-0.5,6.6-0.5,10-0.1l5.3-7.6l14.2,5.7
					l-1.5,9.1c2.7,2,5.1,4.4,7.1,7l9.1-1.7l6,14.1l-7.5,5.4c0.5,3.3,0.5,6.6,0.1,10l7.6,5.3l-5.7,14.2l-9.1-1.5
					c-2,2.7-4.4,5.1-7,7.1l1.7,9.1l-14.1,6l-5.4-7.5c-3.3,0.5-6.6,0.5-10,0.1l-5.3,7.6L275,367l1.5-9.1c-2.7-2-5.1-4.4-7.1-7
					l-9.1,1.7l-6-14.1l7.5-5.4c-0.5-3.3-0.5-6.6-0.1-10l-7.6-5.3l5.7-14.2L268.9,305.1L268.9,305.1z M284.1,320.9
					c-3.4,8.4,0.7,18,9.1,21.4c8.4,3.4,18-0.7,21.4-9.1c3.4-8.4-0.7-18-9.1-21.4C297,308.4,287.5,312.5,284.1,320.9z"/>
			</g>
			<g>
				<g>
					<path class="st10" d="M197.7,324c1.1-1.5,2.4-2.8,3.9-3.9l-0.9-5l7.8-3.3l3,4.1c1.8-0.3,3.7-0.3,5.5-0.1l2.9-4.2l7.9,3.2
						l-0.8,5.1c1.5,1.1,2.8,2.4,3.9,3.9l5-0.9l3.3,7.8l-4.1,3c0.3,1.8,0.3,3.7,0.1,5.5l4.2,2.9l-3.2,7.9l-5.1-0.8
						c-1.1,1.5-2.4,2.8-3.9,3.9l0.9,5l-7.8,3.3l-3-4.1c-1.8,0.3-3.7,0.3-5.5,0.1l-2.9,4.2l-7.9-3.2l0.8-5.1
						c-1.5-1.1-2.8-2.4-3.9-3.9l-5,0.9l-3.3-7.8l4.1-3c-0.3-1.8-0.3-3.7-0.1-5.5l-4.2-2.9l3.2-7.9L197.7,324L197.7,324z
						 M206.1,332.8c-1.9,4.7,0.4,9.9,5,11.8c4.7,1.9,9.9-0.4,11.8-5c1.9-4.7-0.4-9.9-5-11.8C213.3,325.9,208,328.1,206.1,332.8z"/>
				</g>
				<g>
					<g>
						<path class="st6" d="M206.1,332.8c0,0,0.2-0.8,1-2c0.8-1.2,2.4-2.8,5-3.5c1.3-0.4,2.7-0.5,4.3-0.2c1.5,0.3,3.1,1,4.4,2.2
							c0.7,0.6,1.2,1.3,1.7,2.1c0.5,0.8,0.9,1.6,1.1,2.6c0.5,1.8,0.4,3.9-0.4,5.8c-0.8,1.9-2.1,3.5-3.8,4.4
							c-0.8,0.5-1.7,0.9-2.6,1.1c-0.9,0.2-1.8,0.3-2.7,0.3c-1.8,0-3.4-0.7-4.7-1.5c-1.3-0.8-2.3-2-3-3.1c-1.3-2.3-1.4-4.6-1.1-6
							C205.7,333.5,206.1,332.8,206.1,332.8c0.1,0-0.3,0.8-0.5,2.2c-0.2,1.4-0.1,3.6,1.3,5.8c0.7,1.1,1.6,2.1,2.9,2.9
							c1.3,0.8,2.8,1.3,4.5,1.4c0.8,0,1.7-0.1,2.5-0.3c0.8-0.2,1.7-0.6,2.4-1c1.5-0.9,2.8-2.4,3.5-4.2c0.7-1.8,0.8-3.7,0.4-5.5
							c-0.2-0.9-0.6-1.7-1-2.4c-0.4-0.7-1-1.4-1.6-2c-1.2-1.1-2.7-1.8-4.2-2.1c-1.5-0.3-2.9-0.2-4.1,0.1c-2.5,0.7-4.1,2.2-4.9,3.3
							C206.5,332.1,206.2,332.8,206.1,332.8z"/>
					</g>
				</g>
				<g>
					<g>
						<path class="st6" d="M197.7,324c0,0-0.1,0-0.3,0c-0.2,0-0.6-0.1-1-0.1c-0.9-0.1-2.1-0.3-3.8-0.6l0.1-0.1
							c-0.8,2-1.8,4.7-3.1,7.9l0-0.2c1.3,0.9,2.7,1.9,4.2,2.9l0.1,0.1l0,0.1c-0.2,1.7-0.2,3.6,0.1,5.5l0,0.1l-0.1,0.1
							c-1.3,0.9-2.7,2-4.1,3l0.1-0.2c1.1,2.5,2.2,5.1,3.3,7.8l-0.2-0.1c1.6-0.3,3.3-0.6,5-0.9l0.1,0l0.1,0.1c1,1.3,2.4,2.7,3.9,3.8
							l0.1,0.1l0,0.1c-0.2,1.6-0.5,3.3-0.8,5.1l-0.1-0.3c2.5,1,5.1,2.1,7.9,3.1l-0.3,0.1c0.9-1.3,1.9-2.8,2.9-4.2l0.1-0.1l0.1,0
							c1.7,0.2,3.6,0.2,5.5-0.1l0.2,0l0.1,0.1c0.9,1.3,2,2.7,3,4.1l-0.3-0.1c2.5-1.1,5.1-2.2,7.8-3.3l-0.2,0.3
							c-0.3-1.6-0.6-3.3-0.9-5l0-0.2l0.1-0.1c1.4-1.1,2.7-2.4,3.8-3.9l0,0l0.1-0.1l0.2,0c1.7,0.3,3.4,0.5,5.1,0.8l-0.3,0.2
							c1.1-2.7,2.1-5.3,3.2-7.9l0.1,0.3c-1.4-1-2.8-2-4.2-2.9l-0.1-0.1l0-0.2c0.2-1.8,0.2-3.7-0.1-5.5l0-0.2l0.1-0.1
							c1.4-1,2.8-2,4.2-3l-0.1,0.3c-1.1-2.7-2.2-5.3-3.3-7.8l0.3,0.1c-1.7,0.3-3.4,0.6-5,0.9l-0.1,0l-0.1-0.1
							c-1.1-1.5-2.5-2.8-3.9-3.8l-0.1-0.1l0-0.1c0.3-1.7,0.6-3.4,0.8-5.1l0.1,0.2c-2.8-1.1-5.4-2.2-7.9-3.2l0.2-0.1
							c-1,1.5-2,2.9-2.9,4.2l-0.1,0.1l-0.1,0c-1.9-0.2-3.8-0.2-5.5,0l-0.1,0l-0.1-0.1c-1.1-1.5-2.1-2.9-3-4.2l0.2,0.1
							c-3,1.3-5.6,2.4-7.8,3.3l0.1-0.1c0.4,2,0.6,3.7,0.9,5l0,0.1l0,0c-1.5,1.1-2.4,2.2-3,2.8c-0.3,0.3-0.5,0.6-0.7,0.8
							C197.8,324,197.7,324.1,197.7,324c0,0,0.1-0.1,0.2-0.3c0.1-0.2,0.3-0.5,0.6-0.8c0.6-0.7,1.5-1.7,3-2.9l0,0.1
							c-0.3-1.4-0.6-3-1-5l0-0.1l0.1,0c2.2-0.9,4.8-2.1,7.8-3.4l0.1,0l0.1,0.1c0.9,1.3,1.9,2.6,3,4.1l-0.2-0.1
							c1.7-0.3,3.6-0.3,5.6-0.1l-0.2,0.1c0.9-1.3,1.9-2.7,2.9-4.2l0.1-0.1l0.1,0.1c2.5,1,5.1,2,7.9,3.1l0.2,0.1l0,0.2
							c-0.3,1.6-0.5,3.3-0.8,5.1l-0.1-0.2c1.5,1.1,2.8,2.4,4,3.9l-0.2-0.1c1.6-0.3,3.3-0.6,5-0.9l0.2,0l0.1,0.2
							c1.1,2.5,2.2,5.1,3.3,7.8l0.1,0.2l-0.2,0.1c-1.4,1-2.7,2-4.1,3l0.1-0.2c0.3,1.8,0.3,3.7,0.1,5.6l-0.1-0.2
							c1.4,1,2.8,1.9,4.2,2.9l0.2,0.1l-0.1,0.2c-1,2.6-2.1,5.2-3.2,7.9l-0.1,0.2l-0.2,0c-1.7-0.3-3.4-0.5-5.1-0.8l0.2-0.1l0,0
							c-1.1,1.5-2.5,2.9-3.9,4l0.1-0.3c0.3,1.7,0.6,3.4,0.9,5l0,0.2l-0.2,0.1c-2.7,1.1-5.3,2.3-7.8,3.3l-0.2,0.1l-0.1-0.2
							c-1-1.4-2.1-2.9-3-4.1l0.2,0.1c-1.9,0.3-3.8,0.3-5.6,0.1l0.2-0.1c-1,1.5-2,2.9-2.9,4.2l-0.1,0.2l-0.2-0.1
							c-2.7-1.1-5.4-2.2-7.9-3.2l-0.2-0.1l0-0.2c0.3-1.8,0.6-3.5,0.8-5.1l0.1,0.2c-1.6-1.2-2.9-2.5-4-3.9l0.2,0.1
							c-1.8,0.3-3.5,0.6-5,0.9l-0.2,0l-0.1-0.2c-1.2-2.7-2.3-5.3-3.3-7.8l-0.1-0.1l0.1-0.1c1.5-1,2.9-2.1,4.2-3l-0.1,0.2
							c-0.3-1.9-0.3-3.8,0-5.6l0.1,0.1c-1.5-1.1-2.9-2-4.2-2.9l-0.1-0.1l0-0.1c1.3-3.2,2.4-5.8,3.2-7.8l0-0.1l0.1,0
							c1.6,0.3,2.9,0.5,3.7,0.6c0.4,0.1,0.7,0.1,1,0.2C197.6,324,197.7,324,197.7,324z"/>
					</g>
				</g>
			</g>
			<g>
				<path class="st8" d="M178.5,220.1c1.6-4.4,3.8-8.5,6.4-12.2l-5.8-11.4l16.2-13.5l10.1,7.8c4.1-1.9,8.5-3.3,13.1-4.1l4-12.1l21,2
					l1.7,12.6c4.4,1.6,8.5,3.8,12.2,6.4l11.4-5.8l13.5,16.2l-7.8,10.1c1.9,4.1,3.3,8.5,4.1,13.1l12.1,4l-2,21l-12.6,1.7
					c-1.6,4.4-3.8,8.5-6.4,12.2l5.8,11.4l-16.2,13.5l-10.1-7.8c-4.1,1.9-8.5,3.3-13.1,4.1l-4,12.1l-21-2l-1.7-12.6
					c-4.4-1.6-8.5-3.8-12.2-6.4l-11.4,5.8L172.3,270l7.8-10.1c-1.9-4.1-3.3-8.5-4.1-13.1l-12.1-4l2-21L178.5,220.1L178.5,220.1z
					 M204.8,235c-1.2,12.5,8,23.5,20.4,24.6c12.5,1.2,23.5-8,24.6-20.4c1.2-12.5-8-23.5-20.4-24.6C217,213.4,206,222.5,204.8,235z"
					/>
			</g>
		</g>
	</g>
</g>
<g id="Computer_window">
	<g>
		<g>
			<g>
				<g>
					<g>
						<g>
							<g>
								<path class="st11" d="M617.8,345.9H296.1c-1.8,0-3.3-1.5-3.3-3.3V124.9c0-1.8,1.5-3.3,3.3-3.3h321.7c1.8,0,3.3,1.5,3.3,3.3
									v217.7C621.1,344.4,619.6,345.9,617.8,345.9z"/>
							</g>
						</g>
					</g>
					<g>
						<g>
							<g>
								<polygon class="st12" points="621.4,346.1 291.7,347.4 292.5,138 621.4,138 								"/>
							</g>
						</g>
					</g>
					<g>
						<g>
							<g>
								<path class="st6" d="M316.2,130.6c0,1.2-0.9,2.1-2.1,2.1c-1.1,0-2.1-0.9-2.1-2.1c0-1.2,0.9-2.1,2.1-2.1
									C315.3,128.5,316.2,129.4,316.2,130.6z"/>
							</g>
						</g>
					</g>
					<g>
						<g>
							<g>
								<path class="st6" d="M304.3,130.7c0,1.2-0.9,2.1-2.1,2.1c-1.1,0-2.1-0.9-2.1-2.1s0.9-2.1,2.1-2.1
									C303.3,128.5,304.3,129.5,304.3,130.7z"/>
							</g>
						</g>
					</g>
					<g>
						<g>
							<g>
								<path class="st6" d="M310.4,130.6c0,1.2-0.9,2.1-2.1,2.1c-1.1,0-2.1-0.9-2.1-2.1c0-1.2,0.9-2.1,2.1-2.1
									C309.5,128.5,310.4,129.4,310.4,130.6z"/>
							</g>
						</g>
					</g>
				</g>
			</g>
		</g>
		<g>
			<g>
				<rect x="312.7" y="270.9" class="st0" width="291" height="62"/>
			</g>
			<g>
				<g>
					<g>
						<path class="st6" d="M576.5,282c0,0.1-56.5,0.3-126.1,0.3c-69.7,0-126.2-0.1-126.2-0.3c0-0.1,56.5-0.3,126.2-0.3
							C520,281.7,576.5,281.8,576.5,282z"/>
					</g>
				</g>
				<g>
					<g>
						<path class="st6" d="M443.8,317.9c0,0,0.7,0,2-0.3c1.3-0.3,3.3-1,5.1-2.8c1.8-1.7,3.3-4.8,2.9-8.4c-0.1-0.9-0.4-1.8-0.7-2.7
							c-0.4-0.9-0.9-1.7-1.5-2.5c-1.3-1.5-3.2-2.8-5.4-3.4c-1.1-0.3-2.2-0.3-3.5-0.3c-1.2,0-2.4,0-3.7,0c-2.5,0-5.1,0-7.8,0
							c-5.4,0-11.2,0-17.3,0c-12.2,0-25.5,0-39.6,0c-1.7,0-3.4,0.4-4.9,1.3c-1.5,0.8-2.7,2-3.6,3.4c-1.8,2.8-2,6.5-0.7,9.4
							c1.3,3,4.1,5.1,7.1,5.7c1.5,0.3,3.1,0.2,4.7,0.2c1.6,0,3.1,0,4.6,0c12.2,0,23.1,0,32.3,0.1c9.2,0,16.6,0.1,21.8,0.1
							c2.6,0,4.5,0,5.9,0c0.7,0,1.2,0,1.5,0C443.7,317.9,443.8,317.9,443.8,317.9s-0.2,0-0.5,0c-0.4,0-0.9,0-1.5,0
							c-1.4,0-3.4,0-5.9,0c-5.2,0-12.6,0-21.8,0.1c-9.2,0-20.2,0-32.3,0.1c-1.5,0-3.1,0-4.6,0c-1.5,0-3.1,0.1-4.8-0.2
							c-3.2-0.6-6.1-2.9-7.5-6c-1.4-3.1-1.2-6.9,0.7-9.9c0.9-1.5,2.3-2.7,3.8-3.6c1.6-0.9,3.3-1.3,5.1-1.3c14,0,27.4,0,39.6,0
							c6.1,0,11.9,0,17.3,0c2.7,0,5.3,0,7.8,0c1.3,0,2.5,0,3.7,0c1.2,0,2.4,0,3.5,0.3c2.3,0.5,4.2,1.9,5.5,3.5
							c0.7,0.8,1.2,1.7,1.6,2.6c0.4,0.9,0.6,1.9,0.7,2.8c0.4,3.7-1.2,6.9-3.1,8.6c-1.9,1.8-3.9,2.5-5.2,2.7
							c-0.7,0.1-1.2,0.2-1.5,0.2C444,317.9,443.8,317.9,443.8,317.9z"/>
					</g>
				</g>
				<g>
					<g>
						<path class="st6" d="M552.7,317.9c0,0,0.7,0,2-0.3c1.3-0.3,3.3-1,5.1-2.8c1.8-1.7,3.3-4.8,2.9-8.4c-0.1-0.9-0.4-1.8-0.7-2.7
							c-0.4-0.9-0.9-1.7-1.5-2.5c-1.3-1.5-3.2-2.8-5.4-3.4c-1.1-0.3-2.2-0.3-3.5-0.3c-1.2,0-2.4,0-3.7,0c-2.5,0-5.1,0-7.8,0
							c-5.4,0-11.2,0-17.3,0c-12.2,0-25.5,0-39.6,0c-1.7,0-3.4,0.4-4.9,1.3c-1.5,0.8-2.7,2-3.6,3.4c-1.8,2.8-2,6.5-0.7,9.4
							c1.3,3,4.1,5.1,7.1,5.7c1.5,0.3,3.1,0.2,4.7,0.2c1.6,0,3.1,0,4.6,0c12.2,0,23.1,0,32.3,0.1c9.2,0,16.6,0.1,21.8,0.1
							c2.6,0,4.5,0,5.9,0c0.7,0,1.2,0,1.5,0C552.6,317.9,552.7,317.9,552.7,317.9s-0.2,0-0.5,0c-0.4,0-0.9,0-1.5,0
							c-1.4,0-3.4,0-5.9,0c-5.2,0-12.6,0-21.8,0.1c-9.2,0-20.2,0-32.3,0.1c-1.5,0-3.1,0-4.6,0c-1.5,0-3.1,0.1-4.8-0.2
							c-3.2-0.6-6.1-2.9-7.5-6c-1.4-3.1-1.2-6.9,0.7-9.9c0.9-1.5,2.3-2.7,3.8-3.6c1.6-0.9,3.3-1.3,5.1-1.3c14,0,27.4,0,39.6,0
							c6.1,0,11.9,0,17.3,0c2.7,0,5.3,0,7.8,0c1.3,0,2.5,0,3.7,0c1.2,0,2.4,0,3.5,0.3c2.3,0.5,4.2,1.9,5.5,3.5
							c0.7,0.8,1.2,1.7,1.6,2.6c0.4,0.9,0.6,1.9,0.7,2.8c0.4,3.7-1.2,6.9-3.1,8.6c-1.9,1.8-3.9,2.5-5.2,2.7
							c-0.7,0.1-1.2,0.2-1.5,0.2C552.9,317.9,552.7,317.9,552.7,317.9z"/>
					</g>
				</g>
			</g>
		</g>
		<g>
			<rect x="310.4" y="155.4" class="st11" width="105" height="100.1"/>
		</g>
		<g>
			<g>
				<g>
					<path class="st6" d="M412.9,251c0,0,0-0.6,0-1.7c0-1.1,0-2.8,0-4.9c0-4.3,0-10.5-0.1-18.5c0-15.9-0.1-38.7-0.1-66l0.2,0.2
						c-28.4,0-62.2,0-98.4,0h0l0.3-0.3c0,33.2,0,64.4,0,91.1l-0.2-0.2c29.4,0,54,0.1,71.2,0.1c8.6,0,15.4,0,20.1,0.1
						c2.3,0,4.1,0,5.3,0c0.6,0,1,0,1.4,0C412.7,251,412.9,251,412.9,251s-0.1,0-0.4,0c-0.3,0-0.8,0-1.3,0c-1.2,0-3,0-5.3,0
						c-4.6,0-11.4,0-20,0.1c-17.3,0-41.9,0.1-71.4,0.1l-0.2,0l0-0.2c0-26.7,0-57.9,0-91.1l0-0.3h0.3h0c36.2,0,70,0,98.4,0l0.2,0
						l0,0.2c0,27.4-0.1,50.2-0.1,66.2c0,7.9,0,14.2-0.1,18.5c0,2.1,0,3.7,0,4.8C412.9,250.4,412.9,251,412.9,251z"/>
				</g>
			</g>
			<g>
				<g>
					<path class="st6" d="M412.9,202.9c0,0-0.1-0.1-0.4-0.3c-0.3-0.2-0.6-0.5-1.1-0.9c-1-0.8-2.4-2-4.2-3.4
						c-3.7-3-8.9-7.3-15.2-12.5l0.3,0c-8.1,6.6-18,14.8-28.8,23.6c-1.7,1.4-3.3,2.7-4.9,4l-0.2,0.1l-0.2-0.2
						c-5.3-4.9-10.4-9.5-15.1-13.7l0.3,0c-8.4,7.2-15.5,13.4-20.5,17.7c-2.5,2.1-4.5,3.8-5.9,5c-0.7,0.6-1.2,1-1.6,1.3
						c-0.2,0.1-0.3,0.2-0.4,0.3c-0.1,0.1-0.1,0.1-0.1,0.1c0,0,0,0,0.1-0.1c0.1-0.1,0.2-0.2,0.4-0.4c0.4-0.3,0.9-0.8,1.5-1.4
						c1.4-1.2,3.3-2.9,5.8-5.1c5-4.4,12.1-10.6,20.4-17.9l0.2-0.1l0.2,0.1c4.6,4.2,9.7,8.8,15.1,13.7l-0.3,0c1.6-1.3,3.2-2.7,4.9-4
						c10.8-8.8,20.7-16.9,28.8-23.5l0.1-0.1l0.1,0.1c6.3,5.3,11.5,9.6,15.1,12.7c1.8,1.5,3.2,2.7,4.2,3.5c0.5,0.4,0.8,0.7,1.1,0.9
						C412.8,202.7,412.9,202.9,412.9,202.9z"/>
				</g>
			</g>
			<g>
				<g>
					<path class="st6" d="M369.7,179.7c-0.1,0,0-0.7-0.3-1.8c-0.3-1.1-1.1-2.7-2.7-4c-0.8-0.6-1.9-1.1-3.1-1.3
						c-1.2-0.2-2.5-0.2-3.8,0.3c-1.3,0.5-2.5,1.3-3.3,2.5c-0.9,1.2-1.4,2.7-1.4,4.3c0,1.6,0.5,3.1,1.4,4.3c0.9,1.2,2.1,2.1,3.3,2.5
						c1.3,0.5,2.6,0.5,3.8,0.3c1.2-0.2,2.2-0.7,3.1-1.3c1.7-1.2,2.4-2.9,2.7-4C369.7,180.4,369.6,179.7,369.7,179.7c0,0,0,0.2,0,0.5
						c0,0.3,0,0.8-0.2,1.4c-0.2,1.2-1,2.9-2.7,4.2c-0.9,0.7-1.9,1.2-3.2,1.5c-1.3,0.2-2.7,0.2-4-0.3c-1.4-0.5-2.7-1.4-3.6-2.7
						c-1-1.3-1.5-2.9-1.5-4.6c0-1.7,0.6-3.3,1.5-4.6c0.9-1.3,2.2-2.2,3.6-2.7c1.4-0.5,2.8-0.5,4-0.3c1.3,0.2,2.3,0.8,3.2,1.5
						c1.7,1.4,2.4,3.1,2.7,4.2c0.1,0.6,0.2,1.1,0.2,1.4C369.7,179.6,369.7,179.7,369.7,179.7z"/>
				</g>
			</g>
		</g>
	</g>
</g>
<g id="Character_2">
	<g>
		<g>
			<g>
				<path class="st13" d="M648.5,253.7l-11.3-14.1c0,0-18.2,14.2-20.2,13.1c-11.4-6-20.6-17-23.8-21c-0.1-0.7-0.2-1.6-0.3-2.6
					c-0.1-0.9,0-1.7,0.2-2.6c0.3-1,0.7-2.4,1.1-3c0.6-0.8-0.2-1.9-1-1.6c-0.9,0.3-2.5,2.5-3,5.7c-0.5,3.2-3-1.2-4-2.8
					c-0.9-1.6-4.1-6.4-4.8-6.5c-1.1-0.1-1.4,1-0.4,2.5c1,1.6,3.6,6.5,2.7,6.9c-0.9,0.4-5.5-7.7-5.5-7.7s-0.7-1.9-1.7-1.4
					c-1.8,0.9,3.8,9.2,4.3,10c0.4,0.5-0.5,1.1-0.9,0.5c-0.4-0.6-4.5-8.3-6.3-7.4c-1.4,0.7,4.5,6.9,4.5,8.9c0,2.1-4-5.2-5.4-4.5
					c-0.5,0.3-0.8,0.5,2.1,4.3c1.4,1.8,4.3,4.9,7,7.6l0,0c0,0,26.9,41.3,45.6,30.3C647.1,256.7,648.5,253.7,648.5,253.7z"/>
			</g>
		</g>
	</g>
	<g>
		<g>
			<g>
				<g>
					<g>
						<g>
							<g>
								<g>
									<path class="st11" d="M692.1,429l-5.8-4.5l8.4-11l8.6,6.5l-0.5,0.7c-2.1,3.2-11.1,15.9-13.3,17.4
										C687.1,439.9,692.1,429,692.1,429z"/>
								</g>
							</g>
						</g>
					</g>
					<g class="st14">
						<g>
							<g>
								<path class="st3" d="M689.8,434.5c0,0-1.6,4-0.7,4c0.8,0,10.4-12.5,14.1-18.4l-0.3-0.2l-11,14.7
									C692,434.6,690.3,433.9,689.8,434.5z"/>
							</g>
						</g>
					</g>
					<g>
						<g>
							<g>
								<g>
									<path class="st6" d="M703.1,419.7c0,0,0,0.1-0.1,0.2c-0.1,0.2-0.2,0.4-0.4,0.6c-0.4,0.6-0.9,1.2-1.4,2.1
										c-1.2,1.7-3,4.1-4.9,6.7c-2,2.6-3.8,4.9-5.1,6.5c-0.6,0.8-1.2,1.4-1.6,1.9c-0.2,0.2-0.3,0.4-0.4,0.5
										c-0.1,0.1-0.2,0.2-0.2,0.2c0,0,0-0.1,0.1-0.2c0.1-0.2,0.3-0.3,0.4-0.5c0.4-0.5,0.9-1.2,1.6-2c1.3-1.7,3.1-4,5.1-6.5
										c2-2.6,3.7-4.9,4.9-6.6c0.6-0.8,1.1-1.5,1.5-2c0.2-0.2,0.3-0.4,0.4-0.5C703.1,419.8,703.1,419.7,703.1,419.7z"/>
								</g>
							</g>
						</g>
					</g>
					<g>
						<g>
							<g>
								<g>
									<path class="st6" d="M692.2,434.7c0,0-0.5-0.3-1.2-0.4c-0.7-0.1-1.3,0.1-1.3,0.1c0,0,0.5-0.3,1.3-0.3
										C691.7,434.3,692.2,434.7,692.2,434.7z"/>
								</g>
							</g>
						</g>
					</g>
					<g>
						<g>
							<g>
								<g>
									<path class="st6" d="M693,430.2c0,0-0.3,0.1-0.7,0s-0.7-0.1-0.7-0.1c0,0,0.3-0.1,0.7,0C692.7,430.1,693,430.2,693,430.2z"
										/>
								</g>
							</g>
						</g>
					</g>
					<g>
						<g>
							<g>
								<g>
									<path class="st6" d="M693.2,429c0,0-0.2,0.1-0.6,0.2c-0.3,0.1-0.6,0.1-0.6,0c0,0,0.2-0.1,0.6-0.2
										C692.9,429,693.2,428.9,693.2,429z"/>
								</g>
							</g>
						</g>
					</g>
					<g>
						<g>
							<g>
								<g>
									<path class="st6" d="M692.6,427.6c0,0-0.1,0.3-0.4,0.6c-0.2,0.3-0.5,0.6-0.5,0.5c0,0,0.1-0.3,0.4-0.6
										C692.3,427.8,692.5,427.6,692.6,427.6z"/>
								</g>
							</g>
						</g>
					</g>
					<g>
						<g>
							<g>
								<g>
									<path class="st6" d="M692,426.9c0,0,0,0.4-0.3,0.8c-0.3,0.4-0.6,0.6-0.6,0.6c0,0,0.2-0.3,0.5-0.7
										C691.8,427.2,692,426.9,692,426.9z"/>
								</g>
							</g>
						</g>
					</g>
					<g>
						<g>
							<g>
								<g>
									<path class="st6" d="M691.7,429.9c0,0-0.2,0.3-0.5,0.7c-0.2,0.2-0.4,0.4-0.7,0.6c-0.2,0.1-0.3,0.2-0.5,0.3
										c-0.1,0-0.2,0.1-0.4,0c-0.1-0.1-0.2-0.2-0.2-0.3c0.2-0.9,1.1-1.3,1.6-1.3c0.3,0,0.5,0.1,0.6,0.1c0.1,0.1,0.2,0.1,0.2,0.1
										c0,0-0.3-0.2-0.8-0.1c-0.3,0-0.6,0.1-0.9,0.3c-0.3,0.2-0.6,0.5-0.6,0.9c0,0.2,0.2,0.2,0.3,0.2c0.2-0.1,0.3-0.2,0.5-0.3
										c0.3-0.2,0.5-0.4,0.7-0.6C691.5,430.1,691.7,429.9,691.7,429.9z"/>
								</g>
							</g>
						</g>
					</g>
					<g>
						<g>
							<g>
								<g>
									<path class="st6" d="M691.6,430.1c0,0-0.3,0-0.6-0.3c-0.1-0.1-0.3-0.3-0.4-0.6c-0.1-0.2-0.2-0.6,0.1-0.9
										c0.1-0.1,0.4-0.1,0.5,0c0.1,0.1,0.2,0.2,0.2,0.4c0.1,0.2,0.1,0.5,0.2,0.7C691.7,429.8,691.7,430,691.6,430.1
										c0-0.1,0-0.3-0.1-0.7c0-0.2-0.1-0.4-0.2-0.6c-0.1-0.2-0.3-0.5-0.5-0.3c-0.2,0.2-0.1,0.5-0.1,0.7c0.1,0.2,0.2,0.4,0.3,0.5
										C691.4,430,691.7,430.1,691.6,430.1z"/>
								</g>
							</g>
						</g>
					</g>
					<g>
						<g>
							<g>
								<g>
									<path class="st6" d="M700,417.6c0,0-0.3,0.3-0.6,0.8c-0.3,0.5-0.6,1.4-0.6,2.3c0,1,0.4,1.8,0.7,2.3
										c0.3,0.5,0.6,0.8,0.6,0.8c0,0-0.1,0-0.2-0.2c-0.1-0.1-0.3-0.3-0.5-0.6c-0.4-0.5-0.8-1.4-0.8-2.4c0-1,0.3-1.9,0.7-2.4
										c0.2-0.3,0.3-0.5,0.5-0.6C699.9,417.7,700,417.6,700,417.6z"/>
								</g>
							</g>
						</g>
					</g>
					<g>
						<g>
							<g>
								<g>
									<path class="st6" d="M694.5,415.3c0,0,1.1,0.7,2.3,1.6c1.3,0.9,2.3,1.7,2.2,1.8c0,0-1.1-0.7-2.3-1.6
										C695.5,416.1,694.5,415.3,694.5,415.3z"/>
								</g>
							</g>
						</g>
					</g>
					<g>
						<g>
							<g>
								<g>
									<path class="st6" d="M698,424.5c0,0-0.4,0.8-1.1,1.7c-0.7,0.9-1.3,1.5-1.4,1.5c0,0,0.6-0.7,1.2-1.6
										C697.5,425.3,698,424.5,698,424.5z"/>
								</g>
							</g>
						</g>
					</g>
					<g>
						<g>
							<g>
								<g>
									<path class="st6" d="M699.7,422.4c0,0,0.1,0.2,0.2,0.4c0.1,0.2,0.2,0.3,0.2,0.4c0,0-0.2-0.1-0.3-0.3
										C699.6,422.6,699.6,422.4,699.7,422.4z"/>
								</g>
							</g>
						</g>
					</g>
					<g>
						<g>
							<g>
								<g>
									<path class="st6" d="M699.3,420.8c0,0,0.1,0.2,0.1,0.4c0,0.2,0,0.4,0,0.4c0,0-0.1-0.2-0.1-0.4
										C699.2,421,699.2,420.8,699.3,420.8z"/>
								</g>
							</g>
						</g>
					</g>
					<g>
						<g>
							<g>
								<g>
									<path class="st6" d="M699.7,419.3c0,0-0.1,0.2-0.1,0.4c-0.1,0.2-0.1,0.4-0.1,0.4c0,0-0.1-0.2,0-0.4
										C699.5,419.4,699.7,419.3,699.7,419.3z"/>
								</g>
							</g>
						</g>
					</g>
					<g>
						<g>
							<g>
								<g>
									<path class="st6" d="M700.1,418.3c0,0,0.1,0.1,0,0.2c0,0.1-0.1,0.2-0.1,0.2c0,0-0.1-0.1,0-0.2
										C700,418.4,700.1,418.3,700.1,418.3z"/>
								</g>
							</g>
						</g>
					</g>
				</g>
			</g>
			<g class="st15">
				<polygon points="699.7,417.4 691.1,428.3 689.8,427.2 699,416.8 				"/>
			</g>
		</g>
		<g>
			<g>
				<g>
					<g>
						<g>
							<g>
								<g>
									<path class="st11" d="M646.9,450.6l-0.9-7.3l13.7-1.8l1.5,10.7l-0.8,0.2c-3.7,0.7-19.1,3.4-21.7,2.9
										C635.6,454.7,646.9,450.6,646.9,450.6z"/>
								</g>
							</g>
						</g>
					</g>
					<g class="st14">
						<g>
							<g>
								<path class="st3" d="M641.4,452.8c0,0-3.9,1.7-3.3,2.3c0.6,0.6,16.2-1.5,23-3l-0.1-0.3l-18.2,2.6
									C642.9,454.4,642.2,452.7,641.4,452.8z"/>
							</g>
						</g>
					</g>
					<g>
						<g>
							<g>
								<g>
									<path class="st6" d="M661.3,451.8c0,0-0.1,0-0.2,0.1c-0.2,0-0.4,0.1-0.7,0.1c-0.7,0.1-1.5,0.3-2.5,0.4
										c-2.1,0.4-5,0.8-8.2,1.2c-3.2,0.4-6.1,0.8-8.2,1c-1,0.1-1.8,0.2-2.5,0.2c-0.3,0-0.5,0-0.7,0.1c-0.2,0-0.2,0-0.2,0
										c0,0,0.1,0,0.2,0c0.2,0,0.4-0.1,0.7-0.1c0.7-0.1,1.5-0.2,2.5-0.3c2.1-0.2,5-0.6,8.2-1c3.2-0.4,6.1-0.9,8.2-1.2
										c1-0.2,1.8-0.3,2.5-0.4c0.3,0,0.5-0.1,0.7-0.1C661.2,451.8,661.3,451.8,661.3,451.8z"/>
								</g>
							</g>
						</g>
					</g>
					<g>
						<g>
							<g>
								<g>
									<path class="st6" d="M642.9,454.6c0,0-0.2-0.6-0.6-1.1c-0.4-0.6-1-0.8-1-0.8c0,0,0.6,0.1,1.1,0.7
										C642.9,454,642.9,454.6,642.9,454.6z"/>
								</g>
							</g>
						</g>
					</g>
					<g>
						<g>
							<g>
								<g>
									<path class="st6" d="M646.7,452c0,0-0.3-0.2-0.5-0.5s-0.4-0.5-0.4-0.6c0,0,0.3,0.2,0.5,0.5
										C646.5,451.8,646.7,452,646.7,452z"/>
								</g>
							</g>
						</g>
					</g>
					<g>
						<g>
							<g>
								<g>
									<path class="st6" d="M647.7,451.3c0,0-0.3-0.1-0.5-0.3c-0.3-0.2-0.5-0.4-0.4-0.4c0,0,0.3,0.1,0.5,0.3
										C647.5,451.1,647.7,451.3,647.7,451.3z"/>
								</g>
							</g>
						</g>
					</g>
					<g>
						<g>
							<g>
								<g>
									<path class="st6" d="M648.2,449.9c0,0-0.3,0.1-0.7,0.2c-0.4,0.1-0.7,0.1-0.7,0c0,0,0.3-0.1,0.7-0.2
										C647.9,449.9,648.2,449.9,648.2,449.9z"/>
								</g>
							</g>
						</g>
					</g>
					<g>
						<g>
							<g>
								<g>
									<path class="st6" d="M648.3,449c0,0-0.3,0.2-0.8,0.3c-0.5,0.1-0.8,0-0.8,0c0,0,0.4-0.1,0.8-0.2
										C648,449.1,648.3,448.9,648.3,449z"/>
								</g>
							</g>
						</g>
					</g>
					<g>
						<g>
							<g>
								<g>
									<path class="st6" d="M646,450.9c0,0-0.3,0.1-0.9,0.1c-0.3,0-0.6,0-1-0.1c-0.2,0-0.4-0.1-0.6-0.1c-0.1,0-0.2-0.1-0.3-0.2
										c-0.1-0.1,0-0.3,0.1-0.4c0.8-0.5,1.7-0.2,2.1,0.2c0.2,0.2,0.3,0.4,0.4,0.5c0.1,0.1,0.1,0.2,0.1,0.2c0,0-0.1-0.3-0.5-0.7
										c-0.2-0.2-0.5-0.3-0.8-0.4c-0.3-0.1-0.8,0-1,0.2c-0.1,0.1,0,0.3,0.1,0.4c0.2,0.1,0.4,0.1,0.5,0.1c0.3,0.1,0.7,0.1,0.9,0.1
										C645.7,450.9,646,450.9,646,450.9z"/>
								</g>
							</g>
						</g>
					</g>
					<g>
						<g>
							<g>
								<g>
									<path class="st6" d="M645.8,451c0,0-0.2-0.2-0.2-0.6c0-0.2,0-0.4,0.2-0.7c0.1-0.2,0.3-0.5,0.7-0.5c0.2,0,0.3,0.2,0.3,0.4
										c0,0.2,0,0.3-0.1,0.4c-0.1,0.2-0.2,0.4-0.3,0.6C646.1,450.8,645.9,451,645.8,451c0.1,0,0.2-0.2,0.4-0.5
										c0.1-0.2,0.2-0.3,0.3-0.6c0.1-0.2,0.1-0.5-0.1-0.6c-0.2,0-0.4,0.3-0.5,0.5c-0.1,0.2-0.2,0.4-0.2,0.6
										C645.7,450.8,645.8,451,645.8,451z"/>
								</g>
							</g>
						</g>
					</g>
					<g>
						<g>
							<g>
								<g>
									<path class="st6" d="M660.5,448.1c0,0-0.4,0-1,0.2c-0.6,0.2-1.4,0.5-2.1,1.2c-0.7,0.7-1,1.5-1.1,2.1c-0.1,0.6-0.1,1-0.1,1
										c0,0,0-0.1,0-0.3c0-0.2,0-0.4,0.1-0.8c0.1-0.6,0.4-1.5,1.1-2.2c0.7-0.7,1.6-1.1,2.2-1.2c0.3-0.1,0.6-0.1,0.8-0.1
										C660.4,448.1,660.5,448.1,660.5,448.1z"/>
								</g>
							</g>
						</g>
					</g>
					<g>
						<g>
							<g>
								<g>
									<path class="st6" d="M658.3,442.6c0,0,0.3,1.2,0.5,2.8c0.2,1.5,0.4,2.8,0.3,2.8c0,0-0.3-1.2-0.5-2.8
										C658.4,443.9,658.3,442.6,658.3,442.6z"/>
								</g>
							</g>
						</g>
					</g>
					<g>
						<g>
							<g>
								<g>
									<path class="st6" d="M654.3,451.6c0,0-0.9,0.3-2,0.5c-1.1,0.2-2,0.2-2,0.1c0,0,0.9-0.1,2-0.3
										C653.4,451.7,654.2,451.5,654.3,451.6z"/>
								</g>
							</g>
						</g>
					</g>
					<g>
						<g>
							<g>
								<g>
									<path class="st6" d="M656.9,451.2c0,0,0,0.2-0.1,0.4c-0.1,0.2-0.1,0.4-0.1,0.4c0,0-0.1-0.2,0-0.5
										C656.7,451.3,656.9,451.2,656.9,451.2z"/>
								</g>
							</g>
						</g>
					</g>
					<g>
						<g>
							<g>
								<g>
									<path class="st6" d="M657.8,449.8c0,0,0,0.2-0.2,0.3c-0.1,0.2-0.3,0.3-0.3,0.2c0,0,0-0.2,0.2-0.3
										C657.6,449.9,657.7,449.8,657.8,449.8z"/>
								</g>
							</g>
						</g>
					</g>
					<g>
						<g>
							<g>
								<g>
									<path class="st6" d="M659.1,449.1c0,0-0.2,0.1-0.4,0.2c-0.2,0.1-0.3,0.2-0.4,0.2c0,0,0-0.2,0.3-0.3
										C658.9,449,659.2,449,659.1,449.1z"/>
								</g>
							</g>
						</g>
					</g>
					<g>
						<g>
							<g>
								<g>
									<path class="st6" d="M660.1,448.6c0,0,0,0.1-0.2,0.2s-0.2,0.1-0.2,0c0,0,0-0.1,0.2-0.2C660,448.6,660.1,448.6,660.1,448.6z
										"/>
								</g>
							</g>
						</g>
					</g>
				</g>
			</g>
			<g class="st15">
				<polygon points="660.4,447.7 646.7,449.3 646.5,447.7 660.3,445.9 				"/>
			</g>
		</g>
		<g>
			<g>
				<g>
					<g>
						<g>
							<path class="st11" d="M666.1,229.9c4-0.3,8.3,1,11.7,4.2l2.8,13.9l-4.8,19.5c-1.4,5.7,2.7,13.7,3.8,23l-38.2,6.7l-0.1-22.9
								l-4-12.2l-6.3,4.1l-13.4-15.5l12.4-9.9c10-9.7,22.2-9.9,22.2-9.9"/>
						</g>
					</g>
				</g>
				<g>
					<g>
						<path class="st6" d="M641.4,249.3c0,0.1-0.8,0.4-2,1.3c-1.1,0.9-2.5,2.4-3.1,4.5c-0.6,2.1-0.2,4.1,0.3,5.4
							c0.5,1.3,1.1,2,1,2.1c0,0-0.7-0.6-1.4-2c-0.6-1.3-1.1-3.5-0.4-5.7c0.6-2.2,2.1-3.8,3.4-4.6
							C640.5,249.4,641.4,249.2,641.4,249.3z"/>
					</g>
				</g>
				<g>
					<g>
						<path class="st6" d="M651.2,230.8c0.1,0-0.1,1.5,1,3.6c0.5,1,1.4,2.2,2.6,3c1.3,0.9,2.9,1.3,4.7,1.2c1.7-0.1,3.4-0.8,4.5-1.8
							c1.2-1,1.9-2.2,2.3-3.3c0.8-2.2,0.4-3.7,0.5-3.7c0,0,0.1,0.3,0.2,1c0.1,0.7,0,1.7-0.3,2.8c-0.4,1.1-1.1,2.5-2.3,3.6
							c-1.2,1.1-2.9,1.8-4.8,2c-1.9,0.1-3.7-0.4-5-1.3c-1.3-0.9-2.2-2.1-2.7-3.2c-0.5-1.1-0.7-2.1-0.7-2.8
							C651.1,231.2,651.1,230.8,651.2,230.8z"/>
					</g>
				</g>
			</g>
			<g>
				<g>
					<path class="st16" d="M614.5,281.7c-1.1-1.5-8.6-2.8-7.9-4c0.8-1.6,7.7,1.7,8.4,1.9c0.6,0.2,0.9-0.6,0.4-0.8
						c-0.8-0.3-9.1-3.3-8.3-4.9c0.4-0.9,2,0.1,2,0.1s7.6,3.4,8,2.6c0.4-0.8-4.1-2.9-5.6-3.5c-1.5-0.6-1.9-1.6-1.1-2
						c0.6-0.3,5.3,1.5,6.8,2.1c1.5,0.6,5.6,2.5,4.3-0.1c0,0,0-0.1-0.1-0.1c-1.4-2.5-1.6-4.9-1.2-5.6c0.4-0.7,1.4-0.5,1.8,0.2
						c0.1,0.1,0.1,0.2,0.1,0.4c0,0.1,0,0.1,0,0.2c0.2,0.8,0.7,1.9,1.1,2.7c0.4,0.8,0.9,1.5,1.6,2.1c0.7,0.7,1.4,1.3,2,1.7
						c5,0.9,19.3,2.9,31.7-0.3c2.3-0.6,10.3-25.9,10.3-25.9l15.3,7.4c-0.6,3-3.4,10.5-7.4,23.2c-6.5,20.7-54,6.2-54,6.2l0,0
						l-0.4-0.1c-3.6-0.5-7.8-1.2-10-1.9c-4.1-1.2-4-1.6-3.8-2C608.9,280.1,615.6,283.2,614.5,281.7z"/>
				</g>
				<g>
					<g>
						<g>
							<path class="st6" d="M659.5,270c-0.1,0,0.3-1.2,0.9-3.1c0.7-2,1.5-4.6,2.4-7.4c0.9-2.8,1.6-5.4,2.3-7.4
								c0.6-1.9,0.9-3.1,1-3.1c0.1,0-0.2,1.2-0.7,3.1c-0.5,1.9-1.2,4.6-2.1,7.5c-0.9,2.9-1.8,5.5-2.5,7.3
								C660.1,268.9,659.6,270,659.5,270z"/>
						</g>
					</g>
					<g>
						<g>
							<g>
								<g>
									<path class="st11" d="M673.6,231.4c0,0,10.5,1.9,10.9,19c0.4,17.1-6.5,30.2-6.5,30.2l-18.4-9.7c4.1-8.4,7.3-17.1,9.3-26.1
										L673.6,231.4L673.6,231.4z"/>
								</g>
							</g>
						</g>
					</g>
					<g>
						<g>
							<path class="st6" d="M659.2,270.6c0-0.1,1.1,0.5,2.7,1.4c1.7,0.9,4,2.1,6.6,3.4c2.6,1.3,5,2.3,6.7,3.1
								c1.7,0.8,2.8,1.2,2.8,1.3c0,0.1-1.1-0.3-2.9-1c-1.8-0.7-4.2-1.7-6.8-2.9c-2.6-1.3-4.9-2.5-6.5-3.5
								C660.1,271.3,659.1,270.7,659.2,270.6z"/>
						</g>
					</g>
					<g>
						<g>
							<path class="st6" d="M684.1,259c0.1,0-0.1,1.2-0.4,3.1c-0.3,1.9-0.9,4.5-1.7,7.3c-0.8,2.8-1.6,5.4-2.2,7.2
								c-0.6,1.8-1,2.9-1.1,2.9c-0.1,0,0.2-1.2,0.8-3c0.6-2,1.3-4.5,2-7.2c0.8-2.8,1.4-5.4,1.8-7.3C683.8,260.2,684,259,684.1,259z"
								/>
						</g>
					</g>
				</g>
			</g>
		</g>
		<g>
			<g>
				<path class="st6" d="M670.6,198.1c2.4,0.8,3.9,3.6,3.4,6c2.5,0.2,4.8,2.1,5.5,4.6c0.6,2.5-0.5,5.3-2.6,6.6
					c1.8,2.5,1.5,6.4-0.7,8.5c-2.2,2.2-6.1,2.4-8.5,0.5c-1.1,2.3-3.9,3.5-6.4,3.2c-2.5-0.3-4.8-1.9-6.4-3.8
					c-2.1,2.6-6.2,3.3-9.1,1.7c-2.9-1.7-4.3-5.5-3.2-8.7c-2-0.1-3.7-2-3.9-4.1c-0.2-2,1-4.1,2.6-5.3c0,0-4.9-8.3,4.5-7.7"/>
			</g>
			<g>
				<g>
					<g>
						<g>
							<g>
								<g>
									<path class="st16" d="M666.8,231.7l1.3-29.2l-11.7-8.9l-10.6,5.2c0,0-0.4,13.3,0,19.1c0.4,5.8,6.2,6.4,6.2,6.4
										s-0.2,3.2-0.4,6.6c-0.2,4.2,2.9,7.7,7.1,8l0,0C662.9,239.2,666.6,235.9,666.8,231.7z"/>
								</g>
							</g>
						</g>
						<g>
							<g>
								<g>
									<g>
										<path class="st6" d="M646.9,208.4c0,0.4,0.3,0.7,0.7,0.7c0.4,0,0.7-0.3,0.7-0.7s-0.3-0.7-0.7-0.7
											C647.2,207.6,646.9,207.9,646.9,208.4z"/>
									</g>
								</g>
							</g>
							<g>
								<g>
									<g>
										<g>
											<path class="st6" d="M646.2,207.5c0.1,0.1,0.6-0.4,1.4-0.4c0.8-0.1,1.4,0.3,1.5,0.2c0,0-0.1-0.2-0.3-0.4
												c-0.3-0.2-0.7-0.3-1.2-0.3c-0.5,0-0.9,0.2-1.1,0.5C646.2,207.3,646.1,207.5,646.2,207.5z"/>
										</g>
									</g>
								</g>
							</g>
						</g>
						<g>
							<g>
								<g>
									<g>
										<path class="st6" d="M655.5,208.4c0,0.4,0.3,0.7,0.7,0.7c0.4,0,0.7-0.3,0.7-0.7s-0.3-0.7-0.7-0.7
											C655.8,207.6,655.5,207.9,655.5,208.4z"/>
									</g>
								</g>
							</g>
							<g>
								<g>
									<g>
										<g>
											<path class="st6" d="M655,207.8c0.1,0.1,0.6-0.4,1.4-0.4c0.8-0.1,1.4,0.3,1.5,0.2c0,0-0.1-0.2-0.3-0.4
												c-0.3-0.2-0.7-0.3-1.2-0.3c-0.5,0-0.9,0.2-1.1,0.5C655,207.5,654.9,207.7,655,207.8z"/>
										</g>
									</g>
								</g>
							</g>
						</g>
						<g>
							<g>
								<g>
									<path class="st13" d="M651.9,224.4c0,0,3.9,0,7.7-2.6c0,0-1.9,4.3-7.7,4L651.9,224.4z"/>
								</g>
							</g>
						</g>
						<g>
							<g>
								<g>
									<g>
										<path class="st6" d="M652.1,214.5c0,0-0.5-0.1-1.3-0.2c-0.2,0-0.4,0-0.4-0.2c-0.1-0.2,0-0.4,0.1-0.6
											c0.2-0.5,0.4-1.1,0.5-1.7c0.4-1.2,0.7-2.2,0.9-3c0.2-0.8,0.3-1.3,0.3-1.3c0,0-0.2,0.5-0.5,1.2c-0.3,0.8-0.6,1.8-1,3
											c-0.2,0.6-0.4,1.1-0.5,1.7c-0.1,0.2-0.2,0.5-0.1,0.8c0.1,0.2,0.2,0.3,0.3,0.3c0.1,0,0.2,0,0.3,0
											C651.6,214.6,652.1,214.5,652.1,214.5z"/>
									</g>
								</g>
							</g>
						</g>
					</g>
					<g>
						<g>
							<path class="st6" d="M648.2,193.2c0,0.1-0.5-0.2-1.2-0.2c-0.7,0-1.7,0.3-2.2,1.3c-0.5,1-0.1,2,0.4,2.5
								c0.5,0.6,0.9,0.7,0.9,0.8c0,0.1-0.6,0-1.2-0.5c-0.3-0.3-0.6-0.7-0.7-1.2c-0.1-0.5-0.1-1.2,0.2-1.8c0.3-0.6,0.7-1,1.3-1.3
								c0.5-0.2,1-0.3,1.4-0.2C647.9,192.8,648.3,193.2,648.2,193.2z"/>
						</g>
					</g>
					<g>
						<g>
							<g>
								<path class="st17" d="M668,203.8"/>
							</g>
						</g>
					</g>
				</g>
				<g>
					<g>
						<g>
							<path class="st6" d="M639.1,217.6c0,0,0.1-0.2,0.1-0.5c0-0.3-0.2-0.7-0.7-0.8c-0.5-0.1-1.1,0.3-1.1,0.9
								c-0.1,0.6,0.4,1.3,1.1,1.5c0.7,0.2,1.5,0,2-0.4c0.5-0.4,0.8-1,0.9-1.5c0.1-0.5,0-0.9-0.2-1.2c-0.2-0.2-0.4-0.3-0.3-0.3
								c0,0,0.2-0.1,0.5,0.2c0.3,0.2,0.4,0.8,0.4,1.3c-0.1,0.6-0.3,1.3-0.9,1.8c-0.6,0.5-1.6,0.8-2.5,0.5c-0.9-0.3-1.6-1.2-1.4-2.1
								c0.1-0.4,0.3-0.8,0.6-1c0.3-0.2,0.7-0.3,1-0.2c0.3,0.1,0.6,0.3,0.7,0.5c0.1,0.2,0.1,0.5,0.1,0.6
								C639.3,217.5,639.1,217.6,639.1,217.6z"/>
						</g>
					</g>
					<g>
						<g>
							<path class="st6" d="M676.3,212.5c0,0,0.1,0.4,0.6,0.8c0.2,0.2,0.6,0.4,1.1,0.5c0.4,0.1,1,0,1.5-0.3c1-0.6,1.6-2,1.5-3.5
								c-0.1-0.8-0.3-1.6-0.7-2.3c-0.4-0.7-1.1-1.2-2-1.4c-0.8-0.2-1.7,0.1-2.2,0.6l-1.3,1.3l0.9-1.6c0.7-1.3,1.1-2.7,0.9-4
								c-0.2-1.2-0.9-2.2-1.8-2.5c-0.9-0.4-1.6-0.2-2.1,0c-0.5,0.2-0.6,0.5-0.7,0.5c0,0,0.1-0.3,0.6-0.6c0.5-0.3,1.3-0.5,2.3-0.2
								c1,0.3,1.9,1.4,2.1,2.8c0.2,1.4-0.2,2.9-0.9,4.3l-0.4-0.3c0.7-0.7,1.7-0.9,2.6-0.8c1,0.2,1.8,0.8,2.3,1.6
								c0.5,0.8,0.7,1.7,0.8,2.5c0,0.8-0.1,1.6-0.4,2.3c-0.3,0.7-0.8,1.2-1.4,1.5c-0.6,0.3-1.2,0.4-1.7,0.3
								c-0.5-0.1-0.9-0.3-1.1-0.6C676.3,213,676.3,212.5,676.3,212.5z"/>
						</g>
					</g>
				</g>
			</g>
			<g>
				<path class="st6" d="M670.5,208.6c0.8-1.8,0.9-3.9,0.6-5.9c-0.2-1.6-0.7-3.3-1.7-4.6c-1-1.3-2.8-2.1-4.4-1.7
					c0-2.2-1.5-4.2-3.6-4.9s-4.5,0-5.9,1.7c-1.3-1.2-2.9-2-4.7-2.1c-1.7-0.1-3.5,0.6-4.6,2c-1,1.4-1.2,3.5-0.1,4.8
					c-1.4,0.5-2.3,2-2.2,3.4c0.2,1.4,1.4,2.7,2.8,2.9c1.4,0.2,2.9-0.7,3.4-2.1c0.2,1.5,1.9,2.6,3.4,2.4c1.5-0.2,2.8-1.3,3.4-2.8
					c0,2.2,1.9,4.3,4.1,4.5c0.5,0.1,1.1,0,1.6-0.2c-0.6,0.7-1,1.6-1.1,2.5c0,1.5,0.9,3,2.3,3.6c-0.9,0.3-1.5,1.1-1.6,2
					c-0.2,0.9,0,1.8,0.2,2.7c0.7,2.5,2.5,6.3,4.9,7.3c2.4,1,5.4-1.3,6.7-3.6L670.5,208.6z"/>
			</g>
			<g>
				<g>
					<path class="st18" d="M655.4,214.9"/>
				</g>
			</g>
			<g>
				<g>
					<path class="st18" d="M652.4,216.9"/>
				</g>
			</g>
			<g>
				<path class="st13" d="M655,215.5c-0.3-0.3-0.8-0.4-1.2-0.4c-0.4,0.1-0.8,0.3-1.1,0.6c-0.2,0.2-0.2,0.5-0.2,0.8
					c0,0.3,0.3,0.6,0.6,0.8c0.4,0.3,1,0.4,1.5,0.2c0.5-0.2,0.8-0.6,0.9-1.2c0-0.5-0.2-0.9-0.7-1.1"/>
			</g>
			<g>
				<g>
					<path class="st6" d="M655.4,214.9c0.1,0-0.2,1-1.1,1.6c-0.9,0.6-1.9,0.6-1.9,0.4c0-0.2,0.8-0.3,1.6-0.9
						C654.8,215.5,655.3,214.8,655.4,214.9z"/>
				</g>
			</g>
		</g>
		<g>
			<g>
				<g>
					<g>
						<g>
							<g>
								<g>
									<path class="st6" d="M643.3,296.9c0,0-14.4,73.1-12.8,76.6c1.6,3.5,54.8,60,54.8,60l16-19.4c0,0-44.3-49.4-43.9-50.8
										c0.3-1.3,15.7-71.8,15.7-71.8L643.3,296.9z"/>
								</g>
							</g>
						</g>
					</g>
					<g>
						<g>
							<path class="st7" d="M681.4,430.9c0,0,0.2-0.3,0.6-0.9c0.5-0.6,1-1.4,1.7-2.3c1.4-1.9,3.4-4.5,5.6-7.5
								c2.2-2.9,4.1-5.6,5.5-7.6c0.6-0.9,1.2-1.7,1.6-2.3c0.4-0.5,0.6-0.8,0.7-0.8c0,0-0.1,0.3-0.5,0.9c-0.3,0.6-0.9,1.4-1.5,2.4
								c-1.3,2-3.2,4.7-5.3,7.7c-2.2,2.9-4.2,5.5-5.7,7.4c-0.8,0.9-1.4,1.7-1.8,2.2C681.7,430.6,681.4,430.9,681.4,430.9z"/>
						</g>
					</g>
				</g>
				<g>
					<g>
						<g>
							<g>
								<g>
									<g>
										<path class="st6" d="M647.6,295.6l-2.1,0.5l0.9,11.9c-3.6,19.6-10.9,60.9-9.9,73.4c1.2,16.6,4.1,67.5,4.1,67.5l23.8-3.6
											l-1.8-61.5l5.1-25.2l13.6-45.6c2.3-7.7,1.5-16.1-2.1-23.3l-1.3-2.4"/>
									</g>
								</g>
							</g>
						</g>
						<g>
							<g>
								<path class="st7" d="M663.9,293.7c0.1,0,0.1,0.8,0.6,2c0.4,1.2,1.3,2.8,2.8,4c1.3,1,2.7,1.5,3.9,1.8
									c1.2,0.2,2.1,0.2,2.5,0.2h0c0.2,0,0.2,0.1,0.2,0.1c0,0-0.1,0-0.3,0h0c-0.4,0.1-1.3,0.3-2.5,0.1c-1.2-0.1-2.8-0.7-4.2-1.7
									c-1.6-1.3-2.5-3-2.9-4.3C663.7,294.5,663.8,293.7,663.9,293.7z"/>
							</g>
						</g>
					</g>
					<g>
						<g>
							<path class="st7" d="M640.2,443.4c0,0,0.3-0.1,0.9-0.3c0.6-0.2,1.5-0.4,2.5-0.6c2.1-0.5,5.1-1.1,8.4-1.6
								c3.3-0.5,6.3-0.9,8.5-1.1c1.1-0.1,2-0.2,2.6-0.2c0.6,0,1,0,1,0c0,0.1-1.3,0.3-3.5,0.6c-2.2,0.3-5.2,0.7-8.4,1.3
								c-3.3,0.5-6.3,1.1-8.4,1.5C641.6,443.2,640.3,443.5,640.2,443.4z"/>
						</g>
					</g>
				</g>
			</g>
			<g>
				<g>
					<path class="st7" d="M646.5,308c0,0,0,0.3-0.1,0.7c-0.1,0.5-0.2,1.2-0.4,2.1c-0.3,1.9-0.8,4.5-1.4,7.7
						c-1.2,6.5-2.8,15.4-4.2,25.3c-1.5,9.9-2.4,18.9-3,25.5c-0.3,3.3-0.5,5.9-0.6,7.8c-0.1,0.9-0.1,1.6-0.2,2.1
						c0,0.5-0.1,0.7-0.1,0.7c0,0,0-0.3,0-0.7c0-0.5,0-1.2,0.1-2.1c0.1-1.8,0.2-4.5,0.4-7.8c0.4-6.6,1.4-15.6,2.8-25.5
						c1.5-9.9,3.1-18.8,4.4-25.3c0.6-3.2,1.2-5.8,1.5-7.6c0.2-0.9,0.3-1.5,0.5-2.1C646.4,308.3,646.4,308,646.5,308z"/>
				</g>
			</g>
			<g>
				<g>
					<path class="st7" d="M668.1,357.7c0,0,0,0.2-0.1,0.5c-0.1,0.4-0.2,0.9-0.3,1.5c-0.3,1.4-0.7,3.2-1.2,5.5
						c-0.9,4.7-2.2,11.1-3.5,18.2c0,0.1,0,0.3-0.1,0.4l-0.3-0.3c0.1,0,0.2,0,0.2,0.1c0,0,0,0,0,0.1c0,0,0,0.1,0,0.1c0,0,0,0.1,0,0.1
						l0,0.2l0,0.3l0.1,0.7c0,0.4,0.1,0.9,0.1,1.3c0,0.9,0.1,1.7,0.1,2.6c0.1,1.7,0.1,3.3,0.2,4.9c0.1,3.1,0.1,5.9,0.2,8.2
						c0,2.3,0,4.2,0,5.5c0,0.6,0,1.1,0,1.5c0,0.3,0,0.5,0,0.5c0,0,0-0.2-0.1-0.5c0-0.4,0-0.9-0.1-1.5c-0.1-1.4-0.1-3.3-0.2-5.5
						c-0.2-4.7-0.4-11.2-0.6-18.3l-0.3-0.1c0-0.1,0-0.3,0.1-0.4c1.3-7.1,2.6-13.6,3.7-18.2c0.5-2.3,1-4.2,1.3-5.5
						c0.2-0.6,0.3-1.1,0.4-1.5C668,357.9,668,357.7,668.1,357.7z"/>
				</g>
			</g>
		</g>
	</g>
</g>
<g id="Character_1">
	<g>
		<path class="st19" d="M482.1,213.2c0.1,0.7,0,2-0.2,3c-0.1,0.8-0.4,1.6-0.8,2.3c-0.7,1.4-1.4,2.4-1.9,3.1c0,0-25.6,13.8-30.3,15.3
			c-4.7,1.4-26.3-8-26.3-8c-2,5.3-4.6,10.4-8,15.3c0,0,19.3,7.1,34.2,8.4c9.5,0.8,38.4-22.4,38.5-22.4c3.3-1.3,6.8-2.8,8.7-3.8
			c3.9-2.2,3.7-2.5,3.4-2.9c-0.9-1.1-7,3.6-6.2,1.8c0.7-1.8,8.1-4.8,7.1-5.9c-1.3-1.4-7.5,3.5-8.1,3.9c-0.5,0.4-1.1-0.4-0.6-0.7
			c0.8-0.5,8.6-5.5,7.3-6.9c-0.7-0.8-2,0.6-2,0.6s-7,5.2-7.5,4.5c-0.6-0.7,3.4-3.9,4.8-4.9c1.4-1,1.5-2,0.6-2.3
			c-0.6-0.2-5.1,2.7-6.5,3.7c-1.4,1-5.1,3.8-4.4,0.9c0.7-2.9,0.2-5.4-0.4-6C483,211.7,482,212.3,482.1,213.2z"/>
	</g>
	<g>
		<polygon class="st1" points="597.8,293.1 431.9,250.3 452,174.3 617.8,217.3 		"/>
	</g>
	<g>
		<g>
			<g>
				<g>
					<g>
						<g>
							<g>
								<g>
									<g>
										<path class="st11" d="M341.7,436.9l6-5.6l-10.4-11.4l-8.9,8.1l0.6,0.7c2.7,3.3,13.9,16.6,16.5,18.1
											C348.3,448.6,341.7,436.9,341.7,436.9z"/>
									</g>
								</g>
							</g>
						</g>
						<g class="st14">
							<g>
								<g>
									<path class="st3" d="M344.8,442.8c0,0,2.1,4.3,1.2,4.4c-0.9,0.1-12.8-12.9-17.6-19.1l0.3-0.2l13.7,15.3
										C342.4,443.1,344.1,442.1,344.8,442.8z"/>
								</g>
							</g>
						</g>
						<g>
							<g>
								<g>
									<g>
										<path class="st6" d="M328.5,427.6c0,0,0,0.1,0.2,0.2c0.1,0.2,0.3,0.4,0.5,0.6c0.5,0.6,1.1,1.3,1.8,2.2
											c1.5,1.8,3.7,4.3,6.1,6.9c2.4,2.7,4.7,5,6.4,6.7c0.8,0.8,1.4,1.5,2,2c0.2,0.2,0.4,0.4,0.5,0.5c0.1,0.1,0.2,0.2,0.2,0.2
											c0,0-0.1-0.1-0.2-0.2c-0.2-0.2-0.3-0.4-0.5-0.6c-0.5-0.6-1.2-1.2-1.9-2c-1.6-1.7-3.9-4.1-6.3-6.8
											c-2.4-2.7-4.6-5.1-6.2-6.9c-0.7-0.8-1.3-1.5-1.8-2.1c-0.2-0.2-0.4-0.4-0.5-0.6C328.6,427.7,328.5,427.6,328.5,427.6z"/>
									</g>
								</g>
							</g>
						</g>
						<g>
							<g>
								<g>
									<g>
										<path class="st6" d="M342.2,443.3c0,0,0.6-0.4,1.3-0.5c0.8-0.2,1.4,0,1.4,0c0,0-0.6-0.3-1.5-0.2
											C342.7,442.7,342.2,443.2,342.2,443.3z"/>
									</g>
								</g>
							</g>
						</g>
						<g>
							<g>
								<g>
									<g>
										<path class="st6" d="M340.8,438.3c0,0.1,0.4,0,0.8,0c0.4-0.1,0.7-0.2,0.7-0.2c0-0.1-0.4,0-0.8,0
											C341.2,438.2,340.8,438.3,340.8,438.3z"/>
									</g>
								</g>
							</g>
						</g>
						<g>
							<g>
								<g>
									<g>
										<path class="st6" d="M340.5,437c0,0.1,0.3,0.1,0.6,0.2c0.4,0,0.6,0,0.7,0c0-0.1-0.3-0.1-0.6-0.2
											C340.8,436.9,340.5,436.9,340.5,437z"/>
									</g>
								</g>
							</g>
						</g>
						<g>
							<g>
								<g>
									<g>
										<path class="st6" d="M341,435.4c0,0,0.2,0.3,0.5,0.7c0.3,0.3,0.6,0.6,0.6,0.5c0,0-0.2-0.3-0.5-0.7
											C341.3,435.6,341.1,435.4,341,435.4z"/>
									</g>
								</g>
							</g>
						</g>
						<g>
							<g>
								<g>
									<g>
										<path class="st6" d="M341.6,434.5c0,0,0.1,0.4,0.4,0.8c0.3,0.4,0.7,0.6,0.7,0.6c0,0-0.3-0.3-0.6-0.7
											C341.9,434.9,341.6,434.5,341.6,434.5z"/>
									</g>
								</g>
							</g>
						</g>
						<g>
							<g>
								<g>
									<g>
										<path class="st6" d="M342.2,437.8c0,0,0.2,0.3,0.7,0.7c0.2,0.2,0.5,0.4,0.9,0.6c0.2,0.1,0.4,0.2,0.6,0.3
											c0.1,0,0.3,0,0.4,0c0.1-0.1,0.2-0.2,0.2-0.4c-0.3-1-1.3-1.4-1.9-1.3c-0.3,0-0.6,0.1-0.7,0.2c-0.2,0.1-0.2,0.2-0.2,0.2
											c0,0,0.3-0.2,0.9-0.2c0.3,0,0.6,0.1,1,0.3c0.3,0.2,0.7,0.5,0.7,0.9c0,0.2-0.2,0.3-0.4,0.2c-0.2,0-0.4-0.2-0.6-0.3
											c-0.3-0.2-0.6-0.4-0.9-0.6C342.5,438.1,342.2,437.8,342.2,437.8z"/>
									</g>
								</g>
							</g>
						</g>
						<g>
							<g>
								<g>
									<g>
										<path class="st6" d="M342.3,438.1c0,0,0.3,0,0.6-0.4c0.1-0.2,0.3-0.4,0.4-0.7c0-0.3,0.1-0.6-0.2-1
											c-0.2-0.1-0.4-0.1-0.5,0.1c-0.1,0.1-0.2,0.3-0.2,0.4c-0.1,0.3-0.1,0.5-0.1,0.8C342.2,437.7,342.3,438,342.3,438.1
											c0-0.1,0-0.3,0-0.8c0-0.2,0.1-0.4,0.2-0.7c0.1-0.2,0.3-0.6,0.5-0.4c0.2,0.2,0.2,0.5,0.1,0.8c-0.1,0.3-0.2,0.5-0.3,0.6
											C342.6,437.9,342.3,438,342.3,438.1z"/>
									</g>
								</g>
							</g>
						</g>
						<g>
							<g>
								<g>
									<g>
										<path class="st6" d="M331.8,425c0,0,0.3,0.3,0.7,0.9c0.4,0.6,0.8,1.5,0.9,2.5c0.1,1.1-0.2,2-0.6,2.6
											c-0.3,0.6-0.6,0.9-0.6,1c0,0,0.1-0.1,0.2-0.2c0.1-0.1,0.3-0.4,0.5-0.7c0.4-0.6,0.7-1.6,0.6-2.7c-0.1-1.1-0.6-2-1-2.6
											c-0.2-0.3-0.4-0.5-0.6-0.6C331.9,425.1,331.8,425,331.8,425z"/>
									</g>
								</g>
							</g>
						</g>
						<g>
							<g>
								<g>
									<g>
										<path class="st6" d="M337.7,421.9c0,0-1.1,0.9-2.4,2c-1.3,1.2-2.3,2.1-2.3,2.2s1.1-0.9,2.4-2
											C336.7,422.9,337.7,421.9,337.7,421.9z"/>
									</g>
								</g>
							</g>
						</g>
						<g>
							<g>
								<g>
									<g>
										<path class="st6" d="M334.7,432.5c0,0,0.5,0.9,1.4,1.8c0.8,0.9,1.6,1.6,1.7,1.5c0,0-0.7-0.7-1.5-1.7
											C335.3,433.3,334.7,432.5,334.7,432.5z"/>
									</g>
								</g>
							</g>
						</g>
						<g>
							<g>
								<g>
									<g>
										<path class="st6" d="M332.6,430.3c-0.1,0-0.1,0.2-0.2,0.4c-0.1,0.2-0.2,0.4-0.2,0.4c0,0,0.2-0.1,0.3-0.4
											C332.7,430.5,332.7,430.3,332.6,430.3z"/>
									</g>
								</g>
							</g>
						</g>
						<g>
							<g>
								<g>
									<g>
										<path class="st6" d="M332.9,428.5c-0.1,0-0.1,0.2-0.1,0.4c0,0.2,0,0.4,0.1,0.4c0.1,0,0.1-0.2,0.1-0.4
											C333,428.7,333,428.5,332.9,428.5z"/>
									</g>
								</g>
							</g>
						</g>
						<g>
							<g>
								<g>
									<g>
										<path class="st6" d="M332.3,426.8c0,0,0.1,0.2,0.2,0.4c0.1,0.2,0.1,0.4,0.2,0.4c0,0,0.1-0.2,0-0.5
											C332.5,426.9,332.3,426.8,332.3,426.8z"/>
									</g>
								</g>
							</g>
						</g>
						<g>
							<g>
								<g>
									<g>
										<path class="st6" d="M331.7,425.8c0,0,0,0.1,0,0.3c0,0.1,0.1,0.2,0.2,0.2c0,0,0-0.1,0-0.3
											C331.9,425.8,331.8,425.7,331.7,425.8z"/>
									</g>
								</g>
							</g>
						</g>
					</g>
				</g>
				<g class="st15">
					<polygon points="332.2,424.8 342.7,436 344.1,434.7 333.6,423.3 					"/>
				</g>
			</g>
			<g>
				<g>
					<g>
						<g>
							<g>
								<g>
									<g>
										<path class="st11" d="M459.4,446l-3.4-7.5l-14.1,6.2l4.8,11.1l0.9-0.3c4-1.5,20.2-7.9,22.5-9.8
											C472.6,443.5,459.4,446,459.4,446z"/>
									</g>
								</g>
							</g>
						</g>
						<g class="st14">
							<g>
								<g>
									<path class="st3" d="M465.9,445c0,0,4.7-0.6,4.5,0.3c-0.2,0.9-16.4,8-23.7,10.5l-0.1-0.3l18.9-8.1
										C465.5,447.4,465.1,445.4,465.9,445z"/>
								</g>
							</g>
						</g>
						<g>
							<g>
								<g>
									<g>
										<path class="st6" d="M446.3,455.5c0,0,0.1,0,0.3-0.1c0.2-0.1,0.5-0.2,0.7-0.3c0.7-0.3,1.6-0.6,2.6-1
											c2.2-0.9,5.2-2.1,8.5-3.6c3.3-1.4,6.3-2.8,8.4-3.8c1-0.5,1.8-0.9,2.5-1.2c0.3-0.1,0.5-0.2,0.7-0.3
											c0.2-0.1,0.2-0.1,0.2-0.1c0,0-0.1,0-0.2,0.1c-0.2,0.1-0.4,0.2-0.7,0.3c-0.7,0.3-1.5,0.7-2.5,1.2c-2.2,1-5.1,2.3-8.4,3.8
											c-3.3,1.4-6.3,2.7-8.5,3.6c-1,0.4-1.9,0.8-2.6,1.1c-0.3,0.1-0.5,0.2-0.7,0.3C446.4,455.5,446.3,455.5,446.3,455.5z"/>
									</g>
								</g>
							</g>
						</g>
						<g>
							<g>
								<g>
									<g>
										<path class="st6" d="M465.5,447.6c0.1,0-0.2-0.6-0.1-1.4c0.1-0.8,0.5-1.3,0.4-1.4c0,0-0.5,0.5-0.6,1.3
											C465.2,447,465.5,447.6,465.5,447.6z"/>
									</g>
								</g>
							</g>
						</g>
						<g>
							<g>
								<g>
									<g>
										<path class="st6" d="M460.4,447.3c0.1,0,0.1-0.3,0.2-0.7c0.1-0.4,0.1-0.8,0-0.8c-0.1,0-0.1,0.3-0.2,0.7
											C460.4,447,460.4,447.3,460.4,447.3z"/>
									</g>
								</g>
							</g>
						</g>
						<g>
							<g>
								<g>
									<g>
										<path class="st6" d="M459,447.2c0,0,0.2-0.2,0.4-0.6c0.1-0.3,0.2-0.6,0.2-0.6c0,0-0.2,0.2-0.4,0.6
											C459.1,446.9,459,447.2,459,447.2z"/>
									</g>
								</g>
							</g>
						</g>
						<g>
							<g>
								<g>
									<g>
										<path class="st6" d="M457.7,446.2c0,0,0.4-0.1,0.8-0.2c0.4-0.2,0.7-0.4,0.7-0.4c0,0-0.4,0.1-0.8,0.2
											C458,446,457.7,446.1,457.7,446.2z"/>
									</g>
								</g>
							</g>
						</g>
						<g>
							<g>
								<g>
									<g>
										<path class="st6" d="M457.1,445.4c0,0,0.4,0.1,0.9-0.1c0.5-0.2,0.8-0.4,0.8-0.5c0,0-0.4,0.1-0.9,0.3
											C457.5,445.2,457.1,445.3,457.1,445.4z"/>
									</g>
								</g>
							</g>
						</g>
						<g>
							<g>
								<g>
									<g>
										<path class="st6" d="M460.4,445.9c0,0,0.4-0.1,0.9-0.4c0.3-0.2,0.6-0.4,0.9-0.6c0.1-0.1,0.3-0.3,0.5-0.5
											c0.1-0.1,0.1-0.2,0.1-0.4c0-0.2-0.2-0.3-0.3-0.3c-1.1-0.1-1.7,0.8-1.8,1.4c-0.1,0.3-0.1,0.6,0,0.7c0,0.2,0.1,0.3,0.1,0.3
											c0,0-0.1-0.4,0.1-1c0.1-0.3,0.3-0.6,0.6-0.8c0.3-0.2,0.7-0.5,1.1-0.4c0.2,0,0.2,0.2,0.1,0.4c-0.1,0.2-0.3,0.3-0.4,0.4
											c-0.3,0.3-0.6,0.5-0.8,0.7C460.7,445.7,460.4,445.8,460.4,445.9z"/>
									</g>
								</g>
							</g>
						</g>
						<g>
							<g>
								<g>
									<g>
										<path class="st6" d="M460.6,445.8c0,0,0-0.3-0.2-0.7c-0.1-0.2-0.3-0.4-0.5-0.6c-0.2-0.1-0.6-0.3-1-0.1
											c-0.2,0.1-0.2,0.4-0.1,0.5c0.1,0.2,0.2,0.3,0.3,0.3c0.2,0.2,0.5,0.3,0.7,0.4C460.3,445.8,460.6,445.8,460.6,445.8
											c-0.1,0-0.3-0.1-0.7-0.2c-0.2-0.1-0.4-0.2-0.6-0.4c-0.2-0.1-0.4-0.4-0.2-0.6c0.2-0.1,0.5,0,0.8,0.1
											c0.2,0.1,0.4,0.3,0.5,0.5C460.6,445.5,460.6,445.8,460.6,445.8z"/>
									</g>
								</g>
							</g>
						</g>
						<g>
							<g>
								<g>
									<g>
										<path class="st6" d="M444.9,451.5c0,0,0.4-0.2,1.1-0.4c0.7-0.2,1.7-0.3,2.7-0.1c1,0.3,1.8,0.9,2.3,1.4
											c0.5,0.5,0.7,0.9,0.7,0.9c0,0,0-0.1-0.1-0.3c-0.1-0.2-0.3-0.4-0.5-0.7c-0.5-0.5-1.3-1.2-2.4-1.5c-1.1-0.3-2.1-0.1-2.8,0.1
											c-0.3,0.1-0.6,0.3-0.8,0.4C445,451.5,444.9,451.5,444.9,451.5z"/>
									</g>
								</g>
							</g>
						</g>
						<g>
							<g>
								<g>
									<g>
										<path class="st6" d="M443.8,445c0,0,0.5,1.3,1.1,3c0.7,1.6,1.3,2.9,1.3,2.9c0,0-0.5-1.3-1.1-3
											C444.5,446.3,443.9,445,443.8,445z"/>
									</g>
								</g>
							</g>
						</g>
						<g>
							<g>
								<g>
									<g>
										<path class="st6" d="M452.9,451.3c0,0,1-0.2,2.2-0.7c1.2-0.5,2-1,2-1.1c0,0-0.9,0.4-2.1,0.9
											C453.9,450.9,452.9,451.2,452.9,451.3z"/>
									</g>
								</g>
							</g>
						</g>
						<g>
							<g>
								<g>
									<g>
										<path class="st6" d="M450.2,452.5c0,0,0.2,0.2,0.3,0.3c0.2,0.2,0.3,0.3,0.4,0.3c0,0,0-0.3-0.2-0.5
											C450.4,452.5,450.2,452.4,450.2,452.5z"/>
									</g>
								</g>
							</g>
						</g>
						<g>
							<g>
								<g>
									<g>
										<path class="st6" d="M448.5,451.6c0,0,0.1,0.2,0.3,0.2c0.2,0.1,0.4,0.1,0.4,0.1c0,0-0.1-0.2-0.3-0.2
											C448.7,451.6,448.6,451.6,448.5,451.6z"/>
									</g>
								</g>
							</g>
						</g>
						<g>
							<g>
								<g>
									<g>
										<path class="st6" d="M446.8,451.7c0,0,0.2,0,0.5-0.1c0.2,0,0.4,0,0.5,0c0,0-0.2-0.2-0.5-0.2
											C446.9,451.5,446.8,451.7,446.8,451.7z"/>
									</g>
								</g>
							</g>
						</g>
						<g>
							<g>
								<g>
									<g>
										<path class="st6" d="M445.6,451.9c0,0.1,0.1,0.1,0.3,0.1c0.1,0,0.2-0.1,0.2-0.1c0-0.1-0.1-0.1-0.3-0.1
											C445.7,451.8,445.6,451.8,445.6,451.9z"/>
									</g>
								</g>
							</g>
						</g>
					</g>
				</g>
				<g class="st15">
					<polygon points="444.8,451.2 458.8,444.7 458,443.1 443.9,449.4 					"/>
				</g>
			</g>
			<g>
				<path class="st6" d="M375.5,192.2c0.4-2.7-1.3-6.8-0.6-9.3c0.2-0.8-0.6-1.5-0.8-2.4c-0.1-0.8,0.1-1.7,0.7-2.2
					c0.7-0.5,1.8-0.3,2,0.5c0.2-1.3,0.4-2.6,1.1-3.7c0.6-1.1,1.7-2.1,3-2.3c1.3-0.1,2.7,0.8,2.8,2.1c0.7-1.3,1.8-2.5,3.2-3.2
					c1.1-0.6,2.6-1,3.8-0.5c1.2,0.5,1.9,2.2,1,3.2c0.8-0.7,1.6-1.4,2.6-1.8c1-0.4,2.2-0.4,3,0.3c0.8,0.7,0.9,2.2,0.1,2.8
					c1.1-0.5,2.2-0.9,3.3-1.1c1.2-0.1,2.4,0.1,3.3,0.9c0.9,0.8,1.2,2.2,0.6,3.2c-0.5,0.8-1.4,1.1-2.2,1.5s-1.6,1-1.7,1.9
					c-0.1,0.5,0.1,0.9,0,1.4c-0.1,0.6-0.7,1.1-1.3,1.2c-0.6,0.2-1.2,0.1-1.9,0.1c-3.1-0.3-6.2-0.8-9.4-0.7c-3.1,0-6.4,0.6-9,2.4"/>
			</g>
			<g>
				<g>
					<g>
						<path class="st6" d="M372.6,309c0,0,6.6,35,5.4,54.2s-14.5,26.8-22.4,34.8c-7.6,7.5-24.9,22.5-24.9,22.5l15.5,16.7
							c0,0,49.2-35.5,54.2-58.3c3.8-17.5,5.3-48.6,5.3-48.6L372.6,309z"/>
					</g>
					<g>
						<path class="st6" d="M373.3,282.8c-0.5,0-5.8,15.8-0.7,26.2c0.5,1.1,4.5,6.8,4.5,6.8c14.2,16.7,32.8,52.4,34.7,57.7
							c5.5,15.4,27.8,78.1,27.8,78.1l23.3-9.9l-23.7-77.4l-30.8-68.6L373.3,282.8z"/>
					</g>
					<g>
						<g>
							<path class="st7" d="M402.4,295.6c0.1,0,0.3,0.8,0.3,2.2c0,1.4-0.5,3.4-1.9,5.1c-1.4,1.7-3.2,2.6-4.6,2.9
								c-1.4,0.3-2.2,0.2-2.2,0.2c0-0.1,0.9-0.1,2.1-0.5c1.3-0.4,3-1.3,4.3-2.9c1.3-1.6,1.8-3.4,2-4.8
								C402.5,296.4,402.4,295.6,402.4,295.6z"/>
						</g>
					</g>
					<g>
						<polygon class="st7" points="439.6,451.5 462.9,441.6 461.7,437.9 438.5,448.4 						"/>
					</g>
				</g>
				<g>
					<g>
						<g>
							<g>
								<g>
									<path class="st19" d="M384.5,227.6L384.5,227.6c4.6,0.4,8.6-3.2,8.8-7.8c0.2-4.4,0.3-8.9,0.3-8.9s6.7-0.6,7.2-7.3
										c0.5-6.6-0.3-21.1-0.3-21.1l0.6-0.8c-7.5-3.8-15.8-2.5-22.8,2.2l-1.5,2.8l0.1,33C377,223.8,380.3,227.3,384.5,227.6z"/>
								</g>
							</g>
							<g>
								<g>
									<g>
										<path class="st6" d="M398.8,193.3c-0.4-0.4-0.4-1,0-1.4c0.4-0.4,1-0.4,1.4,0c0.4,0.4,0.4,1,0,1.4
											C399.8,193.7,399.2,193.7,398.8,193.3z"/>
									</g>
								</g>
								<g>
									<g>
										<g>
											<path class="st6" d="M400.5,192.2c-0.1,0.1-0.7-0.4-1.6-0.5c-0.9-0.1-1.6,0.4-1.7,0.2c0-0.1,0.1-0.3,0.4-0.5
												c0.3-0.2,0.8-0.4,1.4-0.3c0.6,0,1,0.3,1.3,0.5C400.4,191.9,400.5,192.2,400.5,192.2z"/>
										</g>
									</g>
								</g>
							</g>
							<g>
								<g>
									<g>
										<path class="st6" d="M390.2,192.1c0.4,0.3,0.5,0.9,0.2,1.3c-0.3,0.4-0.9,0.5-1.3,0.2c-0.4-0.3-0.5-0.9-0.2-1.3
											C389.1,191.9,389.7,191.8,390.2,192.1z"/>
									</g>
								</g>
								<g>
									<g>
										<g>
											<path class="st6" d="M390.5,192.4c-0.1,0.1-0.7-0.4-1.6-0.5c-0.9-0.1-1.6,0.4-1.7,0.2c0-0.1,0.1-0.3,0.4-0.5
												c0.3-0.2,0.8-0.4,1.4-0.3c0.6,0,1,0.3,1.3,0.5C390.4,192.1,390.5,192.4,390.5,192.4z"/>
										</g>
									</g>
								</g>
							</g>
							<g>
								<g>
									<g>
										<path class="st6" d="M393.7,199.5c0-0.1,0.6-0.2,1.5-0.2c0.2,0,0.4-0.1,0.5-0.2c0.1-0.1,0-0.4-0.1-0.7
											c-0.2-0.6-0.4-1.2-0.6-1.9c-0.8-2.7-1.4-4.9-1.3-5c0.1,0,0.9,2.1,1.8,4.8c0.2,0.7,0.4,1.3,0.6,1.9c0.1,0.3,0.2,0.6,0.1,1
											c-0.1,0.2-0.3,0.3-0.4,0.4c-0.2,0-0.3,0-0.4,0C394.3,199.6,393.7,199.6,393.7,199.5z"/>
									</g>
								</g>
							</g>
							<g>
								<g>
									<path class="st3" d="M390.7,200.4c0.5,0.2,2.5,1.6,4.4,1.6c0,0-1.2,1.6-3,0.8C390.1,201.9,390.7,200.4,390.7,200.4z"/>
								</g>
							</g>
							<g>
								<g>
									<path class="st20" d="M393.6,210.8c0,0-4.2,0.1-8.5-3c0,0,1.8,4.9,8.4,4.7L393.6,210.8z"/>
								</g>
							</g>
						</g>
					</g>
					<g>
						<g>
							<g>
								<path class="st19" d="M377,192c0-0.5-0.4-1-1-1c-1.2,0-3.3,0.5-3.5,3.9c-0.3,4.9,4.4,3.7,4.4,3.5
									C377,198.3,377,193.9,377,192z"/>
							</g>
						</g>
						<g>
							<g>
								<g>
									<path class="st20" d="M375.9,196.5c0,0-0.1,0.1-0.2,0.1c-0.1,0.1-0.4,0.1-0.6,0c-0.5-0.2-0.9-1.1-0.9-1.9
										c0-0.4,0.1-0.9,0.3-1.2c0.2-0.3,0.4-0.6,0.7-0.6c0.3,0,0.4,0.1,0.5,0.3c0.1,0.1,0,0.2,0,0.2c0,0,0.1-0.1,0.1-0.3
										c0-0.1-0.1-0.2-0.2-0.3c-0.1-0.1-0.3-0.2-0.5-0.2c-0.4,0-0.7,0.3-0.9,0.7c-0.2,0.4-0.4,0.8-0.4,1.3c0,1,0.4,1.9,1.1,2.2
										c0.3,0.1,0.6,0,0.8-0.1C375.9,196.6,375.9,196.5,375.9,196.5z"/>
								</g>
							</g>
						</g>
					</g>
				</g>
				<g>
					<g>
						<g>
							<g>
								<path class="st7" d="M363.8,249c0.8,6.5,3,12.2,3.1,22.9l-0.5,24.7l46.7,2.6l-2.6-30.2l-1.7-25.7l10.4,2.7l4.4-17.4
									c0,0-11-5.3-14.8-7c-12.4-5.6-12.3-3.3-14.4-3.6c-5.7,1.7-11.3,1.7-17,0l0,0c0,0-9.2-2.5-13.9,8.6
									C361,232.4,363.8,249,363.8,249z"/>
							</g>
						</g>
					</g>
					<g>
						<g>
							<path class="st12" d="M366.8,221.2c0,0,0.1,0,0.4,0c0.2,0,0.6,0.1,1,0.2c0.9,0.3,2.2,1,3.1,2.4c0.9,1.4,1.3,3.6,0.5,5.7
								c-0.4,1-0.9,2.1-0.6,3.2c0.2,1.1,1.2,1.8,2.1,2.7c0.5,0.4,0.9,1,1.1,1.6c0.3,0.6,0.4,1.2,0.3,1.9c0,1.2-0.4,2.4-1.1,3.3
								c-0.3,0.5-0.7,0.9-1.1,1.2c-0.4,0.3-0.9,0.6-1.3,0.8c-0.9,0.4-1.8,0.6-2.6,0.8c-1.6,0.3-3,0.4-3.9,0.5c-0.9,0-1.4,0-1.4,0
								c0,0,0.5-0.1,1.4-0.2c0.9-0.1,2.2-0.2,3.8-0.6c1.5-0.4,3.6-0.9,4.7-2.8c0.6-0.9,1-1.9,1-3.1c0-1.1-0.4-2.3-1.3-3.1
								c-0.4-0.4-0.9-0.8-1.3-1.3c-0.4-0.5-0.8-1-0.9-1.7c-0.3-1.3,0.3-2.4,0.7-3.4c0.9-2,0.5-4-0.3-5.4c-0.8-1.4-2-2.1-2.8-2.4
								C367.3,221.3,366.8,221.2,366.8,221.2z"/>
						</g>
					</g>
					<g>
						<g>
							<path class="st12" d="M421.4,226.2c0,0,0,0.2-0.1,0.5c-0.1,0.3-0.2,0.8-0.5,1.4c-0.5,1.1-1.5,2.7-3.4,4
								c-1.9,1.3-4.7,1.9-7.6,1c-1.4-0.4-2.9-1.2-4-2.4c-1.1-1.1-2.1-2.5-3.6-3.1c-0.7-0.3-1.5-0.3-2.3-0.1
								c-0.8,0.2-1.5,0.5-2.2,0.9c-1.4,0.7-3,1.2-4.5,1.1c-3,0-5.6-1.5-6.9-3.3c-1.4-1.8-1.8-3.6-1.9-4.9c-0.1-0.6,0-1.1,0-1.4
								c0-0.3,0.1-0.5,0.1-0.5c0.1,0-0.1,0.7,0.1,1.9c0.2,1.2,0.6,3,2,4.7c1.3,1.7,3.8,3.1,6.7,3c1.4,0,2.9-0.4,4.3-1.1
								c0.7-0.3,1.5-0.7,2.3-0.9c0.8-0.2,1.8-0.2,2.6,0.1c1.7,0.7,2.7,2.2,3.8,3.2c1.1,1.1,2.4,1.9,3.8,2.3c2.7,0.8,5.5,0.3,7.3-0.9
								c1.8-1.2,2.9-2.7,3.5-3.7C421.2,226.9,421.3,226.2,421.4,226.2z"/>
						</g>
					</g>
					<g>
						<g>
							<path class="st12" d="M418.8,245.3c-0.1,0.1-0.4-1.7-2.3-3.7c-0.9-1-2.3-1.9-4-2.1c-1.7-0.2-3.7,0.4-5.1,1.8
								c-0.7,0.7-1.1,1.6-1.2,2.6c-0.2,0.9-0.2,2-0.7,2.8c-0.5,0.9-1.3,1.4-2,1.8c-0.7,0.4-1.4,0.7-2,1c-1.2,0.6-2,1.4-2.3,2.1
								c-0.3,0.7-0.2,1.1-0.3,1.1c0,0,0-0.1-0.1-0.3c0-0.2,0-0.5,0.2-0.9c0.3-0.8,1.1-1.7,2.3-2.3c0.6-0.3,1.3-0.6,2-1
								c0.7-0.4,1.4-0.9,1.8-1.6c0.4-0.7,0.5-1.7,0.6-2.7c0.1-1,0.6-2.1,1.3-2.8c1.5-1.6,3.7-2.2,5.6-2c1.9,0.3,3.3,1.3,4.2,2.4
								c0.9,1,1.4,2.1,1.7,2.8C418.8,244.8,418.8,245.3,418.8,245.3z"/>
						</g>
					</g>
					<g>
						<g>
							<path class="st12" d="M404.1,274.4c0,0,0,0.2,0,0.5c0,0.3-0.1,0.8-0.4,1.3c-0.5,1.1-1.6,2.6-3.6,3.4c-1,0.4-2.2,0.7-3.4,0.6
								c-1.3-0.1-2.6-0.6-3.8-1.3c-1.2-0.8-2.3-1.8-3.1-3.1c-0.9-1.3-1.3-2.8-2.2-4.1c-0.5-0.6-1.1-1-1.8-1.3
								c-0.7-0.2-1.4-0.3-2.2-0.4c-1.5-0.1-3-0.6-4.2-1.4c-1.2-0.8-2.1-1.8-2.7-3c-0.6-1.1-0.9-2.3-0.9-3.4
								c-0.1-2.2,0.7-3.8,1.3-4.8c0.3-0.5,0.6-0.8,0.9-1.1c0.2-0.2,0.3-0.3,0.4-0.3c0,0-0.5,0.5-1,1.5c-0.6,1-1.2,2.6-1.1,4.6
								c0.1,1,0.3,2.1,0.9,3.2c0.6,1,1.5,2,2.6,2.8c1.1,0.8,2.5,1.2,4,1.3c0.7,0.1,1.5,0.1,2.3,0.4c0.8,0.2,1.5,0.8,2,1.4
								c1,1.3,1.4,2.9,2.2,4.1c0.8,1.2,1.8,2.3,3,3c1.1,0.7,2.4,1.2,3.5,1.3c1.2,0.1,2.3-0.1,3.2-0.5c1.9-0.8,3-2.2,3.5-3.2
								C404,275.1,404,274.4,404.1,274.4z"/>
						</g>
					</g>
					<g>
						<g>
							<path class="st12" d="M406.4,298.4c-0.1,0,0.3-0.7,0-1.9c-0.2-1.2-1.2-2.9-3.2-3.7c-1-0.4-2.2-0.6-3.5-0.5
								c-1.3,0-2.6,0.3-4.1,0.6c-1.4,0.3-3,0.7-4.6,0.7c-1.6,0.1-3.4-0.2-4.9-1.1c-1.6-0.9-2.4-2.5-3.1-3.9
								c-0.7-1.4-1.5-2.7-2.5-3.8c-2-2.1-4.5-3.2-6.6-3.6c-2.2-0.4-4-0.1-5.1,0.2c-1.2,0.3-1.8,0.6-1.8,0.6c0,0,0.1-0.1,0.4-0.2
								c0.3-0.1,0.7-0.3,1.3-0.5c1.2-0.4,3-0.7,5.3-0.4c2.2,0.3,4.8,1.4,6.9,3.6c1.1,1.1,1.9,2.4,2.6,3.9c0.7,1.4,1.5,2.9,2.9,3.7
								c1.4,0.9,3.1,1.1,4.6,1c1.6-0.1,3.1-0.4,4.5-0.7c1.4-0.3,2.8-0.5,4.2-0.6c1.3,0,2.6,0.2,3.6,0.6c1.1,0.4,1.9,1.1,2.4,1.9
								c0.5,0.7,0.8,1.5,0.9,2.1c0.1,0.6,0,1.1-0.1,1.4C406.5,298.3,406.4,298.4,406.4,298.4z"/>
						</g>
					</g>
				</g>
				<g>
					<path class="st19" d="M449.3,249.6c-0.1,0.7-0.8,1.9-1.3,2.7c-0.4,0.7-0.9,1.3-1.6,1.8c-1.2,1-2.2,1.7-2.9,2.2
						c0,0-28.9,3.3-33.8,2.9c-4.9-0.4-21.4-17.2-21.4-17.2c-3.8,4.2-8.2,8-13.1,11.2c0,0,15.2,13.8,28.6,20.5
						c8.5,4.3,44-6.4,44.1-6.4c3.5,0,7.4,0,9.5-0.3c4.4-0.6,4.4-1,4.2-1.5c-0.4-1.3-7.8,0.7-6.5-0.7c1.3-1.4,9.3-1.5,8.8-2.8
						c-0.6-1.8-8.3,0.5-9,0.6c-0.6,0.1-0.9-0.8-0.3-0.9c0.9-0.1,10-1.9,9.4-3.6c-0.3-1-2.1-0.2-2.1-0.2s-8.4,2.2-8.7,1.4
						c-0.3-0.9,4.6-2.3,6.3-2.7c1.7-0.4,2.2-1.3,1.4-1.9c-0.5-0.4-5.7,0.6-7.4,1.1c-1.7,0.4-6.2,1.6-4.4-0.8
						c1.7-2.4,2.2-4.9,1.8-5.7C450.7,248.5,449.5,248.7,449.3,249.6z"/>
				</g>
			</g>
			<g>
				<path class="st6" d="M376.3,193.2c0.3,0.8,1.4,1,2.1,0.6c0.7-0.4,1.6-0.9,1.8-1.8c0.1-0.8,0.2-1.9,0.3-2.7
					c0.1-1.3,0.3-2,0.5-2.8c3,0.6,4.9-0.2,7-2.5c2,1.9,5.2,2.5,7.7,1.5c0.6-0.3,1.3-0.6,1.9-0.6c1.1,0,2,0.9,3,0.9
					c1.1,0,2-1.1,2-2.2c0-1.1-0.7-2.1-1.6-2.8c-0.9-0.6-2-0.9-3.1-1.2c-3.8-0.8-7.7-0.6-11.6-0.1c-1.8,0.2-3.6,0.5-5.3,1.3
					c-1.7,0.7-3.2,1.9-4.1,3.4c-1.4,2.4-1.1,5.4-0.7,8.2"/>
			</g>
			<g>
				<g>
					<path class="st7" d="M411.9,373.5c0,0-0.1-0.2-0.4-0.7c-0.2-0.5-0.6-1.1-1-1.9c-0.8-1.7-2.1-4.1-3.7-7.1
						c-3.2-5.9-7.9-14-13.4-22.6c-5.5-8.7-10.6-16.4-14.3-22.1c-1.8-2.8-3.3-5.1-4.3-6.7c-0.5-0.8-0.9-1.4-1.2-1.8
						c-0.3-0.4-0.4-0.7-0.4-0.7c0,0,0.2,0.2,0.5,0.6c0.3,0.4,0.7,1,1.2,1.8c1.1,1.6,2.6,3.8,4.5,6.6c3.8,5.6,9,13.3,14.5,22
						c5.5,8.7,10.1,16.8,13.3,22.8c1.6,3,2.8,5.4,3.6,7.1c0.4,0.8,0.7,1.5,0.9,2C411.8,373.2,411.9,373.5,411.9,373.5z"/>
				</g>
			</g>
			<g>
				<polygon class="st7" points="330.7,420.5 347.2,437.9 351.1,435.4 333.5,418.1 				"/>
			</g>
		</g>
		<g>
			<g>
				<path class="st6" d="M389.6,240.2c0.1,0-0.7,1-2,2.4c-1.3,1.4-3.1,3.3-5.3,5.2c-2.1,2-4.2,3.6-5.7,4.8c-1.5,1.2-2.5,1.8-2.5,1.8
					c0-0.1,0.9-0.8,2.3-2.1c1.4-1.2,3.4-2.9,5.6-4.9c2.1-2,4-3.8,5.4-5.1C388.7,241,389.5,240.2,389.6,240.2z"/>
			</g>
		</g>
		<g>
			<g>
				<path class="st6" d="M374.1,217.8c0,0,0.4,0.1,0.9,0.5c0.6,0.4,1.3,1.1,2.1,2.1c1.5,2,3.4,4.8,5.4,8.1c1.9,3.2,3.7,6,5,8.3
					c0.6,1,1.1,1.8,1.5,2.5c0.4,0.6,0.5,0.9,0.5,0.9c0,0-0.3-0.3-0.7-0.8c-0.4-0.6-1-1.4-1.7-2.4c-1.4-2.1-3.2-5-5.2-8.2
					c-2-3.2-3.8-6.1-5.2-8.1C375.4,218.7,374,217.9,374.1,217.8z"/>
			</g>
		</g>
		<g>
			<g>
				<path class="st6" d="M364.4,233.7c0.1,0,0.3,1.2,0.7,3.2c0.5,2,1.2,4.7,2.4,7.6c1.2,2.9,2.6,5.4,3.7,7.1
					c1.1,1.7,1.8,2.8,1.8,2.8c0,0-0.2-0.2-0.6-0.7c-0.4-0.4-0.9-1.1-1.5-2c-1.2-1.7-2.6-4.2-3.8-7.1c-1.2-2.9-1.9-5.7-2.3-7.7
					c-0.2-1-0.3-1.8-0.3-2.4C364.3,234,364.3,233.7,364.4,233.7z"/>
			</g>
		</g>
	</g>
	<g>
		<g>
			<path class="st11" d="M451,200.6l0.8,0.2l-3,11l5.2,1.4l-0.2,0.7l-6-1.7L451,200.6z"/>
			<path class="st11" d="M456.8,210.2c-0.7,2.7,0.4,4.1,2.1,4.6c1.2,0.3,1.9,0.3,2.4,0.2l0,0.7c-0.4,0.1-1.3,0.2-2.8-0.2
				c-2.4-0.7-3.4-2.8-2.7-5.3c0.8-2.8,2.8-4.1,5-3.5c2.7,0.8,2.5,3.5,2.2,4.7c-0.1,0.2-0.1,0.4-0.2,0.5L456.8,210.2z M462.3,211
				c0.3-1.2,0.3-3.1-1.7-3.6c-1.8-0.5-3.1,0.9-3.6,2.2L462.3,211z"/>
			<path class="st11" d="M463.9,215.6c0.4,0.4,1,0.9,1.7,1.1c1.3,0.4,2.1-0.2,2.4-1.1c0.3-0.9-0.2-1.6-1.2-2.4
				c-1.2-0.9-1.8-1.9-1.5-2.9c0.3-1.2,1.6-2,3.2-1.6c0.8,0.2,1.4,0.6,1.7,1l-0.5,0.6c-0.2-0.3-0.7-0.7-1.5-1c-1.1-0.3-1.8,0.2-2,1
				c-0.2,0.9,0.2,1.4,1.3,2.2c1.2,0.9,1.8,1.8,1.5,3.1c-0.4,1.4-1.8,2.1-3.5,1.6c-0.8-0.2-1.5-0.7-2-1.2L463.9,215.6z"/>
			<path class="st11" d="M478.8,220.8l0.2-1.2l0,0c-0.6,0.5-1.7,1-3,0.7c-1.7-0.5-2.1-1.9-1.8-3c0.5-1.9,2.5-2.6,5.9-1.7l0.1-0.2
				c0.2-0.8,0.5-2.5-1.5-3c-0.7-0.2-1.5-0.2-2.3,0l-0.1-0.7c0.9-0.3,1.9-0.3,2.6,0c2.4,0.7,2.4,2.6,2,4.1L480,219
				c-0.2,0.7-0.3,1.3-0.4,2L478.8,220.8z M479.8,216.3c-1.8-0.6-4.3-0.9-4.8,1.1c-0.3,1.2,0.3,2,1.2,2.2c1.4,0.4,2.4-0.3,2.9-1
				c0.1-0.2,0.2-0.3,0.2-0.5L479.8,216.3z"/>
			<path class="st11" d="M486.2,211.3l-0.7,2.4l2.4,0.7l-0.2,0.7l-2.4-0.7l-1.5,5.4c-0.3,1.1-0.1,1.8,0.8,2.1c0.4,0.1,0.7,0.1,1,0.1
				l-0.1,0.7c-0.3,0-0.7,0-1.2-0.1c-0.6-0.2-1.1-0.5-1.3-1c-0.3-0.5-0.2-1.3,0-2.1l1.4-5.3l-1.4-0.4l0.2-0.7l1.4,0.4l0.6-2.1
				L486.2,211.3z"/>
			<path class="st11" d="M495.8,220.9c-0.9,3.1-3.4,3.8-5.2,3.3c-2.2-0.6-3.4-2.7-2.6-5.3c0.8-2.9,3.1-3.9,5.2-3.3
				C495.4,216.2,496.5,218.4,495.8,220.9z M488.8,219.1c-0.6,2.1,0.3,4,2,4.5c1.7,0.5,3.5-0.7,4.1-2.9c0.4-1.5,0.1-3.9-2.1-4.5
				C490.7,215.7,489.3,217.3,488.8,219.1z"/>
			<path class="st11" d="M503.7,225.5c-0.2,0.7-0.4,1.4-0.5,2.1l-0.8-0.2l0.4-1.5l0,0c-0.6,0.7-1.8,1.3-3.3,0.9
				c-1.1-0.3-2.7-1.3-1.8-4.5l1.3-4.9l0.8,0.2l-1.3,4.7c-0.5,1.8-0.3,3.3,1.4,3.7c1.2,0.3,2.3-0.3,2.9-1c0.2-0.2,0.3-0.5,0.4-0.9
				l1.4-5.2l0.8,0.2L503.7,225.5z"/>
			<path class="st11" d="M510,217.9l-0.7,2.4l2.4,0.7l-0.2,0.7l-2.4-0.7l-1.5,5.4c-0.3,1.1-0.1,1.8,0.8,2.1c0.4,0.1,0.7,0.1,1,0.1
				l-0.1,0.7c-0.3,0-0.7,0-1.2-0.1c-0.6-0.2-1.1-0.5-1.3-1c-0.3-0.5-0.2-1.3,0-2.1l1.4-5.3l-1.4-0.4l0.2-0.7l1.4,0.4l0.6-2.1
				L510,217.9z"/>
			<path class="st11" d="M511.3,228.6c0.4,0.4,1,0.9,1.7,1.1c1.3,0.4,2.1-0.2,2.4-1.1c0.3-0.9-0.2-1.6-1.2-2.4
				c-1.2-0.9-1.8-1.9-1.5-2.9c0.3-1.2,1.6-2,3.2-1.6c0.8,0.2,1.4,0.6,1.7,1l-0.5,0.6c-0.2-0.3-0.7-0.7-1.5-1c-1.1-0.3-1.8,0.2-2,1
				c-0.2,0.9,0.2,1.4,1.3,2.2c1.2,0.9,1.8,1.8,1.5,3.1c-0.4,1.4-1.8,2.1-3.5,1.6c-0.8-0.2-1.5-0.7-2-1.2L511.3,228.6z"/>
			<path class="st11" d="M531.6,222.1l-2.9,10.4c-0.2,0.6-0.3,1.4-0.5,2l-0.7-0.2l0.4-1.6l0,0c-0.7,0.8-1.9,1.4-3.5,1
				c-2.1-0.6-3.1-2.7-2.4-5.2c0.8-2.8,2.9-4,5-3.5c1.4,0.4,2.1,1.4,2.3,2.2l0,0l1.4-5.3L531.6,222.1z M528.8,229.2
				c0.1-0.2,0.1-0.5,0.1-0.8c0-1.2-0.7-2.4-2.1-2.8c-1.8-0.5-3.4,0.8-4,2.9c-0.5,1.9-0.1,3.9,1.9,4.4c1.2,0.3,2.5-0.2,3.3-1.5
				c0.1-0.2,0.2-0.4,0.3-0.7L528.8,229.2z"/>
			<path class="st11" d="M532.3,231c-0.7,2.7,0.4,4.1,2.1,4.6c1.2,0.3,1.9,0.3,2.4,0.2l0,0.7c-0.4,0.1-1.3,0.2-2.8-0.2
				c-2.4-0.7-3.4-2.8-2.7-5.3c0.8-2.8,2.8-4.1,5-3.5c2.7,0.8,2.5,3.5,2.2,4.7c-0.1,0.2-0.1,0.4-0.2,0.5L532.3,231z M537.8,231.8
				c0.3-1.2,0.3-3.1-1.7-3.6c-1.8-0.5-3.1,0.9-3.6,2.2L537.8,231.8z"/>
			<path class="st11" d="M545.3,230.1l0.5,5.7c0.1,0.9,0.2,1.7,0.2,2.5l0,0c0.4-0.6,0.9-1.3,1.5-2l3.4-4.6l0.9,0.2l-5.7,7.4
				l-0.7-0.2l-1-9.2L545.3,230.1z"/>
			<path class="st11" d="M559.4,238.4c-0.9,3.1-3.4,3.9-5.2,3.3c-2.2-0.6-3.4-2.7-2.6-5.3c0.8-2.9,3.1-3.9,5.2-3.3
				C559,233.7,560.1,235.9,559.4,238.4z M552.4,236.6c-0.6,2.1,0.3,4,2,4.5c1.7,0.5,3.5-0.7,4.1-2.9c0.4-1.5,0.1-3.9-2.1-4.5
				C554.3,233.2,552.8,234.8,552.4,236.6z"/>
			<path class="st11" d="M564.4,232.8l-0.7,2.4l2.4,0.7l-0.2,0.7l-2.4-0.7l-1.5,5.4c-0.3,1.1-0.1,1.8,0.8,2.1c0.4,0.1,0.7,0.1,1,0.1
				l-0.1,0.7c-0.3,0-0.7,0-1.2-0.1c-0.6-0.2-1.1-0.5-1.3-1c-0.3-0.5-0.2-1.3,0-2.1l1.4-5.3l-1.4-0.4l0.2-0.7l1.4,0.4l0.6-2.1
				L564.4,232.8z"/>
			<path class="st11" d="M567.3,238.9c0.2-0.8,0.4-1.7,0.6-2.5l0.8,0.2l-0.4,1.7l0,0c0.7-1,1.7-1.5,2.9-1.2c0.1,0,0.2,0.1,0.3,0.1
				l-0.2,0.8c-0.1-0.1-0.2-0.1-0.4-0.1c-1.1-0.3-2.2,0.5-2.8,1.7c-0.1,0.2-0.2,0.5-0.3,0.8l-1.3,4.6l-0.8-0.2L567.3,238.9z"/>
			<path class="st11" d="M572.1,241.9c-0.7,2.7,0.4,4.1,2.1,4.6c1.2,0.3,1.9,0.3,2.4,0.2l0,0.7c-0.4,0.1-1.3,0.2-2.8-0.2
				c-2.4-0.7-3.4-2.8-2.7-5.3c0.8-2.8,2.8-4.1,5-3.5c2.7,0.8,2.5,3.5,2.2,4.7c-0.1,0.2-0.1,0.4-0.2,0.5L572.1,241.9z M577.6,242.7
				c0.3-1.2,0.3-3.1-1.7-3.6c-1.8-0.5-3.1,0.9-3.6,2.2L577.6,242.7z"/>
			<path class="st11" d="M583,248.3c0.4,0.4,1,0.9,1.7,1.1c1.3,0.4,2.1-0.2,2.4-1.1c0.3-0.9-0.2-1.6-1.2-2.4
				c-1.2-0.9-1.8-1.9-1.5-2.9c0.3-1.2,1.6-2,3.2-1.6c0.8,0.2,1.4,0.6,1.7,1l-0.5,0.6c-0.2-0.3-0.7-0.7-1.5-1c-1.1-0.3-1.8,0.2-2,1
				c-0.2,0.9,0.2,1.4,1.3,2.2c1.2,0.9,1.8,1.8,1.5,3.1c-0.4,1.4-1.8,2.1-3.5,1.6c-0.8-0.2-1.5-0.7-2-1.2L583,248.3z"/>
			<path class="st11" d="M589.5,251.3l2.3-8.3l0.8,0.2l-2.3,8.3L589.5,251.3z M593.5,240.8c-0.1,0.4-0.5,0.7-0.9,0.5
				c-0.4-0.1-0.5-0.5-0.4-0.9c0.1-0.4,0.5-0.6,0.9-0.5C593.4,240,593.6,240.4,593.5,240.8z"/>
			<path class="st11" d="M597.2,241.8l-0.7,2.4l2.4,0.7l-0.2,0.7l-2.4-0.7l-1.5,5.4c-0.3,1.1-0.1,1.8,0.8,2.1c0.4,0.1,0.7,0.1,1,0.1
				l-0.1,0.7c-0.3,0-0.7,0-1.2-0.1c-0.6-0.2-1.1-0.5-1.3-1c-0.3-0.5-0.2-1.3,0-2.1l1.4-5.3l-1.4-0.4l0.2-0.7l1.4,0.4l0.6-2.1
				L597.2,241.8z"/>
			<path class="st11" d="M599.8,249.5c-0.7,2.7,0.4,4.1,2.1,4.6c1.2,0.3,1.9,0.3,2.4,0.2l0,0.7c-0.4,0.1-1.3,0.2-2.8-0.2
				c-2.4-0.7-3.4-2.8-2.7-5.3c0.8-2.8,2.8-4.1,5-3.5c2.7,0.8,2.5,3.5,2.2,4.7c-0.1,0.2-0.1,0.4-0.2,0.5L599.8,249.5z M605.3,250.3
				c0.3-1.2,0.3-3.1-1.7-3.6c-1.8-0.5-3.1,0.9-3.6,2.2L605.3,250.3z"/>
		</g>
	</g>
</g>
<g id="Plant">
	<g>
		<g>
			<g>
				<g>
					<path class="st11" d="M76.7,288c-5.7,0.9-8.2,7.9-7.7,13.6c0.5,5.7,2.8,11.3,2.2,17c-0.8,7.2-6.3,13.4-6.9,20.6
						c-0.8,8.6,5.3,16.2,7.1,24.6c0.9,4.1,0.8,8.4,2.3,12.3c2.6,6.6,10.1,10.8,17,9.5c6.9-1.2,12.5-7.8,12.7-14.8
						c0.1-6.6-3.9-12.8-3.4-19.3c0.4-4.8,3.2-9.4,2.6-14.3c-0.7-5.7-6-9.8-7.9-15.3c-1.9-5.5-0.1-11.5-0.7-17.2
						C92.7,294.4,87,287.2,76.7,288"/>
				</g>
			</g>
			<g>
				<g>
					<path class="st11" d="M47.7,337.9c-1,9.6,3.3,20.8,8.2,29c4.9,8.2,12.5,14.9,21.4,18.6c1,0.4,2.2,0.8,3.1,0.1
						c0.7-0.6,0.8-1.6,0.8-2.5C81.2,373.1,78,363,72,355C66,346.9,57.4,340.8,47.7,337.9"/>
				</g>
			</g>
			<g class="st21">
				<g>
					<path d="M47.7,337.9c-1,9.6,3.3,20.8,8.2,29c4.9,8.2,12.5,14.9,21.4,18.6c1,0.4,2.2,0.8,3.1,0.1c0.7-0.6,0.8-1.6,0.8-2.5
						C81.2,373.1,78,363,72,355C66,346.9,57.4,340.8,47.7,337.9"/>
				</g>
			</g>
			<g>
				<g>
					<g>
						<path class="st6" d="M89.4,405.5c0,0-0.1-0.2-0.3-0.5c-0.2-0.4-0.4-0.9-0.7-1.6c-0.6-1.4-1.4-3.3-2.5-5.7
							c-2.2-4.8-5.4-11.4-9.5-18.4c-4.1-7-8.2-13-11.3-17.3c-1.6-2.1-2.9-3.8-3.8-5c-0.4-0.6-0.8-1-1-1.4c-0.2-0.3-0.3-0.5-0.3-0.5
							c0,0,0.2,0.1,0.4,0.4c0.3,0.3,0.7,0.8,1.1,1.3c1,1.1,2.3,2.8,3.9,4.9c3.2,4.2,7.4,10.2,11.5,17.2c4.1,7,7.3,13.6,9.4,18.5
							c1.1,2.4,1.9,4.4,2.4,5.8c0.2,0.6,0.4,1.2,0.6,1.6C89.3,405.3,89.4,405.5,89.4,405.5z"/>
					</g>
				</g>
			</g>
			<g>
				<g>
					<g>
						<path class="st6" d="M83.2,314.4c0,0,0.1,0.3,0.1,0.9c0,0.6,0.1,1.5,0.2,2.6c0.1,2.3,0.4,5.6,0.6,9.7
							c0.5,8.2,1.2,19.5,2.1,31.9c0.9,12.5,1.7,23.7,2.4,31.9c0.3,4,0.6,7.3,0.7,9.7c0.1,1.1,0.1,2,0.2,2.6c0,0.6,0,0.9,0,0.9
							c0,0-0.1-0.3-0.1-0.9c-0.1-0.6-0.2-1.5-0.3-2.6c-0.2-2.3-0.5-5.6-0.9-9.7c-0.7-8.2-1.7-19.4-2.5-31.9
							c-0.9-12.5-1.5-23.8-2-31.9c-0.2-4.1-0.3-7.4-0.5-9.7c0-1.1-0.1-2-0.1-2.6C83.2,314.7,83.2,314.4,83.2,314.4z"/>
					</g>
				</g>
			</g>
		</g>
		<g>
			<g>
				<path class="st6" d="M74.4,391.9h23.9v17.6c0,6.3-5.1,11.5-11.5,11.5l0,0c-6.1,0-11.1-4.8-11.5-10.9L74.4,391.9z"/>
			</g>
		</g>
	</g>
</g>
</svg>
