<?xml version="1.0" encoding="utf-8"?>
<!-- Generator: Adobe Illustrator 24.1.0, SVG Export Plug-In . SVG Version: 6.00 Build 0)  -->
<svg version="1.1" id="Calque_1" xmlns="http://www.w3.org/2000/svg" xmlns:xlink="http://www.w3.org/1999/xlink" x="0px" y="0px"
	 viewBox="0 0 1920 1080" style="enable-background:new 0 0 1920 1080;" xml:space="preserve">
<style type="text/css">
	.st0{opacity:0.3;fill:#E9EEF8;enable-background:new    ;}
	.st1{opacity:0.3;fill:#D1D8EA;enable-background:new    ;}
	.st2{opacity:0.3;fill:#BEC8E2;enable-background:new    ;}
	.st3{opacity:0.3;fill:#E9EEF7;enable-background:new    ;}
	.st4{opacity:0.3;fill:#E8EEF7;enable-background:new    ;}
	.st5{opacity:0.3;fill:#BFC9E2;enable-background:new    ;}
	.st6{opacity:0.3;fill:#D2D8EA;enable-background:new    ;}
	.st7{opacity:0.3;fill:#A0ABCD;enable-background:new    ;}
	.st8{opacity:0.3;fill:#ADB9D9;enable-background:new    ;}
	.st9{opacity:0.3;fill:#283B6A;enable-background:new    ;}
	.st10{opacity:0.3;fill:#ACB9D9;enable-background:new    ;}
	.st11{opacity:0.3;fill:#E7EDF7;enable-background:new    ;}
	.st12{opacity:0.3;fill:#C6A78E;enable-background:new    ;}
	.st13{opacity:0.3;fill:#DAE3F3;enable-background:new    ;}
	.st14{opacity:0.3;fill:#E2AF86;enable-background:new    ;}
	.st15{opacity:0.3;fill:#20314E;enable-background:new    ;}
	.st16{opacity:0.3;fill:#8E9DC2;enable-background:new    ;}
	.st17{opacity:0.3;fill:#7396C9;enable-background:new    ;}
	.st18{opacity:0.3;fill:#516FAB;enable-background:new    ;}
	.st19{opacity:0.3;fill:#917561;enable-background:new    ;}
	.st20{opacity:0.3;fill:#283F7E;enable-background:new    ;}
	.st21{opacity:0.3;fill:#273F78;enable-background:new    ;}
	.st22{opacity:0.3;fill:#D4D9E9;enable-background:new    ;}
</style>
<path class="st0" d="M772.5,408.7c2.6-2.4,4.9-5,7.7-7c20.6-14.5,38.7-31.8,56.3-49.7c3.1-3.1,5.7-6.8,8.5-10.2
	c3.9,0,7.9,0,11.8,0.1c0.8,0,1.5,0.4,2.3,0.3c2.3-0.3,4.6-1,7-1c16.4-0.1,32.9,0,49.3,0c5.2,0,5.2,0,4.9-5.3c-0.1-0.8,0-1.6,0-2.4
	c0-11.6-0.1-23.2,0.1-34.8c0.1-3.2-1-3.9-3.9-3.8c-6.3,0.2-12.6,0-19,0c3.1-2,6-4.3,9.3-5.8c9.7-4.4,19.4-9.3,29.6-12.5
	c11.6-3.6,23.5-6.4,35.7-8.1c15.5-2.2,31-3.1,46.6-2.4c11,0.5,22.1,1.7,33,3.4c12.9,2,25.9,4.5,38.6,7.6c9.7,2.4,19.2,5.8,28.5,9.4
	c12.5,4.8,24.9,10.1,37.2,15.4c4.2,1.8,8.1,4.2,12.1,6.6c12.3,7.4,24.5,14.9,36.7,22.5c1.2,0.7,1.9,2.2,2.8,3.3
	c-11.5,0-23,0-34.6,0.1c-1.4-1.4-2.6-3.2-4.3-4.1c-9.4-5-18.9-9.8-28.3-14.6c-4.2-2.1-8.3-4.3-12.6-6c-7.5-2.9-15.1-5.6-22.7-8.2
	c-4.4-1.5-8.9-3-13.4-4.2c-3.3-0.9-6.9,2.2-7,5.7c-0.1,3.6,1.5,5.3,5.6,6.6c6,1.8,12.1,3.5,17.9,5.7c9.8,3.9,19.5,8,29.1,12.4
	c3.8,1.7,7.3,4.4,10.9,6.6c-1.1,0.1-2.2,0.2-3.1,0.3c-0.2,0.6-0.3,0.8-0.3,1c0,19.7,0,39.3-0.1,59c0,2.4,1.2,2.5,3,2.5
	c20,0,39.9,0,59.9,0c9,0,17.9,0,26.9,0c0.5,1.1,0.9,2.4,1.6,3.3c5.2,6.5,10.6,12.8,15.5,19.5c5.7,7.7,10.9,15.7,16.3,23.6
	c0.7,1.1,0.7,2.6,1,3.9c-9.5,0-19.1,0.1-28.6,0c-3.4-0.1-4.6,0.8-4.6,4.4c0.2,18.3,0.2,36.6,0,54.8c0,3.6,1.2,4.4,4.6,4.4
	c20.6-0.1,41.2-0.1,61.7-0.1c1.3,3.4,2.6,6.8,4.1,10.1c1.6,3.6,4.8,4.9,8.4,3.6c2.6-1,3.9-4.5,3-7.8c-0.6-2-1.1-3.9-1.6-5.9
	c6.7,0,13.3,0,20,0c2.1,6.2,4.4,12.4,6.2,18.7c2.5,9,4.8,18,6.9,27.1c1.6,7.2,2.8,14.6,3.8,21.9c0.8,5.3,1.3,10.6,1.7,16
	c0.4,5.5,0.9,11,0.6,16.5c-0.6,11.2-1,22.4-2.9,33.4c-3,17.9-8.7,35.2-17,51.5c-0.3,0.5-0.9,0.8-1.4,1.3c5.1-16.3,6.9-33.1,6.2-50.1
	c0-0.6,0.2-1.3,0.3-2c0.9-0.2,1.8-0.1,2.5-0.5c2.7-1.6,5.7-2.9,8-5c1.8-1.7,1.3-4.4-0.7-5.6c-0.9-0.6-3,0.4-4.4,1
	c-0.8,0.3-1.4,1.2-2,1.8c0.2-2.4,0.4-4.7,0.7-7.1c1.3-1.1,3.4-1.9,3.8-3.2c0.6-1.9,0.8-4.6-0.2-6.2c-1.3-2.1-3.4-0.6-5,0.6
	c-0.5-2.4-1-4.8-1.5-7.2c0.8-1.1,1.7-2.2,2.5-3.3c1.5-2.3,1.1-4.5-0.8-6.2c-2.2-2-3.4,0.4-4.9,1.4c-1.5-1.5-3-2.9-4.5-4.4
	c0.8-1.2,1.7-2.4,2.3-3.7c0.8-1.9,1.8-3.9,2-5.9c0.1-1-1.3-2.9-2.3-3.1c-1-0.2-2.9,0.8-3.5,1.8c-1.2,2-1.8,4.3-2.7,6.6
	c-2.8-0.6-3.8-2.2-4-5.3c-0.2-3.3-1.3-6.7-2.6-9.8c-0.4-1.1-2.5-1.5-3.8-2.2c-0.6,1.6-2.1,3.6-1.6,4.7c1.4,3.1,3.7,5.8,5.6,8.7
	c-0.4,0.2-0.8,0.7-1.1,0.6c-9.2-1-15.9,2.8-20.2,10.9c-2.3,4.4-4.2,9.1-6.5,13.5c-3.7,7-7,14.3-11.6,20.6c-5,6.9-12.4,11.3-20.7,14
	c-4.7,1.5-9.7,3.2-13.7,6c-7.1,4.9-8.6,12.4-5.8,20.1c2.4,6.6,6,12.7,9,19.1c3.9,8.3,4.6,16.7,0.3,25.2c-1.6,3.1-2.9,6.4-4.3,9.6
	c-1.3-1-3.1-1.8-3.8-3.1c-2-4.3-2.9-8.8-2.3-13.7c0.6-5.1,1.2-10.2,1.2-15.3c0-3.6-1.2-7.1-4.5-9.4c-1.1-4-2.3-8-3.4-12
	c0.1-1.4,0.4-2.7,0.4-4.1c0-12.9,0-25.9,0-38.8c0-4.6-1.2-5.8-6-5.8c-5.8,0-11.7,0-17.5,0c-4.9-5.9-11-10-18.6-11.5
	c-5.3-1-10,0.1-13.9,4c-3,3-6.2,5.7-9.3,8.5c-1.1-0.3-2.2-1-3.4-1c-4.5-0.1-8.9-0.1-13.4-0.1c-0.2-2-0.5-4.1-0.6-6.1
	c-0.1-6.5,0-13,0-19.5c0-16.5,0-33,0-49.6c9.3,0,18.6,0,27.9-0.1c2.4,0,4.8-0.2,7.1-0.7c7.4-1.7,13.8-9.7,11.9-18.5
	c-1.9-8.9-8-13.7-17.1-13.8c-9.8,0-19.5,0-29.3,0c0-31.8-0.1-63.7,0.1-95.5c0.1-10.7-7.4-17.9-17.6-17.9
	c-63.7,0.3-127.4,0.2-191.1,0.1c-1.8,0-3.7-0.9-5.4-1.3c-1.6,0.4-3.4,1.3-5.3,1.3c-52.8,0.1-105.5,0.1-158.3,0.1
	C774.7,408.8,773.6,408.8,772.5,408.7z M1008.6,313.6c-6.2,0-12.4,0-18.6,0c-10.2,0-20.5,0-30.7,0c-1.4,0-3.2-0.5-3.1,2
	c0.1,4.7,0.1,9.3,0.2,14c0.2,11.5,0.4,22.9,0.5,34.4c0,3-0.6,5.9-0.6,8.9c0,2.3,0.9,3.9,3.8,3.6c1.8-0.2,3.9-0.7,5.1,1.7
	c0.1,0.3,2.3,0,2.4-0.2c0.3-2.5,2.2-1.5,3.4-1.5c28.9,0,57.7-0.1,86.6,0c2.8,0,3.7-0.7,3.7-3.6c-0.1-18.6-0.1-37.2,0-55.9
	c0-2.8-0.9-3.5-3.5-3.4C1041.2,313.7,1024.9,313.6,1008.6,313.6z M897.1,356.4c-11.6,0-23.2-0.1-34.8,0c-9.3,0.1-18,10-15.6,18.6
	c1.4,5.1-0.2,8.8-2.4,12.9c-0.9,1.6-0.6,3.8-0.9,5.7c1.8-0.1,3.7,0.1,5.5-0.3c4.7-1,8.6-4.2,13.9-4.1c22.8,0.4,45.5,0.3,68.3,0.1
	c8.9-0.1,16.8-7,16.1-18c-0.5-8.3-7.6-15-16.6-15C919.4,356.4,908.3,356.4,897.1,356.4z M1125.2,376.2c0-5.8-0.1-11.5,0-17.3
	c0.1-4.4-0.9-7.4-5.8-9.1c-2.5-0.9-4.1-2.2-6.4,0.1c-0.6,0.5-2,0.3-3,0.3c-10.1,0-20.2,0-30.4,0c-3.1,0-5.2,1.6-5.4,4.6
	c-0.4,7-0.7,14.1-0.7,21.1c0,6.1,0.7,12.1,0.5,18.2c-0.1,5.1,0.8,7.5,7.6,7.7c12.3,0.4,24.6,0.2,36.9,0.1c4.4,0,6.6-2.6,6.7-7.1
	C1125.2,388.6,1125.2,382.4,1125.2,376.2z M1168.6,612.6c2.7-1.6,5.2-2.6,7.1-4.3s3.8-2.1,6.2-2.1c17.1,0.1,34.3,0,51.4,0
	c4.9,0,6.9-1.7,7-6.5c0.2-7.1,0.2-14.3,0-21.4c-0.1-4.9-2-6.6-6.9-6.6c-18.4,0-36.8,0-55.2,0c-7.3,0-8.1,0.9-8.3,8
	c-0.2,10.1,1.6,20.5-3.9,30c-1.3,2.2,0.8,4.7,3.7,5.6C1169.4,614.4,1169,613.5,1168.6,612.6z M1040.7,298.5c0,0.2,0,0.4,0,0.6
	c0.5,0,0.9,0,1.4,0c4.7,0,6.8-1.6,7.1-5.2c0.3-3.7-1.3-6-5.7-6.7c-4.8-0.8-9.8-0.7-14.6-1.4c-13.2-2-26.5-1.4-39.7-0.3
	c-11.2,0.9-22.3,3.5-33.4,5.3c-3.9,0.6-6.1,3.4-5.5,6.9c0.7,3.9,3.9,6.1,7.8,5.4c4.9-0.9,9.8-2.1,14.8-2.8
	c10.3-1.3,20.6-2.9,30.9-3.2C1016,297,1028.4,298,1040.7,298.5z"/>
<path class="st1" d="M1296.3,795.4c3.5,0.5,6.9,1.1,10.4,1.3c10.2,0.8,20.3,1.2,30.5,2.2c10.7,1.1,21.3,2.7,31.9,4.3
	c3.4,0.5,6.7,1.5,9.9,2.6c1.4,0.4,2.5,1.5,3.7,2.3c0,0.5,0,1-0.1,1.5c-3.8,1.2-7.6,3-11.5,3.6c-13.7,1.9-27.4,3.6-41.2,4.9
	c-13.1,1.3-26.2,2-39.4,2.8c-12.5,0.8-24.9,1.4-37.4,2.1c-10.5,0.5-21.1,1-31.6,1.4c-6.1,0.3-12.1,0.5-18.2,0.7
	c-16.6,0.5-33.2,0.9-49.9,1.4c-8.1,0.2-16.3,0.5-24.4,0.7c-12.5,0.3-25,0.5-37.5,0.7s-25,0.6-37.5,0.7c-74,0.3-148.1,0.5-222.1,0.6
	c-18,0-36.1-0.4-54.1-0.7c-11.2-0.2-22.5-0.4-33.7-0.7c-9.1-0.2-18.1-0.4-27.2-0.7c-15.1-0.4-30.3-0.9-45.4-1.4
	c-12.8-0.4-25.7-0.9-38.5-1.4c-9.7-0.4-19.5-0.8-29.2-1.4c-14.9-0.9-29.7-1.7-44.5-2.8c-11.2-0.8-22.4-1.5-33.5-2.8
	c-11.7-1.4-23.3-3.4-34.8-5.5c-2.2-0.4-4.2-2.3-6.3-3.4c2-1.3,3.8-3.3,6-3.8c7.2-1.5,14.6-2.7,21.9-3.7c7.6-1,15.2-1.8,22.8-2.6
	c4-0.4,8-0.6,12-0.9c4.6-0.4,9.2-0.9,13.8-1.4c5.5-0.2,10.9-0.4,16.4-0.7c5.7-0.2,11.4-0.4,17.1-0.8c2.2-0.2,4.4-0.9,6.5-1.3
	c0.9,0.2,1.8,0.6,2.6,0.5c2.6-0.2,5.5,1.6,7.7-1.2c1.9,0.2,3.8,0.7,5.7,0.6c5.2-0.1,10.5-0.4,15.7-0.7c2.2,0,4.4,0,6.6,0
	c0.1-0.3,0.2-0.7,0.3-1c-3.9-4-7.9-8.1-11.8-12.1c-1.1-1.4-2.3-2.7-3.4-4.1c-0.5-0.5-0.9-1-1.4-1.4l0,0c-1.6-2.2-3.2-4.4-4.8-6.5
	c-2-2.8-2.1-11-0.1-13.5c0.3,0.3,0.7,0.6,0.9,1c5.4,11.7,12.3,22.5,20.7,32.3c1.6,1.9,3.5,3.6,5.2,5.3c0.3-0.2,0.6-0.5,0.9-0.7
	c-21.3-22.7-33.5-49.4-36.9-80.2c2.2-0.5,3.6-0.9,5.1-1.2c1,6.5,3.1,12.6,7.6,17.7c6.8,7.6,13.6,15.2,20.6,22.6
	c4.8,5,8.6,10.6,9,17.6c0.4,7.7,0.1,15.5,0.1,23.2c6.8,0,13.2,0,19.5,0c-2.1,4.3-4.3,8.6-3.7,13.7c0.1,0.8-0.6,1.6-1,2.4
	c-1.4,3.2-0.3,4.9,3.1,5c1.4,0,2.8,0,4.1,0c3.4-0.1,4.4-1.9,3.1-5.2c-0.6-1.7-1-3.8-0.7-5.5c1.1-5.5,6.1-9.2,12.1-9.2
	c8.7-0.1,17.4,0.1,26.1-0.1c5.8-0.1,11.4,0.1,16.7,2.8l0,0c0,1.5,0,3,0,4.5c-2.7,3.3-3,5.2-0.9,7.1c2.8,2.5,5.7,5.1,8.6,7.5
	c3.9,3.1,8.2,4.9,13.1,2.7c1.2-0.6,2.5-2.2,2.7-3.5c0.1-1-1.4-2.2-2.4-3.2c-2.1-2-4.2-4-6.4-5.9c-0.7-0.7-1.5-1.3-2.2-2
	c-0.2-2.2-0.5-4.5-0.7-6.7c0.8-2.6,1.6-5.2,2.4-7.8c0.7,0.4,1.3,1.1,2,1.1c6.3,0.1,12.6,0.1,19,0c4.9-0.1,9.8-0.7,14.7-0.6
	c4.5,0.1,9,0.8,13.5,1.2c0.6,1.6,1.1,3.3,1.7,4.9c-0.3,1.4-0.5,2.8-0.8,4.2c-0.8,2.2-2.6,4.7-2.2,6.6c0.3,1.4,3.6,2.1,5.6,3.1
	c0.6,0.3,1.3,0.3,2,0.3c7.6,0.3,15.2,0.6,22.7,0.8c1.2,0,2.5-0.3,3.7-0.7c0.7-0.2,1.6-1,1.6-1.5c0-0.8-0.5-1.8-1.2-2.3
	s-1.7-0.5-2.6-0.8c-4.8-1.7-9.6-3.5-14.5-5.3c-0.9-0.3-1.9-0.6-2.9-0.9c-0.1-1.1-0.1-2.3-0.2-3.4c0.1-2.4,0.1-4.7,0.2-7.1
	c12.9,0,25.8,0,38.6,0c0.1,5.5,0.1,5.5,5.7,5.5c48,0,96.1,0,144.1,0c6.5,0,5.3,0.5,5.5-5.5c16.3,0,32.6,0,49,0
	c1.8,6.1,3.9,12.1,5.2,18.3c0.7,3.3,2,5.1,6.2,5.4c-2.1,0.4-3.2,0.6-4.1,0.8c-1.1,3.5,0.6,3.9,3.3,3.8c23.9-0.1,47.7,0,71.6,0
	c0.4,0,0.8,0.1,1.3,0.1c1.5,1.1,3,2.9,4.6,3c3.7,0.3,7.5,0.1,11.2-0.3c2.2-0.3,4.2-1.4,6.3-2.1c3.2-0.2,6.4-0.6,9.5-0.5
	c2.5,0.1,3.3-0.9,3-3.2c3.2,0.4,6.4,1,9.7,1.2c1.5,0.1,3.1-0.2,4.6-0.4c0.8,0.6,1.5,1.5,2.5,1.8c7.2,2.7,14.5,4.7,22.3,3.7
	c4.8-0.6,12.2-5.2,11.2-11.2c0.2-0.1,0.5-0.3,0.7-0.4c0.7-0.1,1.3-0.2,2-0.4c10.4-3.1,19.6-8.4,28.3-14.7c2.3,0,4.6,0,7,0
	c0.6,0.5,1.3,1.3,1.9,1.3c2.6-0.1,5.1-0.4,7.7-0.6c1.4,0.5,2.7,1.1,4.1,1.3c2.5,0.3,5,0.5,7.5,0.6
	C1284.3,795.3,1290.3,795.3,1296.3,795.4z"/>
<path class="st2" d="M558.5,532.4c-11.4,0-22.8,0-34.2,0c-4.6,0-4.6,0-4.6-4.7c0-42.8,0-85.6,0-128.3c0-1.9,0-3.8,0-5.7
	c1.8,0,3.7,0,5.5,0c53.6,0,107.2,0,160.8,0c0,9,0,17.9,0.1,26.9c0,11.3,0,22.5,0,33.8c0,6.7,0,13.3,0,20c0,4.6,0,9.2,0,13.8
	c0,6.3-0.1,12.6,0,18.9c0,1.2,0.6,2.3,0.9,3.4c-4.6,2.8-8,6.6-8.1,12.2c0,3.2,1,6.4,1.5,9.7C639.9,532.4,599.2,532.4,558.5,532.4z
	 M648.3,430.9c-0.1-0.3-0.2-0.7-0.3-1c-0.9-0.1-1.7-0.3-2.6-0.3c-16.1,0-32.1,0-48.2,0c-0.9,0-1.8,0.8-2.7,1.2
	c0.7,0.5,1.5,1.4,2.2,1.4c16.3,0.1,32.6,0.1,48.9,0C646.5,432.2,647.4,431.4,648.3,430.9z M581.6,440.6c0,0.5,0,1.1,0,1.6
	c20.3,0,40.7,0,61,0c0-0.5,0-1.1,0-1.6C622.2,440.6,601.9,440.6,581.6,440.6z M609.4,497.4c0-0.3,0.1-0.6,0.1-0.9
	c-0.6-0.2-1.3-0.7-1.9-0.7c-16.4,0-32.8,0-49.3,0c-0.6,0-1.3,0.6-1.9,0.9c0.1,0.2,0.2,0.5,0.3,0.7
	C574.3,497.4,591.9,497.4,609.4,497.4z M670.9,496.3c-17.6,0-35.2,0-53.5,0C620,498.2,667.7,498.5,670.9,496.3z M568.7,485.8
	c2.8,2.2,51.2,2.2,53.5,0C604.3,485.8,586.8,485.8,568.7,485.8z M550.2,464.5c0.2,0.4,0.3,0.8,0.5,1.2c9.2,0,18.5,0,28.2,0
	c-0.6-1-0.8-1.8-1.1-1.8c-8-0.2-16-0.3-24-0.4C552.5,463.5,551.3,464.2,550.2,464.5z M599.6,508.9c3.8,0,7.6,0.1,11.4-0.1
	c0.9,0,1.7-0.8,2.5-1.2c-0.8-0.5-1.5-1.4-2.3-1.4c-7.7-0.1-15.4-0.1-23.1,0c-0.8,0-1.6,0.9-2.3,1.4c0.8,0.4,1.6,1.2,2.4,1.2
	C592,509,595.8,508.9,599.6,508.9z M635.3,506.2c-3.8,0-7.6-0.1-11.3,0.1c-0.9,0-1.7,0.9-2.5,1.4c0.8,0.4,1.6,1.2,2.4,1.2
	c7.6,0.1,15.1,0.1,22.7,0c0.8,0,1.6-0.8,2.4-1.2c-0.8-0.5-1.7-1.3-2.5-1.4C642.7,506.1,639,506.2,635.3,506.2z M562.8,506.2
	c-3.9,0-7.8-0.1-11.7,0.1c-0.7,0-1.4,0.9-2.1,1.4c0.7,0.4,1.4,1.1,2.1,1.2c7.7,0.1,15.3,0.1,23,0c0.8,0,1.5-0.8,2.3-1.3
	c-0.8-0.5-1.5-1.3-2.3-1.3C570.4,506.1,566.6,506.2,562.8,506.2z M556.7,419.2c0,0.5,0,1.1,0,1.6c12.1,0,24.1,0,36.2,0
	c0-0.5,0-1,0-1.5C580.8,419.2,568.7,419.2,556.7,419.2z M560.8,410.9c3.3,0,6.6,0.1,9.9-0.1c0.7,0,1.4-0.9,2.1-1.4
	c-0.7-0.4-1.4-1.2-2.1-1.2c-6.6-0.1-13.3-0.1-19.9,0c-0.7,0-1.3,0.8-2,1.3c0.6,0.5,1.3,1.3,1.9,1.3
	C554.2,411,557.5,410.9,560.8,410.9z M577.5,409c0,0.6,0,1.1,0,1.7c7,0.1,14.1,0.2,21.1,0.2c0.6,0,1.2-0.9,1.8-1.4
	c-0.7-0.4-1.4-1.1-2.1-1.2c-3.3-0.1-6.6-0.2-10,0C584.8,408.4,581.1,408.7,577.5,409z M616.8,464.4c-9.9,0-19.1,0-28.9,0
	C592.4,466.7,612,466.7,616.8,464.4z M602.6,451c-2.5,0-5.1-0.1-7.6,0.1c-0.6,0-1.2,0.9-1.9,1.4c0.6,0.4,1.2,1.1,1.7,1.2
	c5.1,0.1,10.1,0.1,15.2,0c0.7,0,1.3-0.9,2-1.4c-0.7-0.4-1.4-1.1-2.2-1.2C607.4,450.9,605,451,602.6,451z M585.1,451.7
	c-4.4-1.5-17.3-0.9-18.7,0.9C569.8,454.7,584.1,454,585.1,451.7z M585.5,430.8c-0.1-0.4-0.3-0.8-0.4-1.2c-4.9,0-9.8,0-14.6,0.1
	c-0.5,0-1,0.9-1.5,1.4c0.5,0.4,0.9,1.1,1.4,1.1c4.3,0.1,8.7,0.1,13,0C584.1,432.2,584.8,431.3,585.5,430.8z M633.6,487.5
	c1.8,0,3.7,0.1,5.5-0.1c0.8-0.1,1.4-0.9,2.2-1.4c-0.7-0.4-1.4-1.1-2.1-1.2c-3.6-0.1-7.3-0.1-10.9,0c-0.7,0-1.3,0.8-2,1.2
	c0.6,0.5,1.2,1.3,1.9,1.3C630,487.6,631.8,487.5,633.6,487.5z M585.2,476c0-0.4,0-0.7,0-1.1c-6.5,0-13.1,0-19.6,0c0,0.4,0,0.7,0,1.1
	C572.2,476,578.7,476,585.2,476z M628.3,474.9c3.1,2.2,18.5,2.1,20.8,0C642.1,474.9,635.6,474.9,628.3,474.9z M595.9,476
	c5.6,1.2,18.2,0.7,19.7-0.7C612.6,473.8,598,474.1,595.9,476z M617.6,420.9c-3.1-2.4-17.1-2-18.8,0
	C605.2,420.9,611.4,420.9,617.6,420.9z M537.1,432.2c-0.8-1-1.4-1.8-2-2.6c-0.5,0.9-1.3,1.7-1.3,2.5c0,0.9,0.9,1.9,1.4,2.8
	C535.8,434.2,536.3,433.4,537.1,432.2z M533,445.6c0.8,1,1.4,1.8,2,2.5c0.5-1,1.3-1.9,1.3-2.9c0-0.8-0.9-1.6-1.4-2.4
	C534.4,443.6,533.8,444.4,533,445.6z M533,458.4c0.8,1.2,1.3,2,1.9,2.8c0.5-0.8,1.5-1.6,1.4-2.4c0-1-0.8-1.9-1.3-2.9
	C534.5,456.6,533.9,457.4,533,458.4z M537.1,484.2c-0.8-1.1-1.4-1.9-1.9-2.7c-0.5,0.8-1.4,1.6-1.4,2.4c0,1,0.9,1.9,1.3,2.9
	C535.7,486,536.3,485.2,537.1,484.2z M537.1,497.3c-0.8-1.1-1.4-1.9-1.9-2.7c-0.5,0.9-1.3,1.9-1.4,2.8c0,0.8,0.9,1.7,1.3,2.5
	C535.7,499.1,536.3,498.3,537.1,497.3z M537.1,419.6c-0.9-1-1.5-1.7-2.1-2.4c-0.4,0.7-1.3,1.5-1.2,2.2c0,0.9,0.9,1.7,1.3,2.5
	C535.7,421.3,536.2,420.6,537.1,419.6z M533,471.3c0.9,1.1,1.4,1.7,2,2.4c0.5-0.8,1.3-1.6,1.4-2.5c0-0.7-0.8-1.5-1.2-2.3
	C534.5,469.6,533.9,470.3,533,471.3z"/>
<path class="st3" d="M686.2,420.6c0-9,0-17.9-0.1-26.9c0-4.2,0-8.5,0.1-12.7c0-4.5,0-4.5-4.6-4.5c-29.1,0-58.1,0-87.2,0
	c1.7-9.2,6.2-17.2,11-25c7.8-12.9,17.6-24.1,28.6-34.1c11.3-10.3,23.3-19.8,36.7-27.4c8.7-4.9,17.4-10,26.4-14.5
	c13.8-7,28.2-12.4,43.5-14.9c9-1.5,18.1-3.1,27.1-3.2c13.8-0.3,27.1,3.2,38.7,11c9.6,6.5,16.4,15.5,17,27.6c0.4,6.8-0.6,13.7-1,21
	c0.7,0.5,2,1.4,3.4,2.3c-0.1,0.3-0.2,0.6-0.4,1c-1.6,0-3.2,0-5.1,0c-2,3.9-3.9,8-6.1,12c-10.4,19.2-25.1,34.4-42,47.9
	c-12.9,10.3-27.4,17.7-42.1,24.9c-1.7,0.8-4.6,0.8-4.6,3.9c-5.4,0-10.9-0.4-16.2,0.2c-3.2,0.4-6.6,1.9-9.2,3.8
	c-2.1,1.5-3.3,4.3-4.9,6.5c-0.8-0.1-1.6-0.4-2.3-0.3C690.7,419.4,688.5,420.1,686.2,420.6z M765.6,275.7c-6.7,0.9-13.4,1.4-20,2.7
	c-5.2,1-10.5,2.4-15.4,4.3c-10,3.8-20,7.8-29.8,12.2c-5.9,2.7-11.3,6.3-17,9.4c-3.7,2-4.7,5.3-2.4,8.8c2.1,3.3,6.3,3.8,10.6,0.8
	c8.9-6.1,18.5-10.7,28.5-14.4c7.2-2.7,14.6-5.1,22-7.3c12.1-3.6,24.4-4.9,36.9-2c5.8,1.3,10.9,3.6,13.7,9.4c1.6,3.4,5.1,4.6,8.1,3.3
	c3.1-1.3,4.4-4.1,3.3-7.9c-1.6-6-6.2-9.4-11.1-12.4C784.7,277.4,775.4,276,765.6,275.7z M625.1,374c2.1-1.5,3.9-2.3,5-3.6
	c1.8-2,3.3-4.4,4.8-6.7c7.3-11.5,17.5-20.5,27.3-29.7c2.7-2.6,3.6-6.3,1.6-9.1c-1.6-2.2-6.9-2.5-9.5-0.4c-2.3,1.9-4.5,3.9-6.7,5.9
	c-9.9,9.2-18.9,19.3-26.4,30.6c-1.8,2.8-3,6-1.3,9.1C620.8,371.8,623,372.6,625.1,374z"/>
<path class="st4" d="M558.5,532.4c40.7,0,81.4,0,122,0c1.7,4.5,4.4,8.2,8.4,11c-1.2,0.2-2.4,0.7-3.6,0.7c-8.3,0.1-16.7,0-25,0
	c-17.7,0-35.4,0-53-0.1c-2.6,0-3.4,0.7-3.3,3.3c0.2,7.2,0.2,14.5,0,21.7c-0.1,2.9,1,3.5,3.6,3.4c4.2-0.2,8.5-0.2,12.7,0
	c1.8,0.1,3.6,1,5.3,1.5c-1-2,1-1.5,2.5-1.6c9.8,0,19.5,0,29.3,0c1,0,2,0.4,2.9,0.7c-2.9,6.4-5.7,12.9-8.7,19.3
	c-1.3,2.9-1.8,5.6,0.4,8.2c-4.2,9.8-6,20.1-5.9,30.8c0,0.7,0.8,1.8,1.4,2.1c8,3.9,16,7.8,24,11.6c-0.8,3.8-1.4,7.7-2.4,11.4
	c-0.7,2.3-0.8,4.4,0.6,6.4c-0.5,1.4-0.9,2.8-1.4,4.2c-0.5,0.3-1.1,0.4-1.5,0.8c-12.3,12.5-15.6,32.2-7.3,47.9
	c8.6,16.4,22.6,24,41,23.5c0,1.1,0.1,2.3,0.1,3.4c-0.3,6.7-0.8,13.4-0.8,20.1c0,6.1,0.4,12.2,0.9,18.3c0.2,2.6-0.8,3.5-3.3,3.3
	c-2.2-0.2-4.4,0.1-6.5-0.1c-7.7-0.8-14.1,1.9-19.7,7c-6.4,0-12.7,0-19.5,0c0-7.7,0.3-15.4-0.1-23.2c-0.4-7-4.3-12.6-9-17.6
	c-7-7.4-13.8-15-20.6-22.6c-4.5-5-6.6-11.1-7.6-17.7c1.5-0.8,3-1.7,4.5-2.5c2.1-1.3,3.1-3.2,2-5.5c-1.2-2.5-3.3-1.3-5.1-0.7
	c0-2.1,0-4.3,0-6.4c5.8-3.2,6.3-4,4.8-8.2c0.7-2.8,1.4-5.6,2-8.5c0.2-1.6,0.5-3.1,0.7-4.7c1.9-4.6-1.6-13.4-6.2-15.9
	c-0.1-1.1,0.1-2.3-0.3-3.3c-0.6-1.3-1.6-2.4-2.4-3.6c-1.1,0.9-2.2,1.8-3.3,2.8c-3.1-0.7-6.2-1.6-9.4-2c-11.2-1.6-21.1-6.2-28-15.1
	c-6.9-8.9-12.8-18.6-19-28c-4.2-6.5-9.3-11.6-17.5-12.2c1.2-10.3,3.1-20.5,6.3-30.3c3.4-10.3,7.8-20.1,13.3-29.5
	C557.5,535.4,557.9,533.8,558.5,532.4z M585.6,532.9c-1.9,1.2-3.6,2-4.8,3.2c-6.3,6.8-10.6,15-14.5,23.4c-1.2,2.5,0.3,6.5,2.7,7.9
	c2.6,1.5,5.9,1.2,7.8-1.1c0.9-1.1,1.2-2.7,1.9-3.9c4-6.5,8.1-12.9,11.8-19.5c1-1.8,1.3-4.6,0.6-6.4
	C590.5,534.9,587.8,534.2,585.6,532.9z"/>
<path class="st5" d="M695.3,419.3c1.6-2.2,2.8-5,4.9-6.5c2.7-1.9,6-3.4,9.2-3.8c5.3-0.6,10.8-0.2,16.2-0.2c15.6,0,31.2,0,46.9,0
	c1.1,0,2.3,0.1,3.4,0.1c52.8,0,105.5,0,158.3-0.1c1.8,0,3.6-0.9,5.3-1.3c1.7,0.4,3.6,1.3,5.4,1.3c63.7,0.1,127.4,0.2,191.1-0.1
	c10.2-0.1,17.6,7.1,17.6,17.9c-0.2,31.8-0.1,63.7-0.1,95.5c-4.1,0-8.3,0-12.4,0c0-30.7,0-61.4,0-92.1c0-7-1.8-8.7-8.7-8.7
	c-138.8,0-277.5,0-416.3,0c-7.3,0-9.1,1.8-9.1,9.2c0,23.9-0.1,47.8-0.1,71.7c-3.9,0-7.8-0.1-11.6-0.1c0-5.8-0.1-11.5-0.1-17.3
	c0-4.3,0-8.7,0-13c0-6.9,0-13.9,0-20.8C695.1,440.4,695.2,429.8,695.3,419.3z"/>
<path class="st1" d="M537.1,596.6c8.3,0.6,13.3,5.7,17.5,12.2c6.2,9.4,12.1,19.2,19,28c6.9,8.9,16.8,13.5,28,15.1
	c3.2,0.4,6.2,1.3,9.4,2c-0.2,2.7-0.5,5.4-0.6,8.2c-0.2,4-0.2,8-0.2,11.9c-2.1-2.9-3.4-5.6-4.9-8.3c-1.1-2-2.8-3.8-5.2-2.3
	c-2.3,1.5-2.2,4.4-0.7,6.1c1.9,2.1,4.5,3.9,7.1,5.1c2.3,1,2.7,2.2,2.4,4.4c-0.8,6.8-1.4,13.6-1.8,20.5c-0.1,1.8,0.4,3.7,0.6,5.6
	c-1-0.3-1.3-0.9-1.7-1.4c-2-2.3-3.7-5.1-6.1-6.9c-2.8-2.1-4.7-0.7-4.7,2.8c-0.1,2.9,1.6,4.5,4,5.3c2.6,0.9,5.4,1.4,8.4,2.1
	c0.3,3.3,0.5,6.6,0.8,10.2c-2.4-2.2-4.1-4.3-6.4-5.5c-1.6-0.8-5.2-1.2-5.7-0.4c-1.3,2-0.8,4.7,1.7,6.3c0.8,0.5,1.6,0.9,2.5,1.1
	c2.7,0.6,5.5,1,8.3,1.6c1.2,4.8,2.2,9.9,3.6,14.8c1.4,4.9,3.2,9.8,4.8,14.6c-1.4,3-2.7,6.1-4.1,9.2c-0.3-0.2-0.7-0.4-0.9-0.8
	c-1.4-1.8-2.9-3.5-4.1-5.5c-8.6-13.7-15.8-28-22-43c-1.7-4-1.3-7.5,0-11.2c0.7-2,1.5-4.1,2.4-6c2.5-5.4,5.1-10.8,7.6-16.2
	c-6.3,6.1-9.9,14-14.2,22.4c-3.7-9.4-6.6-17.9-10.3-26.1c-3.8-8.3-8-16.4-12.5-24.4c-6-10.8-13.6-20.1-15.8-20.7
	c6.2,11.1,12.5,22.5,18.8,33.8c-0.3,0.3-0.5,0.6-0.8,1c-7.5-3.1-15-6.4-23.1-7.3c0.3,0.6,0.6,0.7,1,0.9c6.7,3.1,13.6,6,20.2,9.5
	c2.7,1.4,5.6,3.7,6.9,6.4c3.8,8.2,6.9,16.8,10.2,25.3c3.1,7.7,6.3,15.5,9.4,23.2c1.9,4.7,3.8,9.5,5.8,14.2l0,0
	c-1.2-0.3-2.3-0.6-3.4-1c-2.3-0.8-4.6-1.7-6.9-2.5c-0.5-2.1-1.1-4.2-1.3-6.3c-0.8-6.1-6.8-11.7-13-11.5c-4,0.2-7.9,1.2-11.8,1.6
	c-3.7,0.4-7.4,0.3-11.1,0.5c0.2-6.3,0.4-12.6,0.7-18.9c0.3-8.6-3.5-15.6-8.7-21.8c-5.6-6.8-11.9-13.1-17.5-19.8
	c-4.5-5.3-6.8-11.5-7-18.6c-0.3-9.6,0.7-18.7,5.5-27.2C521.5,601.2,527.5,596.1,537.1,596.6z M606,691.5c0.2-0.3,0.5-0.7,0.7-1
	c-0.5-4.3-3.2-7.5-6.2-10.3c-2.1-2-4.7-0.8-4.7,2.2c0,1.5,0.6,3.7,1.7,4.5C600.1,688.7,603.2,690,606,691.5z M541.5,625.8
	c0.2,0.1,0.4,0.2,0.6,0.3c0.1-0.2,0.3-0.4,0.2-0.6c-0.1-0.1-0.4-0.2-0.5-0.3C541.7,625.4,541.6,625.6,541.5,625.8z"/>
<path class="st2" d="M544.1,715.4c3.7-0.2,7.4-0.1,11.1-0.5c4-0.4,7.9-1.4,11.8-1.6c6.2-0.2,12.2,5.4,13,11.5
	c0.3,2.1,0.9,4.2,1.3,6.3c0,1.1,0,2.3,0.1,3.4c-0.9,8.8,0.8,17,8,22.7c6.2,4.8,13.3,8.4,21,10.5c4.4,2.1,8.7,4.2,13.1,6.3l0,0
	c0.5,0.5,0.9,1,1.4,1.4c1.1,1.4,2.3,2.7,3.4,4.1c1.7,4.4,3.3,8.7,5,13.1c-5.2,0.2-10.5,0.5-15.7,0.7c-1.9,0-3.8-0.4-5.7-0.6
	c-10-2.2-12.3-10.3-13.8-19c-0.3,0.1-0.5,0.3-0.8,0.4c0.2,3.6,0.4,7.1,0.6,11.1c-13.3-7.7-24.5-16.9-34.9-27.3
	c-0.7-0.7-1.4-1.9-1.5-2.9c-0.2-6.3-0.2-12.5-0.2-18.8c0-1,0-2.1,0-3.1c-0.4,0-0.8,0-1.1-0.1c-0.8,6.3-1.6,12.5-2.3,18.8
	c-0.5,0.3-1,0.6-1.5,0.8c-0.8-1.3-1.5-2.7-2.5-3.8c-10.5-11.3-21.9-21.5-35.4-29.2c-3.4-2-7.2-3.3-10.8-5c-0.2-0.2-0.5-0.3-0.7-0.5
	c-0.1,0.1-0.1,0.2-0.2,0.3c0.3,0.1,0.6,0.2,0.9,0.3c0.7,0.6,1.3,1.2,2,1.7c5.1,3.6,10.4,7.1,15.4,10.9c2.6,1.9,5,4.3,7.8,6.8
	c-6.6,0.6-12.2,1.1-17.8,1.7c0,0.4,0.1,0.7,0.1,1.1c4.7,0,9.4-0.2,14.1,0.1c2.9,0.2,6.2,0.3,8.5,1.8c3.4,2.2,6.2,5.4,9.2,8.3
	c6.8,6.7,13.5,13.5,20.3,20.2c2.7,2.7,5.7,5.1,8.8,7.8c-7,0.7-13.4,1.3-19.8,1.9c5.3,0.7,10.6,0.5,15.8,0.7
	c4.6,0.2,9.1,0.8,13.1,4.1c5.2,4.2,10.9,7.8,16.4,11.7c-2.2,0.5-4.3,1.2-6.5,1.3c-5.7,0.4-11.4,0.5-17.1,0.8
	c-5.5,0.2-10.9,0.4-16.4,0.7c-9.3-3.6-17.4-8.8-23-17.2c-1.9-2.9-3.5-6.2-4.5-9.6c-3-10.5-9.9-16.9-19.8-20.9
	c-6.3-2.6-12.7-5.4-18.3-9.3c-8.7-6.2-12.8-24.1-9-34c3.6-9.3,14.2-12.7,23.1-7c6.7,4.3,13,9.1,20,12.8
	C534.1,713.2,539.3,713.9,544.1,715.4z"/>
<path class="st2" d="M1296.3,795.4c-6-0.1-12.1-0.1-18.1-0.2c-2.5,0-5-0.2-7.5-0.6c-1.4-0.2-2.7-0.9-4.1-1.3
	c7.2-5.9,14.3-11.8,21.5-17.6c2.6-2.2,5.1-5.2,8.1-6.2c5.7-1.7,11.8-2.2,17.8-3.1c0.9-0.1,1.8-0.2,2.6-0.3c0-0.2-0.1-0.5-0.1-0.7
	c-5.6,0-11.2,0-17.3,0c0.6-1,1.1-1.8,1.7-2.6c7.3-8.9,14.9-17.6,21.9-26.8c4.8-6.3,9.7-11.8,18.3-12.3c3.6-0.2,7.1-0.7,10.6-1.1
	c0-0.2,0-0.5,0-0.7c-5.4,0-10.8,0-16.5,0c0.3-0.7,0.4-1.3,0.8-1.6c3.3-3.3,6.8-6.5,10.1-9.9c2.1-2.2,4.1-4.5,6.1-6.8
	c0.5-0.2,0.9-0.5,1.4-0.7c0.5-0.5,0.9-0.9,1.4-1.4l0.3-0.2l-0.1-0.1l-0.2,0.3c-0.5,0.5-0.9,0.9-1.4,1.4c-0.5,0.2-0.9,0.5-1.4,0.7
	c-1.1,0.5-2.3,0.9-3.3,1.7c-12.2,8.6-21.8,19.8-30.8,31.6c-1.4,1.8-2.8,3.6-4.5,5.9c-1.8-6.9-3.3-12.9-4.9-18.9
	c-0.3,0.1-0.6,0.2-1,0.2c0,0.3-0.1,0.7,0,0.9c2.3,6.6,2.6,13.5,2.4,20.4c0,0.9-0.1,2-0.6,2.6c-8,8.5-16,16.9-24.2,25.3
	c-1.7,1.7-3.8,3.1-6.3,5.1c0-4.3,0-7.7,0-11.1c-0.8,1.3-1,2.6-1.3,3.9c-0.9,3.8-0.2,8.5-3.8,11c-5.4,3.8-11.2,7-16.9,10.5
	c-2.3,0-4.6,0-7,0c2.4-2.4,5-4.7,7.3-7.2c6.2-7,11.1-14.6,11.1-24.4c2.8-1.4,5.7-2.4,8.2-4.1c5.8-4,11.5-8.3,12.5-15.9
	c0.6-4.3,0.2-8.8,0.2-13.2c0-0.7,0-1.3,0-2c0-1.8,0-3.7,0-5.5c0.2-9,5.1-13.9,14.1-13.9c6.1,0,12.2,0,18.3,0
	c2.8-0.9,5.5-1.8,8.3-2.7c0.2-0.2,0.5-0.5,0.7-0.7l0,0c0.5-0.7,0.9-1.4,1.4-2.1c0.2,0,0.5,0,0.7,0l0,0c3.8-2.7,7.6-5.4,11.3-8.2
	c2.5-2,4.7-4.3,7.2-6.4c10.7-8.6,23.2-3.8,25.4,10.3c1.5,9.7,0,19.4-7.3,26.6c-4,4-9.7,6.4-14.5,9.8c-4.2,3-8.7,5.8-12,9.6
	c-2.6,3.1-4.4,7.5-5,11.5c-2.2,13.3-9.9,22.1-21,28.5c-4.9,2.8-9.9,5.3-14.7,8.1C1300.1,792,1298.3,793.8,1296.3,795.4z"/>
<path class="st6" d="M1301.9,511c-20.6,0-41.2-0.1-61.7,0.1c-3.4,0-4.6-0.8-4.6-4.4c0.2-18.3,0.2-36.6,0-54.8c0-3.6,1.2-4.5,4.6-4.4
	c9.5,0.2,19.1,0,28.6,0c5.1,0,10.1,0,15.2,0c7.1,0,14.3,0,21.4,0c10.7,0,21.3,0.1,32,0c1.9,0,3.2,0,3.2,2.6
	c-0.1,19.7-0.1,39.4-0.1,59.2c0,0.3-0.1,0.7-0.3,1.4c-1.5,0.1-3,0.2-4.6,0.3c-6.7,0-13.3,0-20,0C1311.1,511,1306.5,511,1301.9,511z
	 M1317.1,484.9c-4.7-7.4-9-13.9-12.9-20.6c-3.1-5.3-3.2-5.7-9.1-4.9c-0.8,0.1-2.1,1.4-2.1,2.2c-0.1,11.8-0.1,23.7,0,35.5
	c0,0.7,0.5,1.9,1.1,2.1c3.9,1.6,6.4-0.2,6.4-4.4c0-4.1,0-8.3,0-12.4c0-2.7,0-5.3,0-8c4.4,5.8,7.8,11.9,11.6,17.6
	c2.4,3.5,3.6,8.6,9.9,7.5c2.4-0.4,3.3-0.8,3.3-3.4c-0.1-11.1-0.2-22.3,0-33.4c0.1-3.7-1.9-3.3-4.3-3.4c-2.7-0.1-4.2,0.2-4.1,3.6
	C1317.3,469.9,1317.1,477,1317.1,484.9z M1259.5,477.9c0.4-1.8,0.9-4.5,1.8-7c2.2-5.9,11.5-7.5,14.9-2.2c2.2,3.4,4.4,3.1,7.5,2.3
	c2.1-0.6,2.5-1.2,1.6-3.3c-4.5-11.3-20.5-11.5-28-4.3c-5.9,5.7-6.2,12.8-5.8,20.1c0.5,7.6,6.9,15.2,14.5,16.3
	c6.7,1,15.5-0.3,18.8-9.1c0.6-1.5,2.5-3.2-0.5-4.5c-4.5-1.9-5.8-1.8-7.1,1.2c-2.5,5.7-7.7,7.3-12.9,3.9
	C1259.7,488.2,1260.3,483.4,1259.5,477.9z"/>
<path class="st6" d="M1172.8,334.3c11.5,0,23,0,34.6-0.1c10.2,0,20.4,0,31.1,0c0,8.9,0,17.2,0,25.6c0,9,0,18,0,27
	c0,3.3,0,6.7,0,10.4c-1.7,0-2.9,0-4.1,0c-9,0-17.9,0-26.9,0c-20,0-39.9,0-59.9,0c-1.8,0-3-0.2-3-2.5c0.1-19.7,0.1-39.3,0.1-59
	c0-0.2,0.1-0.4,0.3-1c0.9-0.1,2-0.2,3.1-0.3C1156.3,334.3,1164.5,334.3,1172.8,334.3z M1210.9,380.8c-2.7-2.7-5.3-5.3-8-7.7
	c-1.6-1.5-2.1-2.9-1.1-5.1c3.4-7.9-0.1-17.2-7.6-20.1s-17.1-1.1-20.7,7.9c-2.3,5.7-1.8,11.1,1.9,15.8c4,5,9.5,7.5,15.8,5.3
	c4.3-1.5,6.9-0.6,9.4,2.7c0.7,0.9,1.6,1.6,2.4,2.4C1206.6,385.7,1207.4,385.6,1210.9,380.8z"/>
<path class="st6" d="M1266.7,386.8c0-5.6,0-11.3,0-16.9c0-6,2.2-8.5,8.2-8.6c14.7-0.1,29.4-0.1,44.1,0c4.8,0,7.2,4.7,7.1,10.6
	c-0.4,13-0.4,26.1,0,39.2c0.1,5.7-2.8,9.5-9,9.5c-9,0.1-17.9,0-26.9,0c-5.1,0-10.3,0.1-15.4,0c-5.3-0.1-8-2.8-8-8.1
	C1266.7,403.9,1266.7,395.3,1266.7,386.8z M1303.3,378.5c-0.2-0.4-0.5-0.8-0.7-1.1c-1.6,0.6-4.3,0.7-4.7,1.8c-3,7.4-5.5,15-8.2,22.5
	c-0.6,1.6,0.2,2.7,1.8,2.2c1.5-0.5,3.4-1.3,3.9-2.5c2.3-5.5,4.2-11.1,6.1-16.7C1302.2,382.6,1302.7,380.6,1303.3,378.5z M1310,391.1
	c0,0.3-0.1,0.6-0.1,0.8c-1.7,0.6-3.6,0.9-5.1,1.9c-0.7,0.5-1.4,2.1-1.1,3c0.2,0.7,2,1.5,2.7,1.3c3.4-1.1,6.7-2.4,9.8-4
	c0.8-0.4,1.3-2.2,1.4-3.4c0-0.8-0.8-2.2-1.6-2.5c-3-1.3-6.2-2.3-9.4-3.2c-1-0.3-2.2,0.5-3.3,0.9c0.7,1.1,1,2.6,2,3.3
	C1306.7,390.3,1308.4,390.6,1310,391.1z M1282.2,391.3c7.1-3.1,7.1-3.1,6-7.1c-3.5,1.2-6.9,2.5-10.4,3.5c-2.1,0.6-2.9,1.7-2.9,3.9
	c-0.1,2.4,1.3,2.8,3,3.4c2.6,0.9,5.1,2,7.7,2.9c0.9,0.3,1.8,0.4,2.7,0.5C1290.5,392.1,1284.4,393.7,1282.2,391.3z"/>
<path class="st1" d="M594.4,376.4c29.1,0,58.1,0,87.2,0c4.6,0,4.6,0,4.6,4.5c0,4.2,0,8.5-0.1,12.7c-53.6,0-107.2,0-160.8,0
	c-1.8,0-3.7,0-5.5,0c0-4.2,0.2-8.5,0-12.7c-0.2-3.4,0.9-4.6,4.4-4.5c22.1,0.1,44.3,0.1,66.4,0.1
	C591.9,376.4,593.2,376.4,594.4,376.4z M660.1,381.6c-0.5,0-0.9,0-1.4,0c-0.7,1.3-2.1,2.7-2,3.9c0.1,1.1,1.8,2.1,2.8,3.1
	c1.1-1.1,2.9-2.1,3-3.2C662.5,384.2,660.9,382.9,660.1,381.6z M666.9,385.8c2.1,1.4,3.4,2.9,4.4,2.8c1.1-0.2,2.1-1.9,3.1-2.9
	c-1.1-1-2.1-2.6-3.2-2.8S668.9,384.3,666.9,385.8z M646.6,389.6c1.7-2,3.2-3,3.4-4.2c0.3-1.9-1.1-3.4-3-3.1
	c-1.1,0.2-2.6,1.6-2.7,2.7C644.2,386.1,645.4,387.4,646.6,389.6z"/>
<path class="st6" d="M897.4,294.9c6.3,0,12.6,0.2,19,0c2.9-0.1,4,0.6,3.9,3.8c-0.2,11.6-0.1,23.2-0.1,34.8c0,0.8,0,1.6,0,2.4
	c0.4,5.3,0.4,5.3-4.9,5.3c-16.4,0-32.9,0-49.3,0c-2.3,0-4.6,0.8-7,1c-0.7,0.1-1.5-0.3-2.3-0.3c-3.9-0.1-7.9-0.1-11.8-0.1
	c-0.5-1-1.4-2-1.4-3c-0.1-13.5,0-27.1-0.1-40.6c0-2.9,1.1-3.4,3.6-3.3C863.9,295,880.6,295,897.4,294.9z M896.2,299.8
	c-0.1,0.2-0.1,0.5-0.2,0.7c-1.1,0-2.3,0-3.4,0c-4.5,0.1-8.4,3.5-9.4,8.1c-0.8,3.8,1.3,8,5.4,9.7c3.6,1.5,7.4,2.4,11,3.9
	c1.4,0.6,3.5,2.5,3.3,3.1c-0.7,1.7-2,3.7-3.6,4.5c-3.4,1.6-7.7-0.3-9.6-3.7c-1.1-1.9-5.4-3.3-6.7-1.8c-0.8,0.9-0.1,3.2,0,4.8
	c0,0.5,0.6,1,0.9,1.5c3,5.2,11.7,6.6,17,5.4s8.8-4.9,9.1-9.1c0.5-6.2-1.5-9.2-7.8-11.6c-3.3-1.2-6.8-1.9-10.1-3.2
	c-2.5-0.9-2.8-3.3-0.9-4.8c2.8-2.2,8.2-1.7,9.8,1.4c1.8,3.5,4.4,1.9,6.8,2c0.3,0,1.2-1.4,1.1-1.7c-1.2-2.2-2.1-5-4.1-6.3
	C902.3,301,899,300.7,896.2,299.8z M854.3,324.9c-1.3,6.9,4.1,11,8.8,11.5c7.4,0.7,12.8-3.4,12.9-10c0.1-7.5-0.1-15,0.1-22.4
	c0.1-2.8-0.8-3.5-3.5-3.5s-3.6,0.7-3.5,3.5c0.2,6.8,0.2,13.6,0,20.3c-0.1,2.5-0.2,5.7-3.9,5.8c-3.3,0-4.4-2.3-4.5-5.3
	c0-0.2-0.3-0.4-0.5-0.7C858.3,324.3,856.4,324.6,854.3,324.9z"/>
<path class="st4" d="M1266.7,386.8c0,8.6,0,17.2,0,25.7c0,5.2,2.7,8,8,8.1c5.1,0.1,10.3,0,15.4,0c4.7,8,9.5,16.1,14.2,24.1
	c0.5,0.8,0.7,1.9,1.1,2.8c-7.1,0-14.3,0-21.4,0c-1.4-2.4-2.7-5-4.2-7.3c-3.9-6.3-7.6-12.8-12-18.7c-7.4-10-15.2-19.7-23-29.3
	c-1.7-2.1-4.2-3.6-6.3-5.4c0-9,0-18,0-27c1.2,0.7,2.7,1.2,3.7,2.1c7.3,7.7,14.6,15.5,21.9,23.1
	C1264.7,385.8,1265.8,386.2,1266.7,386.8z"/>
<path class="st7" d="M1332.2,700.8c-0.5,0.7-0.9,1.4-1.4,2.1c0.2-1.2,0.2-2.5,0.6-3.7c5.5-16.3,7.6-33,7-50.1
	c-0.4-3.7-0.8-7.5-1.2-10.7c-3.9-0.9-7.4-1.4-10.6-2.6c-2.1-0.8-3.6-2.9-2.1-5.3c1.4-2.3,3.7-1.7,5.4-0.4c2.4,1.7,4.5,3.7,7.1,5.9
	c-0.7-3.5-1.6-6.6-1.8-9.8c-0.2-3.1-1.7-3.5-4.3-3.4c-2.4,0.1-4.9,0.1-7.1-0.5c-2.8-0.7-4.5-4.1-3-5.5c1.1-1.1,3.8-1.3,5.4-0.8
	c2.3,0.7,4.4,2.3,6.6,3.6c0.1,0.3,0.2,0.6,0.4,0.9c0.1-0.1,0.3-0.1,0.4-0.2c-0.2-0.3-0.4-0.6-0.5-0.9c-0.4-1.8-0.5-3.6-1.1-5.3
	c-1.8-5.5-1.8-5.5-7.6-5c-1.1,0.1-2.4,0.4-3.4,0c-2-0.8-3.9-1.9-5.6-3.2c-0.3-0.2,0.2-2.5,0.6-2.6c1.9-0.4,3.9-0.7,5.8-0.4
	c2,0.4,3.9,1.5,5.9,2.2c0.3-0.3,0.6-0.5,0.9-0.8c-1.9-3.7-3.9-7.4-5.8-11.1c-1.9-2.9-4.2-5.6-5.6-8.7c-0.5-1.1,1-3.1,1.6-4.7
	c1.3,0.7,3.3,1.1,3.8,2.2c1.2,3.1,2.4,6.5,2.6,9.8c0.2,3.1,1.2,4.6,4,5.3c0.9-2.3,1.5-4.7,2.7-6.6c0.6-1,2.5-2,3.5-1.8
	s2.4,2.1,2.3,3.1c-0.2,2-1.1,4-2,5.9c-0.6,1.3-1.5,2.5-2.3,3.7c-4.1,0.6-4.2,1-2.9,4.7c1.9,5.5,4,10.9,5.4,16.5
	c1.7,6.8,2.6,13.7,4.1,21.5c1.4-2.8,2.4-5,3.5-7.2c0.7-0.6,1.3-1.5,2-1.8c1.4-0.6,3.5-1.6,4.4-1c2.1,1.3,2.6,4,0.7,5.6
	c-2.3,2.1-5.2,3.4-8,5c-0.6,0.4-1.5,0.3-2.5,0.5c-0.1,0.7-0.3,1.4-0.3,2c0.7,17.1-1.1,33.8-6.2,50.1c-0.2,1.1-0.5,2.3-0.7,3.4l0,0
	C1332.7,700.8,1332.5,700.8,1332.2,700.8z"/>
<path class="st1" d="M1332.8,619.5c-2.2-1.2-4.2-2.9-6.6-3.6c-1.6-0.5-4.3-0.2-5.4,0.8c-1.5,1.4,0.2,4.7,3,5.5
	c2.3,0.6,4.8,0.6,7.1,0.5c2.5-0.1,4.1,0.3,4.3,3.4c0.2,3.1,1.1,6.2,1.8,9.8c-2.6-2.2-4.8-4.2-7.1-5.9c-1.8-1.3-4-1.9-5.4,0.4
	c-1.5,2.4,0,4.5,2.1,5.3c3.3,1.2,6.8,1.7,10.6,2.6c0.4,3.2,0.8,7,1.2,10.7c-0.7,0.6-1.6,1.1-2.2,1.8c-1.5,1.9-2.9,3.8-4.3,5.8
	c-3.4,5.1-7.4,10-10,15.4c-3.9,7.9-3.7,16.3-1.5,24.8c0.8,3.1,1,6.3,1.5,9.4c-6.1,0-12.2,0-18.3,0c-9,0-14,4.9-14.1,13.9
	c0,1.8,0,3.7,0,5.5c-3.3,1.4-6.7,2.8-10.3,4.3c1.2-3.8,2.4-7.5,3.5-11.3c2.7-9.9,5.4-19.8,8-29.8c1.3-5,2.3-10,3.9-14.9
	c1.2-3.7,2.2-8.3,4.9-10.6c6.1-5.1,13.2-9,19.9-13.4c0.6-0.4,1.2-0.7,1.8-1c-0.2-0.4-0.4-0.8-0.5-1.1c-6.9,3.3-13.8,6.6-20.7,9.9
	c-0.2-0.2-0.5-0.3-0.7-0.5c4.9-12.1,9.8-24.2,14.8-36.2c-16.2,21.7-23,47-29.1,73.7c-2.6-3.9-4.5-7.1-6.8-10s-5-5.5-7.5-8.3
	c2.6,5.7,5.3,11,8.6,16c3.5,5.3,4.3,10.6,2.1,16.5c-2.6,7.2-4.7,14.6-7.6,21.7c-2.9,7.4-6.4,14.6-9.7,21.9c-3,0-5.9,0-8.9,0
	c-0.5-6.3-1.7-12.3-5.9-17.4c-0.6-0.7-0.7-1.8-1.1-2.7c1.4-3.2,2.8-6.4,4.3-9.6c4.2-8.5,3.6-16.9-0.3-25.2c-3-6.4-6.6-12.5-9-19.1
	c-2.8-7.7-1.4-15.3,5.8-20.1c4.1-2.8,9-4.4,13.7-6c8.3-2.7,15.7-7.1,20.7-14c4.6-6.3,7.9-13.6,11.6-20.6c2.3-4.4,4.2-9.1,6.5-13.5
	c4.3-8.1,11-11.9,20.2-10.9c0.4,0,0.8-0.4,1.1-0.6c1.9,3.7,3.9,7.4,5.8,11.1c-0.3,0.3-0.6,0.5-0.9,0.8c-1.9-0.8-3.8-1.9-5.9-2.2
	c-1.9-0.3-3.9,0-5.8,0.4c-0.4,0.1-0.9,2.4-0.6,2.6c1.7,1.3,3.6,2.4,5.6,3.2c1,0.4,2.3,0.1,3.4,0c5.8-0.5,5.8-0.5,7.6,5
	c0.5,1.7,0.7,3.5,1.1,5.3L1332.8,619.5z"/>
<path class="st6" d="M1008.6,313.6c16.3,0,32.6,0.1,49-0.1c2.6,0,3.6,0.6,3.5,3.4c-0.1,18.6-0.1,37.2,0,55.9c0,2.9-0.9,3.6-3.7,3.6
	c-28.9-0.1-57.7-0.1-86.6,0c-1.2,0-3.1-0.9-3.4,1.5c0,0.2-2.2,0.5-2.4,0.2c-1.2-2.4-3.3-1.9-5.1-1.7c-2.9,0.3-3.8-1.3-3.8-3.6
	c0-3,0.6-5.9,0.6-8.9c-0.1-11.5-0.3-22.9-0.5-34.4c-0.1-4.7-0.1-9.3-0.2-14c0-2.4,1.7-2,3.1-2c10.2,0,20.5,0,30.7,0
	C996.1,313.6,1002.4,313.6,1008.6,313.6z M1001.6,361.7c0-4,0.1-7.8,0-11.6c-0.1-2.3,0.7-3.5,3.1-3.3c2.3,0.1,4.6,0.1,6.9,0
	c2.5-0.1,3.2,1,3.1,3.3c-0.1,3.1,0.1,6.2-0.1,9.3c-0.2,3.1,1.9,2.5,3.7,2.5c1.8,0.1,3.3,0.1,3.3-2.6c-0.1-9.5-0.1-19.1,0-28.6
	c0-3-1.7-2.6-3.6-2.7c-2.1-0.1-3.6,0.1-3.4,2.8c0.2,2.6,0,5.3,0.1,7.9c0.1,1.8-0.6,2.5-2.4,2.4c-2.8-0.1-5.5-0.1-8.3,0
	c-2.1,0.1-2.5-0.9-2.5-2.7c0.1-2.5-0.1-5.1,0.1-7.6c0.2-2.7-1.3-2.9-3.4-2.9c-2.2,0-3.7,0.1-3.6,3c0.2,8.7,0.1,17.5,0.1,26.2
	c0,4.8,0,4.8,4.6,4.6C999.9,361.9,1000.5,361.8,1001.6,361.7z M963,344.9c0,4.9,0.1,9.9,0,14.8c0,2.6,1.7,2.3,3.3,2.2
	c1.5-0.1,3.7,0.8,3.7-2.1c0-2.6,0.1-5.3,0-7.9c-0.1-2.2,0.9-3.1,3.1-3c2.3,0.1,4.6,0.1,6.9,0c5.7-0.4,9.4-4.8,9.4-10.7
	c0-4.7-4.6-10.7-10-10.1c-4.2,0.5-8.5,0.2-12.7,0c-2.6-0.1-3.7,0.6-3.6,3.4C963.2,335.9,963,340.4,963,344.9z M1038.5,328.1
	c-2.4,0-4.8,0.1-7.2,0c-2.1-0.1-2.8,0.7-2.8,2.8c0.1,9.5,0.1,19,0,28.6c0,1.6,0.4,2.5,2.3,2.6c4.4,0.2,4.6,0.1,4.7-4.3
	c0-8.8,0-8.8,8.6-8.8c0.1,0,0.2,0,0.3,0c6.1-0.1,10.4-4.4,10.4-10.4c0-6.1-4.2-10.3-10.4-10.3
	C1042.4,328.1,1040.5,328.1,1038.5,328.1z"/>
<path class="st8" d="M897.1,356.4c11.2,0,22.3,0,33.5,0c9,0,16.1,6.8,16.6,15c0.7,10.9-7.2,17.9-16.1,18
	c-22.8,0.2-45.5,0.3-68.3-0.1c-5.4-0.1-9.2,3-13.9,4.1c-1.8,0.4-3.6,0.2-5.5,0.3c0.3-1.9,0-4.1,0.9-5.7c2.2-4.1,3.8-7.7,2.4-12.9
	c-2.4-8.7,6.2-18.6,15.6-18.6C873.9,356.4,885.5,356.4,897.1,356.4z M908.2,367.4c-3.5,0-6,2.4-5.9,5.7c0.1,3.1,3,6,6,5.9
	c3.1-0.1,5.8-3,5.7-6.2C913.9,369.7,911.5,367.4,908.2,367.4z M871.8,372.7c0-3-2.6-5.4-5.9-5.3c-3.4,0-5.7,2.3-5.8,5.5
	c0,3.1,2.9,6.2,5.7,6.2C869.1,379,871.8,376.1,871.8,372.7z M892.6,373c0-3.6-1.9-5.6-5.4-5.7c-3.2-0.1-6.1,2.6-6.2,5.6
	c0,2.9,3,6.1,5.9,6.1C890.2,379.1,892.6,376.5,892.6,373z M923.6,373.2c0,2.9,2.7,5.7,5.7,5.8c2.6,0.1,5.9-3.1,5.9-5.7
	c0.1-3.4-2.4-5.8-5.9-5.9C925.9,367.4,923.6,369.7,923.6,373.2z"/>
<path class="st8" d="M1141,522c4.1,0,8.3,0,12.4,0c9.8,0,19.5,0,29.3,0c9.1,0,15.2,4.8,17.1,13.8c1.9,8.9-4.5,16.8-11.9,18.5
	c-2.3,0.5-4.8,0.7-7.1,0.7c-9.3,0.1-18.6,0.1-27.9,0.1c-3.9,0-7.9,0-11.8,0c-5,0-10.1,0-15.1,0c-1.9,0-3.7,0-5.6,0
	c-1.4,0-2.7,0-4.1,0c-0.7,0-1.4,0-2.1,0c-0.9,0-1.8-0.4-2.6-0.1c-3.8,1.5-7.5,3.2-11.2,4.9c-1.3,0-2.7-0.1-4-0.1
	c-1.8-3.1,0.1-5.5,1.6-7.8c2.3-3.4,3.6-6.7,1.6-10.6c0-1.9,0-3.7,0-5.6c0.1-0.9,0.2-1.8,0.3-2.7c2.3-4.8,5.9-8.4,10.9-10.4
	c3.2-0.3,6.4-0.5,9.6-0.8c1.9,0,3.7,0,5.6,0C1130.9,522.1,1136,522,1141,522z M1118.5,533.1c-3.3,0-5.7,2.4-5.7,5.6
	c0,3.3,3,6.2,6.2,6.1c2.7-0.1,5.5-3.1,5.5-6C1124.4,535.3,1122.1,533,1118.5,533.1z M1188,538.8c0.1-3.4-2.3-5.7-5.9-5.7
	c-3.3,0-5.7,2.2-5.8,5.4c-0.1,3.3,2.7,6.2,6.1,6.2C1185.1,544.7,1187.9,541.7,1188,538.8z M1161,533c-3.5,0-6.1,2.5-6.1,5.7
	c0,3,3.1,6.1,6,6c3-0.1,5.7-3,5.7-6.1C1166.6,535.2,1164.4,533,1161,533z M1139.7,533.1c-3.4,0-5.7,2.5-5.6,6
	c0.1,3.1,2.7,5.6,5.8,5.7c3,0.1,5.9-2.9,5.9-6C1145.8,535.4,1143.2,533,1139.7,533.1z"/>
<path class="st9" d="M1235.2,679.1c1.1,4,2.3,8,3.4,12c-1.2,5.1-2.5,10.2-3.7,15.2c-1,1.3-1.9,2.7-2.9,4c-3.6,2.8-7.1,5.7-10.7,8.5
	c0.6-2.9,1.4-5.8,1.6-8.8c0.7-8.4,1.4-16.8,1.6-25.2c0.1-3.7-1.5-7-5.9-7.7c-3.4-1.5-6.8-2.9-10.1-4.4c-0.9,1.6-1.5,2.7-2.1,3.8
	c1.2-2.3,0.9-3.9-1.8-5c-1.1-0.5-2-2-2.4-3.2c-0.5-1.7-0.5-3.6-0.8-5.3c0-1.6-0.1-3.1-0.1-4.7c0.5-2.8,1-5.6,1.3-8.5
	c0.1-0.7-0.4-2-1-2.2c-2.6-0.9-5.3-1.6-8.7-2.5c1.6,2.3,2.6,3.9,3.7,5.5c-0.2,0.1-0.3,0.2-0.5,0.4c-1.8-1.7-3.7-3.3-5.4-5
	c-0.8,0.8-1.5,1.4-2.2,2c-0.3-0.1-0.7-0.3-1-0.4c0.3-1.5,0.6-3,0.8-3.9c-1.7-4.8-3.3-9.4-4.9-13.9c-0.4-0.1-0.7-0.2-1.1-0.3
	c-1.8,3-3.6,5.9-5.5,9c1.8,0.9,2.7,1.3,4.3,2.1c-2.1,0.7-3.4,1.1-4.8,1.6c2,3,1.1,3.9-2.8,3.1c1,5.2,1.8,9.9,2.8,14.5
	c0.7,3,2.7,4.7,5.9,4.6c0,0.7,0.1,1.4,0.1,2.1c-1,1.8-2,3.6-2.9,5.3c-4.6,1.6-9.2,3.3-13.7,4.9c-0.4,0-0.7,0-1.1,0
	c-1.3-2.8-2.5-5.5-3.8-8.3c-1.1-5.8-0.5-11.3,3.2-16.3c0.5-0.7,0.6-1.6,0.7-2.5c0.3-3.2,0.5-6.3,0.8-9.5c1.5-2.9,3.1-5.7,4.6-8.6
	c3.1-2.8,6.4-5.5,9.3-8.5c4-4,8.7-5,13.9-4c7.6,1.4,13.7,5.5,18.6,11.5c1.6,3.1,4,5.9,4.2,9.6c0.5,2.1-1.4,4.8,1.7,6.4
	c9.8,5.4,13.5,14,12.6,24.8c-0.2,2.3,0.4,3.7,2.2,4.8C1233.6,677.2,1234.4,678.2,1235.2,679.1z"/>
<path class="st6" d="M1125.2,376.2c0,6.2,0,12.4,0,18.6c0,4.4-2.3,7-6.7,7.1c-12.3,0.1-24.6,0.4-36.9-0.1c-6.8-0.2-7.7-2.6-7.6-7.7
	c0.1-6.1-0.5-12.1-0.5-18.2c0-7,0.3-14.1,0.7-21.1c0.2-3,2.3-4.6,5.4-4.6c10.1,0,20.2,0,30.4,0c1,0,2.4,0.3,3-0.3
	c2.3-2.3,3.9-0.9,6.4-0.1c4.9,1.7,5.9,4.7,5.8,9.1C1125.1,364.7,1125.2,370.5,1125.2,376.2z M1084.4,377.5c0.1,1.3-0.1,2.6,0.3,3.8
	c2,6.4,6.2,10.7,13.1,11.5c6.3,0.7,11.2-2.1,14.8-7.4c3.8-5.5,2.7-11-0.1-16.2c-1.2-2.2-4-3.6-6.2-5.1c-0.5-0.3-2.2,0.2-2.6,0.8
	c-0.3,0.5,0.2,1.9,0.7,2.6c1,1.3,2.3,2.3,3.4,3.4c3,3.1,3.3,8.3,0.7,12.1c-2.8,4.2-7.8,6-11.9,4.6c-4.7-1.6-7.2-4.9-7.6-9.6
	c-0.3-3.9,1.4-7.2,4.9-9.6c0.9-0.6,0.9-2.4,1.3-3.7c-1.4,0-3-0.6-4,0.1C1086.5,367.8,1084.3,372.1,1084.4,377.5z M1102.5,372.8
	c-0.3-3.6-0.3-6.9-0.8-10.2c-0.2-1.2-1.2-2.3-1.9-3.4c-1,1.2-2.6,2.3-2.7,3.5c-0.4,3.7-0.1,7.6-0.1,11.3c0,0.8-0.2,1.7,0.1,2.4
	c0.5,1.2,1.4,2.2,2.1,3.3c1-0.9,2.4-1.7,2.9-2.9C1102.6,375.6,1102.4,374,1102.5,372.8z"/>
<path class="st8" d="M1168.6,612.6c0.4,0.9,0.8,1.8,1.3,2.8c-3-0.8-5-3.4-3.7-5.6c5.5-9.5,3.6-19.9,3.9-30c0.2-7.1,1-8,8.3-8
	c18.4,0,36.8,0,55.2,0c4.9,0,6.7,1.6,6.9,6.6c0.2,7.1,0.2,14.3,0,21.4c-0.1,4.8-2.1,6.5-7,6.5c-17.1,0-34.3,0-51.4,0
	c-2.4,0-4.3,0.4-6.2,2.1C1173.8,610,1171.2,611.1,1168.6,612.6z M1224.6,582c-2.2-2-4.4-3.5-7.2-1.8c-2.8,1.7-4.1,4.3-3.8,7.6
	c0.4,4.2,6.3,10.2,10.5,10.8c0.5,0.1,1.2,0.1,1.6-0.2c2.8-2,5.9-3.7,8.1-6.2c2.9-3.3,2.3-8.2-0.5-11
	C1230.9,578.8,1228.6,579,1224.6,582z M1198.3,589.3c0,4.4,2.6,7.3,6.5,7.3c3.5,0,5.9-3,5.9-7.4c0-4.3-2.3-7.1-6.2-7.1
	C1200.5,582,1198.3,584.5,1198.3,589.3z M1197,589.1c0-4.2-2.6-7.3-6.1-7.4c-3.2-0.1-6.3,3.5-6.3,7.3c0,4.5,2.5,7.6,6.2,7.6
	C1194.4,596.6,1197,593.6,1197,589.1z M1182.5,589.5c0-1,0-2.1,0-3.1c0-4.3-1.1-5.2-5.3-4.2c-0.5,0.1-1.3,0.6-1.4,1.1
	s0.2,1.7,0.6,1.8c2.8,0.8,1.9,3,2,4.8c0.1,1.5-0.3,3,0.1,4.4c0.2,0.9,1.4,1.5,2.2,2.3c0.6-0.7,1.6-1.4,1.7-2.2
	C1182.7,592.7,1182.5,591.1,1182.5,589.5z"/>
<path class="st2" d="M1141,555.2c3.9,0,7.9,0,11.8,0c0,16.5,0,33,0,49.6c0,6.5,0,13,0,19.5c0,2,0.4,4.1,0.6,6.1c-4.1,0-8.2,0-12.4,0
	C1141,605.3,1141,580.3,1141,555.2z"/>
<path class="st2" d="M1234.9,706.3c1.2-5.1,2.5-10.2,3.7-15.2c3.3,2.2,4.5,5.8,4.5,9.4c0,5.1-0.6,10.2-1.2,15.3
	c-0.6,4.8,0.3,9.4,2.3,13.7c0.6,1.3,2.5,2.1,3.8,3.1c0.3,0.9,0.5,2,1.1,2.7c4.2,5.1,5.3,11.1,5.9,17.4c-0.6,0.4-1.2,0.8-1.8,1.1
	c-4.4,2.4-8.9,4.8-13.3,7.2c1-2.5,2-4.9,2.9-7.4c-0.2-0.1-0.4-0.2-0.6-0.4c-1.9,2.7-3.9,5.3-6.2,8.6c-1.1-6-2.2-11.4-3.2-16.8
	c2.1-1.2,2.9-2.9,2.9-5.3c-0.1-10.1,0-20.1-0.1-30.2C1235.6,708.5,1235.1,707.4,1234.9,706.3z M1244.3,751.7
	c-0.2-0.1-0.4-0.3-0.6-0.2c-0.1,0.1-0.2,0.3-0.3,0.5c0.2,0.1,0.4,0.3,0.6,0.2C1244.2,752.2,1244.2,751.9,1244.3,751.7z"/>
<path class="st10" d="M1141.1,630.4c4.1,0,8.2,0,12.4,0c4.5,0,8.9-0.1,13.4,0.1c1.1,0,2.2,0.6,3.4,1c-1.5,2.9-3.1,5.7-4.6,8.6
	c-13.2,0-26.5-0.1-39.7-0.1c0-3.2,0-6.3,0-9.5C1130.9,630.5,1136,630.5,1141.1,630.4z"/>
<path class="st8" d="M1216.3,640.1c-0.2-3.7-2.6-6.5-4.2-9.6c5.8,0,11.7,0,17.5,0c4.8,0,6,1.2,6,5.8c0,12.9,0,25.9,0,38.8
	c0,1.4-0.3,2.7-0.4,4.1c-0.8-1-1.6-2-2.3-3c0-10.9,0-21.8,0.1-32.7c0-2.5-1-3.5-3.5-3.4C1225.1,640.1,1220.7,640.1,1216.3,640.1z
	 M1221.9,632.2c-1,1.5-2.1,2.5-2,3.2c0.1,0.8,1.3,1.6,2.2,1.9c0.4,0.1,1.7-1.2,1.7-1.8C1223.8,634.6,1222.9,633.7,1221.9,632.2z
	 M1229.4,632.2c-1,1.5-2,2.5-1.9,3.2c0.1,0.8,1.3,1.7,2.2,1.8c0.5,0.1,1.7-1.2,1.7-1.9C1231.4,634.5,1230.4,633.7,1229.4,632.2z"/>
<path class="st1" d="M1343.4,636.9c-1,2.2-2.1,4.3-3.5,7.2c-1.4-7.8-2.4-14.7-4.1-21.5c-1.4-5.6-3.5-11.1-5.4-16.5
	c-1.3-3.7-1.2-4.1,2.9-4.7c1.5,1.4,3,2.9,4.5,4.4c-1.1,3.4-2.3,6.9-3.4,10.3c0.4,0.2,0.7,0.4,1.1,0.6c1.9-1,3.7-1.9,5.6-2.9
	c0.5,2.4,1,4.8,1.5,7.2c-1.5,3.4-3,6.8-4.5,10.3c0.4,0.3,0.8,0.6,1.2,0.9c1.6-0.8,3.1-1.5,4.7-2.3
	C1343.8,632.2,1343.6,634.5,1343.4,636.9z"/>
<path class="st7" d="M1344,629.8c-1.6,0.8-3.1,1.5-4.7,2.3c-0.4-0.3-0.8-0.6-1.2-0.9c1.5-3.4,3-6.8,4.5-10.3c1.6-1.2,3.7-2.7,5-0.6
	c1,1.6,0.8,4.3,0.2,6.2C1347.4,627.9,1345.3,628.7,1344,629.8z"/>
<path class="st7" d="M1341.1,613.7c-1.9,1-3.7,1.9-5.6,2.9c-0.4-0.2-0.7-0.4-1.1-0.6c1.1-3.4,2.3-6.9,3.4-10.3
	c1.5-1.1,2.8-3.4,4.9-1.4c1.9,1.7,2.3,3.9,0.8,6.2C1342.8,611.6,1341.9,612.6,1341.1,613.7z"/>
<path class="st0" d="M1050.6,787.8c-16.3,0-32.6,0-49,0c0-1.5,0-3,0-4.5c-0.1-8.8-6.9-15.6-15.7-15.6c-5.5,0-11,0-16.5,0
	c-1.5,0-2.9-0.4-4.3-0.6c0-12.4,0-24.8,0-37.3c0.2-7.4,0.5-14.7,0.7-22.1c20.9,0,41.8,0,62.8,0.1c1.7,0,3.4,1,5,1.5
	c1.2-0.5,2.6-1.4,4-1.5c11-0.1,22.1,0,33.1,0c0,10.5,0.1,20.9,0.1,31.4c0,4.8,1,5.9,5.8,5.9c22.5,0,45,0,67.5,0
	c-3.6,5.1-7.1,10.2-10.7,15.2c-5.3-2.2-10.5-4.4-15.8-6.7c-1.2-0.6-2.3-1.6-3.5-1.6c-23.3-0.1-46.6-0.1-69.9-0.1
	c-0.8,0-1.6,0.1-2.4,0.1c0.2,0.4,0.3,0.9,0.5,1.3c0,0.2,0,0.4,0,0.5c0.8,4,1.6,8,2.5,12C1046.7,773.2,1048.7,780.5,1050.6,787.8z"/>
<path class="st0" d="M846.3,787.8c-12.9,0-25.8,0-38.6,0c-0.2-4.4-0.5-8.7-0.7-13.1c0-0.5,0-0.9,0-1.4c0-1.4-0.1-2.8-0.1-4.1
	c0-0.7,0-1.4-0.1-2.1c0-4.5-0.1-8.9-0.1-13.4c0.2-15.3,0.4-30.6,0.6-46c25,0,49.9,0,74.9,0c0.2,1.7,0.6,3.4,0.6,5
	c0.1,5.7,0.1,11.4,0.1,17.1c0,12.6-0.1,25.2-0.1,37.8c-7.2,0-14.5-0.3-21.6,0.2c-3.2,0.2-6.6,1.8-9.2,3.7
	C846.7,775.6,846.1,781.6,846.3,787.8z"/>
<path class="st10" d="M1050.6,787.8c-1.9-7.3-3.9-14.6-5.7-21.9c-1-4-1.7-8-2.5-12c2.4,0.2,4.8,0.7,7.2,0.7c20.7,0.1,41.4,0,62.1,0
	c1.8,0,3.4,0,3.9,2.3c0.9,3.9,1.8,7.8,2.9,11.6c1.2,4.4,2.7,8.7,4.1,13l0,0c0.5,2.2,0.9,4.4,1.4,6.6c1.8,7.5,3.7,15,5.6,22.4
	c-2,0.6-1.2,1.4,0,1.7c1,0.3,2.2,0.1,3.3,0.2c0,1.2,0,2.4,0,3.6c-23.9,0-47.7,0-71.6,0c-2.7,0-4.4-0.3-3.3-3.8
	c0.9-0.2,2-0.4,4.1-0.8c-4.2-0.4-5.5-2.1-6.2-5.4C1054.5,799.9,1052.4,793.9,1050.6,787.8z M1109.3,811.9c0.5,0.4,1,1.1,1.5,1.1
	c3.4-0.1,6.8-0.2,10.2-0.4c0.7,0,1.3-0.4,2-0.7c0-0.5,0-0.9-0.1-1.4c-4.5,0-9.1,0-13.6,0c-11.8,0-23.6,0-35.3,0c-3.9,0-7.7,0-11.6,0
	c0,0.4,0,0.9,0,1.3c0.5,0.3,1.1,0.7,1.7,0.7c2.8,0.2,5.7,0.4,8.5,0.5c0.5,0,1-0.7,1.5-1.1C1085.9,811.9,1097.6,811.9,1109.3,811.9z
	 M1086.5,786.4c2.6,0.2,4.3-0.7,4.2-3.6c-0.1-3.5-3.9-6.7-7.9-6.7c-2.7,0-3.9,1.6-3.8,4.2C1079,783.3,1082.8,786.4,1086.5,786.4z"/>
<path class="st10" d="M846.3,787.8c-0.2-6.1,0.4-12.2,5.6-16.2c2.6-1.9,6-3.5,9.2-3.7c7.2-0.6,14.4-0.2,21.6-0.2
	c24.1,0,48.3,0.1,72.4,0.1c3.3,0,6.6-0.4,9.9-0.7c1.4,0.2,2.9,0.6,4.3,0.6c5.5,0.1,11,0,16.5,0c8.8,0,15.6,6.8,15.7,15.6
	c0,1.5,0,3,0,4.5c-0.2,6.1,1,5.5-5.5,5.5c-48,0-96.1,0-144.1,0C846.4,793.3,846.4,793.3,846.3,787.8z"/>
<path class="st11" d="M794.4,789.8c-4.5-0.4-9-1.1-13.5-1.2c-4.9-0.1-9.8,0.5-14.7,0.6c-6.3,0.1-12.6,0.1-19,0c-0.7,0-1.3-0.7-2-1.1
	c0-0.5,0-1.1,0.1-1.6s0.2-0.9,0.2-1.4c1.6-7.1,3.1-14.3,4.7-21.4c1.2-5.5,2.5-10.9,3.7-16.4c3-13.2,5.9-26.3,8.9-39.5
	c6.6,0.3,13.1,0.5,19.7,0.8c-1.1,12.1-0.2,24.1,2.1,35.9C787.6,759.6,791.1,774.6,794.4,789.8z"/>
<path class="st9" d="M794.4,789.8c-3.3-15.1-6.8-30.2-9.7-45.3c-2.3-11.8-3.2-23.8-2.1-35.9c0.2-1.3,0.4-2.6,0.7-4.1
	c-1,0.1-1.5,0.2-2.1,0.2c-5.9,0.2-11.7,0.5-17.6,0.7c0.7-3,1.7-5.9,1.9-8.9c0.3-4.1,3.4-9.1-2.4-12.1c-0.1-0.1-0.1-0.5-0.2-0.6
	c-1.2-1.2-2.4-2.4-3.7-3.6c-1.3-1.2-2.6-2.2-3.9-3.3c9.9,0,19.8,0,29.7,0c3.2,3,6.2,6.1,9.6,8.9c1.6,1.4,1.5,2.5,0.8,4.1
	c-1.2,2.8-2.5,5.7-3.4,8.6c-0.5,1.7-0.3,3.5-0.6,5.3c-0.7,4-2.1,7.9-2.2,11.9c-0.2,8.8,0.3,17.6,0.6,26.3c0,0.5,0,0.9,0.1,1.4
	c1.1,6.1,2.1,12.3,3.4,18.4c0.8,4,2.5,7.8,3,11.7c0.4,3.6,3.1,7.5-1.7,11.5c2.2,0,3.4,0,5,0c0,2.5,0,5.2,0,7.4
	c2.2,0.9,3.8,1.6,5.5,2.2c-2.9,0-5.9,0-8.8,0C795.5,793,795,791.4,794.4,789.8z"/>
<path class="st12" d="M671.3,791.4c5.6-5.1,12-7.8,19.7-7c2.2,0.2,4.4-0.1,6.5,0.1c2.5,0.2,3.5-0.6,3.3-3.3
	c-0.4-6.1-0.9-12.2-0.9-18.3c0-6.7,0.5-13.4,0.8-20.1c0-1.1,0-2.3-0.1-3.4c0-8,0-16,0-23.9c0-1.3,0-2.5,0-3.8c2.8,0,5.5,0,8.3,0.1
	c0.2,3.1,0.4,6.1,0.7,9.2c-0.2,5.5-0.4,11-0.6,16.5c0,14.7,0,29.3-0.1,44c0,2.4,0.8,3.1,3.2,3.1c6,0.2,12,0.7,18.1,1.1
	c0.3,3.3,0.6,6.5,0.9,9.8c-5.3-2.7-10.9-2.9-16.7-2.8c-8.7,0.2-17.4,0-26.1,0.1c-6,0-10.9,3.7-12.1,9.2c-0.4,1.7,0,3.8,0.7,5.5
	c1.3,3.3,0.4,5.1-3.1,5.2c-1.4,0-2.8,0-4.1,0c-3.4-0.1-4.4-1.8-3.1-5c0.4-0.8,1.1-1.7,1-2.4C667,800.1,669.2,795.8,671.3,791.4z"/>
<path class="st9" d="M731.1,795.4c-0.3-3.3-0.6-6.5-0.9-9.8c-0.5-9.7-1.4-19.4-1.3-29.1c0.1-11.2,1-22.4,1.6-33.6
	c0.8-3.9,1.6-7.8,2.4-11.7c0.4-1,0.8-2,1-2.4c-18.7-2.4-36.9-4.8-55.2-7.2c-8.4-3.7-11.8-10.5-11.6-19.2c0.1-5.1,1-10.2,1.6-15.3
	c0.5-1.4,0.9-2.8,1.4-4.2c1.5,0.4,3,0.9,4.5,1.3c0.1,0.2,0.1,0.3,0.2,0.5c-1.9,7.8-1.4,15.6-0.7,23.5c0,0.4,0.3,0.9,0.7,1.2
	c2,2.1,4,4.3,6.2,6.2c2.4,2.1,5.2,3.2,8.5,2.1c1-0.3,2.2,0,3.2,0.3c0.9,0.3,1.6,1.2,2.5,1.4c3.3,0.6,6.7,1.1,10,1.4
	c7.5,0.6,14.9,0.9,22.4,1.4c3,0.2,5.9,0.4,8.9,0.8c2.9,0.4,3.3,1.8,1.7,4.4c-1.1,1.7-2,3.6-3.1,5.5c1.2,0.3,2.4,0.6,3.4,0.8
	c-0.7,1.8-1.7,3.4-1.9,5c-1,6.4-2.4,12.8-2.4,19.2c0.1,17.6-1.4,35.3,1.4,52.9c0.3,1.6,1.8,4,3.2,4.4c2.5,0.6,4.3-1.1,4.8-4
	c0.2-1.6,1.3-3.1,2-4.7c0,0.5,0,1.1-0.1,1.6c-0.8,2.6-1.6,5.2-2.4,7.8C738.9,795.7,735,795.5,731.1,795.4L731.1,795.4z"/>
<path class="st11" d="M623.4,774c-4.4-2.1-8.7-4.2-13.1-6.3c-0.5-1.3-0.8-2.6-1.4-3.8c-3.8-6.2-7.7-12.3-11.4-18.6
	c-3.7-6.2-9.6-9-16.1-10.8c0-1.1,0-2.3-0.1-3.4c2.3,0.8,4.6,1.7,6.9,2.5c1.1,0.4,2.3,0.7,3.4,1c0.1,0.1,0.2,0.1,0.3,0.2
	c-0.1-0.1-0.2-0.1-0.3-0.2c-1.9-4.7-3.8-9.5-5.8-14.2c-3.1-7.7-6.3-15.4-9.4-23.2c-3.4-8.4-6.4-17-10.2-25.3c-1.2-2.6-4.2-5-6.9-6.4
	c-6.6-3.5-13.4-6.4-20.2-9.5c-0.4-0.2-0.7-0.4-1-0.9c8.1,0.9,15.6,4.2,23.1,7.3c0.3-0.3,0.5-0.6,0.8-1
	c-6.3-11.4-12.6-22.7-18.8-33.8c2.1,0.5,9.7,9.9,15.8,20.7c4.5,8,8.7,16.1,12.5,24.4c3.7,8.2,6.7,16.8,10.3,26.1
	c4.4-8.4,7.9-16.3,14.2-22.4c-2.5,5.4-5.1,10.8-7.6,16.2c-0.9,2-1.7,4-2.4,6c-1.3,3.7-1.6,7.2,0,11.2c6.1,14.9,13.4,29.3,22,43
	c1.2,1.9,2.7,3.7,4.1,5.5c0.3,0.3,0.7,0.6,0.9,0.8c1.4-3.1,2.8-6.2,4.1-9.2c0.4,1.4,0.9,2.8,1.3,4.2c-2,2.5-2,10.7,0.1,13.5
	C620.2,769.6,621.8,771.8,623.4,774z"/>
<path class="st7" d="M618.6,754c-0.4-1.4-0.9-2.8-1.3-4.2c-1.6-4.9-3.4-9.7-4.8-14.6c-1.4-4.9-2.5-10-3.6-14.8
	c-2.8-0.5-5.6-1-8.3-1.6c-0.9-0.2-1.7-0.6-2.5-1.1c-2.4-1.6-3-4.2-1.7-6.3c0.5-0.8,4.1-0.5,5.7,0.4c2.2,1.2,4,3.3,6.4,5.5
	c-0.3-3.6-0.6-7-0.8-10.2c-3-0.7-5.7-1.2-8.4-2.1c-2.4-0.8-4.1-2.4-4-5.3c0.1-3.5,2-4.9,4.7-2.8c2.4,1.8,4.1,4.5,6.1,6.9
	c0.4,0.5,0.7,1,1.7,1.4c-0.2-1.9-0.7-3.7-0.6-5.6c0.5-6.8,1.1-13.7,1.8-20.5c0.3-2.2-0.1-3.4-2.4-4.4c-2.6-1.2-5.2-2.9-7.1-5.1
	c-1.5-1.7-1.7-4.6,0.7-6.1c2.4-1.6,4.1,0.3,5.2,2.3c1.5,2.7,2.9,5.4,4.9,8.3c0.1-4,0.1-8,0.2-11.9c0.1-2.7,0.4-5.4,0.6-8.2
	c1.1-0.9,2.2-1.8,3.3-2.8c0.8,1.2,1.9,2.3,2.4,3.6c0.4,1,0.2,2.2,0.3,3.3c-3.5,6.5-6.8,13.1-6.1,21.2c1.7-1.3,2.8-3.1,4.4-4.3
	c2.3-1.8,5-3.5,8-0.9c-0.2,1.6-0.5,3.1-0.7,4.7c-4.2,1-8.3,2-13.1,3.1c-0.3,3.9-0.6,8.4-0.9,12.8c3.3-4,5.8-8.4,11.9-7.5
	c1.6,4.2,1.1,5.1-4.8,8.2c-2.2,0.3-4.4,0.6-6.9,1c0.1,4.7-0.6,9.2,0.4,13.1c2.2-2.6,4.3-5.2,6.5-7.7c1.8-0.6,3.9-1.8,5.1,0.7
	c1.1,2.3,0.1,4.2-2,5.5c-1.5,0.9-3,1.7-4.5,2.5c-1.4,0.3-2.9,0.7-5.1,1.2c3.4,30.8,15.6,57.5,36.9,80.2c-0.3,0.2-0.6,0.5-0.9,0.7
	c-1.7-1.8-3.6-3.5-5.2-5.3c-8.4-9.8-15.3-20.6-20.7-32.3C619.3,754.6,618.9,754.3,618.6,754z"/>
<path class="st13" d="M601.4,793.3c-5.5-3.9-11.2-7.5-16.4-11.7c-4-3.3-8.4-3.9-13.1-4.1c-5.2-0.3-10.5-0.1-15.8-0.7
	c6.4-0.6,12.8-1.3,19.8-1.9c-3.1-2.7-6.1-5.2-8.8-7.8c-6.8-6.7-13.5-13.5-20.3-20.2c-2.9-2.9-5.7-6.1-9.2-8.3
	c-2.3-1.4-5.6-1.6-8.5-1.8c-4.7-0.3-9.4-0.1-14.1-0.1c0-0.4-0.1-0.7-0.1-1.1c5.6-0.5,11.2-1,17.8-1.7c-2.9-2.5-5.2-4.8-7.8-6.8
	c-5.1-3.7-10.3-7.2-15.4-10.9c-0.7-0.5-1.4-1.2-2-1.7l0,0c3.6,1.7,7.4,3,10.8,5c13.5,7.7,24.9,17.9,35.4,29.2c1,1.1,1.7,2.5,2.5,3.8
	c0.5-0.3,1-0.6,1.5-0.8c0.8-6.3,1.6-12.5,2.3-18.8c0.4,0,0.8,0,1.1,0.1c0,1,0,2.1,0,3.1c0,6.3,0,12.5,0.2,18.8c0,1,0.7,2.2,1.5,2.9
	c10.3,10.4,21.6,19.6,34.9,27.3c-0.2-4-0.4-7.6-0.6-11.1c0.3-0.1,0.5-0.3,0.8-0.4c1.5,8.7,3.8,16.8,13.8,19
	c-2.2,2.7-5.1,0.9-7.7,1.2C603.1,793.9,602.2,793.5,601.4,793.3z"/>
<path class="st9" d="M1253.2,753.8c0.6-0.4,1.2-0.8,1.8-1.1c3,0,5.9,0,8.9,0c1.3,1.7,2.6,3.3,3.9,5c0.2,1.1,0.5,2.2,0.7,3.3
	c0,9.8-4.9,17.4-11.1,24.4c-2.3,2.6-4.8,4.8-7.3,7.2c-8.7,6.3-17.9,11.6-28.3,14.7c-0.6,0.2-1.3,0.3-2,0.4c-1.2-1.1-2.3-3.1-3.5-3.1
	c-4.8,0-9.7,0.6-14.5,1c1.1-1.1,2.1-2.8,3.5-3.2c3.8-1.2,8-1.6,11.8-3c6.7-2.5,13.5-4.8,19.6-8.4c9.1-5.4,17.5-12,24.1-20.5
	c2.1-2.8,4-5.8,5.7-8.9c0.6-1,0.4-2.9-0.1-4c-1.9-3.7-5.4-5.1-9.8-4.2C1255.4,753.7,1254.3,753.7,1253.2,753.8z"/>
<path class="st13" d="M1257,792.6c5.6-3.5,11.5-6.7,16.9-10.5c3.6-2.6,2.9-7.2,3.8-11c0.3-1.3,0.5-2.6,1.3-3.9c0,3.4,0,6.9,0,11.1
	c2.5-2,4.6-3.4,6.3-5.1c8.1-8.4,16.2-16.8,24.2-25.3c0.5-0.6,0.6-1.7,0.6-2.6c0.2-6.9-0.1-13.7-2.4-20.4c-0.1-0.3,0-0.6,0-0.9
	c0.3-0.1,0.6-0.2,1-0.2c1.6,6,3.1,12,4.9,18.9c1.7-2.3,3.1-4.1,4.5-5.9c9-11.8,18.6-23,30.8-31.6c1-0.7,2.2-1.1,3.3-1.7l0,0
	c-2,2.3-4,4.6-6.1,6.8c-3.3,3.3-6.7,6.5-10.1,9.9c-0.4,0.4-0.5,1-0.8,1.6c5.6,0,11,0,16.5,0c0,0.2,0,0.5,0,0.7
	c-3.5,0.4-7.1,0.9-10.6,1.1c-8.6,0.5-13.5,6-18.3,12.3c-7,9.2-14.6,17.9-21.9,26.8c-0.6,0.7-1.1,1.6-1.7,2.6c6,0,11.7,0,17.3,0
	c0,0.2,0.1,0.5,0.1,0.7c-0.9,0.1-1.8,0.2-2.6,0.3c-6,1-12.1,1.4-17.8,3.1c-3,0.9-5.4,4-8.1,6.2c-7.2,5.9-14.3,11.7-21.5,17.6
	c-2.6,0.2-5.1,0.6-7.7,0.6C1258.3,793.9,1257.7,793.1,1257,792.6z"/>
<path class="st14" d="M1219,808.2c1,6-6.4,10.6-11.2,11.2c-7.8,1-15.1-1-22.3-3.7c-0.9-0.3-1.6-1.2-2.5-1.8c1.2-1.1,2.3-3,3.7-3.3
	c8.9-2,17.6-5.4,27-4.2C1215.6,806.5,1217.3,807.5,1219,808.2z"/>
<path class="st15" d="M807.7,798.3c1,0.3,2,0.5,2.9,0.9c4.8,1.7,9.6,3.5,14.5,5.3c0.9,0.3,1.9,0.3,2.6,0.8c0.6,0.5,1.2,1.5,1.2,2.3
	c0,0.5-0.9,1.3-1.6,1.5c-1.2,0.4-2.5,0.7-3.7,0.7c-7.6-0.2-15.2-0.5-22.7-0.8c-0.7,0-1.4,0-2-0.3c-2-0.9-5.3-1.7-5.6-3.1
	c-0.4-2,1.3-4.4,2.2-6.6C799.6,801.2,803.8,802.3,807.7,798.3z"/>
<path class="st15" d="M743.6,802.5c0.7,0.7,1.5,1.3,2.2,2c2.1,2,4.3,3.9,6.4,5.9c1,1,2.5,2.3,2.4,3.2c-0.2,1.3-1.5,3-2.7,3.5
	c-4.9,2.2-9.2,0.4-13.1-2.7c-3-2.4-5.8-4.9-8.6-7.5c-2.1-1.9-1.8-3.8,0.9-7.1C734.7,803.3,738.9,804,743.6,802.5z"/>
<path class="st16" d="M1132.8,816.1c0-1.2,0-2.4,0-3.6c1.3-0.2,2.6-0.6,4-0.6c10.7-0.1,21.3-0.1,32-0.1c0,0.4,0,0.8,0,1.2
	c0.3,2.3-0.6,3.3-3,3.2c-3.2-0.1-6.4,0.3-9.5,0.5c-7.4-0.2-14.8-0.4-22.2-0.5C1133.6,816.2,1133.2,816.1,1132.8,816.1z"/>
<path class="st15" d="M1168.8,813c0-0.4,0-0.8,0-1.2c0.4-1.6,0.8-3.2,1.2-4.8c0.1,1.6,0.3,3.1,0.4,4.7c1.3-0.8,2.3-1.3,3.2-1.8l0,0
	c1,0.7,2.1,2.1,2.9,1.9c4.8-1.1,9.6-2.6,14.4-4c1.6-0.2,3.2-0.5,4.8-0.7c1.4-0.5,2.8-0.9,4.1-1.4c0.7,0,1.4-0.1,2-0.1
	c4.8-0.4,9.7-1,14.5-1c1.2,0,2.3,2,3.5,3.1c-0.2,0.1-0.5,0.3-0.7,0.4c-1.8-0.6-3.5-1.6-5.3-1.9c-9.4-1.1-18.1,2.3-27,4.2
	c-1.4,0.3-2.5,2.2-3.7,3.3c-1.5,0.1-3.1,0.5-4.6,0.4C1175.2,814,1172,813.4,1168.8,813z"/>
<path class="st12" d="M743.6,802.5c-4.7,1.5-8.9,0.8-12.5-2.6c0-1.5,0-3,0-4.5c3.9,0.1,7.9,0.3,11.8,0.4
	C743.1,798,743.3,800.3,743.6,802.5z"/>
<path class="st14" d="M807.7,798.3c-4,4-8.1,2.9-12.4,0.5c0.3-1.4,0.5-2.8,0.8-4.2c2.9,0,5.9,0,8.8,0c0.5,0,0.9,0,1.4,0
	c0.4,0.1,0.8,0.2,1.2,0.2C807.6,796,807.7,797.1,807.7,798.3z"/>
<path class="st12" d="M1134,816.2c7.4,0.2,14.8,0.4,22.2,0.5c-2.1,0.7-4.2,1.9-6.3,2.1c-3.7,0.5-7.5,0.7-11.2,0.3
	C1137,819.1,1135.6,817.2,1134,816.2z"/>
<path class="st11" d="M633.1,792.6c-1.7-4.4-3.3-8.7-5-13.1c3.9,4,7.9,8.1,11.8,12.1c-0.1,0.3-0.2,0.7-0.3,1
	C637.5,792.6,635.3,792.6,633.1,792.6z"/>
<path class="st9" d="M807.5,794.8c-0.4-0.1-0.8-0.2-1.2-0.2c-0.2-5.4-0.6-10.8-0.6-16.3c0-1.2,0.8-2.5,1.2-3.7
	c0.2,4.4,0.5,8.7,0.7,13.1C807.6,790.1,807.6,792.5,807.5,794.8z"/>
<path class="st11" d="M624.8,775.4c-0.5-0.5-0.9-1-1.4-1.4C623.9,774.5,624.3,774.9,624.8,775.4z"/>
<path class="st9" d="M695.2,502.1c3.9,0,7.8,0.1,11.6,0.1c5.4,0.8,10.8,1.7,16-0.8c1.2,0,2.5,0,3.7,0c0.3,2,0.6,4.1,1,6.1
	c-1.4,3.4-2.6,6.9-6.8,7.8c-2.3-0.2-4.6-0.9-6.8-0.7c-4.7,0.5-9.5,1.1-14,2.4c-3,0.8-4.6,3.2-3.4,6.7c1,2.9,1.7,6,2.1,9
	c0.1,0.9-0.9,2-1.4,3c-0.8-0.5-1.6-0.9-2.3-1.5c-0.4-0.3-0.6-1-0.9-1.4c-1-1.1-1.3-3.3-3.6-2c-2.1,1.2-3,3.1-1.5,5.2
	c1.2,1.7,2.9,3.2,4.5,4.6c1.8,1.6,3.1,3.3,1.8,5.8c-2.1-1-4.1-2-6.2-3.1c-4-2.8-6.7-6.5-8.4-11c-0.5-3.2-1.6-6.5-1.5-9.7
	c0.1-5.6,3.5-9.4,8.1-12.2c0.3-0.3,0.9-0.5,1-0.9C688.8,505.6,691.5,503.3,695.2,502.1z"/>
<path class="st11" d="M686.2,454.4c3-1.2,5.9-2.3,8.8-3.5c0,6.9,0,13.9,0,20.8c-2.9,0.9-5.9,1.8-8.8,2.7
	C686.2,467.8,686.2,461.1,686.2,454.4z"/>
<path class="st11" d="M695.2,502.1c-3.7,1.3-6.4,3.5-7.1,7.6c-0.1,0.3-0.6,0.6-1,0.9c-0.3-1.1-0.9-2.3-0.9-3.4
	c-0.1-6.3,0-12.6,0-18.9c3-1.2,5.9-2.3,8.9-3.5C695.1,490.5,695.2,496.3,695.2,502.1z"/>
<path class="st3" d="M648.3,430.9c-0.9,0.4-1.8,1.3-2.7,1.3c-16.3,0.1-32.6,0.1-48.9,0c-0.7,0-1.5-0.9-2.2-1.4
	c0.9-0.4,1.8-1.2,2.7-1.2c16.1-0.1,32.1-0.1,48.2,0c0.9,0,1.7,0.2,2.6,0.3C648.1,430.3,648.2,430.6,648.3,430.9z"/>
<path class="st3" d="M599.6,508.9c-3.8,0-7.6,0.1-11.4-0.1c-0.8,0-1.6-0.8-2.4-1.2c0.8-0.5,1.6-1.3,2.3-1.4c7.7-0.1,15.4-0.1,23.1,0
	c0.8,0,1.5,0.9,2.3,1.4c-0.8,0.4-1.7,1.2-2.5,1.2C607.1,509,603.4,508.9,599.6,508.9z"/>
<path class="st3" d="M635.3,506.2c3.7,0,7.3-0.1,11,0.1c0.9,0,1.7,0.9,2.5,1.4c-0.8,0.4-1.6,1.2-2.4,1.2c-7.6,0.1-15.1,0.1-22.7,0
	c-0.8,0-1.6-0.8-2.4-1.2c0.8-0.5,1.7-1.3,2.5-1.4C627.8,506.1,631.6,506.2,635.3,506.2z"/>
<path class="st3" d="M562.8,506.2c3.8,0,7.6-0.1,11.3,0.1c0.8,0,1.5,0.9,2.3,1.3c-0.8,0.4-1.5,1.3-2.3,1.3c-7.7,0.1-15.3,0.1-23,0
	c-0.7,0-1.4-0.8-2.1-1.2c0.7-0.5,1.4-1.4,2.1-1.4C555,506.1,558.9,506.2,562.8,506.2z"/>
<path class="st3" d="M560.8,410.9c-3.3,0-6.6,0.1-9.9-0.1c-0.7,0-1.3-0.9-1.9-1.3c0.7-0.4,1.3-1.3,2-1.3c6.6-0.1,13.3-0.1,19.9,0
	c0.7,0,1.4,0.8,2.1,1.2c-0.7,0.5-1.4,1.4-2.1,1.4C567.5,411,564.2,410.9,560.8,410.9z"/>
<path class="st3" d="M585.5,430.8c-0.7,0.5-1.4,1.4-2.1,1.4c-4.3,0.1-8.7,0.1-13,0c-0.5,0-0.9-0.7-1.4-1.1c0.5-0.5,1-1.4,1.5-1.4
	c4.9-0.1,9.8-0.1,14.6-0.1C585.2,430,585.4,430.4,585.5,430.8z"/>
<path class="st11" d="M633.6,487.5c-1.8,0-3.7,0.1-5.5-0.1c-0.7-0.1-1.3-0.9-1.9-1.3c0.7-0.4,1.3-1.2,2-1.2c3.6-0.1,7.3-0.1,10.9,0
	c0.7,0,1.4,0.8,2.1,1.2c-0.7,0.5-1.4,1.3-2.2,1.4C637.3,487.7,635.5,487.5,633.6,487.5z"/>
<path class="st3" d="M537.1,484.2c-0.8,1.1-1.4,1.8-2,2.6c-0.5-1-1.3-1.9-1.3-2.9c0-0.8,0.9-1.6,1.4-2.4
	C535.8,482.2,536.3,483,537.1,484.2z"/>
<path class="st17" d="M652.1,600.7c-2.2-2.6-1.8-5.3-0.4-8.2c3-6.4,5.8-12.9,8.7-19.3c1.2-2.1,2.5-4.2,3.7-6.3
	c2.6-2.7,5.1-5.5,7.7-8.2c1.8-0.9,3.7-1.9,5.5-2.8c1.6-0.5,3.2-0.9,4.8-1.4c1.9-0.3,3.8-0.5,5.6-0.8c1.1,0,2.2,0,3.4,0
	c1.7,9,9.6,13.8,15.5,13.1c5.8-0.6,8.8-3.1,8.6-8.5c0-1,0.4-1.9,0.7-2.9c2.1,0.6,4.2,1.3,6.2,1.9c2.1,1.1,4.2,2.3,6.2,3.4
	c2,1.4,4,2.7,5.8,4.3c1.8,1.5,4.1,3,4.9,5c3.5,8.8,6.5,17.9,9.8,26.8c0.8,2.1,0.3,3.4-1.4,4.6c-1,0.3-2.1,0.5-3.1,1
	c-2.8,1.3-5.6,2.6-8.4,4c-0.3-1.1-0.6-2.2-0.8-3.3c-0.8-4.2-1.5-8.4-2.2-12.6c-0.4,0-0.8,0-1.2,0.1c0,5.9,0,11.8,0,17.7
	c0,0.2,0,0.5-0.1,0.7l0,0c-2.7,0-1.8,2.1-2,3.5c-7.1,0-7.2,0-9,6.8c-2.6,9.4-5.1,18.9-7.5,28.3c-0.6,2.3-1.5,3.2-3.7,2.3
	c-0.9-0.4-1.8-0.9-2.7-1.3c-0.6-0.3-1.3-0.6-1.9-0.9c-0.5-0.1-0.9-0.1-1.4-0.2c-0.2-0.2-0.4-0.4-0.5-0.5l-0.1-0.1
	c-0.3-0.4-0.7-0.7-1-1.1c-0.2,0-0.3,0-0.5-0.1c-0.3-0.2-0.5-0.4-0.8-0.7c-0.2,0-0.4-0.1-0.6-0.1c-0.2-0.2-0.5-0.4-0.7-0.6
	c-3.6-2.2-7.3-4.2-10.7-6.6c-3-2-5.7-4.4-8.6-6.6c-0.5-5.2-1.1-10.4-1.3-15.6c-0.1-4,0.3-8.1,0.5-12.1c0.2-2.7,0.5-5.4,0.8-8.9
	c-2.2,4.4-4.1,8.1-6,11.9c-0.5-0.3-1-0.7-1.5-0.7C665.3,605.7,658.5,604.1,652.1,600.7z"/>
<path class="st14" d="M652.1,600.7c6.4,3.4,13.1,5,20.3,5c0.5,0,1,0.5,1.5,0.7c-1,2.7-2,5.4-3.1,8.1c-1.3,2.2-2.6,4.3-3.8,6.5
	c-0.2,0.3,0.3,1.1,0.6,1.4c1.4,1.1,2.9,2.1,4.3,3.1c2.6,1.9,5.3,3.7,7.9,5.6c2.8,2.2,5.6,4.6,8.6,6.6c3.5,2.4,7.1,4.4,10.7,6.6
	c0.2,0.2,0.5,0.4,0.7,0.6c0.2,0.1,0.4,0.1,0.6,0.1c0.3,0.2,0.5,0.4,0.8,0.7c0.1,0.1,0.3,0.1,0.5,0.1c0.3,0.4,0.7,0.7,1,1.1l0.1,0.1
	c0.2,0.2,0.4,0.4,0.5,0.5c0.5,0.1,0.9,0.1,1.4,0.2c0.6,0.3,1.3,0.6,1.9,0.9c0.9,0.4,1.8,0.9,2.7,1.3c3.1,3.5,2.9,6.8-0.5,9.2
	c-0.5-0.1-0.9-0.1-1.4-0.2c-0.4-0.2-0.9-0.5-1.3-0.7c-9.4-3.5-18.8-6.9-28.3-10.4c-2.1-0.9-4.2-1.7-6.3-2.6c-8-3.9-16-7.7-24-11.6
	c-0.7-0.3-1.4-1.4-1.4-2.1C646.2,620.8,647.9,610.5,652.1,600.7z"/>
<path class="st8" d="M664.1,566.9c-1.2,2.1-2.5,4.2-3.7,6.3c-1-0.2-2-0.7-2.9-0.7c-9.8-0.1-19.5,0-29.3,0c-1.5,0-3.5-0.5-2.5,1.6
	c-1.6-0.5-3.4-1.4-5.3-1.5c-4.2-0.2-8.5-0.2-12.7,0c-2.6,0.1-3.7-0.5-3.6-3.4c0.2-7.2,0.2-14.5,0-21.7c-0.1-2.6,0.7-3.3,3.3-3.3
	c17.7,0.1,35.4,0.1,53,0.1c8.3,0,16.7,0,25,0c1.2,0,2.4-0.4,3.6-0.7c2.1,1,4.1,2,6.2,3.1c-0.5,0.7-0.9,1.3-1.4,2
	c-3.8-0.3-6.3,0.8-6,5.2c-1.9,0.3-3.8,0.5-5.6,0.8c-1.8-5.6-1.8-5.6-7.6-5.6c-0.5,0-0.9,0-1.4,0c-2-0.2-3.1,0.5-3.7,2.6
	c-0.9,3-2.1,5.9-3.5,9.6c-1.2-3.6-2.2-6.3-3.1-9c-0.6-1.9-1.3-3.2-3.7-3.2s-2.9,1.5-3.5,3.1c-1.1,2.8-2,5.6-3.4,9.3
	c-0.9-2.5-1.4-4-1.9-5.5c-2.4-7.2-2.4-7.1-9.9-6.9c-2,0.1-2.7,0.8-3.3,2.7c-0.8,3-2.1,5.8-3.5,9.5c-1.3-3.5-2.2-6.1-3.1-8.7
	c-0.6-1.9-0.9-3.6-3.7-3.5c-2.8,0-3,1.9-3.7,3.7c-1,2.6-2,5.2-3.2,8.6c-1.2-3.4-2.2-6-2.9-8.6c-0.9-3.3-2.8-4.5-6.4-3.1
	c1.8,5.1,3.6,10.1,5.3,15.2c0.6,1.7,1.2,3.1,3.5,3.1c2.2,0,3.4-0.8,4.1-2.8c0.9-2.5,2-5,3-7.5c1.7,2.6,2.7,5.1,3.4,7.7
	c0.6,2.1,1.7,2.6,3.7,2.6s3.2-0.5,3.8-2.6c0.6-2.4,1.6-4.8,2.4-7.2c0.9-2.5,1.9-4.9,3.1-8.1c2.1,5.6,3.8,10.4,5.5,15.1
	c0.6,1.8,1.6,2.8,3.7,2.8c2.2,0,3.1-1,3.7-2.8c0.9-2.6,1.9-5.2,3.2-8.5c1.1,2.8,1.7,4.9,2.7,6.8
	C662.2,564.5,663.2,565.6,664.1,566.9z"/>
<path class="st10" d="M668.5,667.2c-0.6,5.1-1.5,10.2-1.6,15.3c-0.2,8.7,3.2,15.5,11.6,19.2c-2.8,0.2-5.6,0.3-8.4,0.6
	c-1.1,0.1-2.6,0-3.2,0.6c-1.1,1.2-2.7,3.2-2.3,4.4c0.4,1.6,2.3,3.7,3.9,4c3.8,0.7,7.7,0.5,11.5,0.7c-0.1,1.2-0.5,2.5-0.4,3.7
	c0.1,1.6,0.2,3.8,1.1,4.6c1,0.8,3.2,0.5,4.7,0c2.8-1,5.5-2.4,7.9-4c2.5-1.6,4.8-1.8,7.4-0.7c0,8,0,16,0,23.9
	c-18.4,0.5-32.4-7.1-41-23.5c-8.2-15.7-4.9-35.4,7.3-47.9C667.4,667.6,668,667.4,668.5,667.2z"/>
<path class="st1" d="M623.3,673.9c-3-2.6-5.6-0.9-8,0.9c-1.6,1.2-2.7,3.1-4.4,4.3c-0.7-8,2.6-14.6,6.1-21.2
	C621.8,660.5,625.2,669.3,623.3,673.9z"/>
<path class="st18" d="M671.7,645.2c2.1,0.9,4.2,1.7,6.3,2.6c-1.2,5.5-2.4,11-3.5,16.5c-1.5-0.4-3-0.9-4.5-1.3c-1.5-2-1.3-4-0.6-6.4
	C670.3,652.9,670.9,649,671.7,645.2z"/>
<path class="st1" d="M620.6,687.1c-6.1-0.9-8.6,3.5-11.9,7.5c0.3-4.5,0.6-8.9,0.9-12.8c4.7-1.1,8.9-2.1,13.1-3.1
	C621.9,681.4,621.3,684.3,620.6,687.1z"/>
<path class="st1" d="M615.8,701.7c-2.1,2.5-4.2,5.1-6.5,7.7c-1.1-3.9-0.3-8.4-0.4-13.1c2.5-0.4,4.7-0.7,6.9-1
	C615.8,697.4,615.8,699.6,615.8,701.7z"/>
<path class="st7" d="M606,691.5c-2.8-1.5-5.9-2.7-8.4-4.6c-1.1-0.8-1.7-2.9-1.7-4.5c0-2.9,2.6-4.1,4.7-2.2c3,2.8,5.7,5.9,6.2,10.3
	C606.5,690.8,606.2,691.2,606,691.5z"/>
<path class="st11" d="M541.5,625.8c0.1-0.2,0.2-0.4,0.3-0.6c0.2,0.1,0.5,0.1,0.5,0.3c0.1,0.1-0.1,0.4-0.2,0.6
	C541.9,625.9,541.7,625.9,541.5,625.8z"/>
<path class="st1" d="M581.4,734.6c6.6,1.8,12.5,4.6,16.1,10.8c3.7,6.3,7.6,12.4,11.4,18.6c0.7,1.1,1,2.5,1.4,3.8
	c-7.7-2.1-14.8-5.6-21-10.5C582.1,751.6,580.5,743.4,581.4,734.6z"/>
<path class="st13" d="M507.5,714.6c-0.3-0.1-0.6-0.2-0.9-0.3c0.1-0.1,0.1-0.2,0.2-0.3C507,714.3,507.2,714.4,507.5,714.6
	L507.5,714.6z"/>
<path class="st11" d="M1267.7,757.7c-1.3-1.7-2.6-3.3-3.9-5c3.3-7.3,6.8-14.5,9.7-21.9c2.8-7.1,4.9-14.5,7.6-21.7
	c2.2-6,1.4-11.2-2.1-16.5c-3.3-5-6-10.3-8.6-16c2.5,2.8,5.2,5.4,7.5,8.3c2.3,2.9,4.2,6.1,6.8,10c6.1-26.7,13-52.1,29.1-73.7
	c-4.9,12.1-9.8,24.2-14.8,36.2c0.2,0.2,0.5,0.3,0.7,0.5c6.9-3.3,13.8-6.6,20.7-9.9c0.2,0.4,0.4,0.8,0.5,1.1c-0.6,0.3-1.2,0.7-1.8,1
	c-6.7,4.4-13.8,8.3-19.9,13.4c-2.7,2.3-3.7,6.9-4.9,10.6c-1.6,4.9-2.6,9.9-3.9,14.9c-2.6,9.9-5.3,19.9-8,29.8
	c-1,3.8-2.3,7.5-3.5,11.3c3.7-1.5,7-2.9,10.3-4.3c0,0.7,0,1.3,0,2c-4,3-8,6-12,9c-0.7,0.5-1.4,1.3-1.7,2.1
	C1273,745.1,1270.4,751.4,1267.7,757.7z"/>
<path class="st4" d="M1321.9,706.3c-0.5-3.1-0.7-6.4-1.5-9.4c-2.2-8.5-2.3-16.9,1.5-24.8c2.7-5.5,6.6-10.3,10-15.4
	c1.3-2,2.8-3.9,4.3-5.8c0.6-0.7,1.5-1.2,2.2-1.8c0.6,17.1-1.5,33.8-7,50.1c-0.4,1.2-0.4,2.5-0.6,3.7l0,0c-0.2,0.2-0.5,0.5-0.7,0.7
	C1327.4,704.5,1324.7,705.4,1321.9,706.3z"/>
<path class="st1" d="M1267.7,757.7c2.6-6.3,5.3-12.6,8-18.9c0.3-0.8,1-1.6,1.7-2.1c4-3,8-6,12-9c0,4.4,0.4,8.9-0.2,13.2
	c-1.1,7.6-6.7,11.9-12.5,15.9c-2.5,1.7-5.5,2.8-8.2,4.1C1268.2,759.8,1268,758.7,1267.7,757.7z"/>
<path class="st13" d="M1353.6,702.9c0.5-0.5,0.9-0.9,1.4-1.4C1354.6,702,1354.1,702.4,1353.6,702.9
	C1353.7,702.9,1353.6,702.9,1353.6,702.9z"/>
<path class="st13" d="M1352.3,703.6c0.5-0.2,0.9-0.5,1.4-0.7l0,0C1353.2,703.1,1352.7,703.4,1352.3,703.6L1352.3,703.6z"/>
<polygon class="st13" points="1355,701.5 1355.2,701.2 1355.3,701.4 "/>
<path class="st7" d="M1330.2,703.6c0.2-0.2,0.5-0.5,0.7-0.7C1330.6,703.1,1330.4,703.3,1330.2,703.6z"/>
<path class="st1" d="M1333,619.3c0.2,0.3,0.4,0.6,0.5,0.9c-0.1,0.1-0.3,0.1-0.4,0.2c-0.1-0.3-0.2-0.6-0.4-0.9
	C1332.8,619.5,1333,619.3,1333,619.3z"/>
<path class="st6" d="M1113.5,461.4c-10.1,0-20.2-0.1-30.4-0.1c-0.4-0.6-0.8-1.2-1.2-1.8c-0.5,0.6-1,1.2-1.5,1.8
	c-113.4,0-226.8,0-340.1,0.1c-1.4,0-2.9,0.4-4.3,0.6c-0.2,0-0.4,0-0.6,0c-0.7,0-1.4,0-2.1,0c-0.2-0.2-0.5-0.4-0.7-0.6
	c-0.5-0.6-1-1.2-1.6-1.8c-0.6,1.1-1.3,2.2-1.9,3.2c-0.2,0.5-0.5,0.9-0.7,1.4c-0.4,0.3-0.7,0.5-1.1,0.8c0.3,0.2,0.7,0.4,1,0.6
	c0,0.7,0,1.4,0,2.1c-0.2,0.5-0.4,0.9-0.6,1.4c0.2,7.8,0.4,15.6,0.6,23.4c-0.2,0.2-0.4,0.5-0.6,0.7c0,0.7,0,1.4,0,2.1
	c0,0.2,0.1,0.5,0.1,0.7c0,1.8,0,3.7,0,5.5c-0.4,0-0.8,0-1.2,0c-1.2,0-2.5,0-3.7,0c-0.2-3.1-0.6-6.2-0.6-9.2c-0.1-13.5,0-26.9,0-40.4
	c0-7.9,3.2-11.1,11.1-11.1c127.2,0,254.4,0,381.6-0.1c6.7,0,11.3,4.5,11.1,11.2c-0.4,23.5-0.1,46.9-0.1,70.4c-1.9,0-3.7,0-5.6,0
	c0-17,0.1-34,0-50.9c0-2.6-0.9-5.1-1.3-7.7C1117.1,462.7,1115.3,462,1113.5,461.4z M1074.9,455.8c1.4,0.2,2.7,0.5,4.1,0.7
	c0.1,0.3,0.2,0.9,0.3,0.9c2.7,0.7,5.2-0.7,5.8-3.1c1-4.1-0.2-6.8-3.4-7.5c-2.3,0-4.6,0-6.8,0c-1.1,1-3.4,2.2-3.2,2.8
	C1072.3,451.8,1073.7,453.7,1074.9,455.8z M1114.1,456.4c2,0.4,4.1,0.7,4.8-1.9c1-3.9,0-6.4-2.7-7c-0.7-0.5-1.4-0.9-2.1-1.4
	c-0.3-0.4-0.5-0.7-0.8-1.1c-0.2,0.3-0.4,0.7-0.6,1c-1.1,0-2.3,0.1-3.4,0.1c-0.1-0.1-0.2-0.2-0.3-0.3c0.1,0.1,0.2,0.2,0.3,0.3
	c-0.5,0.7-1,1.3-1.4,2c-0.7,0.4-1.3,0.8-2,1.2c0.4,0.5,0.9,1,1.3,1.6C1107.6,454.9,1109.2,456.2,1114.1,456.4z M1100.4,450.9
	c0-3.1-1.8-4.9-4.9-4.8c-3,0-4.8,1.9-4.8,5.1c0,2.7,2.3,5.2,4.9,5.2C1098.4,456.4,1100.4,454.2,1100.4,450.9z"/>
<path class="st6" d="M1120.3,574.5c0-0.9,0-1.8,0-2.8c0-3.4,0-6.9,0-10.3c0-1.1,0-2.3,0-3.4c0-0.9,0-1.8,0.1-2.7c1.9,0,3.7,0,5.6,0
	c0,25.1,0,50.2,0,75.3c0,3.2,0,6.3,0,9.5c0,8.6,0,17.2,0,25.8c0,7-3.1,10.1-10,10.1c-12.7,0-25.5,0-38.2,0c-1.5,0-2.9,0.4-4.4,0.6
	c-0.9-0.2-1.7-0.4-2.6-0.7c-1.4,0-2.8,0-4.1,0c-89.7,0-179.3,0-269,0c-1.5,0-3,0.5-4.5,0.8c-0.9-0.3-1.8-0.6-2.6-0.9
	c0.1-0.8,0.3-1.7,0.5-2.8c-1.5,0-2.8,0-4.1,0c-24.3,0-48.5,0-72.8,0c-4.4,0-5.1-0.9-4-5c1.9-7,3.8-14.1,5.6-21.2
	c2.4-9.3,4.8-18.6,7.3-28c1.2-4.4,2-5.1,6.7-5.2c24.5,0,49.1,0,73.6,0c1.1,0,2.1-0.5,3.2-0.8c3.6,1.7,1.1,4.8,1.5,7.4
	c1,0.1,1.9,0.1,2.7,0.2c2.5,0.3,4-0.1,3.9-3.4c-0.2-5.5,0-5.6-4-5.6c-8.3,0-16.5,0-24.8,0c-1,0-2,0.4-2.9,0.6
	c-10.8,0-21.7,0.1-32.5,0.1c0-0.5,0.1-1.1,0.1-1.6c0.2,0,0.3-0.1,0.2-0.3c0.1-0.4,0.1-0.9,0.2-1.3c1.2-0.3,2.3-0.8,3.5-0.8
	c10.2,0.1,20.4,0.5,30.6,0.6c6,0,11.9-0.5,17.9-0.5s12,0.5,18.1,0.5c12.6-0.1,25.2-0.5,37.8-0.5c14.5,0,28.9,0.3,43.4,0.5
	c3.7,0.3,1.4,3.3,2.2,5c0,14.7-0.1,29.5-0.1,44.2c-1.6,0-3.3,0-4.9,0c-33.1,0-66.3,0-99.4,0c-3.9,0.1-3,3.2-3.5,5.4
	c-0.2,1.4-0.5,2.7-0.7,4.1c-0.3,0.5-0.7,1-1,1.5c0.8,0.2,1.6,0.3,2.4,0.5c2.2,0,4.4,0.1,6.6,0.1c100,0,199.9,0,299.9,0
	c1.6,0,3.2,0,4.8-0.1c1.5,0,3,0.1,4.5,0.1c5.4,0,7.2-1.8,7.2-7.2c0-5.9,0-11.7-0.1-17.6c0-1.8,0-3.7,0-5.5
	C1120.3,617.8,1120.3,596.1,1120.3,574.5z M750.8,642.5c-0.5-0.2-0.8-0.3-1.2-0.3c-8.2-1.7-16.5-3.3-24.7-5.2
	c-2.4-0.6-3,0.4-3.5,2.3c-2.2,8.7-4.5,17.5-6.8,26.2c-1.1,4-1,4.3,3.3,4.3c20.5,0,40.9,0,61.4,0c2.6,0,5.3,0.1,7.9,0
	c2-0.1,3.8-0.6,4.3-3c1.3-5.6,2.7-11.1,4.2-16.6c0.7-2.6,0-4.2-2.9-4.5c-1.6-0.2-3.1-0.8-4.7-1c-7.1-0.8-14.2-1.5-21.2-2.2
	c-1.6,6.6-4.7,9.1-9.7,8.8C753.4,650.9,751.6,648.5,750.8,642.5z M882.1,654.6c4.4,0,8.7-0.1,13.1,0c2.3,0.1,3-0.8,2.9-3
	c-0.1-7.8-0.1-15.6,0-23.4c0-2.3-0.7-3.3-3.1-3.3c-8.6,0.1-17.2,0.1-25.8,0c-2.1,0-2.8,0.6-2.8,2.7c0.1,8,0.1,16.1,0,24.1
	c0,2.4,0.9,2.9,3,2.9C873.6,654.5,877.9,654.6,882.1,654.6z M842,641.4c4.3,0,8.5-0.1,12.8,0c2.3,0.1,3.4-0.6,3.3-3.1
	c-0.1-7.8-0.1-15.6,0-23.4c0-2.2-0.7-3.1-3-3.1c-8.7,0.1-17.5,0.1-26.2,0c-1.9,0-2.6,0.7-2.6,2.6c0.1,8.2,0.1,16.3,0,24.5
	c0,1.9,0.7,2.6,2.6,2.6C833.2,641.4,837.6,641.4,842,641.4z M798.8,654.6c4.8,0,9,0,13.3,0c2,0,2.6-1,2.6-2.8c0-8,0-16-0.1-24.1
	c0-0.9-0.8-2.3-1.5-2.6c-4.3-1.6-7.2,0.2-8,4.8c-0.1,0.7-0.2,1.3-0.4,2C802.7,639.3,800.8,646.6,798.8,654.6z M882.4,611.8
	c-3.6,0-7.1,0-10.7,0c-6.1,0.1-5.2-0.8-5.4,5.6c-0.1,2.8,0.9,3.5,3.5,3.4c7.4-0.2,14.9,0,22.4-0.1c6.6-0.1,5.8,1.3,5.9-6.1
	c0.1-2.3-0.8-3-3-2.9C890.9,611.9,886.7,611.8,882.4,611.8z M842.1,645.6c-3.3,0-6.7,0-10,0c-6.5,0.1-5.6-1.1-5.8,5.9
	c-0.1,2.1,0.5,3.1,2.8,3.1c8.6-0.1,17.2-0.1,25.9,0c3.9,0.1,3-2.6,3.1-4.8c0.1-2.3,0.2-4.4-3.2-4.3
	C850.6,645.8,846.3,645.6,842.1,645.6z M753.8,644.3c0,2.5,2,4.5,4.4,4.6c2.8,0.1,5.9-3,6-6c0-2.7-1.7-4.3-4.5-4.3
	C756.1,638.7,753.8,640.9,753.8,644.3z"/>
<path class="st17" d="M1206.4,676.6c0.6-1.1,1.2-2.1,2.1-3.8c3.3,1.4,6.7,2.9,10.1,4.4c-2.1,3.5-5,6.7-6.2,10.5
	c-2.5,7.7-4.2,15.7-6,23.6c-1.6,7.1-2.9,14.3-4.5,21.4c-0.7,3.2-1.1,6.7-2.7,9.4c-4.5,7.3-9.5,14.3-14.5,21.3
	c-2.4,3.4-5.4,6.5-8.1,9.7c-6.1-1.4-12.2-2.8-18.3-4.1c1.8-2.8,3.9-5.4,5.4-8.3c2.6-5.1,4.7-10.3,7-15.5c0.3-0.9,0.5-1.8,0.8-2.7
	c0.3-1.3,0.5-2.7,0.8-4c0.1-0.3,0.2-0.6,0.3-0.9c0-0.9,0.1-1.8,0.1-2.7c0.1-1.2,0.1-2.3,0.2-3.5c-1.2-4.6-2.4-9.1-3.6-13.7
	c-0.6-1.7-1-3.5-1.8-5.2c-2.1-4.6-3.3-9.2-2.8-14.3c0.4-3.9,0.9-7.7,1.1-11.6c0.2-3.3,0-6.6,0-9.8c4.6-1.6,9.2-3.3,13.7-4.9
	c0.5,3.9,1.2,7.8,1.5,11.8c0.5,5.3,5.6,9.3,10.1,7.2c3.4-1.5,6.5-3.8,9.2-6.3C1202.8,682.2,1204.4,679.2,1206.4,676.6z"/>
<path class="st14" d="M1176.5,772.9c2.7-3.2,5.6-6.3,8.1-9.7c5-7,10-14,14.5-21.3c1.7-2.7,2-6.2,2.7-9.4c1.6-7.1,2.9-14.3,4.5-21.4
	c1.8-7.9,3.5-15.9,6-23.6c1.2-3.8,4.1-7,6.2-10.5c4.4,0.7,6,4,5.9,7.7c-0.2,8.4-0.9,16.8-1.6,25.2c-0.2,2.9-1.1,5.8-1.6,8.8
	c-1,4.4-2,8.7-3.1,13.1c-0.2,0.8-0.4,1.7-0.6,2.5c-0.9,2.6-1.8,5.2-2.6,7.8c-0.3,1.2-0.6,2.3-0.9,3.5c0,0.4,0,0.8,0,1.2
	c-0.6,0.6-1.6,1.1-1.9,1.8c-3.3,7.7-8.4,14.1-14.3,20c-1.6,1.6-3,3.4-4.5,5.1c-1.8,1.2-3.7,2.5-5.5,3.7c-0.6,0.5-1.3,1-1.9,1.5
	c-0.2,0.2-0.3,0.4-0.5,0.5c-1.7,1.1-3.4,2.3-5.2,3.4c-1.4,1.1-2.7,2.2-4.1,3.3c-0.1,0.2-0.3,0.3-0.5,0.3c-0.7,0.5-1.4,0.9-2.1,1.4
	l0,0c-1.7,1.1-3.3,2.2-5,3.3l0,0c-0.6,0.8-1.3,1.6-1.9,2.3c-0.2,0.2-0.3,0.4-0.5,0.6c-1.1,0.4-2.5,0.6-3.3,1.3
	c-2.7,2.4-5.2-0.6-7.8,0c0,0-0.2-0.6-0.3-0.9c0.2-0.4,0.4-0.8,0.6-1.1l-0.1-0.1c-0.4-0.2-0.9-0.4-1.3-0.6c-0.2-0.1-0.4-0.1-0.6,0
	s-0.4,0.1-0.6,0.1c0.5-0.5,0.9-1.3,1.5-1.5c3.1-0.8,6.2-1.4,9.2-2.2c1.1-0.3,2.1-1.4,3.1-2.1c1.8-2.5,3.6-5,5.4-7.5
	C1173.5,777.3,1175,775.1,1176.5,772.9z"/>
<path class="st14" d="M1165.8,676.6c0,3.3,0.2,6.6,0,9.8c-0.2,3.9-0.7,7.7-1.1,11.6c-0.5,5.1,0.7,9.8,2.8,14.3
	c0.8,1.6,1.2,3.4,1.8,5.2c-1.1,4.8-2.2,9.6-3.2,14.3c-0.3,0.9-0.5,1.8-0.8,2.7c-0.9,2.5-1.7,5.1-2.6,7.6c-0.2,0.9-0.5,1.9-0.7,2.8
	c-3.3,5.1-6.4,10.2-9.8,15.2c-1.6,2.4-3.7,4.6-5.6,6.9c-3.4,3-6.9,5.9-10.3,8.9l0,0c-0.3,0.2-0.5,0.5-0.8,0.7v-0.1
	c-1.5,1.2-3,2.3-4.5,3.5c-1.6,1-3.3,2-4.9,3c-0.8-3-1.7-6.1-2.5-9.1c3.3-4.6,6.5-9.1,9.8-13.7c3.6-5.1,7.1-10.2,10.7-15.2
	c0.4-0.9,0.8-1.8,1.2-2.7c3.3-1.6,3.5-4.7,4.1-7.7c0.1-1.1,0.1-2.1,0.2-3.2c1.3-5.6,2.6-11.2,3.8-16.8c0.4-1.5,0.7-3.1,1-4.6
	c0.9-4.2,1.7-8.4,2.5-12.6c1-3.7,1.9-7.3,2.9-11c1.6-3.2,3.3-6.5,4.9-9.7C1165.1,676.6,1165.5,676.6,1165.8,676.6z"/>
<path class="st6" d="M1164.8,676.6c-1.6,3.2-3.3,6.5-4.9,9.7c-4.7-2.4-9.5-4.8-14.4-7.3c0,8.2,0,16.1,0,24.2c4-2.1,7.8-4,11.5-5.9
	c-0.8,4.2-1.7,8.4-2.5,12.6c-0.3,1.5-0.7,3.1-1,4.6c-16.1,1.1-29.1-15.6-22.5-32.5c4.3-10.9,16.5-18,30-13.7
	C1162.2,671.1,1163.5,673.9,1164.8,676.6z"/>
<path class="st14" d="M1206.4,676.6c-2,2.6-3.6,5.6-5.9,7.8c-2.7,2.5-5.9,4.8-9.2,6.3c-4.5,2-9.6-2-10.1-7.2
	c-0.3-3.9-1-7.8-1.5-11.8c1-1.8,2-3.6,2.9-5.3c6.5-0.2,13.1,0.6,18.9-3.4c0.2,1.8,0.2,3.7,0.8,5.4c0.4,1.2,1.3,2.8,2.4,3.2
	C1207.3,672.7,1207.5,674.3,1206.4,676.6z"/>
<path class="st14" d="M1182.4,664.3c-3.3,0.1-5.3-1.6-5.9-4.6c-1-4.7-1.8-9.4-2.8-14.5c3.9,0.8,4.8-0.1,2.8-3.1
	c1.4-0.5,2.7-0.9,4.8-1.6c-1.6-0.8-2.6-1.2-4.3-2.1c1.9-3.1,3.7-6,5.5-9c0.4,0.1,0.7,0.2,1.1,0.3c1.6,4.6,3.2,9.1,4.9,13.9
	c-0.2,0.9-0.5,2.4-0.8,3.9c0.3,0.1,0.7,0.3,1,0.4c0.7-0.6,1.3-1.2,2.2-2c1.8,1.6,3.6,3.3,5.4,5c0.2-0.1,0.3-0.2,0.5-0.4
	c-1.1-1.6-2.2-3.2-3.7-5.5c3.4,1,6.1,1.6,8.7,2.5c0.5,0.2,1.1,1.5,1,2.2c-0.3,2.8-0.9,5.7-1.3,8.5c-0.5,0.1-1.2,0.1-1.6,0.4
	C1194.9,663.4,1188.6,663.8,1182.4,664.3z M1178.9,655.2c-0.3,0.5-0.5,1.1-0.8,1.6c1.7,1.1,3.2,2.7,5,3c1.2,0.2,2.8-1.3,4.2-2
	c-0.1-0.5-0.3-0.9-0.4-1.4C1184.3,656,1181.6,655.6,1178.9,655.2z"/>
<path class="st8" d="M1218.2,731.9c4,0,8,0.1,12-0.1c0.9,0,2.5-1.1,2.6-1.7c0.2-6.3,0.1-12.5,0-18.8c0-0.4-0.5-0.7-0.8-1
	c1-1.3,1.9-2.7,2.9-4c0.2,1.1,0.7,2.1,0.7,3.2c0.1,10.1,0,20.1,0.1,30.2c0,2.5-0.7,4.2-2.9,5.3c-1,0-2.1,0-3.3,0
	c0.3,1.2,0.4,2,0.6,2.7c-2.2-2.7-5-3.2-8.3-2.8c-2.6,0.3-5.1,0.5-7.7,0.7c0.3-1.2,0.6-2.3,0.9-3.5c4.6,0,9.1,0,13.7,0
	c3.3,0,4.2-1.8,4.3-4.8c0.2-3.4-2.1-2.8-4-2.8c-3.8-0.1-7.5-0.1-11.3-0.1C1217.8,733.6,1218,732.8,1218.2,731.9z"/>
<path class="st19" d="M1182.4,664.3c6.2-0.5,12.5-0.9,17.4-5.6c0.3-0.3,1-0.3,1.6-0.4c0,1.6,0.1,3.1,0.1,4.7
	c-5.8,4-12.5,3.2-18.9,3.4C1182.5,665.7,1182.4,665,1182.4,664.3z"/>
<path class="st20" d="M1201.8,805.7c-0.7,0-1.4,0.1-2,0.1c-4.9-2.7-4.9-2.7-6.6-0.9c0.8,0.8,1.7,1.5,2.5,2.3
	c-1.6,0.2-3.2,0.5-4.8,0.7c-0.8-3-2.7-2.4-4.7-1.4c-1,0.5-1.9,1.4-3,1.7c-3.2,0.7-6.4,1.2-9.6,1.8l0,0c-0.2-2.1-0.5-4.2-0.7-6.2
	c0.5-0.7,0.9-1.4,1.4-2.1c5.4-2.6,10.8-5.3,16.2-7.9c1.4-0.7,3-1.1,4.2-1.9c3.9-2.7,7.6-5.9,11.6-8.5c3.8-2.5,8.1-4.3,12-6.7
	c2.8-1.7,5.2-4.1,7.8-6.1c0.9-0.6,1.8-1.3,2.7-1.9c1.6-1.1,3.3-2.1,4.9-3.2c2.1-1.5,4.2-2.9,6.2-4.4c4.4-2.4,8.9-4.8,13.3-7.2
	c1.1-0.1,2.3-0.1,3.4-0.3c4.4-0.9,7.9,0.4,9.8,4.2c0.6,1.1,0.7,2.9,0.1,4c-1.6,3.1-3.5,6.1-5.7,8.9c-6.6,8.5-15,15.1-24.1,20.5
	c-6.1,3.6-12.9,5.9-19.6,8.4c-3.8,1.4-7.9,1.8-11.8,3C1203.9,802.9,1202.9,804.6,1201.8,805.7z"/>
<path class="st13" d="M1239.9,761c-2.1,1.5-4.2,2.9-6.2,4.4c-1.2-5.9-2.3-11.8-3.5-17.7c-0.2-0.7-0.3-1.5-0.6-2.7c1.2,0,2.3,0,3.3,0
	c1,5.4,2,10.8,3.2,16.8c2.3-3.2,4.3-5.9,6.2-8.6c0.2,0.1,0.4,0.2,0.6,0.4C1241.8,756.1,1240.8,758.6,1239.9,761z"/>
<path class="st13" d="M1244.3,751.7c-0.1,0.2-0.1,0.5-0.3,0.5c-0.1,0.1-0.4-0.1-0.6-0.2c0.1-0.2,0.1-0.5,0.3-0.5
	C1243.9,751.4,1244.1,751.6,1244.3,751.7z"/>
<path class="st2" d="M965.1,767.1c-3.3,0.2-6.6,0.7-9.9,0.7c-24.1,0-48.3,0-72.4-0.1c0-12.6,0.1-25.2,0.1-37.8c27.4,0,54.8,0,82.2,0
	C965.1,742.2,965.1,754.7,965.1,767.1z"/>
<path class="st2" d="M882.2,707.7c-25,0-49.9,0-74.9,0c0.1-3.9,0.2-7.8,0.3-11.7c1.3,0,2.5,0,3.8,0c71.6,0,143.1,0,214.7,0
	c14.8,0,29.7,0,44.5-0.1c0,4,0,7.9,0,11.9c-11,0-22.1-0.1-33.1,0c-1.4,0-2.8,1-4,1.5c-1.6-0.5-3.3-1.5-5-1.5
	c-20.9-0.1-41.8-0.1-62.8-0.1C937.9,707.7,910.1,707.7,882.2,707.7z"/>
<path class="st10" d="M882.2,707.7c27.8,0,55.7,0,83.5,0c-0.2,7.4-0.5,14.7-0.7,22.1c-27.4,0-54.8,0-82.2,0c0-5.7,0-11.4-0.1-17.1
	C882.8,711.1,882.4,709.4,882.2,707.7z"/>
<path class="st8" d="M1070.6,707.8c0-4,0-7.9,0-11.9c0-6.6,0-13.3,0.1-19.9c0.9,0.2,1.7,0.4,2.6,0.7c-0.1,11.9-0.4,23.9-0.4,35.8
	c0,6.3,0.3,12.6,0.5,18.9c0,1.1,0,2.2,0,3.3c-0.3,7.6-0.3,7.6,7.4,7.6c21.5,0,43,0.1,64.5,0.1c-0.4,0.9-0.8,1.8-1.2,2.7
	c-22.5,0-45,0-67.5,0c-4.8,0-5.8-1-5.8-5.9C1070.6,728.7,1070.6,718.3,1070.6,707.8z"/>
<path class="st7" d="M1123.5,774c0.8,3,1.7,6.1,2.5,9.1c0.1,4.9,1,9.6,4.1,13.5c-0.2,0.9-0.6,1.9-0.5,2.7c0.5,2.2,1.2,4.3,1.8,6.5
	c-1.1,1.5,2.3,3.6-0.8,4.8c-1.8-6.8-3.5-13.7-5.4-20.5c-0.8-2.9-1.9-5.7-2.9-8.6l0,0c0-0.5,0.1-0.9,0-1.4
	c-2.2-8.4-4.3-16.9-6.6-25.2c-0.2-0.8-1.9-1.6-2.9-1.6c-23.6-0.1-47.1,0-70.7,0c-0.2-0.4-0.3-0.9-0.5-1.3c0.8,0,1.6-0.1,2.4-0.1
	c23.3,0,46.6,0,69.9,0.1c1.2,0,2.3,1,3.5,1.6c1.7,6.6,3.4,13.3,5.1,19.9C1122.7,773.7,1123.2,773.8,1123.5,774z"/>
<path class="st21" d="M1123.5,774c-0.3-0.2-0.8-0.3-0.9-0.5c-1.7-6.6-3.4-13.3-5.1-19.9c5.3,2.2,10.5,4.4,15.8,6.7
	C1130.1,764.8,1126.8,769.4,1123.5,774z"/>
<path class="st1" d="M1042.3,753.4c23.6,0,47.1-0.1,70.7,0c1,0,2.6,0.9,2.9,1.6c2.3,8.4,4.5,16.8,6.6,25.2c0.1,0.4,0,0.9,0,1.4
	c-1.4-4.3-2.8-8.6-4.1-13c-1.1-3.8-2-7.7-2.9-11.6c-0.5-2.3-2.1-2.3-3.9-2.3c-20.7,0-41.4,0-62.1,0c-2.4,0-4.8-0.4-7.2-0.7
	C1042.3,753.7,1042.3,753.6,1042.3,753.4z"/>
<path class="st21" d="M790.4,676c0.9,0.3,1.8,0.6,2.6,0.9c5.1,2.5,10.4,4.7,12.7,10.5c0.2,3.4,0.5,6.8,0.5,10.2
	c-0.1,5.1-0.6,10.3-0.6,15.4c-0.1,17.1-0.1,34.2,0,51.2c0,0.9,0.7,1.9,1.1,2.8c0,0.7,0,1.4,0.1,2.1c-1.9,1.4-2,2.8,0.1,4.1
	c0,0.5,0,0.9,0,1.4c-0.4,1.2-1.3,2.5-1.2,3.7c0.1,5.4,0.4,10.8,0.6,16.3c-0.5,0-0.9,0-1.4,0c-1.6-0.7-3.3-1.3-5.5-2.2
	c0-2.2,0-4.9,0-7.4c-1.6,0-2.8,0-5,0c4.9-4,2.2-7.9,1.7-11.5c-0.5-4-2.1-7.8-3-11.7c-1.3-6.1-2.3-12.3-3.4-18.4
	c-0.1-0.4-0.1-0.9-0.1-1.4c-0.2-8.8-0.7-17.6-0.6-26.3c0.1-4,1.5-7.9,2.2-11.9c0.3-1.7,0.1-3.6,0.6-5.3c0.9-2.9,2.1-5.8,3.4-8.6
	c0.7-1.7,0.9-2.8-0.8-4.1c-3.3-2.8-6.4-5.9-9.6-8.9C786.7,676.5,788.6,676.3,790.4,676z"/>
<path class="st9" d="M806.8,767.1c-0.4-0.9-1.1-1.9-1.1-2.8c-0.1-17.1-0.1-34.2,0-51.2c0-5.1,0.5-10.3,0.6-15.4
	c0-3.4-0.3-6.8-0.5-10.2c0.6,2.9,1.2,5.7,1.9,8.6c-0.1,3.9-0.2,7.8-0.3,11.7c-0.2,15.3-0.4,30.6-0.6,46
	C806.7,758.2,806.8,762.6,806.8,767.1z"/>
<path class="st9" d="M806.9,773.3c-2-1.3-2-2.7-0.1-4.1C806.9,770.5,806.9,771.9,806.9,773.3z"/>
<path class="st14" d="M1130.7,810.6c3.1-1.1-0.4-3.3,0.8-4.8c5.7-0.2,11.4-0.3,17.1-0.5c0.2,0,0.5,0,0.7,0c1.4,0.2,2.9,0.7,4.3,0.6
	c5.5-0.2,10.9-0.6,16.4-0.9c0,0.4,0,0.9,0,1.3c-0.1,0.2-0.2,0.4-0.1,0.6l0,0c-0.4,1.6-0.8,3.2-1.2,4.8c-10.7,0-21.3,0.1-32,0.1
	c-1.3,0-2.6,0.4-4,0.6c-1.1,0-2.3,0.2-3.3-0.2c-1.2-0.4-2-1.2,0-1.7C1129.8,810.6,1130.3,810.6,1130.7,810.6z"/>
<path class="st16" d="M1086.5,786.4c-3.7,0-7.5-3.1-7.5-6.1c-0.1-2.6,1.1-4.2,3.8-4.2c4-0.1,7.8,3.2,7.9,6.7
	C1090.8,785.7,1089.1,786.6,1086.5,786.4z"/>
<path class="st2" d="M1074.1,810.6c11.8,0,23.6,0,35.3,0c0,0.5,0,0.9-0.1,1.4c-11.7,0-23.4,0-35.2,0
	C1074.1,811.5,1074.1,811,1074.1,810.6z"/>
<path class="st1" d="M1130.7,810.6c-0.4,0-0.9,0-1.3,0c-1.9-7.5-3.7-15-5.6-22.4c-0.5-2.2-0.9-4.4-1.4-6.6c1,2.9,2.1,5.7,2.9,8.6
	C1127.2,797,1129,803.8,1130.7,810.6z"/>
<path class="st16" d="M1109.3,811.9c0-0.5,0-0.9,0.1-1.4c4.5,0,9.1,0,13.6,0c0,0.5,0,0.9,0.1,1.4c-0.7,0.2-1.3,0.6-2,0.7
	c-3.4,0.2-6.8,0.4-10.2,0.4C1110.4,813.1,1109.8,812.3,1109.3,811.9z"/>
<path class="st16" d="M1074.1,810.6c0,0.5,0.1,0.9,0.1,1.4c-0.5,0.4-1,1.1-1.5,1.1c-2.8,0-5.7-0.2-8.5-0.5c-0.6,0-1.1-0.5-1.7-0.7
	c0-0.4,0-0.9,0-1.3C1066.3,810.6,1070.2,810.6,1074.1,810.6z"/>
<path class="st21" d="M745.3,786.4c-0.7,1.6-1.8,3.1-2,4.7c-0.5,3-2.2,4.6-4.8,4c-1.4-0.3-2.9-2.7-3.2-4.4
	c-2.7-17.6-1.3-35.3-1.4-52.9c0-6.4,1.4-12.8,2.4-19.2c0.2-1.6,1.2-3.1,1.9-5c-1-0.2-2.2-0.5-3.4-0.8c1.1-2,2-3.8,3.1-5.5
	c1.6-2.6,1.2-4-1.7-4.4s-5.9-0.6-8.9-0.8c-7.5-0.5-14.9-0.9-22.4-1.4c-3.4-0.3-6.7-0.8-10-1.4c-0.9-0.2-1.6-1.1-2.5-1.4
	c-1-0.3-2.3-0.6-3.2-0.3c-3.3,1.1-6.1,0-8.5-2.1c-2.2-1.9-4.2-4.1-6.2-6.2c-0.3-0.3-0.6-0.8-0.7-1.2c-0.7-7.8-1.2-15.7,0.7-23.5
	c11,2.9,22.2,3,33.4,2.8c-0.2,2.1-1.6,2.1-3.2,2.1c-6.5,0-13,0-19.4,0c-0.4,5.2,1.1,7,5.9,7c21.3,0.1,42.7,0.1,64,0.1
	c1.3,1.1,2.6,2.2,3.9,3.3c1.3,1.1,2.5,2.4,3.7,3.6c0.1,0.1,0.1,0.6,0.2,0.6c5.8,3,2.7,7.9,2.4,12.1c-0.2,3-1.2,5.9-1.9,8.9
	c-0.2,0.8-0.5,1.6-0.7,2.4c-3,13.2-5.9,26.3-8.9,39.5c-1.2,5.5-2.5,10.9-3.7,16.4c-0.4,0.2-1,0.4-1,0.7c-1.2,5.5-2.5,11-3.6,16.5
	c-0.3,1.3,0,2.7,0,4.1C745.5,785.5,745.4,786,745.3,786.4z"/>
<path class="st8" d="M762.8,707.7c0.2-0.8,0.5-1.6,0.7-2.4c5.9-0.2,11.7-0.5,17.6-0.7c0.5,0,1.1-0.1,2.1-0.2
	c-0.2,1.5-0.4,2.8-0.7,4.1C776,708.2,769.4,708,762.8,707.7z"/>
<path class="st9" d="M745.6,785c0-1.4-0.2-2.8,0-4.1c1.1-5.5,2.3-11,3.6-16.5c0.1-0.3,0.7-0.5,1-0.7
	C748.7,770.8,747.1,777.9,745.6,785z"/>
<path class="st16" d="M755.2,676.8c-21.3,0-42.7-0.1-64-0.1c-4.8,0-6.3-1.8-5.9-7c6.4,0,12.9,0,19.4,0c1.6,0,3.1,0,3.2-2.1
	c2-2.6,1.7-5.5,1-8.5c3.4-2.4,3.6-5.7,0.5-9.2c2.3,1,3.2,0.1,3.7-2.3c2.4-9.5,4.9-18.9,7.5-28.3c1.9-6.8,2-6.8,9-6.8
	c0,0.5,0,0.9,0,1.4c-4.7,0.1-5.6,0.8-6.7,5.2c-2.4,9.3-4.8,18.6-7.3,28c-1.9,7.1-3.7,14.1-5.6,21.2c-1.1,4.1-0.4,5,4,5
	c24.3,0,48.5,0,72.8,0c1.3,0,2.5,0,4.1,0c-0.2,1.1-0.3,1.9-0.5,2.8c-1.8,0.3-3.7,0.5-5.5,0.8C775,676.8,765.1,676.8,755.2,676.8z"/>
<path class="st11" d="M730.4,722.9c-0.6,11.2-1.5,22.4-1.6,33.6c-0.1,9.7,0.8,19.4,1.3,29.1c-6-0.4-12-0.9-18.1-1.1
	c-2.3-0.1-3.2-0.7-3.2-3.1c0.1-14.6,0.1-29.3,0.1-44C717.7,734.9,724.7,729.9,730.4,722.9z"/>
<path class="st19" d="M680,711.8c-3.9-0.2-7.8,0.1-11.5-0.7c-1.6-0.3-3.5-2.3-3.9-4c-0.3-1.2,1.2-3.2,2.3-4.4
	c0.6-0.7,2.1-0.5,3.2-0.6c2.8-0.2,5.6-0.4,8.4-0.6c18.3,2.4,36.5,4.7,55.2,7.2c-0.1,0.4-0.6,1.4-1,2.4c-6.1,0.2-12.1,0.4-18.2,0.6
	c-1.8,0-3.7-0.1-5.5-0.1c-2.8,0-5.5,0-8.3-0.1C693.8,711.7,686.9,711.8,680,711.8z"/>
<path class="st8" d="M714.5,711.9c6.1-0.2,12.1-0.4,18.2-0.6c-0.8,3.9-1.6,7.8-2.3,11.7c-5.7,6.9-12.6,12-21.4,14.5
	c0.2-5.5,0.4-11,0.6-16.5c5.5-0.1,6-0.7,5-6.3C714.5,713.7,714.6,712.8,714.5,711.9z"/>
<path class="st17" d="M708.9,659.1c0.8,3,1.1,5.9-1,8.5c-11.2,0.3-22.5,0.1-33.4-2.8c0-0.2-0.1-0.3-0.1-0.5c1.2-5.5,2.4-11,3.5-16.5
	c9.4,3.5,18.8,6.9,28.3,10.4c0.4,0.2,0.9,0.5,1.3,0.7C708,658.9,708.5,659,708.9,659.1z"/>
<path class="st1" d="M591.7,734.6c0.1,0.1,0.2,0.1,0.3,0.2C591.9,734.7,591.8,734.7,591.7,734.6L591.7,734.6z"/>
<path class="st9" d="M1173.5,809.9c3.2-0.6,6.4-1,9.6-1.8c1.1-0.2,2-1.2,3-1.7c2-1,3.9-1.6,4.7,1.4c-4.8,1.4-9.5,2.9-14.4,4
	C1175.6,812,1174.5,810.6,1173.5,809.9z"/>
<path class="st9" d="M1170,806.5c0-0.4,0-0.9,0-1.3c0.9-0.5,1.9-1,2.8-1.5c0.2,2.1,0.5,4.2,0.7,6.2c-0.9,0.5-1.8,1.1-3.2,1.8
	c-0.1-1.6-0.3-3.1-0.4-4.7l0,0C1170,806.9,1170,806.7,1170,806.5z"/>
<path class="st9" d="M1195.6,807.1c-0.8-0.8-1.7-1.5-2.5-2.3c1.8-1.8,1.8-1.8,6.6,0.9C1198.4,806.2,1197,806.7,1195.6,807.1z"/>
<path class="st14" d="M693.8,548.5c0.5-0.7,0.9-1.3,1.4-2c1.3-2.5,0-4.2-1.8-5.8c-1.6-1.4-3.3-2.9-4.5-4.6c-1.5-2.1-0.5-4,1.5-5.2
	c2.2-1.4,2.6,0.9,3.6,2c0.4,0.4,0.5,1.1,0.9,1.4c0.7,0.6,1.5,1,2.3,1.5c0.5-1,1.6-2.1,1.4-3c-0.5-3-1.1-6.1-2.1-9
	c-1.2-3.5,0.4-5.9,3.4-6.7c4.6-1.2,9.3-1.9,14-2.4c2.2-0.2,4.5,0.4,6.8,0.7c0.2,1.8,0.4,3.7,0.6,5.5c-2-0.4-4-0.8-6.1-1.2
	c-0.1,0.4-0.2,0.9-0.3,1.3c2.4,0.8,4.8,1.6,7.2,2.4c0.5,3.6,1.3,7.1,1.3,10.7c0,4.1-0.8,8.1-1.2,12.2c-1.9,1.4-3.7,2.7-5.6,4.1
	c-0.9,0.6-2.5,1.3-2.5,1.9c0,1.1,1.1,2.1,1.7,3.1c-0.2,1-0.7,2-0.7,2.9c0.2,5.4-2.8,7.8-8.6,8.5c-5.9,0.7-13.8-4.1-15.5-13.1
	C692,551.9,692.9,550.2,693.8,548.5z M701.7,522.1c0.1,0.5,0.3,0.9,0.4,1.4c2.6-0.8,5.3-1.6,7.9-2.5c-0.2-0.6-0.4-1.1-0.6-1.7
	C706.9,520.2,704.3,521.2,701.7,522.1z"/>
<path class="st6" d="M721.3,520.8c-0.2-1.8-0.4-3.7-0.6-5.5c4.2-0.9,5.4-4.4,6.8-7.8c0.3,1.6,0.5,3.3,0.8,4.9c0,3,0,6,0,9
	c0,6.7,0,13.3,0,20c0,4.8,0,9.7,0,14.5c0,1.6,0,3.3,0,4.9c-2.1-1.1-4.2-2.3-6.2-3.4c0.1-3.7,0.1-7.4,0.2-11.1
	c0.4-4.1,1.2-8.1,1.2-12.2c0-3.6-0.8-7.1-1.3-10.7C724.6,521.6,721.4,521.8,721.3,520.8z"/>
<path class="st18" d="M680,631.1c-2.6-1.9-5.3-3.7-7.9-5.6c-0.4-3.7-0.8-7.4-1.2-11.1c1-2.7,2-5.4,3.1-8.1c1.9-3.7,3.8-7.4,6-11.9
	c-0.3,3.4-0.6,6.2-0.8,8.9c-0.2,4-0.7,8.1-0.5,12.1C678.9,620.7,679.5,625.9,680,631.1z"/>
<path class="st14" d="M747.5,601.4c0.6,1.7,1.2,3.4,1.9,5.1c0.4,1,1.1,1.8,1.6,2.7c-0.1,0.4-0.1,0.9-0.2,1.3
	c-0.2,0.1-0.2,0.2-0.2,0.3c0,0.5-0.1,1.1-0.1,1.6c-6.1,0-12.3,0-18.5,0c-0.1-1.5-0.2-2.5-0.2-3.5l0,0c0.2-0.2,0.4-0.5,0.6-0.7
	c1.2-0.6,2.4-1.3,3.7-1.9c2.8-1.3,5.6-2.7,8.4-4C745.4,602,746.5,601.7,747.5,601.4z"/>
<path class="st7" d="M731.7,609c0.1,1,0.1,2,0.2,3.5c6.3,0,12.4,0,18.5,0c10.8,0,21.7-0.1,32.5-0.1c5.6,0,11.2,0,16.8,0.1
	c2.2,0,4.5,0.4,6.7,0.6c-1.1,0.3-2.1,0.8-3.2,0.8c-24.5,0-49.1,0-73.6,0c0-0.5,0-0.9,0-1.4C729.9,611.1,729,609,731.7,609z"/>
<path class="st18" d="M736,606.3c-1.2,0.6-2.4,1.3-3.7,1.9c-0.2,0-0.4,0-0.6-0.1c0-5.9,0-11.8,0-17.7c0.4,0,0.8,0,1.2-0.1
	c0.7,4.2,1.4,8.4,2.2,12.6C735.4,604.2,735.7,605.3,736,606.3z"/>
<path class="st8" d="M671.8,558.7c1-2.7,2-5.4,3-8.1c0.3,0,0.6,0,0.8,0c0.6,1.8,1.1,3.5,1.7,5.3
	C675.4,556.8,673.6,557.7,671.8,558.7z"/>
<path class="st16" d="M706.8,648.6c-0.6-0.3-1.3-0.6-1.9-0.9C705.5,648,706.2,648.3,706.8,648.6z"/>
<path class="st16" d="M702.9,646.8c-0.3-0.4-0.7-0.7-1-1.1C702.2,646.1,702.5,646.5,702.9,646.8z"/>
<path class="st7" d="M731.8,608.2c0.2,0,0.4,0,0.6,0.1c-0.2,0.2-0.4,0.5-0.6,0.7C731.7,608.7,731.8,608.5,731.8,608.2z"/>
<path class="st16" d="M700,644.9c-0.2-0.2-0.5-0.4-0.7-0.6C699.5,644.5,699.8,644.7,700,644.9z"/>
<path class="st16" d="M703.5,647.5c-0.2-0.2-0.4-0.4-0.5-0.5C703.1,647.1,703.3,647.3,703.5,647.5z"/>
<path class="st16" d="M701.4,645.7c-0.3-0.2-0.5-0.4-0.8-0.7C700.8,645.2,701.1,645.5,701.4,645.7z"/>
<path class="st22" d="M670.9,614.4c0.4,3.7,0.8,7.4,1.2,11.1c-1.5-1-2.9-2-4.3-3.1c-0.4-0.3-0.8-1.1-0.6-1.4
	C668.3,618.8,669.6,616.6,670.9,614.4z"/>
<path class="st16" d="M707.6,658.9c-0.4-0.2-0.9-0.5-1.3-0.7C706.7,658.4,707.1,658.6,707.6,658.9z"/>
<path class="st6" d="M1176.9,361.7c0-5.9,4.3-10.2,10.4-10.2c6.5,0,10.9,4.1,11,10.2c0.1,5.9-5.1,11.4-10.7,11.1
	C1181,372.6,1176.2,366.7,1176.9,361.7z"/>
<path class="st22" d="M969.9,337.8c-0.4-2.5-0.1-4.6,4.1-4.3c5.7,0.4,7.6,1.2,7.6,4.6c0,4-1.8,5.2-7.7,5.2
	C969.9,343.3,969.9,343.3,969.9,337.8z"/>
<path class="st22" d="M1035.7,333.4c3.2,0.3,6,0.1,8.5,1c1.3,0.5,2.7,2.7,2.8,4.3c0,1.3-1.5,3.5-2.7,3.9c-2.6,0.8-5.5,0.6-8.6,0.9
	C1035.7,339.9,1035.7,337,1035.7,333.4z"/>
<path class="st6" d="M762.8,597.3c-7.6-0.1-7.6-0.1-7.6-7.7c0-31.3,0-62.6,0-93.9c0-1.8,0.4-3.6,0.6-5.4c42.3,0,84.5,0,126.8,0
	c2.2,0,4.3-0.4,6.5-0.6c1.4,0.2,2.8,0.4,4.1,0.6c3-0.2,6-0.4,9-0.6c0.7,0.2,1.4,0.4,2.1,0.6c0,17,0.1,34.1,0.1,51.1
	c-0.1,0.7-0.1,1.4-0.1,2.1c-3.5-0.8-7.1-1.7-10.6-2.5c-1.4-0.3-3.5-0.8-3.1,1.6c1.1,5.6,2.7,11.1,4.2,17.2c1.1-0.9,1.6-1.2,2-1.5
	c3.8-3.9,3.4-4,7.6,0.3c0.2,0.2,0.4,0.6,0.6,0.8c0,2.3,0,4.6-0.1,7c0,5.3,0,10.6,0,15.9c-0.2,2.1-0.4,4.1-0.5,6.2c0,3-0.1,6-0.1,9
	c-3.7,0-7.4,0-11.1,0c-40.3,0-80.5,0-120.8,0c-1.6,0-3.2,0-4.8,0C766.1,597.3,764.4,597.3,762.8,597.3z M837.4,560.8
	c-0.7-0.6-1.2-0.9-1.5-1.4c-5.7-9.9-11.4-19.8-17.1-29.8c-3.5-6.1-6.9-12.1-10.5-18.2c-1.4-2.4-3.5-2.6-4.5-0.6
	c-4.9,9.2-9.8,18.4-14.6,27.6c-5,9.4-9.9,18.8-14.9,28.2c-3.5,6.7-7.1,13.4-10.7,20c-1,1.9-1,3.4,1.7,3.5c0.9,0.1,1.8,0,2.8,0
	c38,0,75.9,0,113.9,0c3.3,0,6.6,0.5,9.9,0.4c1.6-0.1,3.1-1,4.7-1.5c-0.5-1.3-1-2.6-1.6-3.8c-0.5-1-1.3-1.9-2-2.8
	c-10.5-13-21.1-26-31.5-39c-3.2-4-4.5-3.8-8,0.1C848.3,549.6,842.9,555,837.4,560.8z M857.4,515.9c0-9.1-6.9-15.2-14.5-15
	c-9.1,0.3-14.6,6-14.9,15.2c-0.2,7.3,6.7,14.5,15.1,14.3C851,530.2,857.4,523.8,857.4,515.9z"/>
<path class="st22" d="M1112.8,571.7c0,1.1,0,2.3,0,3.4c0,24.4,0,48.8,0,73.2c0,2.8-0.1,5.5-0.1,8.3c-2.2,2.6-5.1,3.2-8.2,2.9
	c-37.5,0-75.1-0.1-112.6-0.1c-18.8,0-37.7,0-56.5,0.1c-3.4-0.3-7.3,1-9.7-2.8c0-27.4-0.1-54.8-0.1-82.2c0.2-5.4,0.9-6.2,6.3-6.2
	c58,0,116,0,173.9,0c0.9,0,2-0.3,2.7,0.1C1110.1,569.3,1111.4,570.6,1112.8,571.7z M1110.7,617.6c0-11.7-0.1-23.5,0.1-35.2
	c0-3.1-0.8-3.8-3.9-3.8c-58.5,0.1-117,0.1-175.6,0c-3.3,0-4.3,1-4.3,4.3c0.1,22.8,0.1,45.5,0.1,68.3c0,1.5,0.2,3,0.7,4.4
	c0.3,0.8,1.4,1.6,2.2,1.7c3.1,0.4,6.1,0.7,9.2,0.7c55.7-0.2,111.4-0.4,167.1-0.6c3.3,0,4.4-1.4,4.4-4.6
	C1110.7,641.1,1110.7,629.4,1110.7,617.6z"/>
<path class="st6" d="M1103.1,486.2c-59.1,0-118.3,0-177.4,0c-2.5,0.1-4.9,0.2-4.2-3.5c0-1.8,0-3.7,0-5.5c0-0.9,0-1.8,0.1-2.7
	c60.4,0,120.8,0,181.2,0c4.5,0,4.5,0,4.5,4.5c0,2.2,0,4.4,0.1,6.6C1105.9,485.7,1104.5,486,1103.1,486.2z"/>
<path class="st22" d="M992,514.5c0,0.5-0.1,0.9-0.1,1.4c-1.4,0-2.7,0-4.1,0c-20.7,0-41.4,0-62.1,0c-1.3-0.1-2.6-0.1-3.8-0.2
	c-0.7-5.9-0.7-5.9,3.8-6c19.3,0,38.7,0,58,0c1.1,0,2.2,0,3.4,0C991.9,509.7,991.9,509.7,992,514.5z"/>
<path class="st6" d="M946.4,524.1c0.5,0,0.9,0,1.4,0c3,0,6,0,9,0c14.3,0,28.5,0,42.8,0c0.7,0,1.4,0,2.1,0c1.4,0,2.8,0,4.1,0
	c3.7,1.1,1.4,4.1,2,6.2c-3,0-5.9,0-8.9,0c-2.3,0-4.6,0-6.9,0c-6,0-12,0-17.9,0c-3.4,0-6.9,0-10.3,0c-3,0-6,0-9,0c-2.3,0-4.6,0-6.9,0
	c-0.7,0-1.4,0-2-0.1C946,528.2,946.2,526.2,946.4,524.1z"/>
<path class="st6" d="M1018.9,495.7c13.1,0,26.2,0,39.3,0c2.6,0,5.2-0.1,7.8,0.1c1.1,0.1,3,0.8,3,1.2c-0.1,1.5-0.7,2.9-1.1,4.4
	c-0.7,0-1.4,0-2.1,0c-0.9,0-1.8,0-2.8,0c-16.8,0-33.6,0-51.1,0c0-2,0-3.8,0-5.6C1014.3,495.8,1016.6,495.8,1018.9,495.7z"/>
<path class="st22" d="M927.8,495.7c14.3,0,28.5,0,42.8,0c5.1,0.2,5.1,0.2,4.2,5c0,0.2,0,0.5,0,0.7c-17.7,0-35.4,0-53.2-0.1
	c0-5.4,0-5.4,5.5-5.5C927.3,495.8,927.6,495.8,927.8,495.7z"/>
<path class="st8" d="M905,559.3c-0.2-0.3-0.4-0.6-0.6-0.8c-4.2-4.3-3.9-4.2-7.6-0.3c-0.4,0.4-0.9,0.7-2,1.5
	c-1.5-6-3.1-11.5-4.2-17.2c-0.5-2.4,1.6-1.9,3.1-1.6c3.5,0.8,7.1,1.7,10.6,2.5c1.4,0.5,2.8,0.9,4.2,1.4c0,0.5,0.1,0.9,0.1,1.4
	c-1,1.4-2,2.8-3,4.2c0.4,0.9,0.5,2,1.1,2.7c2.6,2.7,5.3,5.2,7.9,7.8c-0.5,1.1-0.9,2.2-1.4,3.3l0,0c-0.9,0.2-1.8,0.5-2.6,0.7
	C908.7,563,906.9,561.1,905,559.3z"/>
<path class="st6" d="M963.7,544.2c-12.7,0-25.3,0-38,0c-1.3-0.1-2.6-0.2-3.9-0.3c-0.5-5.3-0.5-5.3,4.1-5.3c12.2,0,24.4,0,36.5,0
	c1.2,0,2.4,0.1,3.8,0.2C966.2,541.3,967.6,544,963.7,544.2z"/>
<path class="st22" d="M982.4,553.1c0,1.8-0.1,3.7-0.1,5.5c-12.4,0-24.8,0-37.2,0c0-2.1,0-4.1,0-6.2c0.9,0,1.8,0,2.7,0
	c1.8,0,3.7,0,5.5,0c8.1,0,16.1,0,24.2,0C979.1,552.6,980.7,552.9,982.4,553.1z"/>
<path class="st22" d="M1025.1,524.1c1.6,0,3.2,0,4.8,0c6.1,0,12.2,0,18.4,0c0.1,1.7,0.2,3,0.3,4.2c0.1,2-1.3,2.1-2.8,2.1
	c-5.4,0-10.8,0-16.2,0c-2.7,0-5.3,1.8-8,0c-2.1,0-4.1,0-6.2,0c-0.7,0-1.4,0-2,0c0-0.8,0.1-1.6,0-2.4c-0.5-3.1,0.8-4.1,3.8-3.8
	C1019.8,524.3,1022.5,524.1,1025.1,524.1z"/>
<path class="st22" d="M1070.7,509.6c9.7,0,19.3,0,29,0c0,2,0,4.1,0,6.1c-10.1,0-20.2,0-30.4,0c-2.3,0.1-4.4,0.4-4.3-3.3
	s2.3-2.8,4.3-2.9C1069.8,509.6,1070.2,509.6,1070.7,509.6z"/>
<path class="st6" d="M1107.3,495.8c-0.1,6.2,0.8,5.5-5.4,5.5c-9.5,0-19,0-28.4,0c0.1-6.4-0.7-5.5,5.6-5.6c1.1,0,2.3,0,3.4-0.1
	c4.6,0,9.2,0,13.8,0C1099.9,495.8,1103.6,495.8,1107.3,495.8z"/>
<path class="st22" d="M1027.2,509.7c0,0.4,0.1,0.9,0.1,1.3c-0.1,4.8-0.1,4.8-5,4.8c-0.7,0-1.3,0-2,0c-5.5,0-11,0-16.6,0
	c-3.1,0.5-4.5-0.5-4.2-4c0.4-3.8,3.2-1.6,4.9-2.2c5.3,0,10.6,0,15.9,0C1022.6,509.7,1024.9,509.7,1027.2,509.7z"/>
<path class="st22" d="M1061,510.3c-0.8,1.8,1.9,4.9-2.1,5.5c-5.5,0-11,0-16.6,0c-1.4,0-2.8,0-4.1,0c-1.6,0-3.2,0-4.8,0
	c-0.1-7.5-0.6-6,5.9-6.2c0.8,0,1.6,0,2.4,0c5.4,0,10.7,0,16.1,0C1058.8,509.7,1059.9,510.1,1061,510.3z"/>
<path class="st6" d="M1021.7,544.2c-6.4,0-12.9,0-19.3,0c-0.7,0-1.4,0-2.1,0c-0.7,0-1.4,0-2.1,0c-0.5,0-0.9,0-1.4,0s-0.9,0-1.4-0.1
	c0-1.8,0-3.7,0-5.5c1.2,0,2.3-0.1,3.5-0.1c8.4,0,16.9,0,25.2,0C1025,543.8,1025,543.8,1021.7,544.2z"/>
<path class="st22" d="M936.8,524.1c0.9,0,1.8,0,2.8,0c2.6,1,2.9,3.6,0.7,6.3c-0.9,0-1.8,0-2.8,0c-0.9,0-1.8,0-2.8,0
	c-3.2,0-6.4,0-9.7,0c-0.7,0-1.4,0-2.1,0c-0.4,0-0.9,0-1.3,0c0-1.9,0-3.8,0-6.2c2.1,0,3.8,0,5.5,0c1.8,0,3.7,0,5.5,0
	C934,524.1,935.4,524.1,936.8,524.1z"/>
<path class="st6" d="M985.8,495.7c4.6,0,9.2,0,13.8,0c4.6,0.2,5.2,1.1,3.5,5.7c-6.9,0-13.8-0.1-20.7-0.1c0-1.7,0-3.5,0-5.3
	C983.8,495.9,984.8,495.8,985.8,495.7z"/>
<path class="st22" d="M934.7,552.4c4.2,0.2,4.3-1.2,4.1,6.2c-5.6,0-11.2,0-17,0c0-2.2,0-4,0-6.2
	C926.3,552.4,930.5,552.4,934.7,552.4z"/>
<path class="st22" d="M988.5,538c0,7.4,0.8,6-6.2,6.2c-0.9,0-1.8,0-2.8,0c-6.2,0-6.2,0-6.2-6.1C978.4,538,983.5,538,988.5,538z"/>
<path class="st22" d="M1080.3,461.3c0.5-0.6,1-1.2,1.5-1.8c0.4,0.6,0.8,1.2,1.2,1.8C1082.2,461.3,1081.2,461.3,1080.3,461.3z"/>
<path class="st22" d="M728.2,467.5c0,0.5,0,0.9,0.1,1.4c-0.2,0-0.4,0-0.6,0.1C727.9,468.5,728.1,468,728.2,467.5z"/>
<path class="st22" d="M1078.9,456.5c5.5-2.3,6.3-5.1,2.8-9.6c3.1,0.7,4.3,3.3,3.4,7.5c-0.6,2.4-3.1,3.8-5.8,3.1
	C1079.1,457.3,1079.1,456.8,1078.9,456.5z"/>
<path class="st22" d="M1114.1,456.4c4.1-3.9,4.3-4.5,2.1-8.9c2.6,0.6,3.7,3.1,2.7,7C1118.2,457.2,1116.1,456.8,1114.1,456.4z"/>
<path class="st22" d="M1074.9,446.9c-2,3-1.2,5.9,0,8.9c-1.1-2-2.6-3.9-3.2-6.1C1071.5,449.1,1073.7,447.8,1074.9,446.9z"/>
<path class="st22" d="M732.5,461.3c-1.1,0.5-2.3,0.9-3.4,1.4c0.6-1.1,1.3-2.2,1.9-3.2C731.4,460.1,731.9,460.7,732.5,461.3z"/>
<path class="st22" d="M1107.9,448.2c-0.2,0.9-0.5,1.8-0.7,2.8c-0.4-0.5-0.9-1-1.3-1.6C1106.6,449,1107.3,448.6,1107.9,448.2z"/>
<path class="st22" d="M1114.1,446.1c-0.5,0-0.9,0-1.4-0.1c0.2-0.3,0.4-0.7,0.6-1C1113.6,445.4,1113.9,445.8,1114.1,446.1z"/>
<path class="st22" d="M728.3,464.1c0,0.5,0,0.9-0.1,1.4c-0.3-0.2-0.7-0.4-1-0.6C727.6,464.6,728,464.4,728.3,464.1z"/>
<path class="st22" d="M727.7,493.1c0,0.7,0,1.4,0,2.1C727.7,494.5,727.7,493.8,727.7,493.1z"/>
<path class="st22" d="M1109.3,446.2c-0.1-0.1-0.2-0.2-0.3-0.3C1109.2,446,1109.3,446.1,1109.3,446.2
	C1109.4,446.2,1109.3,446.2,1109.3,446.2z"/>
<path class="st10" d="M750.8,642.5c0.8,6,2.6,8.4,6.4,8.6c5.1,0.3,8.1-2.2,9.7-8.8c7,0.7,14.1,1.4,21.2,2.2c1.6,0.2,3.1,0.8,4.7,1
	c3,0.3,3.6,1.9,2.9,4.5c-1.4,5.5-2.8,11.1-4.2,16.6c-0.6,2.4-2.3,2.9-4.3,3c-2.6,0.1-5.3,0-7.9,0c-20.5,0-40.9,0-61.4,0
	c-4.3,0-4.4-0.3-3.3-4.3c2.3-8.7,4.6-17.4,6.8-26.2c0.5-1.9,1.1-2.9,3.5-2.3c8.2,1.9,16.5,3.5,24.7,5.2
	C750,642.2,750.3,642.4,750.8,642.5z"/>
<path class="st8" d="M753.8,644.3c0-3.4,2.3-5.6,5.8-5.6c2.9,0,4.6,1.6,4.5,4.3c0,3-3.2,6.1-6,6
	C755.8,648.9,753.9,646.8,753.8,644.3z"/>
<path class="st7" d="M750.6,610.9c0-0.2,0.1-0.3,0.2-0.3C750.9,610.7,750.8,610.8,750.6,610.9z"/>
<path class="st7" d="M1073.4,734.6c0-1.1,0-2.2,0-3.3c10.3,0,20.6-0.1,30.9-0.1c2.3,0,4.6,0,7,0c0,1.1,0,2.2,0.1,3.3
	c-2.3,0-4.6,0-7,0C1094.1,734.6,1083.7,734.6,1073.4,734.6z"/>
<path class="st22" d="M1111.4,734.6c0-1.1,0-2.2-0.1-3.3c12.7,0,25.5,0.1,38.2,0.1c-0.1,1.1-0.1,2.1-0.2,3.2
	C1136.7,734.6,1124,734.6,1111.4,734.6z"/>
<path class="st11" d="M1146.5,767.1c1.9-2.3,3.9-4.4,5.6-6.9c3.4-5,6.6-10.2,9.8-15.2c2.9,0,5.9,0,8.8,0c-2.3,5.2-4.5,10.4-7,15.5
	c-1.5,2.9-3.6,5.5-5.4,8.3c-1.6,0.4-3.2,0.9-4.7,1.3C1151.2,769.1,1148.8,768.1,1146.5,767.1z"/>
<path class="st15" d="M1153.5,770.1c1.6-0.4,3.2-0.9,4.7-1.3c6.1,1.4,12.2,2.8,18.3,4.1c-1.5,2.2-3.1,4.3-4.6,6.5
	c-0.4-1.8-1.5-2.5-3.3-3.2C1163.5,774.4,1158.5,772.2,1153.5,770.1z"/>
<path class="st8" d="M1162.6,742.2c3,0,5.9,0.1,8.9,0.1c-0.3,0.9-0.5,1.8-0.8,2.7c-2.9,0-5.9,0-8.8,0
	C1162.1,744.1,1162.3,743.1,1162.6,742.2z"/>
<path class="st22" d="M1166,731.9c2.3-0.2,4.6-0.4,6.9-0.7c-0.1,1.2-0.1,2.3-0.2,3.5c-2.5,0-5,0-7.5-0.1
	C1165.5,733.7,1165.7,732.8,1166,731.9z"/>
<path class="st22" d="M1172.3,738.3c0.1-0.3,0.2-0.6,0.3-0.9C1172.5,737.7,1172.4,738,1172.3,738.3z"/>
<path class="st20" d="M1149.3,805.3c-0.2,0-0.5,0-0.7,0c-6.1-2.9-12.3-5.8-18.4-8.7c-3.1-4-4-8.6-4.1-13.5c1.6-1,3.3-2,4.9-3
	c1.4,0.3,2.7,0.5,4.1,0.8c0.2-1.7,0.3-3,0.4-4.3v0.1c0.3-0.2,0.5-0.5,0.8-0.7l0,0c3.3-0.4,5.8,0.8,8.3,3c2.2,2,5,3.4,7.4,5
	c-0.3,0.3-1,0.9-1.7,1.6c1.2,0.8,2.4,1.6,4.1,2.6c-1.3,0.6-2.5,1-3.5,1.7c-0.7,0.5-1.2,1.5-1.7,2.2l-0.2-0.2
	c-0.3,0.5-0.5,1.1-0.8,1.6c-0.2,0.8-0.4,1.5-0.7,3c2.2-1.6,3.9-2.7,5.5-3.8c0.2,0.1,0.4,0,0.6-0.1c0.2,0,0.4,0,0.6,0
	c0.4,0.2,0.9,0.4,1.3,0.6l-0.1,0.1h0.3c-0.2,0.4-0.4,0.8-0.6,1.1c-2.4,2.2-3.2,4.9-3.3,9.5c2.2-4.1,2.8-1.4,3.8-0.3
	c0.9-1.4,1.7-2.6,2.5-3.9c0.5,0.9,0.8,1.5,1,1.9c2-2,4-3.9,6-5.8c3.2,1,6.2,2.1,7.4,5.7c-6,3.1-12.6,3.3-19.2,3.5
	C1151.7,805.1,1150.5,805.2,1149.3,805.3z"/>
<path class="st9" d="M1172.1,801.6c-1.2-3.6-4.2-4.7-7.4-5.7c0.5-0.6,1-1.2,1.4-1.7c0.2-0.2,0.3-0.4,0.5-0.6
	c0.6-0.8,1.3-1.6,1.9-2.3l0,0c1.7-1.1,3.3-2.2,5-3.3l0,0c0.7-0.5,1.4-0.9,2.1-1.4c0.2,0,0.4-0.1,0.5-0.3c0.6-0.2,1.1-0.3,1.7-0.5
	c0.4-0.2,0.7-0.5,1.1-0.7l0,0c0.3-0.3,0.6-0.5,0.9-0.8c0.2-0.2,0.4-0.4,0.7-0.6c0.5-0.3,1-0.6,1.4-0.9c0.3-0.2,0.5-0.4,0.8-0.6
	c0.4-0.3,0.7-0.7,1.1-1c0.6-0.6,1.1-1.2,1.7-1.8c0.2-0.2,0.3-0.4,0.5-0.5c0.4-0.1,0.8-0.3,1.1-0.4c1.7,0.8,3.4,2.2,5.1,2.1
	c2.8-0.2,5.6-1.7,8.4-2.1c8.9-1.2,17.1-4.6,25.4-7.9c-2.6,2.1-5,4.4-7.8,6.1c-3.9,2.4-8.2,4.2-12,6.7c-4,2.6-7.7,5.7-11.6,8.5
	c-1.2,0.9-2.8,1.2-4.2,1.9c-5.4,2.6-10.8,5.2-16.2,7.9C1173.5,801.6,1172.8,801.6,1172.1,801.6z"/>
<path class="st9" d="M1149,792.1c0.6-0.8,1-1.7,1.7-2.2c1-0.7,2.2-1.1,3.5-1.7c-1.7-1.1-2.9-1.9-4.1-2.6c0.7-0.7,1.5-1.3,1.7-1.6
	c-2.4-1.6-5.2-3-7.4-5c-2.5-2.2-5-3.4-8.3-3c3.4-3,6.9-5.9,10.3-8.9c2.3,1,4.7,2,7,3c5,2.1,10,4.4,15.1,6.2c1.8,0.6,2.9,1.4,3.3,3.2
	c-1.8,2.5-3.6,5-5.4,7.5c-1.6,0.5-3.3,0.9-4.9,1.4C1157.4,789.6,1153.2,790.9,1149,792.1z"/>
<path class="st17" d="M1193.4,773.7c1.5-1.7,2.9-3.5,4.5-5.1c5.9-5.9,11-12.3,14.3-20c0.3-0.7,1.2-1.2,1.9-1.8
	c3.3,7.3,6.6,14.7,9.8,22C1214,771.7,1203.9,773.8,1193.4,773.7z"/>
<path class="st2" d="M1224,768.9c-3.3-7.3-6.6-14.7-9.8-22c0-0.4,0-0.8,0-1.2c2.6-0.2,5.1-0.4,7.7-0.7c3.2-0.4,6.1,0.1,8.3,2.8
	c1.2,5.9,2.3,11.8,3.5,17.7c-1.6,1.1-3.3,2.1-4.9,3.2C1227.1,768.7,1225.5,768.8,1224,768.9z"/>
<path class="st15" d="M1224,768.9c1.6-0.1,3.1-0.2,4.7-0.2c-0.9,0.6-1.8,1.3-2.7,1.9c-8.2,3.3-16.4,6.7-25.4,7.9
	c-2.9,0.4-5.6,1.9-8.4,2.1c-1.6,0.1-3.4-1.4-5.1-2.1c0.3-0.4,0.5-0.7,0.8-1.1c1.8-1.2,3.7-2.5,5.5-3.7
	C1203.9,773.8,1214,771.7,1224,768.9z"/>
<path class="st12" d="M1166.2,794.1c-0.5,0.6-1,1.2-1.4,1.7c-2,1.9-3.9,3.9-6,5.8c-0.2-0.3-0.5-1-1-1.9c-0.8,1.3-1.6,2.5-2.5,3.9
	c-1-1.1-1.6-3.8-3.8,0.3c0.1-4.6,0.9-7.3,3.3-9.5c0.1,0.3,0.3,0.9,0.3,0.9c2.6-0.7,5.1,2.4,7.8,0
	C1163.7,794.7,1165.1,794.6,1166.2,794.1z"/>
<path class="st12" d="M1149,792.1c4.2-1.3,8.4-2.5,12.7-3.8c1.6-0.5,3.3-0.9,4.9-1.4c-1,0.7-1.9,1.7-3.1,2.1c-3,0.9-6.2,1.4-9.2,2.2
	c-0.6,0.2-1,1-1.5,1.5c-1.6,1.1-3.2,2.3-5.5,3.8c0.4-1.5,0.6-2.2,0.7-3c0.3-0.5,0.5-1.1,0.8-1.6L1149,792.1z"/>
<path class="st12" d="M1182.8,782.2c-0.3,0.2-0.5,0.4-0.8,0.6c-0.5,0.1-0.9,0.2-1.4,0.3c-0.1-0.1-0.2-0.2-0.2-0.2
	c1.7-1.1,3.4-2.3,5.2-3.4c-0.6,0.6-1.1,1.2-1.7,1.8C1183.5,781.6,1183.1,781.9,1182.8,782.2z"/>
<path class="st12" d="M1173.6,787.9c-1.7,1.1-3.3,2.2-5,3.3C1170.3,790.1,1172,789,1173.6,787.9z"/>
<path class="st12" d="M1177.9,785.7c-0.6,0.2-1.1,0.3-1.7,0.5c1.4-1.1,2.7-2.2,4.1-3.3c0.1,0.1,0.2,0.2,0.2,0.2
	c0,0.2-0.1,0.3-0.1,0.5c-0.2,0.2-0.4,0.4-0.7,0.6c-0.3,0.3-0.6,0.5-0.9,0.8l0,0C1178.7,785.2,1178.3,785.4,1177.9,785.7z"/>
<path class="st12" d="M1168.6,791.2c-0.6,0.8-1.3,1.6-1.9,2.3C1167.3,792.8,1168,792,1168.6,791.2z"/>
<path class="st12" d="M1187.9,777.4c-0.3,0.4-0.5,0.7-0.8,1.1c-0.4,0.1-0.8,0.3-1.1,0.4C1186.6,778.4,1187.3,777.9,1187.9,777.4z"/>
<path class="st12" d="M1175.7,786.5c-0.7,0.5-1.4,0.9-2.1,1.4C1174.3,787.4,1175,787,1175.7,786.5z"/>
<polygon class="st12" points="1155.4,793.4 1155.1,793.4 1155.3,793.4 "/>
<path class="st12" d="M1154,792.7c-0.2,0-0.4,0-0.6,0C1153.6,792.6,1153.8,792.6,1154,792.7z"/>
<path class="st9" d="M1135.5,776.6c-0.1,1.3-0.2,2.6-0.4,4.3c-1.4-0.3-2.7-0.5-4.1-0.8C1132.5,778.9,1134,777.8,1135.5,776.6z"/>
<path class="st9" d="M1136.2,776c-0.3,0.2-0.5,0.5-0.8,0.7C1135.7,776.5,1136,776.2,1136.2,776z"/>
<path class="st4" d="M1178.9,655.2c2.7,0.4,5.4,0.8,8.1,1.3c0.1,0.5,0.3,0.9,0.4,1.4c-1.4,0.7-3,2.2-4.2,2c-1.8-0.3-3.3-2-5-3
	C1178.4,656.3,1178.6,655.7,1178.9,655.2z"/>
<path class="st8" d="M1201.5,589.1c1.3-1.5,2.2-2.5,3.1-3.5c0.7,1.1,2,2.3,1.9,3.3c-0.1,1.4-1.3,2.8-2,4.2
	C1203.6,591.9,1202.8,590.8,1201.5,589.1z"/>
<path class="st8" d="M1194,589.5c-1.4,1.6-2.3,2.6-3.2,3.6c-0.7-1.4-1.8-2.7-1.9-4.2c-0.1-1.1,1.2-2.2,1.9-3.4
	C1191.6,586.7,1192.6,587.8,1194,589.5z"/>
<path class="st15" d="M1172.1,801.6c0.7,0,1.4,0,2.1,0c-0.5,0.7-0.9,1.4-1.4,2.1c-0.9,0.5-1.9,1-2.8,1.5c-5.5,0.3-10.9,0.7-16.4,0.9
	c-1.4,0.1-2.9-0.4-4.3-0.6c1.2-0.1,2.5-0.2,3.7-0.3C1159.5,804.8,1166.1,804.7,1172.1,801.6z"/>
<path class="st1" d="M1130.2,796.6c6.1,2.9,12.3,5.8,18.4,8.7c-5.7,0.2-11.4,0.3-17.1,0.5c-0.6-2.2-1.4-4.3-1.8-6.5
	C1129.5,798.5,1130,797.5,1130.2,796.6z"/>
<path class="st15" d="M1170,806.5c0,0.2-0.1,0.4-0.1,0.6C1169.8,806.8,1169.9,806.6,1170,806.5z"/>
<path class="st9" d="M701.7,522.1c2.6-0.9,5.2-1.9,7.8-2.8c0.2,0.6,0.4,1.1,0.6,1.7c-2.6,0.8-5.3,1.6-7.9,2.5
	C702,523,701.8,522.6,701.7,522.1z"/>
<path class="st9" d="M721.3,520.8c0.1,0.9,3.3,0.8,0.8,2.5c-2.4-0.8-4.8-1.6-7.2-2.4c0.1-0.4,0.2-0.9,0.3-1.3
	C717.3,520.1,719.3,520.4,721.3,520.8z"/>
<path class="st9" d="M1148.8,792c-0.3,0.5-0.5,1.1-0.8,1.6C1148.3,793.1,1148.6,792.5,1148.8,792z"/>
<path class="st15" d="M1180.5,783.7c0-0.2,0-0.4,0.1-0.5c0.5-0.1,0.9-0.2,1.4-0.3C1181.5,783.1,1181,783.4,1180.5,783.7z"/>
<path class="st15" d="M1179,785c0.3-0.3,0.6-0.5,0.9-0.8C1179.6,784.5,1179.3,784.7,1179,785z"/>
<path class="st15" d="M1182.8,782.2c0.4-0.3,0.7-0.7,1.1-1C1183.5,781.6,1183.1,781.9,1182.8,782.2z"/>
<path class="st15" d="M1177.9,785.7c0.4-0.2,0.7-0.5,1.1-0.7C1178.7,785.2,1178.3,785.4,1177.9,785.7z"/>
<path class="st6" d="M768.2,586.6c12.6-23.8,25-47,37.7-71c3.9,6.6,7.3,12.4,10.6,18.1c6,10.3,12,20.6,18,30.9
	c1.5,2.6,3.1,1.8,4.7,0.1c5.2-5.4,10.3-10.8,15.5-16.2c0.8-0.8,1.6-1.6,2.9-2.8c10.9,13.5,21.7,26.8,33,40.8
	C849.3,586.6,809.1,586.6,768.2,586.6z"/>
<path class="st6" d="M853.3,515.6c0,6.5-4.2,10.7-10.8,10.6c-5.1,0-10.7-5.2-10.5-9.9c0.2-6.5,5-11.6,10.8-11.5
	C848.5,504.9,853.3,509.7,853.3,515.6z"/>
<path class="st22" d="M1047.7,653.2c-17.8,0-35.6-0.1-53.5,0.1c-2.9,0-3.7-0.8-3.7-3.7c0.1-20.3,0.1-40.7,0-61
	c0-2.8,0.6-3.7,3.6-3.7c35.6,0.1,71.3,0.1,106.9,0c2.7,0,3.5,0.8,3.5,3.5c-0.1,20.5-0.1,40.9,0,61.4c0,3-1.1,3.6-3.8,3.6
	C1083.1,653.1,1065.4,653.2,1047.7,653.2z M1072.7,627.3c0-6.1,0-12.2,0-18.3c0-1.5,0-2.8-2.1-2.8c-6,0.1-12-0.1-17.9,0.1
	c-0.7,0-2,1.3-2,1.9c-0.1,12.5-0.1,25.1,0,37.6c0,0.8,1.4,2.3,2.2,2.3c5.5,0.2,11,0.2,16.6,0c2.2,0,3.4-1.1,3.3-3.7
	C1072.6,638.8,1072.8,633.1,1072.7,627.3z M1018.9,627c0-6-0.1-11.9,0-17.9c0-2.1-0.6-2.9-2.8-2.8c-5.5,0.1-11,0.1-16.5,0
	c-2.4-0.1-2.9,0.9-2.9,3c0.1,11.8,0.1,23.7,0,35.5c0,2.2,0.6,3,2.9,3c5.4-0.1,10.8-0.2,16.2,0c2.5,0.1,3.1-0.9,3.1-3.2
	C1018.8,638.7,1018.9,632.8,1018.9,627z M1047.7,595.9c15.9,0,31.7-0.1,47.6,0.1c3.2,0,3.8-1.1,3.8-4c0-2.8-0.7-3.7-3.6-3.7
	c-31.7,0.1-63.4,0.1-95.1,0c-3,0-3.6,1-3.6,3.8c0,2.9,0.7,4,3.8,3.9C1016.3,595.8,1032,595.9,1047.7,595.9z M1048.1,599.4
	c-10.6,0-21.1,0-31.7,0c-5.6,0-11.3,0-16.9,0c-1.5,0-2.7,0-2.7,2.1s1.4,2,2.8,2c0.3,0,0.7,0,1,0c31.5,0,63,0,94.5,0
	c0.8,0,1.7,0.2,2.4-0.1c0.6-0.3,1.5-1.2,1.4-1.8c-0.1-0.8-0.8-1.7-1.5-2.1c-0.7-0.4-1.8-0.1-2.7-0.1
	C1079.1,599.4,1063.6,599.4,1048.1,599.4z M1076.2,627.3c0,6.3,0,12.6,0,19c0,1.7,0.2,2.8,2.4,2.8c6.3-0.1,12.6-0.1,19,0
	c2.1,0,2.8-0.9,2.8-2.9c0-12.6-0.1-25.3,0-37.9c0-2.2-0.9-2.7-2.9-2.7c-6.2,0.1-12.4,0.1-18.6,0c-2.2,0-2.8,0.8-2.7,2.8
	C1076.2,614.7,1076.2,621,1076.2,627.3z M1047.3,605.6c-7.6,0-14.6-0.1-21.6,0.1c-0.7,0-1.9,1.5-2,2.3c-0.1,12.9-0.1,25.7-0.1,38.6
	c0,2,0.7,2.6,2.6,2.6c6.1-0.1,12.2-0.1,18.2,0c2.6,0.1,3.3-1.1,3.3-3.5c-0.1-9.5,0-19-0.1-28.6
	C1047.8,613.4,1047.5,609.7,1047.3,605.6z"/>
<path class="st6" d="M955.4,618.9c0,10.3-0.1,20.7,0.1,31c0,2.6-0.7,3.4-3.3,3.3c-5.7-0.2-11.5-0.1-17.2,0c-2.2,0-3-0.5-3-2.9
	c0.1-20.9,0.1-41.8,0-62.7c0-2.1,0.6-2.8,2.8-2.8c6,0.1,11.9,0.1,17.9,0c2.4-0.1,2.9,0.9,2.9,3C955.4,598.2,955.4,608.6,955.4,618.9
	z"/>
<path class="st22" d="M972.3,622.8c-3.1,0-6.2-0.1-9.3,0c-2.1,0.1-3-0.6-2.8-2.7c0.1-1,0.1-2.1,0-3.1c-0.1-1.7,0.4-2.5,2.3-2.5
	c6.5,0.1,13.1,0,19.6,0.1c0.8,0,1.8,1.2,2.1,2.1c0.4,1,0,2.3,0.1,3.4c0.2,2.2-0.8,2.8-2.8,2.7C978.5,622.7,975.4,622.8,972.3,622.8z
	"/>
<path class="st22" d="M972.3,637.3c-3.1,0-6.2-0.1-9.3,0c-2.1,0.1-2.8-0.6-2.8-2.7c-0.1-5.5-0.2-5.6,5.4-5.6c4.9,0,9.9,0.2,14.8-0.1
	c3.4-0.2,4.6,1.1,4,4.3c-0.1,0.6-0.1,1.1,0,1.7c0.2,1.8-0.7,2.4-2.4,2.4C978.7,637.3,975.5,637.3,972.3,637.3z"/>
<path class="st6" d="M972.3,607.7c-3.1,0-6.2-0.2-9.3,0c-2.8,0.2-3-1.4-2.8-3.4c0.2-1.8-1-4.4,2.6-4.3c6.3,0.1,12.6,0.1,18.9,0
	c3.7-0.1,2.4,2.5,2.6,4.3c0.2,2,0,3.6-2.8,3.4C978.5,607.5,975.4,607.7,972.3,607.7z"/>
<path class="st6" d="M972.1,651.8c-3.2,0-6.4-0.1-9.6,0c-2.9,0.1-2.3-2.1-2.2-3.6c0.1-1.6-1.1-4,2.1-4c6.7,0,13.3-0.1,20,0
	c3.4,0.1,1.7,2.8,2,4.4c0.3,1.6,0.3,3.3-2.2,3.2C978.8,651.7,975.4,651.8,972.1,651.8z"/>
<path class="st6" d="M1098.3,627.3c0,5.4-0.1,10.8,0,16.2c0.1,2.8-1,3.6-3.6,3.6c-4.5-0.1-9-0.1-13.4,0c-2.2,0.1-3-0.6-3-2.9
	c0.1-11.3,0.1-22.5,0-33.8c0-2.1,0.8-2.8,2.8-2.7c4.8,0.1,9.7,0.1,14.5,0c2.1,0,2.8,0.7,2.8,2.8
	C1098.2,616,1098.3,621.6,1098.3,627.3z"/>
<path class="st6" d="M1045.8,627.3c0,5.5-0.1,11,0,16.5c0.1,2.3-0.5,3.3-3,3.2c-4.8-0.2-9.6-0.1-14.5,0c-2,0-2.6-0.7-2.6-2.6
	c0.1-11.4,0.1-22.7,0-34.1c0-2.2,0.8-2.7,2.9-2.7c4.8,0.1,9.6,0.1,14.5,0c2.1-0.1,2.8,0.7,2.8,2.8
	C1045.7,616,1045.8,621.6,1045.8,627.3z"/>
</svg>
