<?xml version="1.0" encoding="utf-8"?>
<!-- Generator: Adobe Illustrator 24.1.0, SVG Export Plug-In . SVG Version: 6.00 Build 0)  -->
<svg version="1.1" id="Calque_1" xmlns="http://www.w3.org/2000/svg" xmlns:xlink="http://www.w3.org/1999/xlink" x="0px" y="0px"
	 viewBox="0 0 1920 1080" style="enable-background:new 0 0 1920 1080;" xml:space="preserve">
<g>
	<path d="M947.1,511.4c-2.9,0-5.8,0-8.7,0c-0.2,0-0.5,0.3-0.5,0.5c-1.2,4.1-4.6,2.5-7.3,2.8c-0.3,0-0.7-0.1-1-0.2
		c-2.4-1.8-1.3-4.4-1.3-6.7c0-1.8,1.4-2.4,2.9-2.4c1.3,0,2.7-0.1,4,0.1c0.7,0.1,1.7,0.6,1.8,1.1c0.6,2.8,2.6,2.5,4.7,2.5
		c3.8,0,7.7,0,11.5,0c1.4,0,2.5-0.1,3.1-1.8c0.2-0.7,1.4-1.7,2.1-1.7c2.7,0,6-1.4,7.3,2.7c0.1,0.4,1.2,0.8,1.9,0.8
		c4.7,0.1,9.3,0.1,14,0c0.8,0,1.9-0.9,2.3-1.6c1.1-1.9,3.4-2.6,6.9-1.9c2.2,0.4,2.5,1.9,2.4,3.7c0,0.8,0,1.7,0,2.5
		c0,2-0.9,3.1-3,3.1c-1.3,0-2.7,0-4-0.1c-0.5,0-1.4-0.3-1.5-0.7c-1.2-3.9-4.4-2.7-7-2.8c-1.1-0.1-2.2,0.2-3.3,0.3
		c-0.1,0.2-0.1,0.4-0.2,0.6c0.6,0.5,1.2,1,1.9,1.4c6,3.8,10.1,9.1,12.2,15.9c0.5,1.5,1,2.7,3,2.8c0.6,0,1.6,0.9,1.7,1.5
		c0.2,2,0.3,4,0,5.9c-0.1,0.6-1.2,1.5-1.9,1.6c-1.6,0.2-3.3,0.2-5,0c-0.6,0-1.3-0.5-1.6-1c-1.2-1.5-0.4-6.8,0.9-8.1
		c0.5-0.6,1-1.8,0.8-2.5c-3.1-9.1-9.4-15-18.6-17.6c-0.6-0.2-1.6,0.2-2.1,0.7c-2.3,2.7-7.2,2.7-9.5,0.1c-0.5-0.5-1.6-0.9-2.3-0.8
		c-9,2.6-15.2,8.4-18.3,17.3c-0.3,0.8,0.3,2.2,0.9,2.9c1.3,1.5,2.1,7.3,0.5,8c-2,0.9-4.6,0.9-6.9,0.7c-0.7-0.1-1.4-2.1-1.7-3.4
		c-0.3-1-0.2-2.2,0.1-3.2c0.2-0.9,1-2.2,1.6-2.2c2.5-0.1,2.8-1.9,3.4-3.6c2.2-6.5,6.2-11.5,12-15.2c0.7-0.4,1.3-0.9,1.9-1.4
		C947.2,511.9,947.2,511.6,947.1,511.4z M932.8,507.6c-1.8-0.3-2.5,0.5-2.5,2.4c0,1.9,0.7,2.6,2.6,2.6c2,0,2.6-0.8,2.6-2.7
		C935.5,508.2,934.8,507.4,932.8,507.6z M935.4,536.8c0.2-1.7-0.4-2.7-2.3-2.7c-1.7,0-2.9,0.3-2.8,2.4c0,1.8,0.4,2.8,2.5,2.8
		C934.5,539.3,935.7,538.8,935.4,536.8z M986,536.7c-0.2,1.8,0.6,2.6,2.4,2.6c1.9,0,2.7-0.6,2.7-2.6c0-1.8-0.6-2.6-2.5-2.6
		C986.8,534.1,985.8,534.7,986,536.7z M988.6,512.6c2,0.3,2.5-0.8,2.5-2.6c0-1.9-0.8-2.4-2.6-2.4c-2,0-2.6,0.8-2.6,2.7
		C986,512.1,986.8,512.8,988.6,512.6z M963.2,509.9c0.3-1.9-0.8-2.3-2.5-2.3c-2-0.1-2.6,0.8-2.6,2.7c0,1.8,0.8,2.4,2.6,2.4
		C962.7,512.7,963.4,511.9,963.2,509.9z"/>
	<path d="M958.6,523.8c-0.6,1-1.2,1.9-1.8,2.9c-4.2,7.2-8.3,14.4-12.6,21.6c-1.1,1.8-0.7,2.7,0.7,4.2c1.8,2,3.1,4.6,4.4,7.1
		c0.2,0.4-0.3,1.3-0.5,1.9c-0.5-0.4-1.3-0.8-1.5-1.3c-0.8-3.1-2.7-5.4-5.1-7.2c-1.6-1.2-1.8-2.6-0.9-4.1
		c5.6-9.7,11.2-19.5,16.9-29.2c1.4-2.4,3.3-2.4,4.8,0.1c5.6,9.6,11.2,19.3,16.8,29c1,1.7,0.9,3.1-0.9,4.3c-2.4,1.7-4.2,4-5,7
		c-0.2,0.6-0.9,1-1.4,1.5c-0.2-0.7-0.7-1.5-0.6-2.1c0.6-3,2.3-5.5,4.8-7.4c1.1-0.8,1.5-1.7,0.7-3c-4.7-8.1-9.3-16.1-14-24.2
		c-0.2-0.3-0.5-0.6-1.2-1.4c-0.2,1.3-0.5,2.2-0.5,3.1c0,5.4-0.1,10.8,0.1,16.2c0,1.2,0.8,2.6,1.7,3.5c2,2,2.4,4.9,0.5,6.9
		c-1.8,1.9-4.8,1.9-6.7,0c-1.9-1.9-1.8-5.1,0.5-6.8c1.4-1.1,1.8-2.2,1.8-3.8c-0.1-5.4,0-10.8,0-16.2c0-0.8-0.2-1.6-0.3-2.4
		C959.1,524,958.8,523.9,958.6,523.8z M960.8,546.6c-1.2,1.5-2.4,2.4-2.4,3.3c0,0.9,1.2,2.1,2.1,2.4c1.4,0.4,2.7-0.6,2.5-2.2
		C962.9,549.1,961.9,548.2,960.8,546.6z"/>
	<path d="M960.7,575.3c-4,0-8,0-12,0c-2.9,0-3.6-0.7-3.6-3.5c-0.2-7.1-0.2-7.1,6.9-7.1c6.8,0,13.6,0,20.5,0c3.2,0,3.8,0.7,3.9,3.8
		c0.2,6.8,0.2,6.8-6.6,6.8C966.7,575.3,963.7,575.3,960.7,575.3z M960.6,566.8c-3.6,0-7.2,0.1-10.7,0c-2.4-0.1-2.7,1.3-2.7,3.2
		c0,1.8,0,3.3,2.6,3.3c7.2-0.1,14.5-0.1,21.7,0c2.6,0,2.6-1.5,2.7-3.4c0.1-2.1-0.6-3.1-2.8-3C967.8,566.9,964.2,566.8,960.6,566.8z"
		/>
</g>
</svg>
