<?xml version="1.0" encoding="utf-8"?>
<!-- Generator: Adobe Illustrator 24.1.0, SVG Export Plug-In . SVG Version: 6.00 Build 0)  -->
<svg version="1.1" id="Calque_1" xmlns="http://www.w3.org/2000/svg" xmlns:xlink="http://www.w3.org/1999/xlink" x="0px" y="0px"
	 viewBox="0 0 569 450" style="enable-background:new 0 0 569 450;" xml:space="preserve">
<style type="text/css">
	.st0{fill:#55A1A9;}
	.st1{fill:#A3543B;}
	.st2{fill:#B86B47;}
	.st3{fill:#CC8356;}
	.st4{fill:#5E2E24;}
	.st5{fill:#56A2AA;}
	.st6{fill:#723427;}
	.st7{fill:#73443F;}
	.st8{fill:#E7A98D;}
	.st9{fill:#62A5AB;}
	.st10{fill:#8ECAD2;}
	.st11{fill:#D48171;}
	.st12{fill:#DD6F6B;}
	.st13{fill:#DFA35C;}
	.st14{fill:#E1E2E3;}
	.st15{fill:#BCC3C7;}
	.st16{fill:#EEF8F9;}
	.st17{fill:#87C9D1;}
	.st18{fill:#C74F4A;}
	.st19{fill:#E9A88B;}
	.st20{fill:#431913;}
	.st21{fill:#DF917A;}
	.st22{fill:#E89640;}
	.st23{fill:#CFD3D8;}
</style>
<path class="st0" d="M81.8,393.9c-0.1-25.1,4.2-49.4,12.6-73.1c6.4-17.8,15.1-34.4,25.9-49.8c0.2-0.3,0.4-0.5,0.7-0.7
	c0.5,0.3,1.1,0.7,1.6,0.9c2.2,1.1,4.3,2.6,6.6,3.1c3.8,0.7,7.8,0.7,11.6,1.1c4.9,0.6,8.9,2.3,11.8,6.8c3.3,5.3,7.1,10.4,10.9,15.4
	c6.4,8.2,12.8,16.3,19.5,24.3c5.1,6.1,9.9,12.5,16.4,17.2c2.6,1.9,5.5,2.3,8.7,1c4.4-1.8,7.1-5.4,10.1-8.6c2.8-3,5.5-6.1,8.3-9.2
	c0,10.4,0,20.8,0,31.2c0,6.8,0.2,13.6,0.3,20.5c-0.4,1.6-1.3,2.5-2.9,3c-1,0.3-1.9,1.4-2.4,2.3c-1.8,3.4-0.6,11.3,2,14.2
	c-1.3,0.3-2.5,0.9-3.8,0.9c-44,0-88.1,0-132.1,0C85.8,394.4,83.8,394.1,81.8,393.9z M152.5,374.2c0.8-0.1,1.1-0.2,1.4-0.2
	c4.1-0.1,4.6-0.6,4.6-4.6c0-6.5,0-13,0-19.5c0-3-0.8-3.9-3.8-3.9c-11.8,0-23.6,0-35.5,0c-2.8,0-3.7,0.9-3.7,3.7c0,6.7,0,13.3,0,20
	c0,3.4,0.8,4.3,4.2,4.3c5.6,0,11.2,0.3,16.7-0.1c4-0.3,6.5,1.2,8.8,4.3c1.9,2.5,4.4,4.6,6.6,6.8c0.2-0.1,0.4-0.3,0.7-0.4
	C152.5,381.2,152.5,377.8,152.5,374.2z M174,366.9c6-1.2,6-1.3,6-7.3c0-6.5,0-13,0-19.5c0-4.2-1.5-5.6-5.7-5.6
	c-11.2,0-22.5,0-33.7,0c-4.5,0-6.2,1.7-5.9,6.2c0,0.8,0.9,1.5,1.3,2.2c0.4-0.7,1-1.4,1.1-2.1c0.2-3.3,0.6-3.9,4.1-3.9
	c11,0,22,0,33,0c3,0,3.5,0.5,3.5,3.5c0,6.7,0,13.3,0,20c0,3.5,0,3.6-3.4,3.5c-2.2-0.1-2.8,0.9-2.6,2.8c0.1,2,0,4,0,6
	c-0.3,0.1-0.6,0.3-0.9,0.4c-2.9-2.9-5.7-5.8-8.6-8.7c-0.2,0.1-0.5,0.2-0.7,0.3c0.4,1.1,0.5,2.5,1.2,3.3c2.6,2.9,5.3,5.8,8,8.5
	c0.6,0.6,1.7,0.8,2.5,1.2c0.3-0.9,0.8-1.8,0.8-2.6C174,372.4,174,369.6,174,366.9z"/>
<path class="st0" d="M471,270.3c1,1.2,2.1,2.3,2.9,3.6c18.8,28,30.5,58.7,34.8,92.1c1.2,9.2,1.2,18.6,1.8,27.9
	c-1.2,0.2-2.5,0.5-3.7,0.5c-42.9,0-85.8,0-128.7,0c-1.9,0-3.8-0.3-5.7-0.5c2.6-1.6,3.8-3.8,3.6-6.9c-0.1-1.6,0-3.1,0-4.7
	c-0.1-3.5-1.8-5.4-5.4-5.9c0-16-0.1-32-0.1-48.1c1.1,0.9,2.2,1.6,3.2,2.6c2,2.1,3.8,4.4,6,6.3c5.8,5.1,10.3,5.1,15.9-0.5
	c6.5-6.5,12.5-13.5,18.4-20.6c5.9-7.1,11.6-14.5,17.2-21.8c2.8-3.6,5.7-7.2,7.9-11.2c2.4-4.4,5.8-6.9,10.7-7.4
	c3.9-0.4,7.7-1,11.6-1.3C465.1,274.2,468.1,272.3,471,270.3z M480.4,335.8c-0.7-3.5-0.5-3.8,2.8-3.8c0.2,0,0.5,0.1,0.7,0
	c0.7-0.4,1.4-0.8,2.1-1.3c-0.7-0.4-1.4-1.1-2.1-1.2c-3.8-0.3-3.8-0.3-3.8-4.1c0-0.3,0-0.7,0-1c0.2-1.9-0.7-2.6-2.5-2.5
	c-1.8,0.1-3.6,0-5.5,0c0-1.6-0.1-2.8,0-3.9c0.1-2.1-0.7-3.1-2.9-3.1c-13.9,0-27.8,0-41.7,0c-1.7,0-2.4,0.5-2.4,2.3
	c0,17.2,0,34.3,0,51.5c0,1.6,0.6,2.3,2.2,2.2c1.9-0.1,3.8,0,5.7,0c0.3,2.2-0.1,4.5,0.8,5.7c0.9,1.2,3.2,1.3,5.2,1.9
	c0,0.5,0.1,1.3,0.1,2.1c0,3.7,0,3.8,3.7,3.8c13.4,0,26.8-0.1,40.2,0c2.4,0,3.1-0.8,3.1-3.1c-0.1-13.7,0-27.5-0.1-41.2
	c0-4.1,0-4.1-4-4.2C481.4,336,480.9,335.9,480.4,335.8z"/>
<path class="st0" d="M348.3,185.9c11.6,2.6,22.7,6.6,33.6,11.3c17.9,7.7,34.4,17.9,49.6,30.2c12.8,10.4,24.3,22.1,34.2,35.2
	c-4.3,2.9-8.9,2.9-13.6,1.6c-3.2-0.9-3.4-1.6-1.3-4.2c1.8-2.2,2.2-5.1,0.7-7.1c-0.5-0.7-1.5-1.6-2-1.5c-0.8,0.2-1.3,1.3-1.9,2
	c-1,1.1-1.8,2.6-3.1,3.2c-6.9,3.1-9.8,7.4-10,15.1c0,1.1-0.5,2.5-1.2,3.3c-5.6,6.8-11,13.8-17,20.2c-7.7,8.2-15.9,16-24.1,23.9
	c-2.6,2.5-3.6,2.2-5.4-0.9c-4-6.7-7.9-13.5-11.9-20.2c-1.3-2.2-2.9-4.4-4.3-6.5c0-2.2-0.1-4.5-0.1-6.7c0-7.3-1.7-9.5-8.7-11
	c1.1-2.6-0.3-4.8-1.2-7.1c-3.2-8.3-8-15.5-15.2-20.9c-2.1-1.6-4.5-2.8-6.7-4.2c2.3-4.6,4.9-9.1,6.8-13.8c2.6-6.3,2.7-13.1,2.6-19.9
	C348,200.5,348.2,193.2,348.3,185.9z M384.8,252.5c6,0,12,0,18,0c1.4,0,3-0.2,3.1-2.1c0.2-1.9-0.9-3-2.7-3.2
	c-0.8-0.1-1.7-0.2-2.5-0.2c-9.9,0-19.8,0-29.7,0c-1.4,0-2.8-0.1-4.2,0.1c-1.7,0.2-3,1.1-2.9,3.1c0.1,2,1.5,2.3,3.1,2.3
	C373,252.5,378.9,252.5,384.8,252.5z M389.8,231c-4.6,0-9.1,0-13.7,0c-1.7,0-2.5,1-2.5,2.5c0,1.4,0.6,2.5,2.4,2.6
	c3.6,0.1,7.1,0.4,10.7,0.4c5.5,0,10.9-0.3,16.4-0.4c1.9,0,2.9-0.8,2.9-2.6c0-1.8-1.1-2.6-3-2.5C398.6,231,394.2,231,389.8,231z
	 M395.5,239c-2.4,0-4.8,0-7.2,0c-2,0-3.1,1.1-3.1,2.8c0,1.7,1.3,2.7,3,2.7c4.9,0.1,9.8,0.1,14.7,0c1.7,0,3.2-0.7,3.1-2.8
	c-0.1-1.9-1.4-2.7-3.2-2.7C400.3,239,397.9,239,395.5,239z M373.4,239c0,0.1,0,0.1,0,0.2c-2.4,0-4.8-0.1-7.2,0
	c-1.3,0.1-2.7,0.8-2.1,2.4c0.4,1.1,1.5,2.7,2.4,2.8c4.4,0.3,8.8,0.3,13.2,0c1-0.1,2.5-1.7,2.6-2.7c0.2-1.5-1-2.7-2.9-2.7
	C377.4,239,375.4,239,373.4,239z M366.9,236.4c2.4-0.1,3.7-1.3,3.6-3.2c-0.1-2.4-2-2.5-3.6-2.5c-1.6,0-3.1,0.8-3,2.9
	C364.1,235.6,365.5,236.2,366.9,236.4z"/>
<path class="st1" d="M490,435.4c-2.4,0.3-4.7,0.9-7.1,0.9c-106.2,0-212.5,0-318.7,0c-18.7,0-37.3,0-56,0c-10.1,0-19.3-7.5-20.8-16.8
	c0.4,0,0.8,0,1.2,0c131.3,0,262.6,0,393.9,0.1c3,0,6.1,0.7,9.1,1.2c2,0.3,3.1,1.9,2.8,3.8c-0.3,2.1-1.1,4.1-1.9,6
	C491.9,432.3,490.8,433.8,490,435.4z"/>
<path class="st0" d="M126.7,262.5C136.2,250.1,147,239,159,229c15.6-13,32.7-23.7,51.4-31.7c0.9-0.4,1.8-0.9,2.7-1.9
	c-1.1,0-2.2,0-3.2,0c-8.7,0-17.5,0-26.2,0c-2.2,0-3.7-0.8-4.4-3c-0.6-1.9,0.3-3.3,1.8-4.2c0.9-0.5,2-0.6,3.1-0.6
	c14.6,0,29.3,0,43.9,0c4,0,7.9-0.3,11.9-0.5c-1.8,4.3-5.1,7.1-9,9.3c-9.2,5.3-15.8,12.9-19.8,22.6c-5.2,12.4-3.2,25.3,8.3,33.6
	c4.4,3.2,9.7,5.3,14.6,7.9c-0.3,0.8-0.6,1.5-0.9,2.3c-1.3,3.8-4.1,7.3-2.5,11.8c-1.3,2.1-2.5,4.2-3.8,6.3c-0.2,0.6-0.4,1.2-0.6,1.8
	c-0.3,0.3-0.7,0.5-0.9,0.8c-4,7-7.8,14.1-11.8,21.1c-2.8,4.8-5.7,9.5-8.6,14.3c-0.9,1.5-2.2,2.2-3.7,1c-1.8-1.3-3.6-2.6-5.2-4.2
	c-6.3-6.3-12.7-12.5-18.6-19.1c-6.6-7.3-12.7-14.9-19-22.4c-0.5-0.6-0.8-1.5-0.7-2.2c1.2-6.5-3.4-12.2-8.2-14.6
	c-2.3-1.2-4.3-2.1-5.1-4.8c-0.6-1.9-2-2-3.2-0.4c-0.7,0.9-1.3,2.2-1.2,3.1c0.3,1.7,1.1,3.3,1.9,4.9c0.5,1.2,1.8,2.2-0.1,3.3
	C138.2,265.8,130.3,265.2,126.7,262.5z M194.4,239.2c-3.3-0.7-4-2.4-2.8-5.2c0.3-0.6-0.4-2-1.1-2.6c-0.5-0.4-1.8-0.5-2.4-0.2
	c-1.5,0.7-3.9,0.1-4.1-1.5c-0.2-1.8-1.3-1.8-2.6-1.8c-1.3,0-2.2,0.1-2.4,1.8c-0.2,1.6-2.7,2.5-4,1.5c-1.3-1.1-2-0.4-2.9,0.5
	c-0.9,0.9-1.5,1.7-0.3,2.9c0.8,0.9,0,4-1.2,4.2c-3.6,0.5-2.2,2.6-1.9,4.5c3.1,0.6,3.7,1.9,2.7,4.7c-0.2,0.6,0.1,1.8,0.7,2.3
	c0.6,0.6,1.8,1.1,2.4,0.9c2.7-0.9,3.6-0.5,4.7,1.9c0.3,0.7,1.6,1.3,2.5,1.3c0.8,0,1.9-0.7,2.2-1.3c1-2.3,2.2-2.9,4.5-2
	c0.6,0.2,1.6,0.1,2.1-0.3c0.7-0.6,1.5-1.7,1.3-2.4c-0.8-4-0.9-4.2,2.6-5.3C194.4,241.8,194.4,240.6,194.4,239.2z M209.5,265.4
	c0.4-1.3,1-2.2,0.8-3c-0.5-1.8,0.2-2.8,1.6-3.7c1.5-0.9,1.3-2.1-0.1-3.3c-0.8-0.7-1.3-1.8-1.7-2.9c-0.4-1-0.5-2-0.8-3.3
	c-2.1,1.2-3.5,1.6-4.5-0.4c-0.6-1.3-2.7-1.8-3.2-0.6c-1,2.4-2.4,2.3-4.8,0.7c-0.2,1.6-0.3,2.8-0.6,4c-0.2,0.9-0.6,2-1.2,2.5
	c-1.7,1.3-1.6,2.2-0.1,3.5c0.7,0.6,1,1.7,1.3,2.6c0.3,1,0.4,2.2,0.6,3.7c2.3-1.6,3.8-1.9,4.8,0.7c0.1,0.3,2.7,0.3,3-0.2
	C206.1,264,207.2,263.6,209.5,265.4z M191,189.5c-2.2,0-4.3,0-6.5,0c-1.3,0-2.8,0.2-2.5,1.9c0.2,0.8,1.6,2,2.4,2
	c4.3,0.2,8.6,0.2,12.9,0c0.9,0,1.7-1.3,2.5-2c-0.8-0.6-1.6-1.7-2.5-1.8C195.4,189.3,193.2,189.5,191,189.5z"/>
<path class="st2" d="M65.7,412.5c-3.2-2-4.2-5-4-8.5c0.3,0,0.7,0,1,0c149.2,0,298.4,0,447.6,0.1c6,0,10.5-4.7,11.2-9.8
	c4.6-0.1,8.8,4.6,9.1,8.6c0.4,5.9-2.6,10.6-7.9,11.5c-2.8,0.5-5.6,0.3-8.4,0.4c-2.9,0.1-5.8,0.1-8.7,0.2c-1.2-0.2-2.4-0.5-3.6-0.5
	c-63.7,0-127.5,0-191.2,0c-74.4,0-148.8,0-223.2,0c-0.5-0.2-1-0.5-1.5-0.5C79.2,413.8,72.4,414.8,65.7,412.5z"/>
<path class="st3" d="M521.5,394.3c-0.7,5-5.2,9.8-11.2,9.8C361.2,404,211.9,404,62.7,404c-0.3,0-0.7,0-1,0
	c-0.1-5.4,4.4-9.8,10.2-9.9c3.3-0.1,6.6-0.1,9.9-0.1c2,0.2,4,0.5,5.9,0.5c44,0,88.1,0,132.1,0c1.3,0,2.5-0.6,3.8-0.9
	c1.4,0.2,2.8,0.5,4.2,0.5c46,0,92.1,0,138.1,0c2.2,0,4.3-0.1,6.5-0.1c1.9,0.2,3.8,0.5,5.7,0.5c42.9,0,85.8,0,128.7,0
	c1.2,0,2.5-0.3,3.7-0.5C514.2,394.1,517.9,394.2,521.5,394.3z"/>
<path class="st4" d="M234.2,260.6c-4.9-2.6-10.2-4.7-14.6-7.9c-11.5-8.3-13.5-21.2-8.3-33.6c4.1-9.7,10.6-17.4,19.8-22.6
	c3.8-2.2,7.2-5,9-9.3c0.7-1.2,1.3-2.4,2-3.6c0.8-2.6,1.7-5.2,2.5-7.7c0.2-1.3,0.3-2.6,0.5-3.9c0-2.6,0-5.2-0.1-7.8
	c0.4-3.7,0.7-7.3,1.1-11c0.6,0,1.2,0,1.7,0c6.6,0.6,13.1,1.5,19.7,1.9c4.2,0.2,8.4-0.2,12.7-0.5c3.5-0.2,7.1-0.4,10.6-1.2
	c7.7-1.7,15.4-3.5,22.8-6.6c9-3.8,17.1-8.8,24.4-15.2c6.4,8.1,9.6,17.5,10,27.7c0.3,7.9,0.1,15.8,0.2,23.7c0,1,0.1,2,0.1,3
	c-0.1,7.3-0.3,14.6-0.2,21.9c0.1,6.8,0,13.5-2.6,19.9c-1.9,4.7-4.5,9.2-6.8,13.8c-2.7-0.4-5.5-0.8-8.2-1.2c0.8-4.8,1.8-9.5,2.5-14.3
	c0.5-3.7,0.8-7.4,0.9-11.1c0.1-3.3-0.2-6.6-0.4-9.8c0.2-1,0.3-2,0.5-3c8.4-0.1,13.9-8.4,10.4-16.1c-1.6-3.5-4.2-4.5-7.7-3
	c-0.8,0.3-1.5,0.7-2.2,1.1c-0.1-7.3-0.9-14.4-4.1-21.1c-2.5-5.3-5.9-9.9-10.4-13.5c-4.6,4.5-9,8.8-13.5,13.1
	c-0.8,0.5-1.6,1.1-2.4,1.6c-13.4,9.9-28.6,15.4-45,17.5c-1.2,0.1-2.3,0.2-3.5,0.3c-4.2,0.2-5.8,1.4-7.2,5.5
	c-1.3,3.9-0.1,7.3,1.7,10.7c-0.5,1-0.8,2-1.5,2.8c-4.5,5.2-8.6,10.8-13.6,15.5c-8.9,8.4-13.2,22-7.5,33.9c1.7,3.5,3.7,6.9,7.5,8.6
	C234.8,259.6,234.5,260.1,234.2,260.6z"/>
<path class="st5" d="M116.4,191c0,9.4,0,18.8,0,28.2c0,3.6-1.5,5.2-5.1,5.2c-12,0-24,0-36,0c-3.4,0-4.8-1.5-4.8-4.9
	c0-16.7,0-33.5,0-50.2c0-1,0.5-2.3,1.2-3.1c2.3-2.5,4.7-5,7.2-7.2c0.9-0.8,2.3-1.4,3.5-1.4c9.6-0.1,19.2-0.1,28.7-0.1
	c3.8,0,5.3,1.6,5.3,5.3C116.4,172.2,116.4,181.6,116.4,191C116.4,191,116.4,191,116.4,191z M90,191.3c-1.2,1-2.1,1.6-3,2.4
	c-1.2,1.1-1.4,2.4-0.2,3.7c1.1,1.3,2.2,1.3,3.5,0.2c1.1-0.9,2.2-1.8,3.3-2.7c1,1,2,1.9,3,2.7c1.2,1,2.5,1,3.6-0.2
	c1.1-1.2,1.3-2.5,0-3.7c-1-0.9-1.9-2-2.8-3c1.2-1.2,2.3-2.1,3.1-3.1c1-1.2,0.9-2.5-0.4-3.5c-1.2-1-2.5-1-3.5,0.2
	c-0.9,1-1.5,2.2-2.2,3.4c-1.8-1.7-2.7-2.6-3.6-3.4c-1.2-1-2.4-1.4-3.7,0c-1.3,1.3-0.8,2.6,0.1,3.8C87.7,189.1,88.6,189.9,90,191.3z
	 M93.5,174c4.6,0,9.2,0.1,13.7-0.1c0.7,0,1.5-0.9,2.2-1.3c-0.7-0.5-1.4-1.1-2.2-1.6c-0.2-0.1-0.5,0-0.7,0c-8.8,0-17.6,0-26.5,0
	c-1.2,0-2.7-0.1-2.4,1.6c0.1,0.6,1.5,1.3,2.4,1.3C84.5,174.1,89,174,93.5,174z M93.5,169c4.4,0,8.8,0,13.2,0c1.2,0,2.6,0.2,2.6-1.5
	c0-1.7-1.4-1.5-2.6-1.5c-8.9,0-17.8,0-26.7,0c-1.2,0-2.7-0.1-2.4,1.6c0.1,0.6,1.5,1.3,2.3,1.4C84.5,169.1,89,169,93.5,169z"/>
<path class="st6" d="M87.5,414.6c74.4,0,148.8,0,223.2,0c63.7,0,127.5,0,191.2,0c1.2,0,2.4,0.3,3.6,0.5c-0.4,10-6.7,18.1-15.6,20.3
	c0.9-1.6,1.9-3.1,2.6-4.8c0.8-1.9,1.6-4,1.9-6c0.3-1.9-0.8-3.4-2.8-3.8c-3-0.5-6-1.2-9.1-1.2c-131.3-0.1-262.6-0.1-393.9-0.1
	c-0.4,0-0.8,0-1.2,0c-0.1-0.5-0.2-1.1-0.3-1.6c0-0.3-0.1-0.6-0.1-0.9c-0.1-0.7-0.2-1.3-0.2-2C87,414.8,87.3,414.7,87.5,414.6z"/>
<path class="st7" d="M338,131.5c-7.3,6.4-15.4,11.4-24.4,15.2c-7.4,3.1-15.1,4.9-22.8,6.6c-3.5,0.7-7,1-10.6,1.2
	c-4.2,0.3-8.5,0.7-12.7,0.5c-6.6-0.4-13.1-1.2-19.7-1.9c-0.6-0.1-1.2,0-1.7,0c1.5-10.2,6.1-18.8,13.1-26.3c1.6-1.7,3.5-3.2,5.3-4.8
	c0.5,0.5,0.9,1.3,1.6,1.6c1.2,0.4,2.6,0.6,3.9,0.8c6.9,0.9,13.7,2.2,20.6,2.7c8.1,0.6,16.3,0.3,24.3-1.5c4.4-1,8.5-3,12.8-4.5
	C331.7,123.8,335.3,127.2,338,131.5z"/>
<path class="st8" d="M126.7,262.5c3.6,2.8,11.5,3.3,15.2,1.1c1.9-1.1,0.6-2.1,0.1-3.3c-0.8-1.6-1.6-3.2-1.9-4.9
	c-0.2-1,0.5-2.2,1.2-3.1c1.2-1.6,2.6-1.4,3.2,0.4c0.8,2.7,2.8,3.6,5.1,4.8c4.7,2.4,9.4,8.1,8.2,14.6c-0.1,0.7,0.2,1.6,0.7,2.2
	c6.3,7.5,12.4,15.1,19,22.4c6,6.6,12.3,12.8,18.6,19.1c1.6,1.6,3.4,2.9,5.2,4.2c1.6,1.2,2.8,0.5,3.7-1c2.9-4.8,5.8-9.5,8.6-14.3
	c4-7,7.9-14.1,11.8-21.1c0.2-0.3,0.6-0.5,0.9-0.8c0.2,0.4,0.4,0.8,0.6,1.2c0,1,0,2,0,3c0,3,0,6,0,9c0,1.2,0,2.3,0,3.5
	c-0.1,0.8-0.4,1.6-0.4,2.4c-0.1,4.1-0.1,8.1-0.1,12.2c-4.4,7.1-9.7,13.5-16.2,18.7c-4.4,3.6-7.1,3.4-11.5,0.4
	c-5.9-4-11-8.9-15.3-14.5c-4-5.3-7.5-10.9-11.5-16.2c-6.4-8.5-13.1-16.8-19.6-25.3c-1.9-2.4-4.3-3.8-7.1-4.1
	c-4.5-0.4-9.1-0.2-13.7-0.6c-2.4-0.2-4.8-1.1-7.1-1.9c-1.6-0.6-3-1.7-4.4-2.5c-1.8-1.9-1.9-4.2-1.4-6.6c0.3-1.5,1.3-1.6,2.7-1
	C123.2,261.3,125,261.8,126.7,262.5z"/>
<path class="st8" d="M370.6,291.4c1.5,2.2,3,4.3,4.3,6.5c4,6.7,7.9,13.5,11.9,20.2c1.8,3,2.9,3.3,5.4,0.9
	c8.1-7.8,16.3-15.6,24.1-23.9c6-6.4,11.4-13.4,17-20.2c0.7-0.9,1.2-2.2,1.2-3.3c0.2-7.6,3.1-12,10-15.1c1.3-0.6,2.1-2.1,3.1-3.2
	c0.6-0.7,1.1-1.8,1.9-2c0.5-0.2,1.5,0.8,2,1.5c1.5,2,1.1,4.9-0.7,7.1c-2.1,2.5-1.9,3.3,1.3,4.2c4.7,1.3,9.3,1.3,13.6-1.6
	c1.8-0.7,3.5-1.2,5.2-2c1.6-0.7,2.5-0.1,2.6,1.4c0.3,2.7,0.3,5.3-2.3,7.1c-2.2,1-4.4,2.6-6.7,2.9c-4.7,0.6-9.4,0.5-14.2,0.6
	c-4.5,0.1-8.4,1.6-11.1,5.2c-5.7,7.3-11.3,14.8-16.8,22.2c-5.5,7.3-10.5,14.9-16.4,21.9c-3.8,4.5-8.6,8.2-13.3,11.8
	c-2.3,1.8-5.5,2.9-8.2,0.7c-3.4-2.7-6.6-5.8-9.8-8.8c-1.3-1.2-2.7-2.4-4-3.6C370.5,311.8,370.6,301.6,370.6,291.4z"/>
<path class="st9" d="M254.3,83.6c0,10.7,0,21.3,0,32c0,6.9-3.3,10-10.1,10c-15.8-0.1-31.6,0-47.5,0c-6.9,0-10.1-3.2-10.1-10
	c0-3.2-0.1-6.3,0-9.5c0.1-1.7-0.6-2.2-2.2-2.1c-3.3,0.1-6.7,0-10,0.1c-1.7,0-2.4-0.6-2.3-2.4c0.1-1.3,0-2.7,0-4
	c0.1-4.7,3.7-8.4,8.4-8.4c5.9-0.1,11.8-0.1,17.7,0c2.2,0,2.9-0.5,2.8-2.8c-0.1-11.7-0.1-23.3-0.1-35c0-3.8,0-3.8,3.9-3.8
	c15.3,0,30.6,0,46,0c3.1,0,3.3,0.2,3.3,3.5C254.3,61.9,254.3,72.7,254.3,83.6C254.3,83.6,254.3,83.6,254.3,83.6z M250.6,119.1
	C250.6,119.1,250.6,119.1,250.6,119.1c0.2-1.2,0.7-2.4,0.7-3.6c0.1-14.2,0-28.5,0-42.7c0-6.7,0-13.3,0-20c0-1.2,0.1-2.3-1.7-2.3
	c-13.9,0.1-27.8,0.1-41.7,0.1c-0.5,0-1,0-1.5,0c-0.8,0-1.6,0-2.5,0c0.1,0.9,0.1,1.7,0.1,2.4c0,0.8,0,1.7,0,2.5c0,11.3,0,22.7,0,34
	c0,1.2,0,2.3,0,3.5c0,1.5,0,3,0,4.5c0,2.5,0,5,0,7.5c-0.8,5.8,1.1,11.7-1.8,17.8c6,0,11.7,0,17.4,0c0.2,0,0.4-0.2,0.6-0.3
	c1.1-0.1,2.2-0.2,3.3-0.3c1.8,0.1,3.5,0.3,5.3,0.4c1.2,0,2.3,0,3.5,0c0.5,0,1,0,1.5,0c3.8,0,7.7,0,11.5,0c0.2,0,0.3,0,0.5,0
	c0.3,0,0.7-0.1,1-0.1C248.9,122.1,250.1,121,250.6,119.1z M188.7,92c0.3,3.8,0.7,7.3,0.8,10.8c0.1,4.7,0,9.5,0.1,14.2
	c0.1,3.3,2.5,5.6,5.8,5.6c3.1,0,5.7-2.2,5.7-5.3c0.1-7.9,0.1-15.8,0-23.7c0-0.5-1-1.5-1.5-1.5C195.8,91.9,192,92,188.7,92z"/>
<path class="st4" d="M327.6,120.9c-4.3,1.5-8.4,3.5-12.8,4.5c-8,1.8-16.2,2.1-24.3,1.5c-6.9-0.5-13.8-1.8-20.6-2.7
	c-1.3-0.2-2.6-0.3-3.9-0.8c-0.6-0.2-1.1-1-1.6-1.6c7.3-6.3,15.9-9.9,25.4-11.1c13-1.7,24.9,1.2,35.8,8.5
	C326.4,119.8,326.9,120.4,327.6,120.9z"/>
<path class="st10" d="M419.5,186.8c3.3-1.9,6.2-3.6,9.2-5c1.9-0.9,3.3-0.1,4.5,1.8c3,4.7,4.8,10.2,9.3,14c1.7,1.5,1.7,3.1-0.2,4.8
	c-2,1.7-3.8,3.7-5.7,5.6c-1.3,1.3-2.7,1.5-3.8,0c-2.2-2.8-5-3.8-8.5-4.3c-2.5-0.3-4.9-1.9-7.3-3.1c-2-1-3.9-2.2-5.9-3.3
	c-1.3-0.7-2.8-1.5-2-3.1c0.4-0.7,2.2-0.8,3.3-0.8c1.2,0,2.4,0.6,3.7,0.6c1.7,0.1,2.5-1.3,1.4-2.6c-2-2.4-4.1-4.6-6.3-6.8
	c-0.5-0.5-1.6-0.4-2.5-0.2c-2.9,0.4-5.5-0.7-6.8-3c-1.5-2.5-1.2-5.2,0.8-7.6c1.4-1.7,4.3-2.5,6.8-1.6c2.2,0.8,4,2.4,3.8,4.7
	c-0.4,3.6,1,6,3.9,7.9C418.2,185.3,419,186.3,419.5,186.8z M408.8,182.1c0-0.3,0-0.6,0-0.8c-0.5-0.1-1.3,0-1.6-0.4
	c-0.9-1-2-2.1-2.4-3.3c-0.1-0.4,1.4-1.9,2.3-2.1c1.6-0.3,2.9,0.4,3,2.4c0.1,0.6,0.7,1.2,1.2,2.1c1-2.8,0.2-5-1.9-6.1
	c-2-1-4.4-0.4-5.7,1.6c-1.4,2-1,4.2,0.9,6C406.1,182.8,407.4,182.8,408.8,182.1z"/>
<path class="st9" d="M370.9,74c0.2,5-2.2,9.1-4.7,13.2c-1.1,1.9-2.2,3.8-3,5.7c-1,2.4-1.6,4.6,1,6.9c2.7,2.4,1.5,6.7-1.7,9
	c-0.8,0.5-1.5,1.5-1.8,2.3c-1.6,4.9-5.4,7.8-10.4,7.7c-4.8-0.1-8.6-3.1-10.1-7.8c-0.3-0.9-1-1.8-1.8-2.3c-3.5-2.2-4.2-6.9-1.1-9.6
	c1.7-1.4,1.7-2.9,1.1-4.4c-1.5-3.5-3.1-7-5.1-10.2c-5.1-8.1-3.8-18.3,2.8-25c6.4-6.6,16.9-7.9,24.9-3.1
	C367.5,60.4,370.7,66.4,370.9,74z M350.4,97.6c2.2,0,4.3-0.1,6.5,0c1.7,0.1,2.2-0.6,2.7-2.1c1.2-3.3,2.7-6.6,4.1-9.8
	c0.8-1.7,2-3.3,2.7-5c3.6-8,0.5-17.1-7.3-21.7c-7.2-4.3-17.1-2.5-22.2,4.2c-5,6.5-5.1,13.6-0.3,21.3c2.2,3.6,4.4,7.2,5.1,11.5
	c0.1,0.6,1.2,1.5,2,1.5C345.9,97.7,348.2,97.6,350.4,97.6z M350.5,106.6c2.8,0,5.7-0.1,8.5,0c2.2,0.1,3.6-0.9,3.8-3
	c0.2-1.7-1.5-3.1-3.8-3.1c-5.7,0-11.3,0-17,0c-1.9,0-3.5,0.6-3.7,2.9c-0.1,1.9,1.3,3.2,3.6,3.2C344.8,106.6,347.7,106.6,350.5,106.6
	z M357.8,109.7c-4.9,0-9.7,0-14.7,0c1.2,4.3,4.1,6.6,7.9,6.4C354.6,115.8,357.5,113.2,357.8,109.7z"/>
<path class="st11" d="M120.2,268c1.5,0.9,2.9,1.9,4.4,2.5c2.3,0.8,4.7,1.7,7.1,1.9c4.5,0.4,9.1,0.2,13.7,0.6
	c2.8,0.3,5.2,1.6,7.1,4.1c6.5,8.5,13.2,16.8,19.6,25.3c4,5.3,7.5,10.9,11.5,16.2c4.3,5.6,9.4,10.5,15.3,14.5c4.4,3,7.1,3.2,11.5-0.4
	c6.5-5.3,11.8-11.6,16.2-18.7c0,0,0.2,0,0.2,0l0.2,0c-0.1,2.8-0.1,5.5-0.2,8.3c-2.8,3.1-5.5,6.2-8.3,9.2c-3,3.2-5.7,6.8-10.1,8.6
	c-3.2,1.3-6.1,0.9-8.7-1c-6.6-4.7-11.4-11.1-16.4-17.2c-6.6-8-13.1-16.1-19.5-24.3c-3.9-5-7.6-10.1-10.9-15.4
	c-2.8-4.5-6.9-6.2-11.8-6.8c-3.9-0.5-7.8-0.4-11.6-1.1c-2.3-0.5-4.4-2-6.6-3.1c-0.6-0.3-1.1-0.6-1.6-0.9
	C120.8,269.5,120.5,268.8,120.2,268z"/>
<path class="st11" d="M370.5,322c1.3,1.2,2.7,2.4,4,3.6c3.3,2.9,6.4,6,9.8,8.8c2.8,2.2,5.9,1.1,8.2-0.7c4.7-3.6,9.5-7.3,13.3-11.8
	c5.9-6.9,10.9-14.6,16.4-21.9c5.6-7.4,11.1-14.9,16.8-22.2c2.8-3.6,6.7-5.1,11.1-5.2c4.7-0.1,9.5,0,14.2-0.6
	c2.3-0.3,4.5-1.9,6.7-2.9c0,0.4-0.1,0.9-0.1,1.3c-3,2-5.9,3.8-9.6,4.2c-3.9,0.4-7.7,0.9-11.6,1.3c-4.9,0.5-8.2,3-10.7,7.4
	c-2.2,4-5.1,7.6-7.9,11.2c-5.7,7.3-11.3,14.7-17.2,21.8c-5.9,7.1-11.9,14.1-18.4,20.6c-5.6,5.6-10.1,5.6-15.9,0.5
	c-2.2-1.9-4-4.3-6-6.3c-1-1-2.1-1.8-3.2-2.6C370.5,326.2,370.5,324.1,370.5,322z"/>
<path class="st5" d="M244.6,175.8c-0.8,2.6-1.7,5.2-2.5,7.7c-19.5,0-39.1,0-58.6,0c-2.6,0-4.3-1.6-4.3-3.9c0-2.2,1.8-3.9,4.3-3.9
	c6.2-0.1,12.3,0,18.5,0C216.1,175.7,230.3,175.7,244.6,175.8z M188.7,181.5c1.6,0,3.2,0.2,4.7-0.1c0.9-0.2,1.7-1.2,2.5-1.8
	c-0.8-0.7-1.5-1.9-2.4-2c-2.1-0.3-4.3-0.1-6.5-0.1c-1.1,0-2.3-0.2-3.2,0.2c-0.8,0.3-1.3,1.4-1.9,2.2c0.8,0.6,1.5,1.4,2.3,1.6
	C185.7,181.7,187.3,181.5,188.7,181.5z"/>
<path class="st5" d="M245,164c0,2.6,0,5.2,0.1,7.8c-20.1,0-40.1,0-60.2,0c-0.8,0-1.7,0.1-2.5-0.1c-1.9-0.5-3.3-1.7-3.2-3.9
	c0.1-2.2,1.4-3.5,3.6-3.8c0.4-0.1,0.8,0,1.2,0C204.3,164,224.6,164,245,164z M190.8,166C190.8,166,190.8,166,190.8,166
	c-2.1,0-4.2,0-6.2,0c-1.3,0-2.6,0-2.6,1.8c0.1,1.7,1.2,2.2,2.7,2.2c3.9,0,7.8,0,11.7,0c0.6,0,1.3,0,1.7-0.3c0.6-0.6,1.3-1.5,1.3-2.3
	c0-0.4-1.2-1.3-1.9-1.3C195.3,165.9,193,166,190.8,166z"/>
<path class="st10" d="M93.5,279.5c0,2.7,0,5.3,0,8c0,2.3-1.2,3.4-3.4,3.5c-5.4,0.1-10.8,0.1-16.2,0c-2.2,0-3.5-1.2-3.5-3.6
	c0.1-5.2,0-10.3,0-15.5c0-2.6,1.1-4.1,3.6-4.2c5.4-0.1,10.8,0.1,16.2,0.3c2.4,0.1,3.3,1.5,3.3,3.8C93.5,274.3,93.5,276.9,93.5,279.5
	z M78.6,276.5c0.9-1.3,1.9-2.2,1.7-2.7c-0.2-0.8-1.2-1.4-1.9-2.1c-0.7,0.7-1.7,1.3-1.9,2.1C76.5,274.4,77.6,275.2,78.6,276.5z
	 M79,276.5c-1.2,1.3-2.3,2.1-2.3,2.8c0,0.7,1.1,1.5,1.7,2.2c0.7-0.7,1.7-1.2,1.9-2C80.6,278.9,79.7,278,79,276.5z M85.6,287.9
	c0.9-1.3,1.9-2.1,1.7-2.6c-0.2-0.8-1.1-1.5-1.7-2.3c-0.7,0.6-1.9,1.2-2,2C83.6,285.7,84.6,286.5,85.6,287.9z M78.8,288
	c0.8-1.4,1.7-2.2,1.6-2.8c-0.2-0.8-1.2-1.5-1.8-2.2c-0.7,0.7-1.8,1.3-1.9,2.1C76.6,285.8,77.7,286.6,78.8,288z M88.3,279.4
	c-1.2-0.9-2.1-1.9-2.7-1.8c-0.8,0.2-1.4,1.2-2.1,1.9c0.7,0.6,1.4,1.7,2.2,1.8C86.3,281.4,87.1,280.4,88.3,279.4z M88.4,273.9
	c-1.3-1.1-2.2-2.2-2.7-2.1c-0.8,0.2-1.5,1.2-2.2,1.9c0.7,0.6,1.3,1.5,2.1,1.7C86.3,275.5,87.1,274.7,88.4,273.9z"/>
<path class="st12" d="M374,143.1c0-2.6,0-5.2,0-7.7c0.1-2.7,1.1-3.8,3.8-3.8c5.2-0.1,10.3-0.1,15.5,0c2.6,0,3.9,1.4,4,4.1
	c0.1,5,0.1,10,0,15c0,3-1.3,4.2-4.3,4.2c-4.9,0-9.8,0.1-14.7,0c-3.3,0-4.2-1.1-4.2-4.5C374,148,374,145.5,374,143.1z M385.6,141.6
	c-1-1-1.9-1.8-2.8-2.6c-1.2-1.1-2.5-1.3-3.8,0c-1.2,1.2-1.1,2.5,0,3.7c1.3,1.4,2.6,2.7,4,4.1c1.8,1.8,3.4,1.8,5.2,0
	c1.3-1.3,2.5-2.7,3.8-3.9c1.1-1.2,1.5-2.4,0.4-3.7c-1.2-1.3-2.6-1.3-4-0.1C387.5,139.8,386.6,140.7,385.6,141.6z"/>
<path class="st10" d="M511,259.5c0,2.7,0,5.3,0,8c0,2.5-1,3.5-3.4,3.6c-5.4,0-10.8,0-16.2,0c-2.1,0-3.2-1.2-3.3-3
	c-0.1-5.7-0.1-11.5,0-17.2c0-1.7,1.2-2.8,2.9-2.8c5.7-0.1,11.3-0.1,17,0c2,0,3,1.2,3,3.2C511,254,511,256.7,511,259.5z M495.9,268
	c1-1.4,2-2.1,1.9-2.8c0-0.7-1-1.4-1.6-2.1c-0.7,0.7-1.7,1.4-2.1,2.2C494,265.7,495,266.7,495.9,268z M506,259.8
	c-1.4-1.1-2.2-2.2-2.9-2.1c-0.7,0-1.4,1.2-2.1,1.9c0.7,0.6,1.3,1.6,2.1,1.8C503.7,261.5,504.6,260.6,506,259.8z M503,256.9
	c0.9-1.6,1.8-2.4,1.8-3.3c0-0.5-1.4-1.6-1.9-1.5c-0.8,0.2-1.7,1.2-1.8,1.9C501.1,254.7,502,255.5,503,256.9z M503,268
	c1-1.3,2-2.1,1.8-2.6c-0.2-0.8-1.1-1.5-1.7-2.2c-0.7,0.7-1.7,1.3-1.9,2.2C501.1,265.8,502.1,266.6,503,268z M498.9,253.9
	c-1.4-0.9-2.2-1.8-3-1.8c-0.6,0-1.8,1.4-1.7,1.8c0.2,0.8,1.2,1.7,2,1.9C496.7,255.9,497.6,254.9,498.9,253.9z M498.9,259.5
	c-1.4-0.9-2.2-1.9-2.9-1.8c-0.6,0-1.9,1.3-1.8,1.8c0.2,0.8,1.2,1.8,1.9,1.9C496.7,261.5,497.5,260.4,498.9,259.5z"/>
<path class="st12" d="M208.4,143.2c0,2.7,0,5.3,0,8c0,2.4-1.3,3.6-3.5,3.6c-5.4,0.1-10.8,0.1-16.2,0c-2,0-3.4-1.2-3.4-3.3
	c-0.1-5.6-0.2-11.2,0-16.7c0.1-2.1,1.5-3.3,3.7-3.3c5.2,0,10.5-0.1,15.7,0c2.6,0,3.7,1.2,3.7,3.9C208.5,138,208.4,140.6,208.4,143.2
	C208.4,143.2,208.4,143.2,208.4,143.2z M193.1,142.6c0,0.4,0,0.8,0,1.2c-0.8,0.5-1.6,1-2.3,1.6c-1.4,1.2-2.2,2.8-0.7,4.3
	c1.4,1.5,3.1,1,4.3-0.5c1.5-1.9,2.9-2.3,4.5-0.1c0.3,0.5,0.9,1,1.4,1c1.1,0,2.5,0.1,3.1-0.5c0.6-0.7,0.3-2.1,0.2-3.2
	c-0.1-0.5-0.7-0.9-1.1-1.3c-1.8-1.3-1.8-2.6,0-3.9c0.3-0.2,0.6-0.6,0.9-0.9c1-1.3,1.2-2.9-0.1-3.7c-0.8-0.5-2.5-0.3-3.5,0.1
	c-1.1,0.4-1.8,1.6-2.9,2.6c-1-0.9-1.7-2-2.7-2.4c-1.1-0.5-2.9-0.9-3.7-0.3c-1.5,0.9-1.1,2.7,0,3.9
	C191.1,141.3,192.2,141.9,193.1,142.6z"/>
<path class="st9" d="M491.7,187.6c8.3,0,16.7,0,25,0c3.8,0,5.2,1,5.3,3.8c0.1,2.8-1.8,4.3-5.5,4.3c-14.7,0-29.3,0-44,0
	c-2.6,0-5.2,0-7.7-0.3c-2.5-0.3-3.6-1.9-3.4-4.1c0.2-2.4,1.6-3.7,4.1-3.7C474.2,187.6,483,187.6,491.7,187.6z M480.4,189.5
	c-4.5,0-9-0.1-13.5,0.1c-1,0-1.9,1.1-2.8,1.7c0.9,0.7,1.8,2.1,2.7,2.1c9,0.2,18,0.2,27,0c0.9,0,2.5-1.1,2.6-1.9c0.2-1.7-1.3-2-2.7-2
	C489.2,189.5,484.8,189.5,480.4,189.5z"/>
<path class="st5" d="M491.9,164c8.4,0,16.8,0,25.2,0c3,0,4.8,1.4,4.8,3.8c0.1,2.4-1.7,4-4.7,4c-17.1,0-34.2,0-51.2,0
	c-2.9,0-4.6-1.6-4.5-4.1c0.1-2.4,1.7-3.7,4.6-3.7C474.7,164,483.3,164,491.9,164C491.9,164,491.9,164,491.9,164z M476.9,166
	c-3.4,0-6.8-0.1-10.2,0.1c-0.9,0.1-1.7,1.2-2.5,1.8c0.8,0.7,1.6,2,2.4,2c6.7,0.2,13.4,0.1,20.2,0c0.8,0,2-1.3,2.2-2.1
	c0.2-1.4-0.9-1.9-2.3-1.8C483.3,166,480.1,166,476.9,166z"/>
<path class="st13" d="M433,142.8c-7,0-14,0-21,0c-3.6,0-5.9-2.1-6-5.3c-0.1-3.4,2.4-5.9,5.9-5.8c12.8,0,25.6,0,38.3,0
	c1.6,0,3.2,0.1,4.7,0.3c3.1,0.3,4.8,2.2,4.9,5.2c0,3.1-1.8,5.3-4.9,5.6c-1.3,0.1-2.7,0.1-4,0.1C445,142.8,439,142.8,433,142.8z
	 M444.9,135c-0.5-0.2-1-0.6-1.4-0.4c-0.8,0.4-2,1-2,1.5c0.1,1.4,0.7,2.8,1.1,4.2c0.8-0.6,1.6-1.2,2.4-1.7c0.2,0.5,0.3,1.1,0.6,1.5
	c0.4,0.7,1,1.9,1.5,1.9c2.9-0.1,5.8-0.3,8.6-0.9c2.1-0.4,2.9-2.4,2.6-4.2c-0.3-1.8-1.4-3.6-3.6-3.7c-3-0.1-6,0-8.5,0
	C445.7,133.9,445.3,134.5,444.9,135z M413.4,136.9c-0.9-0.9-1.7-2.4-2.6-2.5c-1.6-0.1-1.9,1.5-1.8,2.9c0.1,1.3,0,3,1.8,3
	C412.6,140.3,413.1,139,413.4,136.9z M429.8,137.2c-1.1-1.3-1.8-2.8-2.6-2.9c-1.9-0.2-2.1,1.5-2.1,3c0,1.5,0.3,3.2,2.1,2.9
	C428.1,140.1,428.7,138.6,429.8,137.2z M435.4,137.4c-1.3-1.3-1.9-2.7-2.8-2.9c-2.1-0.4-2,1.3-2,2.7c0,1.3-0.1,3.1,1.7,2.9
	C433.2,140.2,434,138.7,435.4,137.4z M419.1,137.4c1.1,1.3,1.8,2.8,2.6,2.8c1.8,0.2,1.8-1.5,1.8-2.8c0-1.3,0.1-3-1.8-2.8
	C420.9,134.7,420.2,136.1,419.1,137.4z M435,137.3c1.2,1.4,1.9,2.9,2.8,2.9c1.8,0.1,1.8-1.6,1.8-2.9c0-1.2,0.2-2.9-1.6-2.7
	C437.1,134.7,436.3,136.1,435,137.3z M413.6,137.2c1.2,1.3,1.8,2.8,2.7,2.9c1.6,0.3,1.8-1.3,1.8-2.6c0-1.4,0.3-3.2-1.9-2.9
	C415.4,134.8,414.7,136,413.6,137.2z"/>
<path class="st10" d="M93.5,240.4c0,2.7,0,5.3,0,8c0.1,2.3-1.1,3.5-3.3,3.5c-5.5,0.1-11,0.1-16.5,0c-2,0-3.3-1.3-3.3-3.4
	c-0.1-5.5-0.1-11,0-16.5c0-2.4,1.7-3.4,3.8-3.5c5.2-0.1,10.3-0.1,15.5,0c2.9,0.1,3.8,1.1,3.8,4C93.5,235.2,93.5,237.8,93.5,240.4z
	 M76.1,232.4c-0.3,1.9-0.4,3.1-0.7,4.2c-0.2,0.8-0.5,1.9-1.2,2.4c-1.6,1.2-1.6,1.9-0.1,3.1c0.6,0.5,1.2,1.6,1.1,2.3
	c-0.4,2.2,0.5,2.6,2.4,2.7c1,0,2.1,0.5,2.8,1.2c1.2,1.2,2,1.2,3.2,0c0.6-0.6,1.8-1.1,2.7-1c1.5,0.2,2.7-0.7,2.4-2.3
	c-0.2-1.4-0.3-2.3,1.3-3c1.4-0.6,1.5-2.6,0.1-3.1c-1.5-0.6-1.8-1.3-1.4-2.9c0.5-1.6-0.5-2.6-2-2.2c-1.7,0.5-2.6,0-3.4-1.5
	c-0.2-0.4-2.5-0.4-2.7,0C79.7,234.3,78.5,234.3,76.1,232.4z"/>
<path class="st10" d="M488,220.2c0-2.4,0-4.8,0-7.2c0-2.8,1-4.2,3.7-4.3c5.3-0.2,10.7-0.1,16,0c2.1,0,3.3,1.3,3.3,3.5
	c0,5.4,0,10.8,0,16.2c0,2.4-1.2,3.5-3.6,3.5c-5.2,0.1-10.5,0.1-15.7,0c-2.4,0-3.6-1.3-3.7-3.8C488,225.5,488,222.9,488,220.2z
	 M506.4,215.5c-0.2-1.3-0.7-2.3-2.5-1.7c-1.4,0.4-2.3,0.2-3-1.3c-0.6-1.4-2-1.2-3,0c-0.6,0.7-1.8,1.3-2.7,1.3
	c-2.1-0.1-2.8,0.4-2.4,2.4c0.3,1.3,0.4,2.1-1.3,2.6c-1.4,0.4-1.5,2.6-0.2,3.1c1.7,0.7,1.8,1.6,1.5,3.1c-0.3,1.6,0.9,2.4,2.4,2.1
	c0.8-0.1,2.1,0.1,2.5,0.7c1.3,1.8,2.1,1.8,3.5,0.1c0.4-0.6,1.7-1,2.4-0.9c1.7,0.3,2.5-0.4,2.6-2.2c0-0.9,0.6-2.1,1.3-2.7
	c1.2-1,1.5-2.7,0.1-3.3C506.2,218,505.8,217.2,506.4,215.5z"/>
<path class="st9" d="M491.8,183.5c-8.5,0-17,0-25.5,0c-3.3,0-4.8-1.2-4.8-3.7c-0.1-2.7,1.6-4.1,4.8-4.2c17,0,34,0,51,0
	c3.8,0,6,3.1,4.2,5.8c-0.7,1.1-2.5,2-3.9,2C508.9,183.6,500.3,183.5,491.8,183.5z M488.1,181.5c3.6,0,7.1,0,10.7,0
	c3.7,0,7.5,0.1,11.2-0.1c0.8,0,1.6-1.2,2.4-1.9c-0.8-0.6-1.6-1.4-2.5-1.7c-1.2-0.3-2.4-0.3-3.7-0.3c-12.1,0-24.3,0-36.4,0
	c-1.1,0-2.2,0-3.2,0.4c-1,0.4-1.7,1.4-2.5,2.1c1,0.5,2,1.4,3,1.5C474.1,181.6,481.1,181.5,488.1,181.5z"/>
<path class="st13" d="M146.8,142.8c-6.9,0-13.8,0-20.7,0c-3.7,0-6.1-2.2-6-5.4c0-3.3,2.6-5.7,6.3-5.7c10.9,0,21.8,0,32.7,0
	c3.2,0,6.3-0.1,9.5,0.1c2.5,0.2,4.6,1.3,5.2,3.9c0.6,2.3,0.2,4.6-2,6c-1.1,0.7-2.5,1-3.7,1C161,142.8,153.9,142.8,146.8,142.8
	C146.8,142.8,146.8,142.8,146.8,142.8z M131,134.7c-0.7,0.3-2.1,0.5-2.1,0.9c-0.2,1.3-0.1,2.7,0.2,4c0.1,0.3,1.5,0.2,2.4,0.2
	c0.2-0.8,0.4-1.5,0.6-2.3c0-0.3,0-0.7,0-1C131.8,135.9,131.4,135.3,131,134.7z M137.3,140c0.7,1.3,1.8,1.7,3.2,1.6
	c3.3-0.1,6.6,0,10,0c5.8,0,11.6,0,17.4,0c2.3,0,4.3-1.9,4.3-4c0-2.2-1.2-3.7-3.3-4c-1.9-0.2-3.8-0.5-5.7-0.5c-8-0.1-16,0-23.9,0
	c-1.3,0-2,0.4-2.1,1.8c-1,0.2-2.9,0.2-3,0.6c-0.3,1.3-0.2,2.9,0.2,4.2C134.7,140,136.4,139.8,137.3,140z M127.8,137.5
	c-1.2-1.3-1.9-2.2-2.7-3.1c-0.7,0.9-1.7,1.8-2,2.9c-0.3,1.3,0.2,2.9,1.9,2.7C125.9,139.9,126.6,138.7,127.8,137.5z"/>
<path class="st11" d="M126.5,126.1c-0.6,0-1.3,0-1.9,0.1c-1.7,0.3-2.8-0.7-2.3-2.4c0.4-1.4,0.1-2.1-1.1-2.8c-1.5-0.8-1.3-2.3,0-3.4
	c0.6-0.6,1.2-1.7,1.1-2.5c-0.1-1.9,0.7-2.7,2.6-2.5c0.7,0.1,1.8-0.4,2.3-0.9c1.3-1.4,2.5-1.5,3.8-0.2c0.5,0.5,1.4,1.1,2.1,1.1
	c2.8,0,2.9,0.1,2.6,2.9c-0.1,0.5,0.3,1.1,0.4,1.6c0.6,0.3,1.3,0.7,1.9,1c-0.1,1.2,0.7,2.8-1.4,3.1c-0.3,0.6-0.6,1.2-0.8,1.9
	c-0.2,1-0.4,2.1-0.7,3.1c-0.6-0.1-1.1-0.1-1.7-0.2c-1.8-0.4-2.8,0.2-2.8,2.1c0,0,0,0,0,0C128.5,128.8,127.7,126.9,126.5,126.1z
	 M132.8,119.3c0-1.7-2-3.8-3.7-3.7c-2,0.1-3.6,1.7-3.6,3.7c0,2,1.7,3.7,3.7,3.6C131.1,123,132.8,121.3,132.8,119.3z"/>
<path class="st11" d="M418,126c-0.7,0.7-1.3,1.5-2,2.2c-0.8-0.1-1.7-0.2-2.5-0.2c-0.5-0.6-1-1.2-1.5-1.9c-0.5,0.1-1.1,0.2-1.6,0.2
	c-0.3,0-0.6,0.1-0.9,0.1c-0.5-0.5-1-1-1.5-1.4c0-0.3,0-0.7,0-1c0.9-1.4,1-2.5-1-2.9c-1.5-0.9-1.4-2.6-0.4-3.2
	c1.4-0.9,1.7-1.7,1.5-3.2c-0.1-0.6,0.6-1.4,0.9-2.1c0.6,0.1,1.2,0.3,1.9,0.3c1.4,0.1,2.7,0,2.5-1.9c1.4-0.7,2.5-0.9,3.7,0.6
	c0.5,0.6,1.6,0.6,2.4,1c0.8,0.3,1.6,0.7,2.4,1c-0.5,2-1.1,4,1.7,4.8c0.2,0.1,0.3,0.7,0.4,1.1c-0.2,0.5-0.4,1-0.6,1.5
	c-3.4,0.3-1.7,2.4-1.5,4c-0.7,0.5-1.3,1-2,1.4C419.4,126.3,418.7,126.1,418,126z M418.6,119.4c0-2-1.6-3.8-3.5-3.8
	c-1.8,0-3.6,1.8-3.6,3.7c0,2.2,1.5,3.7,3.5,3.7C417.1,123,418.5,121.5,418.6,119.4z"/>
<path class="st5" d="M425.5,113.5c1.3-0.2,2.6-0.5,3.9-0.7c0.4,0,0.7,0,1.1,0c4,0.1,8,0.1,12,0.2c1,1.7,0.4,2.5-1.4,2.6
	c-4.6,0-9.1,0-13.7,0C425.9,115.6,425.4,114.9,425.5,113.5z"/>
<path class="st9" d="M143,112.8c4.5,0,9,0.1,13.5,0.1c1.1,2,0.2,2.7-1.8,2.7c-3.8,0-7.6,0.1-11.4-0.1c-1.2-0.1-2.4-0.8-3.6-1.2
	C140.8,113.8,141.9,113.3,143,112.8z"/>
<path class="st14" d="M425.5,113.5c-0.1,1.3,0.4,2.1,1.8,2.1c4.6,0,9.1,0,13.7,0c1.9,0,2.4-0.9,1.4-2.6c0.6,0.3,1.4,0.4,1.8,0.8
	c0.2,0.3-0.2,1.4-0.6,1.6c-1.1,0.5-2.3,0.9-3.5,1c-3.1,0.1-6.1,0-9.2,0.1c-0.7,0-1.3,0.6-1.9,0.9c-1.5,0.3-3.9-0.5-3.5,2.5
	c-0.5-0.2-1-0.4-1.5-0.6c-0.1-0.4-0.2-1.1-0.4-1.1c-2.8-0.8-2.3-2.8-1.7-4.8c0.8,0.8,1.5,1.6,2.2,2.3
	C424.4,115.3,425,114.4,425.5,113.5z"/>
<path class="st14" d="M143,112.8c-1.1,0.5-2.2,1-3.3,1.5c1.2,0.4,2.4,1.2,3.6,1.2c3.8,0.2,7.6,0,11.4,0.1c2,0,2.9-0.6,1.8-2.7
	c0.5,0.2,1,0.5,1.4,0.7c-0.6,0.9-1.1,2.4-1.9,2.7c-1.3,0.5-3,0.2-4.4,0.1c-1.6-0.1-2.4,0.5-2.2,2.1c-0.5-0.4-1-0.7-1.4-1.1
	c-0.2-0.3-0.4-0.5-0.6-0.8c-0.1,0.2-0.3,0.5-0.4,0.7c-0.5,0-1,0-1.5,0c-1.3-1.3-2.2-1.3-3.5,0c-0.8,0.2-1.6,0.4-2.4,0.6
	c-0.2-1.4-0.6-2.7-0.6-4.1C139.1,112,141.1,111.5,143,112.8z"/>
<path class="st9" d="M425.6,120c-0.5-3.1,1.9-2.2,3.5-2.5c1.4,0,2.8-0.1,4.1,0.1c0.7,0.1,1.3,0.6,2,0.9c0,0.3,0,0.7,0,1
	c-0.5,0.3-1,0.7-1.6,1c-2.3,0-4.7,0-7,0C426.2,120.3,425.9,120.1,425.6,120z"/>
<path class="st9" d="M139.6,118c0.8-0.2,1.6-0.4,2.4-0.6c1.2,0,2.3,0,3.5,0c0.5,0,1,0,1.5,0c0.3,0,0.7,0,1,0.1
	c0.5,0.4,1,0.7,1.4,1.1c-0.3,0.6-0.7,1.2-1,1.8c-2.1,0-4.3,0.1-6.5,0.1c-0.3,0-0.7,0-1,0c-0.3-0.1-0.7-0.3-1-0.4
	C139.9,119.4,139.8,118.7,139.6,118z"/>
<path class="st1" d="M87.5,414.6c-0.3,0.1-0.5,0.3-0.8,0.4c-4.5,0-8.9,0-13.4-0.1c-2.7-0.1-5.5-0.2-7.6-2.3
	c6.6,2.2,13.5,1.3,20.2,1.5C86.5,414,87,414.4,87.5,414.6z"/>
<path class="st9" d="M363,56.1c-0.3-0.5-1.1-1.3-1-1.5c0.8-1.5,1.9-2.8,2.9-4.3c0.4,0.4,1.3,1,1.2,1.2c-0.6,1.6-1.4,3.1-2.2,4.6
	C363.7,56.1,363.3,56.1,363,56.1z"/>
<path class="st9" d="M338.7,54.4c-1,0.7-1.5,1.1-2,1.5c-1-1.3-2.1-2.6-2.9-4c-0.1-0.2,0.7-1,1.1-1.6
	C336.1,51.6,337.2,52.8,338.7,54.4z"/>
<path class="st9" d="M351.3,49c0,0.4,0.1,0.9,0,1.2c-0.3,0.7-0.8,1.3-1.2,1.9c-0.5-0.6-1.1-1.2-1.5-1.9c-0.2-0.3-0.1-0.8,0-1.2
	c0.1-1.1-0.4-2.9,1.5-2.8c0.7,0,1.2,1.6,1.8,2.5C351.7,48.8,351.5,48.9,351.3,49z"/>
<path class="st9" d="M374.3,79.4c-0.1,0-0.8,0.1-1.4-0.1c-0.5-0.2-0.8-0.7-1.1-1.1c0.7-0.5,1.5-1.4,2.2-1.4c1.3,0.1,3.4-1.1,3.8,1.3
	c0,0.3-1.5,0.9-2.4,1.3C375.3,79.4,375.1,79.4,374.3,79.4z"/>
<path class="st9" d="M325,79.4c-0.4,0-0.9,0.1-1.2,0c-0.6-0.4-1.1-0.9-1.7-1.4c0.6-0.4,1.1-1.1,1.8-1.3c0.8-0.2,1.7-0.2,2.4,0
	c0.7,0.2,1.2,0.8,1.8,1.2c-0.6,0.5-1.3,1-1.9,1.4C325.9,79.5,325.4,79.4,325,79.4z"/>
<path class="st9" d="M377,63c0,1.3-3.6,3.4-4.7,2.7c-0.4-0.3-0.8-1.5-0.7-1.5c1.5-0.9,2.9-1.7,4.5-2.4c0.4-0.2,1,0.4,1.6,0.6
	C377.4,62.6,377.2,62.8,377,63z"/>
<path class="st9" d="M329.3,64.3c-1.2,0.9-2,1.7-2.2,1.5c-1.5-0.8-2.9-1.9-4.3-2.9c0.5-0.4,1.2-1.3,1.5-1.2
	C325.9,62.3,327.3,63.2,329.3,64.3z"/>
<path class="st10" d="M500.6,237c0.3,0.4,0.7,0.8,0.8,1.2c0.1,0.8,0,1.6,0,2.4c-0.7-0.1-1.5-0.2-2.2-0.2c0.1-0.8,0.1-1.6,0.4-2.3
	c0.1-0.4,0.6-0.7,0.9-1.1C500.4,237,500.6,237,500.6,237z"/>
<path class="st15" d="M82.9,257.6c-0.9-1.1-1.6-1.8-1.7-2.5c-0.1-0.5,0.9-1.6,1.3-1.5c0.7,0.1,1.7,0.8,1.8,1.3
	C84.4,255.6,83.6,256.4,82.9,257.6z"/>
<path class="st15" d="M85.4,259.7c-1.3,0.6-2,1.3-2.5,1.2c-0.7-0.2-1.5-1-1.6-1.6c-0.1-0.4,1.1-1.6,1.4-1.5
	C83.5,257.9,84.1,258.7,85.4,259.7z"/>
<path class="st15" d="M85.1,264.1c-1.1,0.6-1.8,1.4-2.2,1.3c-0.7-0.2-1.2-1-1.8-1.6c0.6-0.6,1.2-1.5,1.8-1.6
	C83.5,262.2,84.1,263.2,85.1,264.1z"/>
<path class="st15" d="M500.6,237c0,0-0.2,0-0.2,0c-0.5-0.9-1.1-1.9-1.6-2.8c0.7-0.2,1.5-0.7,2.2-0.6
	C502.4,234,502.2,235.4,500.6,237z"/>
<path class="st15" d="M502.8,244.3c-1.3,0.6-2.1,1.2-2.7,1.1c-0.5-0.1-1.5-1.2-1.4-1.5c0.3-0.7,1.1-1.6,1.7-1.6
	C501,242.3,501.6,243.3,502.8,244.3z"/>
<path class="st14" d="M422,125c-0.2-1.6-1.9-3.7,1.5-4c-0.1,0.5-0.2,1.1-0.4,1.7c0.6,0.1,1.2,0.1,1.8,0.1c0.1,0.3,0.2,0.5,0.3,0.8
	C424.1,124.1,423.1,124.6,422,125z"/>
<path class="st14" d="M413.4,111c0.2,1.9-1.1,2-2.5,1.9c-0.6,0-1.2-0.2-1.9-0.3C410.5,112,412,111.5,413.4,111z"/>
<path class="st14" d="M130.5,128c0-2,1-2.5,2.8-2.1c0.5,0.1,1.1,0.1,1.7,0.2c-0.2,0.3-0.6,0.8-0.7,0.8
	C132.6,126,131.7,127.3,130.5,128z"/>
<path class="st14" d="M126.5,126.1c1.3,0.8,2,2.7,4,1.9C128.8,129.8,127.5,129.2,126.5,126.1z"/>
<path class="st14" d="M407,121.1c2,0.4,1.9,1.5,1,2.9C407.6,123,407.3,122,407,121.1z"/>
<path class="st14" d="M413.5,128c0.8,0.1,1.7,0.2,2.5,0.2c-0.1,0.5-0.2,1.1-0.5,2.2C414.7,129.3,414.1,128.7,413.5,128z"/>
<path class="st16" d="M426.5,120.5c2.3,0,4.7,0,7,0C431.2,120.5,428.8,120.5,426.5,120.5z"/>
<path class="st14" d="M142,120.5c2.2,0,4.3-0.1,6.5-0.1C146.3,120.4,144.2,120.4,142,120.5z"/>
<path class="st14" d="M408,125c0.5,0.5,1,1,1.5,1.4c-0.6,0.1-1.1,0.2-1.7,0.3C407.9,126.1,407.9,125.6,408,125z"/>
<path class="st14" d="M137.9,118c-0.6-0.3-1.3-0.7-1.9-1C136.7,117.3,137.3,117.7,137.9,118z"/>
<path class="st14" d="M418,126c0.7,0.2,1.4,0.3,2,0.5C419.4,126.3,418.7,126.1,418,126z"/>
<path class="st14" d="M135.7,123c0.3-0.6,0.6-1.2,0.8-1.9C136.3,121.8,136,122.4,135.7,123z"/>
<path class="st14" d="M410.5,126.3c0.5-0.1,1.1-0.1,1.6-0.2C411.5,126.2,411,126.3,410.5,126.3z"/>
<path class="st14" d="M430.5,112.8c-0.4,0-0.7,0-1.1,0C429.8,112.8,430.2,112.8,430.5,112.8z"/>
<path class="st16" d="M435.1,119.5c0-0.3,0-0.7,0-1c0.2,0.2,0.5,0.3,0.7,0.5C435.6,119.2,435.3,119.3,435.1,119.5z"/>
<path class="st14" d="M140,120c0.3,0.1,0.7,0.3,1,0.4C140.7,120.3,140.3,120.2,140,120z"/>
<path class="st1" d="M87,417c0,0.3,0.1,0.6,0.1,0.9C87.1,417.6,87,417.3,87,417z"/>
<path class="st10" d="M152.5,374.2c0,3.6,0,7.1,0,10.5c-0.2,0.1-0.4,0.3-0.7,0.4c-2.2-2.3-4.7-4.3-6.6-6.8c-2.3-3.1-4.8-4.6-8.8-4.3
	c-5.6,0.4-11.1,0.1-16.7,0.1c-3.4,0-4.2-0.9-4.2-4.3c0-6.7,0-13.3,0-20c0-2.8,0.9-3.7,3.7-3.7c11.8,0,23.6,0,35.5,0
	c3,0,3.8,0.9,3.8,3.9c0,6.5,0,13,0,19.5c0,4.1-0.5,4.5-4.6,4.6C153.6,374,153.2,374.1,152.5,374.2z M137.1,363.2
	c1.3-1.7,2.6-2.7,2.7-3.7c0.1-1.7-0.9-3-2.9-2.9c-2,0.1-2.7,1.5-2.6,3C134.4,360.6,135.7,361.5,137.1,363.2z M126.9,362.1
	c0.5-0.7,1.9-1.8,1.8-2.7c-0.1-1-1.4-2.5-2.4-2.7c-1.5-0.4-2.8,0.5-2.8,2.5C123.4,361.1,124.5,361.8,126.9,362.1z M150.5,359.1
	c0.2-1.6-0.9-2.5-2.5-2.5c-1.8-0.1-2.8,1.1-2.8,2.8c0,1.6,1,2.7,2.9,2.7C149.9,361.9,150.5,360.9,150.5,359.1z"/>
<path class="st15" d="M227,374c0.2,0,0.3-0.1,0.5,0c-0.1,0.6-0.1,1.3-0.2,1.9c-0.7,3.1,0.7,5.6,3.7,7.1c-0.5,0.3-1,0.6-1.4,1
	c-0.6,0.6-1.4,1.1-1.5,1.8c-0.4,2.7,0.1,3.2,2.9,3.2c45,0,90.1,0,135.1,0c0.3,0,0.7,0.1,1,0c0.7-0.4,1.6-0.9,1.8-1.5
	c1.3-2.9-1.4-3-3-4c2.7-1.6,4.1-4.1,4.6-7.1c3.6,0.5,5.3,2.4,5.4,5.9c0,1.6-0.1,3.2,0,4.7c0.2,3-1,5.3-3.6,6.9
	c-2.2,0-4.3,0.1-6.5,0.1c-46,0-92.1,0-138.1,0c-1.4,0-2.8-0.3-4.2-0.5c-2.6-2.9-3.8-10.8-2-14.2c0.5-1,1.5-2,2.4-2.3
	C225.8,376.5,226.7,375.6,227,374z"/>
<path class="st17" d="M174,366.9c0,2.7,0.1,5.5,0,8.3c0,0.9-0.5,1.8-0.8,2.6c-0.8-0.4-1.9-0.5-2.5-1.2c-2.8-2.8-5.5-5.6-8-8.5
	c-0.7-0.8-0.8-2.2-1.2-3.3c0.2-0.1,0.5-0.2,0.7-0.3c2.9,2.9,5.7,5.8,8.6,8.7c0.3-0.1,0.6-0.3,0.9-0.4c0-2,0.1-4,0-6
	c-0.1-2,0.5-2.9,2.6-2.8c3.4,0.1,3.4,0,3.4-3.5c0-6.7,0-13.3,0-20c0-2.9-0.5-3.5-3.5-3.5c-11,0-22,0-33,0c-3.4,0-3.8,0.5-4.1,3.9
	c0,0.7-0.7,1.4-1.1,2.1c-0.5-0.7-1.3-1.5-1.3-2.2c-0.3-4.5,1.5-6.2,5.9-6.2c11.2,0,22.5,0,33.7,0c4.3,0,5.7,1.5,5.7,5.6
	c0,6.5,0,13,0,19.5C180,365.6,179.9,365.6,174,366.9z"/>
<path class="st14" d="M231,383c-3-1.5-4.4-4-3.7-7.1c0.1-0.6,0.2-1.3,0.2-1.9c0.9-0.2,1.7-0.4,2.6-0.4c6.2,0,12.4,0.3,18.5-0.1
	c9.1-0.6,18.1-1.6,27.1-2.8c5.2-0.7,10.5-1.7,15.5-3.2c6.6-2,13.2-4.3,19.5-7c5.4-2.4,10.7-5.2,15.6-8.4
	c8.9-5.8,16.3-13.2,21.6-22.6c3.1-5.6,5-11.6,5.6-18.1c0.7-7.6-0.7-14.8-4.3-21.3c-3-5.5-7.1-10.4-12.4-14c-0.7-0.5-1.2-1.2-1.9-1.9
	c-0.1-0.1-0.1-0.2,0-0.3c0.5,0,1,0,1.5,0c7,0,14,0,21,0c0.2,0,0.3,0,0.5,0c1.3-0.1,2.5-0.1,3.8-0.2c7,1.5,8.7,3.7,8.7,11
	c0,2.2,0.1,4.5,0.1,6.7c0,10.2,0,20.4-0.1,30.6c0,2.1,0,4.2,0,6.4c0,16,0.1,32,0.1,48c-0.5,3-1.9,5.5-4.6,7.1
	c-6.3,1.9-12.7,0.9-19,1c-35.8,0.1-71.6,0-107.4,0.1C236.6,384.5,233.7,384.5,231,383z"/>
<path class="st17" d="M480.4,335.8c0.5,0,1.1,0.1,1.6,0.1c4,0.1,4,0.1,4,4.2c0,13.7,0,27.5,0.1,41.2c0,2.4-0.7,3.2-3.1,3.1
	c-13.4-0.1-26.8,0-40.2,0c-3.6,0-3.6,0-3.7-3.8c0-0.8-0.1-1.6-0.1-2.1c-2-0.7-4.3-0.7-5.2-1.9c-1-1.2-0.6-3.5-0.8-5.7
	c-1.9,0-3.8-0.1-5.7,0c-1.6,0.1-2.2-0.6-2.2-2.2c0-17.2,0-34.3,0-51.5c0-1.8,0.7-2.3,2.4-2.3c13.9,0,27.8,0,41.7,0
	c2.2,0,3,1,2.9,3.1c-0.1,1.2,0,2.3,0,3.9c2,0,3.8,0.1,5.5,0c1.8-0.1,2.7,0.6,2.5,2.5c0,0.3,0,0.7,0,1c0,3.9,0,3.8,3.8,4.1
	c0.7,0.1,1.4,0.8,2.1,1.2c-0.7,0.4-1.3,0.9-2.1,1.3c-0.2,0.1-0.5,0-0.7,0C479.9,332.1,479.6,332.4,480.4,335.8z M442,360.2
	c0,6.5,0,13,0,19.5c0,1.4,0.1,2.3,2,2.3c12.4-0.1,24.8,0,37.2,0c1.4,0,2-0.4,1.9-1.9c-0.1-2,0-4,0-6c0-10.8,0-21.7,0-32.5
	c0-3.1,0.1-3.1-3.1-3.1c-11.8,0-23.7,0-35.5,0c-1.9,0-2.6,0.4-2.6,2.5C442.1,347.4,442,353.8,442,360.2z M436,349.7
	c0,7.7,0,15.5,0,23.2c0,1.7,0.6,2.5,2.2,1.9c0.5-0.2,0.9-1.5,0.9-2.2c0.1-10.9,0-21.8,0-32.7c0-3.7,0.2-3.9,4-3.9
	c10.3,0,20.7,0,31,0c1.4,0,3.4,0.8,3.5-1.9c0.1-2.7-1.9-2-3.3-2c-10.7,0-21.3,0-32,0c-0.7,0-1.4,0.1-2-0.1c-0.4-0.2-1-0.8-1-1.2
	c0-0.4,0.6-1,1-1.1c0.7-0.2,1.5-0.1,2.2-0.1c10.7,0,21.5-0.1,32.2,0.1c2.6,0,2.5-1.6,2.7-3.1c0.2-2.1-1.3-1.9-2.7-1.9
	c-12.1,0-24.2,0-36.2-0.1c-2.2,0-2.6,0.8-2.6,2.8C436,334.7,436,342.2,436,349.7z M468.7,322c0.7-4,0.7-4-2.9-4
	c-11.8,0-23.7,0.1-35.5,0c-2.2,0-2.8,0.6-2.8,2.8c0.1,14.8,0,29.7,0.1,44.5c0,2.9,0.2,3.1,4.4,3.1c2.2,0,1.5-1.8,1.5-3
	c0-13.6,0.1-27.2,0-40.7c0-2.1,0.6-2.8,2.7-2.7c4.2,0.1,8.5,0,12.7,0C455.4,322,462,322,468.7,322z"/>
<path class="st18" d="M357.5,273.8c-7,0-14,0-21,0c-0.5,0-1,0-1.5,0c-0.1,0.1-0.1,0.2,0,0.3c-2.7-0.1-5.3-0.2-8-0.3
	c0.1-5.9,0.5-11.7,0.3-17.6c-0.1-2.4-1.3-4.8-1.9-7.2c0-0.7,0-1.3,0-2c0.5-2.2,1-4.3,1.5-6.5c1.2-0.1,2.3-0.2,3.5-0.2
	c2.7,0.4,5.5,0.8,8.2,1.2c2.2,1.4,4.6,2.6,6.7,4.2c7.2,5.4,12,12.6,15.2,20.9c0.9,2.3,2.3,4.5,1.2,7.1c-1.3,0.1-2.5,0.1-3.8,0.2
	C357.8,273.8,357.7,273.8,357.5,273.8z"/>
<path class="st17" d="M384.8,252.5c-5.9,0-11.8,0-17.7,0c-1.7,0-3-0.3-3.1-2.3c-0.1-2,1.2-2.9,2.9-3.1c1.4-0.2,2.8-0.1,4.2-0.1
	c9.9,0,19.8,0,29.7,0c0.8,0,1.7,0,2.5,0.2c1.8,0.3,2.9,1.4,2.7,3.2c-0.2,1.9-1.7,2.1-3.1,2.1C396.8,252.5,390.8,252.5,384.8,252.5z"
	/>
<path class="st17" d="M389.8,231c4.4,0,8.8,0.1,13.2,0c1.8,0,2.9,0.7,3,2.5c0,1.8-1,2.6-2.9,2.6c-5.5,0.1-10.9,0.3-16.4,0.4
	c-3.6,0-7.1-0.3-10.7-0.4c-1.7-0.1-2.4-1.1-2.4-2.6c0-1.5,0.8-2.5,2.5-2.5C380.6,231,385.2,231,389.8,231z"/>
<path class="st17" d="M395.5,239c2.4,0,4.8,0,7.2,0c1.9,0,3.1,0.8,3.2,2.7c0.2,2.1-1.4,2.7-3.1,2.8c-4.9,0.1-9.8,0.1-14.7,0
	c-1.7,0-3-1-3-2.7c0-1.7,1.1-2.8,3.1-2.8C390.7,239,393.1,239,395.5,239z"/>
<path class="st17" d="M373.4,239c2,0,4,0,6,0c1.9,0,3.1,1.2,2.9,2.7c-0.1,1-1.6,2.6-2.6,2.7c-4.4,0.3-8.8,0.3-13.2,0
	c-0.9-0.1-2-1.7-2.4-2.8c-0.6-1.6,0.9-2.3,2.1-2.4c2.4-0.2,4.8,0,7.2,0C373.4,239.1,373.4,239.1,373.4,239z"/>
<path class="st17" d="M366.9,236.4c-1.4-0.3-2.8-0.8-2.9-2.8c-0.1-2.1,1.3-2.9,3-2.9c1.6,0,3.5,0.2,3.6,2.5
	C370.6,235.1,369.3,236.4,366.9,236.4z"/>
<path class="st12" d="M325.4,249c0.7,2.4,1.9,4.8,1.9,7.2c0.2,5.8-0.2,11.7-0.3,17.6c-1,0.1-2,0.2-3,0.2c-29.1,0-58.3,0-87.4,0
	c-2,0-3.9,0.5-5.9,0.7c-1.6-4.5,1.2-8,2.5-11.8c0.3-0.8,0.6-1.5,0.9-2.3c0.3-0.5,0.6-1,1-1.5c1.4-1.9,2.7-3.9,4.2-5.8
	c6.8-9,15.7-13.8,27.2-12.8c1,22.1,26.9,35.4,46,23.7C318.5,260.5,322.5,255.2,325.4,249z"/>
<path class="st17" d="M194.4,239.2c0,1.4,0,2.6,0,3.8c-3.5,1.2-3.5,1.3-2.6,5.3c0.1,0.7-0.7,1.8-1.3,2.4c-0.5,0.4-1.5,0.6-2.1,0.3
	c-2.3-0.9-3.5-0.3-4.5,2c-0.3,0.7-1.5,1.4-2.2,1.3c-0.9,0-2.2-0.6-2.5-1.3c-1.1-2.4-2-2.8-4.7-1.9c-0.7,0.2-1.8-0.3-2.4-0.9
	c-0.5-0.5-0.9-1.6-0.7-2.3c1-2.8,0.4-4.1-2.7-4.7c-0.3-1.9-1.7-4,1.9-4.5c1.1-0.1,2-3.3,1.2-4.2c-1.1-1.2-0.6-2,0.3-2.9
	c0.9-0.9,1.6-1.6,2.9-0.5c1.3,1.1,3.7,0.2,4-1.5c0.2-1.6,1.2-1.8,2.4-1.8c1.3,0,2.4,0,2.6,1.8c0.2,1.6,2.5,2.2,4.1,1.5
	c0.7-0.3,1.9-0.3,2.4,0.2c0.6,0.6,1.3,1.9,1.1,2.6C190.4,236.9,191.1,238.6,194.4,239.2z M181.6,246.5c3.5,0,5.5-2,5.4-5.6
	c0-2.9-2.5-5.4-5.3-5.4c-3.2,0-5.7,2.4-5.7,5.5C176,244.5,178.1,246.5,181.6,246.5z"/>
<path class="st9" d="M209.5,265.4c-2.3-1.8-3.5-1.4-4.7,0.4c-0.4,0.6-2.9,0.5-3,0.2c-1-2.6-2.5-2.2-4.8-0.7
	c-0.2-1.5-0.3-2.6-0.6-3.7c-0.3-0.9-0.6-2-1.3-2.6c-1.5-1.3-1.6-2.3,0.1-3.5c0.7-0.5,1-1.6,1.2-2.5c0.3-1.1,0.4-2.3,0.6-4
	c2.4,1.6,3.7,1.8,4.8-0.7c0.5-1.2,2.6-0.7,3.2,0.6c1,2,2.4,1.6,4.5,0.4c0.3,1.2,0.4,2.3,0.8,3.3c0.4,1,0.9,2.2,1.7,2.9
	c1.4,1.1,1.6,2.3,0.1,3.3c-1.4,0.9-2.2,1.8-1.6,3.7C210.5,263.1,209.9,264.1,209.5,265.4z M203.2,253.5c-2.6,0-3.8,1.3-3.7,3.8
	c0,2.1,1.6,3.7,3.8,3.7c2.4,0,4.3-1.6,4.2-3.6C207.4,255,205.7,253.5,203.2,253.5z"/>
<path class="st17" d="M191,189.5c2.2,0,4.3-0.2,6.5,0.1c0.9,0.1,1.7,1.2,2.5,1.8c-0.8,0.7-1.6,2-2.5,2c-4.3,0.2-8.6,0.2-12.9,0
	c-0.9,0-2.3-1.2-2.4-2c-0.4-1.7,1.2-1.9,2.5-1.9C186.7,189.5,188.9,189.5,191,189.5z"/>
<path class="st14" d="M227,281c0,1,0,2,0,3c-0.2-0.4-0.4-0.8-0.6-1.2C226.6,282.2,226.8,281.6,227,281z"/>
<path class="st19" d="M259.1,181.7c16.5-2.1,31.6-7.6,45-17.5c0.8-0.6,1.6-1.1,2.4-1.6c0.3,0.4,0.5,0.8,0.8,1.1
	c2.9,2.2,5.8,4.4,8.7,6.6c-1.1,0.1-2.2-0.1-3.2,0.2c-0.9,0.3-1.5,1.3-2.3,1.9c0.8,0.7,1.5,1.8,2.3,1.9c2,0.3,4.1,0.2,6.2,0.2
	c0.2,0.6,0.3,1.4,0.7,1.8c3.2,3.4,4.2,7.9,5.6,12.1c2.3,6.9,2.4,14,0.4,21.2c-1.1,4-2.9,7.6-5.4,10.7c-4.6,5.8-10.7,9.4-17.9,11.2
	c-2.9,0.7-5.9,1.3-8.8,2c-2.3-0.2-4.6-0.4-6.9-0.5c-0.7-0.3-1.3-0.7-2-1c-9.1-3.2-16.3-8.8-20.8-17.3c-2.1-4-3.2-8.5-4.8-12.8
	C259,195.2,259.1,188.4,259.1,181.7z M296.8,198.5c-2.9,0-5.8,0-8.7,0c-3,0-4,1.3-3.3,4.3c1.3,6,6.2,10.1,12.3,10.1
	c5.5,0,10.5-4.5,11.6-10.5c0.6-2.9-0.2-3.9-3.1-3.9C302.6,198.5,299.7,198.5,296.8,198.5z M272.9,205c3.4,0.1,5.6-2,5.7-5.2
	c0.1-2.8-2.3-5.7-4.8-5.7c-3.2,0-6.1,2.6-6.2,5.6C267.5,202.7,269.7,205,272.9,205z M315,199.7c0,3.4,1.8,5.4,5.1,5.3
	c3.2,0,5.4-2,5.4-5.1c0.1-3.3-2-5.4-5.4-5.4C316.8,194.5,315,196.3,315,199.7z M279.3,185.7C279.3,185.7,279.3,185.7,279.3,185.7
	c0-1,0.2-2,0-3c-0.3-1.9-1.6-3.1-3.6-3.2c-2-0.1-3.5,1-3.7,2.9c-0.3,2.1-0.3,4.3,0,6.4c0.2,2,1.7,3,3.7,2.9c2-0.1,3.2-1.2,3.6-3.2
	C279.4,187.8,279.3,186.7,279.3,185.7z M314,185.7c0,0.9-0.1,1.8,0,2.7c0.2,2.2,1.5,3.3,3.6,3.4c2,0.2,3.7-1.3,3.8-3.5
	c0.1-1.7,0.1-3.5,0-5.2c-0.2-2.2-1.7-3.6-3.8-3.6c-2,0-3.5,1.4-3.7,3.6C313.9,184,314,184.9,314,185.7z"/>
<path class="st20" d="M259,201.9c1.6,4.3,2.7,8.8,4.8,12.8c4.5,8.5,11.7,14.1,20.8,17.3c0.7,0.2,1.3,0.6,2,1
	c-0.1,1.7-0.2,3.5-0.1,5.2c0.1,1.8-0.6,2.3-2.3,2.3c-2.7-0.1-5.5,0.1-8.2,0.1c-3.2,0-6.3,0-9.5-0.1c-11.5-1-20.4,3.8-27.2,12.8
	c-1.4,1.9-2.8,3.9-4.2,5.8c-3.8-1.8-5.8-5.1-7.5-8.6c-5.7-12-1.5-25.6,7.5-33.9c5-4.7,9.1-10.3,13.6-15.5c0.7-0.8,1-1.9,1.5-2.8
	C252.6,200.5,255.5,202,259,201.9z"/>
<path class="st21" d="M316,170.2c-2.9-2.2-5.8-4.4-8.7-6.6c-0.4-0.3-0.6-0.7-0.8-1.1c4.4-4.3,8.9-8.6,13.5-13.1
	c4.5,3.6,7.9,8.2,10.4,13.5c3.2,6.7,4,13.8,4.1,21.1c-0.2,6-0.3,12-0.5,18c-0.2,1-0.3,2-0.5,3c-0.1,0.2-0.2,0.4-0.3,0.7
	c-3.7,13-12,21.8-24.8,26.3c-0.6,0.2-1.2,0.6-1.7,0.9c-2.5,0.3-5,0.8-7.5,0.9c-1.9,0.1-3.8-0.2-5.7-0.4c2.9-0.7,5.9-1.3,8.8-2
	c7.2-1.7,13.3-5.4,17.9-11.2c2.5-3.1,4.2-6.7,5.4-10.7c2-7.2,1.9-14.3-0.4-21.2c-1.4-4.1-2.4-8.7-5.6-12.1c-0.4-0.4-0.5-1.2-0.7-1.8
	c1.2,0,2.4,0.2,3.5-0.2c0.9-0.3,2.2-1.1,2.4-1.8c0.3-1.5-0.9-2.1-2.4-2.1C320.3,170.3,318.2,170.3,316,170.2z"/>
<path class="st20" d="M306.7,233c0.6-0.3,1.1-0.7,1.7-0.9c12.8-4.5,21-13.3,24.8-26.3c0.1-0.2,0.2-0.5,0.3-0.7
	c0.1,3.3,0.5,6.6,0.4,9.8c-0.1,3.7-0.4,7.4-0.9,11.1c-0.7,4.8-1.6,9.6-2.5,14.3c-1.2,0.1-2.3,0.2-3.5,0.2c-1.8,0-3.7,0.1-5.5,0.1
	c-1.3,0-2.6-0.1-3.9-0.1c-2.8-0.1-5.7-0.2-8.5-0.1c-1.6,0-2.3-0.6-2.2-2.2C306.9,236.5,306.8,234.7,306.7,233z"/>
<path class="st11" d="M259,201.9c-3.5,0.1-6.4-1.4-8.9-3.7c-1.8-3.4-3-6.8-1.7-10.7c1.3-4,3-5.3,7.2-5.5c1.2-0.1,2.3-0.2,3.5-0.3
	C259.1,188.4,259,195.2,259,201.9z"/>
<path class="st11" d="M334,202c0.2-6,0.3-12,0.5-18c0.7-0.4,1.5-0.7,2.2-1.1c3.5-1.5,6.1-0.5,7.7,3C347.9,193.7,342.5,202,334,202z"
	/>
<path class="st17" d="M90,191.3c-1.3-1.4-2.2-2.2-3-3.2c-0.9-1.2-1.4-2.4-0.1-3.8c1.3-1.3,2.6-0.9,3.7,0c1,0.8,1.8,1.7,3.6,3.4
	c0.8-1.2,1.4-2.4,2.2-3.4c1-1.2,2.3-1.2,3.5-0.2c1.3,1,1.4,2.3,0.4,3.5c-0.8,1-1.8,1.9-3.1,3.1c1,1,1.8,2.1,2.8,3
	c1.3,1.3,1.1,2.6,0,3.7c-1.1,1.2-2.4,1.1-3.6,0.2c-1-0.8-1.9-1.8-3-2.7c-1.2,1-2.3,1.8-3.3,2.7c-1.2,1-2.4,1.1-3.5-0.2
	c-1.1-1.3-1-2.6,0.2-3.7C87.8,193,88.8,192.3,90,191.3z"/>
<path class="st17" d="M93.5,174c-4.5,0-9,0.1-13.5-0.1c-0.8,0-2.3-0.8-2.4-1.3c-0.3-1.7,1.2-1.6,2.4-1.6c8.8,0,17.6,0,26.5,0
	c0.2,0,0.6-0.1,0.7,0c0.7,0.5,1.5,1.1,2.2,1.6c-0.7,0.5-1.5,1.3-2.2,1.3C102.6,174.1,98,174,93.5,174z"/>
<path class="st17" d="M93.5,169c-4.5,0-9,0.1-13.5-0.1c-0.8,0-2.2-0.8-2.3-1.4c-0.3-1.7,1.2-1.6,2.4-1.6c8.9,0,17.8,0,26.7,0
	c1.2,0,2.6-0.1,2.6,1.5c0,1.7-1.4,1.5-2.6,1.5C102.3,169,97.9,169,93.5,169z"/>
<path class="st14" d="M227,299.5c0.2,2.9,0.4,5.8,0.5,8.8c0,1.9-0.4,3.8-0.5,5.8c0,0-0.2,0-0.2,0s-0.2,0-0.2,0c0-4.1,0-8.1,0.1-12.2
	C226.6,301.1,226.8,300.3,227,299.5z"/>
<path class="st14" d="M227,287c0,3,0,6,0,9C227,293,227,290,227,287z"/>
<path class="st16" d="M204.1,55.5c4.8,3.4,10.2,3.2,15.6,2.3c2.2-0.4,4-0.2,5.8,1.1c-5.3,0-10.6,0-16,0c0,0.3,0,0.5-0.1,0.8
	c0.2,0.2,0.5,0.5,0.7,0.5c5.4,0,10.8-0.1,16.1-0.2c0.1-0.4,0.2-0.8,0.2-1.2c3.3-0.3,6.6-0.7,9.9-1c1.6-0.1,3.3-0.2,4.9-0.4
	c2.1-0.2,4.1-0.5,5.7,1.4c-5.5,0-11,0.1-16.5,0.1c-0.1,0.3-0.2,0.6-0.3,0.9c1,0.1,1.9,0.4,2.9,0.4c4.6,0.1,9.3,0,13.9,0
	c0.3,1.3,1.9,2.7-0.1,4c0-0.2-0.1-0.4-0.1-0.6c-0.5-0.4-0.9-1.3-1.4-1.3c-4.7-0.1-9.5-0.1-14.2,0c-0.4,0-0.9,0.3-1.3,0.5
	c0,0.3,0.1,0.6,0.1,0.9c5.5,0,11,0,16.5,0c0.2,0.2,0.3,0.3,0.5,0.5c0,0.3,0,0.6,0,0.9c-2.1,0.1-4.3,0.2-6.4,0.3
	c-3.5,0.1-7,0.2-10.5,0.3c0,0.3,0,0.5,0,0.8c0.5,0.1,0.9,0.3,1.4,0.3c4.6,0,9.3,0,13.9,0c0.6,0,1.2-0.3,1.8-0.5
	c1.8,1,0.1,2.1-0.3,2.5c-0.6,0.8-1.9,1-2.8,1.5c0.2-1.6-1-1.5-2-1.5c-4,0-8,0-12,0c-0.1,0.3-0.3,0.6-0.4,0.9
	c0.3,0.2,0.5,0.5,0.8,0.7c-0.3,0.4-0.6,0.7-0.8,1.1c-0.3-0.7-1.1-1.4-0.9-2c0.5-2-0.2-2.8-2.2-2.7c-0.2-0.4-0.4-0.8-0.6-1.3
	c-0.3,0-0.6,0-1-0.1c-5.4,0-10.7,0-16.1,0c0,0.4,0,0.8,0,1.2c4.2,0.1,8.4,0.2,12.6,0.4c-0.5,0.8-1.1,1.5-1.6,2.3
	c-3.6-0.9-7.1-0.6-10.6-0.2c0,0.4,0,0.8,0,1.2c3.4,0,6.8,0,10.3,0c-0.8,0.4-1.6,1-2.5,1.1c-0.9,0.2-1.8-0.1-3-0.2
	c0.1,1.3,0.2,2.2,0.3,3.2c-1.4-0.1-2.8,0-4.2-0.2c-1.5-0.1-2.1,0.5-2.1,2c0.1,3,0,6,0,9c0.1,2.1,0.3,4.3,0.5,6.4
	c-2.6,0-2.8-0.4-2.1-2.9c0.8-2.8,1.1-5.5-0.1-8.2c-0.3,0-0.6,0-0.9,0c0,2.2,0,4.5,0,6.7c0,1,0.2,2.1-1.4,2
	C204.1,78.2,204.1,66.8,204.1,55.5z M226.4,62.8c-5.7,0-11.4,0-17.5,0C210.7,64.2,224.5,64.3,226.4,62.8z"/>
<path class="st16" d="M227,115.5c0,3.5-1.1,4.6-5.2,5.4c-0.5,0.1-0.9,1-1.4,1.5c-0.2,0.1-0.4,0.3-0.7,0.3c-5.7,0-11.4,0-17.4,0
	c2.9-6,1-12,1.8-17.8c2.1-0.2,1.8-1.9,1.8-3.2c0-1.8,0.5-2.5,2.3-3.1c1.4-0.4,2.4-2,3.9-3.3c1.3-0.2,3.3-0.6,5.4-0.8
	c0.3,0,1.2,0.9,1.1,1.3c-0.2,0.9-0.7,1.8-1.1,2.7c0-1.6-1-1.6-2.2-1.5c-4.1,0.6-9,5.1-9.7,9.2c-0.1,0.6,0.5,1.8,1,2.1
	c1.8,0.8,4.1-0.2,4.7-2.1c0.9-2.6,2.9-3.5,5.2-4.3c0,0.7,0,1.3,0,2c-3.4,1.5-4.6,3.6-3.7,5.9c0.9,2.1,2.9,3.3,5.2,3
	c2.3-0.3,3.6-1.8,3.9-3.9c0.3-2.5-1.2-4-3.4-4.8c1.9-1.5,3.2-0.4,3.7,1.3c0.5,2,1.5,2.2,3.2,1.8c3.4-0.8,4.3,0,4.2,3.4
	c0,0.3,0,0.7,0.1,1C230.2,115,230.2,115,227,115.5c0.6-2.2,1.2-4.4,1.9-6.9c-2.1,0-3.5,0-4.8,0c-0.6,3.3-1.7,5-4,6
	c-3.1,1.4-3.3,1.8-2.3,5.4C221.7,120.2,224.4,118,227,115.5z"/>
<path class="st16" d="M209,54c-0.3-1.1-0.6-2.2-1-3.4c13.9,0,27.8-0.1,41.7-0.1c1.8,0,1.7,1.1,1.7,2.3c0,6.7,0,13.3,0,20
	c0,14.2,0,28.5,0,42.7c0,1.2-0.5,2.3-0.8,3.5c-0.1-0.6,0-1.3-0.2-1.9c-0.5-2-0.9-4-3.4-4.4c0.3-0.6,0.6-1.1,0.9-1.7
	c2.2-0.1,2.1-1.7,2.1-3.2c0-10.3,0-20.6,0-30.8c0-7.7,0-15.5-0.1-23.2c0-0.8-0.9-1.5-1.3-2.3c-0.6,0.5-1.1,1-1.7,1.5
	c-11.7,0-23.4,0-35.1,0.1C210.9,53.1,209.9,53.7,209,54z"/>
<path class="st16" d="M204.1,93c0.9,0.8,1.9,1.6,2.8,2.4c-0.9,0.7-1.9,1.4-2.8,2.1C204.1,96,204.1,94.5,204.1,93z"/>
<path class="st16" d="M247,122.5c1.5-0.7,0.9-3.8,3.6-3.3C250.1,121,248.9,122.1,247,122.5z"/>
<path class="st16" d="M206.5,50.6c-0.8,0.8-1.6,1.6-2.4,2.4c0-0.7-0.1-1.4-0.1-2.4C205,50.6,205.7,50.6,206.5,50.6z"/>
<path class="st16" d="M223.7,122.1c1.8,0.1,3.5,0.3,5.3,0.4C227.3,122.4,225.5,122.3,223.7,122.1z"/>
<path class="st16" d="M232.5,122.6c0.5,0,1,0,1.5,0C233.5,122.6,233,122.6,232.5,122.6z"/>
<path class="st16" d="M245.5,122.5c0.2,0,0.3,0,0.5,0C245.8,122.5,245.7,122.5,245.5,122.5z"/>
<path class="st16" d="M408.8,182.1c-1.4,0.7-2.8,0.7-4.1-0.6c-1.9-1.8-2.3-4-0.9-6c1.3-1.9,3.7-2.6,5.7-1.6c2.1,1.1,2.9,3.2,1.9,6.1
	c-0.5-0.9-1.1-1.5-1.2-2.1c-0.2-2-1.5-2.7-3-2.4c-0.9,0.2-2.4,1.6-2.3,2.1c0.4,1.2,1.5,2.3,2.4,3.3c0.3,0.3,1.1,0.2,1.6,0.4
	C408.8,181.6,408.8,181.8,408.8,182.1z"/>
<path class="st16" d="M350.5,106.6c-2.8,0-5.7,0-8.5,0c-2.3,0-3.7-1.3-3.6-3.2c0.2-2.2,1.7-2.9,3.7-2.9c5.7,0,11.3,0,17,0
	c2.3,0,4,1.4,3.8,3.1c-0.3,2.2-1.6,3.1-3.8,3C356.2,106.5,353.3,106.6,350.5,106.6z"/>
<path class="st16" d="M357.8,109.7c-0.4,3.5-3.2,6.2-6.8,6.4c-3.8,0.2-6.7-2.1-7.9-6.4C348.1,109.7,353,109.7,357.8,109.7z"/>
<path class="st17" d="M188.7,181.5c-1.5,0-3,0.2-4.5-0.1c-0.8-0.1-1.5-1-2.3-1.6c0.6-0.8,1.1-1.8,1.9-2.2c0.9-0.4,2.1-0.2,3.2-0.2
	c2.2,0,4.4-0.2,6.5,0.1c0.9,0.1,1.6,1.3,2.4,2c-0.8,0.6-1.6,1.6-2.5,1.8C192,181.8,190.3,181.5,188.7,181.5z"/>
<path class="st10" d="M190.8,166c2.2,0,4.5-0.1,6.7,0.1c0.7,0.1,1.9,0.9,1.9,1.3c0,0.8-0.7,1.7-1.3,2.3c-0.3,0.3-1.1,0.3-1.7,0.3
	c-3.9,0-7.8,0-11.7,0c-1.5,0-2.6-0.5-2.7-2.2c-0.1-1.8,1.3-1.8,2.6-1.8C186.6,166,188.7,166,190.8,166
	C190.8,166,190.8,166,190.8,166z"/>
<path class="st9" d="M78.6,276.5c-1-1.3-2.1-2.1-2-2.7c0.1-0.8,1.2-1.4,1.9-2.1c0.7,0.7,1.6,1.3,1.9,2.1
	C80.5,274.3,79.6,275.2,78.6,276.5z"/>
<path class="st9" d="M79,276.5c0.7,1.4,1.6,2.3,1.4,2.9c-0.3,0.8-1.3,1.4-1.9,2c-0.6-0.7-1.7-1.4-1.7-2.2
	C76.7,278.6,77.8,277.9,79,276.5z"/>
<path class="st9" d="M85.6,287.9c-1-1.4-2-2.3-2-2.9c0.1-0.7,1.3-1.3,2-2c0.6,0.7,1.5,1.4,1.7,2.3C87.5,285.9,86.5,286.6,85.6,287.9
	z"/>
<path class="st9" d="M78.8,288c-1.1-1.4-2.2-2.2-2.1-2.9c0.1-0.7,1.2-1.4,1.9-2.1c0.6,0.7,1.6,1.3,1.8,2.2
	C80.5,285.8,79.6,286.6,78.8,288z"/>
<path class="st9" d="M88.3,279.4c-1.2,0.9-2,2-2.6,1.9c-0.8-0.1-1.4-1.2-2.2-1.8c0.7-0.7,1.3-1.7,2.1-1.9
	C86.2,277.5,87,278.6,88.3,279.4z"/>
<path class="st5" d="M88.4,273.9c-1.4,0.8-2.2,1.6-2.8,1.5c-0.8-0.1-1.4-1.1-2.1-1.7c0.7-0.7,1.3-1.7,2.2-1.9
	C86.3,271.7,87.1,272.8,88.4,273.9z"/>
<path class="st9" d="M495.9,268c-1-1.4-2-2.3-1.8-2.7c0.4-0.9,1.4-1.5,2.1-2.2c0.6,0.7,1.6,1.4,1.6,2.1
	C497.9,265.9,496.9,266.6,495.9,268z"/>
<path class="st9" d="M506,259.8c-1.4,0.8-2.2,1.7-2.8,1.6c-0.8-0.2-1.4-1.2-2.1-1.8c0.7-0.7,1.3-1.8,2.1-1.9
	C503.8,257.6,504.6,258.7,506,259.8z"/>
<path class="st9" d="M503,256.9c-1-1.4-2-2.2-1.8-2.9c0.1-0.8,1.1-1.7,1.8-1.9c0.5-0.1,1.9,1,1.9,1.5
	C504.8,254.5,504,255.3,503,256.9z"/>
<path class="st5" d="M503,268c-0.9-1.3-2-2.2-1.8-2.7c0.3-0.8,1.2-1.5,1.9-2.2c0.6,0.7,1.6,1.4,1.7,2.2C505,265.9,504,266.7,503,268
	z"/>
<path class="st9" d="M498.9,253.9c-1.3,1-2.1,2-2.7,1.9c-0.8-0.1-1.8-1.1-2-1.9c-0.1-0.5,1.1-1.8,1.7-1.8
	C496.7,252.1,497.5,253,498.9,253.9z"/>
<path class="st9" d="M498.9,259.5c-1.3,0.9-2.2,2-2.8,1.8c-0.8-0.2-1.8-1.1-1.9-1.9c-0.1-0.5,1.1-1.8,1.8-1.8
	C496.7,257.6,497.5,258.6,498.9,259.5z"/>
<path class="st17" d="M480.4,189.5c4.4,0,8.8,0,13.2,0c1.5,0,3,0.3,2.7,2c-0.1,0.8-1.7,1.9-2.6,1.9c-9,0.1-18,0.2-27,0
	c-0.9,0-1.8-1.4-2.7-2.1c0.9-0.6,1.8-1.7,2.8-1.7C471.4,189.4,475.9,189.5,480.4,189.5z"/>
<path class="st10" d="M476.9,166c3.2,0,6.5,0,9.7,0c1.4,0,2.5,0.5,2.3,1.8c-0.1,0.8-1.4,2.1-2.2,2.1c-6.7,0.2-13.4,0.2-20.2,0
	c-0.8,0-1.6-1.3-2.4-2c0.8-0.6,1.6-1.7,2.5-1.8C470,165.9,473.5,166,476.9,166z"/>
<path class="st22" d="M444.9,135c0.4-0.6,0.8-1.1,1.4-2c2.5,0,5.5-0.1,8.5,0c2.2,0.1,3.3,1.9,3.6,3.7c0.3,1.9-0.5,3.8-2.6,4.2
	c-2.8,0.6-5.7,0.8-8.6,0.9c-0.5,0-1.1-1.2-1.5-1.9c-0.3-0.5-0.4-1-0.6-1.5C445.1,137.3,445,136.2,444.9,135z"/>
<path class="st14" d="M413.4,136.9c-0.3,2.1-0.8,3.5-2.6,3.4c-1.8,0-1.7-1.7-1.8-3c-0.1-1.4,0.2-3,1.8-2.9
	C411.7,134.4,412.5,136,413.4,136.9z"/>
<path class="st14" d="M429.8,137.2c-1.1,1.3-1.7,2.9-2.6,3c-1.8,0.2-2.2-1.4-2.1-2.9c0-1.5,0.2-3.2,2.1-3
	C428,134.5,428.7,136,429.8,137.2z"/>
<path class="st14" d="M435.4,137.4c-1.4,1.3-2.2,2.7-3.2,2.8c-1.8,0.1-1.7-1.6-1.7-2.9c0-1.5,0-3.2,2-2.7
	C433.5,134.8,434.1,136.1,435.4,137.4z"/>
<path class="st5" d="M76.1,232.4c2.4,1.9,3.6,1.9,4.5-0.1c0.2-0.4,2.4-0.4,2.7,0c0.9,1.5,1.7,2,3.4,1.5c1.5-0.4,2.5,0.6,2,2.2
	c-0.5,1.5-0.1,2.2,1.4,2.9c1.3,0.6,1.3,2.6-0.1,3.1c-1.6,0.6-1.6,1.6-1.3,3c0.3,1.6-0.8,2.5-2.4,2.3c-0.9-0.1-2.1,0.4-2.7,1
	c-1.2,1.3-2,1.3-3.2,0c-0.7-0.7-1.8-1.2-2.8-1.2c-1.9-0.1-2.8-0.5-2.4-2.7c0.1-0.7-0.5-1.8-1.1-2.3c-1.5-1.2-1.5-1.9,0.1-3.1
	c0.6-0.5,0.9-1.5,1.2-2.4C75.7,235.4,75.8,234.3,76.1,232.4z M85.5,240.3c0-2-1.5-3.8-3.4-3.8c-1.7,0-4,2.2-4,3.8
	c0,1.6,2.4,3.7,4.1,3.7C83.9,244,85.5,242.2,85.5,240.3z"/>
<path class="st5" d="M506.4,215.5c-0.6,1.7-0.2,2.5,1.2,3.2c1.4,0.7,1,2.3-0.1,3.3c-0.7,0.6-1.2,1.8-1.3,2.7c0,1.8-0.8,2.5-2.6,2.2
	c-0.8-0.1-2,0.3-2.4,0.9c-1.3,1.8-2.2,1.7-3.5-0.1c-0.4-0.6-1.7-0.8-2.5-0.7c-1.6,0.2-2.8-0.6-2.4-2.1c0.3-1.5,0.2-2.5-1.5-3.1
	c-1.3-0.5-1.2-2.7,0.2-3.1c1.7-0.5,1.6-1.3,1.3-2.6c-0.4-1.9,0.3-2.4,2.4-2.4c0.9,0,2.1-0.6,2.7-1.3c1-1.2,2.4-1.4,3,0
	c0.7,1.5,1.6,1.8,3,1.3C505.8,213.2,506.3,214.2,506.4,215.5z M503,220.5c0.1-2-1.5-3.8-3.4-3.9c-1.8-0.1-3.6,1.8-3.7,3.6
	c0,2.1,1.5,3.8,3.4,3.8C501.6,224.1,502.9,222.8,503,220.5z"/>
<path class="st17" d="M488.1,181.5c-7,0-14,0.1-20.9-0.1c-1,0-2-0.9-3-1.5c0.8-0.7,1.6-1.6,2.5-2.1c0.9-0.4,2.1-0.4,3.2-0.4
	c12.1,0,24.3,0,36.4,0c1.2,0,2.5-0.1,3.7,0.3c0.9,0.3,1.7,1.1,2.5,1.7c-0.8,0.7-1.5,1.8-2.4,1.9c-3.7,0.2-7.5,0.1-11.2,0.1
	C495.3,181.5,491.7,181.5,488.1,181.5z"/>
<path class="st22" d="M137.3,134.7c0.1-1.4,0.8-1.8,2.1-1.8c8,0.1,16,0,23.9,0c1.9,0,3.8,0.3,5.7,0.5c2.1,0.2,3.3,1.8,3.3,4
	c0,2-2,4-4.3,4c-5.8,0.1-11.6,0-17.4,0c-3.3,0-6.7-0.1-10,0c-1.5,0.1-2.5-0.3-3.2-1.6c0.1-0.3,0.2-0.6,0.3-0.9c1.3-1,1.3-2,0-3
	C137.6,135.6,137.5,135.2,137.3,134.7z"/>
<path class="st14" d="M131.5,139.8c0.2-0.8,0.4-1.5,0.6-2.3C131.9,138.3,131.7,139,131.5,139.8z"/>
<path class="st14" d="M132.1,136.5c-0.4-0.6-0.7-1.2-1.1-1.8C131.4,135.3,131.8,135.9,132.1,136.5z"/>
<path class="st15" d="M308.4,333.8c-2.6,4.8-6.9,7-11.8,6.1c-4.9-0.9-8.2-4.6-9-10c-0.6-3.7,2.3-8.9,6-10.7
	c3.8-1.9,8.3-1.5,10.8,0.9C300.8,326.6,301.9,330.5,308.4,333.8z"/>
<path class="st5" d="M137.1,363.2c-1.4-1.7-2.7-2.6-2.8-3.7c-0.2-1.4,0.6-2.9,2.6-3c2-0.1,3.1,1.3,2.9,2.9
	C139.7,360.5,138.4,361.4,137.1,363.2z"/>
<path class="st5" d="M126.9,362.1c-2.5-0.3-3.5-1-3.4-3c0.1-2,1.3-2.9,2.8-2.5c1,0.3,2.4,1.7,2.4,2.7
	C128.8,360.3,127.4,361.4,126.9,362.1z"/>
<path class="st5" d="M150.5,359.1c0,1.8-0.6,2.9-2.4,2.9c-1.8,0-2.9-1-2.9-2.7c0-1.6,1-2.8,2.8-2.8
	C149.6,356.6,150.7,357.5,150.5,359.1z"/>
<path class="st23" d="M231,383c2.7,1.5,5.6,1.5,8.6,1.5c35.8,0,71.6,0,107.4-0.1c6.3,0,12.7,0.9,19-1c1.5,0.9,4.2,1.1,3,4
	c-0.3,0.7-1.2,1.1-1.8,1.5c-0.2,0.2-0.7,0-1,0c-45,0-90.1,0-135.1,0c-2.8,0-3.3-0.5-2.9-3.2c0.1-0.7,0.9-1.3,1.5-1.8
	C230,383.6,230.5,383.4,231,383z"/>
<path class="st12" d="M335,273.8c0.5,0,1,0,1.5,0C336,273.8,335.5,273.8,335,273.8z"/>
<path class="st12" d="M357.5,273.8c0.2,0,0.3,0,0.5,0C357.8,273.8,357.7,273.8,357.5,273.8z"/>
<path class="st5" d="M442,360.2c0-6.4,0.1-12.8,0-19.2c0-2.1,0.7-2.5,2.6-2.5c11.8,0.1,23.7,0,35.5,0c3.2,0,3.1,0,3.1,3.1
	c0,10.8,0,21.7,0,32.5c0,2-0.1,4,0,6c0.1,1.4-0.5,1.9-1.9,1.9c-12.4,0-24.8-0.1-37.2,0c-1.8,0-2-0.9-2-2.3
	C442,373.2,442,366.7,442,360.2z M462.5,361.5c4.8,0,9.7,0.1,14.5-0.1c0.8,0,1.6-0.9,2.4-1.3c-0.8-0.4-1.6-1.1-2.4-1.1
	c-9.7-0.1-19.3-0.1-29,0c-0.8,0-1.6,0.7-2.4,1.1c0.8,0.5,1.6,1.3,2.4,1.3C452.8,361.6,457.7,361.5,462.5,361.5z M466.5,349
	c0-0.9-0.1-1.8,0-2.7c0.2-1.8-0.6-2.3-2.3-2.2c-6.7,0.1-5.7-0.7-5.7,5.7c0,0.2,0,0.3,0,0.5c0,3.4,0,3.4,3.3,3.4
	C466.5,353.5,466.5,353.5,466.5,349z M479,372c0-0.9,0-1.8,0-2.7c0.1-1.6-0.6-2.2-2.2-2.2c-6.8,0.1-5.7-0.7-5.8,5.6
	c0,0.2,0,0.3,0,0.5c0,3.4,0,3.4,3.3,3.4C479,376.5,479,376.5,479,372z M454,371.9c0-0.7-0.1-1.5,0-2.2c0.2-2.1-0.7-2.7-2.8-2.7
	c-6.1,0.1-5.2-0.6-5.3,5.4c0,0.2,0,0.5,0,0.7c0,3.4,0,3.4,3.4,3.4C454,376.5,454,376.5,454,371.9z M466.5,371.8c0-0.7-0.1-1.5,0-2.2
	c0.3-2.2-0.7-2.7-2.7-2.6c-6.1,0.2-5.3-0.6-5.3,5.4c0,0.3,0,0.7,0,1c0,3.2,0,3.2,3.2,3.2C466.5,376.5,466.5,376.5,466.5,371.8z
	 M454,348.9c0-0.7-0.1-1.5,0-2.2c0.2-2.1-0.7-2.7-2.7-2.7c-6.1,0.1-5.2-0.6-5.3,5.3c0,0.2,0,0.5,0,0.7c0,3.4,0,3.4,3.4,3.4
	C454,353.5,454,353.5,454,348.9z M479,348.8c0-0.7-0.1-1.3,0-2c0.3-2.2-0.7-2.9-2.8-2.9c-5.9,0.1-5.1-0.6-5.2,5.2c0,0.3,0,0.7,0,1
	c0,3.3,0,3.3,3.3,3.4C479,353.5,479,353.5,479,348.8z"/>
<path class="st5" d="M436,349.7c0-7.5,0.1-15,0-22.5c0-2,0.4-2.8,2.6-2.8c12.1,0.1,24.2,0.1,36.2,0.1c1.4,0,2.9-0.2,2.7,1.9
	c-0.2,1.6-0.1,3.2-2.7,3.1c-10.7-0.2-21.5-0.1-32.2-0.1c-0.7,0-1.5-0.1-2.2,0.1c-0.4,0.1-1,0.7-1,1.1c0,0.4,0.5,1,1,1.2
	c0.6,0.2,1.3,0.1,2,0.1c10.7,0,21.3,0,32,0c1.4,0,3.4-0.7,3.3,2c-0.1,2.7-2.1,1.9-3.5,1.9c-10.3,0-20.7,0-31,0c-3.8,0-4,0.2-4,3.9
	c0,10.9,0,21.8,0,32.7c0,0.8-0.4,2-0.9,2.2c-1.5,0.6-2.2-0.2-2.2-1.9C436,365.2,436,357.5,436,349.7z"/>
<path class="st5" d="M468.7,322c-6.7,0-13.3,0-19.8,0c-4.2,0-8.5,0.1-12.7,0c-2.1-0.1-2.7,0.6-2.7,2.7c0.1,13.6,0.1,27.2,0,40.7
	c0,1.1,0.7,3-1.5,3c-4.2,0-4.4-0.2-4.4-3.1c0-14.8,0-29.7-0.1-44.5c0-2.2,0.5-2.8,2.8-2.8c11.8,0.1,23.7,0,35.5,0
	C469.3,318,469.4,318,468.7,322z"/>
<path class="st15" d="M325.4,247c-1.3-2.1-2.6-4.2-4-6.3c1.8,0,3.7-0.1,5.5-0.1C326.5,242.7,325.9,244.8,325.4,247z"/>
<path class="st5" d="M181.6,246.5c-3.5,0-5.6-2-5.6-5.5c0-3.1,2.5-5.6,5.7-5.5c2.8,0,5.3,2.5,5.3,5.4
	C187.1,244.5,185.1,246.5,181.6,246.5z"/>
<path class="st5" d="M203.2,253.5c2.5,0,4.2,1.5,4.2,3.9c0.1,2-1.8,3.6-4.2,3.6c-2.1,0-3.7-1.6-3.8-3.7
	C199.5,254.8,200.7,253.5,203.2,253.5z"/>
<path class="st11" d="M317.5,240.6c-0.1,11.3-9,20.2-20,20.6c-11.4,0.4-21.5-8.6-21.6-20.6c2.7-0.1,5.5-0.2,8.2-0.1
	c1.7,0,2.4-0.5,2.3-2.3c-0.1-1.7,0.1-3.5,0.1-5.2c2.3,0.2,4.6,0.4,6.9,0.5c1.9,0.1,3.8,0.5,5.7,0.4c2.5-0.1,5-0.6,7.5-0.9
	c0.1,1.7,0.2,3.5,0.1,5.2c-0.1,1.6,0.6,2.2,2.2,2.2C311.9,240.4,314.7,240.5,317.5,240.6z"/>
<path class="st11" d="M272.9,205c-3.2-0.1-5.4-2.3-5.3-5.4c0.1-3,3-5.6,6.2-5.6c2.5,0,4.8,2.9,4.8,5.7
	C278.4,203.1,276.2,205.1,272.9,205z"/>
<path class="st11" d="M315,199.7c0-3.4,1.8-5.2,5.2-5.2c3.4,0,5.4,2.1,5.4,5.4c-0.1,3.1-2.2,5.1-5.4,5.1
	C316.8,205,315,203.1,315,199.7z"/>
<path class="st4" d="M279.3,185.7c0,1,0.1,2,0,3c-0.3,2-1.6,3.1-3.6,3.2c-2,0.1-3.5-0.9-3.7-2.9c-0.3-2.1-0.3-4.3,0-6.4
	c0.3-1.9,1.7-3,3.7-2.9c2,0.1,3.2,1.2,3.6,3.2C279.5,183.7,279.3,184.8,279.3,185.7C279.3,185.7,279.3,185.7,279.3,185.7z"/>
<path class="st4" d="M314,185.7c0-0.8-0.1-1.7,0-2.5c0.2-2.2,1.7-3.6,3.7-3.6c2,0,3.6,1.4,3.8,3.6c0.1,1.7,0.1,3.5,0,5.2
	c-0.2,2.1-1.8,3.6-3.8,3.5c-2.1-0.2-3.4-1.3-3.6-3.4C313.9,187.5,314,186.6,314,185.7z"/>
<path class="st4" d="M316,170.2c2.2,0.1,4.3,0.1,6.5,0.2c1.4,0,2.7,0.6,2.4,2.1c-0.2,0.8-1.4,1.5-2.4,1.8c-1.1,0.3-2.3,0.1-3.5,0.2
	c-2.1,0-4.2,0.1-6.2-0.2c-0.9-0.1-1.5-1.3-2.3-1.9c0.8-0.7,1.4-1.6,2.3-1.9C313.8,170.1,314.9,170.3,316,170.2z"/>
<path class="st9" d="M208.6,91.9c-0.2-2.1-0.4-4.3-0.5-6.4c-0.1-3,0-6,0-9c0-1.5,0.6-2.1,2.1-2c1.4,0.1,2.8,0.1,4.2,0.2
	c0,0.6,0.1,1.2,0.1,1.8c0,0.5,0,1,0,1.5c0,4.2,0,8.3,0,12.5c-0.3,1.9-1.9,1.2-3,1.5c-0.3,0-0.7,0-1,0
	C209.9,92,209.2,91.9,208.6,91.9L208.6,91.9z"/>
<path class="st9" d="M235.4,91.5c-1.9,0.1-3.9,0.3-5.8,0.4c-0.2-0.1-0.3-0.3-0.5-0.4c0-4.4,0-8.8,0-13.1c0-0.9,0.6-1.7,0.9-2.6
	c1.8,0.1,3.6,0.3,5.4,0.4c0,0,0,0,0,0c0,1.8,0.1,3.6,0.1,5.4c0,2.3,0,4.7,0,7C235.5,89.5,235.4,90.5,235.4,91.5z"/>
<path class="st16" d="M248.2,100.5c-0.1,1.7-0.3,3.4-0.4,5.1c-2.5,0-4.9-0.1-7.4,0.1c-0.6,0-1.2,0.8-1.9,1.2
	c-1.1,0.1-2.1,0.3-3.2,0.4c0.2-2.7-0.1-2.9-2.8-2.7c0-1,0-1.9,0-2.8c0.9-0.2,2.1-0.1,2.5-0.6c0.4-0.5-0.2-1.7-0.3-2.6
	c1.3,0.2,2.6,0.4,3.9,0.5c0.3,0.6,0.6,1.7,0.9,1.7C242.4,100.8,245.3,100.6,248.2,100.5z"/>
<path class="st9" d="M216.5,102c-2.3,0.7-4.4,1.7-5.2,4.3c-0.6,1.8-2.9,2.9-4.7,2.1c-0.6-0.2-1.1-1.4-1-2.1c0.7-4.2,5.6-8.7,9.7-9.2
	c1.2-0.2,2.2-0.1,2.2,1.5c0,0.3,0,0.7,0,1c0,0.7-0.1,1.3-0.1,2C217.1,101.7,216.8,101.9,216.5,102z"/>
<path class="st9" d="M225,81.5c0,0.5,0,1,0,1.5c0,2.8-0.1,5.7-0.1,8.5c-0.3,0.1-0.6,0.3-0.9,0.4c-0.7,0-1.3,0-2,0
	c-1.1,0-2.1-0.1-3.2-0.1c-0.1-0.8-0.2-1.6-0.3-2.4c0-2.8,0.1-5.5,0.1-8.3C220.7,81.3,222.9,81.4,225,81.5z"/>
<path class="st9" d="M218.5,104.2c2.2,0.9,3.7,2.3,3.4,4.8c-0.3,2.2-1.6,3.6-3.9,3.9c-2.3,0.3-4.3-0.9-5.2-3
	c-0.9-2.3,0.4-4.4,3.7-5.9C217.2,104.1,217.8,104.1,218.5,104.2z"/>
<path class="st16" d="M247.4,54.4c0,2.2-0.9,2.8-3,2.1c-0.9-0.3-1.9-0.5-2.9-0.5c-4.8,0.1-9.5,0.4-14.3,0.4c-2.4,0-4.9-0.8-7.3-0.9
	c-2.2-0.1-4.5,0.4-6.7,0.3c-1.3-0.1-2.5-0.8-3.7-1.3c9.8,0,19.6,0,29.5-0.1C241.8,54.5,244.6,54.4,247.4,54.4z"/>
<path class="st9" d="M247.4,54.4c-2.8,0.1-5.6,0.2-8.5,0.2c-9.8,0-19.6,0-29.5,0.1c-0.2-0.2-0.4-0.4-0.5-0.6c1-0.3,1.9-0.9,2.9-0.9
	c11.7-0.1,23.4-0.1,35.1-0.1C247.1,53.5,247.3,53.9,247.4,54.4z"/>
<path class="st9" d="M239.4,89.5c0-0.5,0-1,0-1.5c0-0.7,0.1-1.3,0.1-2c0.2-0.2,0.3-0.3,0.5-0.5c0.7,0,1.3-0.1,2-0.1c0.7,0,1.3,0,2,0
	c0.5,0,1,0.1,1.5,0.1c0.2,0.3,0.3,0.6,0.5,1c0,0.5,0,1,0,1.5c0,0.5,0,1,0,1.5c0,0.6-0.1,1.3-0.1,1.9c-0.1,0.1-0.3,0.3-0.4,0.4
	c-1.6,0-3.3,0.1-4.9,0.1c-0.3-0.2-0.6-0.3-0.9-0.5C239.5,90.8,239.5,90.2,239.4,89.5z"/>
<path class="st0" d="M226.3,60.1c-5.4,0.1-10.8,0.1-16.1,0.2c-0.2,0-0.5-0.3-0.7-0.5c0-0.3,0-0.5,0.1-0.8c5.3,0,10.6,0,16,0
	c0.2,0.1,0.3,0.1,0.5,0.2C226.1,59.4,226.2,59.8,226.3,60.1z"/>
<path class="st0" d="M230.5,59.1c5.5,0,11-0.1,16.5-0.1c0,0.5,0,1,0,1.5c-4.6,0-9.3,0-13.9,0c-1,0-1.9-0.3-2.9-0.4
	C230.3,59.7,230.4,59.4,230.5,59.1z"/>
<path class="st9" d="M230.1,69.1c4,0,8,0,12,0c1,0,2.2-0.2,2,1.5c-4.5,0-9.1,0.1-13.6,0.1c-0.3-0.2-0.5-0.5-0.7-0.7
	C229.9,69.7,230,69.4,230.1,69.1z"/>
<path class="st16" d="M238.4,118c-0.5,0.5-0.9,1.1-1.5,1.3c-1.2,0.6-2.6,1.6-3.8,1.4c-0.9-0.1-2-1.5-2.4-2.6c-0.5-1.4,0.1-2.6,2-2.4
	c0,1-0.2,2,0,2.9c0,0.2,1.5,0.5,1.7,0.3c0.6-0.7,0.8-1.6,1.1-2.4c1,0.2,2.1,0.4,3.1,0.5C238.5,117.4,238.5,117.7,238.4,118z"/>
<path class="st17" d="M248.2,100.5c-2.9,0.1-5.7,0.3-8.6,0.4c-0.3,0-0.6-1.1-0.9-1.7c1.4,0,2.9-0.1,4.3-0.1c0.5,0,1,0,1.5,0
	c1,0,2,0,3,0c0.3,0.3,0.5,0.6,0.8,0.8C248.2,100.1,248.2,100.3,248.2,100.5z"/>
<path class="st9" d="M221.5,67.2c-4.2-0.1-8.4-0.2-12.6-0.4c0-0.4,0-0.8,0-1.2c5.4,0,10.7,0,16.1,0c0.3,0,0.6,0,1,0.1
	c0.2,0.4,0.4,0.8,0.6,1.3c-0.3,0.1-0.7,0.2-1,0.2c-0.5,0-1,0-1.5,0C223.2,67.2,222.3,67.2,221.5,67.2z"/>
<path class="st9" d="M247.3,66.5c-0.6,0.2-1.2,0.5-1.8,0.5c-4.6,0-9.3,0-13.9,0c-0.5,0-0.9-0.2-1.4-0.3c0-0.3,0-0.5,0-0.8
	c3.5-0.1,7-0.2,10.5-0.3c2.2,0,4.3,0.1,6.5,0.1C247.1,66,247.2,66.3,247.3,66.5z"/>
<path class="st9" d="M219.5,70.6c-3.4,0-6.8,0-10.3,0c0-0.4,0-0.8,0-1.2c3.5-0.4,7.1-0.7,10.6,0.2C219.7,69.9,219.6,70.2,219.5,70.6
	z"/>
<path class="st9" d="M238.4,118c0-0.3,0.1-0.6,0.1-1c3.1,0,6.3,0,9.4,0c0.1,0.1,0.2,0.3,0.2,0.4c-0.9,0.3-1.8,0.7-2.7,1
	c-1.8,0-3.7,0-5.5,0C239.5,118.3,239,118.2,238.4,118z"/>
<path class="st17" d="M247.9,111.1c-0.3,0.6-0.6,1.1-0.9,1.7c-2,0-4,0-6,0c-0.9-0.5-2.8,0.6-2.4-1.7
	C241.7,111,244.8,111,247.9,111.1z"/>
<path class="st9" d="M238.6,106.9c0.6-0.4,1.2-1.2,1.9-1.2c2.4-0.2,4.9-0.1,7.4-0.1c-0.1,0.5-0.2,1.1-0.3,1.6
	C244.5,107.1,241.5,107,238.6,106.9C238.6,106.9,238.6,106.9,238.6,106.9z"/>
<path class="st9" d="M232.6,113.3c-0.1-0.1-0.2-0.3-0.4-0.4c0.1-0.9,0.3-1.9,0.4-2.8c0,0,0,0,0,0c0.9,0.2,1.9,0.3,2.8,0.5
	c0,0.1,0,0.3,0.1,0.3c-0.1,0.7-0.1,1.3-0.2,2c-0.3,0.2-0.6,0.4-0.9,0.6C233.9,113.5,233.2,113.4,232.6,113.3z"/>
<path class="st9" d="M235.5,116.5c-0.4,0.8-0.6,1.8-1.1,2.4c-0.2,0.2-1.7-0.1-1.7-0.3c-0.2-0.9,0-1.9,0-2.9c0,0,0-0.1,0-0.1
	c0.6,0,1.2,0,1.8-0.1C234.8,115.9,235.2,116.2,235.5,116.5z"/>
<path class="st9" d="M234.8,98.6c0.1,0.9,0.7,2,0.3,2.6c-0.4,0.5-1.6,0.4-2.5,0.6c-0.1-0.1-0.3-0.2-0.4-0.4c0.3-1,0.6-1.9,0.9-2.9
	C233.6,98.6,234.2,98.6,234.8,98.6z"/>
<path class="st9" d="M232.6,104.6c2.7-0.2,3,0,2.8,2.7c0,0,0,0.1,0,0.1c-0.9,0.1-1.9,0.2-2.8,0.3c-0.2-0.4-0.5-0.8-0.7-1.2
	c0.1-0.5,0.1-1,0.2-1.4C232.3,104.9,232.4,104.8,232.6,104.6z"/>
<path class="st16" d="M218.5,89.5c0.1,0.8,0.2,1.6,0.3,2.4c-1.4,0.3-2.8,0.9-4.2,0.9c-1,0-2.1-0.5-3.1-0.9c1.1-0.3,2.7,0.5,3-1.5
	C215.9,90.2,217.2,89.8,218.5,89.5z"/>
<path class="st16" d="M238.6,106.9c3,0.1,6,0.2,9,0.2c-0.3,0.3-0.5,0.8-0.8,0.8c-2.4,0.1-4.7,0.1-7.1,0
	C239.2,107.9,238.9,107.3,238.6,106.9z"/>
<path class="st16" d="M224.9,91.5c0-2.8,0.1-5.7,0.1-8.5c0.3,0.2,0.9,0.5,0.9,0.7C225.6,86.3,225.3,88.9,224.9,91.5z"/>
<path class="st16" d="M225,81.5c-2.1-0.1-4.3-0.2-6.4-0.3c0.2-0.4,0.4-1.1,0.7-1.1c1.8-0.1,3.6-0.1,5.4,0.1
	C225.1,80.2,227,80.6,225,81.5z"/>
<path class="st16" d="M235.5,81.5c0-1.8-0.1-3.6-0.1-5.4c0.5,0.5,1.6,1.1,1.5,1.4C236.6,78.9,236,80.2,235.5,81.5z"/>
<path class="st16" d="M235.4,112.9c0.1-0.7,0.1-1.3,0.2-2c1,0,2,0,3,0c-0.4,2.3,1.6,1.2,2.4,1.7c-0.8,0.1-1.5,0.4-2.3,0.4
	C237.6,113.1,236.5,113,235.4,112.9z"/>
<path class="st16" d="M232.6,107.7c0.9-0.1,1.9-0.2,2.8-0.3c0,1.1,0,2.2,0,3.3c-0.9-0.2-1.9-0.3-2.8-0.5
	C232.6,109.3,232.6,108.5,232.6,107.7z"/>
<path class="st16" d="M235.4,76.1c-1.8-0.1-3.6-0.3-5.4-0.4C232.8,74,234.6,74.1,235.4,76.1z"/>
<path class="st16" d="M240.5,92c1.6,0,3.3-0.1,4.9-0.1C244.5,94.1,242.2,94.1,240.5,92z"/>
<path class="st16" d="M240,118.5c1.8,0,3.7,0,5.5,0C244.1,120,241.3,119.9,240,118.5z"/>
<path class="st16" d="M232.6,110.1c-0.1,0.9-0.3,1.9-0.4,2.8c-0.6-0.4-1.1-0.9-1.7-1.3C231.2,111.1,231.9,110.6,232.6,110.1z"/>
<path class="st16" d="M234.5,115.6c-0.6,0-1.2,0-1.8,0.1c0-0.8,0-1.6-0.1-2.3c0.6,0.1,1.3,0.1,1.9,0.2
	C234.5,114.2,234.5,114.9,234.5,115.6z"/>
<path class="st16" d="M233.1,98.5c-0.3,1-0.6,1.9-0.9,2.9c-0.4-0.6-0.8-1.2-1.2-1.9C231.7,99.2,232.4,98.9,233.1,98.5z"/>
<path class="st16" d="M235.4,91.5c0-1,0.1-2,0.1-3c0.5,0.7,0.9,1.5,1.4,2.2C236.4,91,235.9,91.2,235.4,91.5z"/>
<path class="st23" d="M247.1,65.8c-2.2,0-4.3-0.1-6.5-0.1c2.1-0.1,4.3-0.2,6.4-0.3C247.1,65.5,247.1,65.7,247.1,65.8z"/>
<path class="st16" d="M222,92c0.7,0,1.3,0,2,0c-0.3,0.5-0.5,1-0.8,1.5C222.8,92.9,222.4,92.5,222,92z"/>
<path class="st16" d="M242,85.4c-0.7,0-1.3,0.1-2,0.1c0.4-0.4,0.7-0.9,1.1-1.3C241.4,84.6,241.7,85,242,85.4z"/>
<path class="st16" d="M239.4,89.5c0,0.7,0.1,1.3,0.1,2c-0.5-0.4-0.9-0.7-1.4-1.1C238.6,90.1,239,89.8,239.4,89.5z"/>
<path class="st16" d="M245.9,91.4c0-0.6,0.1-1.3,0.1-1.9c0.5,0.3,0.9,0.7,1.4,1C246.8,90.8,246.4,91.1,245.9,91.4z"/>
<path class="st16" d="M224,67.2c0.5,0,1,0,1.5,0c-0.2,0.4-0.4,0.8-0.7,1.2C224.6,68,224.3,67.6,224,67.2z"/>
<path class="st16" d="M232.2,105.1c-0.1,0.5-0.1,1-0.2,1.4c-0.4-0.2-0.8-0.3-1.2-0.5C231.2,105.7,231.7,105.4,232.2,105.1z"/>
<path class="st16" d="M217.4,101.5c0-0.7,0.1-1.3,0.1-2c0.3,0.4,0.6,0.8,0.9,1.2C218.1,100.9,217.8,101.2,217.4,101.5z"/>
<path class="st16" d="M208.6,91.9c0.6,0,1.3,0,1.9,0.1c-0.4,0.3-0.8,0.7-1.1,1C209.1,92.6,208.8,92.3,208.6,91.9z"/>
<path class="st16" d="M239.5,86c0,0.7-0.1,1.3-0.1,2C237.6,87.3,238.6,86.6,239.5,86z"/>
<path class="st16" d="M244.5,99c-0.5,0-1,0-1.5,0c0.3-0.3,0.6-0.6,0.9-0.9C244.1,98.4,244.3,98.7,244.5,99z"/>
<path class="st16" d="M246,88c0-0.5,0-1,0-1.5c0.3,0.2,0.6,0.4,0.9,0.6C246.6,87.4,246.3,87.7,246,88z"/>
<path class="st16" d="M245.5,85.5c-0.5,0-1-0.1-1.5-0.1c0.2-0.3,0.5-0.6,0.7-0.8C245,84.9,245.2,85.2,245.5,85.5z"/>
<path class="st16" d="M214.5,78c0-0.5,0-1,0-1.5c0.3,0.3,0.6,0.6,0.9,0.9C215.1,77.6,214.8,77.8,214.5,78z"/>
<path class="st16" d="M248.2,99.9c-0.3-0.3-0.5-0.6-0.8-0.8c0.2-0.1,0.5-0.2,0.7-0.4C248.2,99.1,248.2,99.5,248.2,99.9z"/>
<path class="st16" d="M229.1,91.5c0.2,0.1,0.3,0.3,0.5,0.4c-0.3,0.1-0.6,0.2-0.8,0.3C228.8,91.9,229,91.7,229.1,91.5z"/>
<path class="st17" d="M226.3,60.1c-0.1-0.3-0.2-0.7-0.3-1c0.2,0,0.3-0.1,0.5-0.1C226.4,59.3,226.4,59.7,226.3,60.1z"/>
<path class="st16" d="M248.2,117.5c-0.1-0.1-0.2-0.3-0.2-0.4C248.1,117.2,248.1,117.3,248.2,117.5z"/>
<path class="st9" d="M226.4,62.8c-1.9,1.5-15.7,1.4-17.5,0C215,62.8,220.7,62.8,226.4,62.8z"/>
<path class="st9" d="M246.5,64c-5.5,0-11,0-16.5,0c0-0.3-0.1-0.6-0.1-0.9c0.4-0.2,0.9-0.5,1.3-0.5c4.7,0,9.5-0.1,14.2,0
	c0.5,0,0.9,0.8,1.4,1.3C246.8,63.9,246.6,63.9,246.5,64z"/>
<path class="st14" d="M230.1,69.1c-0.1,0.3-0.3,0.6-0.4,0.9C229.9,69.7,230,69.4,230.1,69.1z"/>
<path class="st23" d="M226,65.7c-0.3,0-0.6,0-1-0.1C225.4,65.7,225.7,65.7,226,65.7z"/>
<path class="st17" d="M230.5,59.1c-0.1,0.3-0.2,0.6-0.3,0.9C230.3,59.7,230.4,59.4,230.5,59.1z"/>
<path class="st14" d="M246.5,64c0.1-0.1,0.2-0.1,0.4-0.1c0,0.2,0.1,0.4,0.1,0.6c0,0,0,0,0,0C246.8,64.3,246.7,64.1,246.5,64z"/>
<path class="st5" d="M227,115.5c-2.6,2.5-5.3,4.8-9.2,4.5c-1-3.6-0.8-4,2.3-5.4c2.3-1,3.4-2.7,4-6c1.3,0,2.7,0,4.8,0
	C228.2,111.1,227.6,113.3,227,115.5C227,115.5,227,115.5,227,115.5z"/>
<path class="st9" d="M346,61.5c-0.4,0.5-0.8,1-1.3,1.4c-3,2-4.9,4.8-6.2,8.2c-0.2,0.6-1.1,1-1.6,1.4c-0.2-0.7-0.7-1.5-0.6-2.1
	c1.2-4.2,3.9-7.3,7.4-9.7c0.5-0.4,1.5,0,2.2,0C345.9,60.9,346,61.2,346,61.5z"/>
<path class="st17" d="M85.5,240.3c0,1.9-1.6,3.7-3.3,3.7c-1.8,0-4.1-2.1-4.1-3.7c0-1.6,2.3-3.8,4-3.8
	C84,236.6,85.5,238.3,85.5,240.3z"/>
<path class="st17" d="M503,220.5c-0.1,2.3-1.4,3.6-3.6,3.5c-1.9-0.1-3.5-1.8-3.4-3.8c0-1.9,1.9-3.7,3.7-3.6
	C501.5,216.6,503.1,218.5,503,220.5z"/>
<path class="st13" d="M137.7,139c0-1,0-2,0-3C138.9,137,139,138,137.7,139z"/>
<path class="st17" d="M462.5,361.5c-4.8,0-9.7,0.1-14.5-0.1c-0.8,0-1.6-0.9-2.4-1.3c0.8-0.4,1.6-1.1,2.4-1.1c9.7-0.1,19.3-0.1,29,0
	c0.8,0,1.6,0.7,2.4,1.1c-0.8,0.5-1.6,1.3-2.4,1.3C472.2,361.6,467.3,361.5,462.5,361.5z"/>
<path class="st17" d="M466.5,349c0,4.6,0,4.6-4.7,4.6c-3.3,0-3.3,0-3.3-3.4c0-0.2,0-0.3,0-0.5c0.1-6.4-1-5.5,5.7-5.7
	c1.7,0,2.5,0.5,2.3,2.2C466.4,347.1,466.5,348,466.5,349z"/>
<path class="st17" d="M479,372c0,4.6,0,4.6-4.7,4.6c-3.3,0-3.3,0-3.3-3.4c0-0.2,0-0.3,0-0.5c0.1-6.3-1-5.5,5.8-5.6
	c1.6,0,2.3,0.6,2.2,2.2C479,370.1,479,371,479,372z"/>
<path class="st17" d="M454,371.9c0,4.6,0,4.6-4.6,4.6c-3.4,0-3.4,0-3.4-3.4c0-0.2,0-0.5,0-0.7c0.1-6-0.8-5.3,5.3-5.4
	c2,0,3,0.6,2.8,2.7C453.9,370.4,454,371.2,454,371.9z"/>
<path class="st17" d="M466.5,371.8c0,4.7,0,4.7-4.8,4.7c-3.2,0-3.2,0-3.2-3.2c0-0.3,0-0.7,0-1c0.1-5.9-0.8-5.2,5.3-5.4
	c2,0,3,0.5,2.7,2.6C466.4,370.3,466.5,371.1,466.5,371.8z"/>
<path class="st17" d="M454,348.9c0,4.6,0,4.6-4.6,4.6c-3.4,0-3.4,0-3.4-3.4c0-0.2,0-0.5,0-0.7c0.1-5.9-0.8-5.2,5.3-5.3
	c2,0,3,0.6,2.7,2.7C453.9,347.4,454,348.2,454,348.9z"/>
<path class="st17" d="M479,348.8c0,4.7,0,4.7-4.7,4.7c-3.3,0-3.3,0-3.3-3.4c0-0.3,0-0.7,0-1c0-5.8-0.7-5,5.2-5.2
	c2.2-0.1,3.1,0.7,2.8,2.9C478.9,347.5,479,348.1,479,348.8z"/>
</svg>
