<?xml version="1.0" encoding="utf-8"?>
<!-- Generator: Adobe Illustrator 24.1.0, SVG Export Plug-In . SVG Version: 6.00 Build 0)  -->
<svg version="1.1" id="Calque_1" xmlns="http://www.w3.org/2000/svg" xmlns:xlink="http://www.w3.org/1999/xlink" x="0px" y="0px"
	 viewBox="0 0 1920 1080" style="enable-background:new 0 0 1920 1080;" xml:space="preserve">
<style type="text/css">
	.st0{clip-path:url(#SVGID_2_);}
	.st1{clip-path:url(#SVGID_4_);}
	.st2{clip-path:url(#SVGID_6_);fill:#F5F5F5;}
	.st3{clip-path:url(#SVGID_6_);fill:#E0E0E0;}
	.st4{clip-path:url(#SVGID_6_);fill:#EBEBEB;}
	.st5{clip-path:url(#SVGID_6_);fill:#FAFAFA;}
	.st6{clip-path:url(#SVGID_10_);fill:#455A64;}
	.st7{clip-path:url(#SVGID_10_);fill:#FFBE9D;}
	.st8{clip-path:url(#SVGID_10_);fill:#263238;}
	.st9{clip-path:url(#SVGID_10_);fill:#EB996E;}
	.st10{clip-path:url(#SVGID_10_);fill:#E8505B;}
	.st11{opacity:0.3;clip-path:url(#SVGID_10_);}
	.st12{clip-path:url(#SVGID_12_);}
	.st13{clip-path:url(#SVGID_10_);fill:#FFFFFF;}
	.st14{clip-path:url(#SVGID_14_);fill:#263238;}
	.st15{clip-path:url(#SVGID_14_);fill:#455A64;}
	.st16{clip-path:url(#SVGID_14_);fill:#FFFFFF;}
	.st17{clip-path:url(#SVGID_14_);fill:#E8505B;}
	.st18{clip-path:url(#SVGID_4_);fill:#455A64;}
	.st19{clip-path:url(#SVGID_4_);fill:#263238;}
	.st20{clip-path:url(#SVGID_16_);fill:#263238;}
	.st21{clip-path:url(#SVGID_16_);fill:#E8505B;}
	.st22{clip-path:url(#SVGID_16_);fill:#FFFFFF;}
	.st23{clip-path:url(#SVGID_16_);fill:#FAFAFA;}
	.st24{clip-path:url(#SVGID_16_);fill:#EBEBEB;}
	.st25{clip-path:url(#SVGID_16_);fill:#455A64;}
	.st26{clip-path:url(#SVGID_16_);fill:#F5F5F5;}
	.st27{opacity:0.4;clip-path:url(#SVGID_16_);}
	.st28{clip-path:url(#SVGID_18_);fill:#FFFFFF;}
	.st29{clip-path:url(#SVGID_20_);fill:#FFFFFF;}
	.st30{clip-path:url(#SVGID_22_);fill:#FFFFFF;}
	.st31{clip-path:url(#SVGID_16_);fill:#E0E0E0;}
</style>
<g>
	<g>
		<defs>
			<rect id="SVGID_1_" x="656.78" y="306.89" width="500" height="500"/>
		</defs>
		<clipPath id="SVGID_2_">
			<use xlink:href="#SVGID_1_"  style="overflow:visible;"/>
		</clipPath>
		<g class="st0">
			<defs>
				<rect id="SVGID_3_" x="656.78" y="306.89" width="500" height="500"/>
			</defs>
			<clipPath id="SVGID_4_">
				<use xlink:href="#SVGID_3_"  style="overflow:visible;"/>
			</clipPath>
			<g class="st1">
				<defs>
					<rect id="SVGID_5_" x="656.78" y="306.89" width="500" height="500"/>
				</defs>
				<clipPath id="SVGID_6_">
					<use xlink:href="#SVGID_5_"  style="overflow:visible;"/>
				</clipPath>
				<path class="st2" d="M1037.34,715.79c-15.55-10.86-19.08-31.03-18.47-49.16c0.1-3.03-0.23-6.22,1.21-8.87
					c1.44-2.65,4.8-4.47,7.51-3.19c2.25,1.06,3.23,3.67,4.48,5.83c1.67,2.88,4.16,5.26,7.1,6.78c1.93,1,4.31,1.61,6.21,0.56
					c2.61-1.44,2.92-5.05,2.9-8.06c-0.04-5.61-0.07-11.22-0.1-16.83c-0.02-3.01-0.03-6.08,0.91-8.94c0.94-2.86,3.01-5.51,5.87-6.31
					c2.86-0.8,6.41,0.85,7.01,3.79c0.25,1.23,0,2.5,0.09,3.75c0.08,1.25,0.67,2.63,1.85,2.98c1.2,0.35,2.41-0.5,3.3-1.38
					c3.11-3.04,5.22-6.95,7.19-10.85s3.88-7.88,6.7-11.19c2.82-3.31,6.72-5.94,11.03-6.19c4.31-0.24,8.9,2.42,9.99,6.65
					c1.09,4.24-1.38,8.55-4.08,11.98c-4,5.1-8.72,9.6-13.99,13.33c-0.95,0.67-1.98,1.4-2.34,2.52c-0.65,2.01,1.25,4,3.23,4.66
					c2.24,0.75,4.68,0.52,7.02,0.79c2.35,0.28,4.89,1.31,5.78,3.53c1.23,3.08-1.34,6.3-3.87,8.41c-5.07,4.23-10.86,7.57-17.03,9.83
					c-2.21,0.81-4.54,1.52-6.33,3.08c-1.79,1.55-2.86,4.26-1.79,6.38c1.08,2.12,3.85,2.8,6.17,2.37c2.32-0.43,4.39-1.69,6.6-2.52
					c4.14-1.56,9.48-1.28,12.13,2.3c1.74,2.35,1.89,5.62,1.01,8.42c-0.88,2.8-2.67,5.21-4.56,7.44
					c-6.63,7.78-15.11,14.04-24.71,17.37C1055.77,718.38,1046.88,719.28,1037.34,715.79"/>
				<path class="st3" d="M1037.1,729.23c0.66-7.18,2.23-15.66,4.92-24.81c2.67-9.15,6.43-18.93,10.7-29.03
					c1.08-2.52,2.15-5.01,3.2-7.47c1.06-2.45,2.1-4.88,3.27-7.19c2.32-4.64,4.9-8.91,7.48-12.9c2.58-3.99,5.17-7.68,7.62-11.11
					c2.46-3.43,4.81-6.58,7.07-9.36c4.51-5.58,8.68-9.65,11.65-12.32c1.48-1.34,2.67-2.34,3.48-3.01c0.39-0.32,0.7-0.57,0.93-0.76
					c0.21-0.17,0.32-0.25,0.33-0.24c0.01,0.01-0.09,0.1-0.29,0.29c-0.22,0.2-0.52,0.46-0.89,0.8c-0.79,0.7-1.95,1.72-3.41,3.09
					c-2.92,2.72-7.03,6.81-11.49,12.41c-2.24,2.79-4.57,5.95-7,9.38c-2.43,3.44-5.01,7.13-7.57,11.12
					c-2.56,3.98-5.12,8.25-7.43,12.86c-1.16,2.3-2.19,4.71-3.25,7.16c-1.05,2.45-2.11,4.94-3.19,7.46
					c-4.28,10.09-8.04,19.85-10.73,28.96c-2.7,9.11-4.31,17.54-5.02,24.7"/>
				<path class="st3" d="M1059.35,660.71c-0.04,0.01-0.14-0.45-0.29-1.28c-0.16-0.83-0.35-2.04-0.56-3.54
					c-0.43-3-0.87-7.15-1.35-11.74c-0.47-4.59-0.98-8.73-1.45-11.71c-0.23-1.49-0.43-2.7-0.58-3.53c-0.14-0.83-0.21-1.3-0.17-1.31
					c0.04-0.01,0.17,0.44,0.38,1.26c0.21,0.82,0.47,2.02,0.75,3.51c0.57,2.98,1.14,7.13,1.61,11.72c0.46,4.53,0.87,8.62,1.18,11.75
					c0.15,1.41,0.28,2.6,0.38,3.56C1059.36,660.24,1059.39,660.71,1059.35,660.71"/>
				<path class="st3" d="M1098.05,653.48c0,0.04-0.55,0.1-1.54,0.18c-0.99,0.09-2.43,0.21-4.2,0.41c-3.55,0.38-8.42,1.08-13.77,2.09
					c-5.35,1.02-10.15,2.14-13.59,3.06c-1.73,0.45-3.12,0.84-4.08,1.11c-0.96,0.27-1.5,0.41-1.51,0.37
					c-0.01-0.04,0.5-0.24,1.45-0.58c0.94-0.33,2.32-0.79,4.04-1.29c3.43-1.02,8.23-2.21,13.6-3.23c5.36-1.01,10.27-1.65,13.83-1.93
					c1.78-0.16,3.23-0.22,4.23-0.24C1097.49,653.43,1098.05,653.44,1098.05,653.48"/>
				<path class="st3" d="M1042.5,703.71c-0.02,0.01-0.11-0.15-0.27-0.47c-0.18-0.38-0.4-0.84-0.66-1.4c-0.57-1.22-1.35-3-2.28-5.22
					c-1.87-4.43-4.25-10.64-6.79-17.52c-2.54-6.89-4.87-13.1-6.64-17.57c-0.87-2.17-1.58-3.96-2.11-5.28
					c-0.23-0.58-0.41-1.05-0.57-1.44c-0.12-0.33-0.18-0.51-0.16-0.52c0.02-0.01,0.11,0.15,0.27,0.47c0.18,0.38,0.4,0.84,0.66,1.4
					c0.57,1.22,1.35,3,2.28,5.22c1.87,4.43,4.25,10.64,6.79,17.52c2.54,6.88,4.87,13.1,6.64,17.57c0.87,2.17,1.58,3.96,2.11,5.28
					c0.23,0.58,0.41,1.05,0.57,1.44C1042.46,703.53,1042.52,703.7,1042.5,703.71"/>
				<path class="st3" d="M1093.92,687.14c0.01,0.02-0.17,0.09-0.51,0.21c-0.4,0.13-0.9,0.3-1.49,0.5c-1.38,0.45-3.24,1.05-5.51,1.78
					c-4.65,1.51-11.05,3.66-18.11,6.06c-7.07,2.39-13.49,4.49-18.17,5.9c-2.34,0.71-4.24,1.26-5.56,1.61
					c-0.61,0.16-1.11,0.29-1.52,0.4c-0.35,0.09-0.54,0.12-0.54,0.1c-0.01-0.02,0.17-0.09,0.51-0.21c0.4-0.13,0.89-0.3,1.49-0.5
					c1.38-0.45,3.24-1.05,5.51-1.79c4.65-1.51,11.05-3.66,18.11-6.06c7.07-2.39,13.49-4.49,18.17-5.9c2.34-0.71,4.24-1.26,5.56-1.61
					c0.61-0.16,1.11-0.29,1.52-0.4C1093.73,687.16,1093.91,687.12,1093.92,687.14"/>
				<path class="st3" d="M1119.17,639.35c-0.02-0.01-0.16-0.21-0.4-0.59c-0.27-0.44-0.6-0.97-1-1.61c-0.84-1.38-2.02-3.32-3.4-5.65
					l0.31,0.08c-2.33,1.36-5.05,2.94-7.95,4.63c-0.02,0.08,0.18-0.67,0.09-0.35l0,0l0,0l0.01,0.01l0.01,0.02l0.02,0.03l0.04,0.07
					l0.08,0.14l0.16,0.27l0.31,0.54c0.21,0.36,0.41,0.71,0.61,1.07c0.4,0.7,0.8,1.39,1.18,2.06c0.76,1.34,1.48,2.6,2.15,3.77
					l-0.31-0.08c2.36-1.34,4.35-2.42,5.77-3.2c0.66-0.35,1.21-0.65,1.67-0.9C1118.93,639.45,1119.15,639.34,1119.17,639.35
					c0.02,0.01-0.15,0.13-0.51,0.35c-0.43,0.27-0.95,0.59-1.57,0.97c-1.37,0.84-3.36,2.05-5.78,3.47l-0.19,0.11l-0.11-0.2
					c-0.68-1.16-1.41-2.42-2.19-3.74c-0.39-0.67-0.79-1.36-1.19-2.06c-0.2-0.35-0.41-0.71-0.62-1.06l-0.31-0.54l-0.16-0.27
					l-0.08-0.14l-0.04-0.07l-0.02-0.03l-0.01-0.02l-0.01-0.01l0,0l0,0c-0.08,0.32,0.11-0.43,0.1-0.36c2.91-1.66,5.64-3.23,7.98-4.57
					l0.2-0.11l0.11,0.2c1.38,2.44,2.51,4.48,3.27,5.89c0.34,0.64,0.63,1.18,0.87,1.63C1119.11,639.16,1119.2,639.35,1119.17,639.35"
					/>
				
					<rect x="808.09" y="371.42" transform="matrix(1 -5.377021e-03 5.377021e-03 1 -2.1147 4.3768)" class="st3" width="9.67" height="48.12"/>
				
					<rect x="724.25" y="371.58" transform="matrix(1 -5.350399e-03 5.350399e-03 1 -2.0486 3.9475)" class="st4" width="25.04" height="26.57"/>
				
					<rect x="749.17" y="371.45" transform="matrix(1 -5.350399e-03 5.350399e-03 1 -2.0476 4.0809)" class="st2" width="25.05" height="26.57"/>
				<path class="st3" d="M724.21,378.99c16.64,0.14,33.33,0.04,49.97-0.23c0.34-0.01,0.34-0.53,0-0.53
					c-16.64-0.09-33.33-0.01-49.97,0.31C723.92,378.54,723.92,378.99,724.21,378.99"/>
				
					<rect x="708.62" y="397.76" transform="matrix(1 -5.362732e-03 5.362732e-03 1 -2.1806 3.928)" class="st4" width="45.5" height="21.65"/>
				
					<rect x="753.9" y="397.52" transform="matrix(1 -5.362615e-03 5.362615e-03 1 -2.1786 4.1708)" class="st2" width="45.5" height="21.65"/>
				<path class="st3" d="M708.59,403.91c30.23,0.34,60.56,0.04,90.79-0.45c0.34-0.01,0.34-0.53,0-0.53
					c-30.23-0.16-60.57-0.14-90.79,0.52C708.3,403.46,708.3,403.9,708.59,403.91"/>
				<rect x="691.57" y="419.54" class="st3" width="176.29" height="7.76"/>
				<rect x="720.44" y="423.26" class="st3" width="7.16" height="26.47"/>
				<rect x="827.27" y="423.26" class="st3" width="7.16" height="26.47"/>
				
					<rect x="817.58" y="353.47" transform="matrix(1 -5.377021e-03 5.377021e-03 1 -2.0667 4.4277)" class="st4" width="9.67" height="66.19"/>
				
					<rect x="827.3" y="365.81" transform="matrix(1 -5.391469e-03 5.391469e-03 1 -2.1047 4.5066)" class="st2" width="15.03" height="53.64"/>
				<path class="st3" d="M842.08,376.1c0,0.14-3.36,0.26-7.51,0.26c-4.15,0-7.51-0.12-7.51-0.26c0-0.14,3.36-0.26,7.51-0.26
					C838.72,375.84,842.08,375.96,842.08,376.1"/>
				<path class="st3" d="M842.08,373.85c0,0.14-3.36,0.26-7.51,0.26c-4.15,0-7.51-0.12-7.51-0.26c0-0.14,3.36-0.26,7.51-0.26
					C838.72,373.59,842.08,373.7,842.08,373.85"/>
				<path class="st3" d="M842.08,411.33c0,0.14-3.36,0.26-7.51,0.26c-4.15,0-7.51-0.12-7.51-0.26c0-0.14,3.36-0.26,7.51-0.26
					C838.72,411.07,842.08,411.19,842.08,411.33"/>
				<path class="st3" d="M842.08,409.08c0,0.14-3.36,0.26-7.51,0.26c-4.15,0-7.51-0.12-7.51-0.26c0-0.14,3.36-0.26,7.51-0.26
					C838.72,408.82,842.08,408.94,842.08,409.08"/>
				<path class="st3" d="M834.81,404.16c-0.14,0-0.26-5.41-0.26-12.08c0-6.68,0.12-12.09,0.26-12.09s0.26,5.41,0.26,12.09
					C835.07,398.75,834.95,404.16,834.81,404.16"/>
				<rect x="842.24" y="378.94" class="st4" width="16.36" height="40.48"/>
				<path class="st5" d="M850.88,408.92c-2.15,0-3.65-1.53-3.65-3.64c0-1.14,0.44-2.14,1.32-2.73l0.37,0.51
					c-0.73,0.52-1.08,1.32-1.08,2.22c0,1.7,1.21,2.94,3.03,2.94c1.82,0,3.04-1.24,3.04-2.94c0-0.9-0.35-1.7-1.08-2.22l0.37-0.51
					c0.87,0.59,1.32,1.59,1.32,2.73C854.54,407.39,853.02,408.92,850.88,408.92"/>
				<path class="st5" d="M853.61,401.55l-0.55-0.32c0.47-0.55,0.87-1.53,0.87-2.59c0-1.52-0.54-2.12-1.35-2.12
					c-2.1,0-0.55,4.77-3.38,4.77c-1.09,0-1.97-0.91-1.97-2.73c0-0.91,0.27-1.9,0.7-2.47l0.55,0.32c-0.44,0.61-0.65,1.39-0.65,2.17
					c0,1.41,0.58,2.03,1.35,2.03c2.17,0,0.64-4.77,3.38-4.77c1.17,0,1.97,1.01,1.97,2.84C854.54,399.85,854.14,400.98,853.61,401.55
					"/>
				<path class="st5" d="M853.61,394.95l-0.55-0.32c0.47-0.55,0.87-1.53,0.87-2.59c0-1.52-0.54-2.12-1.35-2.12
					c-2.1,0-0.55,4.77-3.38,4.77c-1.09,0-1.97-0.91-1.97-2.73c0-0.91,0.27-1.9,0.7-2.47l0.55,0.32c-0.44,0.61-0.65,1.39-0.65,2.17
					c0,1.41,0.58,2.03,1.35,2.03c2.17,0,0.64-4.77,3.38-4.77c1.17,0,1.97,1.01,1.97,2.84C854.54,393.26,854.14,394.39,853.61,394.95
					"/>
				<path class="st3" d="M824.87,364.75c0,1.54-1.24,2.78-2.78,2.78c-1.54,0-2.78-1.24-2.78-2.78c0-1.53,1.24-2.78,2.78-2.78
					C823.63,361.97,824.87,363.21,824.87,364.75"/>
				<rect x="821.23" y="372.39" class="st3" width="1.72" height="39.37"/>
				<path class="st3" d="M1040.25,604.12c-0.1-0.1,3.15-3.52,7.26-7.63c4.11-4.11,7.53-7.36,7.63-7.26c0.1,0.1-3.15,3.52-7.26,7.63
					C1043.77,600.97,1040.35,604.22,1040.25,604.12"/>
				<path class="st3" d="M1055.14,604.12c-0.1,0.1-3.52-3.15-7.63-7.26c-4.11-4.11-7.36-7.53-7.26-7.63c0.1-0.1,3.52,3.15,7.63,7.26
					C1051.99,600.6,1055.25,604.02,1055.14,604.12"/>
				<path class="st3" d="M904.05,523.36c-0.1-0.1,3.15-3.52,7.26-7.63c4.11-4.11,7.53-7.36,7.63-7.26c0.1,0.1-3.15,3.52-7.26,7.63
					C907.57,520.21,904.16,523.46,904.05,523.36"/>
				<path class="st3" d="M918.95,523.36c-0.1,0.1-3.52-3.15-7.63-7.26c-4.11-4.11-7.36-7.53-7.26-7.63c0.1-0.1,3.52,3.15,7.63,7.26
					C915.8,519.84,919.05,523.25,918.95,523.36"/>
				<path class="st3" d="M883.64,393.03c-0.14,0.01-0.61-4.02-1.04-9c-0.43-4.99-0.67-9.04-0.53-9.05s0.61,4.02,1.04,9
					C883.55,388.96,883.78,393.01,883.64,393.03"/>
				<path class="st3" d="M891.88,383.21c0.01,0.14-4.02,0.61-9,1.05c-4.99,0.43-9.04,0.67-9.05,0.53c-0.01-0.14,4.02-0.61,9-1.05
					C887.82,383.31,891.87,383.07,891.88,383.21"/>
				<path class="st3" d="M800.15,491.93c-0.01,0-0.08-0.1-0.19-0.28c-0.13-0.22-0.29-0.48-0.49-0.8c-0.45-0.74-1.05-1.75-1.8-3
					c-1.54-2.62-3.7-6.27-6.27-10.63l0.31,0.08c-4.32,2.5-9.39,5.45-14.8,8.59c-0.02,0.08,0.18-0.67,0.09-0.35l0,0l0,0.01l0.01,0.02
					l0.02,0.03l0.04,0.06l0.07,0.13l0.15,0.25l0.29,0.51l0.58,1.01c0.39,0.67,0.77,1.33,1.14,1.98c0.75,1.31,1.49,2.59,2.21,3.83
					c1.43,2.49,2.78,4.84,4.02,7.01l-0.31-0.08c4.41-2.49,8.1-4.58,10.74-6.07c1.28-0.71,2.3-1.28,3.06-1.7
					c0.33-0.18,0.6-0.33,0.83-0.45C800.03,491.98,800.14,491.93,800.15,491.93c0.02,0.01-0.33,0.23-1,0.64
					c-0.73,0.44-1.72,1.03-2.96,1.78c-2.65,1.56-6.34,3.74-10.75,6.34l-0.19,0.11l-0.11-0.2c-1.25-2.15-2.62-4.5-4.06-6.98
					c-0.72-1.24-1.46-2.52-2.22-3.83c-0.38-0.65-0.76-1.31-1.15-1.98l-0.58-1.01l-0.29-0.51l-0.15-0.25l-0.07-0.13l-0.04-0.06
					l-0.02-0.03l-0.01-0.02l0-0.01l0,0c-0.08,0.32,0.11-0.43,0.1-0.36c5.43-3.12,10.51-6.04,14.84-8.53l0.2-0.11l0.11,0.2
					c2.52,4.46,4.63,8.19,6.14,10.87c0.7,1.26,1.26,2.27,1.68,3.02C799.98,491.57,800.17,491.93,800.15,491.93"/>
				<path class="st3" d="M1127.68,588.21c-0.05,0.02-0.14-0.33-0.46-0.87c-0.32-0.53-0.93-1.25-1.96-1.65
					c-1-0.42-2.44-0.41-3.62,0.43c-1.18,0.79-1.93,2.46-1.5,4.06c0.4,1.61,1.88,2.7,3.29,2.81c1.43,0.15,2.7-0.55,3.37-1.4
					c0.7-0.85,0.88-1.78,0.9-2.4C1127.73,588.57,1127.64,588.23,1127.68,588.21c0.02-0.01,0.18,0.32,0.23,0.98
					c0.04,0.64-0.09,1.66-0.81,2.63c-0.69,0.96-2.08,1.79-3.7,1.65c-1.59-0.1-3.29-1.32-3.75-3.16c-0.49-1.83,0.39-3.72,1.73-4.59
					c1.34-0.92,2.96-0.87,4.04-0.37c1.1,0.49,1.71,1.31,1.99,1.89C1127.68,587.84,1127.7,588.21,1127.68,588.21"/>
				<path class="st3" d="M940.76,350.2c-0.05,0.01-0.14-0.33-0.46-0.87c-0.32-0.53-0.93-1.25-1.96-1.65c-1-0.42-2.44-0.41-3.62,0.43
					c-1.18,0.79-1.93,2.46-1.5,4.06c0.4,1.61,1.88,2.7,3.29,2.81c1.43,0.15,2.7-0.55,3.37-1.4c0.7-0.85,0.88-1.79,0.9-2.4
					C940.8,350.56,940.71,350.21,940.76,350.2c0.02-0.01,0.18,0.32,0.23,0.98c0.04,0.64-0.09,1.66-0.81,2.63
					c-0.69,0.96-2.08,1.79-3.7,1.65c-1.6-0.1-3.29-1.32-3.75-3.16c-0.49-1.83,0.39-3.72,1.73-4.59c1.34-0.92,2.96-0.87,4.03-0.37
					c1.1,0.49,1.72,1.31,1.99,1.9C940.76,349.83,940.78,350.2,940.76,350.2"/>
				<path class="st3" d="M754.8,464.66c-0.05,0.01-0.14-0.33-0.46-0.87c-0.32-0.53-0.93-1.25-1.96-1.65c-1-0.42-2.44-0.41-3.62,0.43
					c-1.18,0.79-1.93,2.46-1.5,4.06c0.41,1.61,1.88,2.7,3.29,2.81c1.43,0.15,2.7-0.55,3.37-1.4c0.7-0.85,0.88-1.79,0.9-2.4
					C754.84,465.01,754.75,464.67,754.8,464.66c0.02-0.01,0.18,0.32,0.23,0.98c0.04,0.64-0.09,1.66-0.81,2.63
					c-0.69,0.96-2.08,1.79-3.7,1.65c-1.6-0.1-3.29-1.32-3.75-3.16c-0.49-1.83,0.39-3.72,1.73-4.59c1.34-0.92,2.96-0.87,4.03-0.37
					c1.1,0.49,1.72,1.31,1.99,1.9C754.8,464.28,754.82,464.65,754.8,464.66"/>
				<path class="st3" d="M1110.49,448.67c-0.06,0.02-0.21-0.73-0.88-1.91c-0.65-1.15-1.96-2.74-4.18-3.65
					c-1.1-0.44-2.41-0.72-3.8-0.6c-1.38,0.12-2.86,0.56-4.14,1.47c-0.65,0.44-1.24,0.99-1.74,1.63c-0.52,0.63-0.95,1.36-1.25,2.15
					c-0.64,1.57-0.76,3.41-0.32,5.15c0.47,1.74,1.47,3.28,2.8,4.34c0.65,0.54,1.38,0.97,2.14,1.27c0.76,0.31,1.54,0.51,2.32,0.57
					c1.56,0.17,3.06-0.17,4.33-0.73c1.27-0.58,2.28-1.46,3.03-2.38c1.5-1.88,1.86-3.91,1.86-5.23
					C1110.66,449.41,1110.43,448.68,1110.49,448.67c0.02,0,0.07,0.18,0.16,0.52c0.1,0.35,0.19,0.88,0.21,1.56
					c0.06,1.35-0.25,3.47-1.78,5.46c-0.76,0.98-1.8,1.92-3.13,2.54c-1.32,0.61-2.91,0.99-4.56,0.82c-0.82-0.06-1.66-0.26-2.46-0.59
					c-0.81-0.31-1.58-0.76-2.28-1.33c-1.42-1.12-2.48-2.76-2.98-4.61c-0.47-1.85-0.34-3.81,0.35-5.48c0.32-0.84,0.78-1.61,1.34-2.28
					c0.54-0.67,1.17-1.26,1.86-1.71c1.36-0.95,2.92-1.4,4.38-1.51c1.47-0.11,2.83,0.21,3.97,0.69c2.3,1,3.61,2.69,4.22,3.9
					c0.32,0.61,0.5,1.12,0.58,1.47C1110.47,448.48,1110.51,448.67,1110.49,448.67"/>
				<path class="st3" d="M1083.56,575.26c0,0.03-0.18-0.3-0.52-0.93c-0.38-0.71-0.88-1.63-1.48-2.75c-1.28-2.37-3.11-5.78-5.19-9.79
					l-0.2-0.39l0.43,0.03c2.3,0.14,4.81,0.3,7.42,0.46c2.71,0.18,5.31,0.35,7.69,0.51l0.42,0.03l-0.23,0.35
					c-2.42,3.73-4.54,6.89-6.01,9.08c-0.7,1.04-1.27,1.89-1.71,2.54C1083.77,574.99,1083.56,575.29,1083.56,575.26
					s0.21-0.38,0.6-1.02c0.42-0.69,0.97-1.58,1.65-2.67c1.4-2.27,3.35-5.41,5.67-9.05l0.19,0.38c-2.38-0.15-4.98-0.31-7.69-0.48
					c-2.61-0.17-5.11-0.34-7.42-0.49l0.23-0.36c1.99,3.91,3.65,7.29,4.84,9.73c0.57,1.17,1.05,2.14,1.41,2.88
					C1083.38,574.85,1083.56,575.24,1083.56,575.26"/>
				<path class="st3" d="M1013.83,386.43c0,0.03-0.18-0.3-0.52-0.93c-0.38-0.71-0.88-1.63-1.48-2.75c-1.28-2.37-3.11-5.78-5.19-9.8
					l-0.2-0.38l0.43,0.03c2.3,0.14,4.81,0.3,7.42,0.46c2.71,0.18,5.31,0.35,7.69,0.51l0.42,0.03l-0.23,0.35
					c-2.42,3.73-4.54,6.89-6.01,9.08c-0.7,1.04-1.27,1.89-1.71,2.54C1014.04,386.16,1013.83,386.46,1013.83,386.43
					c0-0.03,0.21-0.38,0.6-1.01c0.42-0.69,0.97-1.58,1.65-2.67c1.4-2.27,3.35-5.42,5.68-9.05l0.19,0.38
					c-2.38-0.15-4.98-0.31-7.69-0.48c-2.61-0.17-5.11-0.34-7.42-0.49l0.23-0.36c1.99,3.91,3.65,7.29,4.84,9.73
					c0.57,1.17,1.05,2.13,1.41,2.88C1013.65,386.02,1013.83,386.4,1013.83,386.43"/>
				<path class="st3" d="M892.88,609.47c-0.02,0.01,0.17-0.3,0.57-0.9c0.44-0.67,1.01-1.54,1.71-2.6c1.48-2.24,3.61-5.48,6.16-9.23
					l0.2-0.3l0.2,0.3c1.47,2.18,3.08,4.56,4.77,7.05c1.3,1.94,2.55,3.8,3.72,5.54l0.26,0.39l-0.47,0
					c-5.03-0.01-9.36-0.09-12.39-0.14c-1.44-0.03-2.62-0.05-3.52-0.07C893.28,609.5,892.85,609.48,892.88,609.47
					c0.03-0.01,0.5-0.03,1.35-0.04c0.92-0.02,2.12-0.04,3.6-0.07c3.05-0.05,7.28-0.13,12.16-0.14l-0.21,0.39
					c-1.17-1.73-2.43-3.6-3.73-5.53c-1.67-2.5-3.27-4.89-4.74-7.07l0.4,0c-2.51,3.62-4.69,6.68-6.27,8.89
					c-0.76,1.06-1.38,1.93-1.86,2.6C893.15,609.12,892.9,609.46,892.88,609.47"/>
			</g>
			<g class="st1">
				<defs>
					<rect id="SVGID_7_" x="656.78" y="306.89" width="500" height="500"/>
				</defs>
				<clipPath id="SVGID_8_">
					<use xlink:href="#SVGID_7_"  style="overflow:visible;"/>
				</clipPath>
			</g>
			<g class="st1">
				<defs>
					<rect id="SVGID_9_" x="656.78" y="306.89" width="500" height="500"/>
				</defs>
				<clipPath id="SVGID_10_">
					<use xlink:href="#SVGID_9_"  style="overflow:visible;"/>
				</clipPath>
				<path class="st6" d="M1049.11,739.5H923.88v-72.6c0-34.58,28.03-62.61,62.61-62.61c34.58,0,62.61,28.03,62.61,62.61V739.5z"/>
				<path class="st7" d="M827.96,704.29l-6.3,4.45l-7.02,16.82c0,0,1.9,1.27,3.37-0.08c1.47-1.35,7.09-11.14,7.09-11.14l0.04,5.78
					c0.02,2.35,1.78,4.31,4.11,4.59l10.38,3.24l12.74-3.63l1.09-15.16L827.96,704.29z"/>
				<path class="st8" d="M941.14,592.52c-3.12-0.9-4.65-4.47-4.93-7.71c-0.28-3.23,0.25-6.56-0.63-9.69
					c-0.63-2.22-1.95-4.26-2.12-6.56c-0.18-2.48,1.01-4.87,1.08-7.36c0.09-3.47-1.99-6.69-2.05-10.16
					c-0.07-4.8,0.79-12.73,5.58-12.46c4.79,0.27,12.49,8.68,11.89,13.44"/>
				<path class="st7" d="M986.5,552.78l-0.1,4.79l-0.96,71.76c-0.11,8.33-7.36,14.87-16.28,14.68h0
					c-9.01-0.19-16.32-7.16-16.35-15.58c-0.03-8.84-0.22-18.14-0.22-18.14s-11.38-1.89-13.74-16.74c-1.17-7.39-0.8-19.49-0.18-29.39
					c0.56-8.91,8.42-15.56,17.3-14.62L986.5,552.78z"/>
				<path class="st8" d="M941.71,572.6c-0.03,1.01,0.79,1.86,1.84,1.92c1.05,0.06,1.93-0.71,1.96-1.72
					c0.04-1.01-0.79-1.87-1.83-1.92C942.63,570.83,941.75,571.6,941.71,572.6"/>
				<path class="st8" d="M941.3,570.47c0.24,0.25,1.68-0.82,3.73-0.81c2.05-0.02,3.55,1.03,3.77,0.78c0.11-0.11-0.13-0.56-0.79-1.04
					c-0.65-0.47-1.74-0.94-3.02-0.93c-1.28,0.01-2.35,0.48-2.97,0.96C941.39,569.91,941.18,570.36,941.3,570.47"/>
				<path class="st8" d="M962.22,572.6c-0.04,1.01,0.79,1.86,1.84,1.92c1.05,0.06,1.93-0.71,1.96-1.72
					c0.03-1.01-0.79-1.87-1.84-1.92C963.14,570.83,962.26,571.6,962.22,572.6"/>
				<path class="st8" d="M961.44,570.85c0.24,0.25,1.68-0.82,3.73-0.81c2.05-0.02,3.55,1.03,3.77,0.78
					c0.11-0.11-0.13-0.56-0.79-1.04c-0.64-0.47-1.74-0.94-3.02-0.93c-1.28,0.01-2.35,0.48-2.97,0.96
					C961.54,570.29,961.33,570.74,961.44,570.85"/>
				<path class="st8" d="M954,586.05c0.01-0.12-1.26-0.34-3.33-0.6c-0.52-0.05-1.02-0.16-1.11-0.51c-0.12-0.38,0.1-0.94,0.35-1.55
					c0.49-1.27,1.01-2.59,1.55-3.98c2.15-5.67,3.71-10.34,3.47-10.42c-0.23-0.09-2.16,4.45-4.31,10.12
					c-0.52,1.4-1.01,2.73-1.48,4.01c-0.2,0.59-0.54,1.27-0.27,2.05c0.14,0.39,0.53,0.67,0.86,0.76c0.34,0.1,0.63,0.11,0.89,0.12
					C952.71,586.16,953.99,586.17,954,586.05"/>
				<path class="st9" d="M952.59,610.3c0,0,9.99,0.64,19.89-5.31c0,0-4.82,10.2-19.69,8.81L952.59,610.3z"/>
				<path class="st9" d="M954.87,590.99c0.74-0.97,2.03-1.51,3.31-1.37c0.89,0.09,1.79,0.52,2.33,1.25
					c0.54,0.72,0.65,1.75,0.16,2.44c-0.55,0.78-1.71,0.96-2.69,0.68c-0.98-0.28-1.82-0.92-2.62-1.56c-0.22-0.18-0.45-0.36-0.59-0.61
					c-0.14-0.24-0.17-0.56,0-0.76"/>
				<path class="st8" d="M960.03,587.47c-0.33-0.02-0.34,2.21-2.24,3.78c-1.9,1.58-4.27,1.33-4.29,1.65
					c-0.03,0.14,0.53,0.43,1.53,0.46c0.98,0.03,2.42-0.28,3.58-1.25c1.16-0.97,1.66-2.26,1.74-3.17
					C960.43,588.01,960.19,587.46,960.03,587.47"/>
				<path class="st8" d="M960.91,562.82c0.2,0.56,2.25,0.29,4.65,0.58c2.41,0.24,4.35,0.95,4.67,0.45c0.14-0.24-0.2-0.76-0.98-1.3
					c-0.78-0.54-2.02-1.05-3.46-1.21c-1.44-0.16-2.77,0.07-3.64,0.43C961.27,562.12,960.82,562.56,960.91,562.82"/>
				<path class="st8" d="M942.05,564.54c0.36,0.47,1.77-0.02,3.47-0.04c1.7-0.08,3.14,0.31,3.47-0.17c0.14-0.24-0.08-0.7-0.71-1.14
					c-0.62-0.44-1.65-0.8-2.82-0.76c-1.17,0.04-2.18,0.46-2.77,0.93C942.09,563.83,941.89,564.31,942.05,564.54"/>
				<path class="st8" d="M991.97,548.22c3.09-8.39,15.95-21.04,25.84-15.4c10.83,6.17,6.98,10.44,10.91,13.28
					c0.94,0.68,5.33-0.78,5.94,0.2c1.61,2.59,0.25,5.93-1.13,8.65c0.31-0.04,0.64-0.14,0.98-0.26c1.22-0.45,2.54,0.46,2.47,1.75
					c-0.19,3.28-1.42,6.77-3.35,9.19c0.68,0.16,1.38,0.18,2.07,0.07c0.95-0.16,1.72,0.77,1.41,1.69c-1.09,3.16-4.11,5.65-7.46,6.34
					c-4.13,0.86-8.49-0.64-11.86-3.18c-3.37-2.54-5.9-6.02-8.19-9.56c-1.33-2.06-2.64-4.21-4.62-5.66c-1.98-1.45-4.83-2-6.86-0.64"
					/>
				<path class="st10" d="M998.13,554.37c-0.04-0.02,0-0.15-0.02-0.38c-0.02-0.23-0.1-0.57-0.25-0.98
					c-0.29-0.82-0.88-1.91-1.61-3.04c-0.74-1.13-1.51-2.09-2.11-2.73c-0.6-0.64-1.05-0.97-1.01-1.04c0.03-0.05,0.57,0.17,1.26,0.77
					c0.7,0.6,1.54,1.55,2.29,2.72c0.75,1.17,1.3,2.32,1.52,3.22c0.12,0.45,0.15,0.83,0.1,1.1
					C998.27,554.26,998.14,554.39,998.13,554.37"/>
				<path class="st8" d="M1023.24,577.39c0.01,0.02-0.11,0.11-0.36,0.27c-0.24,0.18-0.62,0.38-1.14,0.61
					c-1.03,0.45-2.67,0.83-4.68,0.62c-1.98-0.23-4.4-1.13-6.2-3.18c-0.89-1.02-1.55-2.3-1.97-3.7c-0.42-1.39-0.63-2.89-0.73-4.41
					c-0.18-3.04-0.07-5.93-0.61-8.48c-0.26-1.27-0.67-2.43-1.23-3.42c-0.57-0.98-1.3-1.78-2.08-2.36c-1.55-1.19-3.19-1.51-4.26-1.44
					c-1.09,0.09-1.64,0.41-1.66,0.35c-0.01-0.02,0.13-0.09,0.39-0.22c0.27-0.12,0.69-0.26,1.25-0.34c1.11-0.14,2.85,0.13,4.5,1.35
					c0.83,0.59,1.61,1.41,2.23,2.44c0.6,1.03,1.04,2.24,1.33,3.54c0.58,2.61,0.47,5.54,0.66,8.54c0.1,1.5,0.3,2.95,0.7,4.3
					c0.4,1.34,1.02,2.57,1.85,3.53c1.68,1.95,3.98,2.86,5.89,3.13c1.94,0.26,3.54-0.06,4.56-0.44
					C1022.7,577.7,1023.21,577.34,1023.24,577.39"/>
				<path class="st8" d="M1033.22,537.02c0.01-0.01,0.12,0.18,0.29,0.56c0.15,0.39,0.33,0.98,0.38,1.78
					c0.04,0.79-0.05,1.79-0.48,2.84c-0.42,1.05-1.2,2.17-2.44,2.92c-1.23,0.75-2.89,1.06-4.56,0.73c-1.65-0.32-3.37-1.38-4.27-3.09
					c-0.98-1.65-1.32-3.63-1.72-5.59c-0.39-1.95-0.78-4.06-2.1-5.65c-0.65-0.78-1.54-1.34-2.5-1.58c-0.96-0.27-1.97-0.22-2.93-0.05
					c-1.93,0.37-3.67,1.27-5.22,2.23c-3.14,1.92-5.73,4.02-7.75,5.93c-2.03,1.91-3.5,3.63-4.49,4.83c-0.46,0.58-0.83,1.04-1.12,1.41
					c-0.25,0.32-0.4,0.49-0.41,0.48c-0.01-0.01,0.1-0.2,0.33-0.54c0.22-0.35,0.58-0.84,1.04-1.47c0.94-1.25,2.38-3.01,4.4-4.97
					c2.01-1.96,4.6-4.11,7.76-6.07c1.57-0.98,3.35-1.92,5.38-2.32c1.01-0.18,2.1-0.24,3.16,0.05c1.06,0.27,2.04,0.89,2.76,1.74
					c1.45,1.75,1.81,3.94,2.2,5.89c0.39,1.96,0.72,3.89,1.64,5.45c0.84,1.61,2.39,2.58,3.94,2.9c1.56,0.33,3.12,0.06,4.28-0.63
					c1.18-0.68,1.94-1.73,2.36-2.72c0.44-1,0.55-1.95,0.54-2.72C1033.64,537.82,1033.15,537.04,1033.22,537.02"/>
				<path class="st8" d="M995.65,533.48c0.04-0.04,0.59,0.52,1.09,1.66c0.51,1.12,0.91,2.87,0.59,4.76c-0.33,1.9-1.29,3.41-2.14,4.3
					c-0.86,0.9-1.56,1.25-1.59,1.2c-0.05-0.07,0.56-0.52,1.31-1.44c0.75-0.91,1.6-2.37,1.91-4.14c0.3-1.78-0.01-3.43-0.41-4.54
					C996.01,534.16,995.58,533.53,995.65,533.48"/>
				<path class="st8" d="M997.13,551.95c-2.25-5.72-7.45-10.24-13.48-11.43c-3.66-0.72-7.55-0.16-10.9,1.47
					c-1.28-0.72-2.32-1.82-3.38-2.85c-3.56-3.48-7.89-6.25-12.7-7.55c-4.81-1.3-10.1-1.05-14.58,1.13
					c-4.48,2.18-8.03,6.37-9.01,11.25c-0.97,4.88,0.85,10.33,4.84,13.3c3.99,2.98,10.02,3.07,13.85-0.1
					c-0.27,2.19,1.65,4.22,3.82,4.63c2.17,0.41,4.4-0.48,6.17-1.8c1.77-1.31,3.19-3.03,4.76-4.57c0.59-0.58,1.2-1.13,1.82-1.65
					c2.32,5.01,7.05,8.94,12.49,10.01c-1.72,1.87-1.57,4.79-0.86,7.24s1.87,4.83,1.81,7.37c-0.05,2.13-0.95,4.15-1.35,6.24
					c-0.56,2.91-0.13,6.01,1.2,8.66c0.52,1.02,1.14,2.46,1.71,3.46c1.01,1.78,1.01,1.78,2.48,2.23c3.06,0.94,8.34-10.16,9.71-14.57
					c1.14-3.68,1.58-10.28,2.9-13.89C1000.82,564.03,999.38,557.67,997.13,551.95"/>
				<path class="st6" d="M999.2,565.85c0.01,0.01-0.06,0.12-0.2,0.33c-0.16,0.2-0.42,0.48-0.85,0.73c-0.42,0.25-0.99,0.48-1.69,0.56
					c-0.7,0.08-1.52,0-2.33-0.4c-0.4-0.21-0.79-0.49-1.11-0.86c-0.32-0.37-0.57-0.82-0.79-1.28c-0.44-0.92-0.72-1.98-1.36-2.84
					c-0.63-0.87-1.7-1.37-2.88-1.54c-1.18-0.19-2.45-0.13-3.76-0.16c-1.32-0.03-2.61-0.21-3.82-0.53c-1.21-0.33-2.32-0.79-3.34-1.32
					c-2.02-1.08-3.62-2.43-4.75-3.73c-1.13-1.3-1.86-2.51-2.26-3.39c-0.23-0.42-0.33-0.79-0.43-1.02c-0.09-0.24-0.12-0.36-0.11-0.37
					c0.12-0.07,0.77,2.03,3.07,4.53c1.14,1.25,2.72,2.53,4.7,3.55c1,0.49,2.08,0.93,3.25,1.25c1.17,0.3,2.41,0.47,3.7,0.51
					c1.29,0.02,2.58-0.03,3.83,0.17c1.24,0.18,2.48,0.76,3.18,1.76c0.71,0.98,0.96,2.06,1.37,2.95c0.2,0.45,0.42,0.86,0.7,1.2
					c0.28,0.34,0.62,0.6,0.97,0.79c1.48,0.76,2.96,0.41,3.75,0C998.88,566.3,999.15,565.8,999.2,565.85"/>
				<path class="st6" d="M996.88,571.9c0.02,0.02-0.18,0.26-0.62,0.61c-0.44,0.34-1.15,0.77-2.12,1.06
					c-0.96,0.29-2.21,0.43-3.53,0.12c-1.31-0.29-2.69-1.01-3.74-2.17c-1.05-1.17-1.64-2.52-2.26-3.65c-0.6-1.15-1.26-2.09-1.98-2.73
					c-0.71-0.64-1.43-0.98-1.95-1.11c-0.52-0.13-0.83-0.12-0.83-0.17c0-0.03,0.31-0.11,0.87-0.03c0.56,0.07,1.36,0.38,2.15,1.03
					c0.79,0.63,1.54,1.62,2.16,2.78c0.65,1.14,1.25,2.45,2.22,3.53c0.98,1.07,2.25,1.76,3.47,2.05c1.23,0.31,2.4,0.22,3.33-0.01
					C995.92,572.73,996.83,571.81,996.88,571.9"/>
				<path class="st6" d="M1036.3,554.46c0.01,0-0.02,0.2-0.14,0.57c-0.13,0.36-0.4,0.88-0.9,1.43c-0.5,0.54-1.26,1.08-2.26,1.43
					c-0.99,0.35-2.24,0.48-3.54,0.14c-2.62-0.64-5.09-3.01-6.6-6.12c-1.6-3.07-2.47-6.83-4.78-9.99c-1.14-1.57-2.68-2.75-4.38-3.42
					c-1.7-0.66-3.49-0.88-5.16-0.75c-3.39,0.23-6.15,1.86-8.04,3.56c-1.91,1.71-3.07,3.49-3.79,4.73c-0.72,1.25-1.04,1.99-1.08,1.97
					c-0.02-0.01,0.05-0.2,0.19-0.55c0.14-0.36,0.37-0.87,0.71-1.52c0.68-1.28,1.8-3.11,3.72-4.9c1.89-1.77,4.73-3.5,8.25-3.77
					c1.74-0.15,3.61,0.07,5.39,0.76c1.78,0.69,3.42,1.95,4.6,3.58c2.4,3.29,3.24,7.08,4.79,10.08c1.45,3.05,3.8,5.33,6.27,5.98
					c1.22,0.35,2.4,0.24,3.35-0.06c0.96-0.31,1.71-0.79,2.21-1.29C1036.13,555.3,1036.23,554.43,1036.3,554.46"/>
				<path class="st6" d="M1035.92,561.49c0.01,0.01-0.11,0.16-0.37,0.43c-0.27,0.26-0.66,0.64-1.22,1.05
					c-0.57,0.41-1.3,0.89-2.24,1.25c-0.93,0.37-2.09,0.63-3.37,0.51c-2.55-0.29-5.37-1.91-7.37-4.62c-1.01-1.35-1.75-2.97-2.34-4.67
					c-0.6-1.71-1.07-3.51-1.7-5.28c-0.65-1.77-1.45-3.44-2.59-4.78c-1.11-1.36-2.6-2.27-4.15-2.69c-3.14-0.85-6.17-0.04-8.34,1.07
					c-2.2,1.12-3.74,2.46-4.78,3.38c-0.48,0.44-0.87,0.8-1.18,1.08c-0.27,0.25-0.42,0.38-0.43,0.36c-0.01-0.01,0.11-0.16,0.35-0.44
					c0.25-0.27,0.62-0.67,1.12-1.16c1.01-0.96,2.52-2.36,4.75-3.55c2.19-1.18,5.32-2.07,8.63-1.2c1.63,0.43,3.24,1.4,4.41,2.83
					c1.2,1.4,2.03,3.13,2.69,4.93c0.65,1.81,1.12,3.61,1.7,5.29c0.58,1.68,1.28,3.25,2.25,4.56c1.9,2.62,4.62,4.22,7.02,4.54
					c1.21,0.14,2.32-0.09,3.23-0.41c0.92-0.33,1.65-0.77,2.23-1.15C1035.36,562.03,1035.89,561.45,1035.92,561.49"/>
				<path class="st10" d="M927.99,710.32l1.68,4.23l-3.32,38.48h84.95l-3.79-11.5l10.56,0.53c16.29,0.83,29.6-13.73,26.43-29.73
					c-0.09-0.48-0.2-0.96-0.33-1.44c-5.27-20.59-12.44-48.27-14.94-56.44c-4.13-13.51-13.32-19.93-13.32-19.93
					c-0.05-0.01-0.1-0.01-0.15-0.01c-12.71-10.37-30.02-11.29-30.02-11.29l-6.37,4.27c-6.48,4.34-14.63,4.91-21.53,1.78
					c-2.54-1.16-4.46-3.37-5.25-6.05c-7.68,0.93-15.25,2.7-21.67,5.62c-7.95,3.62-13.97,10.48-16.8,18.75l-22.18,65.03l-37.78-5.11
					l-8.08,22.06l38.28,9.12c14.15,4.21,29.32-2.06,36.37-15.03L927.99,710.32 M998.65,715.51L998.65,715.51
					c0,0,3.63-13.91,5.84-21.4l5.36,21.05L998.65,715.51z"/>
				<path class="st8" d="M1027.53,742.27c0,0-0.15,0.01-0.43,0.02c-0.3,0-0.73,0.01-1.28,0.02c-1.15,0.01-2.82,0.02-4.98,0.04
					c-4.37,0.02-10.71,0.04-18.71,0.07c-16.03,0.02-38.65,0.06-65.11,0.09h-0.26l0.01-0.25c0.34-7.93,0.69-16.26,1.05-24.87
					l0.01-0.24l0.24-0.01c7.79-0.24,15.91-0.5,24.19-0.76c16.79-0.52,32.88-1.02,47.58-1.47l-0.23,0.31
					c-1.78-6.49-3.23-12.81-4.63-18.85c-1.36-6.04-2.65-11.8-3.87-17.24c-0.6-2.72-1.18-5.36-1.74-7.92
					c-0.55-2.55-1.17-5.02-1.36-7.47c-0.22-2.44-0.18-4.8,0.03-7.03c0.21-2.23,0.56-4.37,1.16-6.33c1.17-3.93,3.23-7.14,5.66-9.24
					c2.42-2.14,5.13-3.07,7.31-3.41c2.21-0.33,3.95-0.03,5.05,0.28c0.55,0.17,0.96,0.32,1.23,0.45c0.27,0.12,0.4,0.19,0.4,0.19
					c-0.01,0.03-0.54-0.25-1.65-0.56c-1.1-0.29-2.82-0.55-5-0.2c-2.15,0.35-4.81,1.3-7.18,3.42c-2.38,2.09-4.4,5.26-5.53,9.15
					c-0.58,1.94-0.91,4.05-1.11,6.28c-0.2,2.22-0.23,4.56,0,6.97c0.19,2.42,0.82,4.86,1.38,7.42c0.57,2.55,1.16,5.19,1.76,7.91
					c1.24,5.44,2.54,11.19,3.91,17.23c1.42,6.03,2.87,12.34,4.66,18.81l0.08,0.3l-0.31,0.01c-14.69,0.46-30.79,0.97-47.58,1.51
					c-8.29,0.26-16.41,0.51-24.19,0.75l0.25-0.24c-0.37,8.6-0.73,16.93-1.08,24.86l-0.24-0.25c26.46,0.04,49.08,0.07,65.11,0.09
					c7.99,0.03,14.34,0.05,18.71,0.07c2.16,0.02,3.83,0.03,4.98,0.04c0.55,0.01,0.98,0.02,1.28,0.02
					C1027.39,742.26,1027.53,742.27,1027.53,742.27"/>
				<path class="st8" d="M932.7,653.74c0.02,0,0.03,0.21,0.04,0.62c-0.01,0.41,0.05,1.01-0.01,1.79c-0.07,1.55-0.4,3.79-1.16,6.47
					c-0.74,2.68-1.95,5.77-3.32,9.15c-1.34,3.39-2.87,7.13-3.65,11.26c-0.83,4.12-0.6,8.17-0.06,11.76c0.58,3.6,1.47,6.77,2.3,9.4
					c0.84,2.63,1.59,4.74,2.1,6.2c0.24,0.69,0.43,1.25,0.58,1.68c0.13,0.39,0.19,0.59,0.17,0.6c-0.02,0.01-0.11-0.19-0.27-0.56
					c-0.17-0.43-0.4-0.97-0.67-1.65c-0.57-1.44-1.38-3.53-2.27-6.16c-0.88-2.63-1.81-5.81-2.42-9.44
					c-0.57-3.62-0.82-7.74,0.03-11.93c0.8-4.19,2.35-7.95,3.72-11.34c1.4-3.38,2.62-6.43,3.41-9.08c0.79-2.64,1.18-4.84,1.31-6.38
					C932.65,654.6,932.65,653.74,932.7,653.74"/>
				<path class="st8" d="M1009.85,715.16c-0.01-0.06,0.66-0.25,1.77-0.23c1.11,0.01,2.66,0.25,4.22,0.97
					c1.56,0.71,2.75,1.79,3.35,2.75c0.61,0.95,0.7,1.67,0.65,1.67c-0.09,0.03-0.3-0.62-0.95-1.46c-0.64-0.85-1.78-1.81-3.27-2.49
					c-1.48-0.68-2.95-0.97-4.02-1.08C1010.54,715.19,1009.86,715.25,1009.85,715.16"/>
				<path class="st8" d="M1002.37,626.99c0.01-0.03,0.58,0.18,1.59,0.6c0.5,0.21,1.13,0.46,1.84,0.78c0.71,0.35,1.51,0.73,2.38,1.15
					c0.88,0.43,1.8,0.98,2.82,1.53c1,0.57,2.03,1.25,3.12,1.95c2.14,1.47,4.4,3.22,6.55,5.32c4.29,4.22,7.04,9.07,8.26,12.8
					c0.31,0.93,0.59,1.77,0.76,2.54c0.18,0.76,0.35,1.41,0.42,1.95c0.17,1.08,0.25,1.68,0.22,1.69c-0.04,0.01-0.18-0.58-0.41-1.65
					c-0.1-0.54-0.29-1.17-0.5-1.92c-0.18-0.75-0.49-1.58-0.82-2.49c-1.3-3.65-4.05-8.39-8.28-12.56c-2.12-2.07-4.35-3.81-6.46-5.29
					c-1.08-0.7-2.09-1.39-3.08-1.97c-1-0.56-1.9-1.13-2.77-1.58c-0.85-0.44-1.63-0.85-2.33-1.22c-0.68-0.33-1.27-0.61-1.79-0.86
					C1002.89,627.3,1002.36,627.02,1002.37,626.99"/>
				<g class="st11">
					<g>
						<defs>
							<rect id="SVGID_11_" x="990.75" y="668.88" width="13.86" height="46.63"/>
						</defs>
						<clipPath id="SVGID_12_">
							<use xlink:href="#SVGID_11_"  style="overflow:visible;"/>
						</clipPath>
						<path class="st12" d="M999.06,668.88c0,0-8.44,37.27-8.31,40.91c0.13,3.65,0.86,5.66,0.86,5.66l7.04,0.06l0.05-0.69
							l5.91-21.09L999.06,668.88z"/>
					</g>
				</g>
				<path class="st13" d="M952.68,667.01c0.03,0.05-0.9,0.41-2.32,1.46c-1.37,1.06-3.27,2.93-4.33,5.9
					c-0.52,1.47-0.83,3.18-0.69,5.01c0.12,1.82,0.61,3.77,1.68,5.53c1.03,1.77,2.56,3.38,4.5,4.5c0.96,0.57,2.01,1.02,3.13,1.29
					c1.11,0.32,2.29,0.42,3.47,0.41c1.19-0.01,2.34-0.25,3.45-0.56c1.09-0.37,2.13-0.84,3.07-1.46c1.86-1.23,3.34-2.89,4.28-4.72
					c0.94-1.83,1.39-3.78,1.41-5.61c0.02-1.83-0.35-3.54-0.95-4.97c-1.21-2.91-3.18-4.69-4.61-5.67c-1.46-0.98-2.41-1.29-2.38-1.34
					c0.01-0.02,0.24,0.06,0.68,0.23c0.43,0.17,1.06,0.47,1.82,0.94c1.48,0.95,3.55,2.72,4.84,5.7c0.64,1.47,1.04,3.23,1.04,5.12
					c-0.01,1.89-0.45,3.92-1.42,5.83c-0.96,1.9-2.49,3.64-4.42,4.93c-0.97,0.64-2.05,1.14-3.19,1.52c-1.15,0.33-2.36,0.58-3.59,0.59
					c-1.23,0.02-2.46-0.09-3.61-0.42c-1.17-0.29-2.26-0.76-3.26-1.35c-2.01-1.17-3.6-2.85-4.66-4.7c-1.09-1.84-1.59-3.87-1.69-5.75
					c-0.12-1.89,0.22-3.66,0.78-5.16c1.13-3.04,3.12-4.91,4.55-5.93c0.74-0.5,1.35-0.84,1.77-1.03
					C952.45,667.09,952.67,666.99,952.68,667.01"/>
				<path class="st13" d="M957.82,664.73c0.14,0,0.26,4.11,0.26,9.18c0,5.07-0.12,9.18-0.26,9.18s-0.26-4.11-0.26-9.18
					C957.56,668.84,957.68,664.73,957.82,664.73"/>
				<path class="st7" d="M925.59,716.86l-5.5-2.24c0,0-6.39-10.84-7.7-10.32c-1.31,0.52-1.51,3.83,1.1,8.83l-7.23-1.64
					c0,0-15.03,7.99-14.29,8.91c0.74,0.92,2.13,3.13,5.39,1.22c3.26-1.91,7.55-4.17,7.55-4.17l8.45,1.91l-10.64,1.96l-9.57,9.73
					c0,0,3.45,2.29,6.16-0.5l26.5,4.17l11.22,0.01l0.6-14.83L925.59,716.86z"/>
				<path class="st9" d="M899.3,730.57c0.11,0.07,0.56-0.73,1.45-1.82c0.45-0.53,1.06-1.09,1.82-1.58c0.74-0.47,1.72-0.71,2.79-0.9
					c4.33-0.76,7.82-1.56,7.78-1.78c-0.04-0.22-3.58,0.21-7.93,0.97c-1.09,0.19-2.19,0.47-3.06,1.07c-0.82,0.57-1.45,1.24-1.87,1.86
					C899.46,729.65,899.22,730.52,899.3,730.57"/>
				<path class="st9" d="M903.45,731.39c0.1-0.01,0.15-0.55,0.88-0.75c0.74-0.18,1.93-0.39,3.16-0.58c2.5-0.4,4.57-0.49,4.58-0.72
					c0.02-0.22-2.11-0.49-4.7-0.09c-1.3,0.21-2.41,0.49-3.26,0.86c-0.44,0.21-0.71,0.59-0.75,0.87
					C903.3,731.26,903.41,731.4,903.45,731.39"/>
				<path class="st9" d="M924.85,716.57c-0.03,0.07-1.02-0.26-2.65-0.75c-1.62-0.49-3.87-1.12-6.38-1.76
					c-2.42-0.61-4.61-1.16-6.43-1.62c-1.64-0.43-2.65-0.74-2.63-0.81c0.02-0.07,1.05,0.11,2.72,0.45c1.66,0.34,3.96,0.83,6.47,1.47
					c2.52,0.64,4.77,1.32,6.37,1.91C923.93,716.05,924.88,716.5,924.85,716.57"/>
			</g>
			<g class="st1">
				<defs>
					<rect id="SVGID_13_" x="656.78" y="306.89" width="500" height="500"/>
				</defs>
				<clipPath id="SVGID_14_">
					<use xlink:href="#SVGID_13_"  style="overflow:visible;"/>
				</clipPath>
				<path class="st14" d="M1017.08,437.63c-0.02-0.02-0.03-0.39-0.05-1.09c-0.01-0.75-0.03-1.74-0.06-2.96
					c-0.03-2.58-0.07-6.15-0.12-10.41l0.23,0.22c-4.22,0.01-9.17,0.02-14.46,0.04c-0.06,0.06,0.49-0.49,0.26-0.26v0v0.01v0.02v0.03
					v0.06v0.12v0.25l0,0.49v0.98c0,0.65,0,1.3,0,1.93c0,1.28-0.01,2.52-0.01,3.74c-0.01,2.43-0.02,4.71-0.03,6.82l-0.23-0.22
					c4.26,0.05,7.83,0.09,10.41,0.11c1.22,0.02,2.21,0.04,2.96,0.06C1016.69,437.6,1017.07,437.62,1017.08,437.63
					c0.02,0.02-0.33,0.03-0.99,0.05c-0.74,0.01-1.71,0.03-2.91,0.06c-2.62,0.03-6.24,0.07-10.56,0.11l-0.22,0v-0.23
					c-0.01-2.11-0.02-4.4-0.03-6.82c0-1.21-0.01-2.46-0.01-3.74c0-0.64,0-1.28,0-1.93l0-0.98v-0.49v-0.25v-0.12v-0.06v-0.03v-0.02
					v-0.01v0c-0.23,0.23,0.32-0.32,0.26-0.26c5.29,0.01,10.24,0.02,14.46,0.04l0.23,0l0,0.23c-0.05,4.32-0.09,7.94-0.11,10.56
					c-0.02,1.2-0.04,2.18-0.06,2.91C1017.12,437.3,1017.1,437.65,1017.08,437.63"/>
				<path class="st14" d="M1017.08,423.32c0.1,0.1-3.05,3.41-7.03,7.38c-3.98,3.97-7.3,7.11-7.4,7.01c-0.1-0.1,3.05-3.4,7.03-7.38
					C1013.67,426.35,1016.98,423.21,1017.08,423.32"/>
				<path class="st14" d="M1016.85,437.54c-0.1,0.1-3.34-3-7.24-6.93c-3.9-3.93-6.97-7.2-6.87-7.3c0.1-0.1,3.34,3,7.24,6.93
					C1013.88,434.18,1016.96,437.44,1016.85,437.54"/>
				<path class="st14" d="M1102.7,521.78c-0.02-0.03,0.25-0.34,0.77-0.88c0.61-0.61,1.36-1.36,2.24-2.25
					c1.91-1.88,4.57-4.45,7.54-7.27l0.07-0.06l0,0.38c-2.99-2.76-5.67-5.28-7.59-7.13c-0.89-0.87-1.64-1.6-2.26-2.2
					c-0.53-0.53-0.8-0.83-0.78-0.86c0.02-0.03,0.35,0.23,0.92,0.71c0.64,0.56,1.44,1.26,2.37,2.08c1.99,1.77,4.71,4.25,7.69,7.01
					l0.2,0.19l-0.2,0.19l-0.07,0.07c-2.96,2.82-5.67,5.34-7.64,7.16c-0.93,0.84-1.72,1.55-2.36,2.13
					C1103.05,521.54,1102.73,521.8,1102.7,521.78"/>
				<path class="st14" d="M1079.65,501.52c0.02,0.03-0.25,0.34-0.77,0.88c-0.61,0.61-1.36,1.36-2.24,2.25
					c-1.91,1.88-4.57,4.45-7.54,7.27l-0.07,0.06l0-0.38c2.99,2.76,5.67,5.28,7.59,7.12c0.89,0.87,1.65,1.6,2.26,2.2
					c0.53,0.53,0.8,0.83,0.78,0.86c-0.02,0.03-0.35-0.23-0.92-0.71c-0.64-0.56-1.44-1.26-2.37-2.08c-1.98-1.77-4.71-4.25-7.69-7.01
					l-0.21-0.19l0.2-0.19l0.07-0.06c2.96-2.82,5.67-5.34,7.64-7.16c0.93-0.84,1.72-1.55,2.36-2.13
					C1079.3,501.76,1079.63,501.5,1079.65,501.52"/>
				<path class="st14" d="M1085.57,526.55c-0.14-0.05,2.28-6.83,5.4-15.13c3.12-8.31,5.76-15,5.89-14.95
					c0.14,0.05-2.29,6.83-5.41,15.13C1088.34,519.91,1085.7,526.6,1085.57,526.55"/>
				<path class="st14" d="M1128.9,541.05c0,0-0.02-0.39-0.02-1.13c-0.01-0.75-0.01-1.84-0.03-3.26c-0.01-2.86-0.03-7.03-0.06-12.34
					c-0.03-10.63-0.07-25.81-0.11-44.12l0.22,0.22c-21.45,0.01-47.25,0.03-74.98,0.04h-0.01l0.26-0.26
					c-0.01,22-0.02,42.78-0.03,60.86l-0.23-0.23c22.26,0.05,40.98,0.09,54.15,0.12c6.58,0.03,11.78,0.05,15.35,0.06
					c1.77,0.01,3.13,0.02,4.07,0.03c0.45,0.01,0.8,0.01,1.05,0.01C1128.77,541.04,1128.9,541.05,1128.9,541.05s-0.11,0.01-0.34,0.01
					c-0.25,0-0.59,0.01-1.03,0.01c-0.93,0.01-2.28,0.02-4.03,0.03c-3.56,0.01-8.73,0.03-15.29,0.06
					c-13.21,0.03-31.97,0.07-54.3,0.12l-0.23,0l0-0.23c-0.01-18.08-0.02-38.86-0.03-60.86v-0.26h0.26h0.01
					c27.74,0.02,53.53,0.03,74.98,0.04h0.22l0,0.22c-0.05,18.37-0.08,33.6-0.11,44.26c-0.02,5.29-0.04,9.44-0.05,12.3
					c-0.01,1.4-0.02,2.47-0.03,3.22C1128.92,540.68,1128.9,541.05,1128.9,541.05"/>
				<path class="st14" d="M1129.49,489.22c0,0.14-16.93,0.26-37.8,0.26c-20.88,0-37.81-0.12-37.81-0.26
					c0-0.14,16.92-0.26,37.81-0.26C1112.56,488.95,1129.49,489.07,1129.49,489.22"/>
				<path class="st14" d="M1060.03,484.77c0,0.56-0.45,1.01-1.01,1.01c-0.56,0-1.01-0.45-1.01-1.01c0-0.56,0.45-1.01,1.01-1.01
					C1059.58,483.76,1060.03,484.22,1060.03,484.77"/>
				<path class="st14" d="M1063.71,484.77c0,0.56-0.45,1.01-1.01,1.01c-0.56,0-1.01-0.45-1.01-1.01c0-0.56,0.45-1.01,1.01-1.01
					C1063.26,483.76,1063.71,484.22,1063.71,484.77"/>
				<path class="st14" d="M1067.39,484.77c0,0.56-0.45,1.01-1.01,1.01c-0.56,0-1.01-0.45-1.01-1.01c0-0.56,0.45-1.01,1.01-1.01
					C1066.94,483.76,1067.39,484.22,1067.39,484.77"/>
				<rect x="917.12" y="388.2" class="st15" width="59.25" height="42.24"/>
				<path class="st16" d="M976.84,394.47c0,0.14-13.38,0.26-29.87,0.26c-16.5,0-29.87-0.12-29.87-0.26c0-0.14,13.37-0.26,29.87-0.26
					C963.46,394.21,976.84,394.32,976.84,394.47"/>
				<path class="st16" d="M921.96,391.38c0,0.39-0.36,0.7-0.8,0.7c-0.44,0-0.8-0.31-0.8-0.7c0-0.39,0.36-0.7,0.8-0.7
					C921.6,390.68,921.96,391,921.96,391.38"/>
				<path class="st16" d="M924.86,391.38c0,0.39-0.36,0.7-0.8,0.7c-0.44,0-0.8-0.31-0.8-0.7c0-0.39,0.36-0.7,0.8-0.7
					C924.51,390.68,924.86,391,924.86,391.38"/>
				<path class="st16" d="M927.77,391.38c0,0.39-0.36,0.7-0.8,0.7c-0.44,0-0.8-0.31-0.8-0.7c0-0.39,0.36-0.7,0.8-0.7
					C927.41,390.68,927.77,391,927.77,391.38"/>
				<path class="st16" d="M939.03,411.31c0,2.54-1.84,4.07-4.86,4.07h-3.2v3.76h-1.26v-11.91h4.46
					C937.2,407.23,939.03,408.76,939.03,411.31 M937.78,411.31c0-1.91-1.26-2.99-3.64-2.99h-3.16v5.96h3.16
					C936.52,414.27,937.78,413.18,937.78,411.31"/>
				<polygon class="st16" points="951.71,407.23 951.71,419.14 950.46,419.14 950.46,413.64 943.01,413.64 943.01,419.14 
					941.75,419.14 941.75,407.23 943.01,407.23 943.01,412.54 950.46,412.54 950.46,407.23 				"/>
				<path class="st16" d="M964.9,411.31c0,2.54-1.84,4.07-4.86,4.07h-3.2v3.76h-1.26v-11.91h4.46
					C963.07,407.23,964.9,408.76,964.9,411.31 M963.64,411.31c0-1.91-1.26-2.99-3.64-2.99h-3.16v5.96H960
					C962.38,414.27,963.64,413.18,963.64,411.31"/>
				<path class="st17" d="M856.82,478.86l0.78-0.86c0.96,1.44,2.32,2.22,3.91,2.22c2.35,0,3.51-1.34,3.51-4.17v-11.31h-6.52v-1.16
					h7.8v12.48c0,3.56-1.64,5.33-4.8,5.33C859.6,481.39,857.83,480.45,856.82,478.86"/>
				<path class="st17" d="M869.97,479.67l0.58-1.01c1.01,0.86,2.8,1.59,4.75,1.59c2.78,0,3.89-0.99,3.89-2.48
					c0-3.84-8.74-1.01-8.74-6.19c0-1.99,1.67-3.61,5-3.61c1.67,0,3.49,0.5,4.52,1.29l-0.58,1.01c-1.11-0.81-2.55-1.19-3.96-1.19
					c-2.58,0-3.71,1.06-3.71,2.48c0,3.96,8.74,1.16,8.74,6.19c0,2.15-1.84,3.61-5.2,3.61C873.08,481.36,871.01,480.63,869.97,479.67
					"/>
				<path class="st17" d="M891.98,490.65c0,0-0.02-0.28-0.03-0.8c-0.01-0.54-0.01-1.31-0.02-2.29c-0.01-2.02-0.03-4.95-0.06-8.66
					c-0.03-7.45-0.07-18.06-0.11-30.8l0.22,0.22c-13.25,0.01-29.01,0.02-45.87,0.04c-0.06,0.05,0.49-0.49,0.26-0.25v0.01v0.02v0.05
					v0.09v0.18v0.36v0.72v1.45c0,0.96,0,1.92,0,2.88c0,1.91,0,3.8,0,5.67c0,3.74-0.01,7.41-0.01,10.98
					c-0.01,7.14-0.02,13.9-0.02,20.13l-0.23-0.23c13.67,0.05,25.11,0.09,33.16,0.12c4.01,0.03,7.17,0.05,9.36,0.06
					c1.07,0.01,1.9,0.02,2.48,0.03c0.27,0,0.48,0.01,0.64,0.01C891.9,490.64,891.98,490.64,891.98,490.65c0,0-0.06,0.01-0.2,0.01
					c-0.16,0-0.36,0.01-0.62,0.01c-0.58,0.01-1.39,0.02-2.44,0.03c-2.18,0.01-5.32,0.03-9.31,0.06c-8.08,0.03-19.57,0.07-33.3,0.12
					l-0.23,0l0-0.23c-0.01-6.23-0.02-12.99-0.02-20.13c0-3.57,0-7.24-0.01-10.98c0-1.87,0-3.76,0-5.67c0-0.95,0-1.91,0-2.88v-1.45
					v-0.72v-0.36v-0.18v-0.09v-0.05v-0.02v-0.01c-0.23,0.23,0.32-0.33,0.27-0.27c16.86,0.01,32.61,0.03,45.87,0.04h0.22v0.22
					c-0.05,12.81-0.09,23.46-0.12,30.94c-0.02,3.69-0.04,6.6-0.06,8.61c-0.01,0.97-0.02,1.72-0.03,2.25
					C892,490.4,891.98,490.65,891.98,490.65"/>
				<path class="st17" d="M891.88,454.4c0,0.14-10.25,0.26-22.9,0.26c-12.65,0-22.9-0.12-22.9-0.26c0-0.14,10.25-0.26,22.9-0.26
					C881.63,454.14,891.88,454.26,891.88,454.4"/>
				<path class="st17" d="M850.98,451.3c0,0.39-0.36,0.71-0.8,0.71c-0.44,0-0.8-0.32-0.8-0.71c0-0.39,0.36-0.71,0.8-0.71
					C850.62,450.59,850.98,450.91,850.98,451.3"/>
				<path class="st17" d="M853.91,451.3c0,0.39-0.36,0.71-0.8,0.71c-0.44,0-0.8-0.32-0.8-0.71c0-0.39,0.36-0.71,0.8-0.71
					C853.55,450.59,853.91,450.91,853.91,451.3"/>
				<path class="st17" d="M856.84,451.3c0,0.39-0.36,0.71-0.8,0.71c-0.44,0-0.8-0.32-0.8-0.71c0-0.39,0.36-0.71,0.8-0.71
					C856.48,450.59,856.84,450.91,856.84,451.3"/>
				<path class="st17" d="M1059.25,408.46c0-4.31,3.28-7.5,7.67-7.5c2.09,0,3.97,0.68,5.26,2.05l-0.68,0.7
					c-1.27-1.25-2.81-1.75-4.54-1.75c-3.78,0-6.64,2.79-6.64,6.51c0,3.72,2.85,6.51,6.64,6.51c1.73,0,3.27-0.53,4.54-1.77l0.68,0.7
					c-1.29,1.37-3.17,2.07-5.26,2.07C1062.53,415.97,1059.25,412.77,1059.25,408.46"/>
				<path class="st17" d="M1074.21,413.96l0.48-0.8c1.02,1.06,2.9,1.86,4.88,1.86c2.96,0,4.27-1.29,4.27-2.9
					c0-4.44-9.24-1.77-9.24-7.23c0-2.09,1.61-3.93,5.24-3.93c1.63,0,3.32,0.51,4.46,1.33l-0.4,0.87c-1.22-0.85-2.73-1.25-4.06-1.25
					c-2.87,0-4.16,1.33-4.16,2.96c0,4.44,9.24,1.82,9.24,7.18c0,2.09-1.67,3.91-5.33,3.91
					C1077.4,415.97,1075.29,415.14,1074.21,413.96"/>
				<path class="st17" d="M1087.08,413.96l0.48-0.8c1.02,1.06,2.9,1.86,4.88,1.86c2.96,0,4.27-1.29,4.27-2.9
					c0-4.44-9.24-1.77-9.24-7.23c0-2.09,1.61-3.93,5.24-3.93c1.63,0,3.32,0.51,4.46,1.33l-0.4,0.87c-1.23-0.85-2.73-1.25-4.06-1.25
					c-2.87,0-4.16,1.33-4.16,2.96c0,4.44,9.23,1.82,9.23,7.18c0,2.09-1.67,3.91-5.32,3.91
					C1090.27,415.97,1088.16,415.14,1087.08,413.96"/>
				<path class="st17" d="M1110.39,427.7c0,0-0.02-0.27-0.02-0.78c-0.01-0.53-0.01-1.28-0.02-2.25c-0.01-1.99-0.03-4.87-0.05-8.56
					c-0.03-7.39-0.06-18.01-0.11-30.96l0.21,0.21c-18.04,0.02-40.98,0.03-65.89,0.05h-0.01l0.26-0.26
					c-0.01,15.11-0.01,29.5-0.02,42.56l-0.24-0.24c19.33,0.05,35.77,0.09,47.4,0.12c5.81,0.03,10.42,0.05,13.59,0.07
					c1.57,0.01,2.78,0.02,3.63,0.03c0.4,0.01,0.71,0.01,0.94,0.01C1110.27,427.69,1110.38,427.69,1110.39,427.7
					c0,0.01-0.1,0.01-0.3,0.01c-0.22,0-0.52,0.01-0.91,0.01c-0.83,0.01-2.03,0.02-3.58,0.03c-3.16,0.02-7.75,0.04-13.54,0.06
					c-11.67,0.03-28.16,0.07-47.56,0.12h-0.24v-0.24c-0.01-13.05-0.01-27.44-0.02-42.56v-0.26h0.26h0.01
					c24.91,0.02,47.85,0.04,65.89,0.05h0.21l0,0.21c-0.05,13.01-0.08,23.66-0.11,31.09c-0.02,3.67-0.04,6.54-0.05,8.51
					c-0.01,0.95-0.02,1.69-0.02,2.21C1110.4,427.45,1110.39,427.7,1110.39,427.7"/>
				<path class="st17" d="M1110.39,391.46c0,0.14-14.76,0.26-32.96,0.26c-18.21,0-32.96-0.12-32.96-0.26
					c0-0.14,14.76-0.26,32.96-0.26C1095.63,391.19,1110.39,391.31,1110.39,391.46"/>
				<path class="st17" d="M1049.37,388.35c0,0.39-0.36,0.71-0.8,0.71c-0.44,0-0.8-0.32-0.8-0.71c0-0.39,0.36-0.71,0.8-0.71
					C1049.01,387.64,1049.37,387.96,1049.37,388.35"/>
				<path class="st17" d="M1052.3,388.35c0,0.39-0.36,0.71-0.8,0.71c-0.44,0-0.8-0.32-0.8-0.71c0-0.39,0.36-0.71,0.8-0.71
					C1051.94,387.64,1052.3,387.96,1052.3,388.35"/>
				<path class="st17" d="M1055.23,388.35c0,0.39-0.36,0.71-0.8,0.71s-0.8-0.32-0.8-0.71c0-0.39,0.36-0.71,0.8-0.71
					S1055.23,387.96,1055.23,388.35"/>
				<rect x="942.68" y="449.74" class="st17" width="82.74" height="58.98"/>
				<polygon class="st16" points="970.59,477.13 970.59,488.84 967.88,488.84 967.88,484.04 962.56,484.04 962.56,488.84 
					959.85,488.84 959.85,477.13 962.56,477.13 962.56,481.75 967.88,481.75 967.88,477.13 				"/>
				<polygon class="st16" points="975.79,479.34 972.04,479.34 972.04,477.13 982.24,477.13 982.24,479.34 978.5,479.34 
					978.5,488.84 975.79,488.84 				"/>
				<polygon class="st16" points="983.7,477.13 986.41,477.13 986.41,486.63 992.28,486.63 992.28,488.84 983.7,488.84 				"/>
				<polygon class="st16" points="1004.45,488.84 1004.44,481.82 1000.99,487.6 999.77,487.6 996.34,481.97 996.34,488.84 
					993.8,488.84 993.8,477.13 996.04,477.13 1000.42,484.41 1004.74,477.13 1006.96,477.13 1007,488.84 				"/>
				<path class="st16" d="M1026.07,458.5c0,0.14-18.68,0.26-41.71,0.26c-23.04,0-41.72-0.12-41.72-0.26
					c0-0.14,18.67-0.26,41.72-0.26C1007.4,458.24,1026.07,458.35,1026.07,458.5"/>
				<path class="st16" d="M949.43,454.19c0,0.54-0.5,0.98-1.11,0.98c-0.61,0-1.11-0.44-1.11-0.98c0-0.54,0.5-0.98,1.11-0.98
					C948.93,453.21,949.43,453.65,949.43,454.19"/>
				<path class="st16" d="M953.49,454.19c0,0.54-0.5,0.98-1.11,0.98s-1.11-0.44-1.11-0.98c0-0.54,0.5-0.98,1.11-0.98
					S953.49,453.65,953.49,454.19"/>
				<path class="st16" d="M957.55,454.19c0,0.54-0.5,0.98-1.11,0.98s-1.11-0.44-1.11-0.98c0-0.54,0.5-0.98,1.11-0.98
					S957.55,453.65,957.55,454.19"/>
				<path class="st14" d="M772.15,565.88c0-0.01-0.01-0.07-0.01-0.2c0-0.15-0.01-0.33-0.01-0.55c-0.01-0.51-0.02-1.23-0.03-2.14
					c-0.01-1.89-0.03-4.61-0.06-8.06c-0.03-6.93-0.07-16.79-0.12-28.6l0.23,0.23c-11.5,0.01-25.07,0.02-39.55,0.03
					c-0.06,0.06,0.49-0.49,0.26-0.25v0.01v0.02v0.04v0.09v0.17V527v0.68v1.35c0,0.9,0,1.79,0,2.68c0,1.78,0,3.54,0,5.29
					c0,3.49-0.01,6.9-0.01,10.22c-0.01,6.64-0.02,12.91-0.03,18.66l-0.23-0.23c11.81,0.05,21.67,0.09,28.6,0.12
					c3.45,0.02,6.17,0.04,8.06,0.06c0.91,0.01,1.63,0.02,2.14,0.03c0.23,0,0.41,0.01,0.56,0.01
					C772.08,565.87,772.14,565.87,772.15,565.88c0,0-0.05,0.01-0.17,0.01c-0.14,0-0.31,0.01-0.53,0.01c-0.5,0.01-1.2,0.01-2.09,0.03
					c-1.88,0.01-4.58,0.03-8.01,0.06c-6.97,0.03-16.87,0.07-28.74,0.11l-0.22,0l0-0.23c-0.01-5.75-0.02-12.02-0.03-18.66
					c0-3.32,0-6.73-0.01-10.22c0-1.74,0-3.51,0-5.29c0-0.89,0-1.79,0-2.68v-1.35V527v-0.34v-0.17v-0.09v-0.04v-0.02v-0.01
					c-0.23,0.23,0.32-0.33,0.26-0.27c14.48,0.01,28.05,0.03,39.55,0.04h0.23l0,0.22c-0.05,11.87-0.09,21.78-0.11,28.74
					c-0.02,3.43-0.04,6.13-0.06,8.01c-0.01,0.9-0.02,1.59-0.03,2.1c0,0.22-0.01,0.39-0.01,0.53
					C772.15,565.83,772.15,565.88,772.15,565.88"/>
				<path class="st14" d="M772.15,526.73c0.1,0.1-8.65,8.99-19.54,19.85c-10.9,10.86-19.81,19.59-19.91,19.48
					c-0.1-0.1,8.65-8.99,19.54-19.85C763.13,535.35,772.04,526.63,772.15,526.73"/>
				<path class="st14" d="M771.52,565.63c-0.1,0.1-8.82-8.53-19.48-19.27c-10.66-10.75-19.21-19.54-19.11-19.64
					s8.82,8.53,19.48,19.27C763.07,556.74,771.62,565.53,771.52,565.63"/>
				<path class="st14" d="M854.59,536.94c0,0.14-15.71,0.26-35.09,0.26c-19.39,0-35.09-0.12-35.09-0.26s15.71-0.26,35.09-0.26
					C838.88,536.68,854.59,536.8,854.59,536.94"/>
				<path class="st14" d="M854.59,543.25c0,0.14-15.71,0.26-35.09,0.26c-19.39,0-35.09-0.12-35.09-0.26
					c0-0.14,15.71-0.26,35.09-0.26C838.88,542.99,854.59,543.1,854.59,543.25"/>
				<path class="st14" d="M854.59,549.55c0,0.14-15.71,0.26-35.09,0.26c-19.39,0-35.09-0.12-35.09-0.26s15.71-0.26,35.09-0.26
					C838.88,549.29,854.59,549.41,854.59,549.55"/>
				<path class="st14" d="M854.59,555.86c0,0.14-15.71,0.26-35.09,0.26c-19.39,0-35.09-0.12-35.09-0.26s15.71-0.26,35.09-0.26
					C838.88,555.6,854.59,555.71,854.59,555.86"/>
				<path class="st14" d="M816.15,530.63c0,0.14-7.22,0.26-16.12,0.26c-8.91,0-16.13-0.12-16.13-0.26c0-0.14,7.22-0.26,16.13-0.26
					C808.93,530.37,816.15,530.49,816.15,530.63"/>
				<path class="st14" d="M720.14,514.4c0,0,0.25-0.01,0.75-0.01c0.52,0,1.27-0.01,2.25-0.01c2,0,4.95,0,8.76-0.01
					c7.68,0.01,18.86,0.01,32.93,0.02c28.21,0.05,67.98,0.12,114.3,0.2h0.25v0.25c0,19.5,0.01,40.64,0.01,62.57v0.26h-0.26
					c-2.97,0-6.17,0-9.38,0c-1.64,0-3.27,0-4.9,0l0.26-0.26c0,4.36,0,8.68,0,12.97v0.63l-0.44-0.44
					c-4.39-4.39-8.72-8.72-12.97-12.97l0.18,0.07c-51.84-0.03-97.8-0.06-131.74-0.08h-0.18l0-0.18c0.04-19.64,0.07-35.41,0.1-46.28
					c0.02-5.41,0.03-9.6,0.04-12.44c0.01-1.41,0.01-2.48,0.02-3.21C720.13,514.76,720.14,514.4,720.14,514.4s0.01,0.38,0.02,1.12
					c0,0.74,0.01,1.83,0.02,3.24c0.01,2.86,0.02,7.06,0.04,12.48c0.02,10.85,0.05,26.58,0.1,46.17l-0.18-0.18
					c33.94-0.02,79.9-0.05,131.74-0.08l0.11,0l0.08,0.08c4.26,4.25,8.58,8.58,12.97,12.97l-0.44,0.18c0-4.29,0-8.61,0-12.97v-0.26
					h0.26h4.9h9.38l-0.26,0.26c0-21.93,0.01-43.08,0.01-62.57l0.25,0.25c-46.25-0.18-85.97-0.33-114.13-0.44
					c-14.09-0.07-25.3-0.12-32.99-0.16c-3.84-0.03-6.8-0.04-8.82-0.06c-1-0.01-1.76-0.02-2.28-0.02
					C720.41,514.41,720.14,514.4,720.14,514.4"/>
			</g>
			<rect x="1038.55" y="717.73" class="st18" width="86.8" height="21.78"/>
			<rect x="1059.99" y="724.84" class="st19" width="52.9" height="7.56"/>
			<g class="st1">
				<defs>
					<rect id="SVGID_15_" x="656.78" y="306.89" width="500" height="500"/>
				</defs>
				<clipPath id="SVGID_16_">
					<use xlink:href="#SVGID_15_"  style="overflow:visible;"/>
				</clipPath>
				<path class="st20" d="M1053.33,729.06c0,2.33-1.89,4.22-4.22,4.22c-2.33,0-4.22-1.89-4.22-4.22c0-2.33,1.89-4.22,4.22-4.22
					C1051.43,724.84,1053.33,726.73,1053.33,729.06"/>
				<rect x="1047.7" y="705.86" class="st20" width="69.33" height="11.78"/>
				<rect x="1047.7" y="684.09" class="st21" width="86.8" height="21.78"/>
				<path class="st22" d="M1074.13,694.43c0-3.07,2.36-5.27,5.54-5.27c1.76,0,3.23,0.64,4.2,1.81l-1.51,1.4
					c-0.69-0.79-1.55-1.2-2.57-1.2c-1.91,0-3.26,1.34-3.26,3.26c0,1.92,1.36,3.26,3.26,3.26c1.02,0,1.88-0.41,2.57-1.21l1.51,1.4
					c-0.96,1.18-2.43,1.82-4.21,1.82C1076.49,699.71,1074.13,697.51,1074.13,694.43"/>
				<polygon class="st22" points="1096.21,695.32 1093.67,695.32 1093.67,697.8 1091.79,697.8 1091.79,695.32 1089.27,695.32 
					1089.27,693.54 1091.79,693.54 1091.79,691.06 1093.67,691.06 1093.67,693.54 1096.21,693.54 				"/>
				<polygon class="st22" points="1105.03,695.32 1102.49,695.32 1102.49,697.8 1100.61,697.8 1100.61,695.32 1098.09,695.32 
					1098.09,693.54 1100.61,693.54 1100.61,691.06 1102.49,691.06 1102.49,693.54 1105.03,693.54 				"/>
				<path class="st23" d="M1060.6,705.26c-0.14,0-0.26-4.74-0.26-10.59c0-5.85,0.12-10.59,0.26-10.59c0.14,0,0.26,4.74,0.26,10.59
					C1060.86,700.52,1060.74,705.26,1060.6,705.26"/>
				<path class="st23" d="M1056.82,705.26c-0.14,0-0.26-4.74-0.26-10.59c0-5.85,0.12-10.59,0.26-10.59c0.14,0,0.26,4.74,0.26,10.59
					C1057.08,700.52,1056.96,705.26,1056.82,705.26"/>
				<path class="st23" d="M1120.67,705.26c-0.14,0-0.26-4.74-0.26-10.59c0-5.85,0.12-10.59,0.26-10.59c0.14,0,0.26,4.74,0.26,10.59
					C1120.93,700.52,1120.82,705.26,1120.67,705.26"/>
				<path class="st23" d="M1116.9,705.26c-0.14,0-0.26-4.74-0.26-10.59c0-5.85,0.12-10.59,0.26-10.59s0.26,4.74,0.26,10.59
					C1117.16,700.52,1117.04,705.26,1116.9,705.26"/>
				<path class="st24" d="M1076.38,711.61c0-1.38,1-2.35,2.38-2.35c0.78,0,1.44,0.31,1.81,0.91l-0.46,0.32
					c-0.32-0.47-0.81-0.69-1.34-0.69c-1.01,0-1.75,0.72-1.75,1.8c0,1.09,0.74,1.8,1.75,1.8c0.54,0,1.03-0.21,1.34-0.68l0.46,0.32
					c-0.37,0.6-1.03,0.91-1.81,0.91C1077.38,713.97,1076.38,712.99,1076.38,711.61"/>
				<path class="st24" d="M1081.15,713.4l0.28-0.49c0.37,0.29,0.99,0.52,1.64,0.52c0.88,0,1.24-0.3,1.24-0.76c0-1.21-3-0.26-3-2.08
					c0-0.76,0.65-1.32,1.83-1.32c0.6,0,1.25,0.17,1.64,0.43l-0.27,0.5c-0.4-0.28-0.89-0.4-1.36-0.4c-0.83,0-1.2,0.32-1.2,0.76
					c0,1.25,3,0.31,3,2.08c0,0.8-0.7,1.32-1.91,1.32C1082.27,713.97,1081.53,713.72,1081.15,713.4"/>
				<path class="st24" d="M1085.45,713.4l0.28-0.49c0.37,0.29,0.99,0.52,1.64,0.52c0.88,0,1.24-0.3,1.24-0.76c0-1.21-3-0.26-3-2.08
					c0-0.76,0.65-1.32,1.83-1.32c0.6,0,1.25,0.17,1.64,0.43l-0.27,0.5c-0.4-0.28-0.89-0.4-1.36-0.4c-0.83,0-1.2,0.32-1.2,0.76
					c0,1.25,3,0.31,3,2.08c0,0.8-0.7,1.32-1.91,1.32C1086.57,713.97,1085.83,713.72,1085.45,713.4"/>
				<path class="st24" d="M1059.99,711.75c0,1.16-0.94,2.1-2.1,2.1c-1.16,0-2.1-0.94-2.1-2.1c0-1.16,0.94-2.1,2.1-2.1
					C1059.06,709.65,1059.99,710.59,1059.99,711.75"/>
				<path class="st24" d="M1112.63,711.75c0,1.16-0.94,2.1-2.1,2.1c-1.16,0-2.1-0.94-2.1-2.1c0-1.16,0.94-2.1,2.1-2.1
					C1111.69,709.65,1112.63,710.59,1112.63,711.75"/>
				<path class="st20" d="M846.26,716.6H700.43c-6.62,0-12-5.37-12-11.99v-91.72c0-6.62,5.37-12,12-12h145.83c6.62,0,12,5.37,12,12
					v91.72C858.25,711.23,852.88,716.6,846.26,716.6"/>
				<polygon class="st25" points="744.95,689.1 735.56,742.33 779.68,742.33 787.67,688.01 				"/>
				<path class="st25" d="M839.51,716.6H693.68c-6.62,0-11.99-5.37-11.99-11.99v-91.72c0-6.62,5.37-12,11.99-12h145.83
					c6.62,0,12,5.37,12,12v91.72C851.51,711.23,846.14,716.6,839.51,716.6"/>
				<polygon class="st20" points="783.46,716.6 787.67,688.01 788.84,716.6 				"/>
				<path class="st20" d="M745.2,686.14c0.14,0.02-0.93,7.11-2.39,15.82c-1.46,8.72-2.76,15.76-2.9,15.74
					c-0.14-0.02,0.93-7.11,2.39-15.82C743.76,693.16,745.05,686.12,745.2,686.14"/>
				<path class="st23" d="M772.16,654.74c0,3.07-2.49,5.56-5.57,5.56c-3.07,0-5.57-2.49-5.57-5.56c0-3.07,2.49-5.56,5.57-5.56
					C769.67,649.17,772.16,651.66,772.16,654.74"/>
				<path class="st20" d="M766.6,660.33c-3.08,0-5.59-2.51-5.59-5.59c0-3.08,2.51-5.59,5.59-5.59s5.59,2.51,5.59,5.59
					C772.19,657.82,769.68,660.33,766.6,660.33 M766.6,649.2c-3.05,0-5.54,2.48-5.54,5.54c0,3.05,2.48,5.54,5.54,5.54
					s5.54-2.48,5.54-5.54C772.14,651.68,769.65,649.2,766.6,649.2"/>
				<path class="st20" d="M724.19,635.33c0,0,2.62-3.7,1.73-7.8c0.01,0,0.02,0.01,0.03,0.01c0,0-0.01-1.33-1.99-3.94
					c-0.66-0.87-1.46-1.64-2.22-2.28c-0.69-0.6-1.45-1.16-2.27-1.65c-0.27-0.17-0.44-0.26-0.44-0.26v0.01
					c-2.69-1.49-5.98-2.25-9.68-1.45c-2.5,0.54-4.81,1.79-6.55,3.66c-0.57,0.61-1.11,1.31-1.51,2.07c-1.19,2.29-3.13,6.45-1.46,11.6
					c0.08,0.26,0.17,0.52,0.27,0.77c0.01,0.03,0.03,0.07,0.04,0.1c0.03,0.09,0.07,0.17,0.11,0.26c0.03,0.07,0.06,0.12,0.09,0.18
					c0.09,0.2,0.17,0.4,0.27,0.61c0.26,0.54,0.54,1.01,0.82,1.45c0.68,1.11,1.11,1.51,1.11,1.51c0,0,0-0.01,0-0.01
					c2.43,2.73,5.19,2.86,6.84,2.69c0.58,0.86,1.38,1.77,2.34,1.99c1.92,0.43,5.07-0.53,7.34-1.76c2.28-1.23,5.55-3.54,5.51-5.54
					C724.52,636.79,724.38,636.01,724.19,635.33"/>
				<path class="st21" d="M707.23,617.95c-2.5,0.54-4.81,1.79-6.55,3.66c-0.57,0.61-1.11,1.31-1.51,2.07
					c-1.33,2.56-3.63,7.49-0.69,13.51c2.93,6.02,7.26,5.86,9.23,5.59c1.96-0.28,14.38-7.47,14.38-7.47s3.8-5.35,0.71-10.32
					C720.14,620.74,714.46,616.4,707.23,617.95"/>
				<path class="st26" d="M706.32,641.12c0,0,1.34,3.28,3.27,3.71c1.92,0.43,5.07-0.53,7.34-1.76s5.55-3.54,5.51-5.54
					c-0.05-1.99-1-4.2-1.33-4.38c-0.34-0.18-4.58-1.33-9.18,1.45C707.32,637.38,706.32,641.12,706.32,641.12"/>
				<g class="st27">
					<g>
						<defs>
							<rect id="SVGID_17_" x="700.62" y="618.66" width="13.21" height="13.21"/>
						</defs>
						<clipPath id="SVGID_18_">
							<use xlink:href="#SVGID_17_"  style="overflow:visible;"/>
						</clipPath>
						<path class="st28" d="M713.04,622.14c1.73,3.21,0.53,7.22-2.68,8.95c-3.21,1.73-7.22,0.53-8.95-2.68
							c-1.73-3.21-0.53-7.22,2.68-8.95C707.3,617.72,711.31,618.92,713.04,622.14"/>
					</g>
				</g>
				<g class="st27">
					<g>
						<defs>
							<rect id="SVGID_19_" x="697.14" y="629.75" width="4.04" height="10.41"/>
						</defs>
						<clipPath id="SVGID_20_">
							<use xlink:href="#SVGID_19_"  style="overflow:visible;"/>
						</clipPath>
						<path class="st29" d="M700.4,640.16c0.8-1.81,1.05-4.01,0.44-5.89c-0.62-1.88-1.95-3.53-3.67-4.52c0,0-0.3,3.93,0.94,6.66
							C699.44,639.31,700.4,640.16,700.4,640.16"/>
					</g>
				</g>
				<g class="st27">
					<g>
						<defs>
							<rect id="SVGID_21_" x="716.9" y="619.4" width="6.94" height="8.13"/>
						</defs>
						<clipPath id="SVGID_22_">
							<use xlink:href="#SVGID_21_"  style="overflow:visible;"/>
						</clipPath>
						<path class="st30" d="M723.84,627.53c-1.96-0.33-3.93-1.32-5.16-2.87c-1.23-1.55-1.89-3.28-1.77-5.26c0,0,3.05,1.7,4.93,4.19
							C723.83,626.2,723.84,627.53,723.84,627.53"/>
					</g>
				</g>
				<path class="st31" d="M706.34,641.08c0.04,0.27,0.09,0.54,0.24,0.76c0.15,0.23,0.42,0.39,0.68,0.33
					c0.28-0.07,0.44-0.35,0.58-0.61c1.37-2.6,3.51-4.79,6.07-6.23c1.04-0.58,2.18-1.05,3.37-1.09c1.08-0.04,2.14,0.27,3.21,0.33
					c0.27,0.01,0.56,0.01,0.8-0.11c0.25-0.12,0.23-0.4,0.18-0.67c-0.07-0.32-0.27-0.58-0.38-0.63c-2.84-1.17-6.36-0.31-9.01,1.22
					C709.43,635.91,707.7,638.32,706.34,641.08"/>
				<rect x="819.04" y="732.7" class="st25" width="96.61" height="6.81"/>
				<path class="st25" d="M808.49,739.5h-20.3v-1.67c0-4.28,3.47-7.76,7.76-7.76h4.79c4.28,0,7.76,3.47,7.76,7.76V739.5z"/>
				<path class="st20" d="M808.19,737.39c0,0.14-4.38,0.26-9.78,0.26c-5.41,0-9.79-0.12-9.79-0.26s4.38-0.26,9.79-0.26
					C803.81,737.13,808.19,737.24,808.19,737.39"/>
				<path class="st20" d="M798.56,730c0.14,0,0.22,1.6,0.16,3.59c-0.05,1.98-0.21,3.58-0.36,3.57c-0.14-0.01-0.22-1.61-0.16-3.59
					C798.26,731.61,798.42,730.01,798.56,730"/>
				<rect x="674.48" y="739.5" class="st20" width="464.59" height="13.52"/>
			</g>
		</g>
	</g>
</g>
</svg>
