<?xml version="1.0" encoding="utf-8"?>
<!-- Generator: Adobe Illustrator 24.1.0, SVG Export Plug-In . SVG Version: 6.00 Build 0)  -->
<svg version="1.1" id="Calque_1" xmlns="http://www.w3.org/2000/svg" xmlns:xlink="http://www.w3.org/1999/xlink" x="0px" y="0px"
	 viewBox="0 0 1920 1080" style="enable-background:new 0 0 1920 1080;" xml:space="preserve">
<path d="M1007.4,555.9c-18.5-66.1-90.3-79-143.6-115.3c-6.4,29.4,7.7,47.2,28.7,64.6c-7.1,0.8-11.5,1.3-22.2,2.4
	c11.1,14.9,20.7,27.8,31.1,41.8c-5.7-1.2-10.6-2.2-17.8-3.7c9,27,37.5,32,60.3,45.8c-34.5-1.4-65.1-24.6-70.5-49.9
	c-5.3-24.4-12.7-48.6-17.4-73.1c-2.3-11.9-0.4-24.5-0.4-41c21.7,12.5,39.5,23.4,57.9,33.3c22.4,12,22.2,11.1,30.7-10.9
	c4.5-11.7,13.3-22.3,21.1-35.1c16.7,26.9,30.9,49.9,45.2,72.8c-1.6,0.8-3.2,1.6-4.7,2.5c-13.5-18.4-27-36.8-40.5-55.2
	c-22.5,19.6-21.9,38.4,0.5,55.1c6,4.5,11.6,9.4,17,14.4c5.3,5,10.1,10.3,14.8,15.1c14.7-8.6,28-22.2,42.6-23.2
	c13-0.9,27.3,12,42.4,19.5c5.8-7.9,13.4-18.4,21.1-28.9c2.2,0.7,4.4,1.5,6.6,2.2c-27.2,30-19.6,64.8-18.6,98.6c-2.3,0-4.6,0-6.8,0
	c-0.9-14.4-1.1-28.9-3.1-43.2c-0.8-5.7-5.8-10.9-8.8-16.3c-4.3,5-10.5,9.5-12.5,15.1c-4.6,12.5-5.5,26-10.8,38.2
	c-10.7,24.7-30.6,40.6-62.2,42.7c-15.7,1-31.6,1.4-47.3,2.4c-36.3,2.5-67.6,14.8-91.8,37.8c-9.4-10.4-17.4-19.3-27.5-30.4
	c19.1-15.9-3-31.8-10.4-51.1c27.8,2.7,52.5,5,77.2,7.4c0,1.2-0.1,2.4-0.1,3.5c-19.1,0-38.2,0-64.2,0c10.7,11.1,18.4,19,25.9,26.8
	c-4.8,1.9-10.6,4.1-16.7,6.5c7,8.2,12.7,15.1,19.5,23.2c35.9-27.2,80.3-30.9,126.1-32.2c38.2-1,61.8-21.1,69.6-53.7
	c3.4-14.4,9.8-28.3,13.6-42.6c1-3.9-1.1-10.9-4.4-12.8c-6-3.3-14.6-6.1-21.1-4.8c-16.2,3.1-30.1,24.1-28.5,39.3
	C1007.7,547.5,1007.4,551.7,1007.4,555.9z"/>
</svg>
