<?xml version="1.0" encoding="utf-8"?>
<!-- Generator: Adobe Illustrator 24.1.0, SVG Export Plug-In . SVG Version: 6.00 Build 0)  -->
<svg version="1.1" id="Calque_1" xmlns="http://www.w3.org/2000/svg" xmlns:xlink="http://www.w3.org/1999/xlink" x="0px" y="0px"
	 viewBox="0 0 141.8 110.5" style="enable-background:new 0 0 141.8 110.5;" xml:space="preserve">
<g>
	<path d="M90.7,29c13.7,0.1,22.5,14.6,15.7,26.6c-3.8,6.8-8.8,13-13.5,19.2c-0.6,0.8-3.9,0.8-4.4,0.1c-5-6.7-10.3-13.3-14.1-20.7
		C68.5,42.9,77.9,28.9,90.7,29z M99.6,47.2c0.1-4.9-3.7-8.9-8.6-9c-5-0.1-8.9,3.6-9,8.6c-0.1,5,3.6,8.9,8.6,9
		C95.6,55.9,99.5,52.2,99.6,47.2z"/>
	<path d="M48.9,45.4C45.7,39,42,32.8,39.5,26.1c-1.8-4.9,0.2-9.4,4.9-12.3c4.5-2.7,8.9-2.3,12.8,1c4.1,3.5,5.4,8,3,12.9
		c-2.9,6-6.1,11.8-9.1,17.7C50.4,45.5,49.6,45.5,48.9,45.4z M51.6,17.2c-0.8,0-1.6,0-2.4-0.1c-1.4,2-3.7,3.9-4.1,6.1
		c-0.7,3.2,1.7,5.9,4.9,5.2c2.1-0.4,5-3,5.3-5C55.5,21.6,52.9,19.3,51.6,17.2z"/>
	<path d="M49,60.1c-3.5,0-7-0.4-10.4,0.2c-2,0.4-3.7,2.4-5.6,3.7c1.9,1.3,3.8,3.7,5.8,3.8c7.8,0.5,15.7,0.1,23.5,0.3
		c4.9,0.1,8.6,3.5,7.2,7c-0.8,2.1-3.6,4.4-5.8,4.9c-3.5,0.9-7.5-0.1-11.1,0.5c-2,0.4-3.6,2.5-5.3,3.9c1.8,1.3,3.5,3.8,5.3,3.8
		c11,0.4,22.1,0.2,33.1,0.2c1.4,0,2.8,0.2,4.3,1.2c-1,0.3-2,0.8-3,0.8c-11.6,0-23.2,0-34.7,0c-4.3,0-7.7-1.3-7.6-6.1
		c0.1-4.7,3.5-6.2,7.8-6.1c2.8,0,5.7,0,8.6,0c2.8,0,5.8,0,5.9-3.7c0.1-3.9-3.1-4.3-6.1-4.4C53.4,70,46.1,70.1,38.8,70
		c-1.6,0-3.8,0.2-4.6-0.6c-1.6-1.6-3.5-4.2-3.2-5.9c0.4-2,2.9-4.8,4.9-5.1C40.2,57.5,44.6,58,49,58C49,58.7,49,59.4,49,60.1z"/>
</g>
</svg>
