<?xml version="1.0" encoding="utf-8"?>
<!-- Generator: Adobe Illustrator 24.1.0, SVG Export Plug-In . SVG Version: 6.00 Build 0)  -->
<svg version="1.1" id="Calque_1" xmlns="http://www.w3.org/2000/svg" xmlns:xlink="http://www.w3.org/1999/xlink" x="0px" y="0px"
	 viewBox="0 0 125.6 118.7" style="enable-background:new 0 0 125.6 118.7;" xml:space="preserve">
<path d="M101.6,53.4c0,6.7-5.1,12.2-12,12.7c-2.2,0.1-3.4,0.9-4.5,2.7c-2.8,4.7-6.5,8.5-11.5,11c-1.8,0.9-2.6,2.1-2.8,4.1
	c-0.5,6.8-5.8,11.7-12.6,11.7c-6.7,0-12.4-4.9-12.7-11.6c-0.1-2.8-1.4-4.2-3.4-5.9c-3.3-2.7-6.2-6-8.9-9.4c-1.3-1.6-2.3-2.6-4.5-2.8
	c-7-0.5-12-6.1-11.9-13.1c0.1-6.8,5.1-12,12.1-12.4c1.8-0.1,3-0.7,3.8-2.3c2.7-4.8,6.5-8.5,11.2-11.4c1.1-0.7,2.1-2.4,2.2-3.8
	C47.2,16,52.4,11,59.3,11c6.8,0,12.1,5,12.6,12c0.1,1.9,0.7,3.2,2.4,4.1c4.8,2.7,8.6,6.5,11.2,11.3c0.9,1.7,2.2,2.1,3.9,2.2
	C96.6,41,101.6,46.4,101.6,53.4z M71.4,79.4c0.8-0.3,1.2-0.5,1.6-0.7c4.6-2.6,8.3-6.2,11.1-10.7c1-1.6,0.2-2.5-1.2-3.4
	c-9.2-5.8-9.2-17,0-22.6c1.9-1.2,2.2-2.4,0.8-3.8c-3.1-3.3-6.3-6.4-9.6-9.5c-1.3-1.2-2.7-1-3.6,0.9c-4.4,9.2-18.4,9.2-22.7,0
	c-0.8-1.6-2.1-2.2-3.4-1c-3.4,3.2-6.7,6.5-9.9,9.9c-1.2,1.3-0.8,2.5,0.9,3.4c9.9,5.3,8.9,18.6,0,22.9c-1.9,0.9-2,2.2-0.8,3.6
	c2.8,3.1,5.8,6.2,8.8,9.1c1.3,1.2,2.6,1.2,3.7-0.6c5.7-9.8,18.5-8.4,22.8,0.8C70.2,78.3,70.9,78.8,71.4,79.4z M67.7,88.3
	c2.2-1.9,2.7-6,0.9-10c-1.8-4.2-6.7-7.1-11.2-6.7c-5.1,0.5-9.1,4-10.3,9.1c-0.7,3.3,0.2,6.7,1.9,7.7c2-1.8,3.9-3.4,6.1-5.4
	c-0.1-0.3-0.6-1-0.8-1.7C54.3,80.2,54,79,54.3,78c0.7-2.2,3.5-3.2,5.6-2.3c2.1,0.9,2.9,3.2,2.2,5.5c-0.3,0.9-0.6,2.4-0.1,2.9
	C63.7,85.6,65.6,86.8,67.7,88.3z M39.1,58.8c3-2.4,2.8-8.9-0.9-13c-4.6-5.1-12-5.2-16.7-0.1c-3.5,3.8-3.9,10.7-1,13.1
	c1.9-1.5,3.7-2.8,5.4-4.3c0.4-0.4,0.5-1.6,0.3-2.3c-0.7-2.2-0.8-4.1,1.2-5.6c1.6-1.2,3.4-1.2,4.9,0.1c1.9,1.5,2.1,3.4,1,5.6
	c-0.3,0.6,0,1.7,0.5,2.2C35.4,55.9,37.1,57.2,39.1,58.8z M68.7,29.6c0.2-0.3,0.7-0.7,1-1.2c1.6-4.3,1.2-8.3-1.9-11.9
	c-3.2-3.8-7.5-4.7-12.1-3.4c-6.2,1.8-9.7,9.4-6.9,15c0.3,0.5,1.8,1.1,2.1,0.8c1.8-1.6,3.4-3.4,5.3-5.4c-1.2-1.8-2.1-4,0.3-6.2
	c1.6-1.4,3.3-1.7,5.1-0.4c2.9,2.1,2,4.7,0.7,6.7C64.5,25.7,66.4,27.5,68.7,29.6z M98.2,58.8c3.3-3.4,2.3-10.4-2.2-14.2
	c-5-4.2-12.3-3.3-16.2,2c-3.1,4.3-3,10.4-0.1,12.4c1.5-1.4,2.8-3.1,4.4-4.1c1.5-0.9,1.7-1.5,1-3.1c-0.5-1.1-0.4-2.6,0-3.7
	c0.8-2.1,3.3-2.8,5.2-2c2.2,0.9,3,3.2,2.2,5.7c-0.2,0.8-0.5,2.1-0.1,2.4C94.2,55.8,96.3,57.2,98.2,58.8z M65.8,31.1
	c0.3-2.5-0.6-4.3-3.2-4.6c-2.3-0.3-4.7-0.3-7,0.1c-1.2,0.2-2.4,1.7-2.9,2.9c-0.6,1.2-0.2,2.6,1.8,2.4c0.2,0,0.3,0.9,0.6,1.1
	c1.2,0.8,2.5,2,3.8,2c1.4,0,2.8-1.1,4.2-1.9C63.9,32.7,64.5,32.1,65.8,31.1z M35.9,61c1-2.1,0.4-4.1-1.8-4.5
	c-2.8-0.5-5.8-0.4-8.6-0.1c-1.8,0.2-3.2,2.1-2.4,3.8c0.8,1.6,2.4,3.2,4.1,4c1.2,0.7,3.1,0.3,4.7,0.2c0.5,0,1-0.7,1.5-1.1
	C34.2,62.5,35.1,61.7,35.9,61z M93.5,62.1c-0.1-0.3-0.2-0.6-0.2-0.8c2.2,0.8,2.6-0.4,2.3-2.1c-0.3-2.1-1.7-3.1-3.7-3.2
	c-2-0.1-3.9-0.1-5.9,0c-2.9,0.2-4,1.8-3.8,4.6c1,0.7,2.1,1.2,2.5,2c1.3,2.4,3.4,2.2,5.4,1.9C91.3,64.2,92.3,62.9,93.5,62.1z
	 M64.9,90.2c0.3-1.8-0.2-4.1-3-4.6c-2.4-0.4-4.9-0.4-7.3,0c-1.1,0.2-2.3,1.7-2.9,3c-0.6,1.1-0.3,2.4,1.6,2.3c0.2,0,0.5,0.7,0.7,1.1
	c0.7,2.1,2.5,2.4,4.1,2.1c1.4-0.2,2.7-1.2,4-1.9C62.9,91.9,63.6,91.3,64.9,90.2z M30.4,46.8c-0.4,0-0.8,0-1.2,0c-0.7,1-2.1,2.1-2,3
	c0.1,1,1.5,1.9,2.4,2.8c0.9-0.9,2.4-1.7,2.5-2.6C32.3,49.1,31,47.9,30.4,46.8z M92.8,50.1c-1.8-1.4-2.9-2.8-3.8-2.7
	c-1,0.1-2.5,1.5-2.6,2.4c0,0.9,1.4,2.4,2.4,2.6C89.7,52.6,90.9,51.3,92.8,50.1z M59,24.3c1.4-1.8,2.8-2.8,2.7-3.8
	c-0.1-1-1.5-1.9-2.4-2.8c-0.9,0.9-2.4,1.6-2.6,2.6C56.6,21.3,57.9,22.4,59,24.3z M57.6,82.6c0.4,0,0.8,0,1.2,0c0.7-1,2-2,2-3
	c0-0.9-1.5-2.5-2.2-2.4c-1,0.1-2.5,1.3-2.7,2.3C55.6,80.4,56.9,81.6,57.6,82.6z"/>
</svg>
