<?xml version="1.0" encoding="utf-8"?>
<!-- Generator: Adobe Illustrator 24.1.0, SVG Export Plug-In . SVG Version: 6.00 Build 0)  -->
<svg version="1.1" id="Calque_1" xmlns="http://www.w3.org/2000/svg" xmlns:xlink="http://www.w3.org/1999/xlink" x="0px" y="0px"
	 viewBox="0 0 113.5 124.5" style="enable-background:new 0 0 113.5 124.5;" xml:space="preserve">
<style type="text/css">
	.st0{fill:#FFFFFF;stroke:#000000;stroke-width:0.5;stroke-miterlimit:10;}
	.st1{fill:none;stroke:#000000;stroke-width:0.5;stroke-miterlimit:10;}
</style>
<g>
	<rect x="0.2" y="0.2" class="st0" width="113" height="124"/>
	<circle class="st0" cx="24.5" cy="29.5" r="8.2"/>
	<polygon class="st0" points="96.9,67 76.8,67.3 56.8,67.6 66.5,50.1 76.2,32.5 86.5,49.8 	"/>
	<polygon class="st0" points="66.9,67.1 49.8,67.3 32.8,67.6 41,52.7 49.3,37.8 58.1,52.4 	"/>
	<line class="st1" x1="0.2" y1="67.6" x2="113.2" y2="67.6"/>
	<line class="st1" x1="0.2" y1="16.2" x2="113.2" y2="16.2"/>
	<line class="st1" x1="56.8" y1="67.6" x2="56.8" y2="124.2"/>
	<line class="st1" x1="8.2" y1="83.2" x2="49.8" y2="83.2"/>
	<line class="st1" x1="101.2" y1="81.2" x2="82.7" y2="81.2"/>
	<line class="st1" x1="101.2" y1="95.9" x2="82.7" y2="95.9"/>
	<line class="st1" x1="101.2" y1="110.7" x2="82.7" y2="110.7"/>
	<line class="st1" x1="8.2" y1="95.9" x2="49.8" y2="95.9"/>
	<line class="st1" x1="8.2" y1="108.6" x2="49.8" y2="108.6"/>
	<rect x="66.9" y="76.2" class="st1" width="9.9" height="9.9"/>
	<rect x="66.9" y="91" class="st1" width="9.9" height="9.9"/>
	<rect x="66.9" y="105.7" class="st1" width="9.9" height="9.9"/>
</g>
</svg>
