<?xml version="1.0" encoding="utf-8"?>
<!-- Generator: Adobe Illustrator 24.1.0, SVG Export Plug-In . SVG Version: 6.00 Build 0)  -->
<svg version="1.1" id="Calque_1" xmlns="http://www.w3.org/2000/svg" xmlns:xlink="http://www.w3.org/1999/xlink" x="0px" y="0px"
	 viewBox="0 0 1920 1080" style="enable-background:new 0 0 1920 1080;" xml:space="preserve">
<g>
	<path d="M1088.9,457.5c-3,4.8-5.2,10.4-9.1,14.3c-45,43.5-90.3,86.7-135.5,130c-0.4,0.4-0.9,0.7-1.3,1.2
		c-22.3,27.9-53.5,43.2-86.5,56c-6.9,2.7-13.4,4.1-19.3-1.6c-5.7-5.6-5-11.8-1.8-18.4c6.9-13.8,13.2-27.9,20.4-41.6
		c2.8-5.3,6.4-10.5,10.8-14.8c52.8-50.8,105.7-101.4,158.7-152.1c2.8-2.7,5.5-5.4,8.6-7.7c8.7-6.6,18.5-7.2,26.6-0.6
		c8,6.5,15.5,13.8,22.4,21.4C1085.8,447.1,1086.6,452.1,1088.9,457.5z M1006.7,488c-4.7-4.2-8.7-8.5-13.5-11.7
		c-1.2-0.8-5.5,1.3-7.4,3c-37,35.2-73.9,70.6-110.9,105.8c-6.1,5.8-4.6,10.7,0.7,15.6c5.2,4.9,10.3,4.9,15.7-0.3
		c36.8-35.4,73.8-70.6,110.6-106C1003.5,492.9,1004.6,490.8,1006.7,488z M1028.6,508.9c-4.7-4.2-8.6-8.6-13.5-11.7
		c-1.4-0.9-6.1,1.5-8.1,3.4c-36.8,34.9-73.4,70.1-110.1,105.1c-5.4,5.1-5.8,9.7-0.5,14.8c5.1,5,10.3,6.9,16.3,1.1
		c37.1-35.5,74.2-70.9,111.2-106.4C1025.5,513.6,1026.6,511.5,1028.6,508.9z M1047.3,425.7c-2,0.5-4.3,0.3-5.4,1.4
		c-7.7,6.8-15.4,13.6-22.5,20.9c-1,1,0.5,5.5,2.1,7.3c4,4.6,8.7,8.8,13.2,13c21.3,20,22,20.1,40.5-2.8c2.8-3.5,4.9-11.3,2.9-13.9
		c-7.2-9-16.2-16.6-24.8-24.5C1051.8,426,1049.2,426.1,1047.3,425.7z M895.6,633c-7.4-12.6-15.8-22.4-27.8-28.7
		c-1.6-0.9-5.5-0.6-6.5,0.6c-10.8,12.2-10.3,20.5,1.5,31.6c1.5,1.4,2.8,3.3,4.6,4.1c2.5,1,5.8,2.2,8.1,1.4
		C882.2,639.5,888.5,636.2,895.6,633z M1046.7,492.7c-1.2-2.2-1.7-3.7-2.7-4.7c-10-9.6-19.8-19.3-30.1-28.6c-5-4.5-8,0.8-11.1,3.4
		c-3.4,2.8-4.8,5.8-0.9,9.5c9.2,8.7,18.2,17.6,27.6,26.2c1.8,1.7,6,3.4,7.6,2.6C1040.7,499.1,1043.6,495.5,1046.7,492.7z
		 M863.4,647.2c-6.3-5.1-10.4-8.5-14.6-11.9c-2.6,3.6-6.1,6.9-7.2,10.9c-0.5,1.8,4.1,7.1,6,6.9C852.2,652.8,856.5,650,863.4,647.2z"
		/>
	<path d="M831.5,465.6c2.6-4,4.2-7.8,7-10.5c10.9-10.8,22-21.4,33.3-31.8c7.8-7.2,13.5-7.3,21.2-0.2c19.1,18,38.1,36.2,56.9,54.5
		c1.8,1.7,1.7,5.2,2.5,7.8c-2.6-0.9-5.8-1.1-7.6-2.8c-17.9-16.8-35.4-33.8-53.2-50.7c-8.1-7.7-9.7-7.7-17.7-0.1
		c-9.2,8.7-18.2,17.7-27.6,26.2c-5.9,5.3-5.9,9.7-0.1,15.2c16.8,15.7,33.3,31.8,50,47.7c1.5,1.4,3.4,2.6,4.4,4.3
		c1.2,2.2,1.7,4.9,2.4,7.4c-2.6-0.7-5.9-0.6-7.6-2.2c-11.8-10.8-23.2-21.9-34.7-32.9c-7.5-7.1-15.1-14.1-22.3-21.5
		C835.6,473.3,834,469.5,831.5,465.6z"/>
	<path d="M1088.6,613.6c-2.3,3.9-3.6,7.6-6.1,10.2c-11,11.1-22.3,21.9-33.8,32.6c-7.6,7.1-14.4,7.2-22.1-0.1
		c-18.9-17.8-37.7-35.8-56.2-53.9c-1.8-1.8-2-5.2-2.9-7.9c2.8,0.9,6.4,1.1,8.4,2.9c17.9,16.7,35.5,33.8,53.2,50.7
		c7.7,7.4,9.2,7.3,16.9,0.1c9.4-8.9,18.7-18,28.3-26.8c5.5-5.1,5.6-9.3,0-14.6c-17.4-16.4-34.6-33-51.8-49.6
		c-1.7-1.6-3.6-3.2-4.9-5.1c-0.8-1.2-0.5-3.1-0.8-4.7c1.9-0.1,4.1-0.7,5.7-0.1c1.8,0.7,3.3,2.5,4.8,3.9
		c17.9,17.1,35.9,34.2,53.7,51.5C1084,605.8,1085.9,609.7,1088.6,613.6z"/>
	<path d="M1039.2,612.6c-2.1-2.5-4.1-4.5-3.9-4.7c3.5-3.9,7.3-7.5,11.2-11.1c0.1-0.1,3.4,2.6,3.3,2.7
		C1046.6,603.7,1043.2,607.7,1039.2,612.6z"/>
	<path d="M902.3,458.2c-4.8,3.7-8.8,6.8-13,9.7c-0.3,0.2-2.2-1.9-3.4-2.9c3.9-3.6,7.7-7.3,11.7-10.7
		C897.8,454.2,899.9,456.2,902.3,458.2z"/>
	<path d="M917.3,491c-1.8-2.8-3.6-4.9-3.3-5.2c2.6-2.8,5.7-5.3,8.6-7.9c1,1.2,3.2,3.1,3,3.4C923.3,484.3,920.7,487.1,917.3,491z"/>
	<path d="M1017.4,585.5c-2.1-2.1-4.2-4.1-4.1-4.2c2.6-2.9,5.3-5.5,8.1-8.2c1.1,1.1,3.2,2.8,3,3.1
		C1022.5,579.2,1020.2,582,1017.4,585.5z"/>
</g>
</svg>
