<?xml version="1.0" encoding="utf-8"?>
<!-- Generator: Adobe Illustrator 24.1.0, SVG Export Plug-In . SVG Version: 6.00 Build 0)  -->
<svg version="1.1" id="Calque_1" xmlns="http://www.w3.org/2000/svg" xmlns:xlink="http://www.w3.org/1999/xlink" x="0px" y="0px"
	 viewBox="0 0 108.3 88.8" style="enable-background:new 0 0 108.3 88.8;" xml:space="preserve">
<path d="M79.5,17.1c0-2.1,0-4.1,0-6.2c-0.1-4-1.5-5.4-5.6-5.4c-10.2-0.1-20.5,0-30.7,0c-6.5,0-13,0-19.4,0c-5.1,0-6.7,1.6-6.8,6.8
	c0,11.1,0,22.1,0,33.2c0,4.2,0.5,4.8,4.6,4.9c18.1,0.1,36.1,0,54.2,0c2.9,0,3.9-1.3,3.8-4c-0.1-3.2,0-6.4,0-9.6c0.3,0,0.6,0,0.9,0
	c0,5.2-0.1,10.5,0,15.7c0.2,9.2-1.2,9.7-9.6,9.4c-3.1-0.1-6.3-0.2-9.4,0.1c-1.3,0.1-3.5,0.9-3.7,1.8c-0.4,1.9,0.9,3.5,3,4.1
	c0.2,0.1,0.5,0,0.6,0.1c0.8,1,2,2,2.2,3.1c0.4,1.9-1.3,2.4-2.8,2.5c-3,0.1-6.1,0.2-9.1,0.2c-5.2,0-10.4,0-15.7,0
	c-1.9,0-4.1-0.1-4.3-2.6c-0.2-2.4,1.6-3,3.6-3.3c1.1-0.2,2.4-0.9,3.1-1.8c1.6-2,0.6-3.9-2-4c-4.6-0.1-9.2,0-13.8,0
	c-4.9,0-6.7-1.7-6.7-6.5c0-14.7,0-29.5,0-44.2c0-4.5,1.6-6.2,6-6.2C39.5,5,57.1,5,74.6,5c4.5,0,5.8,1.3,5.8,5.8c0,2.1,0,4.2,0,6.4
	C80.1,17.1,79.8,17.1,79.5,17.1z M66.6,60.9c0,0.2,0,0.4,0,0.5c2.9-0.1,5.9-0.1,8.7-0.5c3.5-0.5,4.4-2.3,4.1-6.5
	c-0.2-3.4-2.8-2.8-4.9-2.9c-6.2-0.1-12.5,0-18.7,0c-11.5,0-22.9,0.1-34.4-0.1c-3.7-0.1-5.3,1.7-4.3,5.9c0.7,3,3,3.8,5.7,3.8
	c6,0,12.1-0.3,18.1-0.3C49.6,60.9,58.1,60.9,66.6,60.9z M48.3,68.9C48.3,68.9,48.3,68.9,48.3,68.9c-4.1-0.1-8.1-0.2-12.2,0
	c-1,0-1.9,1.2-2.8,1.8c0.8,0.7,1.5,1.9,2.3,1.9c8.2,0.1,16.5,0.2,24.8,0c0.7,0,1.4-1.4,2.1-2.1C61.6,70,60.7,69,59.8,69
	C56,68.8,52.1,68.9,48.3,68.9z M48.4,67.9c1.7,0,3.4,0.2,5-0.1c1.2-0.2,2.3-1.1,3.5-1.7c-1-1.4-1.8-3.7-3-3.9
	c-3.6-0.5-7.3-0.5-10.8,0c-1.2,0.2-2,2.5-3,3.8c1.1,0.6,2.2,1.5,3.4,1.8C45,68.1,46.7,67.9,48.4,67.9z"/>
<path d="M40.9,41.3c-5.3,0-10.6-0.1-16,0c-2.2,0-3.2-0.7-3.2-3.1c0.1-6.8,0.1-13.6,0-20.4c0-2.5,1.1-3.3,3.4-3.3
	c10.8,0,21.5,0,32.3,0c2.3,0,3.4,0.8,3.4,3.3c-0.1,6.3,0,12.5,0,18.8c0,4.5-0.2,4.6-4.6,4.6C51.2,41.3,46,41.3,40.9,41.3
	C40.9,41.3,40.9,41.3,40.9,41.3z M33.2,34.3c0.6-0.3,1.1-0.4,1.3-0.7c2.1-2.7,3.9-2.5,5.8,0.4c1,1.5,2.3,1.1,3.3-0.3
	c1.3-1.8,2.5-3.6,3.7-5.4c4.1-6.2,4.5-6.2,8.4,0.2c0.8,1.3,1.9,2.3,2.9,3.4c0.3-0.2,0.7-0.3,1-0.5c0-4.5,0.2-9.1-0.2-13.6
	c-0.1-0.8-2.1-2.1-3.2-2.2c-10.1-0.2-20.2-0.1-30.4-0.1c-2,0-3.1,0.9-3.1,3c0,3.5-0.1,7.1,0,10.6c0,0.8,0.6,1.6,1,2.4
	c0.8-0.4,1.7-0.7,2.3-1.3c1.7-1.8,3-1.6,4.3,0.3C31.2,31.9,32.2,33.1,33.2,34.3z M40.8,40.7c0,0,0-0.1,0-0.1
	c5.2,0,10.4,0.2,15.6-0.1c3.2-0.1,4-2,2.4-4.7c-1.8-3-3.8-6-5.7-9c-1.2-2-2.5-2-3.8-0.1c-1.7,2.6-3.4,5.3-5.2,7.8
	c-1.7,2.5-2.6,2.5-4.5,0.3c-1.4-1.7-2.6-2.3-4.2-0.3c-1.4,1.9-2.8,1.4-4-0.3c-0.5-0.7-0.9-1.4-1.4-2.1c-1.2-1.6-2.4-1.8-3.8-0.2
	c-0.5,0.5-1,1.2-1.6,1.4c-2.5,1.1-2.3,3.3-1.6,5c0.4,1,2.3,2,3.6,2.1C31.4,40.8,36.1,40.7,40.8,40.7z"/>
<path d="M87.8,19.3c2,1.8,2.1,3.5-0.2,5.7c-3.6,3.4-7.5,6.6-11.1,10.1c-1.6,1.5-3,3.2-4.1,5c-2.2,3.9-5.7,5-9.7,5.2
	c-2,0.1-1.7-1.2-1.1-2.5c0.9-1.7,1.4-3.7,2.5-5.3c0.9-1.3,2.4-2.4,3.8-3.3c1.5-1.1,3.6-1.7,4.8-3C76,27.5,79,23.6,82.3,20
	C84.5,17.5,86,17.5,87.8,19.3c-2-0.5-3.7,0.1-5.1,1.9c-2.9,3.5-6,6.9-9,10.4c-0.7,0.8-1.4,1.7-1.6,2.6c-0.1,0.4,1,1.1,1.6,1.6
	c2.4-2.6,4.8-5.3,7.2-7.9c1.1-1.2,2.1-3,3.5-3.4C88,23.6,88.5,23.2,87.8,19.3z M69.3,34.1c-0.4,0.3-0.8,0.7-1.2,1
	c-0.6,0.3-1.6,0.4-1.9,0.9c-1,2.2-1.9,4.4-2.7,6.7c-0.1,0.2,0.5,0.9,0.7,0.8c0.5-0.1,1.1-0.4,1.6-0.8c1.2-0.9,2.5-1.8,3.5-2.9
	c0.7-0.7,1.6-1.7,1.5-2.5C70.8,36.3,69.9,35.2,69.3,34.1z"/>
<path d="M45.4,23.6c-2.2,1.3-3.3,2.6-4.6,2.7c-2,0.3-3.4-1.3-2.9-3.1c0.4-1.4,2-2.9,3.3-3.3C42,19.8,43.4,21.8,45.4,23.6z
	 M40.8,26.3c1-1.4,2-2.2,1.9-2.9c-0.1-0.9-1.1-1.6-1.7-2.4c-0.7,0.6-1.9,1.3-2,2C39,23.8,39.9,24.7,40.8,26.3z"/>
</svg>
