<?xml version="1.0" encoding="utf-8"?>
<!-- Generator: Adobe Illustrator 24.1.0, SVG Export Plug-In . SVG Version: 6.00 Build 0)  -->
<svg version="1.1" id="Calque_1" xmlns="http://www.w3.org/2000/svg" xmlns:xlink="http://www.w3.org/1999/xlink" x="0px" y="0px"
	 viewBox="0 0 241 507" style="enable-background:new 0 0 241 507;" xml:space="preserve">
<style type="text/css">
	.st0{fill:#536964;}
</style>
<g>
	<path class="st0" d="M210.1,429.6c0.4,7.7,0.4,15.4,1.2,23c0.7,6.4,1.8,12.7,3.5,18.9c2.3,8.8-0.5,13-9.4,11
		c-9.1-2.1-18.6-4.7-26.6-9.2c-33.9-19.2-49.3-48.8-46.2-87.6c1-12.5,3.7-24.9,5.6-37.3c0.2-1.2,0.3-2.4,0.6-4.5
		c-5.3,1.8-10.1,3.3-14.7,4.9c-26.3,9.2-52.6,18.4-79,27.7c-6,2.1-17.6-1.3-22.5-7c6.2-1.6,12.2-2.8,17.9-4.6
		c30.9-9.8,61.8-19.7,92.7-29.7c1.2-0.4,2.2-1.1,3.4-1.6c2.9-1.2,6.2-4,8.7-3.4c7.9,1.9,16,4.3,21.4,11.1c0.6,0.8,0.2,3.7-0.6,4.2
		c-15.6,9.5-18.1,25.4-19.8,41.4c-1.8,17-0.2,33.5,11,47.6c8,10,17.6,18.1,29.8,22.5c7.2,2.6,8.7,2.1,12-4.7
		c2.8-5.8,5-11.9,7.5-17.8c0.7-1.8,1.6-3.5,2.3-5.3C209.3,429.3,209.7,429.4,210.1,429.6z"/>
	<path class="st0" d="M40,160.6c2.7-0.7,4.2-1.3,5.7-1.5c31.7-4,63.5-8,95.2-12c2-0.3,4.3-0.5,5.8-1.7c7.7-6,14.8-1,21.8,1.2
		c1.7,0.5,2.5,4,3.7,6c-1.9,1-3.8,2.7-5.8,2.8c-12.6,0.9-25.2,1.3-37.8,2c-1.4,0.1-2.7,0.2-4.7,0.4c6.8,11.8,1,23.6,1.2,35.3
		c0.1,5.2-0.6,10.3-1,15.9c2.3,0,4.2,0.1,6,0c7.4-0.5,14.8-1,22.2-1.5c6.6-0.5,13.3-0.2,19-4.4c0.6-0.4,1.6-0.6,2.2-0.4
		c6.8,2.7,13.7,5.4,20.3,8.6c1.5,0.7,2.9,3.8,2.5,5.3s-3.2,3.2-4.9,3.2c-7.9-0.1-15.7-0.5-23.6-1.2c-30.5-2.4-60.8-0.2-91,4.5
		c-12.4,1.9-24.8,4.5-37.1,7.1c-4.2,0.9-7.6,0.7-10.9-2.2c-2.2-1.9-4.9-3.3-7.3-5c0-0.5,0-1.1,0-1.6c21.5-2.8,43-5.5,64.9-8.4
		c0-1.5,0.1-2.9,0-4.3c-0.5-12.3-1.1-24.6-1.6-36.9c0-0.9-0.1-1.9-0.3-2.8c-1.3-6.4-2-6.9-8.5-6c-4.8,0.7-9.7,1.5-14.5,2.3
		C52.3,167.1,50.1,166.7,40,160.6z M97.4,160.4c0.3,4.7,0.7,9.2,0.7,13.6c0.1,12.2,0,24.5,0,37.3c4.3-0.3,8.4-0.6,12.9-0.9
		c0.6-13.4,1.5-26.4,1.7-39.5c0.1-3.1-1.7-6.3-3.2-9.2c-0.5-1.1-2.4-1.9-3.7-2C102.7,159.7,99.6,160.2,97.4,160.4z"/>
	<path class="st0" d="M157.5,87.1c2.4-3.2,4.8-6.4,7.3-9.5c2.5-3.2,5.2-6.3,7.6-9.7c1-1.4,1.3-3.3,1.9-5c-1.7-0.4-3.5-1.3-5.1-1.1
		c-12.2,1.6-24.4,3.3-36.5,5c-5,0.7-10,1.5-15,1.9c-3.5,0.3-4.7,1.9-4.8,5.5c-0.4,13.7-1,27.4-1.8,41.1c-0.2,3.1-0.9,6.2-1.9,9.2
		c-0.4,1.2-2.1,2.9-3.1,2.9c-1.4,0-3.6-1.3-4-2.5c-1.2-3.7-2.3-7.6-2.5-11.4c-0.6-12.1-0.7-24.3-1-36.4c0-1.7-0.1-3.4-0.2-5.4
		c-19,2.3-37.5,4.5-56.3,6.8c2.3,8.7,0.4,17.1-4.2,24.6c-1.3,2.2-4.7,4.3-7,4.2c-1.8-0.1-4.1-3.4-5-5.7c-1.8-4.5-0.9-8.8,1.2-13.5
		c2.9-6.5,4.4-13.7,6.4-20.6c0.4-1.4,0.5-2.9,0.9-5.5c1.4,1.9,2.4,2.7,2.5,3.5c0.8,5.7,5,6,9.2,5.5c12.4-1.5,24.7-3.3,37-4.9
		c3.8-0.5,7.5-1.1,11.3-1.5c2.4-0.2,3.5-1.1,2.9-3.6c-1.1-4.4-0.9-9.7-3.4-13c-3.3-4.3-8.5-0.2-12.5,0.7c-6.7,1.6-12.3,1.4-17.8-4.8
		c2.3-0.8,4.2-1.6,6.2-2c14.2-2.9,28.5-5.6,42.7-8.5c2.1-0.4,4.2-1.4,6.2-2.3s4.2-3.2,5.9-2.8c5.5,1.2,10.8,3.2,16,5.2
		c0.9,0.4,2,2.9,1.6,3.5c-0.8,1.3-2.5,2.5-4,2.7c-7.6,1.2-15.3,2.1-23,3.1c-2.7,0.4-5.3,0.7-7.8,1.1c2.4,5.6,4.8,11.1,7.8,17.8
		c4.2-0.5,10-1.2,15.8-2c11.1-1.5,22.2-3.1,33.2-4.8c2.3-0.3,4.9-0.6,6.8-1.8c4.7-3,8.7-1.9,13.1,0.9c5.5,3.6,11.5,6.4,16.9,10.2
		c1.9,1.3,2.6,4.3,3.9,6.6c-2.1,1-4.1,2.1-6.2,2.9c-11.2,4.2-22.4,8.3-33.6,12.5c-2.1,0.8-4.2,1.6-6.4,2.5
		C158.2,88,157.9,87.6,157.5,87.1z"/>
	<path class="st0" d="M85.8,420.2c10.7,4.9,18.7,12.2,24.1,21.9c2.4,4.4,3.8,9.5,4.8,14.5c0.7,3.3-1.9,5.1-5.1,4
		c-2.8-0.9-5.7-2.1-7.9-4c-8.6-7.6-17-15.5-26.4-24.2c-2.2,2.6-4.3,5.3-6.7,7.7c-12,12.1-25.1,22.6-40.8,29.4
		c-1.3,0.6-2.9,0.5-4.6,0.1c15.5-14,30.4-28.2,42.3-46.1c-7.2-6.4-14.5-12.9-21.8-19.3c0.3-0.5,0.6-1.1,0.8-1.6
		c9.8,2.4,18.8,7.3,29.5,10.7c5.5-10.6,11.2-21.3,16.3-32.2c0.9-2-1.1-5.2-1.6-8c-0.3-1.7-0.2-3.5-0.3-5.2c1.6,0.2,3.3,0.1,4.8,0.7
		c3.6,1.5,7.2,3.3,10.6,5.1c6.7,3.7,8.5,8.4,4.3,14.8c-6.3,9.8-13.4,19-20.2,28.5C87.4,417.9,86.8,418.7,85.8,420.2z"/>
	<path class="st0" d="M66.8,306.1c9.8-2.8,19.5-5.5,29.3-8.4c7.1-2.1,14.4-3.7,19.6-9.7c0.5-0.6,1.7-1.1,2.5-1
		c5.6,0.7,11.2,1.4,16.8,2.6c1.3,0.3,3.3,2.3,3.2,3.4c0,1.5-1.5,3.3-2.9,4.3c-1.5,1.1-3.4,1.5-5.2,2c-19.4,5-38.7,10.1-58.1,15
		c-2.5,0.6-5.4,0.9-7.9,0.5c-4.5-0.7-7.7,0.9-11.2,3.5c-8.9,6.7-18.2,13-27.4,19.3c-1.3,0.9-3,1.3-4.5,1.9c-0.3-0.4-0.6-0.7-0.9-1.1
		c1-1.2,1.9-2.5,2.9-3.6c12-13,23.4-26.4,31.4-42.4c1.7-3.5,2.3-6.3-0.2-9.6c-0.7-0.9-0.9-2.6-0.6-3.8c0.1-0.5,2.2-0.8,3.3-0.7
		c7.1,1.2,13.3,3.8,17.1,10.4c1.6,2.8,1.8,5.1-0.7,7.6c-2.6,2.6-4.8,5.6-7.2,8.5C66.4,305.4,66.6,305.8,66.8,306.1z"/>
	<path class="st0" d="M56.5,137.8c2.8-0.8,4.3-1.3,5.9-1.6c18.3-3.1,36.7-6,55-9.2c3.8-0.7,7.6-2,11.2-3.4
		c4.1-1.6,17.1,0.2,20.1,3.5c0.9,1,1.8,3.1,1.3,4.1c-0.6,1.3-2.4,2.5-3.8,2.7c-6.6,0.7-13.2,0.8-19.8,1.6c-18,2.3-35.9,4.5-53.8,7.6
		C66.4,144.1,62.1,142.2,56.5,137.8z"/>
	<path class="st0" d="M49.4,335c2.8-0.8,5.6-1.7,8.4-2.5c12.2-3.5,24.5-6.9,36.7-10.6c3-0.9,5.6-2.7,8.4-4.2c1.9-1,3.9-3.1,5.5-2.8
		c5.1,1.1,10.4,2.5,15,4.9c3,1.5,2,4.5-1.8,5.5c-8.2,2.2-16.5,4-24.7,6.1c-9.1,2.4-18.5,4.2-27.2,7.6c-7.7,3-13.6-0.6-20.2-2.3
		C49.5,336.1,49.5,335.6,49.4,335z"/>
	<path class="st0" d="M130.3,205.6c0.9-2.1,1.4-3.6,2.2-4.9c5.5-8.4,11.2-16.7,16.5-25.3c1.1-1.8,1.2-4.4,1.5-6.6
		c0.2-1.7,0-3.4,0-5.1c7.2,0.2,15.6,8.1,15.9,14.7c0,1.1-0.6,2.6-1.4,3.2c-10.8,7.9-21.7,15.6-32.6,23.4
		C132.2,205.3,131.7,205.3,130.3,205.6z"/>
	<path class="st0" d="M44.5,180.7c3.7,0.8,7.5,1.5,11.2,2.4c3.1,0.8,7.8,0.9,8.9,2.8c2.7,5.3,4.5,11.3,5.4,17.3
		c0.7,4.6-3.1,6.2-6.8,3.1c-3.7-3.1-7-6.7-10-10.6c-3.4-4.4-6.3-9.3-9.3-14C44.1,181.4,44.3,181.1,44.5,180.7z"/>
	<path class="st0" d="M55.6,107.5c11.7-7.1,24.9-3.8,29.2,6.8c2.2,5.5-0.2,9-6.1,7.8C69.4,120.2,62.5,114.1,55.6,107.5z"/>
	<path class="st0" d="M119,78.5c6.1-3.8,19.5-3.3,24.1,0.6c2.6,2.2,5.5,4.4,7.5,7.1c3,4.2,1.3,7.6-3.7,6.6c-5.9-1.1-11.7-3.4-17-6.1
		C126,84.9,122.8,81.5,119,78.5z"/>
	<path class="st0" d="M56.5,83.2c6.6-0.3,12.5-1,18.4-0.7c4.2,0.2,10.1,7.9,9.7,12.2c-0.1,1.1-1.6,2.7-2.7,2.8
		C73.9,98.9,61.1,92,56.5,83.2z"/>
	<path class="st0" d="M121.2,100.2c7.4,1,15,1.3,22.1,3.2c2.8,0.8,5.4,4.9,6.7,8c1.5,3.6-2.2,4.8-4.7,4.4c-4.3-0.6-8.8-1.5-12.6-3.6
		c-4.6-2.6-8.5-6.5-12.7-9.8C120.5,101.7,120.8,101,121.2,100.2z"/>
</g>
</svg>
