<?xml version="1.0" encoding="utf-8"?>
<!-- Generator: Adobe Illustrator 24.1.0, SVG Export Plug-In . SVG Version: 6.00 Build 0)  -->
<svg version="1.1" id="Calque_1" xmlns="http://www.w3.org/2000/svg" xmlns:xlink="http://www.w3.org/1999/xlink" x="0px" y="0px"
	 viewBox="0 0 500 500" style="enable-background:new 0 0 500 500;" xml:space="preserve">
<style type="text/css">
	.st0{fill:#FE4F5B;}
	.st1{fill:#1A2E35;}
	.st2{fill:#EBEAEA;}
	.st3{fill:#FD4F5B;}
	.st4{fill:#E0E0E0;}
	.st5{fill:#1B2F36;}
	.st6{fill:#EBEBEB;}
	.st7{fill:#375A64;}
	.st8{fill:#FEBE9D;}
	.st9{fill:#FEBC9B;}
	.st10{fill:#21343B;}
	.st11{fill:#D63F48;}
	.st12{fill:#FE545F;}
	.st13{fill:#2E3940;}
	.st14{fill:#34545E;}
	.st15{fill:#90989C;}
	.st16{fill:#FEBBBF;}
	.st17{fill:#FBE3E5;}
	.st18{fill:#BB353E;}
	.st19{fill:#DFDEDE;}
	.st20{fill:#FDBD9C;}
	.st21{fill:#373239;}
	.st22{fill:#FE9A6D;}
</style>
<g>
	<g>
		<path class="st0" d="M236,375.8c-0.4,0-0.7-0.1-1.1-0.1c-41.3,0-82.6,0-123.9,0c-0.2,0-0.5,0-0.7,0c-6.1-0.7-10.5-4.2-12.1-9.8
			c-0.4-1.4-0.4-2.9-0.6-4.3c0-0.5,0.1-1,0.1-1.5c0-32,0-64,0-96c0-0.5-0.1-1-0.1-1.5c0-0.1,0-0.2,0-0.3c0-1.8,0.1-3.6,0.1-5.4
			c0.1-6.9,5.5-12.8,12.4-13.1c5.7-0.2,11.4-0.1,17.1-0.1c0.5,0,1-0.1,1.5-0.1c0.4,0.3,0.7,0.5,1.1,0.8c3.4,2.7,6.6,5.6,10.1,8
			c6.2,4.2,13,7.1,20.1,9.4c9,2.9,18.3,4.1,27.8,4.5c4.5,0.1,9-0.1,13.5-0.2c1.3,0,2.6-0.1,3.8-0.3c4.9-0.6,9.7-1.1,14.5-1.7
			c4.7-0.6,9.3-1.4,14-2.2c5.5-0.9,11-1.9,16.5-2.8c4.5-0.8,9.1-1.5,13.6-2.2c3.8-0.5,7.6-0.9,11.5-1.3c2.4-0.2,4.9-0.4,7.3-0.5
			c3.7-0.2,7.5-0.5,11.2-0.4c3.3,0.1,6.6,0.1,9.8-0.8c4.3-1.2,7.8-5,7.5-9.2c0.5-0.1,1-0.2,1.5-0.2c0.2,0,0.4,0,0.6,0
			c0.8-0.1,1.6-0.3,2.4-0.4c0,1.1,0,2.2,0.1,3.2c0,0.4,0.2,0.9,0.4,1.2c2.3,2.7,3.3,5.8,3.3,9.3c0,17.2,0,34.5,0,51.7
			c0,0.7,0,1.3,0.7,1.8c14,11.5,27.9,23.1,41.8,34.6c1.4,1.1,2.7,2.2,4.2,3.5c1.3-13.1,2.5-26.1,3.8-39.1c0.5,0,0.8,0,1.2,0
			c5.9,0,11.7,0.1,17.6,0c6,0,11-4.4,11.4-10.4c0.3-4.4,0.1-8.9,0.1-13.4c0-3.1,0.1-6.2,0.1-9.4c0.1-8.4,0.1-16.7,0.2-25.1
			c0-2.3-0.1-4.6-0.1-6.9c0-0.2,0.1-0.5,0.1-0.7c0.1-17.6,0.2-35.1,0.3-52.7c0-3.2-1.2-6-3.4-8.3c-2-2.1-4.4-3.3-7.3-3.7
			c0-0.1,0-0.2,0-0.3c6.6,0.5,11.6,6.4,11.6,12.7c0,13.3,0.2,26.6,0.3,39.8c0,4.7,0.1,9.4,0.2,14.1c0,0.2,0,0.3,0,0.5
			c0,13.4,0.1,26.8,0.1,40.2c0,0.3,0.1,0.6,0.1,0.9c0,3.5,0.1,7,0,10.5c-0.1,6.4-2.9,11-8.9,13.5c-1.5,0.6-3.2,0.8-4.9,0.8
			c-5.5,0.1-11,0-16.7,0c-1.3,13.9-2.6,27.7-3.9,41.8c-16.2-13.4-32.3-26.6-48.6-40.1c0,0.9,0,1.5,0,2c0,15.2,0,30.3,0,45.5
			c0,5.7-2.5,9.9-7.5,12.5c-1.8,0.9-4,1.3-6.1,1.3c-5.1,0.2-10.2,0.1-15.4,0.1c-0.5,0-0.9,0-1.5,0c-1.3,14.1-2.7,28.1-4,42.4
			c-1.2-1-2-1.7-2.9-2.5c-1.9-1.7-3.7-3.5-5.6-5.2c-3.2-2.8-6.4-5.6-9.7-8.4c-1.6-1.4-3.2-2.8-4.8-4.2c-2-1.8-3.9-3.7-5.9-5.5
			c-2-1.8-4-3.5-6-5.3c-1.7-1.5-3.4-3.1-5.1-4.6c-2-1.8-4.1-3.6-6.1-5.3C237.9,376.6,237.3,375.5,236,375.8z M255.6,298.8
			c-7.1-0.1-13,5.7-13.1,12.9c-0.1,7.1,5.7,13,12.9,13c7.1,0.1,13-5.7,13-12.7C268.5,304.7,262.8,298.8,255.6,298.8z M153.8,311.6
			c-0.1,7.1,5.7,13,12.7,13.1c7.2,0.1,13.1-5.6,13.2-12.8c0.1-7.1-5.7-13-12.8-13.1C159.7,298.7,153.8,304.4,153.8,311.6z
			 M198.2,311.6c0,7.2,5.6,13,12.8,13.1c7.2,0.1,13-5.7,13-13c0-7.2-5.8-12.9-12.9-12.9C204,298.8,198.2,304.5,198.2,311.6z"/>
		<path class="st1" d="M129.7,244.5c-0.4-0.3-0.7-0.5-1.1-0.8c-1.6-5.3-2.2-10.7-1.4-16.3c1.5-10.4,6.9-18,16.5-22.2
			c3.6-1.6,7.5-2.4,11.2-3.6c1.9-0.3,3.9-0.7,5.8-1c0.8-0.1,1.6-0.3,2.4-0.4c5-0.4,10-0.9,15.1-1.3c0.8-0.1,1.6-0.1,2.5-0.2
			c0.3,0,0.6,0,0.9,0c9.9,0.1,19.9,0.2,29.8,0.3c-0.5,0.2-1.1,0.4-1.6,0.5c-5.9,1.3-11.8,2.9-17.2,5.8c-5.4,2.9-10.1,6.7-13.1,12.2
			c-1.1,2-1.1,2-3.4,1.4c-0.2,0-0.3-0.1-0.5-0.1c-1.8-0.8-4-0.5-5.5-2.1c-0.1,0.1-0.2,0.2-0.2,0.3l0,0c-2.1-0.4-4.2-0.7-6.2-1.1
			c-5.9-1.1-11.8-1.5-17.8-0.4c-0.5,0.1-1.1,0.3-1.6,0.4c11.7-2.2,22.6,1,33.8,4.3c-2.7,6.8-3.2,13.4-0.9,20.2
			c0.1-0.4,0-0.8-0.1-1.2c-1-4-1.2-8-0.4-12.1c1.4-7.4,5.1-13.3,11.1-17.9c4.9-3.7,10.4-6,16.2-7.7c2.9-0.8,5.9-1.4,8.8-2
			c0.5,0,1.1-0.1,1.6-0.1c5.6-0.7,11.1-1.5,16.7-2.2c6.7-0.8,13.4-1.7,20.1-2.4c3.2-0.4,6.4-0.7,9.7-1c0.2,0.3,0.5,0.6,0.7,0.9
			c6.5,8.8,9.9,18.6,9.6,29.6c-0.1,2.4-0.7,4.8-2.2,6.7c-0.4,0-0.8,0-1.1,0c-6.7-1.4-13.5-2.6-20.2-4.2c-6.7-1.6-13.4-3.5-20-5.5
			c-3.2-1-6.6-1.4-9.5-3.1c0,0.1,0.1,0.2,0.1,0.3l0,0c-2.5-0.5-5-1-7.6-1.4c-4.6-0.8-9.1-1.1-13.7-0.6c-1.3,0.2-2.7,0.5-4,0.7
			c0.3,0.2,0.6,0.3,0.9,0.2c3.6-0.7,7.2-0.8,10.9-0.5c5.7,0.5,11.3,1.7,16.8,3.3c6.3,1.8,12.6,3.8,19,5.5c10.2,2.7,20.6,4.8,31,6.2
			c0.9,0.1,1.8,0.1,2.7,0.1c2.3,0.2,4.6,0.4,6.9,0.7c0.5,0.1,1,0.4,1.5,0.7c0,4.2,0,8.3-0.1,12.5c-0.4,0.2-0.8,0.5-1.2,0.5
			c-1.9,0-3.7-0.1-5.6-0.2c-5.3-0.1-10.6-0.2-15.9-0.3c-6-0.1-12.1-0.2-18.1-0.3c-4.7-0.1-9.4-0.2-14.1-0.2
			c-5.9-0.1-11.7-0.2-17.6-0.3c-4.8-0.1-9.7-0.1-14.5-0.3c-6.4-0.2-12.9-0.5-19.3-0.5c-12.6-0.1-25.2,0-37.7,0
			C135.7,244.5,132.7,244.5,129.7,244.5z M169.3,216.2c-1-2.3-7.1-5.3-10.1-5C162.9,212.2,166.3,213.7,169.3,216.2z M217.3,217.4
			c-1-2.3-7.4-5.3-10-4.7C211.1,213.7,214.4,215.1,217.3,217.4z"/>
		<path class="st2" d="M155,201.7c-3.8,1.2-7.7,2-11.2,3.6c-9.7,4.2-15,11.9-16.5,22.2c-0.8,5.5-0.2,10.9,1.4,16.3
			c-0.5,0.1-1,0.1-1.5,0.1c-5.7,0-11.4-0.1-17.1,0.1c-6.9,0.3-12.3,6.1-12.4,13.1c0,1.8-0.1,3.6-0.1,5.4c-0.4-0.8-2-1.4-3.1-1.2
			c-0.1,0-0.2,0-0.2,0c-0.3-0.3-0.5-0.7-0.8-0.9c-2.1-1.1-4.2-2.1-6.3-3.2c-1-0.5-2.1-1-3.1-1.5c0,0,0,0,0,0
			c-0.1-0.2-0.2-0.5-0.3-0.6c-3.1-2.4-6.3-4.7-9.4-7.1c-0.2-0.2-0.5-0.3-0.7-0.5c-0.2-0.3-0.4-0.5-0.6-0.8c-2.3-2.4-4.6-4.8-6.7-7.3
			c-2.2-2.6-4-5.4-5.1-8.7c-0.1-0.4-0.2-0.8-0.3-1.3c-0.1-0.3-0.2-0.7-0.2-1c0-0.9,0-1.8,0-2.7c0.7-1.7,1.3-3.3,2-5
			c0.1-0.2,0.2-0.3,0.3-0.5c1.7-1.7,3.8-2.5,6-3.2c0.3,0,0.7,0,1,0c1.2,0,2.3,0,3.5,0c0.2,0,0.5,0,0.7,0c1.9,0.7,3.8,1.3,5.7,2
			c1.9,0.7,3.9,1.5,5.8,2.2c0.2,0,0.5,0,0.7,0c3.1,1.1,7-1.1,7.5-4.3c0-0.5,0-1,0-1.5c-0.4-2.8-2.1-4.7-4.5-6
			c-0.2-0.1-0.3-0.2-0.5-0.3c-1.8-0.7-3.7-1.5-5.5-2.2c-0.2-0.1-0.5-0.2-0.7-0.3c-0.4-0.2-0.8-0.5-1.2-0.7
			c-5.6-2.2-10.8-5.3-15.6-8.9c-0.5-0.4-1.1-0.6-1.7-0.9c0,0,0,0,0,0c-0.4-0.4-0.8-0.8-1.3-1.3c-0.2-0.2-0.3-0.3-0.5-0.5
			c-0.7-0.7-1.3-1.3-2-2c0-0.1,0-0.2,0-0.2c-1.5-1.6-2.3-3.4-2.7-5.5c0-0.2,0-0.3,0-0.5c0.4-2.2,1.5-3.9,3.5-5
			c0.2-0.1,0.3-0.2,0.5-0.2c0.8-0.2,1.5-0.5,2.3-0.7c0.2,0,0.3,0,0.5,0c0.4-0.1,0.8-0.2,1.3-0.2c1.1,0,2.2,0,3.2,0
			c0.6-0.1,1.2-0.2,1.8-0.2c0.8-0.1,1.7-0.2,2.5-0.3c0.3-0.2,0.7-0.5,1-0.7c0.1,0,0.2,0,0.2,0c0.4,0,0.8,0.1,1.1-0.1
			c0.8-0.6,1.5-1.3,2.2-1.9c0.1-0.2,0.2-0.5,0.3-0.8c0.1-0.2,0.2-0.5,0.2-0.7c0-0.3,0-0.7,0-1c-0.4-0.7-0.8-1.5-1.3-2.2
			c-0.2-0.1-0.3-0.2-0.5-0.3c-0.7-0.5-1.5-1-2.2-1.5c0,0,0,0,0,0c-0.2-0.3-0.3-0.6-0.5-0.8c-1.3-1.1-2.6-2.2-3.9-3.2
			c-0.9-0.7-1.9-1.5-2.8-2.2c-0.3-0.2-0.5-0.5-0.8-0.7c-0.3-0.3-0.7-0.7-1-1c-0.3-0.3-0.7-0.7-1-1c-0.2-0.3-0.3-0.6-0.6-0.9
			c-2.2-2.6-4.5-5.2-6.6-7.9c-1.9-2.5-3.1-5.4-3.9-8.4c0.1-1.5,0.2-3,0.2-4.5c0.1-0.3,0.2-0.5,0.2-0.8c0.2-0.3,0.3-0.7,0.5-1
			c0.3-0.6,0.7-1.2,1-1.7c0.1-0.1,0.2-0.2,0.2-0.2c1.8-1.2,3.5-2.3,5.3-3.5c0.2-0.1,0.5-0.2,0.7-0.2c0.8-0.2,1.7-0.3,2.5-0.5
			c0.8,0,1.7,0,2.5,0c0.3,0.1,0.7,0.2,1,0.2c0.2,0,0.3,0,0.5,0c2,0.9,4.1,1.7,6,2.7c0.9,0.4,1.6,1,2.5,1.6c0,0,0,0,0,0
			c0.8,0.8,1.7,1.7,2.5,2.5c0.1,0.1,0.2,0.2,0.2,0.2c1.1,1.6,2.2,3.1,3.2,4.7c0.7,1,1.4,2,2,3.1c0,0,0,0,0,0c1.8,3.5,3.5,7,5.3,10.5
			c0.2,0.3,0.3,0.7,0.5,1c1.5,2.2,3,4.3,4.5,6.5c0,0,0,0,0,0c1.3,1.2,2.5,2.3,3.8,3.5c0.2,0,0.3,0,0.5,0c0.5,0,1,0.2,1.4,0
			c1.6-0.5,1.9-1.9,2.1-3.3c0-1.3,0-2.7,0-4c0.1-0.4,0.2-0.8,0.3-1.2c0.1-0.2,0.2-0.3,0.2-0.5c1-1.9,2.8-3,4.8-3.7
			c1.1,0,2.2,0,3.2,0c1.5,0.8,3,1.7,4.5,2.5c0.3,0.3,0.7,0.7,1,1c0.7,1.2,1.3,2.5,2,3.7c0.1,0.3,0.2,0.7,0.3,1
			c0.2,1.1,0.5,2.2,0.7,3.3c0,0.4,0,0.8,0,1.2c0.1,0.7,0.2,1.3,0.2,2c-0.1,1.1-0.2,2.2-0.2,3.2c0,1.1,0,2.2,0,3.2c0,2.1,0,4.1,0,6.2
			c0,0.7-0.1,1.4-0.2,2.1c0,1.1,0,2.2,0,3.2c0,3.4,0,6.8,0,10.3c0.3,0.9,0.7,1.8,1,2.8c0.2,0.4,0.3,0.8,0.5,1.3
			c0.6,0.7,1.2,1.3,1.8,2c0.3,0.2,0.7,0.3,1,0.5c0.2,0.1,0.3,0.2,0.5,0.2c0.8,0,1.7,0,2.5,0c1.3-0.5,2.7-1,4-1.5c0,0,0,0,0,0
			c1.6-1.1,3.2-2.1,4.8-3.2c0.7-0.5,1.2-1.4,1.7-2c0-0.1,0-0.2,0-0.2c0.5-0.6,1-1.2,1.5-1.8c0,0,0,0,0,0c0.6-1,1.2-2,1.8-3
			c0.1-0.1,0.2-0.2,0.2-0.3c1.3-1.4,2.7-2.8,4-4.3c1.2-0.2,2.3-0.3,3.5-0.5c0.9,0.4,1.8,0.6,2.7,1.1c2.4,1.4,3.7,3.7,4.3,6.4
			c0,0.1,0,0.2,0,0.3c0.1,0.4,0.2,0.8,0.2,1.3c0,1.1,0,2.2,0,3.2C155,200.9,155,201.3,155,201.7z"/>
		<path class="st3" d="M196.5,148.2c0.1-0.2,0.2-0.5,0.3-0.7c0.7-1.6,1.3-3.3,2-4.9c0.1-0.3,0.2-0.6,0.3-0.9l0,0
			c0.6-1.4,1.2-2.9,1.8-4.3c1.4-3.4,2.4-7.1,4.8-10.1c5.7-7.1,13.2-10.7,22.2-11.3c0.1,1.7,0.1,3.3,0.3,5c0.2,2,1,3.8,3.1,4.4
			c1.2,0.4,2.5,0.6,3.8,0.5c3-0.1,5.9-0.7,8.5-2.1c3.1-1.6,5.6-3.7,5.4-7.6c0-0.2,0.1-0.3,0.2-0.5c1.8,0.4,3.5,0.7,5.3,1.1
			c2.2,0.9,4.5,1.8,6.7,2.9c6.6,3.4,10.4,9.1,12.3,16.1c1.6,6.3,3.6,12.4,6.2,18.3c0.1,0.3,0.2,0.5,0.3,0.8
			c-0.1,0.1-0.2,0.2-0.3,0.2l0,0c-1.1,0.8-2.3,0.9-3.5,0.5c-0.4-0.2-0.9-0.3-1.3-0.5c-2.4-1.1-4.7-0.7-6.9,0.6
			c-1.4,0.9-2.6,1.9-3.9,2.9c-1.7,1.3-3.4,2.6-5.7,2.6c-1,0-2-0.2-2.9-0.3c-1.4-4.9-2.8-9.8-4.2-14.6c-0.1,0-0.2,0.1-0.3,0.1
			c1.8,8.1,4.1,16,7.2,23.6c-0.3-1-0.6-2-0.8-3.1c0.1,0,0.3,0,0.4,0c3.5,1.6,6.4,0.7,9.1-1.9c1-1,2.1-1.9,3.2-2.8
			c1.8-1.4,3.8-1.8,6-0.9c0.7,0.3,1.5,0.6,2.2,0.7c1.4,0.3,2.9,0.5,4.1-0.7c0.2-0.1,0.4-0.2,0.6-0.2c1.6,2.5,0.9,4.3-1.9,4.9
			c-0.7-0.3-1.4-0.6-2.1-0.8c-4.1-1.6-7.6-0.8-10.5,2.6c-1.6,1.9-3.5,3.5-6,3.9c-0.8-0.1-1.6-0.3-2.5-0.4c0.2,2.3,0.4,4.6,0.6,6.8
			c-0.1,0.1-0.2,0.2-0.3,0.2c-8.8,2.9-17.6,6-26.5,8.8c-4.5,1.4-9,2.6-12.7,5.5c-1.9,1.6-3.9,3.2-5.8,4.7c-0.1-0.3-0.2-0.5-0.2-0.8
			c-0.2-2.5-0.3-5-0.5-7.5c-0.2-2.8-0.5-5.5-0.7-8.3c-3.7,0-7.3,0-11,0c0.7-0.8,1.5-1.6,2.2-2.4c2.8,0,5.6,0,8.7,0
			c-0.5-3.9-1-7.7-1.6-11.5c0-0.1-0.3-0.1-0.4-0.2c-0.2-0.2-0.4-0.5-0.6-0.5c-1.6-0.2-3.1-0.4-4.7-0.5c-2.1-0.2-3.8-0.9-4.8-3
			c-0.7-1.6-2.1-2.3-3.8-1.9c-1.4,0.3-2.7,0.1-4-0.6c-1.3-1.8-1.2-3.7-0.2-5.6C194.3,152.5,195.4,150.4,196.5,148.2z M211.5,163
			c0.1,0,0.1,0,0.2-0.1c0,0-0.1-0.1-0.1-0.1C211.6,162.9,211.5,162.9,211.5,163c0,0.1-0.1,0.1-0.1,0.2
			C211.4,163.1,211.5,163,211.5,163z M229,156.2c-0.1-0.4-0.2-0.7-0.2-1.1c-0.1,0-0.1,0-0.2,0c0.1,0.3,0.1,0.7,0.2,1
			c0,0.4,0,0.9,0.2,1.3c0.7,1.9,1.4,3.8,2.1,5.7c-2.4,0.9-4.7,0.5-7.1-0.1c-2.4-0.5-4.8-1.1-7.3-1.5c-1.6-0.2-3.1,0-4.5,1
			c0.7-0.1,1.4-0.3,2.2-0.4c2.4-0.4,4.8,0.2,7.1,0.9c3.3,1,6.6,1.9,10,0.8c1.1,1.1,2.3,2.2,3.4,3.3c0,0,0,0.1,0,0.2
			c-0.4,0.1-0.9,0.3-1.3,0.4c-3.2,0.8-6.3,0.2-9.4-0.4c-2.9-0.5-5.8-1-8.7-0.2c0.3,0.1,0.7,0.1,1,0.1c1.3,0,2.7-0.1,4,0.1
			c2.5,0.3,4.9,0.9,7.4,1.2c2.6,0.3,5.2,0.5,7.6-0.9c0.1,0,0.3,0,0.4,0c0.8,0.4,1.5,0.9,2.3,1.1c2.2,0.6,4.4,0.8,6.5-0.4
			c1.4-0.8,1.4-2.4,0.1-3.2c-0.5-0.3-1.2-0.4-1.9-0.5c-0.4,0-0.7-0.1-1.1-0.1c2.4-1.3,4.9-1.3,7.5-0.5c1.9,0.6,3.8,1.3,5.7,1.9
			c-2.5-1.5-5.2-2.6-8.2-3c-2.2-0.3-4.2,0.2-6,1.4c-2.2-0.2-4.1-0.9-5.9-2.2c0.8-0.5,1.7-0.9,2.5-1.4c1.9-1,4-1.7,6.2-1.4
			c2.4,0.3,4.8,0.7,7.2,1.1c1,0.2,2.1,0.4,3.1,0.6c-1.2-0.6-2.5-0.9-3.8-1.3c-5.6-1.5-11-1.8-16,1.8c-0.5-0.4-1.2-0.8-1.6-1.3
			C231.2,159.2,230.1,157.7,229,156.2L229,156.2z M194.3,156c-0.1-0.2-0.3-0.3-0.4-0.5c-0.1,0-0.1,0.1-0.2,0.1
			c0.1,0.2,0.2,0.4,0.4,0.5c0.8,1.1,1.9,1.2,3.1,1.2c1-0.1,2-0.3,3-0.4c2.4-0.3,3.4,0.3,4.5,2.4c0.5,0.9,1,1.8,1.7,2.6
			c0.9,1,2,1.1,2.6,0.6c-0.6-0.2-1.5-0.4-2.1-0.9c-0.6-0.5-1.1-1.4-1.4-2.1c-1.6-3.2-2.9-3.8-6.3-3.1c-0.3,0.1-0.7,0.1-1,0.2
			C196.8,156.9,195.5,156.8,194.3,156z M210.8,163.4L210.8,163.4L210.8,163.4c-0.1-0.3-0.2-0.7-0.3-1c-1.7-8.9-0.9-17.5,2.6-25.8
			c0.3-0.6,0.6-1.2,0.8-1.8c0.2-0.6,0.5-1.1,0.7-1.7c-5.9,10.2-7.1,21-3.5,32.3C211,164.6,210.9,164,210.8,163.4z M248.5,138.7
			c-0.4-9.6,3.8-15.4,12.9-17.6C253.2,121.2,246.2,130.1,248.5,138.7z M196,151.4c0.1,0.1,0.1,0.3,0.3,0.4c1.6,1.6,3.5,2.2,5.7,1.8
			c1.8-0.3,3.3-0.2,4.2,1.7c0.3,0.6,1,0.9,1.5,1.4c-0.4-0.8-0.9-1.4-1.3-2c-0.9-1.6-1.7-2.2-3.6-1.8
			C200.3,153.3,198.1,152.9,196,151.4z M193.7,154.8C193.6,154.8,193.6,154.8,193.7,154.8c-0.1,0.1-0.1,0.2-0.1,0.3c0,0,0,0,0.1,0
			C193.7,155,193.7,154.9,193.7,154.8z"/>
		<path class="st4" d="M135.7,45.8c0.4,0.3,0.8,0.7,1.3,1c0.7,1.2,1.5,2.3,2.2,3.5c0,10.4,0,20.8,0,31.2c-0.6,1.2-1.2,2.3-1.8,3.5
			c0,0,0,0,0,0c-0.6,0.4-1.2,0.8-1.7,1.2c-0.2,0.1-0.3,0.2-0.5,0.3c-0.5,0.2-1,0.3-1.5,0.5c-1.2,0-2.3,0-3.5,0
			c-0.2,0.2-0.5,0.5-0.7,0.7c-0.1,0.9-0.2,1.8-0.3,2.8c-0.1,1.1-0.2,2.2-0.3,3.2c0,0.7,0,1.3,0,2c-0.1,0.3-0.1,0.5-0.2,0.8
			c0,0.3,0,0.7,0,1c-0.1,0.5-0.2,1-0.2,1.5c0,0.3,0,0.7,0,1c-0.4-0.1-0.9-0.1-1.2-0.4c-1.8-1.5-3.5-3.1-5.3-4.6
			c-0.2-0.2-0.5-0.3-0.7-0.5c-1.4-1.3-2.8-2.7-4.3-4c-0.2-0.1-0.3-0.2-0.5-0.3c-0.5-0.5-1-1-1.5-1.5c-0.2-0.2-0.5-0.3-0.7-0.5
			c-0.5-0.7-1-1.4-2-1.2c-11.9,0-23.8,0-35.7,0c-2,0.1-4-0.3-5.4-1.8c-1-1.1-1.6-2.5-2.4-3.7c0-10.2,0-20.5,0-30.7
			c0.8-1.3,1.4-2.7,2.3-3.9c0.6-0.7,1.6-1.1,2.4-1.6c1.2-0.1,2.4-0.2,3.6-0.2c17,0,34,0,51.1,0c2.2,0,4.4,0.2,6.6,0.3
			C135.1,45.4,135.4,45.6,135.7,45.8z M100.7,66.5c0,2.5,1.7,4.3,4.1,4.2c2.4,0,4.2-1.8,4.2-4.3c0-2.2-1.8-4-4.1-4
			C102.5,62.5,100.8,64.2,100.7,66.5z M90.7,62.5c-2.3,0-4.2,1.9-4.2,4.1c0,2.2,1.9,4.1,4.2,4.1c2.3,0.1,4.3-1.7,4.2-4.1
			C94.9,64.2,93,62.5,90.7,62.5z M123,66.6c0-2.4-1.7-4.1-4-4.1c-2.3,0-4.3,1.8-4.3,4.1c0.1,2.4,1.7,4.1,4.3,4.2
			C121.3,70.8,123,68.9,123,66.6z"/>
		<path class="st5" d="M227.7,116c-9,0.6-16.5,4.2-22.2,11.3c-2.4,3-3.3,6.7-4.8,10.1c-0.6,1.4-1.2,2.9-1.8,4.3
			c0.1-0.5,0.2-1,0.3-1.4c-1.7,0-3.4,0-5,0c-0.7-0.2-1.5-0.4-2.2-0.6c-3-1.4-5.5-3.5-6.5-6.8c-1.4-4.7-0.3-8.8,3.2-12.3
			c-2.8-3-3.5-6.5-2.4-10.4c0.1-0.2,0.2-0.5,0.3-0.7c1.8-3.5,4.7-5.3,8.3-5.7c-0.8-0.9-1.6-1.9-2.4-2.9c0-1,0-2-0.1-3
			c0.2-0.3,0.5-0.7,0.7-1c0.1,0.1,0.2,0.1,0.2,0.2c-1.1,2-0.9,3.4,0.6,5c0,0.1,0.1,0.1,0.1,0.1c0.6,0.3,1.1,0.8,1.7,1
			c2.7,0.8,5.1-0.1,7.1-2c3.2-3,4.6-6.9,5.3-11c0.2-1.2,0.4-2.5,0.6-3.7c0.5-2.8,1-5.7,1.4-8.5c0.1-0.4,0.2-0.8,0.3-1.2
			c0.6-1.3,1.1-2.5,1.7-3.8c0,0.1,0.1,0.2,0.1,0.3c-1.7,4.2-2.2,8.7-2.9,13.1c-0.8,5.7-1.9,11.3-6.2,15.6c0.7-0.3,1.3-0.7,1.8-1.1
			c3.5-3,5-7.1,5.7-11.5c0.4-2.8,0.5-5.6,0.9-8.4c0.5-3.3,1.2-6.6,1.8-9.6c0.1,0-0.2,0.1-0.4,0.2c1-2.1,2-4.3,3-6.4
			c0.4-0.8,0.9-1.5,1.4-2.2c2-2.7,4.7-4.5,7.6-6.2c0.4-0.2,0.8-0.4,1.2-0.6c1.3-0.4,2.5-0.9,3.8-1.3c0.8-0.2,1.6-0.4,2.5-0.5
			c1.9,0,3.8-0.1,5.7-0.1c0.8,0.2,1.6,0.3,2.5,0.5c0.4,0.1,0.8,0.3,1.2,0.4c8.1,2.4,14.1,7,16,15.8c0.1,0.6,0.2,1.1,0.4,1.7
			c0.2,2.1,0.3,4.2,0.5,6.2c-0.4-2-0.8-4-1.2-5.9c-0.8-3.4-1.6-6.8-4.5-9.2c-2.2-1.8-4.6-2.8-7.4-2.6c-1.6,0.1-3.1,0.8-3.6,1.6
			c0,0,0.1,0,0.1,0c0.2-0.1,0.4-0.1,0.6-0.2c2.7-1.3,5.4-1.2,8,0.2c3.4,1.8,5,5,5.9,8.5c0.8,3.2,1.5,6.4,2.2,9.5
			c0,0.7-0.1,1.5-0.1,2.2c-0.1,1.3-0.4,2.6-0.2,3.8c0.3,2,1,4,1.5,6c0.2,2.5,0.6,5,0.5,7.5c0,2.7-0.7,5.3-2.1,7.6
			c-0.1-0.1-0.2-0.2-0.3-0.3c2.2-5.6,2.3-14.8,0.2-18c0,6.7-0.8,13.3-2.2,19.9c-0.1,0.3,0.1,0.7,0.1,1.1c0.1,0.1,0.1,0.1,0.2,0.2
			c-1.1,0.9-1,2.3-1.4,3.4c-0.3,0.8-0.5,1.7-0.8,2.6c-1.8-0.4-3.5-0.7-5.3-1.1c-0.1-2.5-0.2-5-0.5-7.5c-0.1-0.7-0.6-1.3-1-2
			c0-0.1,0.1-0.2,0.1-0.3c0.2,0,0.4,0.1,0.5,0.1c-0.8-7.6-1.7-15.1-2.5-22.5c-0.4,3.6-1,7.4-1.3,11.2c-0.3,3.5,0,7,2.2,10
			c0.1,0.1,0.1,0.3,0.1,0.4c-0.1,0.1-0.3,0.1-0.4,0.2c-0.6-1.1-1.3-2.1-1.8-3.2c-1.3-3.4-1-6.9-0.4-10.4c0.8-5.2,1.1-10.4,0.8-15.6
			c-4.3,0-5.2-3.2-6.1-6.7c-1.1,1.7-2.2,2.9-4.2,3c-2,0.1-3.3-1-4.1-2.9c-1,1.8-2.4,2.9-4.3,2.8c-2-0.1-3.2-1.3-3.9-2.7
			c-1.2,0.6-2.4,1.1-3.5,1.8c-0.3,0.1-0.5,0.5-0.5,0.8c-0.5,7-1,14,0,20.9c0.8,5.7,3.6,9.9,9.4,11.7c0,0.7,0,1.5,0.1,2.2
			C227.8,110.2,227.7,113.1,227.7,116z M239,55.2c0,0-0.1-0.1-0.1-0.1C238.9,55.2,239,55.2,239,55.2c0.1,0.1,0.2,0.2,0.2,0.3
			c1.3,2.1,1.7,4.2,0.5,6.5c0,0.1,0,0.2,0,0.2c0,0-0.1,0.1-0.1,0.1c0,0,0.1-0.1,0.1-0.1c0.4-0.6,0.9-1.2,1.1-1.9
			c0.6-1.9-0.2-4.2-1.6-4.9C239.2,55.4,239.1,55.3,239,55.2z M190,113.8c-0.1,0.1-0.2,0.2-0.2,0.2c0,0-0.1,0-0.1,0c0,0,0,0,0,0.1
			c0,0,0.1-0.1,0.1-0.1C189.8,113.9,189.9,113.8,190,113.8C190,113.7,190.1,113.7,190,113.8c0.1,0,0.1-0.1,0.1-0.1
			C190.1,113.7,190,113.7,190,113.8z M237.8,60.7c0,0,0.1,0.1,0.1,0.1C237.8,60.8,237.8,60.8,237.8,60.7
			C237.8,60.8,237.8,60.8,237.8,60.7c-0.2-0.1-0.3-0.2-0.5-0.2c-0.1-0.1-0.2-0.2-0.2-0.3c-0.2-0.1-0.3-0.2-0.5-0.3c0,0,0-0.1,0-0.1
			c0,0,0,0-0.1,0c0,0,0.1,0.1,0.1,0.1c0.2,0.1,0.3,0.2,0.5,0.3c0.1,0.1,0.2,0.2,0.3,0.2C237.4,60.6,237.6,60.7,237.8,60.7z
			 M190.8,113.3c0.2-0.1,0.3-0.2,0.5-0.3c0.2-0.1,0.3-0.2,0.5-0.2c0.2-0.1,0.3-0.2,0.5-0.2c2.6-0.1,5.2-0.2,7.8-0.2
			c2.5,0,4.7-0.8,6.8-2.1c5.4-3.3,8.2-8.3,9.5-14.3c1.3-5.7,0.7-11.4,0.3-17.1c-0.3-3.5-0.5-7,0.3-10.4c1.6-7,8.6-11.4,15.3-9.9
			c0.4,0.1,0.8,0.2,1.2,0.2c0-0.1,0-0.2,0-0.3c-2-0.6-4-0.9-6.2-0.5c-4.8,0.9-8.2,3.5-10.2,7.9c-2,4.5-1.6,9.3-1.2,14
			c0.4,4.1,0.6,8.3,0.2,12.4c-0.4,4.2-1.5,8.1-3.8,11.6c-2.4,3.8-5.7,6.6-10.2,7.5c-2.1,0.4-4.4,0.2-6.6,0.3
			c-1.2,0.1-2.3,0.5-3.5,0.7c-0.2,0.1-0.3,0.2-0.5,0.2c-0.2,0.1-0.3,0.2-0.5,0.3C191.1,113.1,190.9,113.2,190.8,113.3
			c0,0-0.1,0.1-0.1,0.1C190.7,113.3,190.7,113.3,190.8,113.3z M239.2,63.1c0-0.1,0.1-0.2,0.1-0.3c-1.4-0.5-2.7-1-4.1-1.5
			c-2-0.6-3.9-0.8-6-0.2c-3.6,1.1-6.3,5-5.8,8.8c0.2-0.4,0.3-0.8,0.3-1.2c0.3-2.4,1.3-4.3,3.3-5.7c2.6-1.8,5.3-1.9,8.2-1.1
			C236.6,62.3,237.9,62.7,239.2,63.1z M234.8,59.2c0-0.1,0-0.1,0-0.2c-0.2-0.1-0.4-0.2-0.7-0.2c0,0.2,0.1,0.3,0.2,0.4
			C234.5,59.2,234.7,59.2,234.8,59.2z M203,102.1C203,102.1,202.9,102.1,203,102.1c-0.1-0.1-0.1,0-0.2,0
			C202.8,102.1,202.9,102.2,203,102.1C202.9,102.2,202.9,102.2,203,102.1z"/>
		<path class="st6" d="M375.3,146.7c-17.6-6.9-35.1-13.8-52.9-20.8c0.3-0.9,0.6-2,1-3.1c4.1-10.5,8.3-21.1,12.4-31.6
			c0.2-0.4,0.4-0.7,0.6-1.2c2.1,0.8,4.1,1.6,6.2,2.4c10.7,4.2,21.5,8.4,32.2,12.6c4.5,1.8,8.9,3.6,13.4,5.3c1,0.4,1.1,0.9,0.7,1.8
			c-2.5,6.1-4.9,12.3-7.3,18.4c-2,5-3.9,10.1-5.9,15.1C375.6,146,375.4,146.4,375.3,146.7z"/>
		<path class="st6" d="M189.8,404.3c0.5-0.2,0.9-0.3,1.4-0.6c7.5-3.8,15.1-7.5,22.6-11.3c0.8-0.4,1.3-0.5,1.8,0.5
			c5.5,11,11,22,16.5,33c0.1,0.1,0.1,0.3,0.2,0.4c-3.4,1.7-6.8,3.5-10.2,5.2c-1.8,0.9-3.6,1.8-5.4,2.7c-7.5,3.7-15.1,7.5-22.6,11.2
			c-3.7,1.8-7.4,3.7-11.1,5.5c-0.6,0.3-1.2,0.6-1.8,0.9c-0.2-0.5-0.3-0.9-0.6-1.4c-5.3-10.6-10.6-21.1-15.8-31.7
			c-0.2-0.4-0.4-0.9-0.6-1.4c0.6-0.3,1-0.5,1.4-0.8c7.7-3.8,15.4-7.7,23.1-11.5C188.9,404.8,189.3,404.5,189.8,404.3z"/>
		<path class="st7" d="M412.5,387.7c-1.1-1.7-2.5-3.4-3.2-5.2c-1-2.8-1.8-5.8-2.2-8.7c-0.4-2.8-0.2-5.7-0.1-8.5
			c0.1-2.2,0.3-4.5,0.5-6.7c0.3-2.3,0.7-4.6,1-6.9c0.2-1.3,0.2-2.6,0.3-3.9c0.1-0.9,0.2-1.7,0.2-2.6c0.1-4.7-0.8-9.3-2-13.8
			c-0.8-2.8-1.6-5.6-1.9-8.4c-0.4-4,0.1-8,2.6-11.4c1.8-2.4,4.3-3.6,7.3-3.8c7.6-0.5,12.5,3.6,15.9,9.8c3.5,6.2,5.5,12.9,6.5,19.9
			c0.5,3.4,0.9,6.8,0.9,10.2c-0.1,10.8-3,20.8-9.9,29.3c-3.8,4.8-8.6,8.3-14.3,10.4c-0.2,0.1-0.5,0.1-0.7,0.2
			c0.1-0.2,0.1-0.4,0.2-0.6c1.2-4.1,2.7-8.1,3.6-12.3c0.9-4.1,1.6-8.3,2-12.5c0.4-4.6,0.6-9.3,0.5-14c-0.1-5.7-0.5-11.4-0.7-17.2
			c-0.1-1.4-0.3-2.8-0.4-4.3c-0.1,0-0.2,0-0.4,0c0.1,0.6,0.2,1.2,0.3,1.8c0.3,5.1,0.7,10.2,0.7,15.3c0,5.7-0.1,11.5-0.5,17.2
			c-0.3,4.4-1,8.8-2,13.1C415.6,378.7,413.9,383.2,412.5,387.7z"/>
		<path class="st2" d="M402.2,287.8c0-0.3-0.1-0.6-0.1-0.9c0-13.4-0.1-26.8-0.1-40.2c0-0.2,0-0.3,0-0.5c3.7,1.5,7.4,3,11.1,4.4
			c7.6,3,15.1,6,22.7,9c2.4,0.9,4.7,1.8,7.2,2.8c-4.7,12-9.4,24-14.1,35.8C420,294.7,411.1,291.3,402.2,287.8z"/>
		<path class="st8" d="M204.5,178.5c-0.7,0.8-1.5,1.6-2.2,2.4c-0.4,0.2-0.8,0.4-1.2,0.6c-2.6,1.6-5.3,2.6-8.3,2.3
			c-2.1-0.2-4.2-0.8-6.3-1.3c-0.8-0.4-1.6-0.8-2.5-1.2c-0.3-0.4-0.5-0.7-0.8-1.1c-0.5-0.5-1.1-0.9-1.5-1.5c-1.1-1.8-2.2-3.7-3.2-5.5
			c-0.1-0.2-0.2-0.5-0.3-0.7c-2.6-6.4-5.2-12.8-7.7-19.3c-0.2-0.4-0.3-0.7-0.5-1.1c-0.1-0.4-0.2-0.9-0.4-1.3
			c-1.7-4.3-3.4-8.6-5.2-12.9c-0.9-2.2-1.8-4.3-2.7-6.5c2.7-1.5,5.4-3.1,8.1-4.6c2.9-1.7,3.1-1,1.8-4.7c-1.2-3.4-2.2-6.8-3.4-10.3
			c0.1-2.7,0.6-5.3,2-7.6c0-0.1,0.1-0.1,0.1-0.2c0.7,0,1.6-0.3,1.9,0c0.4,0.4,0.3,1.3,0.3,2c-0.1,0.9-0.3,1.8-0.5,2.7c0,1,0,2,0,3
			c0.8,3.3,1.4,6.8,2.6,10c1.6,4.3,3.7,8.4,5.6,12.6c2.7,6,5.4,12,8.2,18.1c1.4,3.1,2.8,6.1,4.2,9.2c0.3-0.5,0.6-1,0.9-1.4
			c1.3,0.6,2.5,0.9,4,0.6c1.7-0.3,3.1,0.4,3.8,1.9c1,2.1,2.7,2.8,4.8,3c1.6,0.1,3.1,0.3,4.7,0.5c0.2,0,0.4,0.3,0.6,0.5
			C209,170.7,206.8,174.6,204.5,178.5z M192.7,162.3C192.7,162.2,192.7,162.2,192.7,162.3c-0.1-0.1-0.1-0.1-0.1-0.1
			C192.7,162.2,192.7,162.2,192.7,162.3c0.1,0.3,0.1,0.7,0.2,0.9c1.4,3.1,2.1,6.3,2,9.6c0,0.7-0.1,1.3-0.2,2.2
			c0.8-1.7,1-5.1,0.3-7.4C194.5,165.8,193.6,164,192.7,162.3z"/>
		<path class="st7" d="M447.5,394.7c-0.5,1.3-1.1,2.6-1.5,3.9c-1.2,4.4-3.1,8.5-6.4,11.7c-3.3,3.3-7.2,5.4-11.7,6.4
			c-4.4,1-8.7,0.4-12.9-1c-0.4-0.1-0.7-0.3-1.1-0.5c0.1-0.4,0.2-0.8,0.4-1.2c3.4-9.8,9.2-18,17.2-24.6c0.9-0.7,1.6-1.5,2.4-2.2
			c1.6-1,3.2-2,4.7-3c0.2-0.1,0.3-0.2,0.5-0.3c0.2-0.1,0.3-0.2,0.5-0.3c0.2-0.1,0.3-0.2,0.5-0.2c0.1,0,0.2-0.1,0.3-0.1
			c0,0,0-0.1-0.1-0.1c-0.1,0.1-0.2,0.1-0.3,0.2c-0.2,0.1-0.3,0.2-0.5,0.3c-0.2,0.1-0.3,0.2-0.5,0.2c-0.2,0.1-0.3,0.2-0.5,0.2
			c-1.6,1-3.2,2-4.8,3c-0.5,0.3-1.1,0.5-1.5,0.9c-2.9,2.6-5.8,5.2-8.5,8c-3.6,3.8-6.3,8.2-8.4,13c-0.7,1.6-1.4,3.3-2.1,4.9
			c-1.7-2.1-2.4-4.5-2.6-7.1c-0.5-7.8,2.4-14.2,8-19.5c5.2-4.9,11.5-7.5,18.3-9.1c4.2-0.9,8.4-1.2,12.6-0.8
			c4.9,0.5,9.6,1.5,14.1,3.7c-0.8,0-1.7,0-2.5,0.2c-4.4,0.9-8.2,3-10.9,6.6C449.1,390,447.8,392.1,447.5,394.7z"/>
		<path class="st9" d="M262,171.8c2.6-0.5,4.4-2,6-3.9c2.9-3.4,6.4-4.2,10.5-2.6c0.7,0.3,1.4,0.6,2.1,0.8c0.6,2,1.2,4,1.9,6
			c0.8,2.2,1.4,4.3,1.3,6.6c-0.1,0.6-0.2,1.2-0.2,1.8c-0.6,4.9-5,9.6-10.2,10.6c-3.5,0.7-7.1,1-10.7,1.6c-0.7,0.1-1.6-0.1-1.7,1
			c-3.2,0.3-6.5,0.6-9.7,1c-6.7,0.8-13.4,1.6-20.1,2.4c-5.6,0.7-11.1,1.5-16.7,2.2c-0.5,0.1-1.1,0.1-1.6,0.1
			c0.2-0.2,0.4-0.5,0.6-0.7c0.4-0.4,0.9-0.9,1.3-1.3c1.9-1.6,3.8-3.2,5.8-4.7c3.7-3,8.2-4.1,12.7-5.5c8.9-2.8,17.7-5.8,26.5-8.8
			c0.1,0,0.2-0.2,0.3-0.2c0.9-0.3,1.9-0.6,2.8-0.9c0.6-0.2,0.7-0.5,0.5-1.1C262.9,174.8,262.4,173.3,262,171.8z M274,177.9
			c-2.1-1.7-8-2.3-10.1-0.8C267.4,176.8,270.7,176.8,274,177.9z"/>
		<path class="st7" d="M398.7,387c-1.3,0.1-2.7,0.4-4,0.4c-3.4,0-6.2-1.4-8.7-3.5c-2.8-2.3-4.8-5.4-7.1-8.2
			c-0.1-0.2-0.4-0.3-0.6-0.4c-0.2-0.5-0.3-1.1-0.7-1.5c-1.5-1.6-2.9-3.3-4.5-4.8c-3.9-3.8-10-4.5-14.7-1.7c-0.6,0.4-1.2,0.7-1.8,1
			c0.8-2.2,2.4-3.9,4.1-5.4c3-2.6,6.5-4.5,10.4-5.4c3.1-0.7,6.3-1.1,9.4-1.4c2.8-0.3,5.6-0.3,8.5-0.3c3.6,0.1,7,0.8,9.9,3.3
			c1.7,1.4,2.8,3.3,3.6,5.3c1.6,4.1,2.6,8.3,2.4,12.7c-0.2,4-1.5,7.4-5.3,9.5c-0.7-3.5-1.6-6.9-3.1-10.2
			c-3.1-6.8-7.5-12.5-13.8-16.6c-0.4-0.2-0.8-0.3-1.3-0.5c-0.3-0.3-0.6-0.6-0.9-0.8c-0.1,0.3-0.1,0.5,0,0.5c0.3,0.1,0.6,0.2,0.9,0.4
			c0.1,0.1,0.3,0.3,0.4,0.4c3.1,1.9,5.7,4.3,8,7.1C394.5,372.7,397.6,379.4,398.7,387z"/>
		<path class="st10" d="M52.2,467c-3.2,0-6.5,0-9.7,0c-0.2,0-0.5,0-0.7-0.1c-0.1-0.1-0.1-0.1,0-0.2c3.3,0,6.7,0,10-0.1
			c0.3,0,0.7,0,1,0c11.3,0,22.6,0,33.9,0c2.5,0,5.1-0.1,7.6-0.2c0.3,0.1,0.6,0.1,0.9,0.2c0.2,0,0.5,0,0.7,0c0.2,0,0.4-0.1,0.6-0.1
			c0.5,0,0.9,0.1,1.4,0.1c19.4,0,38.8,0,58.2,0c61.8,0,123.6-0.1,185.4-0.1c16.9,0,33.7,0.1,50.6,0.1c0.5,0,1.1,0,1.8,0
			c-0.5-2.3-1-4.4-1.4-6.5c-0.5-2.6-1.1-5.2-1.6-7.8c0.4,0.2,0.8,0.5,1.2,0.7c0.2,0.1,0.3,0.2,0.5,0.3l0,0c0.5,0.2,0.9,0.6,1.4,0.7
			c3,0.6,6,0.5,8.9-0.5c1.8-0.6,3.6-1.4,5.4-1.9c3.5-1,7-0.9,10.4,0.7c0.4,0.2,0.9,0.3,1.4,0.5l0,0c0.1,0.1,0.2,0.2,0.3,0.3l0,0
			c0.2,0.1,0.3,0.2,0.5,0.3l0,0c0.1,0.1,0.2,0.2,0.3,0.3c0.3,0.2,0.6,0.3,0.9,0.5c-0.4,2.4-0.9,4.8-1.3,7.1
			c-0.3,1.8-0.7,3.6-1.1,5.6c13.3,0,26.4,0,39.5,0c0.1,0.1,0.1,0.1,0,0.2c-7.3,0-14.6,0-21.9,0c-0.5,0-0.9,0-1.4,0
			c-0.7,0-1.3,0-2,0.1c-4.3,0-8.7,0-13,0c-5.2,0-10.5,0-15.7,0c-4.5,0-9,0-13.6,0c-1.7,0-3.3,0-5,0c-90,0-180,0-270,0
			c-0.6,0-1.2,0-1.7,0.1c-1.1,0-2.2-0.1-3.3-0.1c-4.8,0-9.7,0-14.5,0c-1.2,0-2.3,0-3.5,0c-1.7,0-3.3,0-5,0c-0.5,0-1,0-1.5,0
			c-6.9,0-13.8,0-20.7,0c-0.7,0-1.3,0-2-0.1c-3.4,0-6.8,0-10.2,0C53.4,467,52.8,467,52.2,467z M420.5,455.3c0.1,0.1,0.2,0.2,0.4,0.3
			c-0.1-0.1-0.2-0.3-0.2-0.4c-0.2-0.1-0.4-0.3-0.6-0.4c-0.2-0.1-0.3-0.3-0.5-0.4c-4.2-2.7-8.6-2.6-13.2-1c-2.4,0.8-4.7,1.7-7.1,2.3
			c-1.5,0.4-3.1,0.4-4.7,0.5c1.2,0.3,2.4,0.5,3.6,0.2c3-0.7,5.9-1.6,8.8-2.5c4.5-1.5,8.7-1.3,12.8,1.2
			C420.1,455,420.3,455.1,420.5,455.3z"/>
		<path class="st5" d="M434,387.3c-0.8,0.7-1.6,1.5-2.4,2.2c-8.1,6.6-13.8,14.7-17.2,24.6c-0.1,0.4-0.2,0.8-0.4,1.2
			c-0.8,3.5-1.7,7.1-2.5,10.6c-0.4,1.9-0.6,3.9-0.9,6c6.5,0,12.9,0,19.4,0c0,3,0,5.8,0,8.6c0,0.2-0.4,0.3-0.7,0.5
			c-2.1-0.1-4.2-0.4-6.3-0.4c-12.4,0-24.8,0-37.2,0c-0.4,0-0.7,0.2-1.1,0.4c-0.5,0-1,0-1.7,0.1c-0.4-3-0.7-6-1.1-9.1
			c9.5,0,18.8,0,28.1,0c0.6-3.4,1-6.7,1.6-9.9c0.5-2.7,1.2-5.3,1.8-8c0.7-1.6,1.4-3.3,2.1-4.9c2.1-4.8,4.8-9.2,8.4-13
			c2.7-2.8,5.6-5.4,8.5-8C432.9,387.7,433.5,387.5,434,387.3C434,387.2,434,387.3,434,387.3z"/>
		<path class="st3" d="M124,405.6c0,1.3-0.1,2.6-0.1,3.8c-2.5,5.5-5.8,10.4-9.7,14.9c-1.4,1.6-3.3,3-5.2,4c-2.6,1.3-5.4,1.7-8-0.3
			c0.1-0.4,0.3-0.8,0.4-1.2c2.5-5.7,5.9-10.7,10.4-14.9c0.1-0.1,0.3-0.2,0.4-0.4c0.2-0.1,0.3-0.3,0.5-0.4c0-0.1-0.1-0.1-0.1-0.2
			c-0.2,0.1-0.3,0.2-0.5,0.4c-0.1,0.1-0.3,0.2-0.4,0.4c-1.7,1.8-3.7,3.4-5.1,5.4c-2.2,3.2-4.1,6.7-6.1,10.1
			c-0.2-0.3-0.4-0.5-0.6-0.8c-2-4.1-1.4-8.1,1-11.7c3.9-5.9,9.5-9.5,16.2-11.3C119.8,402.5,122.3,403,124,405.6z"/>
		<path class="st5" d="M356.5,368.3c0.6-0.3,1.2-0.7,1.8-1c4.7-2.8,10.8-2.1,14.7,1.7c1.6,1.5,3,3.1,4.5,4.8c0.4,0.4,0.5,1,0.7,1.5
			c-1.5,2.1-3,4.2-4.6,6.3c-1.4,1.8-3,3.5-5.1,4.4c-3.2,1.4-6.3,0.9-9.2-1c-2.8-1.9-4.2-4.7-4.9-8
			C353.8,373.6,354.8,370.9,356.5,368.3z"/>
		<path class="st11" d="M94,399.3c0.1,0.3,0.2,0.6,0.4,0.9c0.6,1.8,1.2,3.6,1.9,5.4c0,0.1,0,0.2,0.1,0.3c0.4,3,0.8,5.9,1.1,8.9
			c0.2,2.5,0,5-1.1,7.3c-0.6,1.4-1.4,2.7-3.1,3.1c-1.1-6.2-2.1-12.3-4-18.6c1.1,6.4,2.2,12.6,3.3,18.7c-0.7-0.1-1.4,0-2.1-0.2
			c-2.8-0.7-4.2-2.8-5.1-5.3c-1-3.1-1.8-6.3-2.7-9.5c-0.1-0.7-0.2-1.5-0.4-2.2c0-2.8,0-5.5,0.1-8.3c0.1-0.3,0.2-0.7,0.3-1
			c0.3-0.6,0.5-1.3,0.8-1.9c1.5-2.9,4-3.9,6.9-2.9c0,0.1,0.1,0.1,0.1,0.1c0.6,0.6,1.2,1.2,1.8,1.8c0.1,0.1,0.2,0.3,0.3,0.4
			C93,397.4,93.5,398.4,94,399.3z M88.9,406.4c0-0.1,0.1-0.1,0.1-0.2c0,0-0.1,0-0.1,0C88.8,406.3,88.8,406.3,88.9,406.4z"/>
		<path class="st5" d="M422,454c-0.3-0.2-0.6-0.3-0.9-0.5c-0.1-0.1-0.2-0.2-0.3-0.3c0,0,0,0,0,0c-0.2-0.1-0.3-0.2-0.5-0.3
			c0,0,0,0,0,0c-0.1-0.1-0.2-0.2-0.3-0.3l0,0c-0.3-0.2-0.6-0.5-1-0.7c-4.5-2.4-9.1-2-13.7-0.2c-2.9,1.1-5.8,2.2-9,1.9
			c-1.3-0.1-2.5-0.3-3.8-0.5c0,0,0,0,0,0c-0.2-0.1-0.3-0.2-0.5-0.3c-0.4-0.2-0.8-0.5-1.2-0.7c-0.1-0.5-0.2-1-0.4-1.5
			c0.5,0.1,1,0.2,1.5,0.3c0-0.1,0.1-0.2,0.1-0.3c-0.6-0.2-1.1-0.3-1.7-0.5c-0.7-3.1-1.4-6.2-2-9.3c5.7,0.1,11.4,0.2,17.1,0.2
			c6,0,12-0.1,17.9-0.2c0.4,0,0.8,0.3,1.2,0.5c-0.5,2.8-1.1,5.6-1.6,8.4C422.6,451.3,422.3,452.6,422,454z M392.9,451.2
			c0,0.1,0,0.2,0,0.3c2.1,0.6,4.3,1.1,6.4,0.6c2.7-0.6,5.5-1.4,8.1-2.4c4.3-1.5,8.4-1,12.4,1.1c0.2,0.1,0.5,0.3,0.7,0.4
			c-0.1-0.4-0.3-0.7-0.6-0.8c-2.6-1.6-5.5-2.6-8.6-2.1c-2.6,0.4-5.2,1.2-7.8,2.1c-2.8,1-5.5,1.5-8.4,1.1
			C394.3,451.4,393.6,451.3,392.9,451.2z M421.1,451.2c0,0.1-0.1,0.1-0.1,0.2c0.1,0.1,0.3,0.3,0.4,0.4c0,0,0.1-0.1,0.1-0.1
			C421.4,451.5,421.2,451.4,421.1,451.2z"/>
		<path class="st5" d="M447.5,394.7c0.3-2.6,1.6-4.7,3.1-6.7c2.8-3.6,6.5-5.7,10.9-6.6c0.8-0.2,1.7-0.1,2.5-0.2
			c4.5,1.7,8.4,4.1,10,9c1.3,4-1.4,6.9-5,7.8c-3.8,0.9-7.2-0.3-10.6-1.7c-2.9-1.2-5.8-2.2-9-2C448.8,394.3,448.1,394.5,447.5,394.7z
			"/>
		<path class="st3" d="M70.5,443.1c0-0.5,0-1.1,0-1.6c0.6-2.3,2.2-3.5,4.4-4.1c1.4-0.4,2.9-0.6,4.4-0.8c0.5,0,1,0,1.5,0
			c0.3,0,0.5,0,0.8,0c0.2,0,0.5,0.1,0.7,0.1c0.5,0,1,0.1,1.5,0.1c0.2,0.1,0.5,0.1,0.7,0.2c2.2,0.6,4.2,1.4,5.8,3.1c0,0,0,0.1,0,0.1
			c1.3,2.3,2,4.7,1.1,7.3c-1.4-2.1-2.8-4.2-5.2-5.5c-1-0.5-2-0.8-3-1.2c-0.1,0.1-0.1,0.2-0.2,0.3c3.8,1.2,6.3,3.7,7.9,7.2
			c-0.8,0.5-1.5,1.1-2.3,1.6c-0.6,0-1.1,0-1.7,0c-0.9-0.8-1.9-1.5-2.8-2.3c-1-1-2.2-1.8-3.7-1.9c-1.5-0.1-3.1-0.1-4.6-0.1
			c-0.7,0-1.3,0-2,0C72.4,445.4,71.1,444.8,70.5,443.1z"/>
		<path class="st3" d="M282.5,161.3c-0.2,0.1-0.4,0.2-0.6,0.2c-2.1,0.8-4,0.3-6-0.6c-2.5-1.1-4.9-0.6-7,1.1c-1.2,0.9-2.2,2-3.3,3
			c-2.6,2.5-5.6,2.9-8.8,1.4c-0.5-1.7-1-3.4-1.6-5.1c3.1,1.2,5.8,0.3,8.3-1.6c1.2-0.9,2.4-1.9,3.6-2.7c2.4-1.7,4.8-2.3,7.6-1.1
			c0.7,0.3,1.4,0.5,2.2,0.5c0.9,0,2,0.1,2.4-1.2c0,0,0,0,0,0c0.2,0,0.3,0,0.5,0C280.7,157.2,281.6,159.2,282.5,161.3z"/>
		<path class="st12" d="M283.5,180.6c0.1-0.6,0.2-1.2,0.2-1.8c4.7,0.1,9.3,0.1,14,0.1c14.9,0.1,29.8,0.1,44.7,0.1
			c10.3,0,20.7,0.1,31,0.3c4.7,0,9.3,0.2,14,0.2c0,0.1,0,0.2,0,0.4c-7.8,0.1-15.6,0.2-23.5,0.3c-10.9,0.1-21.8,0.1-32.7,0.2
			c-4.2,0-8.5,0.1-12.7,0.1C306.8,180.5,295.2,180.5,283.5,180.6z"/>
		<path class="st10" d="M168.2,111.9c1.1,3.4,2.2,6.8,3.4,10.3c1.3,3.7,1.1,3.1-1.8,4.7c-2.7,1.5-5.4,3.1-8.1,4.6
			c-0.5,0.3-0.9,0.5-1.4,0.8c-0.3-0.1-0.7-0.2-1-0.3c-0.6-1.7-1.3-3.4-1.9-5c-0.8-2.2-1.5-4.4-2.3-6.7c0.7,0.1,1.2,0.1,1.7,0.2
			c1,2.9,2,5.7,3.1,8.7c3.8-2,7.6-4,11.3-6c-3-8.5-5.9-16.9-8.8-25.4c-4.1,1.6-8.1,3.2-12.2,4.8c0.9,2.5,1.7,4.8,2.6,7.1
			c-0.6-0.1-1.1-0.2-1.7-0.2c-0.8-2.2-1.7-4.4-2.5-6.6c-0.1-0.4-0.2-0.9-0.2-1.3c0.3-0.3,0.5-0.7,0.8-0.8c4.1-1.7,8.3-3.3,12.5-5
			c0.6-0.2,1-0.1,1.2,0.6c0.3,0.9,0.6,1.7,1,2.5c0.2,0.7,0.4,1.3,0.6,2c0.5,1.5,1,3,1.5,4.5c0.2,0.5,0.3,1,0.5,1.5
			C167,108.4,167.6,110.1,168.2,111.9z"/>
		<path class="st13" d="M93.1,425.3c0.8,6.8,1.5,13.5,2.3,19.9c0.5-2.4,1-5.3,1.8-8.1c1-3.3,2.2-6.6,3.3-9.9c2-3.4,3.8-6.9,6.1-10.1
			c1.4-2,3.4-3.6,5.1-5.4c0.1,0.1,0.1,0.1,0.2,0.2c-4.5,4.2-7.9,9.3-10.4,14.9c-0.2,0.4-0.3,0.8-0.4,1.2c-0.3,0.8-0.6,1.5-1,2.3
			c-0.1,0.3-0.2,0.7-0.4,1c-0.6,1.8-1.1,3.5-1.7,5.3c-0.1,0.3-0.2,0.6-0.3,1c-0.5,2.3-1,4.5-1.5,6.8c-0.1,0.7-0.2,1.3-0.3,2
			c0,0.4-0.1,0.9-0.1,1.3c0,0.2-0.1,0.3-0.1,0.5c0,2.3,0.1,4.5,0.1,6.8c0,0.3,0,0.7,0,1c0,0.4,0,0.8,0,1.3c0,0.3,0,0.7,0,1
			c0,0.6,0,1.2,0,1.8c0,0.7-0.1,1.3-0.1,2c0,0.6,0,1.2,0,1.8c0,0.2,0,0.5,0,0.7c0.1,0.8,0.2,1.6,0.3,2.4c-0.2,0-0.5,0-0.7,0
			c0-0.8,0-1.6,0-2.4c-0.1-0.4-0.1-0.8-0.2-1.3c0-0.3,0-0.7-0.1-1c-0.2-1.2-0.3-2.5-0.5-3.7c-0.5-1.7-0.9-3.4-1.4-5.1
			c0-0.1,0-0.1,0-0.2c-0.7-1.5-1.3-3.1-2-4.6c-1.6-3.5-4.1-6.1-7.9-7.2c0.1-0.1,0.1-0.2,0.2-0.3c1,0.4,2.1,0.7,3,1.2
			c2.3,1.2,3.8,3.3,5.2,5.5c1.2,3.2,2.5,6.3,3.7,9.5c0,0,0.1,0,0.1,0c-0.2-3.2-0.4-6.3-0.5-9.5c-0.2-2.5-0.4-5-0.6-7.6
			c-0.6-4.8-1.1-9.6-1.7-14.4c-1.1-6.2-2.2-12.3-3.3-18.7C91,413,92.1,419.2,93.1,425.3z M95,458.4c0.1,0,0.1,0,0.2-0.1
			c0-0.2-0.1-0.5-0.1-0.7c-0.1,0-0.1,0-0.2,0C95,457.9,95,458.1,95,458.4z"/>
		<path class="st13" d="M412.5,387.7c1.4-4.5,3.1-9,4.2-13.7c1-4.3,1.7-8.7,2-13.1c0.4-5.7,0.5-11.5,0.5-17.2
			c0-5.1-0.5-10.2-0.7-15.3c0-0.6-0.2-1.2-0.3-1.8c0.1,0,0.2,0,0.4,0c0.1,1.4,0.3,2.8,0.4,4.3c0.3,5.7,0.7,11.4,0.7,17.2
			c0.1,4.7-0.1,9.4-0.5,14c-0.4,4.2-1,8.4-2,12.5c-0.9,4.2-2.4,8.2-3.6,12.3c-0.1,0.2-0.1,0.4-0.2,0.6c-1.3,3.5-2.6,6.9-3.9,10.4
			c-2.3,6.4-4.3,12.8-5.3,19.5c-0.2,1.3-0.3,2.6-0.4,3.8c-0.1,0-0.3,0-0.4,0c0.1-4.6,1-9,2.3-13.4c0.8-2.9,1.6-5.8,2.6-8.6
			C409.7,395.4,411.1,391.6,412.5,387.7z"/>
		<path class="st3" d="M184,181.2c0.8,0.4,1.6,0.8,2.5,1.2c-3.8,2.4-5.6,5.9-5.7,10.3c0,2,0,4,0,6c-0.8,0.1-1.6,0.1-2.5,0.2
			c0-0.2,0-0.4,0-0.7c0.1-2.8,0.2-5.7,0.3-8.5C179.4,186.3,181.1,183.4,184,181.2z"/>
		<path class="st10" d="M398.7,387c-1.1-7.6-4.2-14.3-9.1-20.3c-2.3-2.8-4.9-5.2-8-7.1c-0.2-0.1-0.3-0.3-0.4-0.4l0,0
			c0.4,0.1,0.9,0.2,1.3,0.5c6.3,4.1,10.7,9.8,13.8,16.6c1.5,3.3,2.4,6.7,3.1,10.2c0.3,2.9,0.7,5.9,1,8.8c0.2,2.5,0.4,4.9,0.6,7.4
			c0.3,6.4,0.5,12.8,0.7,19.1c0,0.2-0.1,0.5-0.3,0.7c-0.1-1-0.3-2-0.3-3c-0.1-3.5-0.1-6.9-0.3-10.4c-0.2-3.3-0.5-6.6-0.8-9.9
			c-0.2-2.2-0.2-4.4-0.5-6.6C399.3,390.8,399,388.9,398.7,387z"/>
		<path class="st8" d="M156.7,120.3c-0.5-0.1-1-0.1-1.7-0.2c0.8,2.4,1.6,4.6,2.3,6.7c-1.8-1.6-4.3-2.6-4.9-5.3
			c-0.1-1.1-0.2-2.2-0.3-3.2c0-0.2,0-0.5,0-0.7c0.6-0.1,1.1-0.2,1.7-0.2c2.1,0.2,4.2,0.4,6.3,0.7c0.8,1.2,0.4,2-0.9,2.2
			c-0.4,0.1-0.9,0-1.3,0C157.6,120.2,157.1,120.2,156.7,120.3z"/>
		<path class="st14" d="M424.5,441.5c-0.4-0.2-0.8-0.5-1.2-0.5c-6,0-12,0.2-17.9,0.2c-5.7,0-11.4-0.1-17.1-0.2
			c-1.2,0-2.4-0.1-3.6-0.1c0.4-0.1,0.7-0.4,1.1-0.4c12.4,0,24.8,0,37.2,0c2.1,0,4.2,0.3,6.3,0.4
			C427.7,441.1,426.1,441.3,424.5,441.5z"/>
		<path class="st14" d="M403.6,421.2c0.1,0,0.3,0,0.4,0c0,3.4,0,6.8,0,10.3C403.5,428,402.8,424.7,403.6,421.2z"/>
		<path class="st15" d="M401.6,422.6c0,2.9,0,5.8,0,8.8c-0.1,0-0.1,0-0.2,0c0-2.9,0-5.8,0-8.7C401.5,422.6,401.6,422.6,401.6,422.6z
			"/>
		<path class="st15" d="M41.8,467c-0.5,0-1,0.1-1.5,0.1c-1.4,0-2.8,0-4.2,0c-1.1,0-2.2,0-3.2,0c0,0-0.1,0-0.1,0c0,0-0.1-0.1-0.1-0.2
			c0.6,0,1.1-0.1,1.7-0.1c2,0,4,0,6,0c0.5,0,1,0.1,1.5,0.1C41.7,466.8,41.7,466.9,41.8,467z"/>
		<path class="st15" d="M459,467c0.1-0.1,0.1-0.1,0-0.2c3,0,6,0,9.1,0c0,0.1,0,0.1,0,0.2C465,467,462,467,459,467z"/>
		<path class="st16" d="M387.4,179.9c0-0.1,0-0.2,0-0.4c0.8,0,1.7,0.1,2.5,0.1c0,0.1,0,0.2,0,0.3C389.1,180,388.3,179.9,387.4,179.9
			z"/>
		<path class="st10" d="M390.3,450.2c0.6,0.2,1.1,0.3,1.7,0.5c0,0.1-0.1,0.2-0.1,0.3c-0.5-0.1-1-0.2-1.5-0.3
			C390.4,450.6,390.4,450.4,390.3,450.2z"/>
		<path class="st5" d="M258.4,107.9c-0.3,0.6-0.7,1.1-1,1.7c-0.1-0.1-0.2-0.2-0.3-0.3c0.3-0.6,0.7-1.2,1-1.7
			C258.2,107.7,258.3,107.8,258.4,107.9z"/>
		<path class="st5" d="M257,110c-0.1,0.2-0.3,0.4-0.4,0.6c-0.1-0.1-0.2-0.2-0.2-0.3c0.1-0.2,0.3-0.4,0.4-0.6
			C256.9,109.9,257,110,257,110z"/>
		<path class="st17" d="M279.8,155.2c-0.2,0-0.3,0-0.5,0c0.1-0.1,0.2-0.2,0.3-0.2C279.6,155.1,279.7,155.2,279.8,155.2z"/>
		<path class="st5" d="M257.4,109.6c-0.1,0.1-0.3,0.2-0.4,0.4c-0.1-0.1-0.1-0.1-0.2-0.2c0.1-0.1,0.2-0.3,0.3-0.4
			C257.2,109.5,257.3,109.6,257.4,109.6z"/>
		<path class="st5" d="M256.6,110.7c-0.1,0.1-0.1,0.1-0.2,0.2c-0.1-0.1-0.1-0.1-0.2-0.2c0.1-0.1,0.1-0.2,0.2-0.3
			C256.5,110.5,256.6,110.6,256.6,110.7z"/>
		<path class="st18" d="M129.7,244.5c3,0,5.9,0,8.9,0c12.6,0,25.2-0.1,37.7,0c6.4,0,12.9,0.4,19.3,0.5c4.8,0.1,9.7,0.2,14.5,0.3
			c5.9,0.1,11.7,0.2,17.6,0.3c4.7,0.1,9.4,0.2,14.1,0.2c6,0.1,12.1,0.2,18.1,0.3c5.3,0.1,10.6,0.2,15.9,0.3c1.9,0,3.7,0.2,5.6,0.2
			c0.4,0,0.8-0.3,1.2-0.5c4.6-0.2,9.1-0.3,13.7-0.5c4.9-0.2,9.8-0.5,14.7-0.8c0.3,4.3-3.2,8-7.5,9.2c-3.2,0.9-6.5,0.9-9.8,0.8
			c-3.7-0.1-7.5,0.2-11.2,0.4c-2.4,0.1-4.9,0.3-7.3,0.5c-3.8,0.4-7.7,0.8-11.5,1.3c-4.5,0.6-9.1,1.4-13.6,2.2
			c-5.5,0.9-11,1.9-16.5,2.8c-4.7,0.8-9.3,1.5-14,2.2c-4.8,0.7-9.7,1.2-14.5,1.7c-1.3,0.1-2.6,0.2-3.8,0.3c-4.5,0.1-9,0.4-13.5,0.2
			c-9.4-0.3-18.7-1.6-27.8-4.5c-7.1-2.3-14-5.2-20.1-9.4C136.3,250.2,133.1,247.2,129.7,244.5z"/>
		<path class="st2" d="M400.2,286.8c-2.6-1-5.2-1.9-7.8-3c-4.9-1.9-9.7-3.8-14.6-5.7c-0.5-0.2-1.1-0.3-1.9-0.5
			c0.4-1.1,0.8-2.2,1.2-3.2c4.2-10.6,8.4-21.2,12.5-31.8c0.3-0.8,0.7-0.8,1.4-0.5c2.6,1,5.2,2,7.8,3c0.5,0.2,1,0.3,1.5,0.5
			c0,2.3,0.1,4.6,0.1,6.9c0,8.4-0.1,16.7-0.2,25.1C400.2,280.5,400.2,283.6,400.2,286.8z"/>
		<path class="st19" d="M311,244.8c-4.9,0.3-9.8,0.6-14.7,0.8c-4.6,0.2-9.1,0.3-13.7,0.5c0-4.2,0-8.3,0.1-12.5
			c1.7-0.1,3.4-0.2,5.2-0.2c0.4,0,0.8,0.2,1.2,0.3c1.5,3.6,6.3,5.3,8.7,3.2c-4.1,0.8-6.8-0.3-8.3-3.2c1-1,2.1-0.8,3.2-0.3
			c1.2,0.6,2.4,1.3,3.6,1.9c0.9,0.5,1.8,1.3,2.8,1.4c2.3,0.4,4.7,0.5,7,0.8c1.8,0.2,3.6,0.5,5.4,0.7c-0.1,0.1-0.1,0.2-0.2,0.2l0,0
			c-1.8,1.7-1.2,4.8,1.2,6.1C312,244.6,311.5,244.7,311,244.8z"/>
		<path class="st19" d="M312.6,238.3c0.4,0.3,0.7,0.5,1.1,0.8c1.8,1.2,2.4,2.8,1.7,5.1c-0.8,0.1-1.6,0.3-2.4,0.4
			c-1.5-0.8-2.2-2-2.3-3.6c0-0.8,0.3-1.6,0.4-2.4c0,0,0,0,0,0c0-0.1,0.1-0.2,0.1-0.2C311.8,238.3,312.2,238.3,312.6,238.3z"/>
		<path class="st7" d="M311.3,238.5c-0.2,0.8-0.5,1.6-0.4,2.4c0,1.6,0.8,2.9,2.3,3.6c-0.2,0-0.4,0-0.6,0
			C310.1,243.3,309.4,240.2,311.3,238.5z"/>
		<path class="st14" d="M211.5,199c0.6-0.1,1.3-0.1,1.9-0.2c-0.2,0.2-0.4,0.5-0.6,0.7c-2.9,0.7-5.9,1.2-8.8,2
			c-5.8,1.6-11.4,4-16.2,7.7c-6,4.5-9.7,10.5-11.1,17.9c-0.8,4.1-0.6,8.1,0.4,12.1c0.1,0.4,0.1,0.8,0.1,1.2
			c-2.3-6.8-1.8-13.4,0.9-20.2c-11.1-3.2-22.1-6.5-33.8-4.3c0.5-0.1,1.1-0.3,1.6-0.4c5.9-1.1,11.9-0.8,17.8,0.4
			c2.1,0.4,4.1,0.8,6.2,1.1c0,0,0,0.1,0,0.1c0,0,0,0,0.1,0c0,0-0.1-0.1-0.1-0.1c0.1-0.1,0.2-0.2,0.2-0.3c1.5,1.5,3.7,1.3,5.5,2.1
			c0.1,0.1,0.3,0.1,0.5,0.1c2.3,0.7,2.3,0.7,3.4-1.4c3-5.5,7.7-9.3,13.1-12.2c5.4-2.9,11.2-4.5,17.2-5.8
			C210.4,199.4,210.9,199.2,211.5,199z"/>
		<path class="st14" d="M269,231c1.8,0.4,3.5,0.7,5.3,1.1c-0.9,0-1.8,0-2.7-0.1c-10.5-1.5-20.8-3.5-31-6.2c-6.4-1.7-12.7-3.7-19-5.5
			c-5.5-1.6-11.1-2.8-16.8-3.3c-3.7-0.3-7.3-0.1-10.9,0.5c-0.3,0.1-0.6,0-0.9-0.2c1.3-0.2,2.6-0.5,4-0.7c4.6-0.5,9.2-0.2,13.7,0.6
			c2.5,0.4,5,0.9,7.6,1.4c0,0,0,0.1,0,0.1c0,0,0,0,0.1,0c0,0-0.1-0.1-0.1-0.1c0-0.1-0.1-0.2-0.1-0.3c3,1.7,6.3,2.2,9.5,3.1
			c6.6,2,13.3,3.9,20,5.5c6.7,1.6,13.4,2.8,20.2,4.2C268.2,231,268.6,231,269,231z"/>
		<path class="st14" d="M169.3,216.2c-3-2.5-6.4-4-10.1-5C162.2,210.9,168.3,213.8,169.3,216.2z"/>
		<path class="st14" d="M217.3,217.4c-2.9-2.3-6.2-3.8-10-4.7C209.9,212.1,216.3,215.1,217.3,217.4z"/>
		<path class="st20" d="M227.7,105c-5.8-1.8-8.6-6-9.4-11.7c-1-7-0.5-13.9,0-20.9c0-0.3,0.3-0.7,0.5-0.8c1.1-0.6,2.3-1.2,3.5-1.8
			c0.6,1.4,1.9,2.6,3.9,2.7c2,0.1,3.4-1,4.3-2.8c0.8,1.9,2.1,3,4.1,2.9c1.9-0.1,3.1-1.4,4.2-3c0.9,3.5,1.8,6.6,6.1,6.7
			c0.4,5.2,0,10.4-0.8,15.6c-0.5,3.5-0.9,7,0.4,10.4c0.4,1.1,1.2,2.2,1.8,3.2c0.1-0.1,0.3-0.1,0.4-0.2c0-0.1-0.1-0.3-0.1-0.4
			c-2.3-3-2.6-6.4-2.2-10c0.4-3.8,0.9-7.6,1.3-11.2c0.8,7.4,1.6,14.9,2.5,22.5c-0.2,0-0.3-0.1-0.5-0.1c-0.1,0-0.2,0-0.3,0
			c0.1,0.1,0.1,0.2,0.2,0.3c0.3,0.7,0.9,1.3,1,2c0.3,2.5,0.3,5,0.5,7.5c-0.1,0.2-0.2,0.3-0.2,0.5c0.2,4-2.3,6-5.4,7.6
			c-2.7,1.3-5.6,1.9-8.5,2.1c-1.3,0.1-2.6-0.2-3.8-0.5c-2.1-0.6-2.9-2.3-3.1-4.4c-0.1-1.7-0.2-3.3-0.3-5c0-2.9,0-5.8,0-8.8
			c0.3,0,0.7,0,1,0c2.7,0.2,5.3-0.1,7.7-1.4c1.9-1.1,3.7-2.2,4.6-4.4c0,0,0-0.1,0.1-0.1c0,0,0,0.1-0.1,0.1
			C236.9,103.8,232.4,104.7,227.7,105z M229.6,92.6c-0.4,0.1-0.8,0.3-1.1,0.4c0,0.1,0,0.2,0.1,0.3c0.6,0,1.3,0,1.9,0
			c0.8,0.7,1.8,0.8,2.6,0.2c0.9-0.7,0.2-1.5-0.1-2.2c0-0.1,0-0.2-0.1-0.2c0-0.5,0-1,0-1.6c-0.1,0-0.1,0-0.2,0
			c-0.2,0.4-0.5,0.9-0.7,1.3c-0.8,0.2-1.5,0.2-2.3,0.5C229.1,91.5,229,92.1,229.6,92.6z M228.5,88.3c-0.9-0.2-1.8-0.4-2.9-0.6
			c1.3-3.6,2.5-7.1,3.8-10.5c-0.1,0-0.2-0.1-0.3-0.1c-0.2,0.5-0.5,0.9-0.7,1.4c-0.9,2.2-1.7,4.3-2.6,6.5
			C224.7,87.8,224.1,88.6,228.5,88.3z M233.1,75.6c2.3,0.2,4.3,0.5,6.6,0.7C238.1,74.2,234.6,73.8,233.1,75.6z M220.5,73.6
			c1.7,0,3.2,0,5,0c-0.6-1.3-1.6-1.4-2.6-1.4C221.8,72.2,220.9,72.5,220.5,73.6z M221.9,81.5c0.2,0,0.4,0,0.6,0
			c0.4-0.5,0.9-0.9,1-1.4c0.1-0.8-0.5-1.4-1.3-1.3c-0.5,0.1-1.2,0.7-1.3,1.2C220.9,80.5,221.5,81,221.9,81.5z M235.5,81.5
			c0.2,0,0.4,0,0.6,0c0.3-0.5,1-1,1-1.4c-0.1-0.5-0.7-1.2-1.1-1.3c-0.8-0.2-1.5,0.4-1.3,1.2C234.6,80.5,235.2,81,235.5,81.5z
			 M225.1,77.5c-0.7-1-1.8-1.3-3-1.1c-1.1,0.1-1.7,0.6-1.9,1.1C221.8,77.5,223.4,77.5,225.1,77.5z M238.8,78
			c-1.3-1.9-3.9-1.9-5.3,0.3C235.5,77.2,237.1,77.3,238.8,78z"/>
		<path class="st18" d="M242.7,164.8c0.6,0.2,1.3,0.2,1.9,0.5c1.4,0.8,1.4,2.4-0.1,3.2c-2.1,1.1-4.3,1-6.5,0.4
			c-0.8-0.2-1.5-0.7-2.3-1.1c1.6-0.9,3.2-1.8,4.8-2.7C241.2,165,242,164.9,242.7,164.8z"/>
		<path class="st18" d="M234.8,167.2c-1.1-1.1-2.3-2.2-3.4-3.3c-0.1-0.2-0.3-0.5-0.4-0.7c-0.7-1.9-1.4-3.8-2.1-5.7
			c-0.1-0.4-0.1-0.9-0.2-1.3c0,0,0.1,0,0.1,0l0.1,0l0,0c0.5,2.9,2.6,4.8,4.7,6.4c1.6,1.2,3.8,1.6,5.7,2.3
			C237.8,165.7,236.3,166.5,234.8,167.2z"/>
		<path class="st21" d="M210.8,163.4c0.1,0.6,0.2,1.3,0.3,1.9c-3.6-11.3-2.4-22,3.5-32.3c-0.2,0.6-0.5,1.1-0.7,1.7
			c-0.3,0.6-0.6,1.2-0.8,1.8c-3.5,8.3-4.3,17-2.6,25.8C210.6,162.7,210.7,163,210.8,163.4C210.8,163.4,210.8,163.4,210.8,163.4z"/>
		<path class="st17" d="M256.7,166.4c3.2,1.6,6.2,1.1,8.8-1.4c1.1-1,2.2-2.1,3.3-3c2.1-1.7,4.4-2.2,7-1.1c1.9,0.8,3.9,1.3,6,0.6
			c-1.2,1.2-2.7,0.9-4.1,0.7c-0.8-0.2-1.5-0.4-2.2-0.7c-2.2-0.8-4.2-0.5-6,0.9c-1.1,0.9-2.2,1.8-3.2,2.8c-2.6,2.6-5.6,3.4-9.1,1.9
			c-0.1,0-0.2,0-0.4,0C256.9,166.8,256.8,166.6,256.7,166.4z"/>
		<path class="st17" d="M279.3,155.2c-0.4,1.2-1.5,1.2-2.4,1.2c-0.7,0-1.5-0.2-2.2-0.5c-2.8-1.3-5.3-0.6-7.6,1.1
			c-1.2,0.9-2.4,1.8-3.6,2.7c-2.5,1.9-5.2,2.8-8.3,1.6c0-0.1-0.1-0.2-0.1-0.3c1,0.1,2,0.3,2.9,0.3c2.2,0,4-1.3,5.7-2.6
			c1.3-1,2.5-2,3.9-2.9c2.2-1.4,4.5-1.7,6.9-0.6c0.4,0.2,0.8,0.3,1.3,0.5C277,156.2,278.2,156,279.3,155.2z"/>
		<path class="st21" d="M255.1,161c0,0.1,0.1,0.2,0.1,0.3c0.5,1.7,1,3.4,1.6,5.1c0.1,0.2,0.1,0.4,0.2,0.7c0.3,1,0.6,2,0.8,3.1
			c-3.1-7.7-5.4-15.6-7.2-23.6c0.1,0,0.2-0.1,0.3-0.1C252.3,151.3,253.7,156.1,255.1,161z"/>
		<path class="st21" d="M248.5,138.7c-2.3-8.6,4.7-17.5,12.9-17.6C252.3,123.3,248.1,129.1,248.5,138.7z"/>
		<path class="st17" d="M231,163.2c0.1,0.2,0.3,0.5,0.4,0.7c-3.4,1-6.7,0.1-10-0.8c-2.3-0.7-4.7-1.2-7.1-0.9
			c-0.7,0.1-1.4,0.3-2.2,0.4c1.4-0.9,2.9-1.2,4.5-1c2.5,0.4,4.9,1,7.3,1.5C226.3,163.7,228.6,164.2,231,163.2z"/>
		<path class="st17" d="M235.3,167.7c-2.4,1.3-5,1.2-7.6,0.9c-2.5-0.3-4.9-0.9-7.4-1.2c-1.3-0.2-2.7-0.1-4-0.1c-0.3,0-0.7,0-1-0.1
			c2.9-0.8,5.8-0.3,8.7,0.2c3.1,0.6,6.2,1.2,9.4,0.4c0.4-0.1,0.9-0.3,1.3-0.4C235,167.5,235.1,167.6,235.3,167.7z"/>
		<path class="st17" d="M234,161.9c5-3.6,10.4-3.4,16-1.8c1.3,0.4,2.5,0.7,3.8,1.3c-1-0.2-2.1-0.5-3.1-0.6c-2.4-0.4-4.8-0.8-7.2-1.1
			c-2.2-0.3-4.3,0.4-6.2,1.4c-0.8,0.4-1.7,0.9-2.5,1.4C234.5,162.2,234.3,162,234,161.9z"/>
		<path class="st17" d="M194.3,156c1.2,0.9,2.5,1,3.9,0.6c0.3-0.1,0.7-0.1,1-0.2c3.5-0.7,4.7,0,6.3,3.1c0.4,0.8,0.8,1.6,1.4,2.1
			c0.6,0.5,1.5,0.7,2.1,0.9c-0.7,0.4-1.8,0.3-2.6-0.6c-0.7-0.8-1.2-1.7-1.7-2.6c-1.2-2.1-2.1-2.7-4.5-2.4c-1,0.1-2,0.3-3,0.4
			c-1.2,0.1-2.3-0.1-3.1-1.2C194.2,156.1,194.2,156,194.3,156z"/>
		<path class="st21" d="M234,161.9c0.2,0.1,0.4,0.3,0.6,0.4c1.8,1.2,3.8,2,5.9,2.2c0.3,0,0.7,0.1,1,0.1c0.4,0,0.7,0.1,1.1,0.1
			c-0.7,0.1-1.5,0.2-2.2,0.3c-0.4,0-0.8,0-1.1-0.1c-1.9-0.7-4.1-1.1-5.7-2.3c-2.1-1.6-4.1-3.5-4.7-6.4c1.1,1.4,2.2,2.9,3.4,4.3
			C232.9,161.1,233.5,161.5,234,161.9z"/>
		<path class="st17" d="M196,151.4c2.1,1.5,4.3,1.9,6.8,1.4c1.8-0.3,2.6,0.2,3.6,1.8c0.4,0.7,0.9,1.2,1.3,2
			c-0.5-0.5-1.2-0.8-1.5-1.4c-0.9-1.9-2.4-2.1-4.2-1.7c-2.2,0.4-4.1-0.2-5.7-1.8C196.1,151.7,196.1,151.5,196,151.4z"/>
		<path class="st17" d="M241.6,164.6c-0.3,0-0.7-0.1-1-0.1c1.8-1.2,3.9-1.7,6-1.4c2.9,0.4,5.6,1.5,8.2,3c-1.9-0.7-3.8-1.3-5.7-1.9
			C246.5,163.3,244,163.4,241.6,164.6z"/>
		<path class="st15" d="M239.3,165c0.4,0,0.8,0,1.1,0.1c-1.6,0.9-3.2,1.8-4.8,2.7c-0.1,0-0.3,0-0.4,0c-0.2-0.1-0.4-0.2-0.5-0.4
			c0-0.1,0-0.1,0-0.2C236.3,166.5,237.8,165.7,239.3,165z"/>
		<path class="st21" d="M229,156.2l-0.1,0c0,0-0.1,0-0.1,0c-0.1-0.3-0.1-0.7-0.2-1c0.1,0,0.1,0,0.2,0
			C228.9,155.5,228.9,155.9,229,156.2z"/>
		<path class="st17" d="M194.1,156.1c-0.1-0.2-0.2-0.4-0.4-0.5c0.1,0,0.1-0.1,0.2-0.1c0.1,0.2,0.3,0.3,0.4,0.5
			C194.2,156,194.2,156.1,194.1,156.1z"/>
		<path class="st5" d="M198.7,142.6c0.1-0.3,0.2-0.6,0.3-0.9C198.9,142,198.8,142.3,198.7,142.6z"/>
		<path class="st17" d="M193.7,154.8c0,0.1,0,0.2,0,0.3c0,0-0.1,0-0.1,0C193.6,155,193.6,154.9,193.7,154.8
			C193.6,154.8,193.6,154.8,193.7,154.8z"/>
		<path class="st17" d="M211.5,163c0-0.1,0.1-0.1,0.1-0.2c0,0,0.1,0.1,0.1,0.1C211.6,162.9,211.6,163,211.5,163L211.5,163z"/>
		<path class="st17" d="M211.5,163c0,0.1-0.1,0.1-0.1,0.2C211.4,163.1,211.5,163.1,211.5,163C211.5,163,211.5,163,211.5,163z"/>
		<polygon class="st17" points="210.8,163.4 210.8,163.4 210.9,163.4 		"/>
		<path class="st14" d="M192.2,112.5c1.2-0.2,2.3-0.6,3.5-0.7c2.2-0.2,4.4,0.1,6.6-0.3c4.5-0.9,7.8-3.7,10.2-7.5
			c2.3-3.5,3.4-7.4,3.8-11.6c0.4-4.2,0.2-8.3-0.2-12.4c-0.4-4.7-0.8-9.5,1.2-14c2-4.4,5.4-7,10.2-7.9c2.1-0.4,4.1-0.1,6.2,0.5
			c0,0.1,0,0.2,0,0.3c-0.4-0.1-0.8-0.1-1.2-0.2c-6.7-1.5-13.7,2.9-15.3,9.9c-0.8,3.4-0.6,6.9-0.3,10.4c0.5,5.7,1,11.4-0.3,17.1
			c-1.3,6-4.1,11-9.5,14.3c-2.1,1.3-4.3,2.1-6.8,2.1C197.5,112.3,194.9,112.4,192.2,112.5C192.3,112.5,192.2,112.5,192.2,112.5z"/>
		<path class="st22" d="M227.7,105c4.7-0.3,9.2-1.2,13.3-3.5l0,0c-0.8,2.2-2.7,3.3-4.6,4.4c-2.4,1.3-5,1.6-7.7,1.4c-0.3,0-0.7,0-1,0
			C227.7,106.5,227.7,105.8,227.7,105z"/>
		<path class="st14" d="M258.7,78.7c0,0.7,0,1.3,0,2c-0.7-3.2-1.4-6.4-2.2-9.5c-0.9-3.6-2.4-6.7-5.9-8.5c-2.6-1.4-5.3-1.6-8-0.2
			c-0.2,0.1-0.4,0.2-0.6,0.2c0,0-0.1,0-0.1,0c0.6-0.8,2-1.5,3.6-1.6c2.8-0.2,5.3,0.7,7.4,2.6c2.9,2.4,3.7,5.8,4.5,9.2
			C257.9,74.8,258.3,76.8,258.7,78.7z"/>
		<path class="st14" d="M239.2,63.1c-1.3-0.4-2.6-0.7-3.9-1.1c-2.9-0.8-5.6-0.7-8.2,1.1c-2,1.4-3,3.4-3.3,5.7
			c-0.1,0.4-0.2,0.8-0.3,1.2c-0.5-3.7,2.2-7.7,5.8-8.8c2.1-0.6,4-0.5,6,0.2c1.4,0.4,2.7,1,4.1,1.5C239.2,62.9,239.2,63,239.2,63.1z"
			/>
		<path class="st14" d="M239.3,55.5c1.4,0.7,2.2,3,1.6,4.9c-0.2,0.7-0.7,1.2-1.1,1.9c0,0,0,0,0,0c0-0.1,0-0.2,0-0.2
			C240.9,59.7,240.6,57.6,239.3,55.5L239.3,55.5z"/>
		<path class="st14" d="M234.8,59.2c-0.1,0-0.3,0-0.4,0c-0.1,0-0.2-0.1-0.2-0.4c0.2,0.1,0.4,0.2,0.7,0.2
			C234.9,59.1,234.8,59.1,234.8,59.2z"/>
		<path class="st14" d="M191.7,112.7c0.2-0.1,0.3-0.2,0.5-0.2c0,0,0,0,0,0C192.1,112.6,191.9,112.7,191.7,112.7
			C191.8,112.8,191.7,112.7,191.7,112.7z"/>
		<path class="st14" d="M191.2,113c0.2-0.1,0.3-0.2,0.5-0.3c0,0,0,0,0,0C191.6,112.8,191.4,112.9,191.2,113L191.2,113z"/>
		<path class="st14" d="M191.3,113c-0.2,0.1-0.3,0.2-0.5,0.3l0,0C190.9,113.2,191.1,113.1,191.3,113C191.2,113,191.3,113,191.3,113z
			"/>
		<path class="st14" d="M236.5,60c0.2,0.1,0.3,0.2,0.5,0.3c0,0,0,0,0,0C236.8,60.2,236.7,60.1,236.5,60L236.5,60z"/>
		<path class="st14" d="M237.2,60.5c0.2,0.1,0.3,0.2,0.5,0.3l0,0C237.6,60.7,237.4,60.6,237.2,60.5L237.2,60.5z"/>
		<path class="st14" d="M237.7,60.8C237.8,60.8,237.8,60.8,237.7,60.8c0.1,0.1,0.1,0.1,0.1,0.1C237.8,60.8,237.8,60.8,237.7,60.8
			C237.8,60.7,237.7,60.8,237.7,60.8z"/>
		<path class="st14" d="M237,60.2c0.1,0.1,0.2,0.2,0.2,0.3c0,0,0,0,0,0C237.2,60.4,237.1,60.3,237,60.2C237,60.3,237,60.2,237,60.2z
			"/>
		<path class="st14" d="M239.8,62.3c0,0-0.1,0.1-0.1,0.1C239.7,62.3,239.7,62.3,239.8,62.3C239.7,62.2,239.8,62.3,239.8,62.3z"/>
		<path class="st14" d="M189.8,114c0.1-0.1,0.2-0.2,0.2-0.2l0,0C189.9,113.8,189.8,113.9,189.8,114L189.8,114z"/>
		<path class="st14" d="M190,113.8c0,0,0.1-0.1,0.1-0.1C190.1,113.7,190.1,113.7,190,113.8C190.1,113.7,190,113.7,190,113.8
			C190,113.7,190,113.8,190,113.8z"/>
		<path class="st14" d="M236.5,60c0,0-0.1-0.1-0.1-0.1C236.4,59.9,236.4,59.9,236.5,60C236.5,59.9,236.5,60,236.5,60
			C236.5,60,236.5,60,236.5,60z"/>
		<path class="st14" d="M190.8,113.3c0,0-0.1,0.1-0.1,0.1C190.7,113.3,190.7,113.3,190.8,113.3C190.7,113.2,190.8,113.3,190.8,113.3
			z"/>
		<path class="st14" d="M189.7,114c0,0-0.1,0.1-0.1,0.1C189.7,114.1,189.7,114.1,189.7,114C189.7,114,189.7,114,189.7,114
			C189.8,114,189.7,114,189.7,114z"/>
		<path class="st14" d="M239.2,55.5c-0.1-0.1-0.2-0.2-0.2-0.3c0,0,0,0,0,0C239.1,55.3,239.2,55.4,239.2,55.5
			C239.3,55.5,239.2,55.5,239.2,55.5z"/>
		<path class="st14" d="M239,55.3c0,0-0.1-0.1-0.1-0.1C238.9,55.2,239,55.2,239,55.3C239,55.2,239,55.3,239,55.3z"/>
		<path class="st22" d="M192.7,162.3c0.8,1.8,1.8,3.5,2.4,5.4c0.7,2.4,0.5,5.7-0.3,7.4c0.1-0.9,0.1-1.6,0.2-2.2
			c0.1-3.4-0.6-6.6-2-9.6C192.9,162.9,192.8,162.6,192.7,162.3L192.7,162.3z"/>
		<path class="st22" d="M192.8,162.2c0,0-0.1-0.1-0.1-0.1C192.7,162.2,192.7,162.1,192.8,162.2C192.7,162.2,192.7,162.2,192.8,162.2
			L192.8,162.2z"/>
		<path class="st5" d="M438.8,384.3c-1.6,1-3.2,2-4.7,3c0,0,0,0,0,0C435.6,386.2,437.2,385.2,438.8,384.3
			C438.7,384.2,438.8,384.3,438.8,384.3z"/>
		<path class="st5" d="M438.7,384.2c0.2-0.1,0.3-0.2,0.5-0.2c0,0,0,0,0,0C439.1,384.1,438.9,384.2,438.7,384.2
			C438.8,384.3,438.7,384.2,438.7,384.2z"/>
		<path class="st5" d="M439.2,384c0.2-0.1,0.3-0.2,0.5-0.2l0,0C439.6,383.8,439.4,383.9,439.2,384C439.3,384,439.2,384,439.2,384z"
			/>
		<path class="st5" d="M440.2,383.5c0.1-0.1,0.2-0.1,0.3-0.2c0,0,0,0.1,0.1,0.1C440.5,383.4,440.4,383.5,440.2,383.5
			C440.3,383.5,440.2,383.5,440.2,383.5z"/>
		<path class="st5" d="M439.7,383.7c0.2-0.1,0.3-0.2,0.5-0.3c0,0,0,0,0,0C440.1,383.6,439.9,383.7,439.7,383.7
			C439.8,383.8,439.7,383.7,439.7,383.7z"/>
		<path class="st22" d="M274,177.9c-3.3-1.1-6.7-1.2-10.1-0.8C266.1,175.6,271.9,176.2,274,177.9z"/>
		<path class="st10" d="M381.2,359.3c-0.3-0.1-0.6-0.2-0.9-0.4c-0.1,0-0.1-0.2,0-0.5C380.6,358.7,381,359,381.2,359.3
			C381.3,359.2,381.2,359.3,381.2,359.3z"/>
		<path class="st4" d="M419.9,454.9c-4.1-2.5-8.4-2.6-12.8-1.2c-2.9,1-5.9,1.8-8.8,2.5c-1.1,0.3-2.4,0-3.6-0.2
			c1.6-0.2,3.2-0.1,4.7-0.5c2.4-0.6,4.7-1.5,7.1-2.3c4.5-1.5,9-1.7,13.2,1c0.2,0.1,0.3,0.3,0.5,0.4
			C420,454.8,419.9,454.8,419.9,454.9z"/>
		<path class="st14" d="M392.5,453.2c1.3,0.2,2.5,0.4,3.8,0.5c3.2,0.3,6.1-0.8,9-1.9c4.6-1.8,9.2-2.2,13.7,0.2
			c0.4,0.2,0.6,0.5,1,0.7c-0.5-0.2-1-0.3-1.4-0.5c-3.4-1.6-6.8-1.7-10.4-0.7c-1.8,0.5-3.6,1.2-5.4,1.9c-2.9,1-5.9,1.1-8.9,0.5
			C393.4,453.8,393,453.5,392.5,453.2z"/>
		<path class="st4" d="M420.5,455.3c-0.2-0.1-0.4-0.2-0.6-0.3c0.1-0.1,0.1-0.1,0.2-0.2c0.2,0.1,0.4,0.3,0.6,0.4
			C420.6,455.1,420.5,455.2,420.5,455.3z"/>
		<path class="st4" d="M420.6,455.1c0.1,0.1,0.2,0.3,0.2,0.4c-0.1-0.1-0.2-0.2-0.4-0.3C420.5,455.2,420.6,455.1,420.6,455.1z"/>
		<path class="st14" d="M420.2,453c0.2,0.1,0.3,0.2,0.5,0.3C420.6,453.2,420.4,453.1,420.2,453z"/>
		<path class="st14" d="M392,453c0.2,0.1,0.3,0.2,0.5,0.3C392.3,453.2,392.2,453.1,392,453z"/>
		<path class="st14" d="M420,452.7c0.1,0.1,0.2,0.2,0.3,0.3C420.2,452.9,420.1,452.8,420,452.7z"/>
		<path class="st14" d="M420.7,453.2c0.1,0.1,0.2,0.2,0.3,0.3C420.9,453.4,420.8,453.3,420.7,453.2z"/>
		<path class="st13" d="M112.1,411.3c0.2-0.1,0.3-0.2,0.5-0.4c0,0.1,0.1,0.1,0.1,0.2c-0.2,0.1-0.3,0.3-0.5,0.4
			C112.2,411.5,112.2,411.4,112.1,411.3z"/>
		<path class="st13" d="M112.3,411.5c-0.1,0.1-0.3,0.2-0.4,0.4c-0.1-0.1-0.1-0.1-0.2-0.2c0.1-0.1,0.3-0.2,0.4-0.4
			C112.2,411.4,112.2,411.5,112.3,411.5z"/>
		<path class="st13" d="M88.9,406.4c0-0.1,0-0.2-0.1-0.2c0,0,0.1,0,0.1,0C88.9,406.3,88.9,406.3,88.9,406.4z"/>
		<path class="st4" d="M392.9,451.2c0.7,0.1,1.5,0.2,2.2,0.3c2.9,0.4,5.7-0.1,8.4-1.1c2.5-0.9,5.1-1.7,7.8-2.1
			c3.1-0.5,5.9,0.5,8.6,2.1c0.3,0.2,0.5,0.4,0.6,0.8c-0.2-0.1-0.5-0.3-0.7-0.4c-4-2.1-8.1-2.6-12.4-1.1c-2.7,0.9-5.4,1.8-8.1,2.4
			c-2.2,0.5-4.3,0-6.4-0.6C392.8,451.4,392.8,451.3,392.9,451.2z"/>
		<path class="st10" d="M421.1,451.2c0.1,0.1,0.3,0.3,0.4,0.4c0,0-0.1,0.1-0.1,0.1c-0.1-0.1-0.3-0.3-0.4-0.4
			C421,451.3,421,451.3,421.1,451.2z"/>
		<path class="st8" d="M152.7,109.5c1.4,0.2,2.9,0.3,4.3,0.5c0.4,0.1,0.7,0.2,1.1,0.3c0.8,0.2,1.5,0.7,1.3,1.5c-0.2,0.5-1,0.7-1.6,1
			c-0.5,0.2-1.1,0.2-1.7,0.2c-1.5,0-2.9,0-4.4,0.1c-0.2-1.3-0.4-2.5-0.6-3.8C151.6,109.3,152.1,109.4,152.7,109.5z"/>
		<path class="st4" d="M167.5,120.3c-2.2-0.4-3.9,0.9-5.8,1.5c-0.1,0-0.1,0.1-0.2,0.1c-2.5,1.2-2.8,1.1-3.5-1.6c0.4,0,0.9,0,1.3,0
			c1.3-0.2,1.7-1,0.9-2.2c-0.3-0.2-0.6-0.4-0.8-0.6c1.9-0.8,3.8-1.5,5.7-2.3c1.5-0.6,1.7-0.5,2.3,0.9c0.2,0.4,0.3,0.8,0.5,1.2
			c0.4,0.7,0.7,1.4-0.3,2C167.5,119.4,167.6,119.9,167.5,120.3L167.5,120.3z"/>
		<path class="st22" d="M159.4,117.4c0.3,0.2,0.6,0.4,0.8,0.6c-2.1-0.2-4.2-0.5-6.3-0.7c-0.6,0-1.1,0.1-1.7,0.2
			c0-0.2-0.1-0.3-0.1-0.5c1.1-0.2,2.2-0.4,3.4-0.6c0.2,0.2,0.4,0.5,0.6,0.5C157.2,117.1,158.3,117.2,159.4,117.4z"/>
		<path class="st5" d="M213,71.5c-0.3,0.5-0.5,1-0.8,1.5C212.5,72.5,212.7,72,213,71.5z"/>
		<path class="st5" d="M193.7,96.5c0.4-0.2,0.7-0.4,1.1-0.6c0,0.1,0.1,0.2,0.1,0.2c-0.3,0.2-0.7,0.4-1,0.6
			C193.8,96.6,193.8,96.5,193.7,96.5z"/>
		<path class="st5" d="M193.4,96.7c0.1-0.1,0.2-0.2,0.3-0.2c0.1,0.1,0.1,0.1,0.2,0.2c-0.1,0.1-0.2,0.2-0.3,0.3
			C193.6,96.8,193.5,96.8,193.4,96.7z"/>
		<path class="st5" d="M193.2,97c0.1-0.1,0.2-0.2,0.2-0.3c0.1,0.1,0.1,0.1,0.2,0.2c-0.1,0.1-0.1,0.1-0.2,0.2
			C193.4,97.1,193.3,97,193.2,97z"/>
		<path class="st8" d="M155.5,116.5c-1.1,0.2-2.2,0.4-3.4,0.6c-0.1-1.2-0.3-2.5-0.4-3.7c0.5,0,1.1-0.1,1.6-0.1
			c2.1,0.1,4.1,0.3,6.2,0.5c0.2,0.1,0.3,0.2,0.5,0.2c0.1,0.6,0.4,1.6,0.1,1.8c-0.8,0.5-1.8,0.8-2.7,0.9
			C156.8,116.8,156.1,116.6,155.5,116.5z"/>
		<path class="st22" d="M159.5,113.7c-2.1-0.2-4.1-0.4-6.2-0.5c-0.5,0-1.1,0-1.6,0.1c0-0.1,0-0.2,0-0.3c1.5,0,2.9,0,4.4-0.1
			C157.2,113.2,158.4,113.5,159.5,113.7z"/>
		<path class="st3" d="M360,246.5c0,7.2-5.8,13-12.9,12.9c-7.8,0-13.1-6.6-12.9-13.1c0.2-7.1,5.8-12.8,12.9-12.8
			C354.3,233.5,360,239.3,360,246.5z"/>
		<path class="st12" d="M312.6,238.3c-0.4,0-0.8,0-1.3,0c0,0,0,0,0,0c-1.8-0.2-3.6-0.5-5.4-0.7c-2.3-0.3-4.7-0.4-7-0.8
			c-1-0.2-1.8-0.9-2.8-1.4C301.8,232.1,309,233.4,312.6,238.3z"/>
		<path class="st7" d="M289.5,233.6c1.6,2.9,4.3,3.9,8.3,3.2c-2.5,2.1-7.2,0.4-8.7-3.2C289.2,233.6,289.3,233.6,289.5,233.6z"/>
		<path class="st7" d="M311.4,238.3C311.4,238.3,311.4,238.3,311.4,238.3c-0.1,0.1-0.1,0.2-0.2,0.2
			C311.3,238.4,311.3,238.3,311.4,238.3z"/>
		<path class="st1" d="M170,217c0,0,0.1,0.1,0.1,0.1C170.1,217.1,170,217.1,170,217C170,217.1,170,217,170,217
			C170,217,170,217,170,217z"/>
		<path class="st1" d="M218.3,218.5c0,0,0.1,0.1,0.1,0.1C218.3,218.6,218.3,218.6,218.3,218.5C218.3,218.6,218.3,218.5,218.3,218.5
			C218.2,218.5,218.3,218.5,218.3,218.5z"/>
		<path class="st13" d="M228.5,88.3c-4.3,0.3-3.7-0.5-2.6-3.3c0.8-2.2,1.7-4.3,2.6-6.5c0.2-0.5,0.5-0.9,0.7-1.4
			c0.1,0,0.2,0.1,0.3,0.1c-1.2,3.5-2.5,6.9-3.8,10.5C226.7,87.9,227.6,88.1,228.5,88.3z"/>
		<path class="st10" d="M233.1,75.6c1.5-1.8,5-1.5,6.6,0.7C237.4,76.1,235.3,75.9,233.1,75.6z"/>
		<path class="st13" d="M220.5,73.6c0.5-1.2,1.4-1.4,2.4-1.4c1,0,2,0.1,2.6,1.4C223.7,73.6,222.2,73.6,220.5,73.6z"/>
		<path class="st10" d="M221.9,81.5c-0.4-0.5-1-1-1-1.5c0-0.4,0.8-1.1,1.3-1.2c0.8-0.1,1.4,0.5,1.3,1.3c-0.1,0.5-0.7,0.9-1,1.4
			C222.2,81.5,222,81.5,221.9,81.5z"/>
		<path class="st10" d="M235.5,81.5c-0.3-0.5-0.9-0.9-0.9-1.5c-0.1-0.8,0.6-1.4,1.3-1.2c0.5,0.1,1.1,0.8,1.1,1.3
			c0,0.4-0.6,0.9-1,1.4C235.9,81.5,235.7,81.5,235.5,81.5z"/>
		<path class="st10" d="M232.1,90.8c0.2-0.4,0.5-0.9,0.7-1.3c0.1,0,0.1,0,0.2,0c0,0.5,0,1,0,1.6c-0.8,0.8-1.7,1.5-2.5,2.3
			c-0.6,0-1.3,0-1.9,0c0-0.1,0-0.2-0.1-0.3c0.4-0.1,0.8-0.3,1.1-0.4C230.7,92.4,231.6,91.8,232.1,90.8z"/>
		<path class="st13" d="M225.1,77.5c-1.7,0-3.3,0-4.9,0c0.2-0.6,0.8-1,1.9-1.1C223.3,76.2,224.4,76.5,225.1,77.5z"/>
		<path class="st13" d="M238.8,78c-1.7-0.7-3.4-0.7-5.3,0.3C234.9,76.1,237.5,76.1,238.8,78z"/>
		<path class="st22" d="M230.5,93.3c0.8-0.8,1.7-1.5,2.5-2.3c0,0.1,0,0.2,0.1,0.2c0.3,0.7,1,1.6,0.1,2.2
			C232.3,94,231.3,93.9,230.5,93.3z"/>
		<path class="st22" d="M232.1,90.8c-0.5,1-1.3,1.6-2.4,1.8c-0.6-0.5-0.5-1.1,0.2-1.3C230.5,91,231.3,90.9,232.1,90.8z"/>
		<path class="st22" d="M241,101.5c0,0,0-0.1,0.1-0.1C241,101.4,241,101.5,241,101.5C241,101.5,241,101.5,241,101.5z"/>
		<path class="st5" d="M247.5,106.3c-0.1-0.1-0.1-0.2-0.2-0.3c0.1,0,0.2,0,0.3,0C247.6,106.1,247.5,106.2,247.5,106.3z"/>
		<path class="st4" d="M162.5,105.2c-2.8-0.4-4.9,1.3-7.3,2.2c-1,0.4-1.5,0.2-1.8-0.7c-0.4-0.9-0.8-1.8-1-2.7
			c-0.1-0.3,0.2-1,0.5-1.1c2.6-1.1,5.3-2.2,7.9-3.2c0.1-0.1,0.3-0.1,0.5,0c1.4,0.5,1.2,1.9,1.8,2.9c0.2,0.3-0.1,0.9-0.2,1.3
			C162.7,104.4,162.6,104.8,162.5,105.2C162.5,105.3,162.5,105.2,162.5,105.2z"/>
		<path class="st4" d="M159.5,113.7c-1.2-0.3-2.3-0.5-3.5-0.8c0.6-0.1,1.2-0.1,1.7-0.2c0.6-0.2,1.5-0.5,1.6-1
			c0.3-0.8-0.5-1.3-1.3-1.5c-0.4-0.1-0.7-0.2-1.1-0.3c1.9-0.9,3.8-1.8,5.8-2.6c0.8-0.3,1.4-0.2,1.8,0.7c0.2,0.7,0.5,1.3,0.8,1.9
			c0.6,1.2,0.5,1.5-0.8,2.1c-1.5,0.7-3,1.3-4.6,1.9C159.8,113.9,159.7,113.8,159.5,113.7z"/>
		<path class="st4" d="M162.5,105.3c0,0,0.1,0,0.1,0.1C162.6,105.3,162.5,105.3,162.5,105.3C162.5,105.2,162.5,105.3,162.5,105.3z"
			/>
		<path class="st4" d="M167.5,120.2c0,0,0.1,0,0.1,0.1C167.6,120.3,167.5,120.3,167.5,120.2C167.5,120.3,167.5,120.2,167.5,120.2z"
			/>
	</g>
</g>
</svg>
