<?xml version="1.0" encoding="utf-8"?>
<!-- Generator: Adobe Illustrator 24.1.0, SVG Export Plug-In . SVG Version: 6.00 Build 0)  -->
<svg version="1.1" xmlns="http://www.w3.org/2000/svg" xmlns:xlink="http://www.w3.org/1999/xlink" x="0px" y="0px"
	 viewBox="0 0 500 500" style="enable-background:new 0 0 500 500;" xml:space="preserve">
<style type="text/css">
	.st0{fill:#EBEBEB;}
	.st1{fill:#E0E0E0;}
	.st2{fill:#FFFFFF;}
	.st3{display:none;}
	.st4{display:inline;fill:#E0E0E0;}
	.st5{fill:#263238;}
	.st6{fill:#E8505B;}
	.st7{opacity:0.3;}
	.st8{fill:#B78876;}
	.st9{fill:#FAFAFA;}
	.st10{fill:#455A64;}
	.st11{fill:#AA6550;}
	.st12{fill:#F5F5F5;}
	.st13{fill:none;stroke:#4E585D;stroke-miterlimit:10;}
	.st14{fill:none;}
</style>
<g id="Background_Complete">
	<g>
		<path class="st0" d="M189.65,228.65c10.31,8.02,25.17,6.16,33.19-4.16c8.02-10.31,6.16-25.17-4.16-33.19
			c-8.82-6.86-20.97-6.48-29.31,0.22l-0.01-0.01l-5.19-4.03l-7.71,2.4l0.88-7.71l-6.5-5.05l-7.71,2.4l0.88-7.71l-5.59-4.34
			l-4.7,1.46l0.54-4.7l-3.25-2.53l-7.38,0.73l-0.99,11.34l38.66,30.05C178.93,212.75,181.91,222.63,189.65,228.65z M217.82,220.58
			c-2.3,2.96-6.56,3.49-9.52,1.19c-2.96-2.3-3.49-6.56-1.19-9.52c2.3-2.96,6.56-3.49,9.52-1.19
			C219.58,213.36,220.12,217.63,217.82,220.58z"/>
	</g>
	<g>
		<path class="st0" d="M220.81,138.27c4.43-5.42,3.62-13.39-1.79-17.82c-5.42-4.43-13.4-3.62-17.82,1.79
			c-3.79,4.63-3.74,11.14-0.26,15.69l0,0l-2.23,2.73l1.19,4.16l-4.11-0.57l-2.79,3.41l1.19,4.16l-4.11-0.57l-2.4,2.94l0.72,2.53
			l-2.51-0.35l-1.4,1.71l0.29,3.96l6.05,0.68l16.59-20.3C212.16,143.8,217.48,142.33,220.81,138.27z M216.85,123.09
			c1.55,1.27,1.78,3.56,0.51,5.11c-1.27,1.55-3.56,1.78-5.11,0.51c-1.55-1.27-1.78-3.56-0.51-5.11
			C213.01,122.05,215.3,121.82,216.85,123.09z"/>
	</g>
	<g>
		<g>
			<polygon class="st1" points="167.32,52.36 167.32,125.75 61.91,125.75 58.12,52.88 			"/>
		</g>
		<g>
			
				<rect x="74.46" y="36.54" transform="matrix(6.123234e-17 -1 1 6.123234e-17 21.5799 200.0572)" class="st2" width="72.72" height="105.41"/>
			<path class="st1" d="M164.02,126.1H57.62V52.38h106.41V126.1z M58.62,125.1h104.41V53.38H58.62V125.1z"/>
		</g>
		<g>
			<g>
				<rect x="69.53" y="61.91" class="st2" width="82.57" height="54.65"/>
			</g>
			<g>
				<g>
					<path class="st1" d="M152.11,61.91c0,0-0.14,0.01-0.41,0.01c-0.28,0-0.67,0.01-1.17,0.01c-1.05,0.01-2.57,0.02-4.53,0.03
						c-3.97,0.01-9.73,0.04-17.02,0.06c-14.56,0.03-35.17,0.07-59.44,0.12l0.24-0.24c0.01,16.7,0.01,35.2,0.02,54.64v0.01
						l-0.26-0.26c31.15,0.02,59.87,0.04,82.57,0.05l-0.21,0.21c0.05-16.63,0.08-30.27,0.11-39.76c0.02-4.75,0.04-8.45,0.05-11
						c0.01-1.26,0.02-2.22,0.02-2.89C152.09,62.26,152.11,61.91,152.11,61.91s0.01,0.32,0.02,0.96c0.01,0.66,0.01,1.61,0.02,2.85
						c0.01,2.53,0.03,6.22,0.05,10.95c0.03,9.53,0.06,23.21,0.11,39.89l0,0.21l-0.21,0c-22.71,0.01-51.43,0.03-82.57,0.05l-0.26,0
						v-0.26v-0.01c0.01-19.45,0.01-37.95,0.02-54.64l0-0.24l0.24,0c24.33,0.05,45,0.09,59.6,0.12c7.26,0.03,13.01,0.05,16.96,0.06
						c1.95,0.01,3.45,0.02,4.49,0.03c0.49,0.01,0.87,0.01,1.15,0.01C151.98,61.9,152.11,61.91,152.11,61.91z"/>
				</g>
			</g>
		</g>
		<g>
			<g>
				<path class="st1" d="M58.12,52.67c0.04-0.06,0.73,0.4,1.81,1.17c1.08,0.78,2.55,1.88,4.13,3.15c1.59,1.27,2.98,2.47,3.96,3.37
					c0.98,0.9,1.56,1.49,1.51,1.54c-0.1,0.11-2.63-1.98-5.8-4.51C60.57,54.88,58.02,52.79,58.12,52.67z"/>
			</g>
		</g>
		<g>
			<g>
				<path class="st1" d="M163.52,52.88c0.09,0.11-2.39,2.23-5.55,4.72c-3.15,2.5-5.78,4.43-5.87,4.31
					c-0.09-0.11,2.39-2.23,5.55-4.72C160.8,54.7,163.43,52.77,163.52,52.88z"/>
			</g>
		</g>
		<g>
			<g>
				<path class="st2" d="M163.44,125.61c-3.92-3.18-7.83-6.35-11.75-9.53"/>
			</g>
			<g>
				<g>
					<path class="st1" d="M151.69,116.08c0.09-0.11,2.8,1.93,6.04,4.56c3.25,2.63,5.8,4.85,5.71,4.97
						c-0.09,0.11-2.79-1.93-6.04-4.56C154.15,118.42,151.6,116.2,151.69,116.08z"/>
				</g>
			</g>
		</g>
		<g>
			<g>
				<path class="st1" d="M58.12,125.6c-0.09-0.11,2.37-2.21,5.49-4.67c3.12-2.47,5.72-4.38,5.81-4.26c0.09,0.11-2.37,2.2-5.49,4.67
					C60.81,123.8,58.2,125.71,58.12,125.6z"/>
			</g>
		</g>
		<g>
			
				<rect x="103.13" y="62.11" transform="matrix(6.123234e-17 -1 1 6.123234e-17 24.1861 200.3656)" class="st1" width="18.3" height="51.96"/>
		</g>
	</g>
</g>
<g id="Background_Simple" class="st3">
	<path class="st4" d="M426.76,105.41c-25.04-24.84-61.92-37.19-96.86-32.43c-34.95,4.76-67.18,26.53-84.65,57.17
		c-8.04,14.09-13.01,29.7-20.05,44.31c-7.04,14.61-16.75,28.76-31.09,36.34c-25.17,13.3-55.96,2.87-84.27,5.95
		c-33.76,3.67-64.19,28.88-74.07,61.36c-0.25,0.81-0.49,1.63-0.72,2.46c-12.16,43.74,3.2,96.81,43.87,116.97l42.63,16.83
		c82.66,40.96,179.73,27.4,255.06-25.86c0.72-0.51,1.43-1.02,2.13-1.52c44.81-32.21,73.76-83.9,83.61-138.2
		C471.51,198.37,463.13,141.5,426.76,105.41z"/>
</g>
<g id="Floor">
	<g>
		<g>
			<path class="st5" d="M428.99,469.2c0,0.14-85.88,0.26-191.8,0.26c-105.96,0-191.82-0.12-191.82-0.26s85.87-0.26,191.82-0.26
				C343.11,468.94,428.99,469.06,428.99,469.2z"/>
		</g>
	</g>
</g>
<g id="Character">
	<g>
		<g>
			<g>
				<polygon class="st5" points="348.79,432.99 373.54,468.99 382.39,469.2 366.17,432.19 				"/>
			</g>
			<g>
				<polygon class="st5" points="87.62,434.84 74.58,468.83 81.1,468.83 103.87,434.98 				"/>
			</g>
			<g>
				<path class="st6" d="M82.03,311.3l0.96,43.99c0.14,6.22,5.14,11.23,11.36,11.37l246.19,5.48c6.52,0.15,11.89-5.1,11.89-11.62
					v-52.99c0-15.64-11.53-28.89-27.03-31.03c-45.07-6.2-138.02-15.73-213.14-2.19C94.45,277.52,81.64,293.22,82.03,311.3z"/>
			</g>
			<g>
				<path class="st6" d="M80.92,326.67c0,0-20.28-9.39-24.43,0c-4.15,9.39,0.46,20.91,5.07,27.36c4.61,6.45,4.53,85.74,4.53,85.74
					l307.58-3.29l3.64-76.27c0,0,14.75-18.17,13.83-26s-13.37-19.24-27.66-7.54c-14.29,11.69-17.98,36.12-17.98,36.12l-245.23,1.84
					C100.28,364.64,101.1,330.3,80.92,326.67z"/>
			</g>
			<g>
				<g>
					<path class="st5" d="M342.38,378.03c0,0.14-54.49,0.26-121.69,0.26c-67.22,0-121.7-0.12-121.7-0.26
						c0-0.14,54.48-0.26,121.7-0.26C287.89,377.77,342.38,377.88,342.38,378.03z"/>
				</g>
			</g>
			<g>
				<g>
					<path class="st5" d="M99,411.6c-0.01,0-0.02-0.08-0.03-0.24c-0.01-0.19-0.02-0.42-0.03-0.71c-0.02-0.62-0.04-1.54-0.05-2.72
						c-0.01-2.41-0.01-5.82-0.03-10.02c-0.01-8.46,0.06-20.14-0.33-33.03c-0.24-6.44-0.47-12.6-1.41-18.08
						c-0.18-0.66-0.36-1.32-0.53-1.96c-0.25-0.63-0.49-1.25-0.76-1.86c-0.53-1.21-1.07-2.37-1.66-3.46
						c-1.16-2.19-2.43-4.12-3.74-5.76c-1.31-1.64-2.68-2.98-3.97-4.03c-1.31-1.03-2.54-1.79-3.59-2.31
						c-2.11-1.04-3.42-1.29-3.39-1.36c0-0.01,0.08,0.01,0.24,0.04c0.18,0.05,0.41,0.11,0.69,0.18c0.61,0.15,1.48,0.46,2.56,0.96
						c1.08,0.5,2.34,1.24,3.69,2.27c1.33,1.05,2.73,2.38,4.08,4.03c1.35,1.64,2.65,3.59,3.84,5.79c0.6,1.09,1.16,2.26,1.7,3.48
						c0.27,0.61,0.52,1.24,0.78,1.87c0.18,0.67,0.37,1.35,0.56,2.03c0.98,5.55,1.22,11.71,1.46,18.16
						c0.39,12.91,0.26,24.6,0.17,33.05c-0.06,4.19-0.11,7.6-0.14,10.02c-0.02,1.15-0.03,2.06-0.04,2.72
						c-0.01,0.29-0.02,0.52-0.02,0.71C99.01,411.51,99,411.6,99,411.6z"/>
				</g>
			</g>
			<g>
				<g>
					<path class="st5" d="M78.53,344.37c-0.01-0.02,0.26-0.19,0.82-0.25c0.55-0.06,1.41,0.05,2.26,0.63c0.41,0.29,0.82,0.7,1.1,1.25
						c0.27,0.54,0.41,1.22,0.29,1.9c-0.2,1.34-1.26,2.75-2.87,3.07c-1.62,0.27-3.11-0.65-3.8-1.81c-0.36-0.58-0.51-1.25-0.49-1.86
						c0.03-0.61,0.21-1.15,0.45-1.6c0.49-0.9,1.18-1.4,1.69-1.62c0.51-0.23,0.83-0.23,0.83-0.21c0.01,0.04-0.28,0.12-0.73,0.39
						c-0.45,0.26-1.05,0.78-1.45,1.61c-0.4,0.81-0.54,2.02,0.12,3.03c0.62,1,1.95,1.79,3.3,1.55c1.34-0.26,2.3-1.48,2.49-2.63
						c0.23-1.19-0.41-2.24-1.14-2.77c-0.73-0.56-1.51-0.72-2.03-0.72C78.83,344.32,78.54,344.42,78.53,344.37z"/>
				</g>
			</g>
			<g>
				<g>
					<path class="st5" d="M79.92,364.11c-0.04,0.04-0.68-0.5-1.39-1.64c-0.71-1.13-1.41-2.92-1.43-4.99
						c-0.02-2.07,0.64-3.88,1.31-5.03c0.68-1.16,1.31-1.71,1.35-1.67c0.07,0.05-0.46,0.69-1.03,1.85c-0.57,1.15-1.14,2.88-1.12,4.85
						c0.02,1.96,0.63,3.68,1.23,4.82C79.45,363.44,79.99,364.06,79.92,364.11z"/>
				</g>
			</g>
			<g>
				<g>
					<path class="st5" d="M76.7,334.42c0.08,0.04-0.14,0.58-0.31,1.49c-0.17,0.91-0.24,2.2,0.05,3.58c0.3,1.38,0.88,2.53,1.41,3.29
						c0.52,0.77,0.94,1.18,0.89,1.24c-0.04,0.04-0.55-0.27-1.18-1.02c-0.63-0.74-1.31-1.94-1.62-3.4c-0.31-1.46-0.17-2.84,0.1-3.77
						C76.31,334.9,76.65,334.4,76.7,334.42z"/>
				</g>
			</g>
			<g>
				<g>
					<path class="st5" d="M70.71,345.48c0.11-0.1,1.05,0.84,2.46,1.56c1.41,0.75,2.71,0.97,2.69,1.12c0,0.13-1.42,0.13-2.93-0.66
						C71.42,346.73,70.6,345.56,70.71,345.48z"/>
				</g>
			</g>
			<g>
				<g>
					<path class="st5" d="M374.86,411.6c0,0.14-69.38,0.26-154.94,0.26c-85.59,0-154.96-0.12-154.96-0.26s69.36-0.26,154.96-0.26
						C305.49,411.34,374.86,411.45,374.86,411.6z"/>
				</g>
			</g>
			<g>
				<g>
					<path class="st5" d="M341.31,363.05c0.14,0,0.26,10.86,0.26,24.26c0,13.4-0.12,24.26-0.26,24.26s-0.26-10.86-0.26-24.26
						C341.05,373.91,341.17,363.05,341.31,363.05z"/>
				</g>
			</g>
			<g>
				<g>
					<path class="st5" d="M238.6,279.14c0,0-0.16,0.02-0.48,0.04c-0.34,0.01-0.8,0.03-1.4,0.05c-1.25,0.04-3.06,0.09-5.38,0.15
						c-4.69,0.11-11.44,0.26-19.77,0.46c-16.72,0.34-39.78,0.8-65.24,1.31c-6.37,0.15-12.6,0.13-18.58,0.53
						c-5.97,0.4-11.75,1.23-16.92,3.09c-5.19,1.78-9.67,4.76-12.87,8.43c-1.59,1.84-2.93,3.8-3.94,5.83c-1.08,2-1.79,4.06-2.45,6.03
						c-1.19,3.99-1.72,7.74-2.02,11.03c-0.31,3.3-0.34,6.16-0.36,8.49c-0.01,2.33,0.04,4.15,0.07,5.37c0.01,0.6,0.02,1.06,0.03,1.4
						c0,0.32-0.01,0.48-0.01,0.48s-0.02-0.16-0.05-0.47c-0.02-0.34-0.05-0.8-0.08-1.4c-0.06-1.23-0.14-3.04-0.17-5.38
						c-0.02-2.34-0.01-5.2,0.27-8.51c0.28-3.31,0.79-7.08,1.96-11.11c0.65-1.99,1.36-4.08,2.44-6.11c1.01-2.06,2.36-4.05,3.97-5.93
						c3.23-3.75,7.78-6.79,13.03-8.6c5.23-1.89,11.05-2.74,17.05-3.15c6.01-0.4,12.24-0.39,18.61-0.54
						c25.47-0.45,48.53-0.86,65.25-1.16c8.33-0.12,15.08-0.22,19.78-0.29c2.32-0.02,4.12-0.04,5.38-0.05c0.6,0,1.06,0,1.4,0
						C238.44,279.13,238.6,279.14,238.6,279.14z"/>
				</g>
			</g>
			<g>
				<g>
					<path class="st5" d="M159.86,313.39c0.02,0.05-0.33,0.17-0.85,0.56c-0.51,0.38-1.18,1.09-1.55,2.17
						c-0.38,1.05-0.38,2.55,0.56,3.72c0.88,1.16,2.58,1.98,4.24,1.6c1.65-0.41,2.8-1.91,3.07-3.34c0.31-1.47-0.37-2.8-1.18-3.57
						c-0.82-0.79-1.73-1.12-2.36-1.23c-0.63-0.11-1-0.07-1.01-0.11c-0.01-0.02,0.36-0.14,1.03-0.09c0.67,0.05,1.66,0.34,2.58,1.17
						c0.45,0.41,0.88,0.95,1.16,1.63c0.27,0.68,0.39,1.49,0.24,2.3c-0.27,1.6-1.52,3.28-3.42,3.76c-1.91,0.43-3.78-0.5-4.74-1.81
						c-0.5-0.65-0.76-1.43-0.82-2.16c-0.06-0.73,0.09-1.41,0.3-1.98c0.45-1.15,1.21-1.86,1.78-2.21
						C159.48,313.43,159.86,313.37,159.86,313.39z"/>
				</g>
			</g>
			<g>
				<g>
					<path class="st5" d="M155.65,339.31c-0.06,0.01-0.42-1.1-0.76-2.96c-0.32-1.84-0.61-4.53,0.16-7.38
						c0.78-2.85,2.66-4.98,4.31-5.94c0.83-0.49,1.57-0.75,2.09-0.85c0.52-0.11,0.82-0.11,0.82-0.08c0.03,0.11-1.18,0.21-2.72,1.24
						c-1.53,1-3.26,3.05-4.01,5.77c-0.73,2.73-0.52,5.35-0.29,7.19C155.49,338.15,155.73,339.29,155.65,339.31z"/>
				</g>
			</g>
			<g>
				<g>
					<path class="st5" d="M159.29,297.95c0.07,0.07-0.72,0.76-1.47,2.21c-0.76,1.42-1.38,3.71-0.84,6.12
						c0.56,2.41,2.12,4.21,3.42,5.15c1.31,0.98,2.32,1.26,2.28,1.35c-0.01,0.03-0.27-0.01-0.71-0.15c-0.45-0.14-1.08-0.42-1.78-0.89
						c-1.4-0.91-3.11-2.76-3.71-5.34c-0.58-2.58,0.15-4.99,1.03-6.42c0.43-0.73,0.88-1.25,1.22-1.58
						C159.05,298.07,159.27,297.93,159.29,297.95z"/>
				</g>
			</g>
			<g>
				<g>
					<path class="st5" d="M158.37,317.97c0.01,0.16-2.52,0.23-5.42,1.22c-2.91,0.96-4.97,2.44-5.06,2.3
						c-0.09-0.09,1.88-1.8,4.89-2.8C155.78,317.67,158.39,317.84,158.37,317.97z"/>
				</g>
			</g>
			<g class="st7">
				<g>
					<path d="M126.06,378.94c9.57,7.4,21.92,11.12,33.99,10.25c-2.53,11.76-5.05,23.51-7.58,35.27c-0.67,3.14-1.3,6.63,0.34,9.38
						c2.3,3.87,7.65,4.25,12.14,4.19c5.01-0.07,10.23-0.19,14.67-2.51c6.29-3.29,9.67-10.24,12.11-16.9
						c2.44-6.66,4.55-13.8,9.57-18.81c5.69,6.52,13.63,11.05,22.15,12.61c2.51,0.46,5.34,0.6,7.35-0.97
						c1.99-1.56,2.57-4.42,2.06-6.9c-0.51-2.48-1.91-4.67-3.28-6.79c-4.88-7.57-9.76-15.14-14.63-22.7
						c-1.98-3.07-4.15-6.31-7.49-7.77c-2.63-1.15-5.61-1.03-8.47-0.87c-23.89,1.39-47.64,4.98-70.87,10.72"/>
				</g>
			</g>
			<g class="st7">
				<g>
					<path d="M204.28,266.4c-5.92,15.64-28.02,19.23-35.78,34.04c-7.67,14.65,1.84,34.04-6.07,48.56
						c-2.93,5.38-7.95,9.39-10.81,14.8c-1.93,3.65-2.92,7.98-6.03,10.69c-3.62,3.16-9.23,3.1-13.58,1.06
						c-4.35-2.04-7.7-5.7-10.79-9.37c-5.8-6.88-11.25-14.32-13.96-22.91c-4.67-14.78-0.39-31.48,8.97-43.83s23.27-20.67,37.94-25.65
						c14.67-4.99,30.2-6.88,45.62-8.32"/>
				</g>
			</g>
		</g>
		<g>
			<g>
				<path class="st5" d="M133.18,225.27c2.3-3.42,5.29-6.45,8.97-8.32c3.68-1.86,8.07-2.48,11.99-1.2c3.92,1.28,7.23,4.6,8.02,8.64
					c0.63,3.2-0.22,6.79,1.43,9.6c1.9,3.24,6.49,4.27,8.11,7.66c0.97,2.05,0.58,4.53-0.48,6.53c-1.07,2-2.73,3.6-4.39,5.14
					c1.01,0.71,2.03,1.45,2.74,2.46c0.71,1.01,1.06,2.36,0.58,3.5c-0.5,1.2-1.76,1.89-2.96,2.4c-5.54,2.35-11.81,2.94-17.69,1.66
					c-1.58-0.34-3.39-0.77-4.69,0.19"/>
			</g>
			<g>
				<path class="st8" d="M173.21,237.14l-3.23,9.8l21.87,12.41l-21.98,0.71l1.64,17.83l42.34-10.39
					C213.85,267.48,216.39,250.21,173.21,237.14l-3.04-0.71c-1.1-0.26-2-1.04-2.42-2.09l0,0c-0.33-0.83-0.94-1.51-1.73-1.93
					l-3.61-1.88l0.02,2.86l1.98,2.33l-0.32,5.53c-0.17,2.45,1.46,4.65,3.84,5.22l2.02,0.48"/>
			</g>
			<g>
				<g>
					<g>
						<path class="st9" d="M125.32,272.54c-0.87,0-8.94,1.96-13.56,7.84c-4.61,5.88-11.3,27.93-11.3,27.93l17.02,2.94l7.34,18.44
							c0,0,43.45-5.69,41.14-7.98c-2.31-2.29-7.05-5.82-7.05-5.82l10.02-33.31l12.02-6.48l-4.04-16.64l-24.18,3.27L125.32,272.54z"
							/>
					</g>
					<g>
						<g>
							<path class="st6" d="M166.86,290.27c0,0.14-13.55,0.26-30.25,0.26c-16.71,0-30.25-0.12-30.25-0.26s13.54-0.26,30.25-0.26
								C153.31,290.01,166.86,290.13,166.86,290.27z"/>
						</g>
					</g>
					<g>
						<g>
							<path class="st6" d="M164.15,300.06c0,0.14-13.55,0.26-30.25,0.26c-16.71,0-30.25-0.12-30.25-0.26
								c0-0.14,13.54-0.26,30.25-0.26C150.6,299.8,164.15,299.92,164.15,300.06z"/>
						</g>
					</g>
					<g>
						<g>
							<path class="st6" d="M164.15,310.63c0,0.14-10.26,0.26-22.91,0.26c-12.66,0-22.92-0.12-22.92-0.26s10.26-0.26,22.92-0.26
								C153.89,310.37,164.15,310.49,164.15,310.63z"/>
						</g>
					</g>
					<g>
						<g>
							<path class="st6" d="M167.66,320.82c0,0.14-10.26,0.26-22.91,0.26c-12.66,0-22.92-0.12-22.92-0.26
								c0-0.14,10.26-0.26,22.92-0.26C157.4,320.56,167.66,320.67,167.66,320.82z"/>
						</g>
					</g>
					<g>
						<g>
							<path class="st6" d="M178.51,277.1c0,0.14-6.78,0.26-15.14,0.26c-8.36,0-15.14-0.12-15.14-0.26s6.78-0.26,15.14-0.26
								C171.73,276.84,178.51,276.96,178.51,277.1z"/>
						</g>
					</g>
					<g>
						<g>
							<path class="st6" d="M179.61,266.72c0,0.14-6.75,0.42-15.08,0.61c-8.33,0.19-15.09,0.24-15.09,0.09
								c0-0.14,6.75-0.42,15.08-0.61C172.85,266.62,179.61,266.58,179.61,266.72z"/>
						</g>
					</g>
				</g>
				<g>
					<g>
						<path class="st5" d="M121,295.35c0.14,0.03-0.59,3.7-1.62,8.18c-1.04,4.49-1.99,8.1-2.13,8.06c-0.14-0.03,0.59-3.69,1.62-8.18
							C119.91,298.93,120.86,295.32,121,295.35z"/>
					</g>
				</g>
			</g>
			<g>
				<g>
					<polygon class="st8" points="168.3,420.21 155.64,460.14 170.9,461.67 185.24,426.98 					"/>
				</g>
				<g>
					<g>
						<g>
							<path class="st10" d="M179.47,446.14l-7.27,18.03c0,0,15.89,13.45,14.87,16.91l-35.47-12.84l10.18-28.56L179.47,446.14z"/>
						</g>
						<g>
							<g>
								<path class="st1" d="M161.79,458.66c-0.75-0.06-1.51,0.54-1.6,1.29c-0.09,0.75,0.51,1.52,1.26,1.6
									c0.75,0.07,1.68-0.62,1.69-1.38c0.01-0.76-0.75-1.62-1.5-1.52"/>
							</g>
						</g>
						<g>
							<path class="st1" d="M151.6,468.24l1.14-2.84l33.58,13.38c0,0,1.33,1.26,0.75,2.31L151.6,468.24z"/>
						</g>
						<g>
							<g>
								<path class="st5" d="M172.84,464.2c-0.07,0.17-0.96-0.06-2.02,0.18c-1.06,0.22-1.77,0.81-1.91,0.69
									c-0.15-0.09,0.49-1.03,1.77-1.31C171.96,463.47,172.93,464.05,172.84,464.2z"/>
							</g>
						</g>
						<g>
							<g>
								<path class="st5" d="M176,467.08c-0.02,0.18-0.88,0.2-1.73,0.72c-0.87,0.49-1.3,1.23-1.47,1.16
									c-0.17-0.03,0.07-1.09,1.15-1.72C175.01,466.62,176.06,466.92,176,467.08z"/>
							</g>
						</g>
						<g>
							<g>
								<path class="st5" d="M176.5,472.3c-0.17-0.02-0.1-0.97,0.69-1.76c0.78-0.79,1.73-0.87,1.76-0.7c0.05,0.18-0.66,0.5-1.3,1.15
									C176.99,471.64,176.68,472.35,176.5,472.3z"/>
							</g>
						</g>
						<g>
							<g>
								<path class="st5" d="M174.04,459.91c-0.13,0.13-0.84-0.4-1.84-0.68c-1-0.31-1.88-0.26-1.91-0.44
									c-0.05-0.16,0.92-0.53,2.1-0.18C173.56,458.96,174.17,459.8,174.04,459.91z"/>
							</g>
						</g>
					</g>
					<g>
						<g>
							<path class="st5" d="M175.44,456.24c-0.02,0.07-0.75-0.07-1.77-0.65c-0.51-0.29-1.09-0.7-1.65-1.24
								c-0.28-0.27-0.56-0.58-0.82-0.91c-0.13-0.16-0.28-0.34-0.39-0.61c-0.13-0.25-0.07-0.75,0.25-0.95
								c0.28-0.21,0.64-0.21,0.9-0.12c0.26,0.09,0.46,0.22,0.63,0.33c0.36,0.24,0.68,0.5,0.97,0.78c0.57,0.55,0.98,1.14,1.25,1.67
								c0.55,1.06,0.59,1.81,0.52,1.82c-0.1,0.03-0.3-0.66-0.91-1.59c-0.3-0.46-0.72-0.98-1.26-1.47c-0.27-0.24-0.57-0.47-0.91-0.68
								c-0.34-0.23-0.66-0.35-0.82-0.22c-0.06,0.05-0.07,0.07-0.03,0.21c0.04,0.13,0.16,0.29,0.28,0.45
								c0.24,0.32,0.49,0.61,0.74,0.88c0.51,0.53,1.02,0.95,1.48,1.28C174.83,455.86,175.48,456.15,175.44,456.24z"/>
						</g>
					</g>
					<g>
						<g>
							<path class="st5" d="M175.12,456.41c-0.07,0-0.19-0.74,0.15-1.89c0.17-0.57,0.47-1.22,0.95-1.86
								c0.24-0.32,0.52-0.63,0.84-0.91c0.33-0.28,0.76-0.65,1.46-0.49c0.36,0.11,0.55,0.49,0.56,0.76c0.03,0.28-0.02,0.5-0.05,0.72
								c-0.08,0.44-0.24,0.84-0.43,1.2c-0.38,0.71-0.92,1.23-1.42,1.56c-1.03,0.67-1.82,0.61-1.82,0.55
								c-0.03-0.11,0.7-0.22,1.55-0.91c0.42-0.34,0.86-0.83,1.17-1.47c0.15-0.32,0.27-0.67,0.34-1.04c0.08-0.4,0.05-0.75-0.11-0.76
								c-0.18-0.07-0.58,0.11-0.83,0.36c-0.3,0.25-0.56,0.52-0.79,0.8c-0.45,0.56-0.77,1.14-0.99,1.65
								C175.28,455.7,175.23,456.42,175.12,456.41z"/>
						</g>
					</g>
				</g>
			</g>
			<g>
				<g>
					<polygon class="st8" points="216.35,382.62 235.25,415.47 250.71,405.55 231.73,372.2 					"/>
				</g>
				<g>
					<g>
						<g>
							<path class="st10" d="M245.37,396.16l9.76,16.81c0,0,20.37-4.28,22.48-1.34l-31.92,20.1l-16.29-25.57L245.37,396.16z"/>
						</g>
						<g>
							<g>
								<path class="st1" d="M244.39,417.81c-0.51,0.56-0.5,1.52,0.04,2.06c0.54,0.53,1.52,0.53,2.04-0.02
									c0.52-0.55,0.54-1.71-0.05-2.18c-0.59-0.47-1.74-0.4-2.12,0.25"/>
							</g>
						</g>
						<g>
							<path class="st1" d="M245.69,431.73l-1.54-2.64l31.18-18.28c0,0,1.81-0.28,2.28,0.83L245.69,431.73z"/>
						</g>
						<g>
							<g>
								<path class="st5" d="M255.55,412.49c0.09,0.16-0.64,0.72-1.09,1.7c-0.48,0.97-0.45,1.9-0.63,1.93
									c-0.16,0.06-0.52-1.02,0.05-2.2C254.44,412.73,255.49,412.32,255.55,412.49z"/>
							</g>
						</g>
						<g>
							<g>
								<path class="st5" d="M259.77,411.77c0.13,0.13-0.38,0.82-0.49,1.81c-0.14,0.99,0.17,1.79,0.01,1.88
									c-0.13,0.12-0.81-0.73-0.65-1.96C258.8,412.26,259.67,411.62,259.77,411.77z"/>
							</g>
						</g>
						<g>
							<g>
								<path class="st5" d="M264.2,414.57c-0.12,0.12-0.83-0.52-0.97-1.63c-0.15-1.1,0.38-1.9,0.53-1.82
									c0.17,0.07-0.02,0.83,0.11,1.73C263.97,413.78,264.34,414.46,264.2,414.57z"/>
							</g>
						</g>
						<g>
							<g>
								<path class="st5" d="M252.9,408.9c0.02,0.18-0.83,0.42-1.67,1.03c-0.86,0.6-1.36,1.32-1.52,1.24
									c-0.16-0.06,0.14-1.05,1.15-1.76C251.86,408.7,252.9,408.73,252.9,408.9z"/>
							</g>
						</g>
					</g>
					<g>
						<g>
							<path class="st5" d="M250.87,405.55c0.04,0.06-0.51,0.55-1.6,1c-0.54,0.22-1.22,0.43-2,0.54c-0.39,0.06-0.8,0.09-1.22,0.09
								c-0.21,0-0.44,0.01-0.72-0.07c-0.27-0.05-0.63-0.41-0.59-0.78c0.01-0.35,0.23-0.64,0.46-0.79c0.23-0.16,0.45-0.23,0.65-0.29
								c0.41-0.14,0.82-0.23,1.21-0.28c0.78-0.11,1.5-0.07,2.08,0.04c1.17,0.22,1.79,0.64,1.76,0.71c-0.04,0.1-0.71-0.17-1.82-0.26
								c-0.55-0.05-1.22-0.03-1.93,0.09c-0.36,0.07-0.73,0.16-1.1,0.29c-0.39,0.12-0.68,0.3-0.68,0.51c0,0.08,0.01,0.1,0.15,0.16
								c0.13,0.05,0.32,0.05,0.53,0.05c0.4,0.01,0.78-0.01,1.15-0.05c0.73-0.07,1.38-0.22,1.92-0.38
								C250.19,405.8,250.82,405.46,250.87,405.55z"/>
						</g>
					</g>
					<g>
						<g>
							<path class="st5" d="M250.81,405.9c-0.04,0.06-0.7-0.31-1.39-1.28c-0.34-0.48-0.67-1.12-0.88-1.89
								c-0.1-0.38-0.18-0.79-0.2-1.23c-0.01-0.43-0.05-1,0.51-1.45c0.31-0.21,0.73-0.13,0.95,0.03c0.24,0.15,0.38,0.32,0.53,0.48
								c0.29,0.34,0.52,0.71,0.68,1.08c0.33,0.74,0.41,1.48,0.36,2.08c-0.1,1.22-0.64,1.82-0.68,1.77c-0.1-0.05,0.25-0.69,0.23-1.78
								c-0.01-0.54-0.13-1.19-0.44-1.82c-0.15-0.32-0.36-0.63-0.61-0.91c-0.26-0.31-0.56-0.5-0.67-0.39
								c-0.16,0.1-0.27,0.52-0.23,0.88c0.02,0.39,0.07,0.76,0.15,1.12c0.16,0.7,0.42,1.31,0.69,1.79
								C250.34,405.34,250.88,405.82,250.81,405.9z"/>
						</g>
					</g>
				</g>
			</g>
			<g>
				<g>
					<path class="st5" d="M160.09,377.99l37.11-25.24l23.41,45.57l21.29-11.52c0,0-24.51-59.77-33.31-61.7
						c-4.93-1.08-61.47,9.72-61.47,9.72l-6.32-3.18l-15.99-1.95l-1.02,2.59c-5.65,14.3-5,30.32,1.78,44.12l0.78,1.58H160.09z"/>
				</g>
				<g>
					<path class="st5" d="M147.06,346.42c0.28,1.25,30.96,29.98,30.96,29.98l-17.7,59.49l26.42,5.05l26.53-71.66l-48.49-47.57
						l-22.14,9.32L147.06,346.42z"/>
				</g>
				<g>
					<g>
						<path class="st10" d="M197.21,352.75c0.08,0.12-8.16,5.87-18.41,12.83c-10.25,6.97-18.62,12.52-18.7,12.4
							c-0.08-0.12,8.16-5.86,18.41-12.83C188.75,358.18,197.12,352.63,197.21,352.75z"/>
					</g>
				</g>
				<g>
					<g>
						<path class="st10" d="M216.26,389.83c-0.03,0.02-0.35-0.47-0.9-1.38c-0.55-0.9-1.31-2.22-2.24-3.87
							c-1.85-3.29-4.31-7.89-6.91-13.03c-2.61-5.14-4.89-9.82-6.5-13.24c-0.81-1.71-1.45-3.09-1.88-4.06
							c-0.43-0.96-0.65-1.51-0.62-1.52c0.03-0.02,0.31,0.5,0.8,1.43c0.52,1.02,1.2,2.36,2.02,3.98c1.74,3.45,4.07,8.06,6.64,13.16
							c2.6,5.13,5.01,9.75,6.77,13.09c0.85,1.6,1.56,2.93,2.1,3.94C216.03,389.29,216.29,389.81,216.26,389.83z"/>
					</g>
				</g>
				<g>
					<g>
						<path class="st10" d="M183.57,365.78c0.13,0.07-1.14,2.92-2.84,6.37c-1.7,3.45-3.18,6.21-3.31,6.15
							c-0.13-0.06,1.14-2.91,2.84-6.37C181.96,368.47,183.44,365.71,183.57,365.78z"/>
					</g>
				</g>
			</g>
			<g>
				<path class="st8" d="M100.46,308.32l-5.96,22.16c-0.77,2.87-0.42,5.92,0.99,8.53l0,0c2.49,4.61,7.75,7,12.86,5.81l47.55-11.71
					l-4.97-9.87l-37.46,3.25l4.01-15.23L100.46,308.32z"/>
			</g>
			<g>
				<g>
					<polygon class="st10" points="121.55,341.95 122.17,338.73 147.94,334.1 155.43,294.37 203.29,288.67 195.24,331.08 					"/>
				</g>
				<g>
					<path class="st0" d="M176.92,315.77c-1.25-0.24-2.05-1.61-1.77-3.06c0.28-1.45,1.52-2.42,2.78-2.18
						c1.25,0.24,2.05,1.61,1.77,3.06C179.41,315.03,178.17,316.01,176.92,315.77z"/>
				</g>
			</g>
			<g>
				<g>
					<g>
						<g>
							<g>
								<g>
									<g>
										<path class="st8" d="M128.55,228.02l0.09,2.87l1.08,43.01c0.12,4.99,4.52,8.86,9.86,8.69h0c5.4-0.18,9.74-4.41,9.69-9.45
											c-0.05-5.3,0-10.87,0-10.87s6.81-1.21,8.12-10.13c0.65-4.43,0.34-11.69-0.1-17.62c-0.4-5.34-5.15-9.27-10.47-8.64
											L128.55,228.02z"/>
									</g>
								</g>
							</g>
						</g>
					</g>
					<g>
						<g>
							<g>
								<g>
									<g>
										<g>
											<path class="st5" d="M153.85,239.47c0.03,0.6-0.46,1.12-1.09,1.16c-0.63,0.04-1.16-0.41-1.19-1.02
												c-0.03-0.6,0.46-1.12,1.09-1.17C153.29,238.41,153.82,238.87,153.85,239.47z"/>
										</g>
									</g>
								</g>
							</g>
						</g>
						<g>
							<g>
								<g>
									<g>
										<g>
											<g>
												<path class="st5" d="M155.77,238.31c-0.14,0.15-1.01-0.48-2.24-0.46c-1.23,0-2.12,0.64-2.26,0.49
													c-0.07-0.07,0.07-0.34,0.46-0.63c0.38-0.29,1.04-0.57,1.8-0.58c0.77,0,1.41,0.27,1.79,0.55
													C155.71,237.97,155.84,238.24,155.77,238.31z"/>
											</g>
										</g>
									</g>
								</g>
							</g>
						</g>
					</g>
					<g>
						<g>
							<g>
								<g>
									<g>
										<g>
											<path class="st5" d="M141.73,239.91c0.03,0.6-0.46,1.12-1.09,1.16c-0.63,0.04-1.16-0.41-1.19-1.02
												c-0.03-0.6,0.46-1.12,1.09-1.17C141.17,238.86,141.7,239.31,141.73,239.91z"/>
										</g>
									</g>
								</g>
							</g>
						</g>
						<g>
							<g>
								<g>
									<g>
										<g>
											<g>
												<path class="st5" d="M143.7,238.68c-0.14,0.15-1.01-0.48-2.24-0.46c-1.23,0-2.12,0.64-2.26,0.49
													c-0.07-0.07,0.07-0.34,0.46-0.63c0.38-0.29,1.04-0.57,1.8-0.58c0.77,0,1.41,0.27,1.79,0.55
													C143.63,238.34,143.77,238.61,143.7,238.68z"/>
											</g>
										</g>
									</g>
								</g>
							</g>
						</g>
					</g>
					<g>
						<g>
							<g>
								<g>
									<g>
										<g>
											<path class="st5" d="M148.26,247.73c-0.01-0.07,0.76-0.21,1.99-0.38c0.31-0.04,0.61-0.1,0.66-0.32
												c0.07-0.23-0.06-0.56-0.22-0.93c-0.3-0.76-0.62-1.55-0.96-2.38c-1.33-3.39-2.29-6.17-2.16-6.22
												c0.14-0.05,1.32,2.65,2.65,6.04c0.32,0.83,0.63,1.63,0.92,2.39c0.12,0.36,0.33,0.76,0.18,1.23
												c-0.08,0.24-0.31,0.41-0.51,0.46c-0.2,0.06-0.38,0.07-0.53,0.08C149.04,247.79,148.27,247.8,148.26,247.73z"/>
										</g>
									</g>
								</g>
							</g>
						</g>
					</g>
					<g>
						<g>
							<g>
								<g>
									<g>
										<path class="st11" d="M149.28,262.26c0,0-5.98,0.46-11.96-3.04c0,0,2.96,6.08,11.86,5.14L149.28,262.26z"/>
									</g>
								</g>
							</g>
						</g>
					</g>
					<g>
						<g>
							<g>
								<g>
									<g>
										<path class="st5" d="M144.19,236.65c-0.14,0.33-1.35,0.11-2.8,0.22c-1.45,0.08-2.63,0.45-2.81,0.14
											c-0.08-0.15,0.14-0.45,0.62-0.75c0.48-0.3,1.24-0.57,2.11-0.63c0.87-0.05,1.65,0.12,2.17,0.36
											C144,236.22,144.25,236.5,144.19,236.65z"/>
									</g>
								</g>
							</g>
						</g>
					</g>
					<g>
						<g>
							<g>
								<g>
									<g>
										<path class="st5" d="M155.26,234.04c-0.21,0.28-1.06,0-2.08,0c-1.02-0.04-1.88,0.21-2.08-0.08
											c-0.09-0.14,0.04-0.42,0.42-0.69c0.37-0.27,0.99-0.49,1.69-0.48c0.7,0.01,1.31,0.26,1.67,0.54
											C155.23,233.62,155.35,233.91,155.26,234.04z"/>
									</g>
								</g>
							</g>
						</g>
					</g>
					<g>
						<g>
							<path class="st11" d="M148.13,252.18c-0.35,0.1-0.72-0.02-1.07-0.11c-0.35-0.1-0.68-0.19-0.96-0.28
								c-0.28-0.09-0.6-0.22-0.94-0.34c-0.33-0.14-0.71-0.26-0.92-0.55c-0.21-0.28-0.17-0.76,0.31-1.19
								c0.46-0.42,1.39-0.72,2.37-0.39c0.98,0.33,1.55,1.12,1.66,1.73C148.72,251.67,148.46,252.09,148.13,252.18z"/>
						</g>
					</g>
					<g>
						<g>
							<path class="st5" d="M148.3,252.07c-0.12,0.08-0.72-1.14-2.15-1.51c-1.44-0.37-2.55,0.42-2.61,0.29
								c-0.04-0.05,0.16-0.33,0.65-0.58c0.48-0.25,1.26-0.43,2.09-0.22c0.83,0.21,1.43,0.75,1.73,1.2
								C148.31,251.71,148.36,252.05,148.3,252.07z"/>
						</g>
					</g>
				</g>
				<g>
					<path class="st5" d="M138.85,222.22c2.85,4.24,2.12,10.5-1.61,13.98c-2.13,1.98-5.3,3.53-5.51,6.43
						c-0.24,3.21,3.48,5.61,3.49,8.84c0.01,3.31-3.82,5.42-4.56,8.65c-0.6,2.6,0.95,5.2,2.75,7.17c1.8,1.97,3.96,3.71,5.04,6.15
						c1.19,2.69,0.85,5.86-0.3,8.57c-1.16,2.7-3.06,5.01-5.03,7.2c-2.65-0.95-5.43-1.57-8.24-1.83c0.18-1.06,0.35-2.12,0.53-3.19
						c0.06,1.24-0.98,2.32-2.15,2.7c-1.17,0.39-2.45,0.24-3.68,0.05c-3.75-0.59-7.44-1.54-11-2.83c1.52-1.53,3.07-3.09,4.02-5.02
						c0.95-1.94,1.2-4.35,0.11-6.2c-0.88-1.49-2.5-2.45-3.31-3.99c-1.21-2.3-0.21-5.22,1.51-7.17c1.72-1.95,4.06-3.22,6.1-4.82
						c2.05-1.6,3.93-3.76,4.1-6.36c0.21-3.37-2.51-6.43-2.17-9.79c0.38-3.82,4.42-6.16,6.01-9.65c1.15-2.53,0.99-5.65,2.76-7.8
						c1.3-1.59,3.47-2.31,5.53-2.2c2.05,0.11,4.01,0.95,5.76,2.03"/>
				</g>
				<g>
					<path class="st5" d="M150.02,263.22c-1.61,0.89-1.51,3.33-0.54,4.88c0.98,1.55,2.55,2.66,3.52,4.22
						c1.73,2.79,0.98,6.83-1.63,8.81l3.84,1.45l0.84-0.47l2.36-1.33l-1.11,2.72l2.46,0c2.59,0.03,5.13-1.5,6.32-3.79
						c1.19-2.3,0.97-5.25-0.54-7.35c-1.01-1.4-2.58-2.51-2.92-4.21c-0.41-2.04,1.13-3.89,1.89-5.83c1.26-3.24,0.11-7.26-2.68-9.33"
						/>
				</g>
			</g>
		</g>
	</g>
</g>
<g id="Speech_Bubble">
	<g>
		<g>
			<g>
				<g>
					<path class="st6" d="M74.25,182.29c0.45,0.22,0.76,0.67,0.76,1.21l0,6.66c0,0.42-0.2,0.81-0.53,1.07
						c-0.33,0.25-0.77,0.33-1.17,0.22c-1.06-0.3-2.25-0.12-3.26,0.5c-0.93,0.57-1.58,1.43-1.78,2.38c-0.2,0.94,0.05,2,0.68,2.91
						c0.67,0.97,1.7,1.65,2.75,1.82c2.15,0.34,4.54-1.21,5.24-3.39c0.22-0.7,0.98-1.09,1.68-0.87c0.72,0.23,1.09,0.98,0.87,1.68
						c-1.09,3.42-4.77,5.76-8.21,5.22c-1.78-0.28-3.43-1.36-4.53-2.94c-1.04-1.51-1.44-3.32-1.1-4.97c0.35-1.67,1.44-3.17,3.01-4.12
						c1.13-0.69,2.41-1.04,3.67-1.03l0-5.13c0-0.74,0.6-1.34,1.34-1.34C73.88,182.16,74.07,182.21,74.25,182.29z"/>
				</g>
			</g>
			<g>
				<g>
					<path class="st6" d="M72.41,179.49c-0.02-0.6,0.46-1.11,1.07-1.12c0.6-0.02,1.11,0.46,1.12,1.07c0.02,0.6-0.46,1.11-1.07,1.12
						C72.92,180.57,72.42,180.1,72.41,179.49z"/>
				</g>
			</g>
		</g>
		<g>
			<g>
				<g>
					<path class="st5" d="M105.03,215.15c0.01,0.03-0.33,0.05-0.88,0.28c-0.54,0.22-1.29,0.7-1.86,1.59
						c-0.28,0.44-0.5,0.98-0.57,1.59c-0.07,0.6,0.02,1.27,0.33,1.88c0.59,1.22,1.99,2.27,3.58,2.19c1.59-0.11,2.86-1.32,3.3-2.6
						c0.24-0.64,0.25-1.32,0.11-1.91c-0.14-0.59-0.43-1.1-0.76-1.51c-0.66-0.82-1.47-1.21-2.03-1.36c-0.57-0.16-0.91-0.14-0.91-0.17
						c0-0.01,0.08-0.02,0.24-0.02c0.08-0.01,0.18,0,0.29,0.02c0.12,0.01,0.25,0.03,0.4,0.07c0.59,0.13,1.44,0.5,2.16,1.34
						c0.35,0.42,0.67,0.95,0.83,1.58c0.16,0.63,0.15,1.36-0.09,2.05c-0.23,0.69-0.68,1.36-1.29,1.87c-0.6,0.52-1.39,0.87-2.25,0.93
						c-0.85,0.04-1.68-0.22-2.34-0.66c-0.67-0.43-1.19-1.04-1.5-1.7c-0.33-0.66-0.41-1.38-0.33-2.02c0.09-0.65,0.34-1.21,0.64-1.67
						c0.61-0.92,1.42-1.39,1.99-1.59c0.14-0.06,0.27-0.09,0.39-0.11c0.11-0.03,0.21-0.05,0.29-0.05
						C104.95,215.14,105.03,215.14,105.03,215.15z"/>
				</g>
			</g>
			<g>
				<g>
					<path class="st5" d="M114.76,224.82c0,0.03-0.21,0.05-0.55,0.19c-0.33,0.14-0.8,0.45-1.14,1c-0.35,0.54-0.53,1.38-0.14,2.14
						c0.36,0.75,1.23,1.4,2.21,1.35c0.97-0.07,1.76-0.81,2.03-1.6c0.3-0.81,0.02-1.62-0.39-2.11c-0.41-0.51-0.91-0.76-1.25-0.86
						c-0.35-0.1-0.57-0.1-0.57-0.13c0-0.01,0.21-0.06,0.59,0.02c0.37,0.07,0.92,0.31,1.38,0.84c0.23,0.26,0.43,0.6,0.54,1.01
						c0.1,0.4,0.1,0.87-0.05,1.32c-0.29,0.88-1.15,1.72-2.27,1.8c-1.12,0.05-2.07-0.68-2.46-1.52c-0.21-0.42-0.26-0.89-0.21-1.3
						c0.06-0.41,0.22-0.77,0.41-1.06c0.4-0.58,0.91-0.88,1.27-1C114.54,224.79,114.76,224.81,114.76,224.82z"/>
				</g>
			</g>
			<g>
				<g>
					<g>
						<path class="st5" d="M103.42,195.33c0,0-0.01-0.17,0-0.5c0.01-0.34,0.01-0.83,0.03-1.47c0.01-0.32,0.01-0.68,0.02-1.08
							c-0.01-0.4-0.06-0.83-0.09-1.3c-0.04-0.47-0.08-0.98-0.12-1.52c-0.01-0.27-0.05-0.55-0.11-0.83c-0.05-0.28-0.1-0.58-0.16-0.88
							c-0.35-2.42-1.25-5.33-2.77-8.45c-1.54-3.11-3.85-6.42-7.13-9.33c-0.41-0.36-0.83-0.72-1.25-1.09c-0.44-0.34-0.91-0.66-1.37-1
							c-0.23-0.17-0.47-0.33-0.7-0.5c-0.23-0.17-0.47-0.34-0.73-0.48c-0.51-0.29-1.02-0.59-1.53-0.89c-0.26-0.15-0.52-0.3-0.78-0.45
							c-0.27-0.12-0.55-0.25-0.83-0.38c-0.55-0.25-1.11-0.51-1.68-0.76c-0.57-0.24-1.18-0.41-1.77-0.63c-0.3-0.1-0.6-0.2-0.9-0.31
							c-0.15-0.05-0.3-0.11-0.45-0.15l-0.47-0.11c-1.25-0.28-2.52-0.64-3.85-0.75c-0.66-0.07-1.32-0.19-1.99-0.23
							c-0.67-0.02-1.35-0.04-2.04-0.05c-0.34,0-0.69-0.03-1.03-0.01c-0.34,0.03-0.69,0.05-1.04,0.08c-0.69,0.06-1.39,0.09-2.09,0.17
							c-1.38,0.26-2.81,0.43-4.19,0.88c-0.35,0.1-0.7,0.2-1.05,0.29c-0.17,0.05-0.35,0.09-0.52,0.15l-0.51,0.2
							c-0.68,0.27-1.37,0.53-2.06,0.8c-0.68,0.3-1.33,0.66-2,0.99c-0.33,0.18-0.68,0.32-0.99,0.52l-0.96,0.61
							c-1.31,0.76-2.49,1.74-3.71,2.69c-0.56,0.53-1.13,1.06-1.69,1.6l-0.43,0.4c-0.13,0.14-0.26,0.29-0.39,0.44l-0.78,0.88
							l-0.78,0.89l-0.7,0.96l-0.7,0.97l-0.35,0.49c-0.11,0.17-0.2,0.34-0.3,0.52c-0.4,0.69-0.81,1.39-1.21,2.08
							c-0.34,0.73-0.67,1.47-1.01,2.21c-1.24,3-2.03,6.23-2.34,9.55c-0.22,3.33,0.07,6.65,0.83,9.8c0.22,0.78,0.44,1.56,0.65,2.34
							c0.29,0.75,0.58,1.5,0.87,2.24l0.22,0.56l0.27,0.53l0.54,1.06l0.54,1.06l0.63,1l0.63,0.99l0.32,0.49l0.36,0.46
							c0.48,0.62,0.95,1.23,1.43,1.84c1.06,1.12,2.07,2.28,3.25,3.23l0.85,0.75c0.28,0.25,0.6,0.45,0.9,0.67
							c0.61,0.43,1.2,0.89,1.82,1.29c0.64,0.37,1.28,0.74,1.91,1.11l0.47,0.28c0.16,0.08,0.33,0.15,0.49,0.23
							c0.33,0.15,0.66,0.3,0.99,0.45c1.29,0.66,2.67,1.05,4,1.52c0.68,0.2,1.36,0.33,2.04,0.5c0.34,0.08,0.68,0.16,1.01,0.24
							c0.34,0.07,0.68,0.1,1.02,0.15c0.68,0.09,1.35,0.18,2.02,0.26c0.67,0.06,1.34,0.05,2.01,0.08c1.33,0.1,2.63-0.07,3.92-0.15
							l0.48-0.03c0.16-0.02,0.32-0.05,0.47-0.08c0.31-0.05,0.63-0.11,0.94-0.16c0.62-0.12,1.24-0.2,1.85-0.34
							c0.6-0.17,1.19-0.33,1.78-0.5c0.29-0.08,0.59-0.16,0.88-0.24c0.28-0.11,0.56-0.21,0.84-0.32c0.56-0.22,1.11-0.43,1.65-0.64
							c0.28-0.1,0.54-0.23,0.79-0.36c0.26-0.13,0.52-0.26,0.77-0.39c0.51-0.26,1.02-0.5,1.51-0.77c0.47-0.3,0.94-0.59,1.4-0.89
							c3.69-2.37,6.49-5.27,8.49-8.11c0.25-0.35,0.51-0.7,0.75-1.04c0.21-0.36,0.42-0.72,0.62-1.07c0.2-0.35,0.4-0.69,0.6-1.03
							c0.1-0.17,0.2-0.33,0.29-0.5c0.08-0.17,0.16-0.34,0.24-0.51c0.31-0.68,0.61-1.32,0.89-1.94c0.27-0.62,0.45-1.25,0.66-1.82
							c0.1-0.29,0.2-0.57,0.29-0.84c0.1-0.27,0.19-0.54,0.24-0.81c0.13-0.53,0.24-1.02,0.35-1.48c0.1-0.46,0.22-0.88,0.29-1.27
							c0.05-0.39,0.1-0.75,0.15-1.07c0.09-0.63,0.16-1.12,0.2-1.46C103.39,195.49,103.42,195.33,103.42,195.33s-0.01,0.17-0.05,0.5
							c-0.04,0.34-0.1,0.82-0.17,1.46c-0.04,0.32-0.08,0.68-0.13,1.08c-0.07,0.39-0.18,0.82-0.28,1.28
							c-0.11,0.46-0.22,0.96-0.34,1.49c-0.05,0.27-0.13,0.54-0.23,0.81c-0.09,0.28-0.19,0.56-0.29,0.85
							c-0.21,0.58-0.38,1.21-0.65,1.84c-0.28,0.62-0.58,1.27-0.89,1.96c-0.08,0.17-0.16,0.34-0.23,0.52
							c-0.08,0.17-0.19,0.33-0.28,0.5c-0.2,0.34-0.39,0.68-0.6,1.03c-0.2,0.35-0.41,0.71-0.62,1.08c-0.24,0.35-0.49,0.69-0.75,1.05
							c-2,2.86-4.8,5.79-8.51,8.19c-0.47,0.3-0.94,0.59-1.41,0.9c-0.49,0.27-1.01,0.52-1.52,0.78c-0.26,0.13-0.52,0.26-0.78,0.39
							c-0.26,0.13-0.52,0.27-0.8,0.37c-0.55,0.21-1.1,0.43-1.66,0.65c-0.28,0.11-0.56,0.22-0.85,0.33
							c-0.29,0.08-0.59,0.16-0.88,0.25c-0.59,0.17-1.19,0.33-1.79,0.5c-0.61,0.15-1.23,0.23-1.86,0.35
							c-0.31,0.06-0.63,0.11-0.94,0.17c-0.16,0.03-0.32,0.06-0.48,0.08l-0.48,0.04c-1.29,0.08-2.61,0.25-3.95,0.16
							c-0.67-0.03-1.35-0.01-2.02-0.08c-0.67-0.09-1.35-0.17-2.04-0.26c-0.34-0.05-0.69-0.07-1.03-0.15
							c-0.34-0.08-0.68-0.16-1.02-0.24c-0.68-0.17-1.37-0.3-2.06-0.5c-1.34-0.48-2.73-0.86-4.03-1.53c-0.33-0.15-0.66-0.3-1-0.46
							c-0.17-0.08-0.34-0.15-0.5-0.23l-0.48-0.28c-0.64-0.37-1.28-0.74-1.93-1.12c-0.63-0.4-1.22-0.87-1.84-1.3
							c-0.3-0.23-0.63-0.43-0.91-0.68l-0.86-0.75c-1.19-0.96-2.21-2.13-3.28-3.26c-0.48-0.62-0.96-1.23-1.44-1.85l-0.36-0.47
							l-0.32-0.5l-0.64-1l-0.64-1.01l-0.54-1.07l-0.54-1.07l-0.27-0.54l-0.22-0.56c-0.29-0.75-0.59-1.51-0.88-2.27
							c-0.22-0.78-0.44-1.57-0.66-2.36c-0.77-3.19-1.05-6.53-0.83-9.89c0.31-3.35,1.11-6.61,2.36-9.64
							c0.34-0.74,0.68-1.49,1.02-2.23c0.41-0.7,0.82-1.4,1.22-2.1c0.1-0.17,0.2-0.35,0.31-0.52l0.35-0.49l0.7-0.98l0.7-0.97
							l0.79-0.9l0.78-0.89c0.13-0.15,0.26-0.3,0.39-0.44l0.43-0.4c0.57-0.54,1.14-1.07,1.71-1.61c1.23-0.95,2.42-1.94,3.75-2.71
							l0.97-0.61c0.32-0.2,0.67-0.35,1-0.53c0.68-0.33,1.34-0.7,2.02-1c0.7-0.27,1.39-0.54,2.08-0.81l0.52-0.2
							c0.17-0.06,0.35-0.1,0.53-0.15c0.35-0.1,0.71-0.2,1.06-0.3c1.39-0.45,2.83-0.62,4.22-0.88c0.7-0.09,1.41-0.11,2.11-0.17
							c0.35-0.03,0.7-0.05,1.04-0.08c0.35-0.02,0.69,0.01,1.04,0.02c0.69,0.02,1.38,0.04,2.06,0.06c0.68,0.04,1.35,0.16,2.01,0.24
							c1.34,0.12,2.61,0.48,3.87,0.77l0.47,0.11c0.16,0.04,0.31,0.1,0.46,0.15c0.3,0.1,0.61,0.21,0.91,0.31
							c0.6,0.22,1.21,0.39,1.78,0.63c0.57,0.26,1.13,0.52,1.69,0.77c0.28,0.13,0.56,0.26,0.83,0.38c0.27,0.15,0.52,0.3,0.79,0.45
							c0.52,0.3,1.03,0.6,1.54,0.9c0.26,0.14,0.5,0.31,0.73,0.49c0.24,0.17,0.47,0.34,0.71,0.51c0.46,0.34,0.94,0.66,1.38,1.01
							c0.42,0.37,0.84,0.74,1.26,1.1c3.29,2.94,5.6,6.27,7.14,9.41c1.52,3.15,2.4,6.07,2.73,8.5c0.05,0.3,0.1,0.6,0.15,0.88
							c0.06,0.29,0.1,0.56,0.11,0.84c0.04,0.54,0.07,1.05,0.11,1.52c0.03,0.47,0.07,0.91,0.08,1.31c-0.01,0.4-0.03,0.76-0.04,1.08
							c-0.02,0.64-0.04,1.13-0.05,1.47C103.43,195.16,103.42,195.33,103.42,195.33z"/>
					</g>
				</g>
			</g>
		</g>
	</g>
</g>
<g id="Sreen">
	<g>
		<g>
			<rect x="237.76" y="47.12" class="st2" width="206.45" height="313.39"/>
		</g>
		<g>
			<rect x="237.34" y="63.08" class="st12" width="206.51" height="134.87"/>
		</g>
		<g>
			<g>
				<path class="st13" d="M370.66,340.29"/>
			</g>
		</g>
		<g>
			<path class="st5" d="M287.79,216.96v3.07h4.41v1.08h-4.41v3.56h-1.26v-8.8h6.21v1.09H287.79z"/>
			<path class="st5" d="M293.51,221.34c0-1.99,1.47-3.39,3.47-3.39c2,0,3.46,1.41,3.46,3.39c0,1.99-1.46,3.41-3.46,3.41
				C294.98,224.75,293.51,223.32,293.51,221.34z M299.22,221.34c0-1.42-0.96-2.34-2.24-2.34c-1.28,0-2.25,0.92-2.25,2.34
				c0,1.42,0.97,2.35,2.25,2.35C298.27,223.69,299.22,222.76,299.22,221.34z"/>
			<path class="st5" d="M305.7,217.94v1.17c-0.1-0.01-0.19-0.01-0.28-0.01c-1.29,0-2.1,0.79-2.1,2.25v3.32h-1.21v-6.66h1.16v1.12
				C303.7,218.35,304.53,217.94,305.7,217.94z"/>
			<path class="st5" d="M313.49,218.01v5.76c0,2.35-1.19,3.42-3.46,3.42c-1.22,0-2.45-0.34-3.18-0.99l0.58-0.93
				c0.62,0.53,1.58,0.87,2.57,0.87c1.57,0,2.29-0.73,2.29-2.24v-0.53c-0.58,0.69-1.45,1.03-2.4,1.03c-1.92,0-3.38-1.31-3.38-3.23
				c0-1.92,1.46-3.22,3.38-3.22c0.99,0,1.9,0.36,2.46,1.09v-1.03H313.49z M312.31,221.16c0-1.3-0.96-2.16-2.29-2.16
				c-1.35,0-2.3,0.87-2.3,2.16c0,1.28,0.96,2.18,2.3,2.18C311.36,223.34,312.31,222.44,312.31,221.16z"/>
			<path class="st5" d="M315.18,221.34c0-1.99,1.47-3.39,3.47-3.39c2,0,3.46,1.41,3.46,3.39c0,1.99-1.46,3.41-3.46,3.41
				C316.65,224.75,315.18,223.32,315.18,221.34z M320.89,221.34c0-1.42-0.96-2.34-2.24-2.34c-1.28,0-2.25,0.92-2.25,2.34
				c0,1.42,0.97,2.35,2.25,2.35C319.93,223.69,320.89,222.76,320.89,221.34z"/>
			<path class="st5" d="M327.53,224.28c-0.36,0.31-0.92,0.47-1.46,0.47c-1.35,0-2.11-0.74-2.11-2.09V219h-1.13v-0.99h1.13v-1.46
				h1.21v1.46h1.91V219h-1.91v3.61c0,0.72,0.38,1.12,1.04,1.12c0.35,0,0.69-0.11,0.94-0.31L327.53,224.28z"/>
			<path class="st5" d="M339.27,221.34c0,2.05-1.42,3.41-3.37,3.41c-0.94,0-1.77-0.36-2.33-1.08v3.44h-1.21v-9.1h1.16v1.06
				c0.54-0.74,1.4-1.12,2.38-1.12C337.85,217.94,339.27,219.3,339.27,221.34z M338.05,221.34c0-1.41-0.97-2.34-2.25-2.34
				c-1.27,0-2.24,0.93-2.24,2.34c0,1.42,0.97,2.35,2.24,2.35C337.08,223.69,338.05,222.76,338.05,221.34z"/>
			<path class="st5" d="M346.16,220.65v4.02h-1.14v-0.88c-0.4,0.6-1.14,0.96-2.19,0.96c-1.51,0-2.46-0.8-2.46-1.96
				c0-1.07,0.69-1.95,2.68-1.95h1.91v-0.24c0-1.02-0.59-1.61-1.79-1.61c-0.79,0-1.6,0.28-2.11,0.72l-0.5-0.91
				c0.69-0.55,1.68-0.85,2.75-0.85C345.13,217.94,346.16,218.82,346.16,220.65z M344.96,222.63v-0.93h-1.86
				c-1.2,0-1.53,0.47-1.53,1.03c0,0.67,0.55,1.08,1.47,1.08C343.94,223.81,344.65,223.4,344.96,222.63z"/>
			<path class="st5" d="M347.56,223.97l0.5-0.96c0.57,0.4,1.47,0.69,2.34,0.69c1.12,0,1.58-0.34,1.58-0.91c0-1.5-4.21-0.2-4.21-2.85
				c0-1.19,1.07-2,2.78-2c0.87,0,1.85,0.23,2.43,0.6l-0.52,0.96c-0.6-0.39-1.27-0.53-1.92-0.53c-1.06,0-1.57,0.39-1.57,0.92
				c0,1.57,4.22,0.29,4.22,2.88c0,1.21-1.11,1.97-2.88,1.97C349.21,224.75,348.11,224.41,347.56,223.97z"/>
			<path class="st5" d="M353.86,223.97l0.5-0.96c0.57,0.4,1.47,0.69,2.34,0.69c1.12,0,1.58-0.34,1.58-0.91c0-1.5-4.21-0.2-4.21-2.85
				c0-1.19,1.07-2,2.78-2c0.87,0,1.85,0.23,2.43,0.6l-0.52,0.96c-0.6-0.39-1.27-0.53-1.92-0.53c-1.06,0-1.57,0.39-1.57,0.92
				c0,1.57,4.22,0.29,4.22,2.88c0,1.21-1.11,1.97-2.88,1.97C355.51,224.75,354.41,224.41,353.86,223.97z"/>
			<path class="st5" d="M370.96,218.01l-2.49,6.66h-1.16l-1.92-5.05l-1.95,5.05h-1.16l-2.48-6.66h1.14l1.94,5.31l2.01-5.31h1.02
				l1.97,5.33l1.99-5.33H370.96z"/>
			<path class="st5" d="M371.38,221.34c0-1.99,1.47-3.39,3.47-3.39c2,0,3.46,1.41,3.46,3.39c0,1.99-1.46,3.41-3.46,3.41
				C372.85,224.75,371.38,223.32,371.38,221.34z M377.08,221.34c0-1.42-0.95-2.34-2.24-2.34c-1.28,0-2.25,0.92-2.25,2.34
				c0,1.42,0.97,2.35,2.25,2.35C376.13,223.69,377.08,222.76,377.08,221.34z"/>
			<path class="st5" d="M383.56,217.94v1.17c-0.1-0.01-0.19-0.01-0.28-0.01c-1.3,0-2.1,0.79-2.1,2.25v3.32h-1.21v-6.66h1.16v1.12
				C381.56,218.35,382.39,217.94,383.56,217.94z"/>
			<path class="st5" d="M391.27,215.34v9.33h-1.16v-1.06c-0.54,0.75-1.4,1.13-2.38,1.13c-1.95,0-3.37-1.37-3.37-3.41
				c0-2.04,1.42-3.39,3.37-3.39c0.94,0,1.77,0.35,2.33,1.07v-3.67H391.27z M390.07,221.34c0-1.42-0.97-2.34-2.24-2.34
				c-1.28,0-2.25,0.92-2.25,2.34c0,1.42,0.97,2.35,2.25,2.35C389.11,223.69,390.07,222.76,390.07,221.34z"/>
			<path class="st5" d="M397.49,218.19c0-0.8-0.67-1.36-1.8-1.36c-1.02,0-1.75,0.35-2.25,0.99l-0.92-0.65
				c0.69-0.89,1.79-1.41,3.26-1.41c1.81,0,2.98,0.84,2.98,2.24c0,2.1-2.23,2.24-2.23,3.88h-1.26
				C395.28,219.92,397.49,219.64,397.49,218.19z M395.1,223.94c0-0.45,0.34-0.8,0.82-0.8c0.47,0,0.8,0.35,0.8,0.8
				c0,0.44-0.34,0.8-0.8,0.8C395.44,224.75,395.1,224.38,395.1,223.94z"/>
		</g>
		<g>
			<g>
				<path d="M422.61,242.73c0,0.14-35.38,0.26-79.01,0.26c-43.65,0-79.02-0.12-79.02-0.26c0-0.14,35.37-0.26,79.02-0.26
					C387.23,242.47,422.61,242.59,422.61,242.73z"/>
			</g>
		</g>
		<g>
			<g>
				<path d="M388.88,251.18c0,0.14-20.28,0.26-45.28,0.26c-25.02,0-45.29-0.12-45.29-0.26c0-0.14,20.27-0.26,45.29-0.26
					C368.61,250.92,388.88,251.03,388.88,251.18z"/>
			</g>
		</g>
		<g>
			<g>
				<g>
					<g>
						<g>
							<path class="st5" d="M374.6,144.09c9.72-9.07,10.25-24.31,1.18-34.03c-9.07-9.72-24.31-10.25-34.03-1.18
								c-8.32,7.76-9.9,20.02-4.51,29.5l-4.9,4.57l1.17,8.13l-7.6-2.13l-6.13,5.72l1.17,8.13l-7.6-2.13l-5.27,4.92l0.71,4.96
								l-4.63-1.3l-3.07,2.86l-0.46,7.53l11.23,2.83l36.45-34C356.89,152.3,367.3,150.9,374.6,144.09z M371.04,114.48
								c2.6,2.79,2.45,7.16-0.34,9.76c-2.79,2.6-7.16,2.45-9.76-0.34c-2.6-2.79-2.45-7.16,0.34-9.76
								C364.07,111.54,368.44,111.69,371.04,114.48z"/>
						</g>
					</g>
					<g>
						<g>
							<g>
								<path class="st14" d="M374.6,144.09c9.72-9.07,10.25-24.31,1.18-34.03c-9.07-9.72-24.31-10.25-34.03-1.18
									c-8.32,7.76-9.9,20.02-4.51,29.5l-4.9,4.57l1.17,8.13l-7.6-2.13l-6.13,5.72l1.17,8.13l-7.6-2.13l-5.27,4.92l0.71,4.96
									l-4.63-1.3l-3.07,2.86l-0.46,7.53l11.23,2.83l36.45-34C356.89,152.3,367.3,150.9,374.6,144.09z M371.04,114.48
									c2.6,2.79,2.45,7.16-0.34,9.76c-2.79,2.6-7.16,2.45-9.76-0.34c-2.6-2.79-2.45-7.16,0.34-9.76
									C364.07,111.54,368.44,111.69,371.04,114.48z"/>
							</g>
						</g>
						<g>
							<g>
								<g>
									<path class="st5" d="M371.04,114.48c-0.04,0.05-0.45-0.42-1.37-0.99c-0.9-0.55-2.44-1.17-4.35-0.95
										c-1.87,0.18-4.1,1.38-5.23,3.64c-1.16,2.2-0.94,5.4,1.07,7.52c1.97,2.15,5.16,2.6,7.43,1.59c2.33-0.97,3.69-3.11,3.99-4.97
										c0.35-1.89-0.16-3.46-0.65-4.4C371.43,114.96,370.99,114.52,371.04,114.48c0.02-0.01,0.13,0.09,0.33,0.3
										c0.21,0.21,0.48,0.55,0.76,1.03c0.57,0.94,1.18,2.57,0.87,4.59c-0.27,1.98-1.68,4.32-4.2,5.4
										c-1.23,0.54-2.7,0.75-4.15,0.47c-1.45-0.25-2.86-1.02-3.93-2.15c-1.06-1.15-1.72-2.61-1.87-4.07
										c-0.18-1.46,0.13-2.92,0.75-4.11c1.25-2.44,3.68-3.68,5.68-3.81c2.04-0.17,3.62,0.55,4.52,1.18
										c0.46,0.32,0.78,0.61,0.97,0.83C370.96,114.35,371.06,114.47,371.04,114.48z"/>
								</g>
							</g>
						</g>
						<g>
							<g>
								<g>
									<path class="st5" d="M374.6,144.09c0,0-0.11,0.12-0.35,0.33c-0.25,0.23-0.6,0.54-1.06,0.95c-0.99,0.76-2.47,1.91-4.66,2.96
										c-2.18,1.04-5.06,2.01-8.56,2.3c-3.48,0.26-7.6-0.18-11.74-2.01l0.2-0.03c-9.39,8.8-21.89,20.5-36.38,34.07l-0.11,0.1
										l-0.14-0.04c-3.53-0.88-7.34-1.84-11.23-2.82l-0.23-0.06l0.01-0.23c0.14-2.35,0.3-4.92,0.45-7.53l0.01-0.11l0.08-0.08
										c0.95-0.89,2-1.87,3.06-2.86l0.12-0.11l0.16,0.04c1.44,0.4,3.03,0.85,4.63,1.3l-0.37,0.32c-0.22-1.55-0.47-3.25-0.72-4.96
										l-0.02-0.15l0.11-0.11c1.66-1.55,3.45-3.22,5.27-4.92l0.12-0.11l0.16,0.05c2.4,0.67,4.99,1.4,7.6,2.13l-0.38,0.33
										c-0.37-2.58-0.77-5.34-1.17-8.13l-0.02-0.16l0.11-0.11c0.51-0.48,1.07-1,1.62-1.52c1.51-1.41,3.01-2.81,4.5-4.2l0.12-0.12
										l0.16,0.05c2.56,0.72,5.09,1.43,7.6,2.13l-0.38,0.33c-0.39-2.74-0.78-5.45-1.17-8.13l-0.02-0.15l0.11-0.11
										c1.65-1.54,3.28-3.06,4.9-4.57l-0.05,0.36c-1.9-3.41-2.99-7.19-3.13-10.96c-0.08-1.88,0.03-3.76,0.4-5.57
										c0.31-1.82,0.9-3.57,1.6-5.24c2.89-6.69,8.72-11.5,14.97-13.44c6.29-1.99,12.88-1.2,18.02,1.36
										c5.22,2.52,8.93,6.76,11.08,11.07c2.11,4.38,2.72,8.85,2.37,12.64c-0.31,3.8-1.45,6.94-2.7,9.27
										c-0.15,0.29-0.3,0.58-0.45,0.86c-0.17,0.26-0.34,0.52-0.49,0.76c-0.33,0.49-0.6,0.97-0.91,1.37
										c-0.65,0.78-1.15,1.49-1.64,1.98c-0.48,0.48-0.85,0.85-1.11,1.11C374.74,143.97,374.6,144.09,374.6,144.09
										s0.11-0.14,0.35-0.4c0.26-0.27,0.61-0.65,1.07-1.14c0.48-0.5,0.96-1.21,1.59-2c0.3-0.4,0.57-0.88,0.89-1.37
										c0.16-0.25,0.32-0.5,0.48-0.76c0.14-0.28,0.28-0.56,0.43-0.86c1.21-2.33,2.31-5.44,2.59-9.2
										c0.32-3.74-0.32-8.15-2.41-12.45c-2.15-4.23-5.8-8.38-10.94-10.83c-5.06-2.49-11.52-3.25-17.67-1.28
										c-6.11,1.91-11.8,6.64-14.61,13.17c-0.69,1.63-1.26,3.34-1.56,5.12c-0.35,1.77-0.46,3.61-0.38,5.44
										c0.14,3.68,1.21,7.37,3.07,10.7l0.11,0.2l-0.17,0.16c-1.62,1.51-3.25,3.03-4.9,4.57l0.09-0.26
										c0.39,2.68,0.78,5.39,1.17,8.13l0.07,0.45l-0.44-0.12c-2.51-0.7-5.05-1.41-7.6-2.13l0.29-0.07
										c-1.49,1.39-2.99,2.79-4.5,4.2c-0.56,0.52-1.11,1.04-1.62,1.52l0.09-0.26c0.4,2.79,0.8,5.55,1.17,8.13l0.07,0.46
										l-0.44-0.12c-2.61-0.73-5.2-1.46-7.6-2.13l0.28-0.07c-1.81,1.69-3.61,3.37-5.27,4.91l0.09-0.26
										c0.25,1.71,0.49,3.41,0.71,4.96l0.06,0.45l-0.43-0.12c-1.6-0.45-3.19-0.9-4.63-1.3l0.28-0.07
										c-1.06,0.99-2.12,1.97-3.07,2.86l0.09-0.19c-0.16,2.61-0.32,5.18-0.46,7.53l-0.21-0.29c3.9,0.98,7.71,1.95,11.23,2.84
										l-0.25,0.06c14.54-13.52,27.08-25.17,36.51-33.94l0.09-0.08l0.11,0.05c4.06,1.82,8.12,2.29,11.57,2.06
										c3.46-0.26,6.32-1.19,8.49-2.19c2.18-1.02,3.67-2.13,4.68-2.86c0.47-0.39,0.83-0.69,1.09-0.9
										C374.47,144.18,374.6,144.09,374.6,144.09z"/>
								</g>
							</g>
						</g>
					</g>
				</g>
				<g>
					<g>
						<g>
							<path class="st6" d="M373.79,141.36c9.72-9.07,10.25-24.31,1.18-34.03c-9.07-9.72-24.31-10.25-34.03-1.18
								c-8.32,7.76-9.9,20.02-4.51,29.5l-0.01,0.01l-4.89,4.56l1.17,8.13l-7.6-2.13l-6.13,5.72l1.17,8.13l-7.6-2.13l-5.27,4.92
								l0.71,4.96l-4.63-1.3l-3.07,2.86l-0.46,7.53l11.23,2.83l36.45-34C356.08,149.57,366.49,148.17,373.79,141.36z M370.23,111.75
								c2.6,2.79,2.45,7.16-0.34,9.76c-2.79,2.6-7.16,2.45-9.76-0.34c-2.6-2.79-2.45-7.16,0.34-9.76
								C363.26,108.81,367.63,108.96,370.23,111.75z"/>
						</g>
					</g>
					<g>
						<g>
							<g>
								<path class="st14" d="M373.79,141.36c9.72-9.07,10.25-24.31,1.18-34.03c-9.07-9.72-24.31-10.25-34.03-1.18
									c-8.32,7.76-9.9,20.02-4.51,29.5l-0.01,0.01l-4.89,4.56l1.17,8.13l-7.6-2.13l-6.13,5.72l1.17,8.13l-7.6-2.13l-5.27,4.92
									l0.71,4.96l-4.63-1.3l-3.07,2.86l-0.46,7.53l11.23,2.83l36.45-34C356.08,149.57,366.49,148.17,373.79,141.36z
									 M370.23,111.75c2.6,2.79,2.45,7.16-0.34,9.76c-2.79,2.6-7.16,2.45-9.76-0.34c-2.6-2.79-2.45-7.16,0.34-9.76
									C363.26,108.81,367.63,108.96,370.23,111.75z"/>
							</g>
						</g>
						<g>
							<g>
								<g>
									<path class="st5" d="M370.23,111.75c-0.04,0.05-0.45-0.42-1.37-0.99c-0.9-0.55-2.44-1.17-4.35-0.95
										c-1.87,0.18-4.1,1.38-5.23,3.64c-1.16,2.19-0.94,5.4,1.07,7.52c1.97,2.15,5.16,2.6,7.43,1.59
										c2.33-0.97,3.69-3.11,3.99-4.97c0.35-1.89-0.16-3.46-0.65-4.4C370.62,112.23,370.19,111.79,370.23,111.75
										c0.02-0.01,0.13,0.09,0.33,0.3c0.21,0.21,0.48,0.55,0.76,1.03c0.57,0.94,1.18,2.57,0.87,4.59c-0.27,1.98-1.68,4.32-4.2,5.4
										c-1.23,0.54-2.7,0.75-4.15,0.47c-1.45-0.25-2.86-1.02-3.93-2.15c-1.06-1.15-1.72-2.61-1.87-4.07
										c-0.18-1.46,0.13-2.92,0.75-4.11c1.25-2.44,3.68-3.68,5.68-3.81c2.04-0.17,3.62,0.55,4.52,1.18
										c0.46,0.32,0.78,0.61,0.97,0.83C370.16,111.62,370.25,111.74,370.23,111.75z"/>
								</g>
							</g>
						</g>
						<g>
							<g>
								<g>
									<path class="st5" d="M373.79,141.36c0,0-0.11,0.12-0.35,0.33c-0.25,0.23-0.6,0.54-1.06,0.95
										c-0.99,0.76-2.47,1.91-4.66,2.96c-2.18,1.04-5.06,2.01-8.56,2.3c-3.48,0.26-7.6-0.18-11.74-2.01l0.2-0.03
										c-9.39,8.8-21.89,20.5-36.38,34.07l-0.11,0.1l-0.14-0.04c-3.53-0.88-7.34-1.84-11.23-2.82l-0.23-0.06l0.01-0.23
										c0.14-2.35,0.3-4.92,0.45-7.53l0.01-0.11l0.08-0.08c0.95-0.89,2-1.87,3.06-2.86l0.12-0.11l0.16,0.04
										c1.44,0.4,3.03,0.85,4.63,1.3l-0.37,0.32c-0.22-1.55-0.47-3.25-0.72-4.96l-0.02-0.15l0.11-0.11
										c1.66-1.55,3.45-3.22,5.27-4.92l0.12-0.11l0.16,0.05c2.4,0.67,4.99,1.4,7.6,2.13l-0.38,0.33
										c-0.37-2.58-0.77-5.34-1.17-8.13l-0.02-0.16l0.11-0.11c0.51-0.48,1.07-1,1.62-1.52c1.51-1.41,3.01-2.81,4.5-4.2l0.12-0.12
										l0.16,0.05c2.56,0.72,5.09,1.43,7.6,2.13l-0.38,0.33c-0.39-2.74-0.78-5.45-1.17-8.13l-0.02-0.15l0.11-0.11
										c1.65-1.54,3.28-3.06,4.9-4.57l-0.05,0.36c-1.9-3.41-2.99-7.19-3.13-10.96c-0.08-1.88,0.03-3.76,0.4-5.57
										c0.31-1.82,0.9-3.57,1.6-5.24c2.89-6.69,8.72-11.5,14.97-13.44c6.29-1.99,12.88-1.2,18.02,1.36
										c5.22,2.52,8.93,6.76,11.08,11.07c2.11,4.38,2.72,8.85,2.37,12.64c-0.31,3.81-1.45,6.94-2.7,9.27
										c-0.15,0.29-0.3,0.58-0.45,0.86c-0.17,0.26-0.34,0.52-0.5,0.76c-0.33,0.49-0.6,0.97-0.91,1.37
										c-0.65,0.78-1.15,1.49-1.64,1.98c-0.48,0.48-0.85,0.85-1.11,1.11C373.93,141.24,373.79,141.36,373.79,141.36
										s0.11-0.14,0.35-0.4c0.26-0.27,0.61-0.65,1.07-1.14c0.48-0.5,0.96-1.21,1.59-2c0.3-0.4,0.57-0.88,0.89-1.37
										c0.16-0.25,0.32-0.5,0.48-0.76c0.14-0.28,0.28-0.56,0.43-0.86c1.21-2.33,2.31-5.44,2.59-9.2
										c0.32-3.74-0.32-8.15-2.41-12.44c-2.15-4.23-5.8-8.38-10.94-10.83c-5.06-2.49-11.52-3.25-17.67-1.28
										c-6.11,1.91-11.8,6.64-14.61,13.17c-0.69,1.63-1.26,3.34-1.56,5.12c-0.35,1.77-0.46,3.61-0.38,5.44
										c0.14,3.68,1.21,7.37,3.07,10.7l0.11,0.2l-0.17,0.16c-1.62,1.51-3.25,3.03-4.9,4.57l0.09-0.26
										c0.39,2.68,0.78,5.39,1.17,8.13l0.07,0.45l-0.44-0.12c-2.51-0.7-5.05-1.41-7.6-2.13l0.29-0.07
										c-1.49,1.39-2.99,2.79-4.5,4.2c-0.56,0.52-1.11,1.04-1.62,1.52l0.09-0.26c0.4,2.79,0.8,5.55,1.17,8.13l0.07,0.46
										l-0.44-0.12c-2.61-0.73-5.2-1.46-7.6-2.13l0.28-0.07c-1.81,1.69-3.61,3.37-5.27,4.91l0.09-0.26
										c0.25,1.71,0.49,3.41,0.71,4.96l0.06,0.45l-0.43-0.12c-1.6-0.45-3.19-0.9-4.63-1.3l0.28-0.07
										c-1.06,0.99-2.12,1.97-3.07,2.86l0.09-0.19c-0.16,2.61-0.32,5.18-0.46,7.53l-0.21-0.29c3.9,0.98,7.71,1.95,11.23,2.84
										l-0.25,0.06c14.54-13.52,27.08-25.17,36.51-33.94l0.09-0.08l0.11,0.05c4.06,1.82,8.12,2.29,11.57,2.06
										c3.46-0.26,6.32-1.19,8.49-2.19c2.18-1.02,3.67-2.13,4.68-2.86c0.47-0.39,0.83-0.69,1.09-0.9
										C373.66,141.45,373.79,141.36,373.79,141.36z"/>
								</g>
							</g>
						</g>
					</g>
				</g>
				<g>
					<g>
						<g>
							<path class="st5" d="M371.58,139.48c-0.08-0.07,1.41-1.26,3.23-4.08c0.93-1.39,1.81-3.27,2.48-5.54c0.65-2.28,1-5,0.69-7.97
								c-0.32-2.95-1.26-6.17-3.17-9.11c-1.91-2.91-4.64-5.67-8.18-7.4c-1.74-0.92-3.67-1.56-5.69-1.92
								c-1.01-0.22-2.05-0.27-3.09-0.36c-1.05,0.02-2.11,0-3.17,0.16c-4.26,0.45-8.46,2.39-11.8,5.45
								c-3.29,3.12-5.52,7.18-6.26,11.4c-0.23,1.05-0.29,2.11-0.38,3.15c0.02,1.05-0.01,2.09,0.14,3.11
								c0.22,2.04,0.73,4.02,1.52,5.81c1.49,3.65,4.05,6.56,6.82,8.67c2.8,2.11,5.95,3.27,8.87,3.8c2.94,0.52,5.68,0.36,8-0.13
								c2.32-0.5,4.25-1.25,5.7-2.09C370.23,140.8,371.52,139.39,371.58,139.48c0.01,0.01-0.07,0.09-0.24,0.24
								c-0.19,0.17-0.44,0.4-0.75,0.67c-0.33,0.3-0.75,0.66-1.29,1.02c-0.53,0.38-1.14,0.83-1.89,1.21
								c-1.45,0.87-3.4,1.66-5.74,2.21c-2.35,0.53-5.14,0.73-8.14,0.22c-2.99-0.51-6.21-1.67-9.1-3.82
								c-2.85-2.14-5.49-5.11-7.03-8.85c-0.82-1.84-1.35-3.87-1.58-5.97c-0.16-1.05-0.13-2.12-0.15-3.2
								c0.09-1.07,0.14-2.16,0.38-3.24c0.76-4.33,3.05-8.52,6.43-11.73c3.44-3.15,7.77-5.14,12.14-5.6
								c1.09-0.16,2.18-0.14,3.26-0.15c1.07,0.09,2.14,0.14,3.18,0.37c2.08,0.38,4.06,1.05,5.84,1.99c3.63,1.8,6.41,4.64,8.35,7.63
								c1.94,3.02,2.88,6.33,3.18,9.34c0.29,3.03-0.1,5.8-0.79,8.11c-0.71,2.3-1.63,4.19-2.6,5.58c-0.44,0.73-0.93,1.3-1.34,1.8
								c-0.4,0.52-0.78,0.91-1.1,1.22c-0.3,0.29-0.54,0.52-0.72,0.71C371.68,139.41,371.59,139.49,371.58,139.48z"/>
						</g>
					</g>
				</g>
				<g>
					<g>
						<g>
							<path class="st5" d="M370.61,122.39c-0.05-0.05,0.5-0.52,1.17-1.6c0.66-1.06,1.39-2.86,1.14-5.11
								c-0.13-1.11-0.49-2.31-1.21-3.41c-0.72-1.09-1.75-2.11-3.07-2.76c-1.3-0.67-2.88-0.99-4.47-0.78
								c-1.59,0.17-3.16,0.9-4.4,2.04c-1.23,1.17-2.06,2.68-2.34,4.25c-0.31,1.57-0.1,3.17,0.47,4.51c0.55,1.37,1.51,2.46,2.54,3.26
								c1.05,0.8,2.22,1.24,3.32,1.45c2.23,0.4,4.07-0.2,5.18-0.78C370.05,122.86,370.56,122.34,370.61,122.39
								c0.01,0.02-0.11,0.14-0.36,0.38c-0.24,0.24-0.64,0.56-1.2,0.89c-1.1,0.66-3,1.36-5.36,1c-1.16-0.19-2.42-0.63-3.54-1.46
								c-1.11-0.83-2.15-1.98-2.75-3.44c-0.63-1.44-0.87-3.15-0.54-4.84c0.29-1.69,1.19-3.33,2.51-4.58
								c1.34-1.23,3.04-2.01,4.74-2.18c1.7-0.21,3.4,0.15,4.79,0.87c1.41,0.71,2.49,1.82,3.24,2.98c0.75,1.18,1.11,2.47,1.21,3.64
								c0.2,2.38-0.63,4.23-1.36,5.28c-0.37,0.54-0.71,0.91-0.97,1.14C370.76,122.3,370.62,122.41,370.61,122.39z"/>
						</g>
					</g>
				</g>
				<g>
					<g>
						<g>
							<path class="st5" d="M308.12,178.39c-0.11-0.12,8.09-7.96,18.33-17.51c10.24-9.55,18.63-17.19,18.74-17.07
								s-8.09,7.96-18.33,17.51C316.62,170.87,308.23,178.51,308.12,178.39z"/>
						</g>
					</g>
				</g>
			</g>
			<g>
				<path class="st6" d="M312.64,130.67l0.33-0.74l0.45,0.68c0.36,0.55,0.86,0.98,1.46,1.24l0.74,0.33l-0.68,0.45
					c-0.55,0.36-0.98,0.86-1.24,1.46l-0.33,0.74l-0.45-0.68c-0.36-0.55-0.86-0.98-1.46-1.24l-0.74-0.33l0.68-0.45
					C311.95,131.77,312.38,131.27,312.64,130.67z"/>
			</g>
			<g>
				<path class="st6" d="M290.33,125.11l0.19-0.43l0.26,0.4c0.21,0.32,0.5,0.57,0.85,0.72l0.43,0.19l-0.4,0.26
					c-0.32,0.21-0.57,0.5-0.72,0.85l-0.19,0.43l-0.26-0.4c-0.21-0.32-0.5-0.57-0.85-0.72l-0.43-0.19l0.4-0.26
					C289.92,125.75,290.17,125.45,290.33,125.11z"/>
			</g>
			<g>
				<path class="st6" d="M360.6,163.14l0.19-0.43l0.26,0.4c0.21,0.32,0.5,0.57,0.85,0.72l0.43,0.19l-0.4,0.26
					c-0.32,0.21-0.57,0.5-0.72,0.85l-0.19,0.43l-0.26-0.4c-0.21-0.32-0.5-0.57-0.85-0.72l-0.43-0.19l0.4-0.26
					C360.2,163.78,360.45,163.49,360.6,163.14z"/>
			</g>
			<g>
				<path class="st6" d="M395.01,143.64l0.33-0.74l0.45,0.68c0.36,0.55,0.86,0.98,1.46,1.24l0.74,0.33l-0.68,0.45
					c-0.55,0.36-0.98,0.86-1.24,1.46l-0.33,0.74l-0.45-0.68c-0.36-0.55-0.86-0.98-1.46-1.24l-0.74-0.33l0.68-0.45
					C394.31,144.74,394.74,144.24,395.01,143.64z"/>
			</g>
			<g>
				<path class="st6" d="M390.53,116.32l0.56-1.25l0.75,1.14c0.6,0.92,1.45,1.64,2.45,2.09l1.25,0.56l-1.14,0.75
					c-0.92,0.6-1.64,1.45-2.09,2.45l-0.56,1.25l-0.75-1.14c-0.6-0.92-1.45-1.64-2.45-2.09l-1.25-0.56l1.14-0.75
					C389.35,118.17,390.08,117.32,390.53,116.32z"/>
			</g>
			<g>
				<path class="st6" d="M305.71,107.9l0.56-1.25l0.75,1.14c0.6,0.92,1.45,1.64,2.45,2.09l1.25,0.56l-1.14,0.75
					c-0.92,0.6-1.64,1.45-2.09,2.45l-0.56,1.25l-0.75-1.14c-0.6-0.92-1.45-1.64-2.45-2.09l-1.25-0.56l1.14-0.75
					C304.54,109.75,305.26,108.9,305.71,107.9z"/>
			</g>
		</g>
		<g>
			<g>
				<path class="st5" d="M411.88,298.31c0,0,0.32-0.03,0.94-0.07c0.31-0.01,0.7-0.05,1.15-0.14c0.23-0.04,0.47-0.08,0.74-0.12
					c0.26-0.07,0.54-0.14,0.83-0.21c1.17-0.31,2.6-0.84,4.08-1.83c1.47-0.97,3.04-2.36,4.26-4.32c0.63-0.96,1.14-2.08,1.54-3.28
					c0.35-1.22,0.66-2.54,0.66-3.94c0.04-0.69,0.03-1.42,0-2.15c-0.02-0.36-0.04-0.73-0.06-1.1c-0.06-0.37-0.11-0.74-0.17-1.11
					c-0.28-1.49-0.8-2.99-1.6-4.41c-1.57-2.84-4.36-5.31-7.86-6.48c-1.75-0.61-3.65-0.78-5.62-0.74c-1.97,0-3.99,0.01-6.06,0.01
					c-33.13,0.02-78.87,0.05-129.39,0.08c-3.1,0.04-6.19,1.02-8.59,2.94c-1.21,0.94-2.27,2.06-3.12,3.32
					c-0.84,1.27-1.47,2.67-1.87,4.12c-0.22,0.73-0.32,1.47-0.43,2.22c-0.04,0.75-0.1,1.5-0.08,2.26c0.01,1.52,0.1,3.01,0.54,4.44
					c0.41,1.43,1.04,2.79,1.85,4.02c0.84,1.22,1.85,2.3,2.99,3.21c1.14,0.93,2.44,1.62,3.79,2.13c0.67,0.28,1.38,0.43,2.08,0.61
					c0.71,0.1,1.42,0.25,2.14,0.25c2.9,0.07,5.81,0.02,8.67,0.04c5.73,0,11.34,0.01,16.81,0.01c21.89,0.02,41.61,0.04,58.17,0.06
					c16.55,0.03,29.94,0.06,39.22,0.08c4.62,0.02,8.21,0.04,10.66,0.05c1.21,0.01,2.14,0.02,2.77,0.03
					C411.56,298.29,411.88,298.31,411.88,298.31s-0.32,0.02-0.94,0.03c-0.64,0.01-1.56,0.01-2.77,0.03
					c-2.45,0.01-6.04,0.03-10.66,0.05c-9.27,0.02-22.67,0.05-39.22,0.08c-16.56,0.02-36.28,0.03-58.17,0.06
					c-5.47,0-11.08,0.01-16.81,0.01c-2.87-0.01-5.75,0.04-8.7-0.03c-0.75-0.01-1.48-0.15-2.22-0.26c-0.72-0.19-1.46-0.35-2.15-0.63
					c-1.4-0.53-2.75-1.24-3.93-2.2c-1.19-0.94-2.24-2.06-3.1-3.33c-0.85-1.28-1.49-2.69-1.92-4.17c-0.46-1.47-0.56-3.05-0.56-4.58
					c-0.01-0.76,0.04-1.54,0.08-2.32c0.11-0.77,0.22-1.55,0.44-2.3c0.42-1.51,1.06-2.96,1.94-4.27c0.89-1.3,1.98-2.47,3.24-3.44
					c2.5-1.98,5.7-3.01,8.91-3.04c50.52,0.03,96.27,0.06,129.39,0.08c2.07,0,4.09,0.01,6.06,0.01c1.96-0.04,3.94,0.14,5.72,0.77
					c3.58,1.21,6.41,3.74,8.01,6.65c0.81,1.45,1.33,2.99,1.61,4.5c0.06,0.38,0.11,0.76,0.17,1.13c0.02,0.38,0.04,0.75,0.05,1.12
					c0.02,0.74,0.03,1.45-0.01,2.16c-0.01,1.43-0.33,2.76-0.69,4c-0.42,1.22-0.94,2.35-1.59,3.32c-1.25,1.98-2.85,3.37-4.35,4.34
					c-1.51,0.98-2.95,1.5-4.14,1.8c-0.3,0.07-0.57,0.15-0.84,0.2c-0.27,0.04-0.51,0.07-0.74,0.11c-0.46,0.08-0.85,0.11-1.16,0.11
					C412.2,298.31,411.88,298.31,411.88,298.31z"/>
			</g>
		</g>
		<g>
			<path class="st6" d="M411.88,334.81H275.32c-7.92,0-14.35-6.42-14.35-14.35v-1.37c0-7.92,6.42-14.35,14.35-14.35h136.56
				c7.92,0,14.35,6.42,14.35,14.35v1.37C426.23,328.39,419.81,334.81,411.88,334.81z"/>
		</g>
		<g>
			<g>
				<g>
					<path class="st5" d="M294.15,289.27c-0.02-0.02-0.03-0.32-0.05-0.89c-0.01-0.62-0.03-1.43-0.05-2.43
						c-0.03-2.14-0.06-5.1-0.11-8.67l0.21,0.21c-4.96,0.01-11.15,0.03-17.87,0.05c-0.06,0.06,0.49-0.49,0.26-0.26v0v0.01v0.01v0.02
						v0.05v0.1v0.2v0.4l0,0.79c0,0.53,0,1.05,0,1.57c0,1.04,0,2.06,0,3.07c-0.01,2.01-0.01,3.94-0.02,5.77l-0.24-0.24
						c5.19,0.05,9.61,0.09,12.81,0.12c1.54,0.03,2.78,0.05,3.7,0.06c0.4,0.01,0.73,0.02,1,0.03
						C294.02,289.25,294.14,289.26,294.15,289.27c0.02,0.02-0.42,0.04-1.26,0.06c-0.91,0.02-2.13,0.04-3.65,0.06
						c-3.24,0.03-7.71,0.07-12.96,0.12l-0.24,0l0-0.24c-0.01-1.83-0.01-3.76-0.02-5.77c0-1,0-2.03,0-3.07c0-0.52,0-1.04,0-1.57
						l0-0.79l0-0.4v-0.2v-0.1v-0.05v-0.02v-0.01v-0.01v0c-0.23,0.23,0.32-0.32,0.26-0.26c6.71,0.02,12.91,0.04,17.87,0.05l0.21,0
						l0,0.21c-0.05,3.63-0.08,6.63-0.11,8.8c-0.02,0.98-0.04,1.78-0.05,2.39C294.18,289.01,294.16,289.28,294.15,289.27z"/>
				</g>
			</g>
			<g>
				<g>
					<path class="st5" d="M294.15,277.28c0.05,0.05-0.91,0.97-2.5,2.4c-1.59,1.44-3.8,3.39-6.27,5.53c-0.68,0-0.19,0-0.34,0l0,0
						l-0.01-0.01l-0.01-0.01l-0.03-0.02l-0.06-0.05l-0.12-0.1l-0.23-0.2l-0.45-0.39c-0.3-0.26-0.59-0.52-0.88-0.77
						c-0.58-0.51-1.13-0.99-1.67-1.46c-1.03-0.92-1.97-1.76-2.8-2.5c-1.59-1.44-2.54-2.35-2.5-2.4c0.05-0.05,1.09,0.76,2.74,2.13
						c0.86,0.72,1.82,1.53,2.88,2.42c0.54,0.46,1.11,0.94,1.69,1.44c0.29,0.25,0.59,0.51,0.89,0.77l0.45,0.39l0.23,0.2l0.12,0.1
						l0.06,0.05l0.03,0.03l0.01,0.01l0.01,0.01l0,0c-0.15,0,0.34,0-0.34,0c2.47-2.14,4.72-4.05,6.37-5.41
						C293.06,278.04,294.1,277.22,294.15,277.28z"/>
				</g>
			</g>
			<g>
				<g>
					<path class="st5" d="M282.73,282.86c0.1,0.1-1.26,1.62-3.04,3.39c-1.78,1.77-3.31,3.12-3.41,3.02c-0.1-0.1,1.26-1.62,3.04-3.39
						C281.11,284.11,282.63,282.76,282.73,282.86z"/>
				</g>
			</g>
			<g>
				<g>
					<path class="st5" d="M294.15,289.27c-0.11,0.1-1.54-1.34-3.21-3.22c-1.66-1.87-2.93-3.47-2.82-3.56
						c0.11-0.1,1.54,1.34,3.21,3.22C292.99,287.58,294.26,289.17,294.15,289.27z"/>
				</g>
			</g>
		</g>
		<g>
			<path class="st5" d="M304.94,285.67v0.4h-4.15v-6.01h4.02v0.4h-3.58v2.37h3.2v0.39h-3.2v2.46H304.94z"/>
			<path class="st5" d="M313.77,283.45v2.62h-0.43v-2.59c0-1.01-0.52-1.55-1.4-1.55c-1.01,0-1.64,0.68-1.64,1.74v2.39h-0.43v-2.59
				c0-1.01-0.52-1.55-1.4-1.55c-1.01,0-1.64,0.68-1.64,1.74v2.39h-0.43v-4.48h0.41v0.96c0.29-0.63,0.9-1,1.72-1
				c0.81,0,1.4,0.37,1.64,1.08c0.29-0.65,0.95-1.08,1.81-1.08C313.06,281.55,313.77,282.19,313.77,283.45z"/>
			<path class="st5" d="M318.77,283.22v2.84h-0.41v-0.8c-0.28,0.52-0.83,0.83-1.62,0.83c-1,0-1.62-0.52-1.62-1.28
				c0-0.68,0.43-1.25,1.67-1.25h1.54v-0.36c0-0.83-0.46-1.28-1.33-1.28c-0.62,0-1.18,0.23-1.55,0.57l-0.21-0.31
				c0.45-0.4,1.1-0.64,1.8-0.64C318.15,281.55,318.77,282.11,318.77,283.22z M318.34,284.74v-0.84h-1.53c-0.93,0-1.25,0.39-1.25,0.9
				c0,0.58,0.46,0.95,1.25,0.95C317.56,285.75,318.08,285.39,318.34,284.74z"/>
			<path class="st5" d="M320.4,280.15c0-0.19,0.15-0.35,0.35-0.35c0.2,0,0.35,0.16,0.35,0.34c0,0.2-0.15,0.35-0.35,0.35
				C320.55,280.49,320.4,280.34,320.4,280.15z M320.53,281.58h0.43v4.48h-0.43V281.58z"/>
			<path class="st5" d="M322.77,279.69h0.43v6.37h-0.43V279.69z"/>
		</g>
		<g>
			<path class="st2" d="M310.67,323.81l-1.62-2.27c-0.21,0.03-0.43,0.05-0.66,0.05h-1.94v2.22h-0.49v-6.78h2.43
				c1.71,0,2.73,0.85,2.73,2.29c0,1.08-0.58,1.82-1.59,2.12l1.7,2.37H310.67z M308.39,321.16c1.45,0,2.23-0.68,2.23-1.84
				c0-1.17-0.78-1.84-2.23-1.84h-1.94v3.68H308.39z"/>
			<path class="st2" d="M317.05,321.4h-4.35c0.05,1.2,0.93,2.02,2.14,2.02c0.64,0,1.23-0.23,1.62-0.71l0.28,0.32
				c-0.45,0.54-1.14,0.82-1.91,0.82c-1.53,0-2.61-1.07-2.61-2.57c0-1.5,1.04-2.57,2.42-2.57c1.38,0,2.41,1.05,2.41,2.55
				C317.06,321.3,317.05,321.35,317.05,321.4z M312.71,321.02h3.88c-0.07-1.09-0.86-1.88-1.94-1.88
				C313.57,319.14,312.79,319.92,312.71,321.02z"/>
			<path class="st2" d="M317.82,323.2l0.22-0.39c0.39,0.33,1.08,0.61,1.82,0.61c1.07,0,1.49-0.38,1.49-0.95
				c0-1.47-3.35-0.39-3.35-2.37c0-0.77,0.64-1.39,1.92-1.39c0.64,0,1.34,0.19,1.73,0.49l-0.22,0.39c-0.43-0.31-0.98-0.46-1.52-0.46
				c-0.99,0-1.42,0.41-1.42,0.95c0,1.52,3.35,0.45,3.35,2.37c0,0.82-0.71,1.39-2,1.39C319.01,323.85,318.22,323.57,317.82,323.2z"/>
			<path class="st2" d="M327.47,321.4h-4.35c0.05,1.2,0.93,2.02,2.14,2.02c0.64,0,1.23-0.23,1.62-0.71l0.28,0.32
				c-0.45,0.54-1.14,0.82-1.91,0.82c-1.53,0-2.61-1.07-2.61-2.57c0-1.5,1.04-2.57,2.42-2.57c1.38,0,2.41,1.05,2.41,2.55
				C327.48,321.3,327.47,321.35,327.47,321.4z M323.13,321.02H327c-0.07-1.09-0.86-1.88-1.94-1.88
				C323.99,319.14,323.21,319.92,323.13,321.02z"/>
			<path class="st2" d="M331.49,323.49c-0.25,0.24-0.66,0.36-1.04,0.36c-0.89,0-1.38-0.52-1.38-1.38v-3.3h-0.93v-0.42h0.93v-1.1
				h0.48v1.1h1.61v0.42h-1.61v3.26c0,0.65,0.32,1.01,0.94,1.01c0.3,0,0.58-0.1,0.79-0.28L331.49,323.49z"/>
			<path class="st2" d="M340.65,319.32c0,1.42-1.03,2.28-2.73,2.28h-1.94v2.22h-0.49v-6.78h2.43
				C339.62,317.03,340.65,317.88,340.65,319.32z M340.15,319.32c0-1.17-0.78-1.84-2.23-1.84h-1.94v3.67h1.94
				C339.37,321.15,340.15,320.48,340.15,319.32z"/>
			<path class="st2" d="M345.77,320.6v3.21h-0.46v-0.9c-0.32,0.58-0.94,0.94-1.82,0.94c-1.13,0-1.82-0.58-1.82-1.44
				c0-0.76,0.48-1.41,1.89-1.41h1.73v-0.41c0-0.94-0.51-1.44-1.5-1.44c-0.7,0-1.33,0.26-1.74,0.64l-0.24-0.35
				c0.5-0.45,1.24-0.72,2.03-0.72C345.07,318.72,345.77,319.35,345.77,320.6z M345.28,322.32v-0.95h-1.72
				c-1.05,0-1.42,0.44-1.42,1.02c0,0.66,0.51,1.07,1.41,1.07C344.4,323.45,344.99,323.05,345.28,322.32z"/>
			<path class="st2" d="M347.02,323.2l0.22-0.39c0.39,0.33,1.08,0.61,1.82,0.61c1.07,0,1.49-0.38,1.49-0.95
				c0-1.47-3.35-0.39-3.35-2.37c0-0.77,0.64-1.39,1.92-1.39c0.64,0,1.34,0.19,1.73,0.49l-0.22,0.39c-0.43-0.31-0.98-0.46-1.52-0.46
				c-0.99,0-1.42,0.41-1.42,0.95c0,1.52,3.35,0.45,3.35,2.37c0,0.82-0.71,1.39-2,1.39C348.21,323.85,347.41,323.57,347.02,323.2z"/>
			<path class="st2" d="M351.65,323.2l0.22-0.39c0.39,0.33,1.08,0.61,1.82,0.61c1.07,0,1.49-0.38,1.49-0.95
				c0-1.47-3.35-0.39-3.35-2.37c0-0.77,0.64-1.39,1.92-1.39c0.64,0,1.34,0.19,1.73,0.49l-0.22,0.39c-0.43-0.31-0.98-0.46-1.52-0.46
				c-0.99,0-1.42,0.41-1.42,0.95c0,1.52,3.35,0.45,3.35,2.37c0,0.82-0.71,1.39-2,1.39C352.84,323.85,352.05,323.57,351.65,323.2z"/>
			<path class="st2" d="M364.16,318.75l-1.92,5.06h-0.46l-1.71-4.39l-1.71,4.39h-0.45l-1.92-5.06h0.46l1.69,4.51l1.72-4.51h0.42
				l1.71,4.5l1.71-4.5H364.16z"/>
			<path class="st2" d="M364.59,321.28c0-1.5,1.08-2.57,2.53-2.57s2.53,1.07,2.53,2.57c0,1.5-1.08,2.57-2.53,2.57
				S364.59,322.78,364.59,321.28z M369.15,321.28c0-1.27-0.87-2.13-2.03-2.13c-1.16,0-2.04,0.86-2.04,2.13
				c0,1.27,0.87,2.13,2.04,2.13C368.28,323.41,369.15,322.55,369.15,321.28z"/>
			<path class="st2" d="M373.54,318.72v0.47c-0.04,0-0.08-0.01-0.12-0.01c-1.12,0-1.79,0.75-1.79,2v2.64h-0.48v-5.06h0.46v1.1
				C371.92,319.12,372.59,318.72,373.54,318.72z"/>
			<path class="st2" d="M379.32,316.62v7.19h-0.47v-1.19c-0.4,0.78-1.16,1.23-2.07,1.23c-1.42,0-2.5-1.06-2.5-2.57
				c0-1.52,1.08-2.57,2.5-2.57c0.9,0,1.66,0.45,2.06,1.21v-3.3H379.32z M378.84,321.28c0-1.27-0.87-2.13-2.03-2.13
				c-1.16,0-2.04,0.86-2.04,2.13c0,1.27,0.87,2.13,2.04,2.13C377.97,323.41,378.84,322.55,378.84,321.28z"/>
		</g>
		<g>
			<g>
				<path class="st5" d="M443.84,63.08c0,0.14-46.23,0.26-103.25,0.26c-57.04,0-103.26-0.12-103.26-0.26
					c0-0.14,46.22-0.26,103.26-0.26C397.61,62.82,443.84,62.94,443.84,63.08z"/>
			</g>
		</g>
		<g>
			<path class="st5" d="M249.04,54.88c0,1.39-1.13,2.51-2.51,2.51c-1.39,0-2.51-1.13-2.51-2.51s1.13-2.51,2.51-2.51
				C247.92,52.36,249.04,53.49,249.04,54.88z"/>
		</g>
		<g>
			<path class="st5" d="M256.26,54.88c0,1.39-1.13,2.51-2.51,2.51c-1.39,0-2.51-1.13-2.51-2.51s1.13-2.51,2.51-2.51
				C255.14,52.36,256.26,53.49,256.26,54.88z"/>
		</g>
		<g>
			<path class="st5" d="M263.48,54.88c0,1.39-1.13,2.51-2.51,2.51s-2.51-1.13-2.51-2.51s1.13-2.51,2.51-2.51
				S263.48,53.49,263.48,54.88z"/>
		</g>
		<g>
			<g>
				<path class="st5" d="M444.21,360.5c0-2.14-0.1-128.94-0.24-313.39l0.24,0.24c-63.21,0.01-133.22,0.01-206.79,0.02h-0.02
					l0.26-0.26c-0.02,118.26-0.04,227.29-0.05,313.39l-0.21-0.21C363.53,360.42,442.52,360.5,444.21,360.5
					c-1.69,0-80.68,0.08-206.81,0.21l-0.21,0l0-0.21c-0.01-86.1-0.03-195.13-0.05-313.39v-0.26h0.26h0.02
					c73.57,0.01,143.58,0.01,206.79,0.02h0.24l0,0.24C444.31,231.56,444.21,358.37,444.21,360.5z"/>
			</g>
		</g>
	</g>
</g>
<g id="Plant">
	<g>
		<g>
			<g>
				<g>
					<g>
						<g>
							<g>
								<g>
									<path class="st5" d="M440.43,444.96c0.01,0-0.05-0.14-0.17-0.41c-0.14-0.29-0.32-0.68-0.55-1.17
										c-0.47-1.03-1.07-2.6-1.61-4.69c-1.07-4.17-1.44-10.54,0.14-18.11c0.73-3.79,1.92-7.85,3.36-12.16
										c1.42-4.32,3.07-8.9,4.42-13.85c1.33-4.94,2.39-10.3,2.18-15.92c-0.2-5.63-1.87-11.25-3.71-16.85
										c-1.83-5.6-3.72-11.08-4.29-16.59c-0.64-5.5,0.54-10.9,3.04-15.32c2.43-4.47,5.48-8.3,7.77-12.26
										c2.32-3.95,3.77-8.01,4.67-11.78c1.73-7.61,1.13-14.03,0.3-18.26c-0.9-4.25-1.9-6.45-1.9-6.45c-0.01,0,0.03,0.15,0.11,0.43
										c0.1,0.31,0.22,0.71,0.39,1.24c0.34,1.09,0.77,2.71,1.18,4.83c0.76,4.22,1.3,10.59-0.47,18.12
										c-0.91,3.73-2.37,7.74-4.68,11.63c-2.28,3.91-5.35,7.72-7.82,12.25c-2.56,4.47-3.79,10.05-3.14,15.64
										c0.57,5.6,2.48,11.12,4.3,16.72c1.83,5.59,3.48,11.15,3.69,16.69c0.21,5.53-0.82,10.84-2.13,15.76
										c-1.33,4.93-2.96,9.51-4.36,13.84c-1.43,4.32-2.59,8.42-3.3,12.24c-1.54,7.62-1.1,14.06,0.05,18.24
										c0.58,2.09,1.22,3.66,1.73,4.68c0.25,0.49,0.45,0.87,0.6,1.15C440.35,444.84,440.42,444.97,440.43,444.96z"/>
								</g>
							</g>
						</g>
					</g>
				</g>
				<g>
					<g>
						<g>
							<g>
								<g>
									<path class="st6" d="M447.91,321.54c0,0,4.64-14.84-3.68-23.53c-0.29-0.3-0.81-0.16-0.88,0.26
										C442.9,300.72,442.34,308.18,447.91,321.54z"/>
								</g>
							</g>
						</g>
					</g>
					<g>
						<g>
							<g>
								<g>
									<g>
										<path class="st5" d="M445.13,302.95c-0.08,0.02,0.05,1.06,0.31,2.74c0.31,1.89,0.66,4.1,1.06,6.54
											c0.39,2.45,0.74,4.66,1.04,6.54c0.25,1.68,0.41,2.72,0.49,2.71c0.08-0.01,0.07-1.06-0.08-2.76
											c-0.15-1.7-0.45-4.03-0.87-6.59c-0.42-2.56-0.87-4.87-1.23-6.53C445.48,303.96,445.21,302.94,445.13,302.95z"/>
									</g>
								</g>
							</g>
						</g>
					</g>
				</g>
				<g>
					<g>
						<g>
							<g>
								<g>
									<path class="st6" d="M442.46,356.53c0,0-2.84-15.29-14.26-19.07c-0.4-0.13-0.79,0.24-0.66,0.64
										C428.29,340.47,431.29,347.33,442.46,356.53z"/>
								</g>
							</g>
						</g>
					</g>
					<g>
						<g>
							<g>
								<g>
									<g>
										<path class="st5" d="M431.31,341.41c-0.06,0.05,0.54,0.91,1.56,2.27c1.15,1.52,2.5,3.31,4,5.29
											c1.49,1.98,2.83,3.77,3.98,5.3c1.01,1.36,1.63,2.21,1.7,2.16c0.06-0.04-0.44-0.97-1.36-2.4
											c-0.93-1.43-2.28-3.35-3.85-5.42c-1.57-2.07-3.04-3.9-4.14-5.19C432.09,342.13,431.37,341.36,431.31,341.41z"/>
									</g>
								</g>
							</g>
						</g>
					</g>
				</g>
				<g>
					<g>
						<g>
							<g>
								<g>
									<path class="st6" d="M445.54,394.88c0,0,1.72-15.45-8.1-22.39c-0.35-0.24-0.82,0-0.82,0.42
										C436.65,375.4,437.53,382.83,445.54,394.88z"/>
								</g>
							</g>
						</g>
					</g>
					<g>
						<g>
							<g>
								<g>
									<g>
										<path class="st5" d="M439.27,377.17c-0.07,0.03,0.26,1.03,0.83,2.63c0.66,1.79,1.43,3.9,2.29,6.22
											c0.85,2.33,1.61,4.43,2.27,6.23c0.57,1.6,0.92,2.59,1,2.56c0.07-0.02-0.14-1.05-0.61-2.69c-0.47-1.64-1.21-3.87-2.11-6.3
											c-0.9-2.43-1.78-4.61-2.45-6.17C439.81,378.09,439.34,377.14,439.27,377.17z"/>
									</g>
								</g>
							</g>
						</g>
					</g>
				</g>
				<g>
					<g>
						<g>
							<g>
								<g>
									<path class="st6" d="M436.94,433.46c0,0,1.17-15.5-8.9-22.09c-0.35-0.23-0.82,0.03-0.8,0.45
										C427.36,414.3,428.5,421.7,436.94,433.46z"/>
								</g>
							</g>
						</g>
					</g>
					<g>
						<g>
							<g>
								<g>
									<g>
										<path class="st5" d="M430.03,415.98c-0.07,0.03,0.29,1.02,0.92,2.6c0.72,1.77,1.57,3.84,2.51,6.14
											c0.93,2.3,1.77,4.37,2.49,6.14c0.63,1.58,1.01,2.55,1.09,2.53c0.07-0.02-0.17-1.05-0.7-2.67
											c-0.53-1.62-1.35-3.82-2.34-6.22c-0.99-2.4-1.94-4.54-2.67-6.08C430.61,416.88,430.11,415.95,430.03,415.98z"/>
									</g>
								</g>
							</g>
						</g>
					</g>
				</g>
				<g>
					<g>
						<g>
							<g>
								<g>
									<path class="st6" d="M454.58,308.5c0,0,13.78-7.2,14.05-19.23c0.01-0.42-0.46-0.68-0.8-0.44
										C465.77,290.25,460.1,295.12,454.58,308.5z"/>
								</g>
							</g>
						</g>
					</g>
					<g>
						<g>
							<g>
								<g>
									<g>
										<path class="st5" d="M465.77,293.41c-0.07-0.04-0.71,0.79-1.72,2.15c-1.12,1.55-2.43,3.36-3.89,5.37
											c-1.46,2-2.78,3.81-3.9,5.36c-1.01,1.36-1.63,2.21-1.57,2.26c0.06,0.05,0.8-0.7,1.89-2.01c1.09-1.31,2.53-3.17,4.05-5.27
											c1.52-2.1,2.83-4.05,3.75-5.48C465.31,294.36,465.83,293.45,465.77,293.41z"/>
									</g>
								</g>
							</g>
						</g>
					</g>
				</g>
				<g>
					<g>
						<g>
							<g>
								<g>
									<path class="st6" d="M439.78,340.37c0,0,14.19-6.35,15.19-18.34c0.04-0.42-0.41-0.71-0.77-0.49
										C452.06,322.83,446.1,327.35,439.78,340.37z"/>
								</g>
							</g>
						</g>
					</g>
					<g>
						<g>
							<g>
								<g>
									<g>
										<path class="st5" d="M451.86,325.98c-0.06-0.05-0.76,0.74-1.84,2.05c-1.21,1.48-2.63,3.21-4.2,5.13
											c-1.58,1.91-3,3.64-4.22,5.11c-1.09,1.3-1.77,2.1-1.7,2.16c0.05,0.05,0.84-0.65,2.01-1.89c1.17-1.24,2.72-3.01,4.36-5.02
											c1.64-2.01,3.07-3.87,4.08-5.24C451.35,326.91,451.93,326.03,451.86,325.98z"/>
									</g>
								</g>
							</g>
						</g>
					</g>
				</g>
				<g>
					<g>
						<g>
							<g>
								<g>
									<path class="st6" d="M447.94,375.91c0,0,9.74-12.11,5.17-23.24c-0.16-0.39-0.69-0.44-0.91-0.09
										C450.89,354.7,447.65,361.45,447.94,375.91z"/>
								</g>
							</g>
						</g>
					</g>
					<g>
						<g>
							<g>
								<g>
									<g>
										<path class="st5" d="M452.15,357.6c-0.08-0.01-0.34,1.01-0.71,2.66c-0.41,1.87-0.88,4.06-1.41,6.48
											c-0.53,2.42-1.02,4.61-1.43,6.47c-0.38,1.65-0.61,2.68-0.53,2.7c0.07,0.02,0.45-0.96,0.93-2.6
											c0.48-1.63,1.05-3.91,1.6-6.45c0.55-2.54,0.97-4.85,1.24-6.52C452.11,358.66,452.23,357.62,452.15,357.6z"/>
									</g>
								</g>
							</g>
						</g>
					</g>
				</g>
				<g>
					<g>
						<g>
							<g>
								<g>
									<path class="st6" d="M438.29,417.74c0,0,14.08-6.58,14.88-18.59c0.03-0.42-0.43-0.7-0.78-0.48
										C450.28,400,444.4,404.62,438.29,417.74z"/>
								</g>
							</g>
						</g>
					</g>
					<g>
						<g>
							<g>
								<g>
									<g>
										<path class="st5" d="M450.13,403.16c-0.06-0.05-0.75,0.75-1.81,2.08c-1.19,1.5-2.58,3.25-4.12,5.2
											c-1.54,1.94-2.94,3.69-4.13,5.18c-1.07,1.32-1.73,2.13-1.67,2.19c0.05,0.05,0.83-0.67,1.98-1.92
											c1.15-1.26,2.67-3.05,4.27-5.09c1.61-2.04,3.01-3.92,3.99-5.31C449.63,404.09,450.2,403.2,450.13,403.16z"/>
									</g>
								</g>
							</g>
						</g>
					</g>
				</g>
				<g>
					<g>
						<g>
							<g>
								<g>
									<g>
										<path class="st5" d="M410.24,356.62c-0.01,0-0.02,0.12-0.02,0.34c0.01,0.27,0.01,0.6,0.02,0.99
											c0.04,0.93,0.1,2.2,0.17,3.77c0.18,3.31,0.43,7.94,0.74,13.46l0,0.01l0,0.02c1.01,5.63,3.87,11.86,7.72,17.92
											c2.82,4.46,5.78,8.51,8.33,12.29c2.57,3.76,4.74,7.24,6.25,10.33c1.52,3.08,2.41,5.73,2.92,7.58
											c0.25,0.93,0.43,1.65,0.54,2.15c0.12,0.49,0.19,0.75,0.21,0.75c0.02,0-0.01-0.27-0.09-0.77c-0.07-0.5-0.22-1.24-0.44-2.18
											c-0.45-1.88-1.29-4.57-2.77-7.7c-1.48-3.14-3.62-6.67-6.17-10.45c-2.53-3.8-5.48-7.86-8.29-12.3
											c-3.83-6.02-6.68-12.16-7.72-17.7l0,0.03c-0.39-5.52-0.71-10.14-0.95-13.45c-0.13-1.57-0.23-2.83-0.3-3.76
											c-0.04-0.39-0.07-0.72-0.1-0.99C410.27,356.73,410.25,356.62,410.24,356.62z"/>
									</g>
								</g>
							</g>
						</g>
					</g>
					<g>
						<g>
							<g>
								<g>
									<g>
										<path class="st6" d="M418.62,391.98c0,0-5.96-14.36,1.54-23.76c0.26-0.33,0.79-0.23,0.9,0.17
											C421.73,370.79,422.96,378.17,418.62,391.98z"/>
									</g>
								</g>
							</g>
						</g>
						<g>
							<g>
								<g>
									<g>
										<g>
											<path class="st5" d="M419.71,373.22c-0.08-0.01-0.26,1.03-0.47,2.72c-0.21,1.69-0.45,4.02-0.63,6.61
												c-0.19,2.59-0.27,4.94-0.27,6.64c0,1.7,0.09,2.76,0.17,2.75c0.09,0,0.14-1.05,0.24-2.74c0.13-1.9,0.28-4.14,0.44-6.61
												c0.17-2.47,0.33-4.71,0.46-6.61C419.75,374.28,419.79,373.23,419.71,373.22z"/>
										</g>
									</g>
								</g>
							</g>
						</g>
						<g class="st7">
							<g>
								<g>
									<g>
										<path d="M418.62,391.98c0,0-5.96-14.36,1.54-23.76c0.26-0.33,0.79-0.23,0.9,0.17
											C421.73,370.79,422.96,378.17,418.62,391.98z"/>
									</g>
								</g>
							</g>
						</g>
					</g>
					<g>
						<g>
							<g>
								<g>
									<g>
										<path class="st6" d="M437.1,426.58c0,0-4.78-14.79,3.46-23.56c0.29-0.31,0.81-0.17,0.88,0.25
											C441.91,405.71,442.54,413.17,437.1,426.58z"/>
									</g>
								</g>
							</g>
						</g>
						<g>
							<g>
								<g>
									<g>
										<g>
											<path class="st5" d="M439.7,407.97c-0.08-0.01-0.35,1-0.69,2.67c-0.35,1.66-0.77,3.97-1.17,6.54
												c-0.4,2.56-0.67,4.9-0.81,6.6c-0.13,1.7-0.13,2.75-0.06,2.76c0.08,0.01,0.23-1.03,0.47-2.71
												c0.28-1.89,0.61-4.1,0.98-6.55c0.37-2.45,0.71-4.67,1-6.55C439.66,409.03,439.78,407.98,439.7,407.97z"/>
										</g>
									</g>
								</g>
							</g>
						</g>
						<g class="st7">
							<g>
								<g>
									<g>
										<path d="M437.1,426.58c0,0-4.78-14.79,3.46-23.56c0.29-0.31,0.81-0.17,0.88,0.25
											C441.91,405.71,442.54,413.17,437.1,426.58z"/>
									</g>
								</g>
							</g>
						</g>
					</g>
					<g>
						<g>
							<g>
								<g>
									<g>
										<path class="st6" d="M411.03,374.43c0,0-12.74-8.92-11.45-20.88c0.05-0.42,0.54-0.62,0.85-0.34
											C402.28,354.88,407.28,360.45,411.03,374.43z"/>
									</g>
								</g>
							</g>
						</g>
						<g class="st7">
							<g>
								<g>
									<g>
										<path d="M411.03,374.43c0,0-12.74-8.92-11.45-20.88c0.05-0.42,0.54-0.62,0.85-0.34
											C402.28,354.88,407.28,360.45,411.03,374.43z"/>
									</g>
								</g>
							</g>
						</g>
						<g>
							<g>
								<g>
									<g>
										<g>
											<path class="st5" d="M401.88,358.02c-0.07,0.04,0.33,1.01,1.06,2.55c0.73,1.54,1.78,3.64,3.01,5.92
												c1.23,2.28,2.42,4.31,3.33,5.75c0.92,1.44,1.56,2.28,1.62,2.23c0.07-0.05-0.44-0.96-1.26-2.44
												c-0.91-1.68-1.99-3.64-3.17-5.82c-1.18-2.18-2.25-4.15-3.16-5.83C402.48,358.89,401.95,357.98,401.88,358.02z"/>
										</g>
									</g>
								</g>
							</g>
						</g>
					</g>
					<g>
						<g>
							<g>
								<g>
									<g>
										<path class="st6" d="M431.96,411.91c0,0-15.36-2.4-19.48-13.7c-0.14-0.4,0.21-0.79,0.62-0.68
											C415.5,398.21,422.44,401.01,431.96,411.91z"/>
									</g>
								</g>
							</g>
						</g>
						<g class="st7">
							<g>
								<g>
									<g>
										<path d="M431.96,411.91c0,0-15.36-2.4-19.48-13.7c-0.14-0.4,0.21-0.79,0.62-0.68
											C415.5,398.21,422.44,401.01,431.96,411.91z"/>
									</g>
								</g>
							</g>
						</g>
						<g>
							<g>
								<g>
									<g>
										<g>
											<path class="st5" d="M416.52,401.2c-0.05,0.06,0.74,0.76,2.07,1.82c1.33,1.06,3.2,2.48,5.31,3.99
												c2.11,1.51,4.07,2.81,5.52,3.69c1.46,0.88,2.4,1.36,2.44,1.29c0.04-0.07-0.82-0.67-2.21-1.64
												c-1.56-1.1-3.39-2.39-5.41-3.82c-2.02-1.44-3.85-2.73-5.4-3.84C417.45,401.72,416.57,401.14,416.52,401.2z"/>
										</g>
									</g>
								</g>
							</g>
						</g>
					</g>
				</g>
			</g>
			<g>
				<g>
					<g>
						<g>
							<polygon class="st10" points="450.14,440.18 445.73,469.08 428.14,469.05 422.21,440.18 							"/>
						</g>
					</g>
				</g>
			</g>
		</g>
		<g>
			<g>
				<path class="st5" d="M434.08,449.46c0.45-0.68,0.76-1.51,0.82-2.42c0.07-0.89-0.28-1.96-1.19-2.49
					c-0.91-0.53-2.08-0.34-2.95,0.24c-0.9,0.59-1.43,1.61-1.69,2.65c-0.25,1.06-0.28,2.15-0.22,3.26c0.07,1.11,0.28,2.25,0.71,3.34
					c0.43,1.09,1.11,2.12,2.04,2.91c0.92,0.79,2.11,1.35,3.39,1.41c1.28,0.06,2.5-0.38,3.52-1.02c1.03-0.65,1.9-1.46,2.63-2.38
					c0.72-0.91,1.26-2.01,1.33-3.18c0.06-1.15-0.35-2.34-1.25-3.06c-0.91-0.74-2.21-0.69-3.12-0.19c-0.94,0.47-1.64,1.37-1.8,2.36
					c-0.34,1.98,0.82,3.77,2.23,4.58c1.44,0.82,3.01,0.85,4.25,0.61c1.26-0.25,2.26-0.74,3.03-1.18c0.77-0.45,1.32-0.86,1.69-1.15
					c0.37-0.29,0.55-0.45,0.54-0.46c-0.01-0.01-0.21,0.12-0.6,0.38c-0.39,0.26-0.96,0.64-1.73,1.06c-0.77,0.41-1.76,0.87-2.98,1.08
					c-1.2,0.2-2.7,0.14-4.03-0.64c-1.29-0.75-2.33-2.45-2.01-4.2c0.15-0.86,0.76-1.64,1.6-2.05c0.82-0.43,1.9-0.46,2.65,0.16
					c0.75,0.6,1.12,1.66,1.07,2.69c-0.06,1.03-0.56,2.05-1.24,2.91c-0.69,0.86-1.54,1.65-2.51,2.26c-0.97,0.6-2.09,1-3.25,0.95
					c-1.15-0.05-2.24-0.56-3.1-1.3c-0.86-0.74-1.51-1.69-1.91-2.72c-0.42-1.03-0.62-2.12-0.69-3.19c-0.07-1.07-0.04-2.14,0.19-3.13
					c0.23-0.98,0.71-1.9,1.49-2.41c0.76-0.52,1.78-0.67,2.51-0.25c0.75,0.42,1.07,1.31,1.02,2.12c-0.04,0.82-0.32,1.61-0.73,2.25
					c-0.87,1.28-2.12,2.06-3.28,2.46c-1.17,0.41-2.26,0.46-3.13,0.37c-1.75-0.2-2.58-0.84-2.6-0.77c0,0.01,0.05,0.04,0.15,0.11
					c0.1,0.06,0.25,0.16,0.46,0.26c0.42,0.21,1.08,0.46,1.97,0.59c0.89,0.12,2.01,0.1,3.24-0.3
					C431.81,451.59,433.13,450.81,434.08,449.46"/>
			</g>
		</g>
	</g>
</g>
</svg>
