<?xml version="1.0" encoding="utf-8"?>
<!-- Generator: Adobe Illustrator 24.1.0, SVG Export Plug-In . SVG Version: 6.00 Build 0)  -->
<svg version="1.1" xmlns="http://www.w3.org/2000/svg" xmlns:xlink="http://www.w3.org/1999/xlink" x="0px" y="0px"
	 viewBox="0 0 597.7 553.7" style="enable-background:new 0 0 597.7 553.7;" xml:space="preserve">
<style type="text/css">
	.st0{fill:#EBEBEB;}
	.st1{fill:#E0E0E0;}
	.st2{display:none;}
	.st3{display:inline;fill:#EBEBEB;}
	.st4{fill:#263238;}
	.st5{fill:#F5F5F5;}
	.st6{fill:#E8505B;}
	.st7{fill:#FFFFFF;}
	.st8{opacity:0.5;}
	.st9{fill:#FFBE9D;}
	.st10{fill:#455A64;}
	.st11{opacity:0.3;}
	.st12{fill:#EB996E;}
</style>
<g id="Background_Complete">
	<g>
		<g>
			<g>
				<g>
					<g>
						<path class="st0" d="M163.5,155.9c18.1-17.9,18.2-45.3,13.3-69.1c-0.8-4-1.1-8.3-3.6-11.4c-2.5-3.2-7.4-4.8-10.6-2.5
							c-2.7,1.9-3.4,5.6-4.6,8.7c-1.6,4.2-4.3,7.9-7.8,10.6c-2.3,1.8-5.3,3.1-8.1,2.1c-3.8-1.3-5-6-5.7-10
							c-1.2-7.4-2.4-14.8-3.7-22.3c-0.7-4-1.3-8-3.2-11.6c-1.9-3.6-5.2-6.6-9.2-7c-4-0.4-8.3,2.6-8.4,6.6c-0.1,1.7,0.6,3.3,0.7,5
							c0.2,1.7-0.3,3.6-1.8,4.4c-1.5,0.7-3.3-0.1-4.7-1.1c-4.8-3.3-8.5-8-11.9-12.7c-3.5-4.7-6.9-9.5-11.4-13.3
							c-4.5-3.7-10.2-6.3-16-5.7c-5.8,0.7-11.2,5.2-11.7,11c-0.5,5.9,3.8,11,8.1,14.9C69.7,58.3,77,63.2,84.8,67
							c1.4,0.7,2.9,1.4,3.7,2.8c1.3,2.5-0.7,5.6-3.2,6.9c-2.8,1.5-6.1,1.7-9.1,2.6c-3,0.9-6.2,2.8-6.8,6c-0.9,4.3,3.2,8,7,10.2
							c7.7,4.4,16.1,7.6,24.7,9.1c3.1,0.6,6.3,1,9.1,2.6c2.7,1.7,4.7,5,3.8,8c-0.9,3-4.5,4.6-7.6,4.5c-3.2,0-6.2-1.2-9.3-1.8
							c-5.8-1.1-12.8,0.5-15.5,5.8c-1.8,3.5-1.2,7.9,0.6,11.4c1.8,3.5,4.7,6.3,7.7,8.8c10.5,8.8,23.1,15.1,36.6,17.4
							C139.7,163.5,151.7,162.7,163.5,155.9"/>
					</g>
				</g>
			</g>
		</g>
		<g>
			<g>
				<g>
					<g>
						<g>
							<path class="st1" d="M60,31.2c0,0,0.1,0.1,0.5,0.3c0.3,0.2,0.8,0.5,1.4,0.9c1.2,0.7,3,1.8,5.2,3.3c4.5,2.9,10.8,7.4,18,13.8
								c3.6,3.2,7.4,6.8,11.4,10.8c4,4,8.2,8.3,12.5,13c4.3,4.7,8.6,9.7,12.7,15.3c2.1,2.8,4,5.7,5.9,8.7c1.9,3,3.9,6.1,5.9,9.1
								c7.9,12.4,15.1,24.4,20.7,35.8c5.6,11.4,9.7,22.2,12.2,31.5c2.6,9.3,3.7,17,4.2,22.4c0.2,2.7,0.4,4.8,0.4,6.2
								c0,0.7,0.1,1.2,0.1,1.6c0,0.4,0,0.6,0.1,0.6c0,0,0-0.2,0-0.6c0-0.4,0-0.9,0-1.6c0-1.4-0.1-3.5-0.3-6.2
								c-0.4-5.4-1.5-13.2-4-22.5c-2.5-9.3-6.5-20.2-12.1-31.7c-5.6-11.5-12.8-23.6-20.7-35.9c-2-3.1-4-6.1-5.9-9.1
								c-1.9-3-3.9-6-5.9-8.8c-4.1-5.6-8.5-10.7-12.8-15.4c-4.3-4.7-8.6-9-12.6-13c-4-4-7.8-7.6-11.5-10.8
								c-7.2-6.4-13.6-10.8-18.2-13.6c-2.3-1.4-4.1-2.5-5.3-3.2c-0.6-0.3-1.1-0.6-1.4-0.8C60.2,31.2,60,31.1,60,31.2z"/>
						</g>
					</g>
				</g>
			</g>
		</g>
		<g>
			<g>
				<g>
					<g>
						<g>
							<path class="st1" d="M122,88.1c0.1,0,0.1-0.6,0.1-1.8c0-1.1,0-2.8-0.1-4.8c-0.1-4.1-0.5-9.7-0.9-15.8
								c-0.4-6.2-0.7-11.8-0.7-15.8c0-2,0-3.7,0-4.8c0-1.1,0-1.8-0.1-1.8c-0.1,0-0.1,0.6-0.2,1.8c-0.1,1.1-0.2,2.8-0.2,4.8
								c-0.1,4.1,0.1,9.7,0.5,15.8c0.4,6.1,0.8,11.6,1.1,15.8c0.1,1.9,0.2,3.5,0.3,4.8C121.8,87.5,121.9,88.1,122,88.1z"/>
						</g>
					</g>
				</g>
			</g>
		</g>
		<g>
			<g>
				<g>
					<g>
						<g>
							<path class="st1" d="M69.2,87.3c0,0.1,0.7,0,2.1-0.1c1.3-0.1,3.3-0.3,5.6-0.4c4.8-0.3,11.4-0.5,18.7-0.3
								c7.3,0.1,13.9,0.5,18.7,1c2.4,0.2,4.3,0.4,5.6,0.5c1.3,0.1,2.1,0.2,2.1,0.1c0-0.1-0.7-0.2-2-0.4c-1.3-0.2-3.2-0.5-5.6-0.8
								c-4.8-0.6-11.4-1.1-18.7-1.2c-7.3-0.1-13.9,0.1-18.7,0.6c-2.4,0.2-4.3,0.4-5.6,0.6C69.9,87.1,69.2,87.3,69.2,87.3z"/>
						</g>
					</g>
				</g>
			</g>
		</g>
		<g>
			<g>
				<g>
					<g>
						<g>
							<path class="st1" d="M153.9,141.1c0,0,0.1-0.2,0.2-0.7c0.2-0.5,0.3-1.2,0.6-2c0.5-1.7,1.1-4.3,1.8-7.4c1.5-6.3,3.2-15,5-24.7
								c1.8-9.7,3.5-18.4,4.8-24.7c0.7-3.1,1.2-5.6,1.6-7.5c0.2-0.8,0.3-1.5,0.4-2c0.1-0.5,0.1-0.7,0.1-0.7c0,0-0.1,0.2-0.2,0.7
								c-0.2,0.5-0.3,1.2-0.6,2c-0.5,1.7-1.1,4.3-1.8,7.4c-1.5,6.3-3.2,15-5,24.7c-1.8,9.7-3.5,18.4-4.8,24.7
								c-0.7,3.1-1.2,5.6-1.6,7.5c-0.2,0.8-0.3,1.5-0.4,2C154,140.9,153.9,141.1,153.9,141.1z"/>
						</g>
					</g>
				</g>
			</g>
		</g>
		<g>
			<g>
				<g>
					<g>
						<g>
							<path class="st1" d="M82.3,130.8c0,0,0.2,0.1,0.7,0.2c0.6,0.1,1.3,0.2,2.1,0.3c1.9,0.3,4.5,0.7,7.7,1.1
								c6.5,0.9,15.4,2.3,25.3,3.9c9.9,1.6,18.8,2.9,25.3,3.7c3.3,0.4,5.9,0.7,7.7,0.9c0.8,0.1,1.5,0.1,2.1,0.2c0.5,0,0.7,0,0.7,0
								c0,0-0.2-0.1-0.7-0.2c-0.6-0.1-1.2-0.2-2.1-0.3c-1.9-0.3-4.5-0.7-7.7-1.1c-6.5-0.9-15.4-2.3-25.3-3.9
								c-9.9-1.6-18.8-2.9-25.3-3.7c-3.3-0.4-5.9-0.7-7.7-0.9c-0.8-0.1-1.5-0.1-2.1-0.2C82.5,130.8,82.3,130.8,82.3,130.8z"/>
						</g>
					</g>
				</g>
			</g>
		</g>
	</g>
	<g>
		<g>
			<g>
				<path class="st1" d="M563.1,88.2c0,0-13-6.4-23.9,24.1c-10.9,30.4-14.4,47.6-14.4,47.6s-3.1,6.5-7.7,3.1
					c-4.6-3.4-11.7-13.8-18.4-10.9c-7,3-8.4,11.4-5.5,23.1c2.9,11.7,8.3,37.6,8.8,40c0.5,2.3-0.4,5.9-3.9,4.1
					c-3.5-1.8-24.7-20.1-32.8-9.6c-8.1,10.6,5.3,41.9,6.7,45.4c1.4,3.5,0.9,5.1-0.7,6.2c-1.6,1.1-8.1-5.7-14.4-10.7
					c-6.2-5-14.4-9.6-18.5-3.1s-2.6,31.1,25.6,67.8l14.2,16.1l21.2-3.9c44.9-11.1,61.4-29.4,62.2-37.1c0.8-7.7-8.5-9.1-16.4-9.1
					c-8,0-17.4,1.3-17.9-0.6c-0.6-1.8,0.1-3.4,3.3-5.3c3.2-1.8,33.3-18,33.5-31.3c0.3-13.3-27.8-12.2-31.6-13
					c-3.9-0.8-2.3-4.1-0.5-5.7c1.8-1.5,22.2-18.5,31.8-25.8c9.6-7.4,13.7-14.8,10.1-21.5c-3.5-6.5-15.5-2.7-21.2-2.9
					c-5.7-0.2-4.1-7.2-4.1-7.2s8-15.6,18.4-46.2c10.4-30.6-4.1-33.7-4.1-33.7"/>
			</g>
		</g>
		<g>
			<g>
				<g>
					<path class="st0" d="M553.3,115.5c0,0-0.1,0.2-0.2,0.7c-0.1,0.5-0.3,1.1-0.6,1.9c-0.6,1.7-1.4,4.1-2.4,7.3
						c-2.1,6.3-5.2,15.4-9,26.6c-7.7,22.5-18.6,53.4-30.8,87.6c-12.2,34.2-23.2,65.1-31,87.5c-3.9,11.2-7.1,20.3-9.2,26.6
						c-1.1,3.1-1.9,5.5-2.5,7.2c-0.3,0.8-0.5,1.4-0.7,1.9c-0.2,0.4-0.3,0.6-0.3,0.6s0.1-0.2,0.2-0.7c0.1-0.5,0.3-1.1,0.6-1.9
						c0.6-1.7,1.4-4.1,2.4-7.3c2.1-6.3,5.2-15.4,9-26.6c7.7-22.5,18.6-53.4,30.8-87.6c12.2-34.1,23.2-65.1,31-87.5
						c3.9-11.2,7.1-20.3,9.2-26.6c1.1-3.1,1.9-5.5,2.5-7.2c0.3-0.8,0.5-1.4,0.7-1.9C553.2,115.7,553.3,115.5,553.3,115.5z"/>
				</g>
			</g>
		</g>
		<g>
			<g>
				<g>
					<path class="st0" d="M508,167.1c0,0,0.3,0.5,0.7,1.4c0.4,0.9,1,2.2,1.7,3.9c1.4,3.3,3.2,7.9,5.1,13c1.9,5,3.6,9.6,4.8,13.1
						c0.6,1.6,1.1,2.9,1.5,4c0.4,0.9,0.5,1.5,0.5,1.5c0,0-0.3-0.5-0.7-1.4c-0.4-0.9-1-2.2-1.7-3.9c-1.4-3.3-3.1-7.9-5-13
						c-1.9-5-3.6-9.6-4.9-13c-0.6-1.6-1.1-2.9-1.5-3.9C508.1,167.6,508,167.1,508,167.1z"/>
				</g>
			</g>
		</g>
		<g>
			<g>
				<g>
					<path class="st0" d="M524.4,203.9c-0.1-0.2,9.2-4.3,20.8-9.3c11.5-5,21-8.8,21-8.7c0.1,0.2-9.2,4.3-20.8,9.3
						C533.9,200.2,524.5,204.1,524.4,203.9z"/>
				</g>
			</g>
		</g>
		<g>
			<g>
				<g>
					<path class="st0" d="M503.3,255.5c0,0,0.6-0.1,1.6-0.3c1.1-0.1,2.6-0.3,4.3-0.5c3.6-0.5,8.6-1.1,14.1-2
						c5.5-0.9,10.4-1.9,14-2.6c1.7-0.3,3.1-0.6,4.2-0.9c1-0.2,1.6-0.3,1.6-0.2c0,0-0.5,0.2-1.5,0.5c-1,0.3-2.4,0.7-4.2,1.1
						c-3.5,0.9-8.5,1.9-14,2.8c-5.5,0.9-10.5,1.5-14.1,1.8c-1.8,0.2-3.3,0.3-4.3,0.3C503.9,255.5,503.4,255.5,503.3,255.5z"/>
				</g>
			</g>
		</g>
		<g>
			<g>
				<g>
					<path class="st0" d="M481.2,225.4c0,0,0.4,0.4,1,1.1c0.7,0.8,1.5,1.9,2.5,3.1c2.1,2.6,4.1,7.4,8,10.4c3.1,4.1,5.9,7.8,7.9,10.5
						c0.9,1.3,1.7,2.4,2.3,3.2c0.5,0.8,0.8,1.2,0.8,1.2c0,0-0.4-0.4-1-1.1c-0.7-0.8-1.5-1.9-2.5-3.1c-2.1-2.6-4.9-6.3-8-10.4
						c-3.1-4.1-5.9-7.8-7.9-10.5c-0.9-1.3-1.7-2.4-2.3-3.2C481.4,225.9,481.1,225.5,481.2,225.4z"/>
				</g>
			</g>
		</g>
		<g>
			<g>
				<g>
					<path class="st0" d="M456.8,268.6c0,0,0.5,0.5,1.2,1.4c0.8,1,1.9,2.4,3.2,4c2.7,3.4,6.4,8.1,10.4,13.3c4,5.2,7.6,10,10.2,13.4
						c1.2,1.7,2.2,3,3,4.1c0.7,1,1.1,1.5,1,1.6c0,0-0.5-0.5-1.2-1.4c-0.8-1-1.9-2.4-3.2-4c-2.7-3.4-6.4-8.1-10.4-13.3
						c-4-5.2-7.6-10-10.2-13.4c-1.2-1.7-2.2-3-3-4.1C457.1,269.2,456.8,268.7,456.8,268.6z"/>
				</g>
			</g>
		</g>
		<g>
			<g>
				<g>
					<path class="st0" d="M485.5,305.3c0,0,0.7-0.2,2-0.4c1.4-0.2,3.2-0.5,5.4-0.9c4.6-0.7,10.9-1.8,17.8-3.1
						c6.9-1.3,13.2-2.7,17.7-3.7c2.2-0.5,4-0.9,5.3-1.2c1.3-0.3,2-0.4,2-0.4c0,0-0.7,0.3-1.9,0.6c-1.2,0.4-3,0.8-5.3,1.4
						c-4.5,1.1-10.7,2.6-17.6,3.9c-6.9,1.3-13.2,2.3-17.8,2.9c-2.3,0.3-4.2,0.5-5.4,0.7C486.2,305.3,485.5,305.3,485.5,305.3z"/>
				</g>
			</g>
		</g>
	</g>
</g>
<g id="Background_Simple" class="st2">
	<path class="st3" d="M122.7,150.7l1.8-4.1c14.8-34.9,47.4-59.4,85.2-62.7c4.9-0.4,9.7-0.5,14.6-0.2c35.1,2.1,68.5,23.1,85.6,53.8
		c10.1,18,15.4,39.8,31.3,52.9c20.8,17.1,51.1,13.2,77.6,8.4c26.5-4.8,56.8-8.6,77.5,8.6c13,10.8,19.1,27.9,20.7,44.7
		c4.2,44.4-21,88.4-57.6,113.9c-36.6,25.5-82.9,34.2-127.4,32.1c-62.4-3-123.3-13.9-165.6-59.9C124.1,292.1,103.3,210.1,122.7,150.7
		z"/>
</g>
<g id="Floor">
	<g>
		<g>
			<path class="st4" d="M569.2,524.5c0,0.2-123.6,0.3-275.9,0.3c-152.4,0-276-0.1-276-0.3c0-0.2,123.5-0.3,276-0.3
				C445.7,524.2,569.2,524.3,569.2,524.5z"/>
		</g>
	</g>
</g>
<g id="Login">
	<g>
		<g>
			<g>
				<rect x="163.3" y="32.5" class="st5" width="323.5" height="405.8"/>
			</g>
			<g>
				<g>
					<path class="st4" d="M163.3,32.5c2.3,0,128.4-0.1,323.5-0.3l0.3,0v0.3c0,115.9,0,255.5,0.1,405.8v0v0.3h-0.3
						c-116.8,0-227.2,0-323.5,0H163l0-0.3C163.2,197.2,163.3,35.1,163.3,32.5c0,2.6,0.1,164.6,0.3,405.8l-0.3-0.3
						c96.3,0,206.7,0,323.5,0l-0.3,0.3v0c0-150.2,0-289.9,0.1-405.8l0.3,0.3C291.7,32.7,165.6,32.5,163.3,32.5z"/>
				</g>
			</g>
		</g>
		<g>
			<g>
				<path d="M287.9,64.7h3.2v14.7h9.1v2.7h-12.4V64.7z"/>
				<path d="M301.3,75.5c0-4,3-6.8,7.1-6.8c4.1,0,7.1,2.8,7.1,6.8c0,4-3,6.8-7.1,6.8C304.3,82.4,301.3,79.5,301.3,75.5z M312.4,75.5
					c0-2.5-1.7-4.2-4-4.2c-2.2,0-3.9,1.6-3.9,4.2c0,2.5,1.7,4.2,3.9,4.2C310.7,79.7,312.4,78.1,312.4,75.5z"/>
				<path d="M331.8,68.9v11.3c0,4.8-2.5,7-7.2,7c-2.5,0-5-0.6-6.5-1.9l1.4-2.3c1.2,1,3.1,1.6,4.9,1.6c2.9,0,4.2-1.3,4.2-4v-0.7
					c-1.1,1.2-2.7,1.8-4.5,1.8c-3.8,0-6.7-2.6-6.7-6.5c0-3.9,2.9-6.4,6.7-6.4c1.9,0,3.5,0.6,4.6,1.9v-1.8H331.8z M328.7,75.1
					c0-2.2-1.7-3.8-4-3.8c-2.4,0-4.1,1.5-4.1,3.8c0,2.3,1.7,3.8,4.1,3.8C327,79,328.7,77.4,328.7,75.1z"/>
				<path d="M335.4,64.8c0-1,0.8-1.9,2-1.9c1.1,0,2,0.8,2,1.8c0,1.1-0.8,1.9-2,1.9C336.3,66.7,335.4,65.8,335.4,64.8z M335.9,68.9
					h3.1v13.3h-3.1V68.9z"/>
				<path d="M356.2,74.6v7.6h-3.1V75c0-2.4-1.2-3.5-3.2-3.5c-2.2,0-3.7,1.3-3.7,4v6.7h-3.1V68.9h3v1.7c1-1.2,2.6-1.9,4.6-1.9
					C353.8,68.7,356.2,70.5,356.2,74.6z"/>
			</g>
			<g>
				<g>
					<g>
						<path class="st6" d="M378.9,55.7c0.9,1.5,1,3.4,0.5,5.1c-0.5,1.7-1.5,3.2-2.7,4.5c-2.3,2.5-5.9,4.1-9.1,5.1
							c-0.8-3.7,1.2-7.6,2.4-9.5C371.7,57.9,376.8,53.6,378.9,55.7"/>
					</g>
				</g>
				<g>
					<g>
						<path class="st6" d="M366.9,76.8c0.8-1.8,2.6-3,4.6-3.2c2-0.2,3.9,0.6,5.4,1.9c0.7,0.6,1.3,1.4,1.3,2.3c0,0.8-0.6,1.6-1.4,2
							c-0.8,0.4-1.6,0.4-2.5,0.4C371.4,79.9,368.6,79.1,366.9,76.8"/>
					</g>
				</g>
				<g>
					<g>
						<g>
							<path class="st4" d="M359.5,81.1c0,0,0.6-0.6,1.6-1.6c0.5-0.5,1.2-0.9,2-1.4c0.8-0.4,1.7-0.9,2.7-1.2c2-0.7,4-0.8,5.4-0.6
								c0.7,0.1,1.2,0.3,1.6,0.4c0.4,0.2,0.6,0.3,0.5,0.3c0,0.1-0.8-0.3-2.2-0.4c-1.4-0.2-3.3,0-5.2,0.7c-1,0.3-1.9,0.8-2.7,1.2
								c-0.8,0.4-1.5,0.8-2,1.2C360.3,80.6,359.6,81.2,359.5,81.1z"/>
						</g>
					</g>
				</g>
				<g>
					<g>
						<g>
							<path class="st4" d="M375.3,59.4c0,0-0.2,0.4-0.6,1c-0.4,0.6-1,1.5-1.7,2.6c-1.5,2.2-3.5,5.2-5.8,8.4
								c-2.3,3.2-4.5,6.1-6.2,8.2c-0.8,1-1.5,1.8-2,2.4c-0.5,0.6-0.7,0.9-0.8,0.8c0,0,0.2-0.3,0.6-0.9c0.5-0.6,1.1-1.5,1.9-2.5
								c1.6-2.1,3.7-5,6.1-8.2c2.3-3.2,4.4-6.1,5.9-8.3c0.7-1,1.3-1.9,1.8-2.5C375,59.7,375.2,59.4,375.3,59.4z"/>
						</g>
					</g>
				</g>
				<g>
					<g>
						<path class="st6" d="M362.6,75.3c1.4-3.9,0.7-8.5-1.7-11.8c-0.6-0.9-1.6-1.7-2.6-1.4c-1,0.3-1.5,1.5-1.6,2.5
							c-0.5,4.4,1.9,8.9,5.8,11"/>
					</g>
				</g>
				<g>
					<g>
						<g>
							<path class="st4" d="M360.1,66.5c0,0,0.1,0.2,0.3,0.5c0.2,0.3,0.5,0.8,0.8,1.4c0.6,1.2,1.3,3,1.5,5.2c0.1,1.1,0,2.1-0.3,3
								c-0.2,0.9-0.6,1.6-1,2.2c-0.4,0.6-0.7,1-1,1.3c-0.3,0.3-0.4,0.4-0.4,0.4c-0.1,0,0.5-0.7,1.2-1.9c0.3-0.6,0.6-1.3,0.9-2.2
								c0.2-0.9,0.3-1.8,0.2-2.9c-0.1-2.1-0.8-3.8-1.3-5.1C360.4,67.3,360,66.5,360.1,66.5z"/>
						</g>
					</g>
				</g>
			</g>
		</g>
		<g>
			<g>
				<path class="st4" d="M196.7,123.3v0.9h-7.2V114h7v0.9h-5.9v3.6h5.3v0.9h-5.3v3.8H196.7z"/>
				<path class="st4" d="M211.7,119.7v4.5h-1v-4.4c0-1.6-0.8-2.5-2.2-2.5c-1.6,0-2.6,1-2.6,2.8v4h-1v-4.4c0-1.6-0.8-2.5-2.2-2.5
					c-1.6,0-2.6,1-2.6,2.8v4h-1v-7.7h1v1.4c0.5-0.9,1.5-1.5,2.8-1.5c1.3,0,2.3,0.5,2.7,1.6c0.6-1,1.7-1.6,3-1.6
					C210.4,116.5,211.7,117.5,211.7,119.7z"/>
				<path class="st4" d="M220.3,119.4v4.8h-1V123c-0.5,0.8-1.4,1.3-2.6,1.3c-1.7,0-2.8-0.9-2.8-2.2c0-1.2,0.8-2.2,3-2.2h2.4v-0.5
					c0-1.3-0.7-2-2.2-2c-1,0-1.9,0.4-2.6,0.9l-0.5-0.8c0.8-0.7,1.9-1,3.1-1C219.1,116.5,220.3,117.5,220.3,119.4z M219.2,121.9v-1.3
					h-2.4c-1.5,0-2,0.6-2,1.4c0,0.9,0.7,1.4,1.9,1.4C218,123.5,218.8,122.9,219.2,121.9z"/>
				<path class="st4" d="M222.8,114.1c0-0.4,0.3-0.7,0.8-0.7s0.8,0.3,0.8,0.7c0,0.4-0.3,0.8-0.8,0.8
					C223.2,114.8,222.8,114.5,222.8,114.1z M223.1,116.5h1v7.7h-1V116.5z"/>
				<path class="st4" d="M227,113.4h1v10.8h-1V113.4z"/>
				<path class="st4" d="M240.6,119.4v4.8h-1V123c-0.5,0.8-1.4,1.3-2.6,1.3c-1.7,0-2.8-0.9-2.8-2.2c0-1.2,0.8-2.2,3-2.2h2.4v-0.5
					c0-1.3-0.7-2-2.2-2c-1,0-1.9,0.4-2.6,0.9l-0.5-0.8c0.8-0.7,1.9-1,3.1-1C239.4,116.5,240.6,117.5,240.6,119.4z M239.5,121.9v-1.3
					h-2.4c-1.5,0-2,0.6-2,1.4c0,0.9,0.7,1.4,1.9,1.4C238.3,123.5,239.1,122.9,239.5,121.9z"/>
				<path class="st4" d="M250.4,113.4v10.8h-1v-1.5c-0.6,1-1.7,1.6-3,1.6c-2.2,0-3.8-1.6-3.8-3.9c0-2.3,1.6-3.9,3.8-3.9
					c1.2,0,2.3,0.5,2.9,1.5v-4.6H250.4z M249.4,120.4c0-1.8-1.2-3-2.8-3c-1.6,0-2.9,1.2-2.9,3c0,1.8,1.2,3,2.9,3
					C248.2,123.4,249.4,122.2,249.4,120.4z"/>
				<path class="st4" d="M260.3,113.4v10.8h-1v-1.5c-0.6,1-1.7,1.6-3,1.6c-2.2,0-3.8-1.6-3.8-3.9c0-2.3,1.6-3.9,3.8-3.9
					c1.2,0,2.3,0.5,2.9,1.5v-4.6H260.3z M259.3,120.4c0-1.8-1.2-3-2.8-3c-1.6,0-2.9,1.2-2.9,3c0,1.8,1.2,3,2.9,3
					C258.1,123.4,259.3,122.2,259.3,120.4z"/>
				<path class="st4" d="M267.1,116.5v1c-0.1,0-0.2,0-0.2,0c-1.6,0-2.6,1-2.6,2.8v3.9h-1v-7.7h1v1.5
					C264.7,117,265.7,116.5,267.1,116.5z"/>
				<path class="st4" d="M275.6,120.7h-6.4c0.1,1.6,1.3,2.7,3,2.7c0.9,0,1.8-0.3,2.4-1l0.6,0.7c-0.7,0.8-1.8,1.3-3,1.3
					c-2.4,0-4-1.6-4-3.9c0-2.3,1.6-3.9,3.8-3.9c2.2,0,3.7,1.6,3.7,3.9C275.6,120.4,275.6,120.6,275.6,120.7z M269.1,119.9h5.4
					c-0.1-1.5-1.2-2.6-2.7-2.6C270.4,117.4,269.3,118.4,269.1,119.9z"/>
				<path class="st4" d="M276.6,123.3l0.5-0.8c0.6,0.5,1.7,0.9,2.7,0.9c1.5,0,2.1-0.5,2.1-1.3c0-2-5-0.4-5-3.5c0-1.3,1.1-2.2,3-2.2
					c1,0,2.1,0.3,2.7,0.7l-0.5,0.8c-0.7-0.5-1.5-0.7-2.3-0.7c-1.4,0-2,0.5-2,1.3c0,2.1,5,0.5,5,3.5c0,1.3-1.2,2.2-3.2,2.2
					C278.5,124.3,277.2,123.9,276.6,123.3z"/>
				<path class="st4" d="M283.8,123.3l0.5-0.8c0.6,0.5,1.7,0.9,2.7,0.9c1.5,0,2.1-0.5,2.1-1.3c0-2-5-0.4-5-3.5c0-1.3,1.1-2.2,3-2.2
					c1,0,2.1,0.3,2.7,0.7l-0.5,0.8c-0.7-0.5-1.5-0.7-2.3-0.7c-1.4,0-2,0.5-2,1.3c0,2.1,5,0.5,5,3.5c0,1.3-1.2,2.2-3.2,2.2
					C285.6,124.3,284.4,123.9,283.8,123.3z"/>
			</g>
			<g>
				<path class="st1" d="M208.4,151.6H202c0.1,1.6,1.3,2.7,3,2.7c0.9,0,1.8-0.3,2.4-1l0.6,0.7c-0.7,0.8-1.8,1.3-3,1.3
					c-2.4,0-4-1.6-4-3.9c0-2.3,1.6-3.9,3.8-3.9c2.2,0,3.7,1.6,3.7,3.9C208.5,151.3,208.4,151.4,208.4,151.6z M202,150.8h5.4
					c-0.1-1.5-1.2-2.6-2.7-2.6C203.2,148.2,202.1,149.3,202,150.8z"/>
				<path class="st1" d="M215.2,155.1l-2.4-3.2l-2.5,3.2h-1.2l3-3.9l-2.9-3.7h1.2l2.3,3l2.3-3h1.1l-2.9,3.7l3.1,3.9H215.2z"/>
				<path class="st1" d="M223.8,150.3v4.8h-1v-1.2c-0.5,0.8-1.4,1.3-2.6,1.3c-1.7,0-2.8-0.9-2.8-2.2c0-1.2,0.8-2.2,3-2.2h2.4v-0.5
					c0-1.3-0.7-2-2.2-2c-1,0-1.9,0.4-2.6,0.9l-0.5-0.8c0.8-0.7,1.9-1,3.1-1C222.7,147.3,223.8,148.3,223.8,150.3z M222.8,152.8v-1.3
					h-2.4c-1.5,0-2,0.6-2,1.4c0,0.9,0.7,1.4,1.9,1.4C221.5,154.3,222.4,153.8,222.8,152.8z"/>
				<path class="st1" d="M239.3,150.6v4.5h-1v-4.4c0-1.6-0.8-2.5-2.2-2.5c-1.6,0-2.6,1-2.6,2.8v4h-1v-4.4c0-1.6-0.8-2.5-2.2-2.5
					c-1.6,0-2.6,1-2.6,2.8v4h-1v-7.7h1v1.4c0.5-0.9,1.5-1.5,2.8-1.5c1.3,0,2.3,0.5,2.7,1.6c0.6-1,1.7-1.6,3-1.6
					C238.1,147.3,239.3,148.4,239.3,150.6z"/>
				<path class="st1" d="M249.9,151.2c0,2.3-1.6,3.9-3.8,3.9c-1.2,0-2.3-0.5-2.9-1.5v4.3h-1v-10.5h1v1.5c0.6-1,1.7-1.6,3-1.6
					C248.3,147.3,249.9,148.9,249.9,151.2z M248.9,151.2c0-1.8-1.2-3-2.9-3c-1.6,0-2.9,1.2-2.9,3c0,1.8,1.2,3,2.9,3
					C247.6,154.2,248.9,153,248.9,151.2z"/>
				<path class="st1" d="M252,144.2h1v10.8h-1V144.2z"/>
				<path class="st1" d="M262.6,151.6h-6.4c0.1,1.6,1.3,2.7,3,2.7c0.9,0,1.8-0.3,2.4-1l0.6,0.7c-0.7,0.8-1.8,1.3-3,1.3
					c-2.4,0-4-1.6-4-3.9c0-2.3,1.6-3.9,3.8-3.9c2.2,0,3.7,1.6,3.7,3.9C262.6,151.3,262.6,151.4,262.6,151.6z M256.2,150.8h5.4
					c-0.1-1.5-1.2-2.6-2.7-2.6C257.4,148.2,256.3,149.3,256.2,150.8z"/>
				<path class="st1" d="M277.6,151.2c0,2.5-0.9,3.9-2.4,3.9c-0.9,0-1.6-0.6-1.7-1.6c-0.6,1-1.6,1.6-2.9,1.6c-2.1,0-3.6-1.6-3.6-3.8
					c0-2.2,1.5-3.8,3.6-3.8c1.3,0,2.3,0.6,2.9,1.5v-1.5h0.9v5.5c0,0.8,0.4,1.1,0.9,1.1c0.9,0,1.5-1.1,1.5-3.1c0-3.4-2.5-5.7-6-5.7
					c-3.6,0-6,2.4-6,5.9s2.4,5.9,6,5.9c0.9,0,2-0.2,2.8-0.6l0.2,0.7c-0.9,0.5-2.1,0.7-3.1,0.7c-4,0-6.8-2.8-6.8-6.6
					c0-3.9,2.8-6.6,6.8-6.6C274.8,144.8,277.6,147.4,277.6,151.2z M273.6,151.4c0-1.8-1.2-2.9-2.8-2.9c-1.6,0-2.8,1.2-2.8,2.9
					c0,1.8,1.2,2.9,2.8,2.9C272.4,154.3,273.6,153.1,273.6,151.4z"/>
				<path class="st1" d="M286.9,147.4v6.7c0,2.6-1.3,3.8-3.8,3.8c-1.4,0-2.8-0.4-3.6-1.2l0.5-0.8c0.7,0.7,1.8,1.1,3,1.1
					c1.9,0,2.8-0.9,2.8-2.8v-1c-0.6,1-1.7,1.5-3,1.5c-2.2,0-3.9-1.5-3.9-3.7s1.7-3.7,3.9-3.7c1.3,0,2.4,0.5,3,1.5v-1.5H286.9z
					 M285.9,151c0-1.7-1.2-2.8-2.9-2.8c-1.7,0-2.9,1.1-2.9,2.8c0,1.7,1.2,2.8,2.9,2.8C284.7,153.9,285.9,152.7,285.9,151z"/>
				<path class="st1" d="M302.5,150.6v4.5h-1v-4.4c0-1.6-0.8-2.5-2.2-2.5c-1.6,0-2.6,1-2.6,2.8v4h-1v-4.4c0-1.6-0.8-2.5-2.2-2.5
					c-1.6,0-2.6,1-2.6,2.8v4h-1v-7.7h1v1.4c0.5-0.9,1.5-1.5,2.8-1.5c1.3,0,2.3,0.5,2.7,1.6c0.6-1,1.7-1.6,3-1.6
					C301.3,147.3,302.5,148.4,302.5,150.6z"/>
				<path class="st1" d="M311.1,150.3v4.8h-1v-1.2c-0.5,0.8-1.4,1.3-2.6,1.3c-1.7,0-2.8-0.9-2.8-2.2c0-1.2,0.8-2.2,3-2.2h2.4v-0.5
					c0-1.3-0.7-2-2.2-2c-1,0-1.9,0.4-2.6,0.9l-0.5-0.8c0.8-0.7,1.9-1,3.1-1C310,147.3,311.1,148.3,311.1,150.3z M310.1,152.8v-1.3
					h-2.4c-1.5,0-2,0.6-2,1.4c0,0.9,0.7,1.4,1.9,1.4C308.8,154.3,309.7,153.8,310.1,152.8z"/>
				<path class="st1" d="M313.7,145c0-0.4,0.3-0.7,0.8-0.7c0.4,0,0.8,0.3,0.8,0.7c0,0.4-0.3,0.8-0.8,0.8
					C314.1,145.7,313.7,145.4,313.7,145z M313.9,147.4h1v7.7h-1V147.4z"/>
				<path class="st1" d="M317.9,144.2h1v10.8h-1V144.2z"/>
				<path class="st1" d="M321.1,154.3c0-0.5,0.4-0.8,0.8-0.8c0.4,0,0.8,0.3,0.8,0.8c0,0.5-0.4,0.8-0.8,0.8
					C321.5,155.1,321.1,154.8,321.1,154.3z"/>
				<path class="st1" d="M323.9,151.2c0-2.3,1.7-3.9,4-3.9c1.3,0,2.4,0.5,3,1.5l-0.8,0.5c-0.5-0.8-1.3-1.1-2.2-1.1
					c-1.7,0-2.9,1.2-2.9,3c0,1.8,1.2,3,2.9,3c0.9,0,1.7-0.4,2.2-1.1l0.8,0.5c-0.6,1-1.7,1.5-3,1.5
					C325.6,155.1,323.9,153.5,323.9,151.2z"/>
				<path class="st1" d="M332,151.2c0-2.3,1.7-3.9,3.9-3.9c2.3,0,3.9,1.6,3.9,3.9c0,2.3-1.7,3.9-3.9,3.9
					C333.7,155.1,332,153.5,332,151.2z M338.8,151.2c0-1.8-1.2-3-2.8-3c-1.6,0-2.9,1.2-2.9,3c0,1.8,1.2,3,2.9,3
					C337.5,154.2,338.8,153,338.8,151.2z"/>
				<path class="st1" d="M354.6,150.6v4.5h-1v-4.4c0-1.6-0.8-2.5-2.2-2.5c-1.6,0-2.6,1-2.6,2.8v4h-1v-4.4c0-1.6-0.8-2.5-2.2-2.5
					c-1.6,0-2.6,1-2.6,2.8v4h-1v-7.7h1v1.4c0.5-0.9,1.5-1.5,2.8-1.5c1.3,0,2.3,0.5,2.7,1.6c0.6-1,1.7-1.6,3-1.6
					C353.4,147.3,354.6,148.4,354.6,150.6z"/>
			</g>
			<g>
				<g>
					<path class="st1" d="M460.2,168.2c0,0,0.6,0.1,1.4-0.6c0.9-0.7,0.5-2.4,0.6-4.4c0-4.1,0-10.1-0.1-17.9c0-1.9,0-4,0-6.1
						c0-0.5,0-1.1,0-1.6c0-0.5,0.1-1.1-0.1-1.6c-0.2-0.5-0.5-0.9-1-1.2c-0.5-0.2-1.1-0.2-1.7-0.2c-4.7,0-9.8,0-15.4,0
						c-11,0-23.6,0-37.4,0c-55.5,0-132.1,0.1-216.7,0.1c-0.6,0-1.1,0.3-1.4,0.7c-0.4,0.5-0.3,1-0.3,1.7v3.9c0,2.6,0,5.2,0,7.9
						c0,5.2,0,10.4,0,15.6c0,0.6,0,1.3,0,1.9c0.1,0.5,0.5,1,0.9,1.3c0.2,0.1,0.5,0.2,0.8,0.2l1,0l1.9,0c2.6,0,5.1,0,7.6,0
						c5.1,0,10.1,0,15.1,0c20,0,39.2,0,57.5,0c36.7,0,69.7,0.1,97.4,0.1c27.7,0,50.2,0.1,65.7,0.1c7.7,0,13.8,0,17.9,0.1
						c2,0,3.6,0,4.6,0C459.6,168.2,460.2,168.2,460.2,168.2s-0.5,0-1.6,0c-1.1,0-2.6,0-4.6,0c-4.1,0-10.1,0-17.9,0.1
						c-15.5,0-38,0.1-65.7,0.1c-27.7,0-60.8,0-97.4,0.1c-18.3,0-37.6,0-57.5,0c-5,0-10,0-15.1,0c-2.5,0-5.1,0-7.6,0l-1.9,0l-1,0
						c-0.4,0-0.7-0.1-1.1-0.3c-0.7-0.3-1.2-1-1.3-1.7c-0.1-0.8,0-1.3,0-2c0-5.2,0-10.3,0-15.6c0-2.6,0-5.2,0-7.9l0-3.9
						c0-0.3,0-0.6,0-1c0.1-0.4,0.2-0.7,0.4-1.1c0.4-0.6,1.2-1,2-1c84.6,0,161.2,0.1,216.7,0.1c13.9,0,26.4,0,37.4,0
						c5.5,0,10.6,0,15.4,0c0.6,0,1.2-0.1,1.8,0.2c0.6,0.3,1,0.8,1.2,1.3c0.2,0.6,0.1,1.2,0.1,1.7c0,0.6,0,1.1,0,1.6
						c0,2.2,0,4.2,0,6.1c0,7.7,0,13.8-0.1,17.9c0,1,0,1.9,0,2.7c0.1,0.8-0.3,1.4-0.7,1.8C460.8,168.4,460.1,168.2,460.2,168.2z"/>
				</g>
			</g>
		</g>
		<g>
			<g>
				<path class="st4" d="M197.4,194.2c0,2.2-1.6,3.5-4.2,3.5h-2.7v3.2h-1.1v-10.2h3.8C195.9,190.7,197.4,192,197.4,194.2z
					 M196.4,194.2c0-1.6-1.1-2.6-3.1-2.6h-2.7v5.1h2.7C195.3,196.7,196.4,195.8,196.4,194.2z"/>
				<path class="st4" d="M205.3,196.1v4.8h-1v-1.2c-0.5,0.8-1.4,1.3-2.6,1.3c-1.7,0-2.8-0.9-2.8-2.2c0-1.2,0.8-2.2,3-2.2h2.4v-0.5
					c0-1.3-0.7-2-2.2-2c-1,0-1.9,0.4-2.6,0.9l-0.5-0.8c0.8-0.7,1.9-1,3.1-1C204.1,193.2,205.3,194.2,205.3,196.1z M204.2,198.6v-1.3
					h-2.4c-1.5,0-2,0.6-2,1.4c0,0.9,0.7,1.4,1.9,1.4C203,200.2,203.8,199.6,204.2,198.6z"/>
				<path class="st4" d="M207,200l0.5-0.8c0.6,0.5,1.7,0.9,2.7,0.9c1.5,0,2.1-0.5,2.1-1.3c0-2-5-0.4-5-3.5c0-1.3,1.1-2.2,3-2.2
					c1,0,2.1,0.3,2.7,0.7l-0.5,0.8c-0.7-0.5-1.5-0.7-2.3-0.7c-1.4,0-2,0.5-2,1.3c0,2.1,5,0.5,5,3.5c0,1.3-1.2,2.2-3.2,2.2
					C208.9,201,207.6,200.6,207,200z"/>
				<path class="st4" d="M214.2,200l0.5-0.8c0.6,0.5,1.7,0.9,2.7,0.9c1.5,0,2.1-0.5,2.1-1.3c0-2-5-0.4-5-3.5c0-1.3,1.1-2.2,3-2.2
					c1,0,2.1,0.3,2.7,0.7l-0.5,0.8c-0.7-0.5-1.5-0.7-2.3-0.7c-1.4,0-2,0.5-2,1.3c0,2.1,5,0.5,5,3.5c0,1.3-1.2,2.2-3.2,2.2
					C216,201,214.8,200.6,214.2,200z"/>
				<path class="st4" d="M233.5,193.2l-2.9,7.7h-1l-2.4-6.3l-2.4,6.3h-1l-2.9-7.7h1l2.4,6.5l2.5-6.5h0.9l2.5,6.5l2.4-6.5H233.5z"/>
				<path class="st4" d="M234.1,197.1c0-2.3,1.7-3.9,3.9-3.9c2.2,0,3.9,1.6,3.9,3.9c0,2.3-1.7,3.9-3.9,3.9
					C235.7,201,234.1,199.3,234.1,197.1z M240.8,197.1c0-1.8-1.2-3-2.8-3c-1.6,0-2.9,1.2-2.9,3c0,1.8,1.2,3,2.9,3
					C239.6,200.1,240.8,198.9,240.8,197.1z"/>
				<path class="st4" d="M247.9,193.2v1c-0.1,0-0.2,0-0.2,0c-1.6,0-2.6,1-2.6,2.8v3.9h-1v-7.7h1v1.5
					C245.5,193.7,246.4,193.2,247.9,193.2z"/>
				<path class="st4" d="M256.7,190.1v10.8h-1v-1.5c-0.6,1-1.7,1.6-3,1.6c-2.2,0-3.8-1.6-3.8-3.9c0-2.3,1.6-3.9,3.8-3.9
					c1.2,0,2.3,0.5,2.9,1.5v-4.6H256.7z M255.6,197.1c0-1.8-1.2-3-2.8-3c-1.6,0-2.9,1.2-2.9,3c0,1.8,1.2,3,2.9,3
					C254.4,200.1,255.6,198.9,255.6,197.1z"/>
			</g>
			<g>
				<path class="st1" d="M209.2,231.8v0.9H202v-10.2h7v0.9h-5.9v3.6h5.3v0.9h-5.3v3.8H209.2z"/>
				<path class="st1" d="M218.6,228.3v4.5h-1v-4.4c0-1.6-0.8-2.5-2.3-2.5c-1.7,0-2.7,1-2.7,2.8v4h-1v-7.7h1v1.4
					c0.6-0.9,1.6-1.5,2.9-1.5C217.3,225,218.6,226.1,218.6,228.3z"/>
				<path class="st1" d="M225.4,232.3c-0.4,0.4-1,0.5-1.6,0.5c-1.4,0-2.2-0.8-2.2-2.2v-4.6h-1.4v-0.9h1.4v-1.7h1v1.7h2.3v0.9h-2.3
					v4.6c0,0.9,0.5,1.4,1.3,1.4c0.4,0,0.8-0.1,1.1-0.4L225.4,232.3z"/>
				<path class="st1" d="M233.7,229.2h-6.4c0.1,1.6,1.3,2.7,3,2.7c0.9,0,1.8-0.3,2.4-1l0.6,0.7c-0.7,0.8-1.8,1.3-3,1.3
					c-2.4,0-4-1.6-4-3.9c0-2.3,1.6-3.9,3.8-3.9c2.2,0,3.7,1.6,3.7,3.9C233.8,229,233.7,229.1,233.7,229.2z M227.3,228.4h5.4
					c-0.1-1.5-1.2-2.6-2.7-2.6C228.5,225.9,227.4,226.9,227.3,228.4z"/>
				<path class="st1" d="M239.7,225v1c-0.1,0-0.2,0-0.2,0c-1.6,0-2.6,1-2.6,2.8v3.9h-1v-7.7h1v1.5C237.3,225.5,238.3,225,239.7,225z
					"/>
				<path class="st1" d="M253.3,228.9c0,2.3-1.6,3.9-3.8,3.9c-1.2,0-2.3-0.5-2.9-1.5v4.3h-1v-10.5h1v1.5c0.6-1,1.7-1.6,3-1.6
					C251.7,225,253.3,226.6,253.3,228.9z M252.3,228.9c0-1.8-1.2-3-2.9-3c-1.6,0-2.9,1.2-2.9,3c0,1.8,1.2,3,2.9,3
					C251.1,231.9,252.3,230.7,252.3,228.9z"/>
				<path class="st1" d="M261.2,228v4.8h-1v-1.2c-0.5,0.8-1.4,1.3-2.6,1.3c-1.7,0-2.8-0.9-2.8-2.2c0-1.2,0.8-2.2,3-2.2h2.4v-0.5
					c0-1.3-0.7-2-2.2-2c-1,0-1.9,0.4-2.6,0.9L255,226c0.8-0.7,1.9-1,3.1-1C260.1,225,261.2,226,261.2,228z M260.2,230.4v-1.3h-2.4
					c-1.5,0-2,0.6-2,1.4c0,0.9,0.7,1.4,1.9,1.4C258.9,232,259.8,231.4,260.2,230.4z"/>
				<path class="st1" d="M263,231.9l0.5-0.8c0.6,0.5,1.7,0.9,2.7,0.9c1.5,0,2.1-0.5,2.1-1.3c0-2-5-0.4-5-3.5c0-1.3,1.1-2.2,3-2.2
					c1,0,2.1,0.3,2.7,0.7l-0.5,0.8c-0.7-0.5-1.5-0.7-2.3-0.7c-1.4,0-2,0.5-2,1.3c0,2.1,5,0.5,5,3.5c0,1.3-1.2,2.2-3.2,2.2
					C264.8,232.8,263.6,232.4,263,231.9z"/>
				<path class="st1" d="M270.1,231.9l0.5-0.8c0.6,0.5,1.7,0.9,2.7,0.9c1.5,0,2.1-0.5,2.1-1.3c0-2-5-0.4-5-3.5c0-1.3,1.1-2.2,3-2.2
					c1,0,2.1,0.3,2.7,0.7l-0.5,0.8c-0.7-0.5-1.5-0.7-2.3-0.7c-1.4,0-2,0.5-2,1.3c0,2.1,5,0.5,5,3.5c0,1.3-1.2,2.2-3.2,2.2
					C271.9,232.8,270.7,232.4,270.1,231.9z"/>
				<path class="st1" d="M289.4,225.1l-2.9,7.7h-1l-2.4-6.3l-2.4,6.3h-1l-2.9-7.7h1l2.4,6.5l2.5-6.5h0.9l2.5,6.5l2.4-6.5H289.4z"/>
				<path class="st1" d="M290,228.9c0-2.3,1.7-3.9,3.9-3.9c2.2,0,3.9,1.6,3.9,3.9c0,2.3-1.7,3.9-3.9,3.9
					C291.7,232.8,290,231.2,290,228.9z M296.8,228.9c0-1.8-1.2-3-2.8-3c-1.6,0-2.9,1.2-2.9,3c0,1.8,1.2,3,2.9,3
					C295.5,231.9,296.8,230.7,296.8,228.9z"/>
				<path class="st1" d="M303.8,225v1c-0.1,0-0.2,0-0.2,0c-1.6,0-2.6,1-2.6,2.8v3.9h-1v-7.7h1v1.5C301.4,225.5,302.4,225,303.8,225z
					"/>
				<path class="st1" d="M312.6,221.9v10.8h-1v-1.5c-0.6,1-1.7,1.6-3,1.6c-2.2,0-3.8-1.6-3.8-3.9s1.6-3.9,3.8-3.9
					c1.2,0,2.3,0.5,2.9,1.5v-4.6H312.6z M311.6,228.9c0-1.8-1.2-3-2.8-3c-1.6,0-2.9,1.2-2.9,3c0,1.8,1.2,3,2.9,3
					C310.3,231.9,311.6,230.7,311.6,228.9z"/>
			</g>
			<g>
				<path class="st6" d="M398.2,223.5v4h5.3v0.9h-5.3v4.3h-1.1v-10.2h7v0.9H398.2z"/>
				<path class="st6" d="M405.1,228.9c0-2.3,1.7-3.9,3.9-3.9c2.3,0,3.9,1.6,3.9,3.9c0,2.3-1.7,3.9-3.9,3.9
					C406.8,232.8,405.1,231.2,405.1,228.9z M411.9,228.9c0-1.8-1.2-3-2.8-3c-1.6,0-2.9,1.2-2.9,3c0,1.8,1.2,3,2.9,3
					C410.7,231.9,411.9,230.7,411.9,228.9z"/>
				<path class="st6" d="M418.9,225v1c-0.1,0-0.2,0-0.2,0c-1.6,0-2.6,1-2.6,2.8v3.9h-1v-7.7h1v1.5C416.5,225.5,417.5,225,418.9,225z
					"/>
				<path class="st6" d="M427.8,225.1v6.7c0,2.6-1.3,3.8-3.8,3.8c-1.4,0-2.8-0.4-3.6-1.2l0.5-0.8c0.7,0.7,1.8,1.1,3,1.1
					c1.9,0,2.8-0.9,2.8-2.8v-1c-0.6,1-1.7,1.5-3,1.5c-2.2,0-3.9-1.5-3.9-3.7c0-2.2,1.7-3.7,3.9-3.7c1.3,0,2.4,0.5,3,1.5v-1.5H427.8z
					 M426.8,228.7c0-1.7-1.2-2.8-2.9-2.8c-1.7,0-2.9,1.1-2.9,2.8c0,1.7,1.2,2.8,2.9,2.8C425.6,231.5,426.8,230.4,426.8,228.7z"/>
				<path class="st6" d="M429.9,228.9c0-2.3,1.7-3.9,3.9-3.9c2.3,0,3.9,1.6,3.9,3.9c0,2.3-1.7,3.9-3.9,3.9
					C431.6,232.8,429.9,231.2,429.9,228.9z M436.7,228.9c0-1.8-1.2-3-2.8-3c-1.6,0-2.9,1.2-2.9,3c0,1.8,1.2,3,2.9,3
					C435.5,231.9,436.7,230.7,436.7,228.9z"/>
				<path class="st6" d="M443.9,232.3c-0.4,0.4-1,0.5-1.6,0.5c-1.4,0-2.2-0.8-2.2-2.2v-4.6h-1.4v-0.9h1.4v-1.7h1v1.7h2.3v0.9h-2.3
					v4.6c0,0.9,0.5,1.4,1.3,1.4c0.4,0,0.8-0.1,1.1-0.4L443.9,232.3z"/>
				<path class="st6" d="M450.2,225.1c0-1.1-0.9-1.8-2.4-1.8c-1.2,0-2.1,0.4-2.8,1.2l-0.8-0.6c0.8-1,2-1.5,3.6-1.5
					c2,0,3.4,1,3.4,2.5c0,2.5-2.7,2.6-2.7,4.7h-1.1C447.5,227.3,450.2,227,450.2,225.1z M447.3,232.1c0-0.4,0.3-0.7,0.8-0.7
					c0.4,0,0.8,0.3,0.8,0.7c0,0.4-0.3,0.8-0.8,0.8C447.6,232.8,447.3,232.5,447.3,232.1z"/>
			</g>
			<g>
				<g>
					<path class="st1" d="M460.2,245.9c0,0,0.6,0.1,1.4-0.6c0.9-0.7,0.5-2.4,0.6-4.4c0-4.1,0-10.1-0.1-17.9c0-1.9,0-4,0-6.1
						c0-0.5,0-1.1,0-1.6c0-0.5,0.1-1.1-0.1-1.6c-0.2-0.5-0.5-0.9-1-1.2c-0.5-0.2-1.1-0.2-1.7-0.2c-4.7,0-9.8,0-15.4,0
						c-11,0-23.6,0-37.4,0c-55.5,0-132.1,0.1-216.7,0.1c-0.6,0-1.1,0.3-1.4,0.7c-0.4,0.5-0.3,1-0.3,1.7v3.9c0,2.6,0,5.2,0,7.9
						c0,5.2,0,10.4,0,15.6c0,0.6,0,1.3,0,1.9c0.1,0.5,0.5,1,0.9,1.3c0.2,0.1,0.5,0.2,0.8,0.2l1,0l1.9,0c2.6,0,5.1,0,7.6,0
						c5.1,0,10.1,0,15.1,0c20,0,39.2,0,57.5,0c36.7,0,69.7,0.1,97.4,0.1c27.7,0,50.2,0.1,65.7,0.1c7.7,0,13.8,0,17.9,0.1
						c2,0,3.6,0,4.6,0C459.6,245.9,460.2,245.9,460.2,245.9s-0.5,0-1.6,0c-1.1,0-2.6,0-4.6,0c-4.1,0-10.1,0-17.9,0.1
						c-15.5,0-38,0.1-65.7,0.1c-27.7,0-60.8,0-97.4,0.1c-18.3,0-37.6,0-57.5,0c-5,0-10,0-15.1,0c-2.5,0-5.1,0-7.6,0l-1.9,0l-1,0
						c-0.4,0-0.7-0.1-1.1-0.3c-0.7-0.3-1.2-1-1.3-1.7c-0.1-0.8,0-1.3,0-2c0-5.2,0-10.3,0-15.6c0-2.6,0-5.2,0-7.9l0-3.9
						c0-0.3,0-0.6,0-1c0.1-0.4,0.2-0.7,0.4-1.1c0.4-0.6,1.2-1,2-1c84.6,0,161.2,0.1,216.7,0.1c13.9,0,26.4,0,37.4,0
						c5.5,0,10.6,0,15.4,0c0.6,0,1.2-0.1,1.8,0.2c0.6,0.3,1,0.8,1.2,1.3c0.2,0.6,0.1,1.2,0.1,1.7c0,0.6,0,1.1,0,1.6
						c0,2.2,0,4.2,0,6.1c0,7.7,0,13.8-0.1,17.9c0,1,0,1.9,0,2.7c0.1,0.8-0.3,1.4-0.7,1.8C460.8,246.1,460.1,245.9,460.2,245.9z"/>
				</g>
			</g>
		</g>
		<g>
			<g>
				<path class="st4" d="M297.5,368.3l0.4-0.8c0.7,0.7,2,1.2,3.4,1.2c1.9,0,2.7-0.8,2.7-1.8c0-2.8-6.3-1.1-6.3-4.9
					c0-1.5,1.2-2.8,3.8-2.8c1.2,0,2.4,0.3,3.2,0.9l-0.4,0.9c-0.9-0.6-1.9-0.8-2.8-0.8c-1.9,0-2.7,0.8-2.7,1.9c0,2.8,6.3,1.1,6.3,4.8
					c0,1.5-1.2,2.8-3.8,2.8C299.8,369.6,298.3,369.1,297.5,368.3z"/>
				<path class="st4" d="M307,359.4c0-0.4,0.3-0.7,0.8-0.7c0.4,0,0.8,0.3,0.8,0.7c0,0.4-0.3,0.8-0.8,0.8
					C307.3,360.2,307,359.8,307,359.4z M307.2,361.9h1v7.7h-1V361.9z"/>
				<path class="st4" d="M318.2,365.1v4.5h-1v-4.4c0-1.6-0.8-2.5-2.3-2.5c-1.7,0-2.7,1-2.7,2.8v4h-1v-7.7h1v1.4
					c0.6-0.9,1.6-1.5,2.9-1.5C317,361.8,318.2,362.9,318.2,365.1z"/>
				<path class="st4" d="M328.2,361.9v6.7c0,2.6-1.3,3.8-3.8,3.8c-1.4,0-2.8-0.4-3.6-1.2l0.5-0.8c0.7,0.7,1.8,1.1,3,1.1
					c1.9,0,2.8-0.9,2.8-2.8v-1c-0.6,1-1.7,1.5-3,1.5c-2.2,0-3.9-1.5-3.9-3.7s1.7-3.7,3.9-3.7c1.3,0,2.4,0.5,3,1.5v-1.5H328.2z
					 M327.2,365.5c0-1.7-1.2-2.8-2.9-2.8c-1.7,0-2.9,1.1-2.9,2.8c0,1.7,1.2,2.8,2.9,2.8C326,368.3,327.2,367.2,327.2,365.5z"/>
				<path class="st4" d="M341.8,361.9v7.7h-1v-1.4c-0.5,0.9-1.5,1.5-2.8,1.5c-2,0-3.2-1.1-3.2-3.3v-4.5h1v4.4c0,1.6,0.8,2.5,2.3,2.5
					c1.6,0,2.6-1,2.6-2.8v-4H341.8z"/>
				<path class="st4" d="M352.5,365.7c0,2.3-1.6,3.9-3.8,3.9c-1.2,0-2.3-0.5-2.9-1.5v4.3h-1v-10.5h1v1.5c0.6-1,1.7-1.6,3-1.6
					C350.9,361.8,352.5,363.4,352.5,365.7z M351.5,365.7c0-1.8-1.2-3-2.9-3c-1.6,0-2.9,1.2-2.9,3c0,1.8,1.2,3,2.9,3
					C350.3,368.7,351.5,367.5,351.5,365.7z"/>
			</g>
			<g>
				<g>
					<path class="st4" d="M460.2,382.1c0,0,0.6,0.1,1.4-0.6c0.9-0.7,0.5-2.4,0.6-4.4c0-4.1,0-10.1-0.1-17.9c0-1.9,0-4,0-6.1
						c0-0.5,0-1.1,0-1.6c0-0.5,0.1-1.1-0.1-1.6c-0.2-0.5-0.5-0.9-1-1.2c-0.5-0.2-1.1-0.2-1.7-0.2c-4.7,0-9.8,0-15.4,0
						c-11,0-23.6,0-37.4,0c-55.5,0-132.1,0.1-216.7,0.1c-0.6,0-1.1,0.3-1.4,0.7c-0.4,0.5-0.3,1-0.3,1.7v3.9c0,2.6,0,5.2,0,7.9
						c0,5.2,0,10.4,0,15.6c0,0.6,0,1.3,0,1.9c0.1,0.5,0.5,1,0.9,1.3c0.2,0.1,0.5,0.2,0.8,0.2l1,0l1.9,0c2.6,0,5.1,0,7.6,0
						c5.1,0,10.1,0,15.1,0c20,0,39.2,0,57.5,0c36.7,0,69.7,0.1,97.4,0.1c27.7,0,50.2,0.1,65.7,0.1c7.7,0,13.8,0,17.9,0.1
						c2,0,3.6,0,4.6,0C459.6,382.1,460.2,382.1,460.2,382.1s-0.5,0-1.6,0c-1.1,0-2.6,0-4.6,0c-4.1,0-10.1,0-17.9,0.1
						c-15.5,0-38,0.1-65.7,0.1c-27.7,0-60.8,0-97.4,0.1c-18.3,0-37.6,0-57.5,0c-5,0-10,0-15.1,0c-2.5,0-5.1,0-7.6,0l-1.9,0l-1,0
						c-0.4,0-0.7-0.1-1.1-0.3c-0.7-0.3-1.2-1-1.3-1.7c-0.1-0.8,0-1.3,0-2c0-5.2,0-10.3,0-15.6c0-2.6,0-5.2,0-7.9l0-3.9
						c0-0.3,0-0.6,0-1c0.1-0.4,0.2-0.7,0.4-1.1c0.4-0.6,1.2-1,2-1c84.6,0,161.2,0.1,216.7,0.1c13.9,0,26.4,0,37.4,0
						c5.5,0,10.6,0,15.4,0c0.6,0,1.2-0.1,1.8,0.2c0.6,0.3,1,0.8,1.2,1.3c0.2,0.6,0.1,1.2,0.1,1.7c0,0.6,0,1.1,0,1.6
						c0,2.2,0,4.2,0,6.1c0,7.7,0,13.8-0.1,17.9c0,1,0,1.9,0,2.7c0.1,0.8-0.3,1.4-0.7,1.8C460.8,382.3,460.1,382.1,460.2,382.1z"/>
				</g>
			</g>
		</g>
		<g>
			<g>
				<path class="st6" d="M451.2,319.2H198.8c-6.1,0-11.1-5-11.1-11.1v-11.6c0-6.1,5-11.1,11.1-11.1h252.4c6.1,0,11.1,5,11.1,11.1
					v11.6C462.3,314.3,457.3,319.2,451.2,319.2z"/>
			</g>
			<g>
				<path class="st7" d="M304,296.3h1.1v9.3h5.7v0.9H304V296.3z"/>
				<path class="st7" d="M311.5,302.7c0-2.3,1.7-3.9,3.9-3.9c2.3,0,3.9,1.6,3.9,3.9c0,2.3-1.7,3.9-3.9,3.9
					C313.2,306.6,311.5,305,311.5,302.7z M318.3,302.7c0-1.8-1.2-3-2.8-3c-1.6,0-2.9,1.2-2.9,3c0,1.8,1.2,3,2.9,3
					C317.1,305.7,318.3,304.5,318.3,302.7z"/>
				<path class="st7" d="M328.6,298.9v6.7c0,2.6-1.3,3.8-3.8,3.8c-1.4,0-2.8-0.4-3.6-1.2l0.5-0.8c0.7,0.7,1.8,1.1,3,1.1
					c1.9,0,2.8-0.9,2.8-2.8v-1c-0.6,1-1.7,1.5-3,1.5c-2.2,0-3.9-1.5-3.9-3.7s1.7-3.7,3.9-3.7c1.3,0,2.4,0.5,3,1.5v-1.5H328.6z
					 M327.6,302.5c0-1.7-1.2-2.8-2.9-2.8c-1.7,0-2.9,1.1-2.9,2.8c0,1.7,1.2,2.8,2.9,2.8C326.3,305.3,327.6,304.2,327.6,302.5z"/>
				<path class="st7" d="M335.1,296.4c0-0.4,0.3-0.7,0.8-0.7c0.4,0,0.8,0.3,0.8,0.7c0,0.4-0.3,0.8-0.8,0.8
					C335.4,297.2,335.1,296.9,335.1,296.4z M335.3,298.9h1v7.7h-1V298.9z"/>
				<path class="st7" d="M346.3,302.1v4.5h-1v-4.4c0-1.6-0.8-2.5-2.3-2.5c-1.7,0-2.7,1-2.7,2.8v4h-1v-7.7h1v1.4
					c0.6-0.9,1.6-1.5,2.9-1.5C345,298.8,346.3,299.9,346.3,302.1z"/>
			</g>
		</g>
	</g>
</g>
<g id="Character">
	<g>
		<g>
			<g>
				<g>
					<g>
						<g>
							<g>
								<path class="st6" d="M44.7,509l-1.6,9.3l1.4,0.3c6.2,1.3,31.6,6.2,35.9,5.6c4.9-0.7-13.7-8-13.7-8l0.6-3.9L44.7,509z"/>
							</g>
						</g>
					</g>
					<g class="st8">
						<g>
							<g>
								<path class="st7" d="M51.3,519.4c0-1.9-0.8-3.9-2.1-5.3c-1.3-1.4-3.1-2.3-5-2.5l-1,6.3L51.3,519.4z"/>
							</g>
						</g>
					</g>
				</g>
				<g>
					<g>
						<g class="st8">
							<path class="st7" d="M75.8,520.2c0,0,6.4,3,5.4,4c-1,1-26.8-3-38.1-5.8l0.1-0.5l30.1,4.9C73.3,522.8,74.4,520,75.8,520.2z"/>
						</g>
					</g>
				</g>
				<g>
					<g>
						<g>
							<g>
								<path class="st4" d="M42.9,517.8c0,0,0.1,0,0.4,0.1c0.3,0.1,0.7,0.2,1.1,0.2c1.1,0.2,2.5,0.5,4.1,0.8
									c3.5,0.7,8.2,1.5,13.5,2.3c5.3,0.8,10.1,1.5,13.6,1.9c1.6,0.2,3,0.3,4.1,0.5c0.4,0,0.8,0.1,1.1,0.1c0.3,0,0.4,0,0.4,0
									c0,0-0.1,0-0.4-0.1c-0.3,0-0.7-0.1-1.1-0.2c-1.1-0.2-2.5-0.3-4.1-0.6c-3.5-0.5-8.3-1.1-13.6-2c-5.3-0.8-10.1-1.6-13.5-2.3
									c-1.6-0.3-3-0.5-4.1-0.7c-0.4-0.1-0.8-0.1-1.1-0.2C43,517.8,42.9,517.8,42.9,517.8z"/>
							</g>
						</g>
					</g>
				</g>
				<g>
					<g>
						<g>
							<g>
								<path class="st4" d="M73.2,523.1c0.1,0,0.3-0.9,1.1-1.8c0.8-0.9,1.7-1.3,1.6-1.4c0-0.1-1,0.2-1.9,1.2
									C73.3,522.1,73.2,523.1,73.2,523.1z"/>
							</g>
						</g>
					</g>
				</g>
				<g>
					<g>
						<g>
							<g>
								<path class="st4" d="M67.1,518.7c0.1,0.1,0.4-0.3,0.8-0.8c0.4-0.5,0.7-0.9,0.6-0.9c-0.1-0.1-0.4,0.3-0.8,0.8
									C67.3,518.2,67,518.7,67.1,518.7z"/>
							</g>
						</g>
					</g>
				</g>
				<g>
					<g>
						<g>
							<g>
								<path class="st4" d="M65.4,517.5c0,0.1,0.4-0.1,0.9-0.4c0.4-0.3,0.8-0.6,0.7-0.6c0-0.1-0.4,0.1-0.9,0.4
									C65.7,517.1,65.4,517.4,65.4,517.5z"/>
							</g>
						</g>
					</g>
				</g>
				<g>
					<g>
						<g>
							<g>
								<path class="st4" d="M64.6,515.1c0,0.1,0.5,0.2,1.2,0.3c0.7,0.1,1.2,0.1,1.2,0.1c0-0.1-0.5-0.2-1.2-0.3
									C65.1,515.1,64.6,515.1,64.6,515.1z"/>
							</g>
						</g>
					</g>
				</g>
				<g>
					<g>
						<g>
							<g>
								<path class="st4" d="M64.4,513.6c0,0.1,0.5,0.4,1.3,0.6c0.8,0.2,1.4,0.1,1.4,0c0-0.1-0.6-0.1-1.3-0.3
									C65,513.7,64.5,513.5,64.4,513.6z"/>
							</g>
						</g>
					</g>
				</g>
				<g>
					<g>
						<g>
							<g>
								<path class="st4" d="M68.2,516.9c0,0,0.5,0.2,1.5,0.2c0.5,0,1,0,1.6-0.1c0.3-0.1,0.6-0.1,0.9-0.2c0.2-0.1,0.3-0.2,0.4-0.4
									c0.1-0.2,0-0.5-0.1-0.6c-1.3-0.9-2.8-0.4-3.4,0.3c-0.3,0.3-0.5,0.7-0.6,0.9c-0.1,0.2-0.1,0.4-0.1,0.4c0,0,0.2-0.6,0.9-1.1
									c0.3-0.3,0.8-0.5,1.4-0.6c0.5-0.1,1.3,0,1.7,0.4c0.2,0.2,0.1,0.5-0.2,0.6c-0.3,0.1-0.6,0.2-0.9,0.2
									c-0.6,0.1-1.1,0.1-1.6,0.2C68.7,516.9,68.2,516.8,68.2,516.9z"/>
							</g>
						</g>
					</g>
				</g>
				<g>
					<g>
						<g>
							<g>
								<path class="st4" d="M68.5,517c0,0,0.3-0.3,0.3-1c0-0.3,0-0.7-0.2-1.1c-0.2-0.4-0.5-0.9-1.1-0.9c-0.3,0-0.6,0.3-0.6,0.6
									c0,0.3,0.1,0.5,0.1,0.7c0.2,0.4,0.4,0.7,0.6,1c0.4,0.5,0.7,0.7,0.7,0.7c0,0-0.2-0.3-0.6-0.8c-0.2-0.3-0.3-0.6-0.5-1
									c-0.2-0.3-0.2-0.9,0.2-0.9c0.4,0,0.7,0.4,0.9,0.8c0.2,0.4,0.3,0.7,0.3,1C68.7,516.6,68.5,517,68.5,517z"/>
							</g>
						</g>
					</g>
				</g>
				<g>
					<g>
						<g>
							<g>
								<path class="st4" d="M44.3,511.7c0,0.1,0.7,0,1.7,0.3c1,0.3,2.3,0.9,3.4,2.1c1.1,1.2,1.6,2.6,1.8,3.6c0.2,1,0.1,1.7,0.2,1.7
									c0,0,0.1-0.2,0.1-0.5c0-0.3,0-0.7-0.1-1.3c-0.1-1.1-0.7-2.5-1.8-3.7c-1.1-1.2-2.5-1.8-3.6-2.1c-0.5-0.1-1-0.2-1.2-0.2
									C44.4,511.6,44.3,511.7,44.3,511.7z"/>
							</g>
						</g>
					</g>
				</g>
				<g>
					<g>
						<g>
							<g>
								<path class="st4" d="M54.5,517.7c0,0.1,1.4,0.5,3.3,0.8c1.8,0.3,3.3,0.3,3.4,0.2c0-0.1-1.5-0.2-3.3-0.5
									C56,518,54.5,517.6,54.5,517.7z"/>
							</g>
						</g>
					</g>
				</g>
				<g>
					<g>
						<g>
							<g>
								<path class="st4" d="M50.1,517c-0.1,0,0.1,0.3,0.2,0.7c0.1,0.4,0.1,0.7,0.2,0.7c0.1,0,0.2-0.3,0.1-0.8
									C50.4,517.2,50.1,516.9,50.1,517z"/>
							</g>
						</g>
					</g>
				</g>
				<g>
					<g>
						<g>
							<g>
								<path class="st4" d="M48.7,514.7c-0.1,0,0,0.3,0.2,0.6c0.2,0.3,0.4,0.5,0.5,0.4c0.1,0,0-0.3-0.2-0.6
									C49,514.8,48.8,514.6,48.7,514.7z"/>
							</g>
						</g>
					</g>
				</g>
				<g>
					<g>
						<g>
							<g>
								<path class="st4" d="M46.5,513.3c0,0.1,0.3,0.1,0.6,0.3c0.3,0.2,0.5,0.4,0.6,0.3c0.1,0-0.1-0.4-0.5-0.6
									C46.8,513.2,46.5,513.3,46.5,513.3z"/>
							</g>
						</g>
					</g>
				</g>
				<g>
					<g>
						<g>
							<g>
								<path class="st4" d="M44.9,512.6c0,0.1,0.1,0.2,0.3,0.3c0.2,0.1,0.4,0.1,0.4,0.1c0-0.1-0.1-0.2-0.3-0.3
									C45.1,512.6,44.9,512.6,44.9,512.6z"/>
							</g>
						</g>
					</g>
				</g>
			</g>
		</g>
		<g>
			<g>
				<g>
					<g>
						<g>
							<g>
								<path class="st6" d="M163.8,517l0.8,9.4l1.4-0.1c6.3-0.4,32.1-2.2,36.2-4c4.5-1.9-15.3-4.1-15.3-4.1l-0.5-4L163.8,517z"/>
							</g>
						</g>
					</g>
					<g class="st8">
						<g>
							<g>
								<path class="st7" d="M172.9,525.4c-0.5-1.9-1.8-3.5-3.4-4.5c-1.7-1-3.6-1.4-5.5-1.1l0.7,6.4L172.9,525.4z"/>
							</g>
						</g>
					</g>
				</g>
				<g>
					<g>
						<g class="st8">
							<path class="st7" d="M196.7,519.7c0,0,7,1.2,6.3,2.4c-0.7,1.2-26.7,4.1-38.3,4.4l0-0.5l30.3-3.1
								C195,522.8,195.4,519.9,196.7,519.7z"/>
						</g>
					</g>
				</g>
				<g>
					<g>
						<g>
							<g>
								<path class="st4" d="M164.3,526c0,0,0.1,0,0.4,0c0.3,0,0.7,0,1.1-0.1c1.1-0.1,2.5-0.2,4.2-0.3c3.5-0.3,8.3-0.7,13.7-1.3
									c5.3-0.6,10.2-1.2,13.6-1.7c1.6-0.2,3-0.5,4.1-0.6c0.4-0.1,0.8-0.1,1.1-0.2c0.3,0,0.4-0.1,0.4-0.1c0,0-0.1,0-0.4,0
									c-0.3,0-0.7,0.1-1.1,0.1c-1.1,0.1-2.5,0.3-4.1,0.5c-3.5,0.5-8.3,1.1-13.6,1.7c-5.3,0.6-10.2,1-13.7,1.4
									c-1.6,0.1-3,0.3-4.1,0.4c-0.4,0-0.8,0.1-1.1,0.1C164.4,525.9,164.3,526,164.3,526z"/>
							</g>
						</g>
					</g>
				</g>
				<g>
					<g>
						<g>
							<g>
								<path class="st4" d="M195,523.2c0.1,0,0-1,0.6-2.1c0.5-1.1,1.3-1.7,1.2-1.7c0-0.1-1,0.5-1.5,1.6
									C194.8,522.2,195,523.2,195,523.2z"/>
							</g>
						</g>
					</g>
				</g>
				<g>
					<g>
						<g>
							<g>
								<path class="st4" d="M187.9,520.5c0.1,0,0.3-0.4,0.6-1c0.3-0.6,0.4-1,0.4-1.1c-0.1,0-0.3,0.4-0.6,1
									C188,520,187.9,520.5,187.9,520.5z"/>
							</g>
						</g>
					</g>
				</g>
				<g>
					<g>
						<g>
							<g>
								<path class="st4" d="M186,519.8c0.1,0.1,0.4-0.2,0.7-0.6c0.4-0.4,0.6-0.8,0.5-0.8c-0.1-0.1-0.4,0.2-0.7,0.6
									C186.2,519.3,185.9,519.7,186,519.8z"/>
							</g>
						</g>
					</g>
				</g>
				<g>
					<g>
						<g>
							<g>
								<path class="st4" d="M184.6,517.7c0,0.1,0.5,0.1,1.2,0c0.7-0.1,1.2-0.2,1.2-0.3c0-0.1-0.5-0.1-1.2,0
									C185.1,517.5,184.6,517.7,184.6,517.7z"/>
							</g>
						</g>
					</g>
				</g>
				<g>
					<g>
						<g>
							<g>
								<path class="st4" d="M184,516.3c0,0.1,0.6,0.3,1.4,0.2c0.8,0,1.4-0.3,1.3-0.3c0-0.1-0.6,0-1.4,0.1
									C184.6,516.3,184,516.2,184,516.3z"/>
							</g>
						</g>
					</g>
				</g>
				<g>
					<g>
						<g>
							<g>
								<path class="st4" d="M188.5,518.5c0,0,0.6,0,1.5-0.2c0.4-0.1,1-0.3,1.5-0.5c0.3-0.1,0.6-0.2,0.9-0.5
									c0.1-0.1,0.3-0.3,0.3-0.5c0-0.2-0.1-0.5-0.3-0.6c-1.5-0.6-2.8,0.4-3.2,1.2c-0.2,0.4-0.3,0.8-0.4,1c0,0.3,0,0.4,0,0.4
									c0.1,0,0-0.6,0.5-1.3c0.2-0.4,0.6-0.7,1.2-1c0.5-0.2,1.2-0.3,1.8-0.1c0.3,0.1,0.2,0.4-0.1,0.6c-0.2,0.2-0.5,0.3-0.8,0.4
									c-0.5,0.3-1,0.4-1.5,0.6C189,518.3,188.5,518.4,188.5,518.5z"/>
							</g>
						</g>
					</g>
				</g>
				<g>
					<g>
						<g>
							<g>
								<path class="st4" d="M188.9,518.5c0,0,0.2-0.4,0.1-1c-0.1-0.3-0.2-0.7-0.5-1c-0.3-0.3-0.7-0.7-1.3-0.6
									c-0.3,0.1-0.5,0.5-0.4,0.7c0.1,0.3,0.2,0.5,0.3,0.6c0.3,0.3,0.5,0.6,0.8,0.8c0.5,0.4,0.9,0.5,0.9,0.5c0,0-0.3-0.2-0.8-0.6
									c-0.2-0.2-0.5-0.5-0.7-0.8c-0.2-0.3-0.4-0.8-0.1-0.9c0.4-0.1,0.8,0.2,1,0.5c0.3,0.3,0.4,0.6,0.5,0.9
									C188.9,518.1,188.8,518.5,188.9,518.5z"/>
							</g>
						</g>
					</g>
				</g>
				<g>
					<g>
						<g>
							<g>
								<path class="st4" d="M164.1,519.7c0,0.1,0.6-0.1,1.7-0.1c1,0,2.5,0.3,3.8,1.1c1.3,0.8,2.2,2.1,2.7,3
									c0.5,0.9,0.6,1.6,0.6,1.6c0,0,0-0.2-0.1-0.5c-0.1-0.3-0.2-0.7-0.4-1.2c-0.4-1-1.3-2.3-2.7-3.1c-1.4-0.9-2.9-1.1-4-1.1
									c-0.5,0-1,0.1-1.2,0.2C164.2,519.6,164.1,519.7,164.1,519.7z"/>
							</g>
						</g>
					</g>
				</g>
				<g>
					<g>
						<g>
							<g>
								<path class="st4" d="M175.5,522.8c0,0.1,1.5,0.2,3.4,0c1.9-0.2,3.3-0.6,3.3-0.6c0-0.1-1.5,0.2-3.3,0.4
									C177,522.7,175.5,522.7,175.5,522.8z"/>
							</g>
						</g>
					</g>
				</g>
				<g>
					<g>
						<g>
							<g>
								<path class="st4" d="M171.1,523.3c0,0.1,0.2,0.3,0.3,0.6c0.2,0.3,0.3,0.6,0.4,0.6c0.1,0,0.1-0.4-0.1-0.7
									C171.4,523.4,171.1,523.2,171.1,523.3z"/>
							</g>
						</g>
					</g>
				</g>
				<g>
					<g>
						<g>
							<g>
								<path class="st4" d="M169.2,521.4c0,0.1,0.1,0.3,0.4,0.5c0.3,0.2,0.5,0.3,0.6,0.3c0-0.1-0.1-0.3-0.4-0.5
									C169.5,521.5,169.2,521.3,169.2,521.4z"/>
							</g>
						</g>
					</g>
				</g>
				<g>
					<g>
						<g>
							<g>
								<path class="st4" d="M166.6,520.7c0,0.1,0.3,0,0.7,0.1c0.3,0.1,0.6,0.2,0.7,0.2c0.1,0-0.2-0.4-0.6-0.4
									C166.9,520.5,166.6,520.6,166.6,520.7z"/>
							</g>
						</g>
					</g>
				</g>
				<g>
					<g>
						<g>
							<g>
								<path class="st4" d="M164.9,520.4c0,0.1,0.1,0.2,0.3,0.2c0.2,0.1,0.4,0,0.4,0c0-0.1-0.1-0.2-0.3-0.2
									C165.1,520.4,164.9,520.4,164.9,520.4z"/>
							</g>
						</g>
					</g>
				</g>
			</g>
		</g>
		<g>
			<path class="st4" d="M170.5,158.9c-1.8-9.7-12.6-15.1-16.7-24.1c-1.6-3.5-2.2-7.4-4-10.8c-3.8-7.3-13.6-10.8-21.2-7.7l-0.7,1
				c4.3,9.1,8.7,15.4,13,24.5c1.5,3.2,3.1,6.5,3.5,10c0.4,3.5-0.5,7.4-3.3,9.6c-2.2,1.8-5.1,2.3-7.5,3.9c-3.6,2.4-5.2,7.1-4.8,11.3
				c0.4,4.3,2.7,8.2,5.6,11.4c2.8,3.1,7.2,5.7,10.9,3.8c1.9-1,3-2.8,4.4-4.4c2.8-3.2,6.7-5.3,10.2-7.8
				C166.5,174.8,172,166.9,170.5,158.9z"/>
		</g>
		<g>
			<g>
				<g>
					<g>
						<path class="st9" d="M263.8,204c-2.4,2.2-15.7,13.4-15.7,13.4l-13.2-12c0.3-1,3.6-6.5,3.9-7.9c0.3-1.2,0.4-2.4,0.3-3.7
							c-0.1-1.5-0.4-3.5-0.8-4.5c-0.6-1.3,0.7-2.6,1.8-2c1.1,0.6,2.8,4.2,2.7,8.7c-0.1,4.6,17.8-5.9,20.4-3.3L263.8,204z"/>
					</g>
					<g>
						<path class="st9" d="M258.3,202.7"/>
					</g>
					<g>
						<path class="st6" d="M150.6,186.1l43.7,52.3l40.1-36.3l17.5,17.1c0,0-50.3,55.4-58,55c-7.7-0.4-33.8-17.6-33.8-17.6
							L150.6,186.1z"/>
					</g>
					<g>
						<g>
							<g>
								<path class="st4" d="M249.8,178.3c-0.4-0.1-0.8,0.1-0.9,0.4L237,208.7c-0.2,0.6,0,1.2,0.6,1.5l14.1,6.7
									c0.6,0.3,1.3,0,1.5-0.6l13.3-31c0.3-0.6-0.1-1.3-0.7-1.5L249.8,178.3z"/>
							</g>
							<g>
								<polygon class="st5" points="249.4,180.5 238.5,207.2 253.2,213.9 264.4,185.6 								"/>
							</g>
						</g>
					</g>
					<g>
						<g>
							<path class="st4" d="M245.1,227c-0.1,0.1-1.3-0.7-3.1-2.2c-1.8-1.5-4.3-3.6-6.9-6.1c-2.6-2.5-4.7-4.9-6.2-6.7
								c-1.5-1.8-2.3-3-2.3-3c0.1-0.1,1,1,2.6,2.7c1.6,1.7,3.8,4.1,6.4,6.6c2.6,2.5,5,4.6,6.7,6.2
								C244.1,225.9,245.2,226.9,245.1,227z"/>
						</g>
					</g>
					<g>
						<g>
							<path class="st4" d="M232.6,207.2c0.1,0.1-0.5,0.5-0.4,1.4c0,0.4,0.2,1,0.7,1.3c0.4,0.3,1.1,0.3,1.7,0
								c0.6-0.3,0.9-0.9,0.8-1.4c-0.1-0.5-0.4-1-0.8-1.2c-0.8-0.5-1.4-0.3-1.4-0.4c0,0,0.1-0.2,0.4-0.2c0.3-0.1,0.8-0.1,1.3,0.2
								c0.5,0.3,1,0.8,1.2,1.5c0.2,0.8-0.3,1.7-1.1,2.1c-0.7,0.4-1.8,0.4-2.4-0.1c-0.6-0.5-0.8-1.2-0.7-1.8c0-0.6,0.3-1,0.5-1.2
								C232.4,207.2,232.6,207.2,232.6,207.2z"/>
						</g>
					</g>
					<g>
						<g>
							<path class="st4" d="M192.6,253.6c-0.1,0-0.4-0.8-0.6-2.3c-0.3-1.4-0.4-3.5-0.1-5.7c0.3-2.2,0.8-4.2,1.4-5.5
								c0.6-1.3,1.1-2.1,1.1-2.1c0.2,0.1-1.4,3.3-1.9,7.6C192,250.1,192.8,253.6,192.6,253.6z"/>
						</g>
					</g>
					<g>
						<g>
							<path class="st4" d="M198.8,253.2c-0.1,0-0.7-0.7-1.4-2c-0.8-1.3-1.6-3.2-2.3-5.4c-0.6-2.2-0.9-4.3-0.9-5.8
								c-0.1-1.5,0.1-2.4,0.1-2.4c0.2,0,0.2,3.7,1.4,8C197,250,199,253.1,198.8,253.2z"/>
						</g>
					</g>
				</g>
				<g>
					<polygon class="st0" points="249.6,185.5 242.4,203.4 253.2,207.8 260.8,189.5 					"/>
				</g>
				<g>
					<path class="st6" d="M252,205.2l-6.8-2.8c-0.4-0.2-0.5-0.6-0.4-1l0.3-0.7c0.2-0.4,0.6-0.5,1-0.4l6.8,2.8c0.4,0.2,0.5,0.6,0.4,1
						l-0.3,0.7C252.8,205.2,252.4,205.4,252,205.2z"/>
				</g>
				<g>
					
						<rect x="249.9" y="189.9" transform="matrix(0.9359 0.3524 -0.3524 0.9359 83.4357 -77.3596)" class="st10" width="8.6" height="1.3"/>
				</g>
				<g>
					
						<rect x="247.7" y="193.7" transform="matrix(0.9359 0.3524 -0.3524 0.9359 84.8905 -76.4651)" class="st1" width="9.5" height="2.5"/>
				</g>
				<g>
					
						<rect x="246.3" y="197.4" transform="matrix(0.9359 0.3524 -0.3524 0.9359 86.0958 -75.7134)" class="st1" width="9.5" height="2.5"/>
				</g>
				<g>
					<path class="st9" d="M263.3,192.7c-2,0.3-4.5,0.5-6.6,0.9c-0.6,0.1-1.2,0.2-1.6,0.6c-0.5,0.4-0.7,1-0.5,1.5
						c0.3,0.6,1.1,0.6,1.8,0.6c1.5,0,3-0.1,4.5-0.1c-1.9,0.2-3.8,0.3-5.7,0.9c-0.8,0.3-1.8,0.8-1.8,1.7c0,0.8,0.7,1.4,1.5,1.5
						c0.8,0.1,2.4,0,2.4,0s3.1,0,3.2,0.4c-1.9,0-4.5,0.4-6.4,0.6c-0.5,0-0.8,0.8-0.9,1.3c-0.1,0.5,0.1,1.1,0.6,1.3
						c0.2,0.1,0.5,0.1,0.8,0.1c2.5-0.1,5-0.2,7.5-0.2"/>
				</g>
			</g>
			<g>
				<g>
					<path class="st6" d="M135.2,183c0,0,9.1-1.1,15.5,3.1c5.8,3.8,25.9,61.6,25.2,78.8c-0.8,17.2,1.4,47.4,4.9,59.9
						c3.5,12.5,6.2,120.6-21.6,172.1l-51.7-7.3l16.2-138.9l-1.7-126L135.2,183z"/>
				</g>
				<g class="st11">
					<path d="M132.2,183c0,0,9.1-1.1,15.5,3.1c5.8,3.8,25.9,61.6,25.2,78.8c-0.8,17.2,1.4,47.4,4.9,59.9
						c3.5,12.5,6.2,120.6-21.6,172.1l-47.3-7.3l11.7-138.9l-1.7-126L132.2,183z"/>
				</g>
			</g>
		</g>
		<g>
			<path class="st10" d="M113.2,180.3c0,0-28.4-3.1-20.8,37.6l7.3,42.8l46.5,28.1c6.3,1.7,0.9-29.2,10.4-43.5
				c3.5-5.3,3.8-9.3,3.5-11.8c0.9-9.3-6.6-15.1-7.6-24.6c-1.2-13.7-1.1-21.2-7.1-22.8L113.2,180.3"/>
		</g>
		<g>
			<g>
				<path class="st4" d="M152.9,205.7c0.1,0-0.9,2.3,0,6c0.4,1.8,1.3,3.9,2.5,6.1c1.2,2.2,2.7,4.6,3.6,7.3c2,5.6,1.4,11.1,0.2,14.7
					c-0.6,1.8-1.3,3.2-1.8,4.1c-0.5,0.9-0.9,1.4-0.9,1.4c-0.1-0.1,1.3-2,2.3-5.6c1-3.6,1.6-9-0.4-14.4c-0.9-2.7-2.4-5-3.5-7.3
					c-1.2-2.2-2-4.4-2.4-6.3c-0.4-1.9-0.3-3.5-0.1-4.5c0.1-0.5,0.2-0.9,0.3-1.2C152.8,205.8,152.9,205.7,152.9,205.7z"/>
			</g>
		</g>
		<g>
			<g>
				<g>
					<g>
						<g>
							<g>
								<path class="st9" d="M138.7,183.2c-0.7-7-1.2-14.4-1.2-14.4s8.9-2.4,9.6-14.3c0.7-11.4-2.8-31.2-2.8-31.2v-1
									c-13.5-4-29.5-3.9-37.7,7.4l0,0l6.4,56.8c0.7,6.6,7,11.2,14,10.4h0C134.1,196,139.3,189.9,138.7,183.2z"/>
							</g>
						</g>
					</g>
					<g>
						<g>
							<g>
								<g>
									<path class="st4" d="M144.2,137.7c0.1,0.8-0.5,1.5-1.3,1.7c-0.8,0.1-1.6-0.4-1.7-1.2c-0.1-0.8,0.5-1.5,1.3-1.7
										C143.4,136.4,144.1,136.9,144.2,137.7z"/>
								</g>
							</g>
						</g>
						<g>
							<g>
								<g>
									<g>
										<path class="st4" d="M144.2,136.1c-0.2,0.2-1.4-0.5-3-0.4c-1.6,0.1-2.7,1.1-2.9,0.9c-0.1-0.1,0.1-0.5,0.5-0.9
											c0.5-0.4,1.3-0.9,2.3-1c1-0.1,1.9,0.2,2.4,0.5C144.1,135.6,144.3,136,144.2,136.1z"/>
									</g>
								</g>
							</g>
						</g>
					</g>
					<g>
						<g>
							<g>
								<g>
									<path class="st4" d="M127.4,139.9c0.1,0.8-0.5,1.5-1.3,1.7c-0.8,0.1-1.6-0.4-1.7-1.2c-0.1-0.8,0.5-1.5,1.3-1.7
										C126.5,138.6,127.3,139.1,127.4,139.9z"/>
								</g>
							</g>
						</g>
						<g>
							<g>
								<g>
									<g>
										<path class="st4" d="M127.4,138.3c-0.2,0.2-1.4-0.5-3-0.4c-1.6,0.1-2.7,1.1-2.9,0.9c-0.1-0.1,0.1-0.5,0.5-0.9
											c0.5-0.4,1.3-0.9,2.3-1c1-0.1,1.9,0.2,2.4,0.5C127.2,137.9,127.4,138.2,127.4,138.3z"/>
									</g>
								</g>
							</g>
						</g>
					</g>
					<g>
						<g>
							<g>
								<g>
									<path class="st4" d="M134.4,149.8c0-0.1,1-0.4,2.6-0.7c0.4-0.1,0.8-0.2,0.8-0.5c0.1-0.3-0.1-0.7-0.4-1.2c-0.5-1-1-2-1.5-3
										c-2.1-4.3-3.7-7.9-3.6-8c0.2-0.1,2.1,3.4,4.2,7.7c0.5,1.1,1,2.1,1.5,3.1c0.2,0.5,0.5,1,0.4,1.6c-0.1,0.3-0.4,0.6-0.6,0.7
										c-0.3,0.1-0.5,0.1-0.7,0.2C135.5,149.8,134.4,149.9,134.4,149.8z"/>
								</g>
							</g>
						</g>
					</g>
					<g>
						<g>
							<g>
								<path class="st12" d="M137.4,168.9c0,0-7.9,1.3-16.2-2.7c0,0,4.6,7.7,16.3,5.4L137.4,168.9z"/>
							</g>
						</g>
					</g>
					<g>
						<g>
							<g>
								<path class="st6" d="M134.1,153.8c-0.7-0.7-1.7-1-2.7-0.8c-0.7,0.1-1.4,0.6-1.7,1.2c-0.4,0.6-0.4,1.4,0.1,1.9
									c0.5,0.6,1.4,0.6,2.2,0.3c0.8-0.3,1.4-0.9,2-1.4c0.2-0.2,0.3-0.3,0.4-0.5C134.4,154.2,134.4,153.9,134.1,153.8"/>
							</g>
						</g>
					</g>
					<g>
						<g>
							<g>
								<g>
									<path class="st4" d="M129.8,151.4c0.3,0,0.4,1.7,2.1,2.8c1.6,1.1,3.5,0.7,3.5,1c0,0.1-0.4,0.4-1.2,0.5
										c-0.8,0.1-1.9,0-2.9-0.7c-1-0.7-1.5-1.7-1.6-2.4C129.5,151.8,129.6,151.4,129.8,151.4z"/>
								</g>
							</g>
						</g>
					</g>
				</g>
			</g>
		</g>
		<g>
			<path class="st4" d="M83,343.2l-18,74.3c0,0-21.5,89-22.2,91.4l-0.7,2.8l30.3,2.3l52.5-165.1L83,343.2z"/>
		</g>
		<g>
			<path class="st4" d="M137.5,395.3c4.9,23.7,22.9,123.2,22.9,123.2l30.7-3.2l-17.5-126.8c-0.3-3.3-0.9-6.6-2-9.7l-28.7-86.1
				l-54.1-34.4c-0.5,0-8.8,22.2-7.6,37.6c0.5,6.9,3,13.5,6.9,19.2c3.4,5,8.2,12,9.3,13.6C99.2,331.2,137.5,395.3,137.5,395.3z"/>
		</g>
		<g>
			<g>
				<path class="st6" d="M76.1,288.1c-1.5,5.4-2.7,10.8-3.7,16.3c-3.5,19.9-12.2,68.4-17.9,81.2c-7.2,16.2-19,77.6-15.3,88.9
					c3.6,11.3,82.1,22.6,82.1,22.6s4.5-73.6,9-92.1c4.5-18.5,14-59.1,15.3-83c1.4-23.9,0.9-65.4-6.8-91.2
					c-7.7-25.7-25.3-52.7-25.3-52.7s-15.1,4.2-20.2,10.1c0,0-6.3,7.7-6.4,15c-0.1,7.3-3.5,42.2-5.8,62.4
					C80.5,271.4,78,281.2,76.1,288.1z"/>
			</g>
			<g>
				<g>
					<path class="st4" d="M145.7,320.7c0,0,0-0.1,0-0.4c0-0.3,0-0.6-0.1-1.1c0-1-0.1-2.4-0.2-4.1c-0.2-3.6-0.4-8.8-1.5-15.2
						c-0.6-3.2-1.4-6.6-2.8-10.1c-1.3-3.5-3.4-7-6.1-10.3c-2.6-3.3-5.7-6.6-8.7-10.1c-1.5-1.8-3-3.6-4.3-5.7c-1.3-2-2.5-4.2-3.3-6.5
						c-1.8-4.6-2.3-9.8-0.8-14.3c0.7-2.3,2.2-4.1,3.3-6c0.6-0.9,1.1-1.9,1.3-2.9c0.1-0.5,0.2-1,0.1-1.5c-0.1-0.5-0.2-1-0.5-1.4
						c-0.5-0.8-1.4-1.3-2.4-1.7c-0.9-0.4-2-0.6-2.9-1.1c-1-0.4-1.8-1.1-2.4-2c-0.6-0.9-0.9-1.8-1-2.8c-0.3-1.9-0.1-3.8,0.1-5.5
						c0.3-1.7,0.5-3.4,0.7-5c0.9-6.3,1.7-11.5,2.2-15.1c0.3-1.7,0.5-3.1,0.6-4.1c0.1-0.4,0.1-0.8,0.2-1.1c0-0.2,0.1-0.4,0.1-0.4
						s0,0.1,0,0.4c0,0.3-0.1,0.6-0.1,1.1c-0.1,1-0.3,2.4-0.5,4.1c-0.5,3.6-1.2,8.8-2,15.1c-0.2,1.6-0.4,3.3-0.7,5
						c-0.2,1.7-0.4,3.6-0.1,5.4c0.2,0.9,0.4,1.8,1,2.6c0.5,0.8,1.3,1.4,2.2,1.8c0.9,0.4,1.9,0.7,2.9,1c1,0.4,2,0.9,2.7,1.9
						c0.3,0.5,0.5,1,0.6,1.6c0.1,0.6,0,1.2-0.1,1.7c-0.3,1.1-0.8,2.1-1.4,3.1c-1.2,1.9-2.6,3.7-3.2,5.9c-1.5,4.3-0.9,9.3,0.8,13.8
						c1.7,4.6,4.6,8.5,7.5,12c3,3.5,6.1,6.8,8.7,10.2c2.6,3.4,4.7,6.9,6.1,10.5c1.4,3.6,2.2,7,2.7,10.2c1,6.4,1.1,11.6,1.3,15.2
						c0,1.8,0.1,3.2,0.1,4.2c0,0.4,0,0.8,0,1.1C145.7,320.6,145.7,320.7,145.7,320.7z"/>
				</g>
			</g>
			<g>
				<g>
					<path class="st4" d="M135.7,330.8c0,0,0.1-0.2,0.4-0.4c0.3-0.2,0.8-0.4,1.5-0.3c0.6,0.1,1.5,0.6,1.7,1.5c0.2,0.9,0,2-1,2.6
						c-1,0.6-2.1,0.3-2.8-0.3c-0.7-0.6-0.8-1.6-0.6-2.2c0.2-0.6,0.6-1,0.9-1.2c0.3-0.2,0.5-0.2,0.5-0.1c0.1,0.1-0.8,0.4-1,1.4
						c-0.1,0.5,0,1.2,0.5,1.6c0.5,0.4,1.4,0.6,2,0.2c0.6-0.4,0.9-1.3,0.7-1.9c-0.1-0.7-0.7-1.1-1.2-1.2
						C136.4,330.3,135.7,330.9,135.7,330.8z"/>
				</g>
			</g>
			<g>
				<g>
					<path class="st4" d="M127.3,374.5c0,0,0.1-0.2,0.4-0.4c0.3-0.2,0.8-0.4,1.5-0.3c0.6,0.1,1.5,0.6,1.7,1.5c0.2,0.9,0,2-1,2.6
						c-1,0.6-2.1,0.3-2.8-0.3c-0.7-0.6-0.8-1.6-0.6-2.2c0.2-0.6,0.6-1,0.9-1.2c0.3-0.2,0.5-0.2,0.5-0.1c0.1,0.1-0.8,0.4-1,1.4
						c-0.1,0.5,0,1.2,0.5,1.6c0.5,0.4,1.4,0.6,2,0.2c0.6-0.4,0.9-1.3,0.7-1.9c-0.1-0.7-0.7-1.1-1.2-1.2
						C128,374,127.3,374.6,127.3,374.5z"/>
				</g>
			</g>
			<g>
				<g>
					<g>
						<path class="st4" d="M127,319.8c0,0,0,0.1,0,0.4c0,0.3-0.1,0.7-0.1,1.2c-0.1,1.1-0.3,2.7-0.5,4.8c-0.5,4.1-1.2,10.2-2.3,17.5
							c-0.6,3.7-1.2,7.7-2.1,12c-0.5,2.2-0.9,4.4-1.8,6.6c-0.1,0.3-0.2,0.6-0.4,0.8c-0.2,0.3-0.4,0.5-0.6,0.7c-0.5,0.4-1,0.7-1.6,1
							c-1.1,0.5-2.3,0.9-3.5,1.2c-4.9,1.1-10.1,1.5-15.4,1.7c-5.4,0.2-10.9,0.2-16.7-0.2c-0.2,0-0.5,0-0.7-0.1
							c-0.3,0-0.7-0.3-0.8-0.6c-0.3-0.5-0.3-1-0.4-1.4c-0.1-0.9-0.1-1.9-0.1-2.8c0.1-1.8,0.2-3.6,0.4-5.4c0.4-3.5,1-7,1.5-10.3
							c1.1-6.7,2.4-13,3.6-18.7l0-0.2l0.2,0c12.6-1.1,22.9-3.3,30-5.2c3.6-0.9,6.4-1.8,8.2-2.4c0.9-0.3,1.7-0.5,2.2-0.7
							C126.8,319.8,127,319.8,127,319.8c0,0-0.1,0-0.2,0.1c-0.2,0.1-0.3,0.1-0.6,0.2c-0.5,0.2-1.2,0.4-2.1,0.8
							c-1.9,0.6-4.6,1.5-8.2,2.5c-7.1,2-17.5,4.3-30.1,5.5l0.3-0.2c-1.2,5.8-2.4,12-3.6,18.7c-0.6,3.3-1.1,6.8-1.5,10.3
							c-0.2,1.8-0.4,3.5-0.4,5.3c0,0.9,0,1.8,0.1,2.7c0.1,0.4,0.1,0.9,0.3,1.2c0.1,0.2,0.1,0.2,0.3,0.2c0.2,0,0.4,0.1,0.7,0.1
							c5.6,0.4,11.2,0.4,16.6,0.2c5.3-0.2,10.5-0.6,15.3-1.7c1.2-0.3,2.3-0.7,3.4-1.2c1.1-0.5,2-1.1,2.3-2.3
							c0.9-2.1,1.4-4.3,1.8-6.5c0.9-4.3,1.6-8.3,2.2-12c1.2-7.4,2-13.4,2.5-17.5c0.3-2,0.5-3.6,0.6-4.8c0.1-0.5,0.1-0.9,0.2-1.2
							C127,319.9,127,319.8,127,319.8z"/>
					</g>
				</g>
				<g>
					<g>
						<path class="st4" d="M126.2,329c0,0-0.5,0.3-1.5,0.8c-1,0.5-2.5,1.1-4.3,1.8c-3.7,1.4-8.9,2.9-14.8,3.9
							c-5.9,1-11.4,1.2-15.3,1.1c-2-0.1-3.5-0.2-4.6-0.3c-1.1-0.1-1.7-0.2-1.7-0.2c0,0,0.6,0,1.7,0c1.1,0,2.7,0.1,4.6,0.1
							c3.9,0,9.3-0.3,15.2-1.3c5.9-1,11.1-2.5,14.8-3.7c1.8-0.6,3.3-1.2,4.4-1.6C125.6,329.2,126.2,329,126.2,329z"/>
					</g>
				</g>
			</g>
		</g>
		<g>
			<g>
				<g>
					<path class="st10" d="M55,293.2c0,0,0-0.2,0.1-0.6c0.1-0.4,0.2-1,0.4-1.7c0.4-1.6,0.9-3.8,1.6-6.7c1.4-5.8,3.5-14.1,6.3-24.4
						c1.4-5.1,2.9-10.8,4.6-16.8c1.7-6,3.4-12.5,5.5-19.2c2.1-6.7,4.5-13.7,7.8-20.7c1.6-3.5,3.5-6.9,5.6-10.3
						c1.1-1.7,2.2-3.4,3.5-4.9c1.3-1.5,2.9-2.9,4.8-3.8c1.9-0.9,4.1-1.1,6.1-0.5c2,0.7,3.7,2,4.9,3.6c2.5,3.3,3.2,7.4,3.5,11.2
						c0.6,7.6,1.3,15,1.9,22c1.2,14,2.2,26.7,3.1,37.3c0.9,10.6,1.6,19.2,2,25.1c0.2,2.9,0.4,5.2,0.5,6.8c0.1,0.8,0.1,1.4,0.1,1.8
						c0,0.4,0,0.6,0,0.6s0-0.2-0.1-0.6c0-0.4-0.1-1-0.2-1.8c-0.2-1.6-0.4-3.9-0.6-6.8c-0.5-6-1.3-14.5-2.3-25.1
						c-0.9-10.6-2-23.2-3.3-37.3c-0.6-7-1.2-14.4-1.9-22c-0.4-3.8-1-7.7-3.4-10.8c-1.2-1.5-2.8-2.8-4.6-3.4
						c-1.8-0.6-3.9-0.4-5.6,0.4c-1.8,0.8-3.3,2.2-4.6,3.7c-1.3,1.5-2.4,3.1-3.4,4.8c-2.1,3.3-4,6.8-5.6,10.2
						c-3.3,6.9-5.7,13.9-7.8,20.6c-2.1,6.7-3.8,13.2-5.5,19.2c-1.7,6-3.2,11.7-4.6,16.8c-2.8,10.3-5,18.6-6.5,24.4
						c-0.7,2.9-1.3,5.1-1.7,6.6c-0.2,0.7-0.3,1.3-0.4,1.7C55,293,55,293.2,55,293.2z"/>
				</g>
			</g>
			<g>
				<g>
					<path class="st4" d="M51.8,288.9c-0.5,2-9.7,54.5-9.7,54.5l68.7,2.2l9.5-54.5L51.8,288.9z"/>
				</g>
				<g>
					<g>
						<path class="st10" d="M119.5,292.1c0,0-0.2,0.2-0.6,0.5c-0.4,0.3-1,0.7-1.9,1.2c-1.6,1-4,2.5-7,4.2c-3,1.7-6.6,3.7-10.7,5.6
							c-2.1,1-4.2,2-6.6,2.8c-2.4,0.8-5,1.2-7.7,1.1c-5.3-0.1-10.2-1.8-14.4-3.7c-4.1-2-7.5-4.5-10.2-6.6c-2.7-2.2-4.7-4.1-6.1-5.4
							c-0.7-0.7-1.2-1.2-1.6-1.6c-0.4-0.4-0.5-0.6-0.5-0.6c0,0,0.2,0.2,0.6,0.5c0.4,0.4,1,0.9,1.7,1.5c1.4,1.3,3.5,3.1,6.2,5.3
							c2.7,2.1,6.1,4.5,10.1,6.4c4.1,1.9,8.9,3.5,14.1,3.6c2.6,0.1,5.1-0.3,7.4-1.1c2.3-0.8,4.5-1.8,6.5-2.8
							c4.1-1.9,7.7-3.8,10.8-5.5c3-1.6,5.4-3,7.1-4c0.8-0.5,1.4-0.8,1.9-1.1C119.3,292.2,119.5,292.1,119.5,292.1z"/>
					</g>
				</g>
				<g>
					<g>
						<path class="st10" d="M115.3,294.5c0.2,0-1.7,11.5-4.1,25.5c-2.5,14.1-4.6,25.5-4.8,25.4c-0.2,0,1.7-11.5,4.1-25.6
							C113,305.8,115.2,294.4,115.3,294.5z"/>
					</g>
				</g>
				<g>
					<path class="st10" d="M83,305.5c-0.2,1.7-0.4,3.4-0.6,5.1c-0.1,0.5-0.1,1.1,0,1.6c0.1,0.5,0.5,1,1.1,1.1
						c0.6,0.1,1.2-0.3,1.5-0.9c0.3-0.6,0.3-1.2,0.4-1.8c0.1-1.8,0.2-3.7,0.3-5.5c-0.8,0-1.5,0-2.3,0"/>
				</g>
			</g>
		</g>
		<g>
			<g>
				<g>
					<path class="st6" d="M97.2,184.9c5.6-1.9,10.2,5.4,10.9,11.2c0.5,4.5,0.8,11.2,0.4,20.3c-1,20-10.1,39.1-10.1,39.1l57.4,8.6
						l-2.1,22.1l-72.6-7.8c-10.8-1.2-17.8-11.8-14.6-22.2c6.5-21.1,17.1-51.5,19.5-56.6C89.1,192.9,89.5,187.5,97.2,184.9z"/>
				</g>
				<g>
					<g>
						<path class="st4" d="M78.3,277.9c0,0,0.1,0,0.4,0c0.3,0,0.6,0.1,1.1,0.1c1,0.1,2.4,0.4,4.2,0.6c3.7,0.5,9,1.3,15.7,2
							c13.4,1.6,32.3,3.5,54,5.1l-0.3,0.3c0.7-7,1.4-14.4,2.1-22.1l0,0l0.3,0.4c-21.6-3.2-41.5-6.3-57.4-8.6l-0.3,0l0.1-0.3
							c3.7-11.6,6.6-21.1,8.3-27.8c0.9-3.4,1.5-6,1.8-7.8c0.2-0.9,0.3-1.6,0.4-2.1c0.1-0.5,0.2-0.7,0.2-0.7s0,0.2-0.1,0.7
							c-0.1,0.5-0.2,1.2-0.3,2.1c-0.3,1.8-0.9,4.5-1.7,7.8c-1.6,6.8-4.4,16.3-8.1,27.9l-0.2-0.3c15.9,2.4,35.9,5.3,57.5,8.5l0.3,0
							l0,0.3l0,0c-0.7,7.6-1.4,15-2.1,22.1l0,0.3l-0.3,0c-21.7-1.7-40.6-3.7-54-5.4c-6.7-0.8-12.1-1.7-15.7-2.2
							c-1.8-0.3-3.2-0.6-4.2-0.7c-0.5-0.1-0.8-0.2-1.1-0.2C78.5,278,78.3,277.9,78.3,277.9z"/>
					</g>
				</g>
				<g>
					<g>
						<path class="st4" d="M142.4,285.3c-0.2,0,0.1-5.1,0.7-11.5c0.6-6.3,1.2-11.4,1.4-11.4c0.2,0-0.1,5.1-0.7,11.5
							C143.2,280.2,142.6,285.3,142.4,285.3z"/>
					</g>
				</g>
			</g>
			<g>
				<g>
					<path class="st4" d="M149.7,266.2c0,0,0.1-0.1,0.4-0.1c0.3,0,0.7,0.2,1,0.7c0.3,0.4,0.5,1.2,0.1,1.8c-0.4,0.6-1.1,1.1-2,0.9
						c-0.9-0.2-1.4-0.9-1.5-1.6c-0.1-0.7,0.2-1.4,0.6-1.7c0.8-0.7,1.5-0.5,1.5-0.4c0,0.1-0.6,0.1-1.2,0.7c-0.3,0.3-0.5,0.8-0.3,1.3
						c0.1,0.5,0.5,1,1.1,1.1c0.5,0.1,1.1-0.2,1.4-0.6c0.3-0.4,0.2-0.9,0-1.2C150.3,266.3,149.7,266.3,149.7,266.2z"/>
				</g>
			</g>
			<g>
				<g>
					<g>
						<g>
							<polygon class="st0" points="168.2,257.7 170.8,284.9 184.1,284.9 187.3,257.7 							"/>
						</g>
					</g>
					<g>
						<g>
							<path class="st10" d="M168.2,254.2c0,0-1.1,1.1-1.2,3.6h21.6c0,0,0.4-2.2-1.2-3.6H168.2z"/>
						</g>
					</g>
					<g>
						<g>
							<polygon class="st10" points="170.6,251.7 169.9,254.4 186.2,254.5 185.1,251.7 							"/>
						</g>
					</g>
					<g>
						<g>
							<path class="st10" d="M167.9,264.5c0,0.3,1.6,13.7,1.6,13.7h16.2l1.5-13.7H167.9z"/>
						</g>
					</g>
				</g>
				<g>
					<path class="st9" d="M168.9,262.1l-0.4,4.6l15.7,0.4c0,0,0,5.3-1.6,6.9c0,0,1.6,3.2-0.2,4.9c-1.8,1.8-2.8,1.2-2.8,1.2
						s0.7,3.5-1.1,4.4c-1.8,0.9-24.6-0.5-24.6-0.5l1.4-14.7l5.1-0.5C160.6,264,165.7,261.5,168.9,262.1z"/>
				</g>
			</g>
		</g>
		<g>
			<path class="st4" d="M149.1,123.4c-0.9-2.6-2.6-5-5-6.3c-1.6-0.9-3.5-1.3-5.3-1.1c0,0,0,0,0,0l0-0.4c-1.7-3.1-5.1-3.7-8.6-3.1
				c-3.5,0.6-6.9,3.1-10,4.8c-4.2,2.2-8.2,4.8-12.2,7.3c-3.3,2.1-6.7,4.3-9,7.5c-2.4,3.4-3.4,7.7-2.6,11.8c0.8,4.4,3.6,9,1.9,13.2
				c-1.1,2.8-3.8,4.6-5.7,7c-2.8,3.8-3.1,9.4-0.2,13.2c1.8,2.5,4.7,4,7.3,5.7c4.1,2.7,7.8,6.1,12.2,8.3c4.4,2.2,10,2.9,14.1,0.1
				c4.2-2.8,5.5-8.6,4.8-13.6c-0.7-5-3.2-9.6-5.1-14.3c-2.5-6.1-4.3-12.5-5.2-19c-0.4-2.6-0.6-5.4,0.7-7.7c1.1-2.1,3.2-3.4,5.1-4.8
				c4.4-3.3,8.2-7.6,10.9-12.4c0.8,2.3,2.5,4.4,4.3,6.1c2.6,2.4,5.4,4.4,8.6,6C150.1,128.8,150,126,149.1,123.4z"/>
		</g>
	</g>
</g>
<g id="Plant">
	<g>
		<g>
			<path class="st6" d="M549.6,500.6c-0.8-3.4,1.4-6.7,3.9-9.1c2.5-2.4,5.4-4.6,6.7-7.8c2.1-5.2-0.6-12,2.9-16.3
				c2.1-2.5,5.9-3.4,7.7-6.1c1-1.4,1.3-3.2,1.7-4.9c2-8.6,6.4-16.7,12.5-23c0.4,7.7-1.4,15.5-5,22.2c-1.5,2.7-3.2,5.4-3.7,8.4
				c-0.8,5,1.9,10.1,0.7,14.9c-1.4,5.6-7.7,9.3-8,15c-0.3,4.8,3.9,9.1,3.6,14c-0.1,2.1-1.1,4-2.2,5.7c-3.8,6.2-9.3,10.5-17.7,10.3
				l-10.2,0.3L549.6,500.6z"/>
		</g>
		<g class="st11">
			<g>
				<path d="M549.6,500.6c-0.8-3.4,1.4-6.7,3.9-9.1c2.5-2.4,5.4-4.6,6.7-7.8c2.1-5.2-0.6-12,2.9-16.3c2.1-2.5,5.9-3.4,7.7-6.1
					c1-1.4,1.3-3.2,1.7-4.9c2-8.6,6.4-16.7,12.5-23c0.4,7.7-1.4,15.5-5,22.2c-1.5,2.7-3.2,5.4-3.7,8.4c-0.8,5,1.9,10.1,0.7,14.9
					c-1.4,5.6-7.7,9.3-8,15c-0.3,4.8,3.9,9.1,3.6,14c-0.1,2.1-1.1,4-2.2,5.7c-3.8,6.2-9.3,10.5-17.7,10.3l-10.2,0.3L549.6,500.6z"/>
			</g>
		</g>
		<g>
			<g>
				<g>
					<g>
						<path class="st4" d="M540.4,524.5c0,0-1,0.2-2.8-0.1c-0.9-0.1-2-0.4-3.3-0.9c-1.3-0.5-2.7-1.1-4.1-2.3
							c-0.7-0.6-1.3-1.3-1.7-2.3c-0.3-0.9-0.4-2-0.5-3.1c0-1.1,0-2.2-0.2-3.3c-0.2-1.1-0.6-2.2-1.2-3.3c-1.2-2.1-3.2-4.1-3.8-7
							c-0.7-2.8-0.2-5.9,0.3-9c0.5-3.1,1-6.4-0.2-9.6c-1.1-3.2-3.3-6.1-4.4-9.7c-1.1-3.6-0.6-7.6-0.8-11.4c-0.1-1.9-0.5-3.9-1.3-5.7
							c-0.8-1.8-2-3.5-2.8-5.4c-1.8-3.9-2.1-8.2-2.6-12.5c-0.2-2.2-0.5-4.3-0.7-6.5c-0.2-2.2-0.4-4.4-1.1-6.5
							c-0.6-2.1-1.5-4.2-2.4-6.3c-0.4-1.1-0.9-2.1-1.2-3.3c-0.2-1.2-0.2-2.3-0.3-3.5c-0.1-2.3,0-4.7,0.3-7.1c0.3-2.4,0.7-4.7,1-7.1
							c0-0.1,0-0.3,0-0.4l0.1-0.5l0.4,0.2c2.2,1.1,4,2.8,5.5,4.7c1.5,1.9,2.5,4.1,3.3,6.3c1.7,4.4,2.3,9,3.1,13.4
							c0.8,4.4,1.9,8.7,4.1,12.4c1.1,1.8,2.5,3.5,3.6,5.3c1.2,1.8,2.2,3.7,2.5,5.8c0.6,4.3-1.8,8.1-1.3,11.9
							c0.2,1.9,0.9,3.7,1.8,5.3c0.9,1.6,2,3.2,3,4.7c1,1.5,2,3.1,2.7,4.7c0.7,1.6,1.1,3.4,1.2,5.1c0.2,3.4-0.3,6.7,0,9.8
							c0.2,3.1,1.3,5.9,2.5,8.4c1.2,2.5,2.6,4.8,3.7,7c0.6,1.1,1.1,2.2,1.5,3.3c0.5,1.1,0.7,2.2,0.9,3.2c0.3,2.1,0.3,4.1,0,5.8
							c-0.5,3.5-1.8,6-3,7.4c-0.3,0.4-0.6,0.6-0.8,0.9c-0.2,0.3-0.5,0.4-0.7,0.6C540.6,524.3,540.4,524.5,540.4,524.5
							c0-0.1,0.8-0.5,2-1.9c1.1-1.4,2.4-3.9,2.8-7.4c0.2-1.7,0.2-3.7-0.1-5.8c-0.2-1-0.4-2.1-0.9-3.2c-0.4-1.1-1-2.1-1.5-3.2
							c-1.1-2.2-2.5-4.5-3.8-7c-1.2-2.5-2.4-5.4-2.6-8.6c-0.3-3.2,0.2-6.4,0-9.8c-0.1-1.7-0.5-3.4-1.2-5c-0.7-1.6-1.7-3.1-2.7-4.6
							c-1-1.5-2.1-3-3.1-4.7c-0.9-1.7-1.7-3.5-1.9-5.5c-0.5-4.1,1.9-7.9,1.3-11.9c-0.3-2-1.3-3.8-2.4-5.6c-1.2-1.7-2.5-3.4-3.7-5.3
							c-2.3-3.8-3.4-8.2-4.2-12.6c-0.8-4.4-1.4-9-3.1-13.3c-0.8-2.1-1.9-4.2-3.3-6.1c-1.4-1.9-3.2-3.4-5.2-4.5l0.5-0.3
							c0,0.1,0,0.3,0,0.4c-0.3,2.4-0.7,4.7-1,7.1c-0.3,2.3-0.4,4.7-0.3,7c0.1,1.1,0.1,2.3,0.3,3.4c0.2,1.1,0.7,2.1,1.1,3.2
							c0.9,2.1,1.8,4.2,2.4,6.4c0.7,2.2,0.9,4.5,1.1,6.7c0.2,2.2,0.5,4.4,0.7,6.5c0.5,4.3,0.8,8.6,2.5,12.3c0.9,1.9,2,3.6,2.8,5.4
							c0.9,1.9,1.2,3.9,1.3,5.9c0.2,3.9-0.3,7.8,0.7,11.3c1,3.5,3.3,6.4,4.4,9.7c1.2,3.3,0.7,6.8,0.2,9.8c-0.5,3.1-1,6.1-0.4,8.8
							c0.6,2.7,2.5,4.7,3.7,6.9c0.6,1.1,1.1,2.3,1.2,3.4c0.2,1.2,0.2,2.3,0.2,3.3c0,1.1,0.1,2.1,0.4,3c0.3,0.9,0.9,1.6,1.6,2.2
							c1.3,1.1,2.7,1.8,4,2.3c1.3,0.5,2.4,0.7,3.3,0.9c0.9,0.2,1.6,0.2,2.1,0.2C540.2,524.4,540.4,524.5,540.4,524.5z"/>
					</g>
				</g>
				<g>
					<g>
						<path class="st4" d="M508.8,403.8c0,0,0,0.1,0.1,0.3c0.1,0.2,0.1,0.5,0.2,0.9c0.2,0.8,0.4,2,0.8,3.5c0.4,1.5,1.3,3.2,2.1,5.4
							c0.8,2.1,1.6,4.5,2.4,7.3c0.8,2.7,1.4,5.8,2.1,9c0.7,3.2,1.5,6.7,3.2,10c0.8,1.7,1.8,3.4,2.5,5.2c0.8,1.8,1.2,3.9,1.4,5.9
							c0.5,4.1,1.2,8.2,2.1,12.4c2,8.4,3.9,16.4,5.6,23.7c1.8,7.3,3.4,13.8,4.7,19.3c1.3,5.5,2.4,9.9,3.1,13
							c0.3,1.5,0.6,2.7,0.8,3.5c0.1,0.4,0.1,0.7,0.2,0.9c0,0.2,0.1,0.3,0,0.3c0,0,0-0.1-0.1-0.3c-0.1-0.2-0.2-0.5-0.3-0.9
							c-0.2-0.9-0.5-2-0.9-3.5c-0.8-3.1-1.9-7.5-3.3-13c-1.4-5.5-3-12-4.9-19.3c-1.8-7.3-3.7-15.3-5.7-23.7
							c-0.9-4.2-1.7-8.4-2.1-12.4c-0.3-2-0.7-3.9-1.4-5.7c-0.7-1.8-1.6-3.5-2.5-5.2c-1.8-3.3-2.5-6.9-3.2-10.2
							c-0.7-3.3-1.3-6.3-2.1-9c-0.7-2.7-1.5-5.2-2.3-7.3c-0.7-2.1-1.6-3.8-2-5.4c-0.3-1.6-0.5-2.8-0.7-3.6c-0.1-0.4-0.1-0.7-0.2-0.9
							C508.8,404,508.8,403.9,508.8,403.8z"/>
					</g>
				</g>
			</g>
			<g>
				<g>
					<path class="st6" d="M538.6,524.5c-6.7-4-8.5-16.1-5.7-23.3c2.8-7.2,7.7-13.8,8.5-21.6c0.6-5.9-1.3-12,0.1-17.9
						c1.9-7.8,9.6-13.9,9.6-21.9c0-4.5-2.6-8.8-2.3-13.3c0.3-5.5,4.6-9.9,7.2-14.8c4.1-7.4,4.4-16.3,5.8-24.6
						c1.4-8.4,4.7-17.3,12.1-21.4c1.1,7.1,2.9,12,2.3,21.6c-0.2,3.5-4.3,10.1-4.9,17.6c-0.4,4.5-0.6,9.1-0.9,13.6
						c-0.3,4.4-0.6,8.9-2.2,13c-1.2,3.2-3.2,6-4.1,9.3c-1.7,6.1,0.5,12.8-0.9,19c-1.2,5.3-4.9,9.8-5.6,15.1
						c-1.1,7.5,3.7,15.3,1.2,22.5c-1.3,3.6-4.2,6.4-5,10.1c-0.7,2.8,0,5.9-0.6,8.7c-1,4.6-9.8,8.1-14.5,7.8"/>
				</g>
				<g>
					<g>
						<path class="st4" d="M572.1,372.8c0,0,0,0.1,0,0.4c0,0.3-0.1,0.7-0.2,1.2c-0.2,1-0.3,2.5-0.7,4.5c-0.4,2-1.4,4.2-2.2,6.8
							c-0.9,2.6-1.7,5.7-2.5,9.1c-0.8,3.4-1.4,7.2-2.1,11.3c-0.7,4-1.4,8.5-3.5,12.8c-0.9,2.1-2,4.3-2.8,6.5
							c-0.8,2.3-1.2,4.7-1.4,7.2c-0.4,5-1.1,10.3-2,15.5c-2.1,10.5-4.1,20.5-5.9,29.7c-1.9,9.1-3.7,17.3-5.1,24.2
							c-1.5,6.8-2.7,12.4-3.5,16.3c-0.4,1.9-0.7,3.4-1,4.4c-0.1,0.5-0.2,0.9-0.3,1.1c-0.1,0.3-0.1,0.4-0.1,0.4c0,0,0-0.1,0-0.4
							c0.1-0.3,0.1-0.7,0.2-1.2c0.2-1.1,0.5-2.5,0.9-4.4c0.8-3.9,1.9-9.5,3.3-16.3c1.4-6.9,3.1-15.1,5-24.2
							c1.8-9.1,3.8-19.1,5.9-29.7c1-5.3,1.7-10.4,2.1-15.5c0.2-2.5,0.6-5,1.5-7.4c0.8-2.3,1.9-4.5,2.9-6.6c2-4.2,2.8-8.5,3.5-12.6
							c0.7-4.1,1.4-7.9,2.2-11.3c0.8-3.4,1.7-6.5,2.6-9.1c0.9-2.7,1.9-4.8,2.3-6.8c0.4-1.9,0.6-3.4,0.8-4.4c0.1-0.5,0.2-0.9,0.2-1.2
							C572,372.9,572.1,372.8,572.1,372.8z"/>
					</g>
				</g>
			</g>
		</g>
	</g>
</g>
</svg>
