<?xml version="1.0" encoding="utf-8"?>
<!-- Generator: Adobe Illustrator 24.1.0, SVG Export Plug-In . SVG Version: 6.00 Build 0)  -->
<svg version="1.1" id="Calque_1" xmlns="http://www.w3.org/2000/svg" xmlns:xlink="http://www.w3.org/1999/xlink" x="0px" y="0px"
	 viewBox="0 0 500 500" style="enable-background:new 0 0 500 500;" xml:space="preserve">
<style type="text/css">
	.st0{fill:#FE4F5B;}
	.st1{fill:#1A2E35;}
	.st2{fill:#FD4F5B;}
	.st3{fill:#E0E0E0;}
	.st4{fill:#1B2E35;}
	.st5{fill:#FDBD9C;}
	.st6{fill:#395B65;}
	.st7{fill:#ECECEC;}
	.st8{fill:#32444A;}
	.st9{fill:#F8BBBF;}
	.st10{fill:#F2BBBF;}
	.st11{fill:#373B41;}
	.st12{fill:#32373E;}
	.st13{fill:#EA9771;}
	.st14{fill:#57646A;}
	.st15{fill:#FBDFE1;}
	.st16{fill:#9EA5A8;}
	.st17{fill:#365760;}
	.st18{fill:#FE525E;}
	.st19{fill:#FEE8E9;}
	.st20{fill:#BA353E;}
</style>
<g>
	<g>
		<path class="st0" d="M295.5,127.1c0.8,0.6,1.6,1,2.3,1.7c5,4.9,10,9.8,15,14.6c0.8,0.8,1.1,1.4,0.3,2.5c-2.2,3.5-4.3,7-6.5,10.5
			c-0.5,0.7-0.5,1.3,0,2.1c2.4,4.1,4.2,8.4,5.6,12.9c0.3,0.9,0.7,1.3,1.5,1.5c4.1,0.8,8.2,1.7,12.2,2.6c0.5,0.1,1,0.2,1.6,0.4
			c0,8.4,0,16.8,0,25.2c-4.2,1-8.4,2.1-12.8,3.1c-1.4,0.3-1.9,1-2.4,2.3c-1.4,4.1-3.1,8-4.8,12c-0.4,1-0.5,1.7,0.1,2.6
			c2.6,3.8,5,7.6,7.5,11.5c-5.9,6.1-11.8,12.1-17.7,18.2c-0.6-0.4-1.2-0.8-1.8-1.2c-0.1-0.1-0.2-0.1-0.3-0.2c-0.3-0.2-0.7-0.4-1-0.6
			c-0.1-0.1-0.2-0.1-0.3-0.2c-0.3-0.2-0.7-0.4-1-0.6c-0.1-0.1-0.2-0.1-0.3-0.2c-0.6-0.4-1.2-0.7-1.7-1.1c-0.1-0.1-0.2-0.1-0.3-0.2
			c-0.3-0.2-0.7-0.4-1-0.6c-0.1-0.1-0.2-0.1-0.3-0.2c-0.3-0.2-0.7-0.4-1-0.6c-0.1-0.1-0.2-0.1-0.3-0.2c-0.6-0.4-1.2-0.7-1.7-1.1
			c-0.1-0.1-0.2-0.1-0.3-0.2c-0.3-0.2-0.7-0.4-1-0.6c-0.1-0.1-0.2-0.1-0.3-0.2c-0.5,0-1-0.1-1.4,0.1c-3.5,1.5-6.9,3.1-10.4,4.7
			c-1.1,0.5-2.3,0.8-3.4,1.3c-1-0.5-1.8-1.5-3.2-0.5c-0.9-1.6-2-3-2.7-4.6c-1.5-3.3-4-5.3-7.6-6c-0.1,0-0.1,0-0.2,0
			c-2.1-0.3-4.2-0.1-6.1,0.9c-0.8,0.4-1.4,0.4-2.2-0.1c-2.2-1.3-4.5-2.8-6.8-3.9c-4.6-2.2-8.3-1.6-11.7,1.7c-2,2-4.3,3.5-7,4.3
			c-3.1,0.9-5.1,2.9-5.6,6.2c-2.2,1.4-4.4,2.8-6.6,4.3c-0.5,0.3-0.9,0.4-1.4-0.1c-5.8-5.7-11.6-11.3-17.5-17.1
			c1.2-2.1,2.4-4.1,3.6-6.1c1.3-2.1,2.6-4.2,3.8-6.3c0.2-0.3,0.1-1-0.1-1.4c-1.1-2.4-2.3-4.9-3.5-7.3c-0.1-0.1-0.1-0.2-0.2-0.2
			c-0.1-0.3-0.2-0.7-0.3-1c-0.1-0.1-0.1-0.2-0.2-0.2c-0.5-1.6-1-3.1-1.6-4.7c-0.2-0.4-0.7-0.8-1.1-0.9c-4.4-1-8.8-1.8-13.2-2.8
			c-0.3-0.1-0.7-0.6-0.7-1c-0.1-5.9-0.2-11.7-0.3-17.6c0-2.3-0.2-4.5-0.3-6.9c3.6-0.9,7.2-1.7,10.8-2.6c1-0.2,1.9-0.6,2.9-0.7
			c1.1-0.1,1.4-0.7,1.7-1.6c0.7-2.2,1.4-4.4,2.2-6.7c0.2-0.6,0.5-1.1,0.8-1.6c0-0.1,0-0.2,0-0.2c0.7-1.5,1.4-3.1,2.2-4.5
			c0.4-0.7,0.3-1.2-0.1-1.8c-2.4-3.6-4.8-7.3-7.2-11c-0.1-0.1-0.1-0.3-0.2-0.5c-0.1-0.1-0.1-0.2-0.2-0.2c0.8-1,1.6-2.2,2.5-3.1
			c2.3-2.4,4.7-4.7,7.1-7.1c2.3-2.3,4.5-4.7,6.8-7.1c0.3-0.3,0.7-0.6,1.1-1c3,1.9,6.1,3.7,9.1,5.5c1,0.6,1.9,1.6,3,2.1
			c0.5,0.2,1.3-0.2,1.9-0.3c0.1-0.1,0.2-0.1,0.3-0.2c4.4-2.5,9-4.4,13.8-5.7c1-4.8,2-9.5,3-14.3c0.1-0.3,0.5-0.6,0.9-0.6
			c1.8-0.1,3.7-0.1,5.5-0.1c6-0.1,12.1-0.2,18.1-0.3c0.7,0,1.1,0.1,1.3,1c0.9,4.3,2,8.5,3,12.7c0.2,0.8,0.6,1.2,1.5,1.5
			c4.5,1.2,8.8,3,13,5.1c0.5,0.2,1.1,0.1,1.7,0.1c0.1-0.1,0.2-0.1,0.3-0.2c0.2-0.1,0.3-0.2,0.5-0.3c0.1-0.1,0.2-0.1,0.3-0.2
			c1.6-1,3.2-2.1,4.7-3.1c0.1-0.1,0.2-0.1,0.3-0.2c0.2-0.1,0.3-0.2,0.5-0.3c0.1,0,0.2-0.1,0.2-0.1c1.1-0.7,2.2-1.4,3.2-2.1
			c0.1-0.1,0.2-0.1,0.3-0.2c0.2-0.1,0.3-0.2,0.5-0.3c0.1-0.1,0.2-0.1,0.3-0.2c0.2-0.1,0.3-0.2,0.5-0.3
			C295.3,127.2,295.4,127.1,295.5,127.1z M244.2,209.8c0,1.1,0,2.1,0,3.2c-0.1,0.6-0.2,1.2-0.2,1.8c0,0.3,0.1,0.8,0.2,0.8
			c1,0.2,2,0.6,3,0.6c3,0,5.9-0.1,8.9-0.2c1.7,0,3.3,0,5,0c0-1.2,0-2.2,0-3.2c0-1.1,0-2.2,0-3.3c0.2-0.3,0.4-0.6,0.6-1
			c2.8-1.9,5.9-3.5,8.5-5.7c6.8-5.6,9.9-12.8,8.3-21.7c-2.2-12.5-15.9-23.8-29.8-21.4c-9.4,1.6-16.5,6.3-20.2,15.3
			c-2.1,5.1-2.9,10.4-1.6,15.8c0.6,2.5,1.4,5,3,7.1c0.6,0.8,1.1,1.7,1.7,2.5c1.2,1.5,2.4,3.1,3.8,4.4c1.2,1.1,2.7,1.8,4.1,2.6
			C241.1,208.3,242.7,209,244.2,209.8z M244.2,220.6c5.6,0,11.3,0,17,0C259.9,219.9,250.1,219.8,244.2,220.6z M259.5,224
			c0-0.2,0-0.4,0-0.6c-4.5,0-9,0-13.6,0c0,0.2,0,0.4,0,0.6C250.5,224,255,224,259.5,224z M249.9,226.7c1.8,0.6,3.7,0.9,5.5,0.3
			c0-0.1,0-0.2,0-0.3C253.5,226.7,251.7,226.7,249.9,226.7z"/>
		<path class="st0" d="M100.7,45.2c6.3-0.1,12.6-0.2,18.9-0.3c0.8,0,1,0.4,1.2,1c0.8,3.2,1.6,6.4,2.3,9.6c0.2,0.7,0.5,1,1.1,1.3
			c3.5,1.3,6.9,2.7,10.3,4.1c0.4,0.1,1,0,1.3-0.2c2.7-1.7,5.4-3.5,8.1-5.4c0.8-0.5,1.3-0.5,2,0.2c3.6,3.6,7.2,7,10.8,10.6
			c0.8,0.8,2.1,1.6,2.2,2.5c0.1,0.9-1,1.9-1.5,2.8c-1.3,2.2-2.7,4.4-3.9,6.6c-0.2,0.3-0.2,0.9,0,1.2c1.9,3.3,3.4,6.7,4.5,10.3
			c0.1,0.4,0.8,0.9,1.3,1c3.2,0.7,6.5,1.4,9.8,2.1c0.7,0.1,0.9,0.6,0.9,1.2c0,4.9,0.1,9.8,0.1,14.7c0,1,0,1.9,0.1,2.9
			c0.1,0.9-0.3,1.2-1.1,1.3c-3.2,0.7-6.3,1.5-9.5,2.3c-0.7,0.2-1,0.4-1.3,1.2c-1.2,3.4-2.5,6.7-4,10c-0.4,0.9-0.2,1.4,0.2,2
			c1.8,2.7,3.5,5.4,5.3,8.1c0.4,0.6,0.3,1-0.2,1.5c-3.2,3.3-6.5,6.6-9.7,9.9c-0.9,1-1.9,1.9-2.7,2.9c-0.5,0.6-1,0.6-1.6,0.2
			c-2.7-1.6-5.3-3.2-8-4.9c-0.8-0.5-1.4-0.6-2.4-0.1c-3.1,1.5-6.2,2.8-9.4,4c-0.8,0.3-1.2,0.7-1.4,1.6c-0.6,3.3-1.3,6.5-2,9.8
			c-0.1,0.3-0.8,0.7-1.2,0.7c-4.5,0.1-9,0.1-13.5,0.1c-1.4,0-2.7,0-4.1,0.1c-0.8,0-1.2-0.2-1.3-1c-0.7-3.2-1.5-6.4-2.3-9.6
			c-0.1-0.4-0.5-0.9-0.9-1c-3.7-1.1-7.3-2.3-10.7-4.2c-0.3-0.2-1,0-1.4,0.2c-2.7,1.7-5.4,3.5-8.1,5.3c-0.9,0.6-1.3,0.5-2-0.2
			c-2.2-2.3-4.4-4.5-6.7-6.7c-2.1-2-4.3-4-6.5-6.1c2.1-3.5,4.2-6.8,6.2-10.2c-1.9-3.6-3.8-7.1-4.8-11.1c-0.1-0.3-0.6-0.6-0.9-0.7
			c-3.2-0.7-6.5-1.4-9.7-2.1c-0.4-0.1-0.7-0.3-1-0.4c-0.1-6.5-0.3-13-0.4-19.6c3.5-0.9,7.1-1.7,10.6-2.6c0.7-0.2,0.9-0.4,1.2-1.1
			c1.2-3.4,2.6-6.7,4-10.1c0.3-0.7,0.3-1.1-0.1-1.8c-1.8-2.6-3.5-5.3-5.3-8c-0.4-0.6-0.6-1,0.1-1.7c2.6-2.6,5.1-5.2,7.6-7.9
			c1.5-1.6,3-3.2,4.5-4.8c0.6-0.7,1.1-0.7,1.9-0.3c2.8,1.7,5.6,3.4,8.3,5.1c0.6,0.3,0.9,0.3,1.5,0c3.3-1.5,6.6-2.9,10-4.2
			c0.8-0.3,1.2-0.7,1.3-1.4c0.6-2.9,1.2-5.7,1.8-8.6C100.4,46.6,100.5,46,100.7,45.2z M118.5,110.7c-0.1-0.1-0.2-0.2-0.3-0.2
			c0.1-0.3,0-0.7,0.2-0.9c0.5-0.7,1-1.4,1.6-2c2.5-3.3,3.3-7.1,3.1-11.1c-0.3,1.8-0.4,3.8-0.9,5.5c-0.6,1.8-1.6,3.5-2.4,5.3
			c-0.2,0.2-0.3,0.4-0.5,0.6c-4.9,6-12.6,8.1-19.5,5.2c-6.9-2.8-10.9-9.6-10.3-17.3c0.6-6.4,5.3-12.1,11.6-14.1
			c6.2-2,13.6,0.1,17.6,5.1c1.4,1.7,2.4,3.7,3.6,5.6c-0.1-0.4-0.2-0.9-0.4-1.3c-3.3-8.2-12.5-12.6-20.9-10
			c-8.7,2.7-13.9,11.6-11.9,20.3c2.9,12.7,17.8,17.8,27.9,9.6c0.3-0.2,0.8-0.2,1.1-0.3c0.1,0.1,0.2,0.2,0.2,0.3
			c0.1,0.1,0.1,0.2,0.2,0.3c4.7,4.7,9.3,9.4,14,14c0.1,0.1,0.2,0.1,0.3,0.2c0.1,0.1,0.2,0.2,0.3,0.2c0.1,0,0.2,0.1,0.2,0.1
			c0-0.1-0.1-0.1-0.1-0.2c-0.1-0.1-0.2-0.2-0.2-0.3c-0.1-0.1-0.2-0.2-0.2-0.3c-0.1-0.2-0.3-0.4-0.4-0.6c-3.4-3.4-6.7-6.8-10.1-10.2
			c-1.1-1.1-2.3-2.1-3.5-3.2C118.7,110.9,118.6,110.8,118.5,110.7z"/>
		<path class="st1" d="M254.8,428.3c0.4,0.1,0.8,0.3,1.2,0.4c2.3,0.9,4.5,1.8,6.8,2.6c4.6,1.7,9.3,3.4,13.9,5.1
			c0.4,0.2,0.8,0.3,1.3,0.5c3.3,1.3,6.6,2.5,9.9,3.8c0,0.2,0,0.3-0.1,0.5c-0.1,0.5-0.3,1-0.4,1.5c-1.1,3.7-2.2,7.4-3.3,11.2
			c-0.5,1.9-1.1,3.8-1.6,5.6c1.5,0,2.8,0,4.1,0c0,0.1,0,0.1,0,0.2c0,0,0.1,0,0.1,0c0,0-0.1-0.1-0.1-0.1c-0.2-0.5-0.4-1-0.6-1.5
			c-0.4-1.4-0.2-2.6,0.5-3.8c0.2-0.3,0.7-0.6,1.1-0.6c0.3,0,0.8,0.5,0.8,0.8c0,1.8-0.2,3.6-0.3,5.3c-0.2,0-0.3,0-0.5,0
			c0-1.8,0-3.6,0-5.4c-0.1,0-0.3,0-0.4-0.1c-0.2,0.6-0.7,1.2-0.7,1.8c0.1,1.2,0.4,2.5,0.7,3.7c0.1,0.4,0.7,0.9-0.3,0.8
			c-2.2-0.8-3.3-0.5-4.4,1.2c1.5-0.2,2.7-0.5,4-0.6c0.3-0.1,0.7,0,1-0.1c-1.8,1.1-3.6,1.7-5.7,0.8c-0.2,0.7-0.5,1.4-0.7,2.1
			c-7.6-1.9-15.1-3.8-22.7-5.8c-12.7-3.2-25.4-6.5-38.1-9.7c0-15.6,0-31.2,0-46.8c0.5,0,0.9-0.1,1.4-0.1c5.7-0.5,11.5-1,17.2-1.4
			c1,0.3,2,0.6,2.9,1c11.5,4.7,23,9.4,34.6,14.2c0.2,0.1,0.5,0.1,0.7,0.2c-0.3-0.4-0.6-0.5-0.9-0.7c-2.8-1.2-5.6-2.3-8.4-3.5
			c-7.8-3.2-15.5-6.5-23.3-9.7c-7.2-3-14.4-6.1-21.6-8.9c-1.9-0.8-3.2-1.8-3.6-3.9c-0.1-0.4-0.3-0.8-0.5-1.2c-1.1-2-2.1-4-3.2-6
			c-0.1-0.2-0.2-0.3-0.3-0.5c0,0-0.1,0-0.1-0.1c0,0,0.1,0,0.1,0c0.1,0.2,0.2,0.3,0.2,0.5c0.7,1.6,1.2,3.4,2,4.9
			c1.6,3.1,2.3,6.2,2.3,9.8c-0.1,18.9-0.1,37.7,0,56.6c0,0.5,0.2,0.9,0.2,1.4c0,1,0,1.9,0,3c-0.8,0-1.4,0-2.1,0
			c-0.2-0.1-0.5-0.1-0.7-0.1c-4-0.1-8-0.2-12.1-0.3c-1.9,0-3.9,0-5.9,0c0.2,0.6,0.4,1,0.6,1.5c0.1,0.7,0.2,1.4,0.2,2
			c1.2-0.5,2.4-1,3.6-1.4c0.4-0.1,0.9,0.3,1.4,0.5c-0.2,0.4-0.3,1-0.6,1.2c-1.2,0.5-2.4,0.9-3.6,1.2c-0.2,0.1-0.5-0.2-0.7-0.3
			c1.6-0.1,3-0.7,4.1-1.8c-1.6,0.1-3.1,0.4-4.1,1.9c-0.3,0.2-0.6,0.5-0.9,0.7c0-0.1-0.1-0.2-0.1-0.4c-1.7-1.2-2.5-2.9-2.1-5.1
			c-0.7,0-1.4,0-2.2,0c-0.1-0.8-0.3-1.6-0.4-2.3c-0.1-2.4-0.1-4.9-0.2-7.3c-0.2-3.5-0.4-6.9-0.5-10.4c-0.2-2.9-0.3-5.8-0.5-8.7
			c-0.2-3.4-0.4-6.8-0.5-10.2c-0.2-3-0.3-6-0.5-9c-0.2-3.5-0.4-6.9-0.5-10.4c-0.2-2.9-0.3-5.7-0.5-8.6c-0.2-3.4-0.2-6.9-0.6-10.3
			c-0.3-2.6-0.2-5.2,0.3-7.8c0.7-3.2,2-6.1,4.1-8.7c0.6-0.7,1.3-1.4,1.9-2.1c4.1-1.5,8.2-3,12.3-4.5c0.3,0.2,0.6,0.4,0.9,0.5
			c17.4,7.9,34.8,15.9,52.2,23.8c6.1,2.8,11.8,1.9,16.9-2.5c1,0,2,0,3,0c2.7,0,5.4,0,8.1,0.1c2,0.5,3.9,0.9,5.9,1.4
			c3.3,0.7,6.7,1.4,10,2.1c0.4,0.3,0.8,0.5,1.2,0.8c0.2,0.5,0.3,1,0.5,1.5c0.4,1.4,0.8,2.9,1.2,4.3c0.1,0.2,0.1,0.5,0.2,0.7
			c0.1,0.6,0.3,1.2,0.4,1.8c0.1,0.6,0.2,1.2,0.3,1.7c0,0.2,0,0.4,0.1,0.5c0.3,3.7,0.4,7.3-0.4,10.9c-1.3,4.8-4,8.5-7.9,11.5
			c-0.2,0.2-0.5,0.3-0.7,0.5c-1.3,0.6-2.5,1.3-3.8,1.9c-0.2,0.1-0.5,0.2-0.7,0.3c-2.6,0.7-5.2,1.2-7.9,0.8c-0.9-0.1-1.7-0.5-2.6-0.4
			c-2.3,0.3-4.7,0.7-7,1c-1.6,0.2-3.2,0.4-4.8,0.6c-3.6,0.5-7.2,1-10.8,1.5c-1.1,0.2-2.2,0.3-3.2,0.5c-4,0.5-8,1.1-12,1.6
			c-1.2,0.2-2.4,0.3-3.5,0.5c0,0.1,0,0.2,0,0.3C248.1,425.9,251.4,427.1,254.8,428.3z M243.8,424.2c0,0,0.1,0.1,0.1,0.1
			C243.8,424.3,243.8,424.3,243.8,424.2C243.8,424.3,243.8,424.3,243.8,424.2c-0.2-0.1-0.3-0.2-0.5-0.3c-0.3-0.4-0.5-1-0.9-1.2
			c-2.1-1.2-4.2-2.4-6.3-3.4c-0.7-0.3-1.5-0.4-2.2-0.6c1.9,1,3.7,1.9,5.6,2.9c1.3,0.7,2.6,1.6,3.9,2.4
			C243.4,424.1,243.6,424.2,243.8,424.2z M199.5,461.5c0-1.9,0.1-3.5-1.3-4.9C197.5,458.4,197.9,459.9,199.5,461.5z M278,415.5
			c0,0.1-0.1,0.2-0.1,0.3c0.4,0.2,0.8,0.3,1.2,0.5c0-0.1,0.1-0.2,0.1-0.3C278.8,415.8,278.4,415.6,278,415.5z M279.7,416.3
			c0,0.1,0,0.2-0.1,0.3c0.1,0,0.3,0.1,0.4,0.1c0,0,0.1-0.2,0-0.2C280,416.3,279.9,416.3,279.7,416.3z"/>
		<path class="st0" d="M418.2,254.5c-0.1,0.4-0.2,0.8-0.3,1.2c-0.2,1.1-0.5,2.1-0.7,3.2c-1,0.1-2,0.2-3,0.2c-1.2,0-2.5,0.1-3.7,0.1
			c-2.9,0.1-5.9,0.1-8.8,0.2c-0.7,0-1-0.1-1.2-0.9c-0.6-2.6-1.2-5.1-2-7.6c-0.1-0.5-0.7-1-1.2-1.2c-2.7-1.1-5.4-2-8.1-3.1
			c-0.8-0.3-1.3-0.3-2,0.1c-2.1,1.5-4.2,2.9-6.3,4.3c-0.3,0.2-1,0.3-1.3,0.1c-1-0.7-1.8-1.5-2.7-2.3c-1.6-1.5-3.2-3-4.8-4.5
			c0,0-0.1-0.1-0.1-0.1c-0.6-0.6-1.2-1.3-1.8-1.9c0,0,0-0.1-0.1-0.1c-2.2-1.4-2.3-1.7-0.9-3.8c1.2-1.9,2.3-3.9,3.4-5.8
			c0.2-0.4,0.2-1,0.1-1.3c-1.1-2.6-2.4-5.2-3.5-7.8c-0.4-1-1-1.4-2-1.6c-2.5-0.4-4.9-1-7.4-1.4c-0.8-0.1-0.9-0.5-0.9-1.1
			c0-1.8,0-3.7,0-5.5c-0.1-2.9-0.1-5.8-0.3-8.7c-0.1-1,0.2-1.5,1.2-1.7c2.4-0.5,4.7-1.2,7.1-1.8c0.9-0.2,1.2-0.7,1.5-1.6
			c0.9-2.6,1.8-5.1,2.9-7.6c0.3-0.8,0.4-1.3-0.1-2c-1.5-2.1-2.8-4.3-4.3-6.4c-0.5-0.7-0.5-1.1,0.1-1.6c1.8-1.8,3.5-3.6,5.3-5.4
			c1.6-1.7,3.1-3.5,4.8-5.2c0.3-0.3,1.1-0.3,1.5-0.1c2.1,1.2,4.2,2.4,6.3,3.7c0.9,0.6,1.5,0.6,2.5,0.1c2.4-1.3,5-2.3,7.6-3.3
			c0.6-0.2,1-0.4,1.1-1.2c0.4-2.5,0.9-4.9,1.4-7.4c0.1-0.4,0.3-0.9,0.4-1.3c0.4,0,0.7-0.1,1.1-0.1c4.3-0.1,8.6-0.2,13-0.3
			c0.8,0,1.8-0.2,2.3,0.2c0.5,0.4,0.5,1.4,0.7,2.2c0.5,2.1,1,4.2,1.6,6.2c0.1,0.4,0.6,0.8,1,1c2.8,1.1,5.6,2.2,8.4,3.2
			c0.4,0.1,0.9,0.1,1.3-0.1c2.3-1.5,4.5-3,6.8-4.5c0.3-0.2,1.1-0.2,1.4,0c3.8,3.5,7.6,7.1,11.4,10.8c-1.4,2.3-2.7,4.7-4.1,6.9
			c-0.7,1.1-0.7,1.8-0.1,3c1.3,2.4,2.3,5,3.4,7.6c0.2,0.4,0.6,0.8,1,0.8c3,0.6,5.9,1.2,9.1,1.9c0,1.1,0,2.1,0,3.2c0,0.2,0,0.3,0,0.5
			c0.1,2.4,0.2,4.8,0.2,7.3c0,1.5,0,2.9,0.1,4.3c0.1,0.8-0.3,1.2-1,1.4c-2.1,0.5-4.2,1.2-6.4,1.6c-1.8,0.3-2.6,1.2-2.7,3
			c-0.1,0.4-0.3,0.8-0.4,1.2c-0.7,1.7-1.4,3.5-2.2,5.1c-0.5,1-0.4,1.6,0.2,2.5c1.6,2.3,3.2,4.6,4.7,7c-3.6,3.9-7.1,7.6-10.7,11.3
			c-0.2,0.2-0.9,0.3-1.2,0.2c-0.8-0.3-1.6-0.8-2.4-1.3c-0.2-0.1-0.3-0.2-0.5-0.3c-1.5-0.9-3-1.8-4.5-2.7c-0.3-0.1-0.7-0.1-1,0
			c-1.7,0.8-3.4,1.7-5.1,2.6c-0.3,0.1-0.6,0.3-1,0.4c-0.8,0.3-1.7,0.5-2.4,0.8c-0.3,0.1-0.7,0.5-0.8,0.8
			C418.7,251.4,418.5,253,418.2,254.5z M394.7,216.5c-0.2,0.2-0.4,0.3-0.6,0.5c0.1,0.1,0.1,0.1,0.2,0.2c0.2-0.2,0.4-0.3,0.6-0.5
			c0.1-0.1,0.3-0.2,0.4-0.4c2.5-2,4.9-3.9,7.4-6c1.7,1.6,3.4,3.1,5.1,4.7c1.3-1.1,2.5-2.1,3.8-3.2c3.5-3,7-6.1,10.4-9.1
			c0.4-0.3,0.7-0.6,1.1-0.9c0.2-0.2,0.5-0.4,0.7-0.6c0.2-0.1,0.4-0.2,0.9-0.4c0,2.7,0,5.1,0,7.6c0.1,0,0.3,0,0.4,0
			c0-2.9,0-5.8,0-8.6c-3.2,0-6.4,0-9.6,0c0,0.1,0,0.3,0,0.4c2.9,0,5.9,0,9.1,0c-0.5,0.5-0.8,0.7-1,0.9c-0.2,0.2-0.5,0.4-0.7,0.6
			c-0.4,0.3-0.7,0.6-1.1,0.9c-2.9,2.4-5.8,4.8-8.8,7.2c-1.7,1.4-3.5,2.9-5.2,4.4c-1.8-1.6-3.5-3.1-5.2-4.7c-2.6,2.3-5.1,4.4-7.6,6.6
			C395,216.2,394.8,216.3,394.7,216.5z M424.2,228.5c1.7,0,3.4,0,5.1,0c0-0.1,0-0.3,0-0.4c-1.8,0-3.7,0-5.5,0c-2,0-4,0-6,0
			c-9.6,0-19.2,0-29,0c0-0.9,0-1.6,0-2.3c0-7.7,0-15.5-0.1-23.2c0-2.2,0-4.3,0-6.5c0-1.5,0-3.1,0-4.6c-0.1,0-0.2,0-0.4,0
			c0,1.5,0,3,0,4.6c0,2.2,0,4.3,0,6.5c0,0.4,0,0.7-0.1,1.1c0,7.5,0,14.9,0,22.4c0,0.8,0,1.6,0,2.5c0.6,0,1.1,0,1.5,0
			c5.1,0,10.2,0,15.4,0c4.2,0,8.4,0,12.6,0C419.9,228.5,422.1,228.5,424.2,228.5z"/>
		<path class="st2" d="M279.2,378.2c-5.1,4.4-10.8,5.3-16.9,2.5c-17.4-7.9-34.8-15.8-52.2-23.8c-0.3-0.1-0.6-0.3-0.9-0.5
			c0.4-0.7,0.8-1.5,1.3-2.2c0.2-0.3,0.3-0.7,0.5-1l0,0c0.1-0.1,0.2-0.2,0.3-0.3c0,0,0,0,0,0c0.3-0.6,0.7-1.2,1-1.8l0,0
			c1.2-1.9,2.3-3.9,3.5-5.8c0.2-0.4,0.7-0.7,1-1c3.5,1,7,2.1,10.5,3.1c0,0.1,0,0.1,0,0.2c-4.5,2.4-8.2,9.4-6.8,13
			c0.1-5.3,2.8-9.2,6.6-12.5c0.1-0.1,0.1-0.3,0.2-0.5c0.1,0,0.3,0,0.4-0.1c7.3,2.1,14.6,4.1,21.9,6.2c0,0.1-0.1,0.2-0.1,0.4
			c-0.1,0.2-0.3,0.3-0.4,0.5c-2.2,3.7-3.5,7.7-4,11.9c-0.2,1.8-0.2,3.6-0.3,5.3c0.1,0,0.3,0,0.4,0c0-0.4,0.1-0.8,0.1-1.2
			c0.5-3.2,0.9-6.4,1.7-9.5c0.6-2.4,1.8-4.6,2.7-7c0.1-0.1,0.1-0.2,0.2-0.4c2.6,0.7,5.2,1.4,8,2.1c-0.8-3.5-1.6-6.9-2.4-10.2
			c8.1,1.8,17.7-0.4,21.2-3c-0.5,0.1-0.8,0.2-1,0.3c-3.9,1.5-8,2.5-12.2,2.6c-2.6,0.1-5.3-0.1-7.9-0.1c-0.6-2.4-1.2-4.8-1.8-7.3
			c-1-4.2-2.1-8.4-3.1-12.6c-0.1,0-0.2,0-0.3,0.1c0.8,3.7,1.7,7.4,2.5,11c-4.9,0.7-9.8,0.5-14.4-1.5c-2.2-1-4.3-2.3-6.4-3.5
			c0,0,0,0,0,0c-0.2-0.1-0.4-0.2-0.5-0.3l0,0c0-0.1,0-0.2,0-0.3c0.7-4.5,1.4-9.1,2.1-13.6c0.1,0,0.1,0,0.2,0.1
			c0.3,0.2,0.5,0.4,0.8,0.6c4.1,2,8.4,3.1,13,3.1c0.4,0,0.7,0,1.1-0.1c-0.2-0.3-0.4-0.3-0.6-0.3c-4.1-0.3-8.1-1.2-12-2.6
			c-0.7-0.3-1.5-0.4-2.2-0.7c0-0.1-0.1-0.2-0.1-0.3c0.8-5.4,0.9-11.5,0.5-12.2c-0.4,4.4-0.9,9.3-1.4,14.2c0,0.3-0.3,0.6-0.4,0.9
			c0.1-1,0.2-2.1,0.3-3.1c-3-1.3-6-2.6-9-3.8c-0.1-0.5-0.1-1.1-0.2-1.6c-0.8-3.1-0.9-6.2-0.6-9.4c0.5-4.7,2.2-9.1,3.7-13.5
			c0.1-0.3,0.1-0.5,0.2-0.8c-1,1.7-1.7,3.4-2.3,5.2c-1.8,4.9-3,9.9-2.2,15.1c0.2,1.7,0.8,3.3,1.2,4.9c-4.9-2-9.8-4-14.7-6
			c-2.6-1.1-5.2-2.1-7.7-3.3c-2.9-1.4-5-3.7-6.5-6.5c-1.3-2.5-2.3-5.2-3.4-7.8c-1.5-3.4-2.9-6.9-4.4-10.4c-1.4-3.4-2.9-6.9-4.3-10.3
			c-0.9-2.2-1.9-4.5-2.9-6.7c-1.4-3.2-2.7-6.4-4.1-9.6c-0.1-0.2-0.2-0.4-0.3-0.6c0.7-0.4,1.4-0.8,2-1.2c0.2-0.1,0.5-0.1,0.7-0.2
			c2.8-1.4,5.7-2.7,8.5-4.1c0.5-0.2,1.1-0.4,1.8-0.7c2,2.9,4,5.8,6,8.7c-1.3-0.1-2.7-0.3-4-0.2c-4.2,0.2-8.1,1.4-11.4,4.1
			c-0.1,0.1-0.2,0.2-0.3,0.3c0.1,0,0.3-0.1,0.4-0.1c1-0.5,2.1-1.1,3.1-1.6c3.9-1.9,8.1-2.4,12.4-2.1c3,4.3,6.1,8.6,9.1,12.9
			c0.1,0.1,0.1,0.4,0.1,0.6c-0.5,0-0.9,0-1.4,0c-5.4,0.9-9.8,3.6-13.5,7.4c-0.6,0.6-1.1,1.3-1.7,2c0.2,0.1,0.3,0.1,0.3,0.1
			c0.1-0.1,0.3-0.2,0.4-0.3c4.2-4.5,9.2-7.7,15.4-8.9c0.2,0,0.3-0.2,0.5-0.3c0.2,0.2,0.5,0.4,0.7,0.6c2.9,4.1,5.8,8.2,8.6,12.3
			c0.1,0.1,0.1,0.3,0.2,0.4c-2.3,0.6-4.3,1.8-5.8,3.8c0,0.1,0,0.1-0.1,0.2c0-0.1,0-0.1,0-0.2c1.2-0.8,2.5-1.5,3.7-2.3
			c0.7-0.5,1.4-1,2.1-1.4c4,1.4,8,2.8,11.9,4.1c1.7,0.6,3.5,1.1,5.3,1.7c0,0,0,0,0,0c0.2,0.1,0.3,0.3,0.5,0.4c2.4,1,4.7,2.1,7.1,3
			c0.9,0.3,1.2,0.6,1.2,1.5c0,5.6,0,11.2,0,16.8c0,0.4,0,0.9,0,1.4c1.2-0.7,2.2-1.3,3.2-2c0.1-0.1,0.2-0.3,0.3-0.4l0,0
			c0.2-0.1,0.3-0.2,0.5-0.3l0,0c2.1-1.5,4.2-2.9,6.2-4.5c2.7-2.2,5.2-4.5,7.8-6.7l0,0c0.1-0.1,0.2-0.3,0.3-0.4c0,0,0.1-0.1,0.1-0.1
			c0.1-0.1,0.3-0.3,0.4-0.4c1.1-0.7,1.6-1.6,1.3-2.9c-0.1-0.3,0.1-0.7,0.2-1c2.4,1.6,4.9,2.9,7,4.8c4.5,4.1,8,9,10.8,14.4
			c0.1,0.2-0.1,0.7-0.1,1c-2,0.8-4,1.6-6,2.4c2.3-0.2,4.4-0.9,6.2-2.3c0.3,0.3,0.8,0.4,1,0.8c1.3,3.4,2.6,6.8,3.9,10.2
			c0,0.2,0.1,0.3,0.1,0.5c0.2,0.7,0.4,1.4,0.6,2.1c0.5,2,1.1,3.9,1.6,5.9c-2.6,0.9-5.1,1.9-7.7,2.8c-0.6-1.4-1.3-2.8-1.7-4.2
			c-0.6-1.7-1-3.5-1.4-5.3c-0.4-1.7-0.8-3.4-1.3-5.1c-0.1,0-0.2,0-0.2,0.1c0.4,1.7,0.7,3.5,1.1,5.2c-7.2-1.7-14.3-1.5-21.3,0.8
			c0.5,0.1,1,0,1.4-0.1c3.5-0.4,7-1,10.5-1.1c3.2-0.1,6.4,0.4,9.6,0.7c2.9,11.6,5.8,23.1,8.5,34.8c0.6,2.8,0.9,5.7,0.8,8.5
			c0,1.9-0.8,3.8-1.3,5.8l0,0c-0.1,0.1-0.2,0.2-0.3,0.3l0,0c0,0.2,0,0.4,0,0.6C280,376.4,279.1,376.9,279.2,378.2z M258.6,356.9
			c0-0.2-0.1-0.3-0.1-0.5c-0.1,0.1-0.2,0.2-0.3,0.3c0.1,0.1,0.2,0.2,0.3,0.3c0.2,0.3,0.5,0.7,0.7,1c0.1,0.1,0.1,0.2,0.2,0.3
			c5.4,6.9,12.3,11.6,20.7,14c0.3,0.1,0.6,0.1,1,0.1c-3.6-1.6-7.1-3.2-10.4-5.1c-4.4-2.5-7.9-5.9-11.2-9.6
			C259.2,357.5,258.9,357.2,258.6,356.9z M255.8,300c-0.2-0.1-0.4-0.3-0.6-0.4c0,0-0.1,0.1-0.1,0.1c0.2,0.2,0.3,0.3,0.5,0.5
			c2.4,2.8,3.8,6,4.2,9.7C260.2,306,258.5,302,255.8,300z M213.1,284.1c-0.2,0.1-0.5,0.3-0.7,0.5c-4.7,3.6-8.3,8.2-10.6,13.6
			c-0.7,1.6-1.2,3.4-1.8,5c0.1,0,0.2,0.1,0.4,0.1c0.1-0.4,0.2-0.8,0.4-1.1c1.6-3.1,3-6.4,4.8-9.4c2-3.4,4.9-6,7.8-8.5
			c0-0.1,0.1-0.2,0.1-0.2C213.3,284.1,213.2,284.1,213.1,284.1z M265.7,312.4c-2.4-2.3-8.9-2.5-10.9-0.7
			C258.5,310.7,262,311,265.7,312.4z M186.9,278.9L186.9,278.9L186.9,278.9L186.9,278.9z"/>
		<path class="st3" d="M71.2,411.5c-1,0-2.1,0-3.1,0c-0.6,0-0.9-0.2-0.9-0.9c0-2.3,0-4.7,0-7c0-0.6,0.2-0.9,0.9-0.9
			c0.3,0,0.6,0,0.9,0c32.9,0,65.7,0,98.6,0c1.9,0,1.9,0,1.9,1.9c0,1.9,0,3.8,0,5.7c0,0.8-0.2,1.1-1,1.1c-2.2,0-2.2,0.1-2.2,2.2
			c0,9,0,18.1,0,27.1c0,1.1-0.3,1.4-1.4,1.4c-3-0.1-6,0-9,0c-0.9,0-1.2,0.3-1.1,1.1c0.1,2.2,0,4.3,0,6.5c0,0.9-0.2,1.2-1.1,1.1
			c-2.1,0-2.1,0-2.1,2.2c0,9.4,0,18.8,0,28.2c-0.5,0-1,0-1.5,0c-14.8,0-29.5,0-44.3,0c-0.7,0-1.3,0-2,0c-0.1-1.1-0.2-2.2-0.2-3.3
			c-0.1-1.6-0.2-3.2-0.3-4.8c-0.3-4.6-0.7-9.2-1-13.7c-0.2-2.4-0.4-4.9-0.5-7.3c0-1.2-0.5-1.2-1.4-1.2c-14.6,0-29.2,0-43.9,0
			c-1,0-2.1,0-3.1,0c-0.6,0-0.9-0.2-0.9-0.9c0-2.3,0-4.7,0-7c0-1,0.6-0.9,1.3-0.9c5.8,0,11.7,0,17.5,0c13.2,0,26.4,0,39.6,0
			c2.1,0,4.2,0,6.2,0c1,0,1.3-0.3,1.2-1.2c-0.1-0.8-0.2-1.6-0.2-2.5c-0.3-3.8-0.5-7.6-0.7-11.4c-0.3-4.8-0.5-9.5-0.7-14.3
			c0-1.1-0.3-1.4-1.4-1.4C100.5,411.5,85.9,411.5,71.2,411.5z"/>
		<path class="st4" d="M256.5,238.2c3.5,0.7,6.1,2.6,7.6,6c0.7,1.6,1.8,3.1,2.7,4.6c1.4-1.1,2.2,0,3.2,0.5c1.7,1.6,3,3.6,3.1,5.9
			c0.1,2.2-0.4,4.5-0.7,6.7c1-0.9,1.9-2,3-2.6c5.5-3.1,11.6-0.3,13.5,5.9c1.4,4.7-0.1,8.7-3.1,12.3c-1,1.2-2.2,2.1-3.5,3
			c-2.3,1.6-4.9,2-7.6,1.3c-0.7-0.4-1.4-0.8-2.1-1.2c-0.2,0.7-0.4,1.3-0.6,2c0,0.1-0.1,0.2-0.1,0.2c-0.9,1.4-1.9,2.9-2.8,4.3
			c0.4-0.1,0.7-0.2,1.1-0.3c2-0.5,4-1,6-1.5c0,0.1,0,0.1,0,0.1c-0.4,0.2-0.8,0.4-1.2,0.6c-0.2,0-0.3,0.1-0.5,0.1
			c-1.7,0.5-3.4,1.1-5,1.6c-0.4,0.1-0.8,0.2-1.2,0.3c-1.3,0.6-2.7,1.1-4,1.7c-0.2,0-0.3,0.1-0.5,0.1c-1.5,0.3-3.1,0.1-4.1,1.6
			c-0.1,0.2-0.4,0.2-0.6,0.3c-3.1-0.2-6.1-0.5-8.9-2.1c-5.3-3-8.1-8-10.8-12.6c1.4-1.2,2.9-2.1,4-3.3c1.8-2.1,1.4-5.7-0.7-7.6
			c-1.9-1.7-4.4-1.7-6.5,0.2c-1.2,1.1-2.1,0.9-2.5-0.6c-0.5-1.9-0.7-3.8-0.9-5.7c-0.1-0.8,0.1-1.7,0.2-2.7c-2.7,1.3-5.3,1.3-8,0.7
			c-4-1.3-6.8-3.7-7.8-7.8c-0.2-0.9-0.2-2-0.2-2.9c0.5-3.3,2.5-5.3,5.6-6.2c2.8-0.8,5-2.2,7-4.3c3.3-3.3,7-3.9,11.7-1.7
			c2.4,1.1,4.6,2.5,6.8,3.9c0.8,0.5,1.3,0.5,2.2,0.1c1.9-1,3.9-1.2,6.1-0.9c0,0,0.1,0,0.1,0L256.5,238.2z M286.2,267.2
			C286.2,267.3,286.2,267.3,286.2,267.2c-0.1,0.1-0.1,0.1-0.1,0.1C286.2,267.3,286.2,267.3,286.2,267.2
			C286.3,267.2,286.3,267.2,286.2,267.2c0.1-0.1,0.1-0.1,0.1-0.1C286.3,267.2,286.3,267.2,286.2,267.2z M266.5,275.3
			c0.1,0.1,0.2,0.1,0.3,0.2c0,0,0-0.1,0.1-0.1C266.7,275.3,266.6,275.3,266.5,275.3c-0.4-0.3-0.8-0.6-1.2-0.9
			c-0.1,0.1-0.1,0.3-0.2,0.4C265.6,275,266,275.1,266.5,275.3z M268.3,271.3c0.4-1.6,0.8-3.2,1.3-4.8c0.2-0.6,0.4-1.1,0.6-1.7
			c0.1-0.1,0.3-0.2,0.4-0.3c0,0-0.1-0.1-0.1-0.1c-0.1,0.1-0.2,0.3-0.3,0.4c-0.3,0.3-0.6,0.6-0.8,0.9c-1.9,3.1-2.3,6.3-1.5,9.8
			c-0.2,0-0.4,0-0.5,0.1c0,0,0,0.1,0,0.1c0.2,0,0.4,0,0.6,0c0.5,1.3,1.1,2.5,1.6,3.8c-0.1,0-0.3,0-0.4,0.1c0,0.1,0,0.1,0.1,0.2
			c0.1-0.1,0.2-0.1,0.4-0.2c0.5,0.4,1,0.8,1.5,1.2c-1.8-2.7-3-5.6-2.8-8.9c0.1,0,0.3,0,0.4,0.1C268.6,271.6,268.4,271.4,268.3,271.3
			z M263.2,272.5c0.4,0.6,0.7,1.2,1.1,1.8c0.1-0.1,0.3-0.2,0.4-0.4C264.3,273.5,263.8,273,263.2,272.5c-1.1-2.3-2.4-4.6-3.5-6.9
			c-2.3-4.7-6-7-11.3-6.9c-3.3,0-6.6-0.1-9.8-0.2c-0.9,0-1.8-0.3-2.6-0.5c0,0.1,0,0.3-0.1,0.4c1.6,0.3,3.3,0.6,4.9,0.7
			c3,0.2,6.1,0.1,9.1,0.3c4.1,0.2,7,2.2,8.9,5.8c1,1.9,1.9,3.8,3,5.6C262.1,271.6,262.7,272,263.2,272.5z M235.7,259
			c0,0.1-0.1,0.2-0.1,0.3c0.6,0.2,1.2,0.6,1.8,0.6c2.8,0.3,5.7,0.5,8.5,0.8c2.1,0.2,4.2,0.5,6.1,1.6c2.7,1.6,3.9,4.3,5.2,7
			c1,2.2,2,4.4,3.3,6.4c1.8,2.9,4.4,4.6,7.9,4.1c-0.5-0.1-1.1-0.1-1.7-0.2c-3.1-0.7-5.2-2.7-6.6-5.4c-1.4-2.9-2.7-5.8-4.2-8.6
			c-1.9-3.4-5-5.1-8.9-5.4C243.3,259.9,239.4,260.5,235.7,259z M270,272.9c1.1,2.2,5.8,3.7,9.3,3.1c4.1-0.6,8.3-4.5,8.7-7.9
			c-1.6,3.4-4.1,5.8-7.7,6.9C276.6,276.2,273.3,275.2,270,272.9z M285.8,267.8c-2.1,2.2-4.4,3.9-7.4,4.6c-3.1,0.7-5.9,0-8.8-1.1
			C273.7,274.6,282,274,285.8,267.8z M269,271.2c0-0.1,0.1-0.1,0.1-0.2c0-0.1-0.1-0.2-0.1-0.2c-0.1,0-0.2,0.1-0.3,0.1
			C268.8,271.1,268.9,271.1,269,271.2z"/>
		<path class="st3" d="M377.3,115.8c-1.6,0.8-3.2,1.6-4.7,2.4c-0.4,0.2-0.7,0.8-0.8,1.2c-0.3,1.5-0.5,2.9-0.6,4.4
			c0,0.5,0.1,1.2,0.5,1.6c1,1,2.1,1.9,3.1,2.9c0.2,0.2,0.4,0.9,0.2,1.1c-1.5,2.5-3,5-4.5,7.5c-0.5,0.8-1,0.9-1.8,0.6
			c-0.9-0.3-1.9-0.5-2.8-1c-1.2-0.6-2.2-0.3-3.1,0.6c-0.2,0.2-0.5,0.6-0.7,0.7c-2.7,1-2.9,3-2.8,5.5c0.2,2.9,0.4,2.3-2.3,3
			c-2.4,0.6-4.8,1.2-7.2,1.7c-0.3,0.1-0.9-0.2-1-0.5c-0.7-1.2-1.2-2.5-1.9-3.6c-0.3-0.5-1-1-1.6-1.1c-1.4-0.3-2.8-0.5-4.3-0.7
			c-0.4,0-0.9,0.1-1.2,0.4c-0.9,0.9-1.8,1.8-2.6,2.8c-0.6,0.8-1.1,1-2.1,0.4c-2.6-1.7-5.2-3.2-7.9-4.8c0.6-1.7,1.1-3.3,1.6-4.9
			c0.2-0.6,0.2-1-0.3-1.5c-1-1.2-1.8-2.6-2.8-3.8c-0.2-0.3-0.7-0.6-1-0.6c-1.4,0-2.9,0.1-4.3,0.2c-0.7,0-1.1-0.2-1.2-1
			c-0.6-2.8-1.3-5.6-2-8.3c-0.2-0.7,0-1,0.6-1.3c1.3-0.6,2.6-1.2,3.9-2c0.4-0.2,0.7-0.7,0.7-1.1c0.3-1.5,0.5-2.9,0.6-4.4
			c0-0.5-0.1-1.1-0.4-1.5c-1.1-1.2-2.4-2.3-3.6-3.6c1.1-1.8,2.1-3.5,3.2-5.3c0.6-1,1.1-2,1.8-2.8c0.2-0.3,0.9-0.5,1.3-0.5
			c1,0.2,2,0.5,2.9,1c1.3,0.6,2.3,0.4,3.3-0.5c0.9-0.8,2-1.4,2.9-2.1c0.4-0.3,0.8-0.9,0.8-1.4c0.1-1.4,0.1-2.7,0-4.1
			c0-0.7,0.2-1.1,0.9-1.2c2.7-0.6,5.5-1.3,8.2-1.9c0.8-0.2,1.1,0.2,1.3,0.8c0.6,1.3,1.1,2.6,1.8,3.8c0.2,0.4,0.8,0.7,1.2,0.8
			c1.5,0.3,3,0.4,4.6,0.5c0.5,0,1.1-0.1,1.5-0.4c1-1,2-2,2.9-3.1c0.5-0.6,0.9-0.5,1.5-0.2c2.4,1.5,4.8,2.9,7.2,4.4
			c0.3,0.2,0.6,0.9,0.5,1.3c-0.4,1.4-0.9,2.8-1.3,4.2c-0.1,0.3,0,0.8,0.2,1.1c0.9,1.3,1.9,2.6,2.9,3.9c0.3,0.4,1,0.8,1.5,0.8
			c1.2,0.1,2.4-0.1,3.6-0.2c0.9-0.1,1.4,0,1.7,1.1C375.7,109.8,376.5,112.7,377.3,115.8z M337.2,117.7c-0.4,5.7,4.6,10.6,10.3,10.5
			c5.8-0.1,10.3-4.8,10.3-10.3c0-5.8-4.5-10.4-10.5-10.6C342,107.2,336.9,112.2,337.2,117.7z"/>
		<path class="st3" d="M113.7,213.3c-2-1.9-4-3.7-6-5.6c0.7-1.2,1.4-2.4,2.1-3.6c0.2-0.3,0.1-0.8,0.1-1.2c0,0,0-0.1-0.1-0.1
			c-0.8-3.1-2.7-4.7-6.1-4.4c-0.1-2.7-0.2-5.2-0.2-7.7c0-0.3,0.5-0.8,0.8-0.9c2.7-0.3,4.5-1.5,5.2-4.3c0.2-0.9,0.4-1.5-0.2-2.3
			c-2-2.8-2-2.9,0.5-5.2c1.1-1,2.3-1.9,3.5-2.8c-0.1-0.2-0.2-0.4-0.3-0.6c1.1,0.7,2.2,1.3,3.3,2.1c0.5,0.4,1,0.4,1.6,0.1
			c1.1-0.5,2.2-0.9,3.3-1.5c0.3-0.1,0.6-0.6,0.7-0.9c0.3-1.3,0.6-2.6,0.9-4c2.5,0,5,0,7.5,0c0.2,0,0.6,0.4,0.7,0.7
			c0.3,0.6,0.5,1.3,0.6,1.9c0.1,1.6,0.9,2.3,2.3,2.5c0,0,0.1,0,0.1,0c1.9,1.4,3.6,0.7,5.1-0.7c1-0.9,1.8-0.8,2.7,0.3
			c1.4,1.6,3,3,4.5,4.5c-0.7,1.2-1.4,2.2-2,3.4c-0.2,0.4-0.2,0.9-0.1,1.3c0.4,1.1,0.9,2.2,1.4,3.2c0.2,0.3,0.6,0.7,0.9,0.8
			c1.3,0.3,2.6,0.6,4,0.9c0,2.6,0,5.1,0,7.6c0,0.3-0.4,0.7-0.6,0.7c-1.3,0.4-2.8,0.4-3.7,1.2c-0.9,0.8-1.1,2.3-1.5,3.6
			c-0.1,0.4-0.1,1,0.1,1.3c0.6,1.1,1.3,2.2,2.1,3.4c-1.7,1.8-3.5,3.6-5.2,5.4c-0.2,0.2-0.8,0.3-1.2,0.1c-0.9-0.4-1.8-1.1-2.7-1.5
			c-0.5-0.2-1.1-0.1-1.6,0c-0.2,0-0.4,0.3-0.7,0.3c-2.8,0.4-3.5,2.4-3.6,4.8c-0.1,0.9-0.5,1.1-1.3,1.1c-2.1,0-4.1,0.2-6.2,0.2
			c-0.4,0-1.2-0.6-1.2-0.9c-0.1-2.9-1.6-4.4-4.4-5.1c-0.8-0.2-1.5-0.3-2.2,0.2c-0.5,0.3-1,0.6-1.4,1
			C114.7,212.6,114.2,212.9,113.7,213.3z M127.3,201.3c4.5,0.3,8.1-3.3,8.2-8c0-4.7-4.1-8.2-8.1-8c-4.9,0.1-7.9,3.2-8.1,8
			C119.1,197.5,123.1,201.7,127.3,201.3z"/>
		<path class="st2" d="M410.5,417.7c0.1-0.3,0.1-0.7,0.2-1c0.1-0.4,0.2-0.9,0.3-1.3c3-16,11.5-27.8,26.3-34.9c0.3-0.1,0.7-0.2,1-0.3
			c1.4-0.2,2.9-0.5,4.3-0.5c3.9,0,6.3,2.2,7.5,6.8c0,1,0,2,0,3c0,0.2,0,0.5-0.1,0.7c0,0.2-0.1,0.3-0.1,0.5c-0.9,2.1-1.6,4.3-2.7,6.3
			c-1.8,3.2-3.8,6.3-5.9,9.2c-4.8,6.7-10.9,11.9-19.3,13.7c-0.5,0.1-1,0.2-1.5,0.3c-2.2,0-4.3,0.1-6.5,0.1c-0.5-0.1-1-0.2-1.5-0.3
			c-0.5-0.2-1-0.4-1.5-0.5c2.3-3.5,4.6-6.9,6.9-10.4c0.2-0.3,0.6-0.5,0.9-0.6c3.5-1,7-2,10.6-2.7c2.8-0.6,5.8-0.7,8.7-1
			c-1.5-0.1-3-0.1-4.5-0.1c-4.9,0.2-9.6,1.4-14.2,3.1c-0.1-0.1-0.2-0.2-0.3-0.3c1.6-2,3.2-4.1,4.9-5.9c2.7-2.9,5.6-5.7,8.4-8.5
			c0.5-0.4,1-0.8,1.5-1.3c0.1-0.1,0.3-0.2,0.4-0.4c0.3-0.2,0.6-0.4,0.8-0.6c0.1-0.1,0.3-0.2,0.4-0.4c0.2-0.1,0.3-0.3,0.5-0.4
			c0-0.1-0.1-0.1-0.1-0.2c-0.2,0.1-0.3,0.2-0.5,0.4c-0.1,0.1-0.3,0.2-0.4,0.4c-0.3,0.2-0.6,0.4-0.8,0.6c-0.1,0.1-0.3,0.2-0.4,0.4
			c-0.5,0.4-1,0.8-1.5,1.3c-3.4,3.3-6.9,6.6-10.1,10.1c-4.4,4.8-8.1,10.2-11.5,15.8C410.6,418.4,410.5,418.1,410.5,417.7z"/>
		<path class="st2" d="M382.5,382c0.1-1,0.1-2,0.2-3c0.7-4,1.2-8.1,2.2-12.1c0.5-2,1.5-3.9,2.7-5.5c2.1-2.7,5.3-2.6,7.3,0.1
			c1.1,1.5,2,3.4,2.5,5.2c1,3.5,1.7,7,2.5,10.5c0,0.2,0,0.3,0.1,0.5c0.1,0.4,0.1,0.9,0.2,1.3c0,0.3,0,0.6,0.1,0.9
			c0.1,2.1,0.3,4.2,0.4,6.2c0,0.6,0,1.2,0,1.8c-0.2,3.2-0.5,6.3-0.7,9.5c0,0.2-0.1,0.5-0.1,0.7c-0.6,2.5-1,5.1-1.7,7.6
			c-1.4,5.2-3.3,10.2-6.2,14.8c-0.1-0.2-0.2-0.4-0.2-0.7c-0.3-3.7-0.7-7.5-1-11.2c-0.1-2.2-0.1-4.5-0.1-6.8c0.2-0.1,0.4-0.2,0.5-0.4
			c1.6-3.1,3.2-6.2,4.8-9.3c0.1-0.1,0-0.3,0-0.4c-0.1,0-0.2-0.1-0.3-0.1c-1.7,3.4-3.3,6.8-5,10.2c-0.2-1.1-0.4-2.1-0.4-3.2
			c-0.1-4-0.1-8-0.1-12c0.2-4.7,0.4-9.4,0.6-14.1c-0.1,0-0.2,0-0.3,0c-0.2,4.7-0.4,9.4-0.7,14.2c0,0.3-0.1,0.6-0.1,0.9
			c-1.2-2.4-2.4-4.7-3.6-7.1c-0.1,0.1-0.3,0.1-0.4,0.2c1.2,2.3,2.4,4.6,3.5,7c0.3,0.7,0.6,1.5,0.6,2.2c0.2,5.8,0.2,11.6,0.5,17.3
			c0.2,4.6,0.7,9.1,1,13.7c-0.2-0.2-0.4-0.3-0.6-0.5c-2.7-2.5-4.5-5.5-5.9-8.8c-0.1-0.3-0.2-0.7-0.3-1c-1.2-3.6-1.4-7.3-1.7-11
			c0-0.3,0-0.7,0-1c0-0.3,0-0.7-0.1-1c0-0.2,0-0.3,0-0.5c0-0.3-0.1-0.7-0.1-1c0-0.7-0.1-1.5-0.1-2.2c0-0.6,0-1.2-0.1-1.7
			c0-3.3,0-6.5,0-9.8C382.5,382.3,382.5,382.2,382.5,382z"/>
		<path class="st5" d="M225,258c2.7,0.5,5.3,0.5,8-0.7c-0.1,1-0.3,1.9-0.2,2.7c0.2,1.9,0.4,3.9,0.9,5.7c0.4,1.5,1.3,1.7,2.5,0.6
			c2.1-1.9,4.7-1.9,6.5-0.2c2.1,1.9,2.5,5.5,0.7,7.6c-1.1,1.2-2.5,2.2-4,3.3c2.7,4.6,5.5,9.7,10.8,12.6c2.8,1.6,5.8,1.9,8.9,2.1
			c0.1,0.2,0.2,0.5,0.3,0.7c-0.1,0.3-0.3,0.7-0.2,1c0.3,1.3-0.2,2.2-1.3,2.9c-0.1,0.1-0.3,0.3-0.4,0.4c-0.1,0-0.1,0.1-0.1,0.1
			c-0.1,0.1-0.2,0.3-0.3,0.4c0,0,0,0,0,0c-0.2,0.1-0.5,0.2-0.7,0.3c-4.3,3.5-8.6,6.9-12.9,10.4c-0.2,0.1-0.2,0.4-0.3,0.5
			c0,0,0,0,0,0c-0.2,0.1-0.3,0.2-0.5,0.3c0,0,0,0,0,0c-0.1,0.1-0.2,0.3-0.3,0.4c-1,0.6-2,1.2-3.2,2c0-0.5,0-1,0-1.4
			c0-5.6,0-11.2,0-16.8c0-0.9-0.3-1.2-1.2-1.5c-2.4-0.9-4.7-2-7.1-3c-0.2-0.1-0.3-0.3-0.5-0.4c0,0,0,0,0,0c-0.7-0.8-1.4-1.5-2.1-2.3
			c-1.9-2.2-2.6-4.9-2.6-7.8c-0.1-5.4-0.2-10.8-0.3-16.2C225.2,260.5,225.1,259.3,225,258z M237.2,268.8c2.1,0.5,3.1,1.5,2.9,2.7
			c-0.1,0.7-0.4,1.4-0.9,1.8c-0.4,0.4-1.2,0.3-1.9,0.5c0.6,0.8,1.3,0.8,2.1,0.3c1.4-0.9,1.9-2.6,1.2-4.1
			C240,268.8,238.8,268.3,237.2,268.8z"/>
		<path class="st2" d="M408.7,383.8c-0.1-0.3-0.2-0.7-0.2-1c-0.3-2.9-0.7-5.8-1-8.8c0-1.1,0-2.2,0-3.2c0.2-2.1,0.3-4.2,0.7-6.3
			c0.6-2.8,1.4-5.6,2.1-8.4c0-0.1-0.1-0.2-0.1-0.3c0.3-0.3,0.6-0.6,0.8-1c1.4-2.9,3.4-5.1,6.5-6.1c0.8-0.1,1.5-0.2,2.3-0.2
			c2.9,0.4,4.7,2.1,5.7,4.7c0.3,0.8,0.6,1.6,0.7,2.4c1.2,5.3,1.1,10.6-0.1,15.8c-1,4.7-3,9-5.7,12.9c0,0,0,0.1,0,0.1
			c-0.4,0.4-0.8,0.9-1.3,1.3c-2.3,2.3-4.8,4.1-8.3,4.1c0.9-3.8,1.8-7.6,2.8-11.5c0.1-0.3,0.3-0.7,0.6-0.9c1.9-2.4,3.8-4.7,5.6-7.1
			c0.1-0.1,0.2-0.2,0.2-0.3c0.1-0.1,0.1-0.2,0.2-0.3c0-0.1,0-0.1,0.1-0.2c0,0.1,0,0.1-0.1,0.2c-0.1,0-0.2,0.1-0.4,0.1
			c-0.1,0.1-0.2,0.1-0.3,0.2c-1.8,2-3.6,4-5.5,6c1.4-5.8,2.8-11.5,4.2-17.3c-0.1,0-0.2,0-0.3-0.1c-0.6,2.4-1.2,4.8-1.9,7.3
			c-0.4-2.3-0.8-4.4-1.2-6.6c-0.1,0-0.3,0-0.4,0.1c0.3,1.7,0.4,3.5,0.9,5.2c0.4,1.7,0.3,3.2-0.1,4.9c-1.2,4.4-2.2,8.8-3.4,13.2
			c-0.5,2.1-1.2,4.1-1.8,6.2C409.7,387.2,409.2,385.5,408.7,383.8z M418.3,358c0.1,0,0.1,0,0.2,0c0-0.2,0-0.4,0-0.6c0,0-0.1,0-0.1,0
			C418.3,357.7,418.3,357.9,418.3,358z"/>
		<path class="st2" d="M458,428.1c0.2,0.1,0.5,0.3,0.7,0.4c1.5,1.2,2.7,2.6,3.2,4.5c0,0.6,0,1.2,0,1.7c-0.5,2.5-2.4,3.8-4.5,4.7
			c-2.2,0.9-4.5,1.7-6.7,2.5c-0.2,0-0.4,0.1-0.5,0.1c-2.6,0.6-5.2,1.1-7.7,1.7c-3.5,0-7-0.1-10.5-0.1c-0.3-0.1-0.6-0.2-1-0.3
			c-5.1-1.1-9.6-3.2-12.9-7.4c5.1-2.8,10.5-4.4,16.2-5.4c1.4-0.2,2.5,0,3.6,0.8c2.8,2,5.1,4.5,6.8,7.5c0.1,0.3,0.3,0.6,0.4,0.8
			c0.2-0.1,0.3-0.2,0.5-0.3c-1.2-1.7-2.2-3.5-3.5-5c-1.4-1.5-3.1-2.7-5-4.4c2.7,0,5,0,7.4,0c3,0.3,6,0.7,9,1c0-0.1,0-0.2,0-0.3
			c-3-0.4-6-0.7-9-1.1c-8-0.5-15.7,0.9-23.1,4c-0.4,0.2-0.9,0.2-1.3,0.3c0.3-0.3,0.6-0.5,1-0.8c3.9-2.9,8.1-5.2,12.6-6.9
			c0.2,0,0.3-0.1,0.5-0.1c0.4-0.1,0.7-0.2,1.1-0.3C443.2,424.1,450.8,424.4,458,428.1z"/>
		<path class="st1" d="M412.1,465.7c-0.1,0.5-0.1,0.9-0.2,1.4c-0.6,3.4-1.1,6.8-1.7,10.2c-0.1,0.5-0.2,1.1-0.3,1.6
			c-0.6,0.9-1.2,1.8-1.9,2.7c4.8,0,9.6,0,14.5,0c0,0.1,0,0.3,0,0.4c-0.4,0-0.7,0-1.1,0c-40.7,0-81.5,0-122.2,0
			c-0.5,0-0.9-0.1-1.4-0.2c0.2-0.1,0.5-0.2,0.7-0.3c0.7,0,1.3,0,2,0c0.3,0,0.6,0.1,0.9,0.1c14.6,0,29.2,0,43.8,0
			c0.3,0,0.6,0,0.9-0.1c1,0,2,0,3,0.1c6.2,0,12.4,0,18.6,0c6,0,12,0,17.9,0c0.8,0,1.7,0,2.8,0c-1.5-0.9-2.2-2.1-2.4-3.5
			c-0.3-1.7-0.7-3.5-1-5.2c-0.2-1-0.4-2-0.6-3c-0.4-2.3-0.8-4.7-1.2-7.1c9.9,0,19.6,0,29.5,0C412.4,463.7,412.2,464.7,412.1,465.7z"
			/>
		<path class="st2" d="M377.7,419.5c0.2,0.3,0.3,0.5,0.5,0.8c0.2,0.4,0.4,0.8,0.6,1.2c0.8,2,1.6,4,2.5,6.1c-1.4-1.4-2.8-3-4.3-4.3
			c-3.6-3.1-7.2-6.1-10.9-9.1c-0.4-0.3-0.8-0.6-1.2-0.8c-0.2-0.1-0.4-0.3-0.6-0.4c-0.3-0.2-0.5-0.3-0.8-0.5
			c-0.3-0.2-0.5-0.3-0.8-0.5c-0.2-0.2-0.5-0.3-0.7-0.5c0,0.1-0.1,0.1-0.1,0.2c0.2,0.1,0.5,0.3,0.7,0.4c0.2,0.2,0.5,0.3,0.7,0.5
			c0.2,0.2,0.5,0.3,0.7,0.5c0.2,0.1,0.4,0.3,0.6,0.4c0.4,0.3,0.8,0.6,1.1,0.9c0.9,0.7,1.8,1.4,2.9,2.4c-2.8-0.4-5.2-0.8-7.8-0.2
			c2.7,0.2,5.2,0.4,7.6,0.7c0.4,0,0.9,0.2,1.2,0.4c3.7,3.6,7.5,7.2,11.2,10.8c-0.7,0.3-1.3,0.6-2,0.8c-4.7,1-9.3,0.6-13.5-2
			c-4.6-2.8-8.3-6.7-12-10.7c-2.4-2.6-4.3-5.5-4.9-9.1c0-0.1,0-0.2,0-0.2c0.1-2.1,0.8-3.8,2.7-4.7c1.9-0.5,3.8-0.2,5.7,0.3
			c4.5,1.7,8.6,4,12.2,7.1C372.7,412.7,375.4,416,377.7,419.5z M361.7,411.3C361.7,411.3,361.7,411.3,361.7,411.3
			c-0.1-0.1-0.1,0-0.2,0C361.6,411.4,361.6,411.4,361.7,411.3C361.7,411.4,361.7,411.4,361.7,411.3z"/>
		<path class="st2" d="M287.2,460.5c1,0,0.4-0.5,0.3-0.8c-0.3-1.2-0.6-2.5-0.7-3.7c0-0.6,0.4-1.2,0.7-1.8c0.1,0,0.3,0,0.4,0.1
			c0,1.8,0,3.6,0,5.4c0.2,0,0.3,0,0.5,0c0.1-1.8,0.2-3.6,0.3-5.3c0-0.3-0.5-0.8-0.8-0.8c-0.4,0-0.9,0.3-1.1,0.6
			c-0.8,1.2-1,2.5-0.5,3.8c0.2,0.5,0.4,1,0.6,1.5l0,0c-1.3,0-2.7,0-4.1,0c0.5-1.8,1-3.7,1.6-5.6c1.1-3.7,2.2-7.4,3.3-11.2
			c0.2,0.1,0.4,0.1,0.6,0.2c4.1,1.8,8.3,3.6,12.4,5.4c0.2,0.1,0.3,0.2,0.5,0.3c0.3,0.2,0.7,0.5,1,0.7c2.3,1.6,4.6,3.1,6.9,4.7
			c-1,2.1-2.1,4.2-3.1,6.3c-2.9,6-5.8,12-8.7,18c-0.2,0.3-0.6,0.7-1,0.8c-3.7,0.3-7.5,0.6-11.2,0.8c0-0.1,0-0.2,0.1-0.3
			c1.8-0.9,3.5-1.9,5.3-2.7c0.7-0.3,1-0.6,0.9-1.3c0-1.8,0-3.6,0-5.5c1.3-0.1,2.6-0.3,3.8-0.4c-0.8-1-2.1-1.1-3.8-0.2
			c0-1.1,0-2.1,0-3.2c1.3-0.8,2.6-1.4,4.4-0.7c-1.4-1.5-2.9-1.3-4.4,0.2c0-0.8-0.1-1.6,0-2.3c0.1-1-0.2-1.6-1.2-1.7
			c0.4-1.2,0.8-2.4,1.2-3.6c-1.3,0.4-1.9,1.6-1.6,3.4c-0.6-0.2-1.3-0.3-1.9-0.5C287.5,460.9,287.3,460.7,287.2,460.5z M300.8,453.3
			c-1,0-1.8,0.8-1.8,1.8c0,1,0.8,1.9,1.8,1.8c0.9,0,1.9-1,1.9-1.8C302.7,454.1,301.9,453.3,300.8,453.3z M294.6,460.1
			c-0.7-0.6-1.5-0.5-2.3-0.1c-0.7,0.3-1.3,0.8-1.3,1.5C292.2,461,293.4,460.6,294.6,460.1z"/>
		<path class="st2" d="M200.2,461.5c0.2,0.1,0.5,0.4,0.7,0.3c1.2-0.4,2.4-0.7,3.6-1.2c0.3-0.1,0.4-0.8,0.6-1.2
			c-0.5-0.2-1-0.6-1.4-0.5c-1.2,0.3-2.3,0.9-3.6,1.4c-0.1-0.6-0.1-1.3-0.2-2c6,0.1,12,0.2,18,0.2c-0.2,6.7-0.4,13.5-0.5,20.2
			c-4.9,0-9.8,0-14.7,0.1c-7.4,0-14.7,0.1-22.1,0.2c0.9-0.7,1.8-1.4,2.8-1.9c2.5-1.2,5-2.4,7.5-3.5c0.5,1,1,1.9,1.5,2.9
			c0.4-1.2,0.3-1.6-0.8-3c1.1-0.5,2.1-1,3.2-1.4c0.8,0.9,1.6,1.7,2.4,2.6c0.2-1.3-0.5-2.1-1.5-2.8c1-0.4,2-0.9,3.1-1.3
			c1.2,0.6,2.3,1.1,3.6,1.8c-0.2-0.4-0.4-1-0.7-1.2c-0.7-0.5-1.5-0.9-2.3-1.3c0-1.3,0-2.5,0-3.8c1.3,0,2.5,0,4.1,0
			c-0.6-0.3-0.9-0.6-1.3-0.7c-0.9-0.1-1.9,0-2.8,0c0-1-0.1-2-0.1-3.1c0,0,0.1,0,0.1,0C199.7,462,200,461.7,200.2,461.5L200.2,461.5z
			 M211,472c0.9-0.1,1.5-0.6,1.5-1.5c0-0.9-0.6-1.5-1.5-1.5c-0.9,0-1.5,0.5-1.5,1.5C209.5,471.4,210.1,471.9,211,472z"/>
		<path class="st2" d="M286,337.1c0.1,0.4,0.2,0.8,0.3,1.2c0.9,3.1,1.5,6.3,2.9,9.1c4.1,8.3,8.6,16.3,13,24.5
			c-0.8,0.3-1.6,0.6-2.5,0.8c-4.1,1-8.2,1.9-12.4,2.9c0.1-0.1,0.1-0.2,0.2-0.3c1.7-2.2,2.5-4.6,1.8-7.3c-0.7-3-1.6-5.9-2.5-8.8
			c-0.3-1.1-0.9-2.2-1.3-3.3c0.1,0,0.1-0.1,0.1-0.1c1.9-0.6,3.9-1.3,5.3-2.9c0.1-0.1,0.1-0.2,0.2-0.3c0-0.1,0-0.1,0.1-0.2
			c0,0.1,0,0.1-0.1,0.2c-0.1,0-0.2,0.1-0.4,0.1c-1.7,0.8-3.4,1.7-5.2,2.5c-0.1,0-0.1,0-0.2,0c0-0.2-0.1-0.4-0.1-0.6
			c-2.1-5.1-4.1-10.1-6.2-15.1c-0.5-1.3-1.1-2.5-1.7-3.8c0.4-0.1,0.7-0.2,1.1-0.3c2.1-0.7,4.3-1.2,6-2.8c0.2,0.4,0.4,0.7,0.5,1.1
			C285.2,334.7,285.6,335.9,286,337.1z"/>
		<path class="st6" d="M414.3,452.2c-0.1,0.6-0.1,1.1-0.2,1.7c-0.4,1.8-0.7,3.5-1.1,5.3c-10.3,0-20.5,0-30.8,0
			c-0.3-1.6-0.6-3.1-0.9-4.6c-0.3-1.5-0.6-3-0.9-4.5c0.9,0,1.7-0.1,2.4-0.1c3.5,0,7,0,10.5,0c0.5,0,1,0.1,1.5,0.1c0.4,0,0.9,0,1.3,0
			c0.4,0,0.8,0,1.2,0c0.2,0,0.4,0,0.6,0c0.1,0,0.3,0,0.4,0c0.2,0,0.4,0,0.6,0c0.7,0,1.4,0,2-0.1c0.2,0,0.5,0.1,0.7,0.1
			c1.1,0,2.2-0.1,3.2-0.1c2.8,0,5.7,0,8.5,0c0.4,0,0.7,0.1,1.1,0.2C414.5,450.8,414.4,451.5,414.3,452.2z"/>
		<path class="st7" d="M85.5,238.5c-0.3,0.1-0.8,0.2-1,0.4c-3.2,3.2-6.3,6.5-9.5,9.8c1.4,2.2,2.8,4.3,4.2,6.3
			c0.6,0.8,0.5,1.5,0.1,2.3c-1,2.4-1.9,4.9-2.8,7.4c-0.1,0.3-0.5,0.7-0.9,0.8c-2.2,0.6-4.4,1.2-6.6,1.7c-1,0.2-1.3,0.6-1.2,1.6
			c0.1,4,0.2,8,0.2,12c0,1,0.6,1.1,1.3,1.2c2.1,0.4,4.2,0.9,6.3,1.3c0.9,0.2,1.2,0.6,1.5,1.5c0.9,2.4,1.9,4.7,3,6.9
			c0.4,0.9,0.4,1.5-0.2,2.3c-1.2,1.8-2.3,3.7-3.4,5.7c-0.2,0.3,0,1,0.2,1.2c2.9,2.9,6,5.8,8.9,8.7c0.6,0.6,0.9,0.2,1.4-0.1
			c1.9-1.3,3.9-2.6,5.8-3.8c0.4-0.2,1-0.3,1.4-0.1c2.7,1,5.3,2.1,8,3.2c0.4,0.2,0.8,0.7,0.9,1.1c0.6,2.2,1.1,4.5,1.8,6.7
			c0.1,0.4,0.6,0.9,0.9,0.9c4.4-0.1,8.8-0.2,13.2-0.3c0.5-2.6,1-5.1,1.6-7.6c0.1-0.5,0.6-1,1-1.2c2.6-1.2,5.3-2.4,8-3.5
			c0.3-0.1,0.8,0,1.1,0.1c2.1,1.2,4.1,2.4,6.1,3.6c0.6,0.3,1,0.5,1.5-0.1c3-3.1,6-6.2,9.1-9.4c-1.4-2.1-2.7-4.2-4.1-6.3
			c-0.5-0.7-0.6-1.2-0.2-2c1.1-2.5,2.1-5.2,3.1-7.7c0.2-0.4,0.6-0.9,1-1c2.2-0.6,4.3-1.1,6.5-1.6c0.9-0.2,1.3-0.6,1.2-1.6
			c-0.1-4-0.2-8-0.3-12c0-0.9-0.5-0.9-1.1-1.1c-2.2-0.5-4.4-0.9-6.5-1.4c-0.5-0.1-1.1-0.6-1.3-1.1c-1.2-2.5-2.2-5-3.3-7.5
			c-0.2-0.5-0.2-1.2,0-1.7c1.1-2,2.4-4,3.5-6c0.2-0.3,0.1-1-0.1-1.2c-3-3-6-5.9-9-8.8c-0.2-0.2-0.9-0.2-1.3,0
			c-1.9,1.2-3.9,2.4-5.7,3.7c-0.6,0.4-1,0.4-1.7,0.1c-2.6-1.1-5.2-2-7.7-3.1c-0.4-0.2-0.7-0.6-0.9-1c-0.6-2.2-1.2-4.4-1.7-6.6
			c-0.2-0.8-0.5-1.1-1.4-1.1c-4,0-8.1,0-12.1,0c-0.9,0-1.2,0.2-1.4,1.2c-0.4,2.3-0.9,4.5-1.5,6.8c-0.1,0.3-0.3,0.7-0.5,0.8
			c-1.3,0.5-2.7,0.9-4,1.3l0,0c0.9-0.4,1.9-0.9,2.8-1.2c0.8-0.3,1.2-0.6,1.4-1.5c0.4-2.1,0.9-4.2,1.2-6.3c0.2-1.3,0.7-1.7,1.8-1.5
			c2.8,0,5.7,0,8.5,0c1.4,0,2.8-0.1,4.2-0.2c0.8-0.1,1.1,0.3,1.3,1.1c0.5,2.4,1.1,4.8,1.8,7.1c0.1,0.3,0.5,0.6,0.9,0.7
			c2.5,1,4.9,1.9,7.4,2.8c0.4,0.1,1,0,1.4-0.3c1.9-1.2,3.8-2.5,5.7-3.8c0.6-0.4,1-0.6,1.6,0c3.3,3.3,6.7,6.5,10,9.8
			c0.1,0.1,0.2,0.3,0.3,0.4c-1.3,2.3-2.6,4.5-4,6.7c-0.4,0.7-0.4,1.2-0.1,1.8c1,2.2,1.9,4.5,3,6.7c0.2,0.5,0.8,0.9,1.3,1
			c2.5,0.6,5,1.1,7.6,1.6c0.1,1.3,0.2,2.5,0.2,3.8c0.1,3.5,0.2,7.1,0.3,10.6c0,0.8-0.2,1.2-1,1.4c-2.3,0.5-4.6,1.1-6.9,1.7
			c-0.7,0.2-1,0.5-1.2,1.2c-0.8,2.3-1.7,4.6-2.7,6.8c-0.3,0.7-0.2,1.1,0.1,1.7c1.5,2.2,2.9,4.4,4.4,6.7c-1.6,1.7-3.1,3.4-4.7,5
			c-1.6,1.7-3.4,3.2-4.9,5c-0.9,1.1-1.5,1.3-2.7,0.5c-1.7-1.2-3.6-2.2-5.4-3.3c-0.6-0.4-1-0.4-1.7-0.1c-2.2,1.1-4.5,1.9-6.7,3
			c-0.5,0.2-1,0.8-1.1,1.3c-0.5,2.2-0.9,4.4-1.3,6.6c-0.2,0.9-0.5,1.4-1.6,1.4c-2.7-0.1-5.4-0.1-8.1,0c-2,0-4,0.2-6.1,0.3
			c-0.7-2.6-1.3-5.1-1.9-7.5c-0.2-0.9-0.6-1.4-1.6-1.8c-2.1-0.7-4.1-1.5-6.1-2.4c-0.9-0.4-1.6-0.4-2.4,0.1c-2,1.4-4.1,2.8-6.3,4.2
			c-2.2-2.1-4.4-4.2-6.6-6.3c-1.4-1.3-2.8-2.6-4.1-4c-0.2-0.2-0.2-0.8-0.1-1.1c1.1-1.9,2.3-3.9,3.5-5.8c0.6-0.9,0.7-1.6,0.1-2.7
			c-1.1-1.9-1.9-3.9-2.6-5.9c-0.3-1-0.8-1.3-1.7-1.4c-2.4-0.5-4.8-1-7.4-1.6c-0.1-2.5-0.2-4.9-0.2-7.3c0-2.2,0.2-4.4-0.1-6.5
			c-0.2-1.6,0.4-1.9,1.6-2.1c2.1-0.4,4.3-1,6.4-1.5c0.3-0.1,0.7-0.4,0.8-0.8c1-2.5,2-5,3-7.5c0.1-0.3,0.1-0.9-0.1-1.2
			c-1.2-1.9-2.4-3.8-3.7-5.6c-0.6-0.8-0.5-1.4,0.2-2.2c2.5-2.5,4.9-5.1,7.3-7.7c0.6-0.6,1.2-1.1,1.8-1.7
			C84.7,238,85.2,237.6,85.5,238.5L85.5,238.5z"/>
		<path class="st2" d="M244,351.6c-0.2-1.5-1-2.6-2.4-3.1c-0.2-0.2-0.3-0.5-0.6-0.7c-1.3-0.9-2.6-1.8-3.8-2.8
			c-4.3-3.3-6.7-7.4-5.9-13c0.2,0,0.3,0,0.5,0c0,0,0,0,0,0c0.2,0.3,0.3,0.6,0.6,0.8c6.1,4.6,12.9,6.2,20.4,4.4
			c1.4,5.9,2.8,11.8,4.3,18C252.4,354,248.2,352.8,244,351.6z M244,349.7c0-0.1,0-0.1-0.1-0.2c0,0-0.1,0.1-0.1,0.1
			C243.9,349.7,243.9,349.7,244,349.7c2.6,2.3,9.2,3.5,11.7,2.2c-0.3,0-0.5-0.1-0.7-0.1c-3.5,0.1-6.9-0.5-10.1-2
			C244.6,349.8,244.3,349.8,244,349.7z"/>
		<path class="st5" d="M186.3,247c-2.8,1.4-5.7,2.8-8.5,4.1c-0.2,0.1-0.5,0.1-0.7,0.2c-0.6-1.5-1.3-3.1-1.8-4.6
			c-0.4-1.1-0.7-2.3-0.7-3.5c-0.1-2.4,0-4.8,0-7.2c0-0.6-0.2-1.1-0.3-1.7c-0.3-1.5-0.6-3-1-4.5c-0.3-1-0.3-1.9,0.7-2.5
			c0.9-0.5,1.6,0,2.3,1.4c1.2,2.5,2.4,5,3.6,7.5c0.2,0.3,0.4,0.7,0.5,1c0.1-0.5-0.1-0.9-0.2-1.4c-0.1-0.3-0.1-0.8,0.1-1
			c0.9-0.7,0.7-1.4,0.1-2.1c-0.3-0.4-0.4-0.9-0.6-1.3c1.8,0,3.7,0,5.5,0c0,0.1,0,0.3,0.1,0.4c2.4,1.9,1.3,4.5,1.3,6.9
			C186.7,241.4,186.4,244.2,186.3,247z"/>
		<path class="st5" d="M210.5,354.3c-0.4,0.7-0.8,1.5-1.3,2.2c-4.1,1.5-8.2,3-12.3,4.5c-0.6-2-1.1-4.1-1.8-6.1c-0.2-0.7,0-1,0.4-1.5
			c1.8-1.7,3.6-3.5,5.3-5.3c1.3-1.3,2.5-2.7,3.8-4c0.3-0.3,0.9-0.4,1.4-0.4c3,0.5,6,1,9,1.5c-0.4,0.8-0.8,1.5-1.2,2.3
			c-0.6,1.2-1.2,2.5-1.8,3.7l0,0c-0.3,0.6-0.7,1.2-1,1.8l0,0c-0.1,0.1-0.2,0.2-0.3,0.3c0,0,0,0,0,0
			C210.8,353.6,210.7,353.9,210.5,354.3z"/>
		<path class="st8" d="M157.3,178.8c0.6-5.2,1.9-10.2,3.8-15c1.8-4.6,4.2-8.9,6.5-13.2c3.7-6.8,7.6-13.5,11.2-20.3
			c2.6-5,4.3-10.5,5.4-16c0.4-2.3,0.6-4.7,0.7-7c0.2-2.6,0.3-5.1,0.2-7.7c-0.1-2.4-0.4-4.8-0.7-7.2c-0.5-3.3-1-6.7-1.8-10
			c-0.8-3.1-1.8-6.2-3-9.2c-2-5.2-4.8-10.1-8.2-14.6c-1.3-1.7-2.6-3.3-4-4.9c-1.8-1.9-3.5-3.8-5.5-5.5c-3.4-2.8-6.9-5.6-10.6-7.9
			c-3.5-2.2-7.3-4.2-11.1-5.6c-4.1-1.6-8.5-2.6-12.8-3.6c-2.4-0.6-4.9-1.1-7.4-1.2c-4.4-0.3-8.9-0.4-13.3-0.3
			c-5.9,0-11.8,1.1-17.5,2.6c-5,1.3-9.8,3.1-14.5,5.4c-4.8,2.4-9.3,5.1-13.5,8.3c-2.2,1.7-4.2,3.5-6.3,5.3c-0.1-0.1-0.2-0.2-0.3-0.3
			c2.5-2.1,5-4.3,7.5-6.3c4-3.3,8.5-5.8,13.1-8c7.2-3.4,14.8-5.6,22.7-6.7c5.4-0.8,10.8-1.2,16.2-0.9c10.4,0.4,20.3,2.5,29.8,6.8
			c7,3.1,13.2,7.4,18.9,12.6c6.9,6.3,12.3,13.7,16.2,22.2c2.7,6,4.5,12.2,5.5,18.7c0.9,5.8,1.3,11.7,1,17.6
			c-0.5,7.8-2.4,15.3-5.6,22.4c-3.8,8.4-8.8,16.2-13.5,24.2c-3.5,6-6,12.4-7.7,19.2c-0.5,2.1-0.9,4.2-1.3,6.4
			C157.6,178.7,157.4,178.7,157.3,178.8z"/>
		<path class="st7" d="M371,317c1.9,0.3,3.8,0.7,5.8,1c0.2,0,0.5,0,0.7,0c0,0,0,0,0,0c0.1,0.2,0.2,0.3,0.2,0.5
			c0.2,0.3,0.3,0.7,0.5,1c0.2,0.3,0.3,0.7,0.5,1c0.1,0.2,0.2,0.3,0.2,0.5c0.2,0.3,0.3,0.7,0.5,1c0.1,0.2,0.2,0.5,0.3,0.7
			c0.2,0.2,0.5,0.3,0.7,0.5c2.8-0.7,5.5-1.3,8.3-2c0.2-0.8,0.3-1.7,0.5-2.5c0-0.3,0.1-0.6,0-0.9c-0.7-2,0.1-3.2,1.8-4.1
			c0.3-0.2,0.7-0.5,1-0.7c0.6-0.4,1.2-0.8,1.7-1.3c0.3-0.2,0.5-0.5,0.8-0.7c1.5,0.5,3,0.9,4.5,1.5c1,0.4,1.6,0.3,2.1-0.8
			c0.4-0.9,1-1.8,1.5-2.7c0.2-0.3,0.3-0.5,0.5-0.8c0.7-1.1,1.5-2.2,2.3-3.5c-1.1-1.1-2.2-2.2-3.4-3.2c-0.8-0.7-1-1.4-0.7-2.4
			c0.2-0.5,0.2-1,0.2-1.5c0.1-0.3,0.2-0.5,0.2-0.8c0.1-0.5,0.2-1,0.2-1.5c0-0.2,0-0.3,0-0.5c-0.1-0.8,0.2-1.3,1-1.6
			c1.2-0.5,2.3-1.2,3.5-1.7c0.7-0.3,0.9-0.8,0.8-1.5c-0.6-2.5-1.3-5-1.9-7.5c-0.2-0.8-0.6-1-1.3-0.9c-0.7,0.1-1.5,0.1-2.2,0.2
			c-1.6,0.2-3,0-3.7-1.8c-0.2-0.3-0.5-0.7-0.7-1c-0.2-0.5-0.3-1-0.5-1.5c0,0,0,0,0,0c0.7,0.9,1.3,1.8,2.1,2.6
			c0.3,0.4,0.8,0.6,1.2,0.9c1.5,0,3.1,0,4.6,0c0.4,0,0.8,0.2,1.2,0.2c0.2,0.7,0.3,1.3,0.5,2c0.1,0.4,0.2,0.8,0.3,1.2
			c0.1,0.3,0.2,0.5,0.2,0.8c0.1,0.4,0.2,0.8,0.3,1.2c0.2,0.9,0.5,1.8,0.7,2.8c0,0.2,0,0.3,0,0.5c0,0.6,0,1.2,0,1.7
			c-0.2,0.1-0.5,0.2-0.8,0.3c-1.1,0.6-2.2,1.2-3.2,1.7c-0.4,0.3-0.8,0.7-1.2,1c0,0.5,0,1,0,1.5c0,0.3,0,0.7,0,1
			c-0.2,0.7-0.3,1.4-0.5,2c-0.3,0.8-0.1,1.4,0.5,1.9c1,0.9,1.8,1.9,2.8,2.8c0.6,0.6,0.6,1,0.2,1.7c-0.5,0.8-0.9,1.7-1.3,2.6
			c0,0,0,0,0,0c-0.2,0.2-0.5,0.3-0.6,0.5c-0.7,1.2-1.5,2.4-2.2,3.6c-0.6,1.2-1.3,1.3-2.4,0.8c-1.1-0.5-2.3-0.8-3.5-1.2
			c-0.3-0.1-0.7,0.2-1,0.2c-0.2,0.2-0.3,0.3-0.5,0.5c-0.9,0.6-1.8,1.2-2.7,1.8c-1.7,1.1-2,2.2-1.3,4.2c-0.2,1-0.3,2-0.5,3
			c-2.3,0.6-4.5,1.2-6.8,1.7c-0.2,0-0.3,0-0.5,0c-1.3,0.4-2.7,0.9-3.6-0.7c0,0-0.1,0-0.1,0c-0.1-0.3-0.2-0.7-0.2-1
			c-0.8-2.9-1.2-3.3-3.5-3.2c-0.2,0-0.3,0-0.5,0c-3.1-1.1-3.7-1-5.5,1.3c-0.3,0.4-0.7,0.8-1,1.2c-0.3,0.3-0.5,0.5-0.8,0.8
			c-0.1,0.1-0.2,0.2-0.2,0.2c-0.3-0.1-0.7-0.2-1-0.4c-1.2-0.6-2.3-1.3-3.5-1.9c0,0,0,0,0,0c-0.7-0.4-1.3-0.8-2-1.3
			c-0.1-0.1-0.2-0.2-0.3-0.2c-0.1-0.1-0.2-0.2-0.3-0.2c-2.1-1.2-2.1-1.2-1.7-3.5c0.1-0.3,0.2-0.5,0.3-0.8c0.2-0.5,0.3-1,0.5-1.5
			c0.1-0.2,0.2-0.5,0.2-0.8c0-0.3,0.2-0.8,0.1-1c-0.9-1.2-1.9-2.4-2.8-3.5c-0.2-1-0.8-1.4-1.8-1.3c-1.2,0.1-2.4,0.2-3.6,0.3
			c-0.9,0.1-1.4-0.3-1.6-1.3c-0.7-2.8-1.4-5.6-2.1-8.4c-0.1-0.3,0.2-0.8,0.4-1c1.4-0.8,2.9-1.4,4.3-2.2c0.3-0.2,0.5-0.6,0.6-0.9
			c0.3-1.4,0.4-2.9,0.7-4.3c0.2-0.8,0-1.4-0.6-2c-1.2-1.1-2.3-2.2-3.5-3.4c1.7-2.9,3.4-5.6,5.1-8.4c0.2-0.3,0.8-0.5,1.2-0.4
			c1.2,0.3,2.3,0.6,3.4,1.1c1.2,0.6,2,0.1,2.9-0.6c0.8-0.7,1.8-1.4,2.7-1.9c1-0.5,1.3-1.2,1.1-2.2c0-0.3-0.1-0.6-0.2-0.8
			c-0.6-3-0.2-3.6,2.7-4.3c1.9-0.5,3.8-1,5.8-1.5c0.2,0,0.5,0,0.7,0c0,0.1,0,0.2,0,0.2c-2.7,0.7-5.3,1.3-8,2
			c-1.2,0.2-0.6,1.1-0.7,1.7c0,1.6,0,3.2,0,4.7c-0.3,0.2-0.7,0.3-1,0.5c-0.9,0.6-2,1.2-2.8,2c-1,1-2,1.3-3.2,0.8
			c-0.7-0.2-1.3-0.5-2-0.7c-0.3-0.1-0.7-0.2-1-0.3c-0.2-0.1-0.5-0.2-0.8-0.2c-0.6,0.9-1.2,1.8-1.8,2.7c-0.2,0.3-0.3,0.5-0.5,0.8
			c-0.9,1.4-1.8,2.7-2.6,4.1c-0.1,0.2,0.4,0.7,0.6,1.1c0.3,0.3,0.7,0.7,1,1c0.2,0.2,0.3,0.3,0.5,0.5c0.6,0.6,1.2,1.2,1.8,1.7
			c-0.3,2.2-0.5,4.4-0.8,6.6c0,0.2-0.4,0.5-0.7,0.6c-1.2,0.7-2.4,1.3-3.6,1.9c-0.9,0.4-1,0.9-0.8,1.8c0.4,1.6,0.8,3.2,1.2,4.8
			c0.1,0.2,0.2,0.3,0.2,0.5c0.2,0.7,0.3,1.3,0.5,2c-0.1,0.8,0.5,0.8,1,0.7c1.2-0.1,2.4-0.1,3.6-0.3c1-0.1,1.7,0.2,2.2,1
			c0.2,0.3,0.3,0.5,0.5,0.8c0.4,0.6,0.8,1.2,1.2,1.7c0.3,0.4,0.7,0.8,1,1.2c0.7,0.7,0.5,1.5,0.2,2.4c-0.2,0.5-0.3,0.9-0.4,1.4
			c-0.2,0.4-0.3,0.8-0.5,1.2c-0.1,0.3-0.2,0.7-0.3,1c-0.3,1.1,0.7,1,1.2,1.3c0,0,0,0,0,0c0.3,0.2,0.5,0.3,0.8,0.5
			c1.8,1.1,3.6,2.3,5.4,3.4c0.2,0.1,0.9-0.1,1.2-0.4c1.1-1.1,2.1-2.3,3.2-3.5C370.5,317,370.8,317,371,317z"/>
		<path class="st9" d="M284.9,479.8c3.7-0.3,7.5-0.5,11.2-0.8c0.3,0,0.8-0.4,1-0.8c2.9-6,5.8-12,8.7-18c1-2.1,2.1-4.2,3.1-6.3
			c2.2,0.7,2.4,1.1,1.4,3.1c-2.7,5.5-5.4,11-8.1,16.4c-0.2,0.3-0.3,0.7-0.4,1c-0.1,0.2-0.2,0.3-0.3,0.5c-0.6,1.2-1.3,2.4-1.9,3.6
			c-0.4,0.9-0.7,1.9-1.1,2.8c-0.2,0.1-0.5,0.2-0.7,0.3c-2,0.1-4,0.2-6,0.3c-0.2,0-0.3,0-0.5,0c-2.3,0.1-4.6,0.1-7,0.2
			c-0.4,0-0.9-0.1-1.3-0.2c0.1-0.2,0.2-0.4,0.2-0.5l0,0c0.2-0.2,0.3-0.5,0.5-0.7l0,0c0.1-0.1,0.2-0.2,0.2-0.3
			c0.2-0.2,0.5-0.5,0.7-0.7C284.8,479.7,284.8,479.7,284.9,479.8z"/>
		<path class="st10" d="M180.7,479c7.4-0.1,14.7-0.1,22.1-0.2c4.9,0,9.8,0,14.7-0.1c0,0.9,0,1.8,0,2.7c-0.1,0.1-0.2,0.2-0.3,0.3
			c-0.1,0.1-0.2,0.2-0.3,0.2c-1.6,0-3.2,0-4.8,0c-0.2-0.1-0.3-0.2-0.5-0.2c-4.7-0.1-9.4-0.2-14.1-0.3c-5-0.1-9.9,0-14.9-0.1
			c-0.4-0.1-0.8-0.4-1.3-0.4c-0.7-0.1-1.4,0-2.2,0C179.4,479.9,179.8,479.3,180.7,479z"/>
		<path class="st4" d="M182.8,481.4c5,0,9.9,0,14.9,0.1c4.7,0.1,9.4,0.2,14.1,0.3c0.2,0,0.3,0.1,0.5,0.2c-9.3,0-18.7,0-28,0
			c-26.1,0-52.2,0-78.3,0c-9.2,0-18.4,0-27.6-0.1c0-0.1,0-0.3,0-0.4c8,0,15.9,0,23.9,0c0.5,0,1.1,0,1.6,0c0.7,0,1.3,0,2,0
			c14.8,0,29.5,0,44.3,0c0.5,0,1,0,1.5,0C161.9,481.4,172.3,481.4,182.8,481.4z"/>
		<path class="st11" d="M410.2,388.9c0.6-2.1,1.2-4.1,1.8-6.2c1.1-4.4,2.2-8.8,3.4-13.2c0.5-1.7,0.5-3.2,0.1-4.9
			c-0.4-1.7-0.6-3.5-0.9-5.2c0.1,0,0.3,0,0.4-0.1c0.4,2.1,0.8,4.3,1.2,6.6c0.7-2.5,1.3-4.9,1.9-7.3c0.1,0,0.2,0,0.3,0.1
			c-1.4,5.8-2.8,11.6-4.2,17.3c1.8-2,3.6-4,5.5-6c0.1,0.1,0.1,0.1,0.2,0.2c-1.9,2.4-3.8,4.7-5.6,7.1c-0.2,0.3-0.5,0.6-0.6,0.9
			c-1,3.8-1.9,7.6-2.8,11.5c-0.1,0.5-0.3,1-0.4,1.5c-0.2,0.7-0.3,1.3-0.5,2c-0.6,2.4-1.2,4.8-1.8,7.2c-0.1,0.3-0.1,0.6-0.2,0.9
			c-0.6,2.4-1.1,4.8-1.7,7.2c-0.1,0.5-0.3,1-0.4,1.5c-0.6,2.6-1.2,5.2-1.8,7.7c-0.1,0.6-0.3,1.3-0.4,1.9c-0.4,2-0.9,4-1.3,5.9
			c-0.2,0.8-0.3,1.6-0.5,2.4c-0.8,4.1-1.6,8.2-2.4,12.3c-0.1,0-0.3,0-0.4,0c0.4-2.6,0.9-5.1,1.3-7.7c0.1-0.7,0.2-1.3,0.3-2
			c0.6-2.7,1.1-5.3,1.7-8c0.1-0.4,0.2-0.8,0.3-1.3c0.5-2.3,1-4.7,1.5-7c0.2-0.7,0.3-1.3,0.5-2c0.6-2.7,1.2-5.4,1.8-8
			c0.1-0.2,0.1-0.3,0.2-0.5c0.6-2.4,1.2-4.9,1.8-7.3c0.1-0.2,0.1-0.5,0.2-0.7C409.1,393.5,409.7,391.2,410.2,388.9z"/>
		<path class="st12" d="M244,351.6c4.2,1.2,8.4,2.4,13,3.6c-1.5-6.2-2.9-12.1-4.3-18c0-0.1-0.1-0.2-0.1-0.3c-0.8-3.7-1.7-7.4-2.5-11
			c0.1,0,0.2,0,0.3-0.1c1,4.2,2,8.4,3.1,12.6c0.6,2.4,1.2,4.8,1.8,7.2c0,0,0,0.1,0,0.1c0.8,3.3,1.6,6.7,2.4,10.2
			c-2.8-0.7-5.4-1.4-8-2.1c-0.1,0-0.1-0.1-0.2-0.1c-7.3-2.1-14.6-4.1-21.9-6.2c-0.1,0-0.2-0.1-0.4-0.1c-3.5-1-7-2.1-10.5-3.1
			c0-0.1,0-0.3,0-0.4c8.8,2.5,17.5,4.9,26.3,7.4C243.3,351.5,243.7,351.5,244,351.6z"/>
		<path class="st13" d="M179.8,231.4c0.2,0.5,0.3,1,0.6,1.3c0.6,0.8,0.8,1.4-0.1,2.1c-0.2,0.2-0.1,0.7-0.1,1
			c0.1,0.4,0.3,0.8,0.2,1.4c-0.2-0.3-0.4-0.7-0.5-1c-1.2-2.5-2.4-5-3.6-7.5c-0.6-1.3-1.4-1.8-2.3-1.4c-1,0.5-1,1.4-0.7,2.5
			c0.4,1.5,0.7,3,1,4.5c-0.5-0.9-0.8-0.2-1.3,0.1c-0.8,0.6-1.6,1.3-2.5,1.7c-0.7,0.3-1.4,0.1-1.1-1c-0.7,0-1.3-0.1-2.2-0.1
			c0.8-1.3,1.4-2.4,2.1-3.5c1.2,0,2.4,0,3.7,0c-0.2-0.7-0.2-1.2-0.4-1.6c-0.2-0.4-0.6-0.6-0.9-0.9c0.3-0.3,0.6-0.6,0.8-0.9
			c0.5-1.1,1.5-1.8,2.4-1.3c1.1,0.6,2,1.5,3.1,2.2c-0.3,0.1-0.5,0.1-0.8,0.2C177.6,230.4,178,231.7,179.8,231.4z"/>
		<path class="st12" d="M395.5,448.2c-0.9-5.2-1.8-10.3-2.7-15.5c-0.2-1.7-0.4-3.4-0.7-5.1c-0.3-2.2-0.6-4.4-0.9-6.7
			c-0.4-4.6-0.8-9.1-1-13.7c-0.3-5.8-0.3-11.6-0.5-17.3c0-0.8-0.3-1.5-0.6-2.2c-1.1-2.4-2.3-4.7-3.5-7c0.1-0.1,0.3-0.1,0.4-0.2
			c1.2,2.3,2.4,4.7,3.6,7.1c0-0.3,0.1-0.6,0.1-0.9c0.1,0,0.2,0,0.4,0c0,4,0.1,8,0.1,12c0,1.1,0.3,2.1,0.4,3.2c0,0,0,0,0,0
			c0,2.3-0.1,4.5,0.1,6.8c0.2,3.8,0.6,7.5,1,11.2c0,0.2,0.2,0.5,0.2,0.7c0,0.6,0.1,1.2,0.1,1.8c0.1,0.6,0.1,1.2,0.2,1.8
			c0.5,3.9,1.1,7.8,1.6,11.7c0.1,0.7,0.2,1.4,0.3,2.1c0,0.5,0.1,1,0.1,1.5c0.5,2.9,0.9,5.9,1.4,8.8
			C395.7,448.2,395.6,448.2,395.5,448.2z"/>
		<path class="st5" d="M178,228.9c-1-0.8-2-1.6-3.1-2.2c-0.9-0.5-1.9,0.2-2.4,1.3c-0.1,0.4-0.5,0.6-0.8,0.9c-0.9,0-1.9,0-2.8,0
			c-0.3-0.1-0.6-0.1-0.9-0.2c-0.2-0.3-0.3-0.5-0.6-0.8c1.1-0.8,2.2-1.5,3.2-2.2c0.2-0.1,0.5-0.2,0.7-0.2c2.4-0.2,4.9-0.4,7.3-0.5
			c0.4,0,0.9,0.2,1.1,0.5c0.9,1,1.8,2.1,2.7,3.1c0,0,0,0.1,0,0.2C181,228.9,179.5,228.9,178,228.9z"/>
		<path class="st12" d="M403.5,447.3c0.5-0.6,0.9-1.3,1.5-1.9c1-1.1,2-2,3.1-3c0.1-0.1,0.2-0.1,0.2-0.2c4-2.6,7.9-5.3,11.9-7.9
			c0.4-0.1,0.9-0.2,1.3-0.3c7.4-3.1,15.1-4.5,23.1-4c0,0.1,0,0.2,0,0.4c-2.4,0-4.8,0-7.4,0c1.9,1.6,3.7,2.8,5,4.4
			c1.4,1.5,2.4,3.3,3.5,5c-0.2,0.1-0.3,0.2-0.5,0.3c-0.1-0.3-0.3-0.6-0.4-0.8c-1.6-3.1-3.9-5.5-6.8-7.5c-1.1-0.8-2.2-1.1-3.6-0.8
			c-5.7,1-11.1,2.6-16.2,5.4c-5,2.6-9.4,6-13.3,10C404.4,446.5,403.9,446.9,403.5,447.3z"/>
		<path class="st1" d="M217.3,481.8c0.1-0.1,0.2-0.2,0.3-0.3c21.9,0,43.8,0,65.7,0c-0.1,0.2-0.2,0.4-0.2,0.5c-21.4,0-42.8,0-64.2,0
			c-0.5,0-1,0-1.5,0C217.3,481.9,217.2,481.8,217.3,481.8z"/>
		<path class="st4" d="M178,228.9c1.5,0,3,0,4.5,0c0.1,0,0.2,0,0.3,0c2.6,0,5.1,0,7.7,0c0.9,0,1.8,0.1,1.8,1.2
			c0,1.1-0.8,1.3-1.7,1.3c-1.7,0-3.5,0-5.2,0c-1.8,0-3.7,0-5.5,0c-1.8,0.3-2.1-1-2.5-2.3C177.5,229,177.8,228.9,178,228.9z"/>
		<path class="st11" d="M231.3,332c-0.8,5.6,1.6,9.7,5.9,13c1.2,1,2.6,1.8,3.8,2.8c0.2,0.2,0.4,0.5,0.6,0.7c-4.1-2-7.6-4.8-9.9-8.8
			c-0.8-1.3-0.9-3.1-1.1-4.6c-0.4-3.8,0.5-7.5,1.2-11.2c0.2-1,0.2-2.1,0.3-3.2c0.2-0.3,0.4-0.6,0.4-0.9c0.5-4.9,1-9.8,1.4-14.2
			c0.4,0.7,0.3,6.9-0.5,12.2c0,0-0.1,0.1-0.1,0.2c-0.7,4.5-1.4,9.1-2.1,13.6c0,0.1,0,0.2,0,0.3l0,0
			C231.2,331.8,231.3,331.9,231.3,332z"/>
		<path class="st12" d="M381.2,427.6c1.5,1.8,3.1,3.6,4.4,5.5c2.5,3.6,4.9,7.4,7.3,11.1c0.3,0.4,0.4,1,0.5,1.5
			c-0.3-0.4-0.6-0.7-0.8-1.1c-0.2-0.3-0.4-0.7-0.6-1c-2.5-3.7-5-7.4-7.6-11.1c-0.1-0.1-0.2-0.2-0.3-0.4c-1.1-1.3-2.1-2.5-3.2-3.8
			c-3.7-3.6-7.4-7.2-11.2-10.8c-0.3-0.3-0.8-0.4-1.2-0.4c-2.5-0.2-4.9-0.4-7.6-0.7c2.6-0.6,5-0.2,7.8,0.2c-1.2-0.9-2-1.7-2.9-2.4
			c0.1-0.1,0.1-0.1,0.2-0.2c3.6,3,7.3,6,10.9,9.1C378.5,424.6,379.8,426.2,381.2,427.6z"/>
		<path class="st4" d="M168.9,228.9c0.9,0,1.9,0,2.8,0c0.3,0.3,0.7,0.6,0.9,0.9c0.2,0.4,0.2,0.9,0.4,1.6c-1.3,0-2.5,0-3.7,0
			c-1.1,0-2.2-0.1-3.4,0c-1.7,0.1-3.1-0.4-4.5-1.2c1.5-1.2,3.3-1.4,5.1-1.3c0.5,0,1,0,1.5,0C168.3,228.9,168.6,228.9,168.9,228.9z"
			/>
		<path class="st14" d="M422.5,481.5c0.7,0,1.3-0.1,2-0.1c6.6,0,13.2,0,19.8,0c0.7,0,1.3,0,2,0c3.9,0,7.8,0,11.7,0
			c0.3,0,0.7,0,1,0.1c0,0.1,0,0.3,0,0.4c-11.9,0-23.8,0.1-35.7,0.1c-0.2,0-0.5,0-0.7-0.1C422.5,481.8,422.5,481.7,422.5,481.5z"/>
		<path class="st14" d="M78.3,481.5c0,0.1,0,0.3,0,0.4c-0.2,0-0.5,0.1-0.7,0.1c-11.9,0-23.8,0-35.7-0.1c0-0.1,0-0.3,0-0.4
			c4.9,0,9.8,0,14.7-0.1c6.4,0,12.9,0,19.3,0C76.6,481.5,77.4,481.5,78.3,481.5z"/>
		<path class="st11" d="M401.7,440c-0.7,2.4-1.5,4.8-2.2,7.3c-0.1,0-0.3,0-0.4,0c2.3-9.6,6-18.8,11-27.3c0.2,0,0.3,0.1,0.5,0.1
			c-0.6,1.2-1.2,2.4-1.9,3.7c-0.2,0.4-0.4,0.8-0.6,1.1c-0.6,1.2-1.2,2.5-1.8,3.7c-0.1,0.2-0.2,0.5-0.4,0.7c-1.2,3.1-2.5,6.2-3.7,9.3
			C402,439,401.8,439.5,401.7,440z"/>
		<path class="st15" d="M223.2,313.7c-0.4-1.6-0.9-3.3-1.2-4.9c-0.8-5.2,0.4-10.2,2.2-15.1c0.6-1.8,1.4-3.5,2.3-5.2
			c-0.1,0.3-0.1,0.6-0.2,0.8c-1.5,4.4-3.2,8.8-3.7,13.5c-0.4,3.2-0.3,6.3,0.6,9.4c0.1,0.5,0.1,1.1,0.2,1.6
			C223.4,313.8,223.3,313.8,223.2,313.7z"/>
		<path class="st6" d="M54.8,50.8c0.1,0.1,0.2,0.2,0.3,0.3c-2.8,3.1-5.8,6.1-8.4,9.3c-4,4.9-7.2,10.4-9.6,16.2
			c-0.2,0.4-0.4,0.8-0.8,1.1c0.3-0.9,0.6-1.7,1-2.6c2.5-5.4,5.4-10.7,9.3-15.3c2.4-2.8,4.8-5.6,7.3-8.3C53.9,51.2,54.4,51,54.8,50.8
			z"/>
		<path class="st6" d="M157.3,178.8c0.1,0,0.3,0,0.4,0c-1.7,9.9-1.8,19.9-1.7,29.9c0,0.6,0.1,1.2,0.1,1.9c-0.1,0-0.2,0-0.3,0
			c-0.1-4.6-0.3-9.2-0.2-13.7c0-3.1,0.3-6.1,0.5-9.2C156.4,184.6,156.9,181.7,157.3,178.8z"/>
		<path class="st15" d="M203.5,268.9c-0.2,0.1-0.3,0.3-0.5,0.3c-6.2,1.2-11.1,4.4-15.4,8.9c-0.1,0.1-0.2,0.2-0.4,0.3
			c0,0-0.1,0-0.3-0.1c0.6-0.7,1.1-1.4,1.7-2c3.8-3.8,8.2-6.5,13.5-7.4C202.6,268.8,203.1,268.9,203.5,268.9
			C203.5,268.9,203.5,268.9,203.5,268.9z"/>
		<path class="st16" d="M41.8,481.5c0,0.1,0,0.3,0,0.4c-3.9,0-7.9,0.1-11.8,0.1c-2.9,0-5.8,0-8.7-0.1c-0.5,0-0.9-0.1-1.4-0.4
			C27.1,481.5,34.5,481.5,41.8,481.5z"/>
		<path class="st16" d="M459,481.9c0-0.1,0-0.3,0-0.4c0.7,0,1.3,0,2-0.1c2.8,0,5.5,0,8.3,0c1,0,2,0,3,0c1.3,0,2.7,0,4,0
			c0.8,0,1.5,0,2.3,0.1c0.6,0,1.2,0,1.7,0c0.1,0.1,0.3,0.3,0.4,0.4c-6.7,0-13.5,0-20.2,0C460,482,459.5,482,459,481.9z"/>
		<path class="st15" d="M194.3,255.4c-4.3-0.3-8.5,0.2-12.4,2.1c-1,0.5-2.1,1.1-3.1,1.6c0-0.1-0.1-0.1-0.2-0.2
			c3.3-2.7,7.2-3.9,11.4-4.1c1.3-0.1,2.6,0.1,4,0.2C194.1,255.1,194.2,255.2,194.3,255.4z"/>
		<path class="st14" d="M155.8,210.5c0.1,0,0.2,0,0.3,0c0.6,4.1,1.2,8.3,1.9,12.4c0.1,0.6,0.6,1.1,0.9,1.7c-0.2,1.9,0.6,3.4,1.5,5
			c-0.6,0.2-0.6,0.2-0.8-0.4c-0.9-3.1-1.9-6.2-2.6-9.3c-0.6-2.5-0.9-5-1.3-7.6C155.7,211.7,155.8,211.1,155.8,210.5z"/>
		<path class="st8" d="M316.5,260.3c-2.4,3-5.3,5.6-8.5,7.8c-0.1-0.1-0.2-0.2-0.2-0.2c2.8-2.6,5.7-5.2,8.5-7.8
			C316.3,260.1,316.4,260.2,316.5,260.3z"/>
		<path class="st17" d="M323.9,250.4c1.9-3.4,3.8-6.8,5.6-10.2c-1.1,3.8-3,7.3-5.4,10.4C324,250.5,323.9,250.5,323.9,250.4z"/>
		<path class="st17" d="M170.7,251.1c-2.3-3.2-4.3-6.5-5.7-10.1c0.1-0.1,0.2-0.1,0.3-0.2c1.9,3.3,3.9,6.7,5.8,10
			C170.9,250.9,170.8,251,170.7,251.1z"/>
		<path class="st8" d="M287.3,280.5c3.4-1.8,6.7-3.6,10.1-5.4C296.3,276.7,289.2,280.6,287.3,280.5z"/>
		<path class="st8" d="M440.1,149.2c-3.7-1.3-7.3-2.6-11-3.9c4,0.5,7.6,1.8,11.2,3.6C440.2,149,440.2,149.1,440.1,149.2z"/>
		<path class="st17" d="M356,174c-1.5,2.8-3,5.6-4.6,8.4c-0.3,0.5-0.6,0.9-0.9,1.4c-0.1-0.1-0.2-0.1-0.3-0.2
			c0.8-1.6,1.5-3.2,2.4-4.8c0.8-1.5,1.7-2.9,2.7-4.3C355.4,174.3,355.8,174.2,356,174C356,174,356,174,356,174z"/>
		<path class="st8" d="M363.5,164c2-3.3,4.9-5.7,8-7.9c0.1,0.1,0.2,0.2,0.3,0.3C369,158.9,366.2,161.5,363.5,164z"/>
		<path class="st8" d="M460.5,161.2c-0.7-0.4-1.5-0.8-2.2-1.3c-2.1-1.4-4.2-2.9-6.2-4.3c-0.3-0.2-0.4-0.7-0.6-0.9
			C454.7,156.4,457.9,158.4,460.5,161.2L460.5,161.2z"/>
		<path class="st17" d="M333.9,228.8c1.2-3.7,2.4-7.4,3.6-11c0.2,0.1,0.4,0.1,0.5,0.2c-1.2,3.7-2.4,7.4-3.6,11
			C334.3,228.9,334.1,228.8,333.9,228.8z"/>
		<path class="st14" d="M405.4,143.7c3.9-1,7.7-1.1,11.6-0.4C413.2,143.5,409.3,143.6,405.4,143.7z"/>
		<path class="st17" d="M345.6,195.5c-1.3,3.6-2.6,7.1-3.8,10.7c-0.2-0.1-0.3-0.1-0.5-0.2c1.3-3.6,2.6-7.2,3.8-10.8
			C345.3,195.3,345.4,195.4,345.6,195.5z"/>
		<path class="st7" d="M396.5,270.5c-1-0.6-2-1.2-3-1.8c-0.3-0.2-0.5-0.3-0.8-0.5c-0.4-0.4-0.8-0.8-1.3-1.2l0,0c1,0.5,2,1,3,1.5
			c0.2,0.1,0.3,0.2,0.5,0.3c0.8,0.6,1.7,1.2,2.5,1.7c-0.1,0.5-0.2,1-0.3,1.5c-0.4,1.1-0.8,2.2-1.2,3.3c0,0.2,0,0.3,0,0.5
			c0,0.3,0,0.7,0.1,1c0.1,0.4,0.4,0.7,0.6,1c0,0,0,0,0,0c-1.4-0.6-1.5-0.9-1.2-2.8c0.1-0.2,0.2-0.5,0.3-0.7c0.3-1,0.7-2,1-3
			C396.7,271,396.6,270.7,396.5,270.5z"/>
		<path class="st8" d="M382.5,149.3c3.6-1.3,7.3-2.5,10.9-3.8c0.1,0.2,0.1,0.3,0.2,0.5c-3.6,1.3-7.3,2.6-10.9,3.9
			C382.7,149.7,382.6,149.5,382.5,149.3z"/>
		<path class="st14" d="M398.7,442c0.1-0.6,0.3-1.2,0.4-1.8c0.1,0,0.3,0,0.4,0c-0.4,2.8-0.9,5.5-1.3,8.3c-0.1,0.5-0.1,1-0.1,1.5
			c-0.2,0-0.4,0-0.6,0c0.2-1.4,0.4-2.7,0.6-4.1C398.3,444.6,398.5,443.3,398.7,442z"/>
		<path class="st11" d="M216.8,344c0,0.1,0,0.3,0,0.4c-0.3,0.3-0.7,0.6-1,1c-1.2,1.9-2.4,3.9-3.5,5.8c0.6-1.2,1.2-2.5,1.8-3.7
			c0.4-0.8,0.8-1.5,1.2-2.3C215.7,344.8,215.6,343.7,216.8,344z"/>
		<path class="st8" d="M469.5,170.3c1.5,1.1,2.5,2.7,3.3,4.3c-0.2,0.1-0.3,0.2-0.5,0.3C471.4,173.3,470.5,171.8,469.5,170.3
			L469.5,170.3z"/>
		<path class="st14" d="M33.6,85.3c0.8-2.5,1.6-4.9,2.4-7.4c0.1,0,0.2,0.1,0.3,0.1c-0.8,2.5-1.6,4.9-2.4,7.4
			C33.7,85.3,33.7,85.3,33.6,85.3z"/>
		<path class="st11" d="M199.3,469.8c0.8,0.4,1.6,0.8,2.3,1.3c0.3,0.2,0.5,0.8,0.7,1.2c-1.3-0.6-2.4-1.2-3.6-1.8
			C199,470.3,199.1,470,199.3,469.8z"/>
		<path class="st12" d="M199.3,465.3c0.9,0,1.9-0.1,2.8,0c0.4,0,0.7,0.4,1.3,0.7c-1.5,0-2.8,0-4.1,0
			C199.3,465.7,199.3,465.5,199.3,465.3z"/>
		<path class="st12" d="M195.7,471.8c1,0.7,1.7,1.5,1.5,2.8c-0.8-0.9-1.6-1.7-2.4-2.6C195.1,471.9,195.4,471.9,195.7,471.8z"/>
		<path class="st12" d="M191.6,473.4c1.1,1.3,1.3,1.8,0.8,3c-0.5-1-1-1.9-1.5-2.9C191.2,473.5,191.4,473.5,191.6,473.4z"/>
		<path class="st8" d="M160.5,229.5c-0.9-1.5-1.7-3.1-1.5-5C159.5,226.2,160,227.8,160.5,229.5z"/>
		<path class="st13" d="M168.9,228.9c-0.3,0-0.6,0-0.9,0c0,0-0.1-0.1-0.1-0.1s0-0.1,0-0.1C168.3,228.8,168.6,228.8,168.9,228.9z"/>
		<path class="st7" d="M199.4,462.2c0,0-0.1,0-0.1,0c0-0.1,0-0.3,0-0.4C199.3,462,199.3,462.1,199.4,462.2z"/>
		<path class="st18" d="M288.5,245.2c0.1,0.1,0.2,0.1,0.3,0.2C288.6,245.4,288.6,245.3,288.5,245.2z"/>
		<path class="st18" d="M286.5,244c0.1,0.1,0.2,0.1,0.3,0.2C286.6,244.1,286.6,244.1,286.5,244z"/>
		<path class="st18" d="M285.2,243.2c0.1,0.1,0.2,0.1,0.3,0.2C285.4,243.4,285.3,243.3,285.2,243.2z"/>
		<path class="st18" d="M289.7,246c0.1,0.1,0.2,0.1,0.3,0.2C289.9,246.1,289.8,246.1,289.7,246z"/>
		<path class="st13" d="M182.7,228.8c-0.1,0-0.2,0-0.3,0c0-0.1,0-0.1,0-0.2C182.6,228.7,182.7,228.8,182.7,228.8z"/>
		<path class="st18" d="M291,246.8c0.1,0.1,0.2,0.1,0.3,0.2C291.2,246.9,291.1,246.8,291,246.8z"/>
		<path class="st18" d="M293,248c0.1,0.1,0.2,0.1,0.3,0.2C293.1,248.1,293.1,248.1,293,248z"/>
		<path class="st18" d="M294.2,248.7c0.1,0.1,0.2,0.1,0.3,0.2C294.4,248.9,294.3,248.8,294.2,248.7z"/>
		<path class="st18" d="M295.5,249.5c0.1,0.1,0.2,0.1,0.3,0.2C295.6,249.6,295.6,249.6,295.5,249.5z"/>
		<path class="st18" d="M195.1,213c0.1,0.1,0.1,0.2,0.2,0.2C195.2,213.2,195.1,213.1,195.1,213z"/>
		<path class="st18" d="M194.6,211.8c0.1,0.1,0.1,0.2,0.2,0.2C194.7,211.9,194.6,211.8,194.6,211.8z"/>
		<path class="st17" d="M356,174c0-0.1,0-0.1,0-0.2c0,0,0.1,0,0.1,0C356.1,173.9,356,173.9,356,174C356,174,356,174,356,174z"/>
		<path class="st8" d="M469.5,170.2c-0.1,0-0.1,0-0.2,0c0-0.1,0-0.1,0-0.2C469.4,170.1,469.5,170.2,469.5,170.2L469.5,170.2z"/>
		<path class="st18" d="M195.8,164.5c0,0.1,0,0.2,0,0.2c-0.1-0.1-0.1-0.1-0.2-0.2C195.6,164.6,195.7,164.5,195.8,164.5z"/>
		<path class="st8" d="M460.5,161.3c0.1,0.1,0.1,0.1,0.2,0.2c0,0-0.1,0-0.1,0C460.6,161.4,460.5,161.3,460.5,161.3
			C460.5,161.2,460.5,161.3,460.5,161.3z"/>
		<path class="st18" d="M190.3,146.5c0.1,0.1,0.1,0.2,0.2,0.2C190.4,146.7,190.4,146.6,190.3,146.5z"/>
		<path class="st18" d="M222,135.3c-0.1,0.1-0.2,0.1-0.3,0.2C221.8,135.5,221.9,135.4,222,135.3z"/>
		<path class="st18" d="M284,134.6c-0.1,0.1-0.2,0.1-0.3,0.2C283.8,134.7,283.9,134.6,284,134.6z"/>
		<path class="st18" d="M284.7,134.1c-0.1,0.1-0.2,0.1-0.3,0.2C284.6,134.2,284.6,134.1,284.7,134.1z"/>
		<path class="st18" d="M289.7,130.8c-0.1,0.1-0.2,0.1-0.3,0.2C289.6,130.9,289.7,130.9,289.7,130.8z"/>
		<path class="st18" d="M290.5,130.3c-0.1,0-0.2,0.1-0.2,0.1C290.3,130.4,290.4,130.4,290.5,130.3z"/>
		<path class="st18" d="M294,128.1c-0.1,0.1-0.2,0.1-0.3,0.2C293.8,128.2,293.9,128.1,294,128.1z"/>
		<path class="st18" d="M294.7,127.6c-0.1,0.1-0.2,0.1-0.3,0.2C294.6,127.7,294.7,127.6,294.7,127.6z"/>
		<path class="st18" d="M295.5,127.1c-0.1,0-0.2,0.1-0.2,0.1C295.3,127.2,295.4,127.1,295.5,127.1z"/>
		<path class="st19" d="M261.2,209.5c0,1.1,0,2.2,0,3.3c-0.1,0-0.3,0-0.4,0c0-1.1-0.1-2.2-0.1-3.2c-0.1-0.7,0.2-1.1,0.9-1.4
			c3.5-1.6,6.6-3.8,9.4-6.4c4-3.7,6.8-8.1,7.4-13.6c1.7-17.1-14.7-29-27.2-27.9c-13.6,1.2-23.4,10.6-24,25.3
			c-0.2,4.4,1.1,8.5,3.3,12.3c-0.1,0.1-0.2,0.2-0.3,0.3c-1.6-2.1-2.4-4.6-3-7.1c-1.3-5.5-0.5-10.8,1.6-15.8
			c3.7-9,10.8-13.7,20.2-15.3c13.9-2.3,27.6,8.9,29.8,21.4c1.5,8.9-1.6,16.1-8.3,21.7c-2.6,2.2-5.6,3.8-8.5,5.7
			C261.2,208.6,260.8,208.8,261.2,209.5z"/>
		<path class="st9" d="M260.8,212.7c0.1,0,0.3,0,0.4,0c0,1,0,2,0,3.2c-1.7,0-3.4,0-5,0c-3,0-5.9,0.2-8.9,0.2c-1,0-2-0.3-3-0.6
			c-0.1,0-0.2-0.5-0.2-0.8c0-0.6,0.1-1.2,0.2-1.8c0.1,0,0.2,0,0.2,0c0,0.8,0,1.6,0,2.5c1,0,2,0,3.1,0c0-0.6,0-1.2,0-1.7
			c0.1-2.8,0.2-5.5,0.3-8.3c0.1,0,0.2,0,0.4,0c0,3.3,0,6.6,0,9.9c2.8,0,5.8,0,8.6,0c0.2-4.2,0.5-8.3,0.7-12.4c0.1,0,0.3,0,0.4,0
			c-0.2,4.1-0.5,8.2-0.7,12.4c1.2,0,2.3,0,3.5,0C260.8,214.5,260.8,213.6,260.8,212.7z"/>
		<path class="st15" d="M244.2,220.6c5.9-0.8,15.7-0.6,17,0C255.5,220.6,249.9,220.6,244.2,220.6z"/>
		<path class="st15" d="M230,198c0.1-0.1,0.2-0.2,0.3-0.3c1.5,1.8,2.9,3.7,4.5,5.3c2.7,2.8,6.1,4.8,9.6,6.6c0,0.1-0.1,0.1-0.1,0.2
			c-1.5-0.8-3.1-1.5-4.6-2.4c-1.4-0.8-2.9-1.5-4.1-2.6c-1.4-1.3-2.6-2.9-3.8-4.4C231.1,199.7,230.6,198.8,230,198z"/>
		<path class="st15" d="M259.5,224c-4.5,0-9,0-13.5,0c0-0.2,0-0.4,0-0.6c4.5,0,9,0,13.6,0C259.5,223.6,259.5,223.8,259.5,224z"/>
		<path class="st19" d="M249.9,226.7c1.8,0,3.7,0,5.5,0c0,0.1,0,0.2,0,0.3C253.5,227.6,251.7,227.4,249.9,226.7z"/>
		<path class="st15" d="M244.5,213c-0.1,0-0.2,0-0.2,0c0-1.1,0-2.1,0-3.2c0-0.1,0.1-0.1,0.1-0.2C244.4,210.7,244.4,211.9,244.5,213z
			"/>
		<path class="st9" d="M261.2,209.5c-0.4-0.7,0-0.9,0.6-1C261.6,208.8,261.4,209.2,261.2,209.5z"/>
		<path class="st2" d="M256.5,238.2l-0.1,0c0,0-0.1,0-0.1,0C256.3,238.2,256.4,238.2,256.5,238.2z"/>
		<path class="st19" d="M118.1,110.6c-0.4,0.1-0.9,0.1-1.1,0.3c-10.1,8.2-25,3.1-27.9-9.6c-2-8.7,3.2-17.6,11.9-20.3
			c8.4-2.6,17.7,1.8,20.9,10c0.2,0.4,0.3,0.8,0.4,1.3c-1.2-1.9-2.2-3.9-3.6-5.6c-4.1-5.1-11.4-7.1-17.6-5.1
			c-6.4,2-11.1,7.7-11.6,14.1c-0.7,7.7,3.3,14.5,10.3,17.3c7,2.8,14.6,0.8,19.5-5.2c0.2-0.2,0.3-0.4,0.5-0.6
			c0.1,0.1,0.2,0.2,0.2,0.3c-0.5,0.7-1.1,1.3-1.6,2c-0.2,0.2-0.1,0.6-0.2,0.9C118.2,110.5,118.2,110.6,118.1,110.6z"/>
		<path class="st19" d="M118.8,111c1.2,1.1,2.4,2.1,3.5,3.2c3.4,3.4,6.7,6.8,10.1,10.2c0.2,0.2,0.3,0.4,0.4,0.6
			c-0.1,0.1-0.1,0.1-0.2,0.2c-4.7-4.7-9.3-9.4-14-14C118.7,111.1,118.7,111,118.8,111z"/>
		<path class="st15" d="M120,107.5c-0.1-0.1-0.2-0.2-0.2-0.3c0.8-1.8,1.8-3.5,2.4-5.3c0.6-1.8,0.6-3.7,0.9-5.5
			C123.3,100.5,122.5,104.2,120,107.5z"/>
		<path class="st19" d="M133.3,125.5c0,0.1,0.1,0.1,0.1,0.2c-0.1,0-0.2-0.1-0.2-0.1C133.2,125.6,133.2,125.5,133.3,125.5z"/>
		<path class="st19" d="M133,125.2c0.1,0.1,0.2,0.2,0.2,0.3c0,0-0.1,0.1-0.1,0.1c-0.1-0.1-0.2-0.2-0.3-0.2
			C132.9,125.3,133,125.3,133,125.2z"/>
		<path class="st19" d="M132.8,125c0.1,0.1,0.2,0.2,0.2,0.3c0,0.1-0.1,0.1-0.1,0.2c-0.1-0.1-0.2-0.1-0.3-0.2
			C132.7,125.1,132.7,125,132.8,125z"/>
		<path class="st19" d="M118.6,111.1c-0.1-0.1-0.1-0.2-0.2-0.3c0.1-0.1,0.1-0.1,0.1-0.2c0.1,0.1,0.2,0.2,0.3,0.2
			C118.7,111,118.7,111.1,118.6,111.1z"/>
		<path class="st19" d="M118.3,110.5c0.1,0.1,0.2,0.2,0.3,0.2c0,0.1-0.1,0.1-0.1,0.2c-0.1-0.1-0.2-0.2-0.2-0.3
			C118.2,110.6,118.2,110.5,118.3,110.5z"/>
		<path class="st20" d="M285.4,355.8c0.5,1.1,1,2.2,1.3,3.3c0.9,2.9,1.8,5.8,2.5,8.8c0.6,2.7-0.1,5.1-1.8,7.3
			c-0.1,0.1-0.1,0.2-0.2,0.3c-0.1,0.1-0.2,0.1-0.3,0.2c-1.8,0-3.6,0-5.4,0c0.2,0.2,0.4,0.3,0.6,0.4c1.3,0.1,2.5,0.2,3.8,0.3
			c-1.2,0.6-2.5,1.2-3.7,1.8c-1,0-2,0-3,0c-0.1-1.3,0.8-1.9,1.8-2.4c0-0.2,0-0.4,0-0.6l0,0c0.1-0.1,0.2-0.2,0.3-0.3c0,0,0,0,0,0
			c1.8-2.7,2.2-5.8,1.8-8.9c-0.4-3.2-1.1-6.3-1.7-9.5C282.7,356.3,284.1,356.1,285.4,355.8z"/>
		<path class="st17" d="M239.1,400.2c-0.2-0.2-0.3-0.4-0.5-0.5c-5.8-2.4-11.6-4.8-17.4-7.2c-0.2-0.1-0.4-0.1-0.7-0.2
			c0,3.2,0,6.3,0,9.4c0,15.6,0,31.2,0,46.8c0,1.5-0.1,2.9-0.1,4.4c0,0.4-0.1,0.9-0.1,1.3c-0.1-0.5-0.2-0.9-0.2-1.4
			c0-18.9-0.1-37.7,0-56.6c0-3.5-0.7-6.7-2.3-9.8c-0.8-1.6-1.4-3.3-2-4.9c0,0,0,0,0,0c1.1,2,2.1,4,3.2,6c0.2,0.4,0.4,0.8,0.5,1.2
			c0.4,2.1,1.7,3.1,3.6,3.9c7.2,2.9,14.4,5.9,21.6,8.9c7.8,3.2,15.5,6.5,23.3,9.7c2.8,1.2,5.6,2.3,8.4,3.5c0.3,0.1,0.7,0.3,0.9,0.7
			c-0.2,0-0.5-0.1-0.7-0.2c-11.5-4.7-23-9.4-34.6-14.2C241.1,400.7,240.1,400.5,239.1,400.2z"/>
		<path class="st2" d="M282.3,378.2c1.2-0.6,2.5-1.2,3.7-1.8c0,0,0,0,0,0c0.1-0.1,0.2-0.1,0.3-0.2c0.2,0,0.3,0,0.5-0.1
			c2-0.3,4-0.4,5.9-0.9c3.3-0.9,6.5-2.1,9.7-3.1c1,1.9,2.1,3.9,3.2,5.9c-0.4,0.1-0.6,0.1-0.9,0.1c-4.7,0-9.4,0-14.2,0
			C287.7,378.3,285,378.2,282.3,378.2z"/>
		<path class="st20" d="M218.2,457.2c-0.1,0.4-0.1,0.9-0.2,1.3c-6-0.1-12-0.2-18-0.2c-0.2-0.5-0.3-0.9-0.6-1.5c2.1,0,4,0,5.9,0
			c4,0.1,8,0.2,12.1,0.3C217.7,457.1,218,457.2,218.2,457.2z"/>
		<path class="st5" d="M290.4,378.3c4.7,0,9.4,0,14.2,0c0.6,1.1,1.2,2.3,1.8,3.4c-3.3-0.7-6.7-1.4-10-2.1
			C294.3,379.2,292.3,378.7,290.4,378.3z"/>
		<path class="st7" d="M199.5,461.5c-1.7-1.6-2-3-1.3-4.9C199.7,457.9,199.5,459.6,199.5,461.5z"/>
		<path class="st17" d="M243.2,424c-1.3-0.8-2.5-1.7-3.9-2.4c-1.8-1-3.7-1.8-5.6-2.9c0.7,0.2,1.5,0.3,2.2,0.6
			c2.1,1.1,4.2,2.2,6.3,3.4C242.7,423,242.9,423.6,243.2,424C243.3,424,243.2,424,243.2,424z"/>
		<path class="st7" d="M287.7,461C287.7,461,287.7,461,287.7,461c-0.3,0-0.7,0-1,0.1c-1.2,0.2-2.5,0.4-4,0.6c1.1-1.7,2.3-2,4.4-1.2
			C287.3,460.7,287.5,460.9,287.7,461z"/>
		<path class="st2" d="M200.3,461.5c1-1.4,2.5-1.7,4.1-1.9C203.2,460.7,201.8,461.4,200.3,461.5
			C200.2,461.5,200.3,461.5,200.3,461.5z"/>
		<path class="st17" d="M278,415.5c0.4,0.2,0.8,0.3,1.2,0.5c0,0.1-0.1,0.2-0.1,0.3c-0.4-0.2-0.8-0.3-1.2-0.5
			C277.9,415.7,277.9,415.6,278,415.5z"/>
		<path class="st17" d="M279.7,416.3c0.1,0,0.3,0.1,0.4,0.1c0,0,0,0.2,0,0.2c-0.1,0-0.3,0-0.4-0.1
			C279.7,416.4,279.7,416.4,279.7,416.3z"/>
		<path class="st17" d="M243.8,424.2c-0.2-0.1-0.3-0.2-0.5-0.2c0,0,0,0,0,0C243.4,424.1,243.6,424.2,243.8,424.2L243.8,424.2z"/>
		<path class="st17" d="M215.5,381c0.1,0.2,0.2,0.3,0.3,0.5c0,0,0,0,0,0C215.7,381.3,215.6,381.2,215.5,381L215.5,381z"/>
		<path class="st17" d="M215.5,381c0,0-0.1,0-0.1,0C215.4,381,215.5,381,215.5,381C215.5,381,215.5,381,215.5,381z"/>
		<path class="st2" d="M286.7,459.5c0,0,0.1,0.1,0.1,0.1c0,0-0.1,0-0.1,0C286.8,459.6,286.8,459.5,286.7,459.5
			C286.8,459.5,286.7,459.5,286.7,459.5z"/>
		<path class="st17" d="M243.7,424.3C243.8,424.3,243.8,424.3,243.7,424.3c0.1,0.1,0.1,0.1,0.1,0.1
			C243.8,424.3,243.8,424.3,243.7,424.3C243.8,424.2,243.7,424.3,243.7,424.3z"/>
		<path class="st19" d="M422,202.8c-3.5,3-7,6.1-10.4,9.1c-1.2,1.1-2.5,2.1-3.8,3.2c-1.7-1.6-3.4-3.1-5.1-4.7c-2.5,2-5,4-7.4,6
			c-0.1-0.1-0.1-0.1-0.2-0.2c2.5-2.2,5-4.4,7.6-6.6c1.7,1.6,3.4,3.1,5.2,4.7c1.8-1.5,3.5-2.9,5.2-4.4c2.9-2.4,5.8-4.8,8.8-7.2
			C421.9,202.7,422,202.7,422,202.8z"/>
		<path class="st19" d="M423.7,201.1c0.2-0.2,0.5-0.4,1-0.9c-3.2,0-6.2,0-9.1,0c0-0.1,0-0.3,0-0.4c3.2,0,6.4,0,9.6,0
			c0,2.8,0,5.7,0,8.6c-0.1,0-0.3,0-0.4,0c0-2.5,0-4.9,0-7.6c-0.5,0.2-0.7,0.3-0.9,0.4C423.7,201.2,423.7,201.2,423.7,201.1z"/>
		<path class="st15" d="M388.7,202.5c-0.1,0-0.2,0-0.4,0c0-2.2,0-4.3,0-6.5c0.1,0,0.2,0,0.4,0C388.7,198.2,388.7,200.4,388.7,202.5z
			"/>
		<path class="st15" d="M417.7,228.5c0-0.1,0-0.3,0-0.4c2,0,4,0,6,0c0.2,0.1,0.3,0.3,0.5,0.4C422.1,228.5,419.9,228.5,417.7,228.5z"
			/>
		<path class="st5" d="M424.2,228.5c-0.2-0.1-0.3-0.3-0.5-0.4c1.8,0,3.7,0,5.5,0c0,0.1,0,0.3,0,0.4
			C427.6,228.5,425.9,228.5,424.2,228.5z"/>
		<path class="st5" d="M388.7,196c-0.1,0-0.2,0-0.4,0c0-1.5,0-3,0-4.6c0.1,0,0.2,0,0.4,0C388.7,193,388.7,194.5,388.7,196z"/>
		<path class="st19" d="M423.1,201.9c-0.4,0.3-0.7,0.6-1.1,0.9c-0.1-0.1-0.1-0.1-0.2-0.2c0.4-0.3,0.7-0.6,1.1-0.9
			C423,201.8,423.1,201.8,423.1,201.9z"/>
		<path class="st19" d="M394.9,216.7c-0.2,0.2-0.4,0.3-0.6,0.5c-0.1-0.1-0.1-0.1-0.2-0.2c0.2-0.2,0.4-0.3,0.6-0.5
			C394.8,216.5,394.8,216.6,394.9,216.7z"/>
		<path class="st19" d="M423,201.7c0.2-0.2,0.5-0.4,0.7-0.6c0,0,0.1,0.1,0.1,0.1c-0.2,0.2-0.5,0.4-0.7,0.6
			C423.1,201.8,423,201.8,423,201.7z"/>
		<path class="st19" d="M394.7,216.5c0.1-0.1,0.2-0.2,0.4-0.4c0.1,0.1,0.1,0.1,0.2,0.2c-0.1,0.1-0.3,0.2-0.4,0.4
			C394.8,216.6,394.8,216.5,394.7,216.5z"/>
		<path class="st4" d="M281.4,356.6c0.6,3.2,1.3,6.3,1.7,9.5c0.4,3.1-0.1,6.2-1.8,8.9c0.5-1.9,1.3-3.8,1.3-5.8
			c0-2.8-0.2-5.8-0.8-8.5c-2.7-11.6-5.7-23.2-8.5-34.8c0,0,0-0.1,0.1-0.1c0.1-0.1,0.1-0.2,0.2-0.3c0.5,1.8,0.8,3.6,1.4,5.3
			c0.5,1.4,1.2,2.8,1.7,4.2c-0.2,0.1-0.3,0.3-0.5,0.4c1.7,6.9,3.5,13.9,5.2,20.8C281.3,356.4,281.4,356.5,281.4,356.6z"/>
		<path class="st19" d="M259.4,357.8c3.3,3.7,6.8,7.2,11.2,9.6c3.3,1.9,6.9,3.5,10.4,5.1c-0.3,0-0.7,0-1-0.1
			c-8.4-2.5-15.3-7.2-20.7-14c-0.1-0.1-0.1-0.2-0.2-0.3C259.3,358,259.3,357.9,259.4,357.8z"/>
		<path class="st15" d="M252.6,337c0,0.1,0.1,0.2,0.1,0.3c-7.5,1.7-14.2,0.1-20.4-4.4c-0.3-0.2-0.4-0.5-0.6-0.8
			c2.1,1.2,4.2,2.5,6.4,3.5C242.8,337.4,247.7,337.7,252.6,337z"/>
		<path class="st19" d="M213.3,284.3c-2.9,2.6-5.8,5.2-7.8,8.5c-1.8,3-3.2,6.3-4.8,9.4c-0.2,0.4-0.3,0.7-0.4,1.1
			c-0.1,0-0.2-0.1-0.4-0.1c0.6-1.7,1.1-3.4,1.8-5c2.3-5.5,5.9-10,10.6-13.6c0.2-0.2,0.5-0.3,0.7-0.5
			C213.2,284.2,213.2,284.2,213.3,284.3z"/>
		<path class="st15" d="M273.2,325.8c0,0,0,0.1-0.1,0.1c-3.2-0.2-6.4-0.7-9.6-0.7c-3.5,0.1-7,0.7-10.5,1.1c-0.5,0.1-0.9,0.2-1.4,0.1
			c7-2.3,14.1-2.5,21.3-0.8C273.1,325.7,273.1,325.8,273.2,325.8z"/>
		<path class="st19" d="M255.3,345.9c0,0,0-0.1,0-0.1c2.7,0,5.3,0.2,7.9,0.1c4.2-0.1,8.3-1.1,12.2-2.6c0.3-0.1,0.5-0.2,1-0.3
			C273,345.4,263.4,347.7,255.3,345.9z"/>
		<path class="st15" d="M249.6,354.3c-0.9,2.3-2.1,4.6-2.7,7c-0.8,3.1-1.1,6.4-1.7,9.5c-0.1,0.4-0.1,0.8-0.1,1.2c-0.1,0-0.3,0-0.4,0
			c0.1-1.8,0.1-3.6,0.3-5.3c0.5-4.2,1.8-8.3,4-11.9C249.2,354.5,249.3,354.4,249.6,354.3C249.5,354.3,249.5,354.3,249.6,354.3z"/>
		<path class="st19" d="M227.2,347.7c-0.1,0.2-0.1,0.4-0.2,0.5c-3.8,3.3-6.5,7.2-6.6,12.5C219.1,357.1,222.8,350.2,227.2,347.7
			C227.3,347.8,227.2,347.7,227.2,347.7z"/>
		<path class="st11" d="M243,308.5c0.1-0.2,0.2-0.4,0.3-0.5c4.3-3.5,8.6-6.9,12.9-10.4c0.2-0.2,0.5-0.2,0.7-0.3
			c-2.6,2.3-5.1,4.6-7.8,6.7C247.2,305.6,245.1,307,243,308.5z"/>
		<path class="st15" d="M233.5,318c0.7,0.2,1.5,0.4,2.2,0.7c3.9,1.4,7.9,2.3,12,2.6c0.2,0,0.4,0.1,0.6,0.3c-0.4,0-0.7,0.1-1.1,0.1
			c-4.6-0.1-8.9-1.1-13-3.1C234,318.4,233.8,318.2,233.5,318C233.5,318,233.5,318,233.5,318z"/>
		<path class="st15" d="M255.8,300c2.7,2.1,4.4,6.1,4.1,9.9c-0.4-3.7-1.9-6.9-4.2-9.7C255.7,300.1,255.7,300,255.8,300z"/>
		<path class="st12" d="M265.7,312.4c-3.7-1.5-7.2-1.7-10.9-0.7C256.8,309.9,263.3,310.2,265.7,312.4z"/>
		<path class="st15" d="M276.1,335.5c0.2-0.1,0.3-0.3,0.5-0.4c2.6-0.9,5.1-1.9,7.7-2.8c0,0.1,0,0.1,0,0.2c-1.6,1.7-3.8,2.2-6,2.8
			c-0.4,0.1-0.7,0.2-1.1,0.3C276.8,335.5,276.5,335.5,276.1,335.5z"/>
		<path class="st12" d="M213,282.2c-0.7,0.5-1.4,1-2.1,1.4c-1.2,0.8-2.5,1.6-3.7,2.3l0,0C208.7,284,210.7,282.9,213,282.2
			C213,282.2,213,282.2,213,282.2z"/>
		<path class="st11" d="M273.2,325.8c-0.1,0-0.1-0.1-0.2-0.1c-0.4-1.7-0.7-3.5-1.1-5.2c0.1,0,0.2,0,0.2-0.1c0.4,1.7,0.8,3.4,1.3,5.1
			C273.4,325.6,273.3,325.7,273.2,325.8z"/>
		<path class="st11" d="M211.2,353c0.3-0.6,0.7-1.2,1-1.8C211.9,351.8,211.6,352.4,211.2,353z"/>
		<path class="st19" d="M258.6,356.9c0.3,0.3,0.5,0.6,0.8,1c-0.1,0.1-0.1,0.1-0.2,0.2c-0.2-0.3-0.5-0.7-0.7-1
			C258.5,357,258.6,356.9,258.6,356.9z"/>
		<path class="st11" d="M210.5,354.3c0.2-0.3,0.3-0.7,0.5-1C210.8,353.6,210.7,353.9,210.5,354.3z"/>
		<path class="st11" d="M242.2,309.2c0.1-0.1,0.2-0.3,0.3-0.4C242.4,308.9,242.3,309,242.2,309.2z"/>
		<path class="st15" d="M255.6,300.1c-0.2-0.2-0.3-0.3-0.5-0.5c0,0,0.1-0.1,0.1-0.1c0.2,0.1,0.4,0.3,0.6,0.4
			C255.7,300,255.7,300.1,255.6,300.1z"/>
		<path class="st19" d="M258.5,357c-0.1-0.1-0.2-0.2-0.3-0.3c0.1-0.1,0.2-0.2,0.3-0.3c0,0.2,0.1,0.3,0.1,0.5
			C258.6,356.9,258.5,357,258.5,357z"/>
		<path class="st11" d="M242.5,308.7c0.2-0.1,0.3-0.2,0.5-0.3C242.8,308.6,242.7,308.7,242.5,308.7z"/>
		<path class="st4" d="M281,375.2c0,0.2,0,0.4,0,0.6C281,375.6,281,375.4,281,375.2z"/>
		<path class="st15" d="M178.8,259c-0.1,0-0.3,0.1-0.4,0.1c0.1-0.1,0.2-0.2,0.3-0.3C178.7,258.9,178.7,259,178.8,259z"/>
		<path class="st15" d="M231.3,332c0-0.1,0-0.2,0-0.2c0.2,0.1,0.4,0.2,0.5,0.3C231.6,332,231.4,332,231.3,332z"/>
		<path class="st11" d="M257.4,296.8c0.1-0.1,0.3-0.3,0.4-0.4C257.6,296.5,257.5,296.6,257.4,296.8z"/>
		<path class="st19" d="M227.3,347.5c0.1,0,0.2,0.1,0.4,0.1c-0.1,0-0.3,0-0.4,0.1c0,0,0,0,0,0C227.3,347.7,227.3,347.6,227.3,347.5z
			"/>
		<path class="st15" d="M231.3,331.8c0-0.1,0-0.2,0-0.3C231.2,331.6,231.2,331.7,231.3,331.8z"/>
		<polygon class="st15" points="186.9,278.9 186.8,278.8 186.9,278.8 		"/>
		<path class="st19" d="M213.1,284.1c0.1,0,0.2,0,0.3-0.1c0,0.1-0.1,0.2-0.1,0.2C213.2,284.2,213.2,284.2,213.1,284.1z"/>
		<path class="st11" d="M211,353.3c0.1-0.1,0.2-0.2,0.3-0.3C211.2,353.1,211.1,353.2,211,353.3z"/>
		<path class="st4" d="M281.3,375c-0.1,0.1-0.2,0.2-0.3,0.3C281.1,375.2,281.2,375.1,281.3,375z"/>
		<path class="st15" d="M249.6,353.9c0.1,0,0.1,0,0.2,0.1c-0.1,0.1-0.1,0.2-0.2,0.4c0,0-0.1-0.1-0.1-0.1
			C249.5,354.1,249.5,354,249.6,353.9z"/>
		<path class="st15" d="M233.3,317.9c0-0.1,0-0.1,0.1-0.2c0,0.1,0.1,0.2,0.1,0.3c0,0,0,0,0,0C233.4,318,233.4,317.9,233.3,317.9z"/>
		<path class="st12" d="M207.2,286c0,0.1,0,0.1,0,0.2C207.2,286.1,207.2,286.1,207.2,286C207.3,286,207.2,286,207.2,286z"/>
		<path class="st11" d="M257,297.3c0.1-0.1,0.2-0.3,0.3-0.4C257.2,297,257.1,297.1,257,297.3z"/>
		<path class="st7" d="M102.9,260.4c4.4-4.2,14.8-4.8,21.1,2.1c5.6,6.3,5.5,15.8,0,21.9c-6.5,7.1-16.9,6.8-23.2,1
			c-6.4-6-6.1-15.8-2.5-20.3c-4,10.4-1.9,18.7,9.1,22.9c5.8,2.3,12.4,0.2,16.5-5.1c4.6-6,4.3-12.6,0.9-17.9c-2.3-3.6-5.7-6-10-6.8
			C110.5,257.5,106.6,258.1,102.9,260.4z"/>
		<path class="st7" d="M99.5,263.5c-0.2,0.3-0.3,0.5-0.5,0.8h0C99.2,264,99.3,263.8,99.5,263.5C99.5,263.5,99.5,263.5,99.5,263.5z"
			/>
		<path class="st7" d="M85.5,238.5c0.2,0,0.4,0.1,0.7,0.1c0,0.1,0,0.2-0.1,0.2C85.9,238.7,85.7,238.6,85.5,238.5L85.5,238.5z"/>
		<path class="st7" d="M102.2,260.9c0,0.1,0,0.2-0.1,0.2c0,0-0.1,0-0.2-0.1c0-0.1,0-0.2,0.1-0.2C102,260.8,102.1,260.9,102.2,260.9z
			"/>
		<path class="st7" d="M99,264.2c-0.1,0.1-0.2,0.3-0.3,0.4c0,0-0.1-0.1-0.1-0.1C98.7,264.5,98.9,264.4,99,264.2
			C99,264.2,99,264.2,99,264.2z"/>
		<path class="st7" d="M97.3,240.3c-0.1,0.1-0.2,0.1-0.3,0.2C97.1,240.4,97.2,240.3,97.3,240.3L97.3,240.3z"/>
		<path class="st7" d="M99.5,263.5c0,0,0-0.1,0.1-0.1C99.5,263.4,99.5,263.5,99.5,263.5C99.5,263.5,99.5,263.5,99.5,263.5z"/>
		<path class="st7" d="M389.8,266.2c-0.4-0.2-0.8-0.4-1.2-0.6c0-0.1,0.1-0.2,0.1-0.3c0.4,0.2,0.8,0.4,1.2,0.6
			C389.9,266,389.8,266.1,389.8,266.2z"/>
		<path class="st7" d="M391.5,267c-0.4-0.1-0.8-0.2-1.2-0.3c0.1-0.1,0.1-0.2,0.2-0.3C390.8,266.5,391.2,266.8,391.5,267L391.5,267z"
			/>
		<path class="st7" d="M387.3,267c0,0,0,0.1-0.1,0.1C387.2,267.1,387.2,267,387.3,267C387.2,267,387.3,267,387.3,267z"/>
		<path class="st7" d="M388,266.2c0,0,0-0.1,0.1-0.1C388,266.2,388,266.2,388,266.2C388,266.3,388,266.2,388,266.2z"/>
		<path class="st7" d="M387.5,266.8c-0.1,0.1-0.2,0.2-0.2,0.2c0,0,0,0,0,0C387.3,266.9,387.4,266.8,387.5,266.8
			C387.5,266.7,387.5,266.8,387.5,266.8z"/>
		<path class="st7" d="M387.8,266.5c-0.1,0.1-0.2,0.2-0.2,0.2c0,0,0,0,0,0C387.6,266.7,387.7,266.6,387.8,266.5L387.8,266.5z"/>
		<path class="st7" d="M387.7,266.5c0.1-0.1,0.2-0.2,0.2-0.2c0,0,0,0,0,0C387.9,266.3,387.8,266.4,387.7,266.5L387.7,266.5z"/>
		<path class="st17" d="M235.7,259c3.7,1.5,7.6,0.9,11.4,1.2c3.9,0.3,7,2,8.9,5.4c1.6,2.8,2.8,5.7,4.2,8.6c1.4,2.8,3.5,4.7,6.6,5.4
			c0.6,0.1,1.1,0.1,1.7,0.2c-3.6,0.5-6.2-1.2-7.9-4.1c-1.3-2-2.2-4.3-3.3-6.4c-1.3-2.7-2.5-5.3-5.2-7c-1.9-1.1-4-1.4-6.1-1.6
			c-2.8-0.3-5.7-0.5-8.5-0.8c-0.6-0.1-1.2-0.4-1.8-0.6C235.7,259.2,235.7,259.1,235.7,259z"/>
		<path class="st17" d="M263.2,272.5c-0.5-0.5-1.1-1-1.5-1.6c-1-1.8-2-3.7-3-5.6c-1.9-3.6-4.8-5.6-8.9-5.8c-3-0.1-6.1-0.1-9.1-0.3
			c-1.7-0.1-3.3-0.5-4.9-0.7c0-0.1,0-0.3,0.1-0.4c0.9,0.2,1.8,0.4,2.6,0.5c3.3,0.1,6.6,0.3,9.8,0.2c5.2,0,9,2.2,11.3,6.9
			C260.8,268,262.1,270.2,263.2,272.5L263.2,272.5z"/>
		<path class="st17" d="M270,272.9c3.3,2.3,6.7,3.3,10.4,2.2c3.6-1.1,6.1-3.5,7.7-6.9c-0.5,3.4-4.6,7.2-8.7,7.9
			C275.8,276.5,271.1,275.1,270,272.9z"/>
		<path class="st2" d="M270.2,264.7c-0.2,0.6-0.5,1.1-0.6,1.7c-0.5,1.6-0.9,3.2-1.3,4.8c0,0.2,0,0.3,0,0.5c-0.2,3.3,1,6.2,2.8,8.9
			c-0.5-0.4-1-0.8-1.5-1.2l0,0c-0.5-1.3-1.1-2.5-1.6-3.8c0-0.1,0-0.2,0-0.2c-0.8-3.5-0.4-6.8,1.5-9.8
			C269.7,265.3,270,265.1,270.2,264.7L270.2,264.7z"/>
		<path class="st17" d="M285.8,267.8c-3.8,6.2-12.1,6.8-16.2,3.5c2.8,1.1,5.7,1.8,8.8,1.1C281.4,271.7,283.7,270,285.8,267.8z"/>
		<path class="st17" d="M263.3,272.5c0.5,0.5,1,1,1.5,1.5c-0.1,0.1-0.3,0.2-0.4,0.4C264,273.7,263.6,273.1,263.3,272.5
			C263.2,272.5,263.3,272.5,263.3,272.5z"/>
		<path class="st17" d="M266.5,275.3c-0.5-0.1-0.9-0.3-1.4-0.4c0.1-0.1,0.1-0.3,0.2-0.4C265.7,274.7,266.1,275,266.5,275.3
			C266.5,275.2,266.5,275.3,266.5,275.3z"/>
		<path class="st17" d="M268.3,271.7c0-0.2,0-0.3,0-0.5c0.1,0.2,0.3,0.4,0.4,0.5C268.5,271.8,268.4,271.8,268.3,271.7z"/>
		<path class="st17" d="M269,271.2c-0.1-0.1-0.2-0.1-0.3-0.2c0.1,0,0.2-0.1,0.3-0.1c0,0,0.1,0.1,0.1,0.2
			C269.1,271.1,269,271.2,269,271.2z"/>
		<path class="st2" d="M270.3,264.8c0.1-0.1,0.2-0.3,0.3-0.4c0,0,0.1,0.1,0.1,0.1C270.5,264.6,270.4,264.6,270.3,264.8
			C270.2,264.7,270.3,264.8,270.3,264.8z"/>
		<path class="st17" d="M268,275.5c0,0.1,0,0.2,0,0.2c-0.2,0-0.4,0-0.6,0c0,0,0-0.1,0-0.1C267.6,275.5,267.8,275.5,268,275.5z"/>
		<path class="st17" d="M269.6,279.5c-0.1,0.1-0.2,0.1-0.4,0.2c0-0.1,0-0.1-0.1-0.2C269.3,279.5,269.5,279.5,269.6,279.5
			C269.6,279.5,269.6,279.5,269.6,279.5z"/>
		<path class="st17" d="M266.5,275.2c0.1,0,0.2,0.1,0.3,0.1c0,0-0.1,0.1-0.1,0.1C266.7,275.4,266.6,275.3,266.5,275.2
			C266.5,275.3,266.5,275.2,266.5,275.2z"/>
		<path class="st17" d="M286.3,267.3c0,0-0.1,0.1-0.1,0.1C286.1,267.3,286.1,267.3,286.3,267.3C286.2,267.3,286.2,267.3,286.3,267.3
			L286.3,267.3z"/>
		<path class="st17" d="M286.2,267.2c0,0,0.1-0.1,0.1-0.1C286.4,267.2,286.4,267.2,286.2,267.2C286.3,267.2,286.3,267.2,286.2,267.2
			C286.3,267.3,286.2,267.2,286.2,267.2z"/>
		<path class="st3" d="M94.1,421c-2.8,0-5.7,0-8.5,0c-0.8,0-1.1-0.2-1.1-1.1c0.1-0.8,0.1-1.7,0-2.5c-0.1-0.8,0.3-1,1-1
			c5.7,0,11.5,0,17.2,0c0.7,0,1,0.2,1,1c0.1,3.5,0.1,3.5-3.3,3.5C98.3,421,96.2,421,94.1,421z"/>
		<path class="st3" d="M79.4,460.5c-2.8,0-5.6,0-8.4,0c-0.8,0-1.1-0.2-1.1-1c0.1-0.9,0.1-1.8,0-2.7c0-0.8,0.3-1,1-1
			c5.7,0,11.3,0,17,0c0.7,0,1,0.2,1,1c0.1,3.8,0.2,3.8-3.6,3.8C83.4,460.5,81.4,460.5,79.4,460.5z"/>
		<path class="st12" d="M411,419.5c-0.2,0.2-0.3,0.3-0.5,0.5c-0.2,0-0.3-0.1-0.5-0.1c0.2-0.4,0.3-0.7,0.5-1.1
			c3.4-5.6,7.1-11,11.5-15.8c3.2-3.5,6.8-6.7,10.1-10.1c0.1,0.1,0.1,0.1,0.2,0.2c-2.8,2.8-5.7,5.6-8.4,8.5c-1.8,1.9-3.3,4-4.9,5.9
			c-0.1,0.1-0.2,0.2-0.2,0.3c0.2,0,0.3-0.1,0.5-0.1c4.6-1.7,9.3-2.9,14.2-3.1c1.5-0.1,3,0,4.5,0.1c-2.9,0.3-5.8,0.4-8.7,1
			c-3.6,0.7-7.1,1.8-10.6,2.7c-0.3,0.1-0.7,0.3-0.9,0.6C415.5,412.6,413.2,416,411,419.5z"/>
		<path class="st12" d="M433.9,391.9c-0.5,0.4-1,0.8-1.5,1.3c-0.1-0.1-0.1-0.1-0.2-0.2c0.5-0.4,1-0.8,1.5-1.3
			C433.8,391.8,433.8,391.8,433.9,391.9z"/>
		<path class="st12" d="M434.1,391.4c0.3-0.2,0.6-0.4,0.8-0.6c0.1,0.1,0.1,0.1,0.2,0.2c-0.3,0.2-0.6,0.4-0.8,0.6
			C434.2,391.5,434.2,391.4,434.1,391.4z"/>
		<path class="st12" d="M435.4,390.4c0.2-0.1,0.3-0.2,0.5-0.4c0,0.1,0.1,0.1,0.1,0.2c-0.2,0.1-0.3,0.3-0.5,0.4
			C435.5,390.5,435.4,390.4,435.4,390.4z"/>
		<path class="st12" d="M433.7,391.7c0.1-0.1,0.3-0.2,0.4-0.4c0.1,0.1,0.1,0.1,0.2,0.2c-0.1,0.1-0.3,0.2-0.4,0.4
			C433.8,391.8,433.8,391.8,433.7,391.7z"/>
		<path class="st12" d="M435,390.7c0.1-0.1,0.3-0.2,0.4-0.4c0.1,0.1,0.1,0.1,0.1,0.2c-0.1,0.1-0.3,0.2-0.4,0.4
			C435.1,390.8,435,390.8,435,390.7z"/>
		<path class="st11" d="M390.2,386.8c-0.1,0-0.2,0-0.4,0c0.2-4.7,0.4-9.4,0.7-14.2c0.1,0,0.2,0,0.3,0
			C390.5,377.3,390.4,382,390.2,386.8z"/>
		<path class="st12" d="M390.8,402c1.7-3.4,3.3-6.8,5-10.2c0.1,0,0.2,0.1,0.3,0.1c0,0.1,0,0.3,0,0.4c-1.6,3.1-3.2,6.2-4.8,9.3
			C391.2,401.8,390.9,401.9,390.8,402C390.7,402,390.8,402,390.8,402z"/>
		<path class="st13" d="M237.2,268.8c1.6-0.5,2.9,0,3.4,1.2c0.7,1.5,0.2,3.2-1.2,4.1c-0.8,0.5-1.5,0.5-2.1-0.3
			c0.7-0.2,1.5-0.1,1.9-0.5c0.5-0.4,0.8-1.2,0.9-1.8C240.3,270.3,239.3,269.3,237.2,268.8z"/>
		<path class="st11" d="M418.3,358c0-0.2,0-0.4,0.1-0.5c0,0,0.1,0,0.1,0c0,0.2,0,0.4,0,0.6C418.4,358.1,418.3,358.1,418.3,358z"/>
		<path class="st11" d="M419.6,370.1c0.1-0.1,0.2-0.1,0.3-0.2c0,0.1,0.1,0.1,0.1,0.1c-0.1,0.1-0.2,0.2-0.2,0.3
			C419.7,370.2,419.7,370.2,419.6,370.1z"/>
		<path class="st11" d="M420.3,369.8c-0.1,0.1-0.1,0.2-0.2,0.3c-0.1,0-0.1-0.1-0.1-0.1C420,369.8,420.1,369.8,420.3,369.8
			L420.3,369.8z"/>
		<path class="st11" d="M420.2,369.7c0-0.1,0-0.1,0.1-0.2C420.3,369.6,420.3,369.7,420.2,369.7C420.3,369.8,420.2,369.7,420.2,369.7
			z"/>
		<path class="st11" d="M444.5,430.2c0-0.1,0-0.2,0-0.4c3,0.4,6,0.7,9,1.1c0,0.1,0,0.2,0,0.3C450.5,430.9,447.5,430.5,444.5,430.2z"
			/>
		<path class="st12" d="M365.8,414.4c-0.4-0.3-0.8-0.6-1.1-0.9c0.1-0.1,0.1-0.1,0.2-0.2c0.4,0.3,0.8,0.6,1.2,0.8
			C366,414.3,365.9,414.3,365.8,414.4z"/>
		<path class="st12" d="M364.1,413.1c-0.2-0.2-0.5-0.3-0.7-0.5c0.1-0.1,0.1-0.1,0.2-0.2c0.3,0.2,0.5,0.3,0.8,0.5
			C364.2,413,364.2,413.1,364.1,413.1z"/>
		<path class="st12" d="M362.8,412c0.3,0.2,0.5,0.3,0.8,0.5c-0.1,0.1-0.1,0.1-0.2,0.2c-0.2-0.2-0.5-0.3-0.7-0.5
			C362.7,412.1,362.7,412,362.8,412z"/>
		<path class="st12" d="M362.6,412.1c-0.2-0.1-0.5-0.3-0.7-0.4c0-0.1,0.1-0.1,0.1-0.2c0.2,0.2,0.5,0.3,0.7,0.5
			C362.7,412,362.7,412.1,362.6,412.1z"/>
		<path class="st12" d="M364.7,413.6c-0.2-0.1-0.4-0.3-0.6-0.4c0.1-0.1,0.1-0.1,0.2-0.2c0.2,0.1,0.4,0.3,0.6,0.4
			C364.8,413.4,364.8,413.5,364.7,413.6z"/>
		<path class="st12" d="M361.7,411.3C361.7,411.4,361.7,411.4,361.7,411.3c-0.1,0-0.1,0-0.2,0C361.6,411.3,361.6,411.3,361.7,411.3
			C361.7,411.3,361.7,411.3,361.7,411.3z"/>
		<path class="st9" d="M300.8,453.3c1,0,1.8,0.8,1.9,1.8c0,0.9-0.9,1.8-1.9,1.8c-1,0-1.8-0.8-1.8-1.8
			C299,454.1,299.8,453.2,300.8,453.3z"/>
		<path class="st12" d="M291.3,466.3c0-0.2,0-0.4,0-0.6c1.5-1.5,3-1.7,4.4-0.2C293.8,464.9,292.5,465.5,291.3,466.3z"/>
		<path class="st12" d="M291.2,470c0-0.2,0-0.4,0-0.5c1.8-0.9,3-0.8,3.8,0.2C293.9,469.8,292.5,469.9,291.2,470z"/>
		<path class="st12" d="M294.6,460.1c-1.2,0.5-2.4,0.9-3.6,1.4c0-0.7,0.6-1.2,1.3-1.5C293.1,459.6,294,459.5,294.6,460.1z"/>
		<path class="st12" d="M290.1,461.7c-0.1-0.1-0.3-0.1-0.4-0.2c-0.3-1.8,0.3-3,1.6-3.4C290.9,459.2,290.5,460.5,290.1,461.7z"/>
		<path class="st10" d="M284.7,479.7c0.1-0.1,0.2-0.2,0.3-0.2c0,0.1,0,0.2-0.1,0.3C284.8,479.7,284.8,479.7,284.7,479.7z"/>
		<path class="st9" d="M211,472c-0.9-0.1-1.5-0.6-1.5-1.5c0-1,0.6-1.5,1.5-1.5c0.9,0,1.5,0.6,1.5,1.5
			C212.5,471.4,211.8,471.9,211,472z"/>
		<path class="st20" d="M276.1,335.5c0.4,0,0.7,0,1.1,0c0.6,1.3,1.2,2.5,1.7,3.8c2.1,5,4.1,10.1,6.2,15.1c0.1,0.2,0.1,0.4,0.1,0.6
			c-1.3,0.4-2.6,0.8-4,1.2C279.6,349.4,277.8,342.4,276.1,335.5z"/>
		<path class="st15" d="M302.3,372.2c-3.2,1.1-6.4,2.2-9.7,3.1c-1.9,0.5-3.9,0.6-5.9,0.9c0.1-0.2,0.2-0.3,0.3-0.5
			c0.1-0.1,0.2-0.1,0.3-0.2c4.1-1,8.2-1.9,12.4-2.9c0.8-0.2,1.7-0.5,2.5-0.8C302.2,372,302.2,372.1,302.3,372.2z"/>
		<path class="st19" d="M290.8,352.8c-1.4,1.6-3.3,2.3-5.3,2.9c0-0.2,0-0.4-0.1-0.6c1.7-0.8,3.4-1.7,5.2-2.5
			C290.7,352.7,290.7,352.7,290.8,352.8z"/>
		<path class="st16" d="M285.5,355.1c0,0.2,0,0.4,0.1,0.6c0,0.1-0.1,0.1-0.1,0.1c-1.3,0.3-2.7,0.5-4,0.8c0-0.1-0.1-0.2-0.1-0.3
			c1.3-0.4,2.6-0.8,4-1.2C285.3,355.1,285.4,355.1,285.5,355.1z"/>
		<path class="st19" d="M291,352.5c0-0.1,0-0.1,0.1-0.2C291,352.4,291,352.4,291,352.5L291,352.5z"/>
		<path class="st19" d="M291,352.5c-0.1,0.1-0.1,0.2-0.2,0.3c-0.1-0.1-0.1-0.1-0.2-0.2C290.8,352.6,290.9,352.5,291,352.5
			C291,352.5,291,352.5,291,352.5z"/>
		<path class="st14" d="M395,450c-0.1-0.4-0.2-0.8-0.2-1.3c0.1,0,0.2,0,0.3,0c0.1,0.1,0.2,0.2,0.3,0.3c0-0.3,0.1-0.5,0.1-0.8
			c0.1,0,0.1,0,0.2,0c0.2,0.6,0.4,1.2,0.5,1.7C395.9,450,395.4,450,395,450z"/>
		<path class="st14" d="M399.1,447.2c0.1,0,0.3,0,0.4,0c-0.1,0.9-0.3,1.8-0.4,2.7c-0.2,0-0.4,0-0.6,0
			C398.6,449.1,398.9,448.2,399.1,447.2z"/>
		<path class="st14" d="M401.1,449.9c0.5-0.6,0.9-1.1,1.4-1.7c0,0.2,0,0.3,0,0.5c-0.2,0.4-0.5,0.9-0.7,1.3
			C401.5,450,401.3,449.9,401.1,449.9z"/>
		<path class="st15" d="M244,349.7c0.3,0,0.6,0,0.8,0.2c3.2,1.5,6.6,2.1,10.1,2c0.2,0,0.4,0,0.7,0.1
			C253.2,353.3,246.6,352,244,349.7L244,349.7z"/>
		<path class="st15" d="M244,349.8c-0.1,0-0.1-0.1-0.2-0.1c0,0,0.1-0.1,0.1-0.1C244,349.6,244,349.7,244,349.8
			C244,349.7,244,349.8,244,349.8z"/>
		<path class="st10" d="M283.2,481.5c0.2-0.2,0.3-0.5,0.5-0.7C283.6,481,283.4,481.2,283.2,481.5z"/>
		<path class="st10" d="M283.7,480.7c0.1-0.1,0.2-0.2,0.2-0.3C283.9,480.5,283.8,480.6,283.7,480.7z"/>
		<path class="st12" d="M395.1,448.7c-0.1,0-0.2,0-0.3,0c-0.2-0.5-0.4-1-0.5-1.5C394.5,447.7,394.8,448.2,395.1,448.7z"/>
		<path class="st12" d="M394.3,447.3c-0.1-0.2-0.2-0.3-0.3-0.5C394.1,446.9,394.2,447.1,394.3,447.3z"/>
		<path class="st12" d="M394,446.8c-0.1-0.2-0.2-0.3-0.3-0.5C393.8,446.4,393.9,446.6,394,446.8z"/>
		<path class="st12" d="M393.8,446.3c-0.1-0.2-0.2-0.3-0.3-0.5C393.6,445.9,393.7,446.1,393.8,446.3z"/>
		<path class="st12" d="M402.5,448.6c0-0.2,0-0.3,0-0.5c0.3-0.2,0.5-0.5,0.8-0.7C403,447.9,402.8,448.3,402.5,448.6z"/>
		<path class="st12" d="M403.2,447.5c0.1-0.1,0.2-0.2,0.3-0.3C403.4,447.3,403.3,447.4,403.2,447.5z"/>
		<path class="st0" d="M244.5,213c0-1.1-0.1-2.2-0.1-3.4c-3.5-1.8-6.9-3.8-9.6-6.6c-1.6-1.7-3-3.5-4.5-5.3
			c-2.1-3.8-3.4-7.9-3.3-12.3c0.6-14.7,10.3-24.1,24-25.3c12.5-1.1,29,10.8,27.2,27.9c-0.6,5.5-3.4,9.9-7.4,13.6
			c-2.8,2.6-5.9,4.8-9.4,6.4c-0.7,0.3-0.9,0.7-0.9,1.4c0.1,1.1,0.1,2.2,0.1,3.2c0,0.9,0,1.7,0,2.7c-1.2,0-2.3,0-3.5,0
			c0.2-4.2,0.5-8.3,0.7-12.4c0.3-3.3,0.5-6.6,0.8-10c0.5,0,0.8,0,1.1-0.1c2.6-0.3,4.5-2.4,4.4-4.6c-0.1-1.3-0.9-2.4-2.1-2.7
			c-1.3-0.3-2.2,0.4-2.8,1.4c-0.4,0.6-0.5,1.3-0.7,2c-0.2,1-0.3,2.1-0.5,3.2c-0.4-0.1-0.6-0.2-0.9-0.3c-1.7-0.6-1.8-0.7-1.4-2.4
			c0.3-1.5,0.4-3-0.3-4.4c-0.5-1-1.4-1.5-2.5-1.4c-1.1,0.1-1.8,0.9-1.8,2c0,0.9,0.3,1.9,0.7,2.7c0.6,1.1,1.6,1.9,2.4,3
			c-1.1,1.8-2.5,3-4.7,3.1c-0.9,0-1.3-0.3-1.2-1.2c0.1-1.3,0-2.6-0.2-3.8c-0.1-1-0.7-1.7-1.8-1.7c-1.1,0-1.6,0.7-2,1.6
			c-0.7,1.9,0.3,4,2.5,5.1c0.7,0.4,0.9,0.8,0.9,1.5c-0.1,3.2-0.1,6.3-0.2,9.5c-0.1,2.8-0.2,5.5-0.3,8.3c0,0.5,0,1.1,0,1.7
			c-1.1,0-2.1,0-3.1,0C244.5,214.6,244.5,213.8,244.5,213z"/>
		<path class="st2" d="M257.5,203c-0.2,4.1-0.5,8.2-0.7,12.4c-2.8,0-5.8,0-8.6,0c0-3.3,0-6.6,0-9.9c0.1-3.4,0.3-6.9,0.4-10.4
			c3.1,0.3,5.1-1,6.6-3.3c1,0.4,2,0.8,3,1.3C258,196.4,257.7,199.7,257.5,203z"/>
		<path class="st19" d="M257.5,203c0.2-3.3,0.4-6.6,0.6-10c-1-0.4-1.9-0.8-3-1.3c-1.5,2.3-3.5,3.7-6.6,3.3
			c-0.1,3.5-0.3,6.9-0.4,10.4c-0.1,0-0.2,0-0.4,0c0.1-3.2,0.1-6.3,0.2-9.5c0-0.7-0.1-1.2-0.9-1.5c-2.2-1.1-3.2-3.3-2.5-5.1
			c0.4-0.9,0.9-1.6,2-1.6c1.1,0,1.7,0.7,1.8,1.7c0.2,1.3,0.2,2.6,0.2,3.8c0,1,0.3,1.3,1.2,1.2c2.2-0.1,3.7-1.3,4.7-3.1
			c-0.9-1-1.8-1.9-2.4-3c-0.5-0.8-0.7-1.8-0.7-2.7c0-1,0.7-1.8,1.8-2c1.1-0.1,1.9,0.4,2.5,1.4c0.7,1.4,0.7,2.9,0.3,4.4
			c-0.4,1.8-0.4,1.8,1.4,2.4c0.2,0.1,0.5,0.1,0.9,0.3c0.2-1.1,0.3-2.2,0.5-3.2c0.1-0.7,0.3-1.4,0.7-2c0.6-1,1.5-1.7,2.8-1.4
			c1.1,0.2,2,1.4,2.1,2.7c0.1,2.2-1.8,4.3-4.4,4.6c-0.3,0-0.7,0-1.1,0.1c-0.3,3.3-0.5,6.6-0.8,10C257.8,203,257.7,203,257.5,203z
			 M258.8,192.1c2.2,0.3,4.2-0.9,4.7-2.7c0.4-1.2-0.2-2.7-1.2-3.1c-1-0.4-2.2,0.2-2.7,1.6C259.2,189.3,259.1,190.7,258.8,192.1z
			 M254.6,190.6c0.2-0.1,0.3-0.1,0.5-0.2c0.5-1.5,0.7-3,0.2-4.6c-0.4-1.1-1.4-1.6-2.2-1.3c-0.8,0.3-1.3,1.5-0.8,2.4
			C252.9,188.2,253.8,189.4,254.6,190.6z M248.2,194.1c-0.1-1.5,0-3-0.3-4.3c-0.1-0.5-0.8-1-1.3-1.4c-0.5,0.5-1.2,0.8-1.4,1.4
			C244.6,191.3,245.9,193.4,248.2,194.1z"/>
		<path class="st16" d="M287,375.7c-0.1,0.2-0.2,0.3-0.3,0.5c-0.2,0-0.3,0-0.5,0.1c-0.1,0.1-0.2,0.1-0.3,0.2c0,0,0,0,0,0
			c-1.3-0.1-2.5-0.2-3.8-0.3c-0.2,0-0.4-0.1-0.6-0.4C283.3,375.7,285.1,375.7,287,375.7z"/>
		<path class="st20" d="M286,376.5c0.1-0.1,0.2-0.1,0.3-0.2C286.2,376.4,286.1,376.4,286,376.5z"/>
		<path class="st2" d="M419.3,407.9c-0.2,0-0.3,0.1-0.5,0.1c0.1-0.1,0.2-0.2,0.2-0.3C419.2,407.7,419.3,407.8,419.3,407.9z"/>
		<path class="st18" d="M258.8,192.1c0.3-1.5,0.5-2.9,0.9-4.2c0.4-1.4,1.7-2,2.7-1.6c1,0.4,1.6,1.9,1.2,3.1
			C262.9,191.2,261,192.5,258.8,192.1z"/>
		<path class="st18" d="M254.6,190.6c-0.8-1.2-1.7-2.4-2.4-3.7c-0.5-1,0-2.1,0.8-2.4c0.8-0.3,1.9,0.3,2.2,1.3
			c0.6,1.5,0.3,3.1-0.2,4.6C254.9,190.5,254.8,190.5,254.6,190.6z"/>
		<path class="st18" d="M248.2,194.1c-2.3-0.7-3.7-2.7-3-4.4c0.2-0.6,0.9-0.9,1.4-1.4c0.5,0.5,1.2,0.9,1.3,1.4
			C248.2,191.1,248.2,192.6,248.2,194.1z"/>
	</g>
</g>
</svg>
