<?xml version="1.0" encoding="utf-8"?>
<!-- Generator: Adobe Illustrator 24.1.0, SVG Export Plug-In . SVG Version: 6.00 Build 0)  -->
<svg version="1.1" id="Calque_1" xmlns="http://www.w3.org/2000/svg" xmlns:xlink="http://www.w3.org/1999/xlink" x="0px" y="0px"
	 viewBox="0 0 500 500" style="enable-background:new 0 0 500 500;" xml:space="preserve">
<style type="text/css">
	.st0{fill:#EFEFEF;}
	.st1{fill:#E4E4E4;}
	.st2{fill:#1A2E35;}
	.st3{fill:#E6E6E6;}
	.st4{fill:#FD4F5B;}
	.st5{fill:#E0E0E0;}
	.st6{fill:#4E5C62;}
	.st7{fill:#F64E5A;}
	.st8{fill:#55363E;}
	.st9{fill:#385A64;}
	.st10{fill:#353139;}
	.st11{fill:#FEBF9D;}
	.st12{fill:#142329;}
	.st13{fill:#FE5F6A;}
	.st14{fill:#EBEAEB;}
	.st15{fill:#33535D;}
	.st16{fill:#E1E0E0;}
	.st17{fill:#EFEEEE;}
	.st18{fill:#FEBE9D;}
	.st19{fill:#FE747D;}
	.st20{fill:#FE4F5B;}
	.st21{fill:#EF4753;}
	.st22{fill:#EEEDED;}
</style>
<g>
	<g>
		<path class="st0" d="M445.7,91.2c0,43.5,0,87,0,130.5c0,5.2,0,10.5,0,15.7c0,7.2,0,14.3,0,21.5c0,1.3-0.4,1.6-1.6,1.6
			c-16.4,0-32.9,0-49.3,0c-0.3,0-0.7,0-1,0c-0.7-0.1-0.9,0.3-0.9,0.9c0,1.1,0,2.2,0,3.2c-1.9-0.2-3.8-0.4-5.7-0.6
			c-1.2-0.2-2.5-0.3-3.7-0.7c-1.6-0.5-2.8-1.6-3-3.3c-0.2-1.6,1-2.5,2.2-3.4c3.8-2.7,7.3-5.7,10.5-9.2c2.7-2.9,5.3-5.9,6.9-9.6
			c2.6-5.9-0.1-11.4-6.2-12.9c-3.5-0.9-6.8,0.1-9.7,2c-3.6,2.3-6,5.6-8,9.3c-1.8,3.2-3.4,6.5-5.1,9.7c-1.5,2.8-3.3,5.4-5.8,7.4
			c-1.9,1.5-3.8,0.7-4.1-1.7c-0.1-0.9,0-1.8,0-2.7c0-2.7-1.5-4.7-4.2-5.3c-2.2-0.5-4.1,0.1-5.8,1.6c-2,1.7-3.2,4-3.5,6.6
			c-0.3,2.9-0.4,5.9-0.5,8.8c-1.9,0-3.8,0-5.6,0c0-0.5-0.1-0.9-0.1-1.4c0.1-6.3,0.1-12.6,0.2-18.9c0.1-19.9,0.2-39.8,0.3-59.7
			c0-13.9,0.1-27.9,0.1-41.8c0-0.6,0.1-1.2,0.2-1.9c0.2,0,0.3-0.1,0.5-0.1c16.3-5.8,32.6-11.6,48.9-17.5c3.4-1.2,5.6-4.9,5-8.5
			c-0.3-1.8-0.9-3.5-1.5-5.3c-1.5-4.8-3-9.5-4.6-14.2C408.9,91.2,427.3,91.2,445.7,91.2z"/>
		<path class="st1" d="M59.8,209c-6.2,0-12.3,0-18.5,0c-1,0-1.3-0.3-1.3-1.3c0-30.8,0-61.7,0-92.5c0-1.3,0.6-1.3,1.5-1.3
			c19.9,0,39.7,0,59.6,0c1.7,0,1.7,0,1.7-1.7c0-25.4,0-50.7,0-76.1c0-1.7,0-1.7,1.7-1.7c53.2,0,106.4,0,159.6,0c1.7,0,1.7,0,1.7,1.7
			c0,10.4,0,20.8,0,31.2c0,0.9,0.1,1.4,1.2,1.4c18,0,36,0,54,0c0.9,2.8,1.8,5.7,2.7,8.5c0,0-0.1,0.1-0.1,0.1
			c-1.7,0.6-3.4,1.2-5.1,1.9c-2.2,0.8-3.7,2.3-4.5,4.5c-4.1,0-8.1,0-12.2-0.1c0.1-0.2,0.2-0.5,0.4-0.6c1.1-1,1.5-2.2,1.4-3.7
			c-0.1-1.7-0.9-3-2.4-3.6c-1.5-0.7-3-0.5-4.3,0.5c-1.2,1-1.9,2.5-1.5,4.1c0.3,1.1,0.9,2.2,1.4,3.2c-1.2,0-2.4,0.1-3.6,0.1
			c-2.6,0-5.3-0.1-7.9-0.2c0.1-0.2,0.1-0.4,0.3-0.5c1.3-1.2,1.6-2.7,1.1-4.4c-0.5-1.7-2-3-3.5-3.1c-2-0.2-3.6,0.6-4.4,2.1
			c-0.8,1.5-0.5,3.5,0.7,4.9c0.3,0.3,0.4,0.7,0.6,1c-3.9,0-7.8,0-11.8,0c0.8-1.2,1.7-2.4,1.6-4c-0.1-2.7-2.9-5-5.9-3.6
			c-2.5,1.1-3.1,4.4-1.5,6.7c0.2,0.3,0.4,0.6,0.6,0.9c-0.5,0-1,0.1-1.5,0.1c-13.7-0.1-27.5-0.1-41.2-0.2c-3.5,0-6.8,0.8-9.8,2.5
			c-7.7,4.2-11.6,10.8-11.7,19.6c-0.1,8.1-0.1,16.2-0.1,24.3c-0.1,0-0.2,0-0.4,0c-51.9,0-103.9,0-155.8,0c-1.1,0-1.2,0.4-1.2,1.3
			c0,25.2,0,50.3,0,75.5c0,1,0.3,1.3,1.3,1.3c5.7,0,11.5,0,17.2,0C59.8,208.2,59.8,208.6,59.8,209z M252.8,47
			c0.2-0.1,0.5-0.1,0.7-0.3c1.1-1,2.3-2.1,3.4-3.1c0.6-0.6,1-0.7,1.6,0c0.8,0.9,1.7,1.8,2.7,2.6c0.3,0.2,0.6,0.4,0.9,0.6
			c0.1-0.1,0.2-0.2,0.3-0.3c-1.3-1.5-2.5-3-3.8-4.5c1.4-1.7,2.7-3.3,4.1-4.9c-0.1-0.1-0.2-0.2-0.3-0.3c-1.6,1.4-3.1,2.8-4.7,4.2
			c-1.6-1.5-3.1-2.9-4.6-4.3c-0.1,0.1-0.2,0.2-0.3,0.3c1.4,1.7,2.8,3.3,4.4,5.2c-0.5,0.3-1,0.6-1.3,0.9
			C254.7,44.4,253.7,45.7,252.8,47c0,0-0.1,0.1-0.1,0.1C252.7,47.1,252.7,47,252.8,47z"/>
		<path class="st0" d="M59.8,209c0-0.4,0-0.8,0-1.2c0-4.8,0-9.5,0-14.3c12.5,0,24.9,0,37.4,0c-0.3,4.8,0.4,9.4,2.4,13.9
			c5.4,12.2,18.7,18.2,31.3,14.1c0.6-0.2,1.3-0.1,1.8,0.1c3.6,1.8,7.2,3.6,10.8,5.4c0.4,0.2,0.8,0.3,1.3,0.4c0,0,0,0.1,0.1,0.1
			c0,0-0.1,0-0.1-0.1c-1.1-3.6-2.2-7.1-3.4-10.7c-0.4-1.2-0.3-1.9,0.5-2.9c5.1-5.9,7.2-12.7,6.7-20.5c5,0,9.9,0,14.9,0
			c-0.2,1.4-0.2,2.8-0.5,4.2c-1,5.6-2.7,10.9-7.5,14.6c-2.6,2-3.9,4.7-4,8c0,2.8-1,5.2-3,7.2c-3.3,3.5-4.5,7.6-3.9,12.4
			c-0.1,0.1-0.1,0.2-0.2,0.3c-2,7.2-4,14.3-6.1,21.5c-0.2,0.8,0.1,1,0.7,1.3c-0.1,0.2-0.2,0.4-0.3,0.6c-1.3,4.9-2.6,9.7-3.8,14.6
			c-2.2,9-4.3,18-5.6,27.1c-0.5,3.7-1.2,7.4-3.1,10.8c-1.5,2.6-2.3,5.5-3.4,8.3c-0.1,0.3,0.2,0.8,0.3,1.2c0.4-0.3,0.9-0.4,1.1-0.8
			c0.6-1.1,1-2.2,1.5-3.3c0.3-0.6,0.6-1.1,0.9-1.6c0.3,0.3,0.4,0.5,0.3,0.7c-0.4,1.6-0.7,3.1-1.1,4.7c-0.3,1-0.6,2.1-0.8,3.1
			c-0.1,0.3,0.2,0.7,0.3,1.1c0.3-0.1,0.8-0.2,0.9-0.4c0.4-0.6,0.9-1.2,1.1-1.9c0.6-1.7,1-3.5,1.6-5.2c0.1-0.5,0.4-0.9,0.6-1.4
			c0.1,0,0.3,0.1,0.4,0.1c0,0.5,0,0.9-0.1,1.4c-0.4,1.7-0.9,3.4-1.2,5.1c-0.2,1.2-0.1,2.5-0.1,3.8c0,0.2,0.4,0.6,0.6,0.6
			c0.2,0,0.6-0.2,0.8-0.5c0.2-0.3,0.2-0.7,0.3-1.1c0.7-2.4,1.3-4.9,2-7.3c0.2-0.5,0.5-1,0.8-1.6c0.1,0,0.2,0.1,0.4,0.1
			c0,0.9,0.1,1.9,0,2.8c-0.2,1.8-0.6,3.5-0.8,5.3c0,0.4,0.4,0.8,0.7,1.3c0.4-0.3,0.9-0.5,1.1-0.9c0.5-1.1,0.9-2.2,1.2-3.4
			c0.6-2,1.1-4.1,1.7-6.1c0.2-0.6,0.7-1.1,1.1-1.6c0.4,0.5,0.9,0.9,1.3,1.4c1,1.1,1.9,2.3,3,3.3c0.4,0.3,1.4,0.4,1.7,0.1
			c0.6-0.6,0.2-1.3-0.4-1.8c-3.1-3.1-3.1-7.2-3.3-11.3c2.5-11,5-22,7.6-33c0.8-3.5,1.9-7,2.9-10.6c0.7,0.1,0.9-0.2,1.1-0.8
			c1.3-4.3,2.6-8.5,3.9-12.8c1.8,0.4,3.7,0.9,5.5,1.3c0.8,3.8,0.5,7.3-1.9,10.6c-1.5,2.2-2.9,4.5-4,6.9c-1.7,3.4-3.1,6.8-2.9,10.7
			c-0.1,0.7-0.2,1.5-0.2,2.2c-0.2,1.6-0.5,3.1-0.6,4.7c-0.5,4.2-1.3,8.4-1.2,12.6c0,6.5,0.7,13,1,19.5c0.2,3.8,0.1,7.6,0.1,11.3
			c-19.2,0-38.5,0-57.7,0c-10.9,0-21.7,0-32.6,0c-1.7,0-1.7,0-1.7-1.7C59.8,290.6,59.8,249.8,59.8,209z"/>
		<path class="st2" d="M151.8,333c0-3.8,0-7.6-0.1-11.3c-0.3-6.5-1-13-1-19.5c0-4.2,0.8-8.4,1.2-12.6c0.2-1.6,0.4-3.1,0.6-4.7
			c2.2,1.6,4.7,2.1,7.4,2c1.8-0.1,3.6-0.3,5.4-0.5c4.5-0.5,8.9-1.1,13.4-1.7c5.3-0.8,10.5-1.7,15.8-2.6c0.4-0.1,0.8-0.4,1.2-0.6
			c0.2,0,0.3,0,0.5,0c0.1,0,0.2,0,0.2,0c0.2,0,0.4,0,0.6,0c0.3,1,0.5,1.9,0.8,2.9c1.7,6.4,3.3,12.8,5,19.1c0.5,2,1.1,4,1.7,6
			c0.1,0.5,0.1,1,0.2,1.5c3.5,13.6,7,27.3,10.5,40.9c0.6,2.3,1.4,4.5,1.2,7c-0.2,2.6-0.2,5.2-0.3,7.9c-0.2,3.5-0.3,7.1-0.5,10.6
			c-0.1,2.8-0.2,5.6-0.3,8.4c-0.2,5.8-0.5,11.6-0.7,17.3c-0.6,13.4-1.1,26.8-1.7,40.3c-1.2,0-2.4,0-3.5,0c-0.1,0-0.2,0-0.3,0
			c-4.9,0-9.8,0-14.8,0c-0.1,0-0.2,0-0.4,0c-1.5,0-3,0-4.4,0c0-1.7,0-3.1,0-4.6c7.6,0,15.2,0,22.7,0c0-0.1,0-0.3,0-0.4
			c-7.6-0.2-15.1,0-22.7-0.1c0-1.2,0.1-2.4,0.1-3.6c0.4-12.1,0.8-24.3,1.3-36.4c0.4-12.9,0.9-25.8,1.3-38.8c2.9,0.3,5.9,0.5,8.8,0.8
			c0-0.1,0-0.2,0-0.4c-2.9-0.8-5.9-0.7-8.9-0.6c0-0.1,0-0.2,0-0.2c3.2-0.5,6.3-1,9.5-1.5c0-0.2-0.1-0.4-0.1-0.6
			c-3.1,0.5-6.3,1-9.4,1.6c-1-3-1.9-6-2.9-8.9c-1.8-5.5-3.7-11.1-5.5-16.6c-0.8-2.5-1.6-5-2.4-7.5c-2-6.1-3.9-12.2-5.9-18.2
			c0.2-0.1,0.5-0.4,0.7-0.4c1.5,0.1,3.1,0.3,4.6,0.5c0-0.1,0-0.2,0.1-0.3c-4.7-0.9-9.4-1.9-14.1-2.8c0,0.1,0,0.1-0.1,0.2
			c0.3,0.2,0.5,0.3,0.8,0.5c1,4,2.1,8.1,3.2,12.1c0.5,2,1.1,4,1.6,5.9c0.1,3.1,0.2,6.1,0.2,9.2c0.1,5.7,0.2,11.5,0.3,17.2
			c0.1,5.5,0.2,11,0.3,16.5c0.1,5,0.2,10,0.2,15c0.1,5.3,0.2,10.6,0.3,15.8c0.1,4.1,0.2,8.2,0.2,12.3c0.1,4.6,0.2,9.1,0.2,13.7
			c0.1,6.2,0.2,12.3,0.3,18.5c0,0.2,0,0.3,0.1,0.5c0.2-0.4,0.2-0.8,0.2-1.2c-0.1-7.4-0.1-14.8-0.2-22.2c-0.1-5.5-0.2-11-0.2-16.5
			c-0.1-6-0.2-12-0.3-18c-0.1-4.6-0.2-9.1-0.2-13.7c-0.1-5.3-0.2-10.6-0.2-16c0-3.7,0-7.4,0-11.1c-0.1-5.4-0.3-10.7-0.4-16.1
			c0.2,0.4,0.6,0.8,0.7,1.2c0.5,1.9,1,3.8,1.5,5.7c0.1,0.3,0.4,0.5,0.7,0.8c0.2,9.1,0.4,18.1,0.6,27.2c0.2,8.5,0.3,17,0.5,25.5
			c0.2,12.4,0.4,24.9,0.7,37.3c0.1,5.3,0.2,10.6,0.3,15.9c0,2,0,4,0,6.2c-2.1,0-4.1,0-6.2,0c-5.1,0.1-10.3,0.2-15.4,0.2
			c-0.7,0-1.3,0-2.2,0c0-2.5,0-4.8,0-7.2c-0.2-12.7-0.4-25.4-0.7-38.1c-0.2-8.7-0.3-17.4-0.5-26.1c-0.2-10-0.4-20.1-0.6-30.1
			C152,341.2,151.9,337.1,151.8,333z M195.3,289c-0.1,0-0.2,0-0.3,0c0.1,0.4,0.1,0.7,0.2,1.1c1.5,6.1,3,12.2,4.5,18.3
			c3.6,14.3,7.2,28.6,10.7,43c0.8,3.3,2.2,6.6,1.8,10.1c-0.1,0.9-0.2,1.8-0.2,2.7c-0.2,4.1-0.3,8.1-0.5,12.2
			c-0.2,4.7-0.3,9.4-0.5,14.1c-0.2,4.1-0.3,8.1-0.5,12.2c-0.2,4.9-0.4,9.7-0.5,14.6c-0.1,3.8-0.2,7.6-0.3,11.5
			c0,0.2-0.1,0.5-0.1,0.7c0,2.3,0,4.7,0,6.8c0.1-1.5,0.3-3.2,0.3-4.9c0.2-3.9,0.3-7.7,0.5-11.6c0.2-3.9,0.3-7.8,0.5-11.7
			c0.2-4.1,0.3-8.2,0.5-12.3c0.2-4,0.3-8,0.5-11.9c0.2-4.2,0.4-8.4,0.5-12.6c0.1-3.4,0.2-6.9,0.3-10.3c0-0.9,0.3-1.8,0.1-2.6
			c-1.7-7-3.6-13.9-5.3-20.9c-3.3-13-6.5-26-9.8-39C196.9,295.3,196.1,292.2,195.3,289z M154.8,442.6c0,0.1,0,0.1,0,0.2
			c7.3,0,14.7,0,22,0c0-0.1,0-0.1,0-0.2C169.5,442.6,162.1,442.6,154.8,442.6z M194.3,286.3C194.4,286.3,194.4,286.3,194.3,286.3
			c0.1-0.1,0.1-0.3,0.1-0.4c0,0-0.1,0-0.1,0C194.3,286.1,194.3,286.2,194.3,286.3z M194.7,286.9c0,0-0.1,0-0.1,0c0,0.1,0,0.3,0,0.4
			c0,0,0.1,0,0.1,0C194.7,287.2,194.7,287.1,194.7,286.9z M194.9,287.9c0,0-0.1,0-0.1,0c0,0.1,0,0.3,0,0.4c0,0,0.1,0,0.1,0
			C194.9,288.2,194.9,288.1,194.9,287.9z"/>
		<path class="st3" d="M214.5,402.8c0.2-5.8,0.5-11.6,0.7-17.3c0.1-2.8,0.2-5.6,0.3-8.4c1,0.1,2.1,0.2,3.1,0.2
			c5.9,0.1,11.7,0.1,17.6,0.2c18.2,0.1,36.5,0.2,54.7,0.3c8.2,0,16.4,0,24.6,0c2.1,0,4.2,0.2,6.2-0.1c11.4-1.4,19.4-10.6,19.4-22
			c0-7.7,0-15.3,0.1-23c6.1,1.3,12.1,1,18-0.6c14.4-3.8,25.7-11.9,33.7-24.6c0,2.3,0,4.5,0.1,6.8c0,0.4,0.2,0.9,0.2,1.3
			c-0.1,0.4-0.2,0.8-0.3,1.2c0,28.1,0,56.2,0,84.4c0,1.6,0,1.6-1.6,1.6c-58.4,0-116.7,0-175.1,0
			C215.7,402.8,215.1,402.8,214.5,402.8z"/>
		<path class="st4" d="M313.9,83.7c0.8-2.2,2.3-3.7,4.5-4.5c1.7-0.6,3.4-1.2,5.1-1.9c0.3-0.1,0.6-0.1,0.9-0.2c0,0,0-0.1,0-0.1
			c-0.3,0.1-0.5,0.2-0.8,0.2c-0.9-2.8-1.8-5.7-2.7-8.5c-1.6-7.4-0.3-14.4,4.2-20.5c10.5-14.1,31.6-11.4,38.6,4.8
			c1.1,2.5,1.8,5.2,2.7,7.8c0.1,0.3,0.2,0.6,0.4,1c1.5-0.5,2.9-1,4.2-1.5c5.1-1.8,9.2,0.2,10.9,5.3c0.4,1.1,0.7,2.1,1.1,3.2
			c0.9,2.7,1.7,5.5,2.6,8.2c1.6,4.8,3.2,9.5,4.7,14.3c1.5,4.7,3.1,9.5,4.6,14.2c0.5,1.7,1.2,3.5,1.5,5.3c0.6,3.6-1.6,7.3-5,8.5
			c-16.3,5.9-32.6,11.7-48.9,17.5c-0.2,0.1-0.3,0.1-0.5,0.1c0-1.1,0-2.1,0-3.2c3.1-1.1,6.2-2.2,9.3-3.3c9.5-3.4,19-6.7,28.4-10.1
			c2.9-1,5.8-2.1,8.6-3.4c3.4-1.6,4.8-4.5,4.4-7.9c-0.1-1-0.3-2.1-0.6-3.1c-3.4-10.2-6.9-20.5-10.3-30.7c-0.7-2.1-1.4-4.1-2.1-6.2
			c-0.1,0-0.2,0.1-0.4,0.1c0.7,2,1.4,4.1,2.1,6.1c2.2,6.6,4.4,13.3,6.6,19.9c1.4,4.2,2.8,8.3,3.9,12.6c1.1,4.1-0.5,7-4.3,8.9
			c-1.3,0.6-2.6,1.1-3.9,1.6c-10.8,3.9-21.6,7.8-32.3,11.8c-2.7,1-5.4,2-8.2,2.9c-0.4,0.1-0.9,0.2-1.3,0.2c0.1-3.8,0.1-7.6,0.1-11.5
			c0-5,0.1-10.1,0-15.1c0-1.9-0.2-3.7-0.5-5.6c-1.6-9-10-16.5-19.1-17.1C319.8,83.8,316.8,83.8,313.9,83.7z M347.5,91
			c-0.1,0.1-0.2,0.1-0.3,0.2c-0.3,0.3-0.5,0.6-0.8,0.9c-1.7,2.2-2.4,4.7-2.1,7.4c0.6,4.4,4.1,8.4,8.3,9.2c1,0.2,1.4,0.7,1.7,1.6
			c1.1,3.5,2.4,7,3.6,10.5c2.7-0.9,5.2-1.8,7.8-2.6c-0.2-0.6-0.3-1-0.5-1.5c-1.1-3.1-2.2-6.2-3.4-9.2c-0.3-0.9-0.2-1.4,0.4-2.1
			c3.6-4.2,3.6-9.6,0.3-14c-0.2-0.3-0.6-0.5-1-0.7l0,0c0-0.1,0-0.1,0.1-0.2c-0.1,0-0.2,0-0.3,0l0,0c0-0.1,0-0.1,0.1-0.2
			c-0.1,0-0.2,0-0.3,0l0,0c-0.4-1.2-2.9-2.4-4.5-2.2c-0.3,0-0.7,0-1,0c-1.7-0.7-3.2,0-4.6,0.7l0,0c-0.2,0.1-0.4,0.2-0.6,0.3
			c-0.6,0.4-1.3,0.8-1.9,1.2c-0.1,0.1-0.2,0.2-0.4,0.3c0,0,0,0,0,0c-0.1,0.1-0.2,0.2-0.3,0.3l0,0C347.7,90.8,347.6,90.9,347.5,91
			L347.5,91z M333.3,73.5c-2.8,1.1-5.7,2.2-8.5,3.3c0,0.1,0.1,0.2,0.1,0.4c13.3-4.8,26.5-9.6,39.8-14.4c0-0.1-0.1-0.3-0.1-0.4
			c-2.6,0.9-5.2,1.7-7.7,2.6c-0.7-2.3-1.4-4.6-2.3-6.9c-3.3-8.8-14-11-20.4-4.3c-4.1,4.4-4.6,9.5-2.3,14.9
			C332.4,70.4,332.8,71.9,333.3,73.5z M348.9,49.3c-0.4-0.2-0.8-0.4-1.2-0.6c-7.3-2.7-15.9,1.3-18.5,8.8c-1.6,4.7-0.6,9.2,1.2,13.6
			c0,0.1,0.2,0.2,0.3,0.3c-0.5-1.8-1-3.6-1.3-5.5c-1.4-7.1,1.8-13.6,8-16.3C341.1,48,345,48,348.9,49.3z"/>
		<path class="st5" d="M390.5,91.2c-1.6-4.8-3.2-9.5-4.7-14.3c-0.9-2.7-1.8-5.4-2.6-8.2c0.5,0,1-0.1,1.5-0.1c19.8,0,39.7,0,59.5,0
			c1.2,0,1.6,0.2,1.6,1.6c-0.1,7,0,14,0,21C427.3,91.2,408.9,91.2,390.5,91.2z"/>
		<path class="st5" d="M393,316.8c0.1-0.4,0.2-0.8,0.3-1.2c0.5,0,1.1,0,1.6,0c23.3,0,46.6,0,70,0c0.9,0,1.4,0,1.4-1.2
			c0-25.2,0-50.4,0-75.6c0-1-0.3-1.3-1.3-1.2c-6.4,0-12.8,0-19.2,0c0-5.2,0-10.5,0-15.7c6.7,0,13.5,0,20.2,0c1,0,1.3,0.2,1.3,1.2
			c0,30.9,0,61.7,0,92.6c0,1.2-0.6,1.2-1.4,1.2c-23.8,0-47.6,0-71.3,0C394,316.7,393.5,316.8,393,316.8z M464.2,224.8
			c-0.5,0.3-1,0.5-1.5,0.9c-0.9,0.8-1.8,1.7-2.6,2.6c-0.6,0.7-1.1,0.7-1.7,0c-0.4-0.5-0.9-0.9-1.3-1.3c-0.9-0.8-1.8-1.5-2.7-2.3
			c-0.1,0.1-0.2,0.2-0.3,0.3c1.4,1.7,2.8,3.3,4.2,5c-1.4,1.7-2.8,3.3-4.1,4.9c0.1,0.1,0.3,0.3,0.4,0.4c1.5-1.5,3.1-2.9,4.6-4.4
			c1.7,1.6,3.3,3.1,4.9,4.6c0.1-0.1,0.2-0.2,0.4-0.3c-1-1.2-2-2.4-3-3.5c-1.6-1.7-1.7-1.3-0.1-3.1
			C462.5,227.2,463.3,226,464.2,224.8c0,0,0-0.1,0.1-0.1C464.3,224.7,464.3,224.7,464.2,224.8z"/>
		<path class="st6" d="M218.4,453.2c0.7,0,1.4,0,2.1,0c41.8,0,83.7,0,125.5,0c11.1,0,22.2,0,33.2,0.1c8.2,0,16.4,0,24.6,0
			c0,0.1,0,0.3,0,0.4c-103.1,0-206.2,0-309.3,0c0-0.1,0-0.2,0-0.3c5.1,0,10.3,0,15.4,0c13.2,0,26.4-0.1,39.6-0.1
			c2.2,0,4.5-0.1,6.7-0.1c8.1,0,16.2,0,24.3,0c5.1,0,10.3,0,15.4,0C203.5,453.2,210.9,453.2,218.4,453.2z"/>
		<path class="st4" d="M194.2,443.1c4.9,0,9.8,0,14.8,0c0.1,0.1,0.2,0.1,0.2,0.2c0,1.8,0,3.6,0,5.2c3.3,1.2,6.6,2.3,9.8,3.5
			c-6.3,0-12.7-0.1-19-0.1c-1,0-1.6-0.2-2.1-1.1c-1-1.6-2.3-2-3.8-1.5c-0.1,0-0.2,0-0.2,0c0-2,0.1-4,0.1-6
			C194,443.2,194.1,443.1,194.2,443.1z"/>
		<path class="st7" d="M180.7,453.2c-8.1,0-16.2,0-24.3,0c-0.1-1.4-0.2-2.8-0.3-4.2c0-0.7,0-1.5,0-2.2c5.1-0.1,10.3-0.2,15.4-0.2
			c0,0.7,0,1.5,0,2.3c0.6,0.1,1.2,0.2,1.8,0.4c2.7,0.9,5.3,1.8,8,2.7c-1.6,0-3.2-0.1-4.9-0.1c-4.7,0-9.4,0-14.1,0
			c-1,0-1.7-0.2-2.3-1.1c-0.4-0.7-1.3-1.2-2-1.6c-0.4-0.2-1,0-1.5,0c0,0.1,0,0.2,0,0.3c1.6,0,2.7,0.9,3.7,2.3
			c-1.4,0.1-2.6,0.2-3.7,0.2c1.7,0.2,3.5,0.4,5.2,0.4c4.9,0,9.7,0,14.6,0c1.8,0,3.5-0.2,5.3-0.4
			C182.5,453.4,180.8,452.7,180.7,453.2z"/>
		<path class="st7" d="M193.9,449.3c0.1,0,0.2,0,0.2,0c1.6,0.4,3,1,3.9,2.7c-1.4,0-2.6,0-3.7,0c1.4,0.3,2.8,0.4,4.2,0.4
			c5.5,0,11,0,16.4,0c1.5,0,2.9-0.2,4.4-0.4c0.9,1.4-0.8,0.7-1,1.2c-7.4,0-14.9,0-22.3,0c-0.7-0.1-1.4-0.2-2.2-0.4
			C193.9,451.7,193.9,450.5,193.9,449.3z"/>
		<path class="st8" d="M219.3,452c-1.5,0.1-2.9,0.4-4.4,0.4c-5.5,0-11,0-16.4,0c-1.4,0-2.8-0.1-4.2-0.4c1.2,0,2.4,0,3.7,0
			c-0.9-1.8-2.3-2.4-3.9-2.7c1.5-0.6,2.8-0.1,3.8,1.5c0.5,0.9,1.2,1.1,2.1,1.1c6.3,0,12.7,0.1,19,0.1C219.1,452,219.2,452,219.3,452
			z"/>
		<path class="st7" d="M209.3,443.3c-0.1-0.1-0.2-0.1-0.2-0.2c0.1,0,0.2,0,0.3,0C209.3,443.2,209.3,443.2,209.3,443.3z"/>
		<path class="st9" d="M342.2,133.7c0,1.1,0,2.1,0,3.2c-0.1,0.6-0.2,1.2-0.2,1.9c0,13.9,0,27.9-0.1,41.8
			c-0.1,19.9-0.2,39.8-0.3,59.7c0,6.3-0.1,12.6-0.2,18.9c0,0.5,0,0.9,0.1,1.4c0,7.8,0,15.6-0.1,23.4c0,2.5-0.1,5-0.1,7.5
			c0,2.8,0,5.6,0,8.5c0,6.1-0.1,12.1-0.1,18.2c0,0.1-0.1,0.1-0.1,0.2c0,1,0,2.1,0,3.1c0,3.8,0,7.6,0,11.3c0,7.7-0.1,15.3-0.1,23
			c0,11.5-8,20.6-19.4,22c-2.1,0.3-4.2,0.1-6.2,0.1c-8.2,0-16.4,0-24.6,0c-18.2-0.1-36.5-0.2-54.7-0.3c-5.9,0-11.7-0.1-17.6-0.2
			c-1,0-2.1-0.1-3.1-0.2c0.2-3.5,0.3-7.1,0.5-10.6c1.2,0.2,2.3,0.5,3.5,0.5c15.6,0.1,31.2,0.2,46.7,0.3c17.7,0.1,35.5,0.1,53.2,0.2
			c8.2,0,15-6.6,15.1-14.8c0.1-7.8,0.1-15.7,0.2-23.5c0.1-14.7,0.1-29.4,0.2-44.1c0-9.9,0.1-19.7,0.1-29.6
			c0.1-14.7,0.1-29.5,0.2-44.2c0.1-19.9,0.2-39.7,0.2-59.6c0-14,0.1-28,0.1-42c0-0.3,0-0.6,0-0.9c0.6-8.3-6-15.8-14.3-16.1
			c-6.7-0.2-13.5-0.1-20.2-0.1c-2.6,0-4.5,1.9-4.7,4.5c-0.1,1.2,0,2.5,0,3.7c0,2.9-2,4.9-4.9,5c-1,0-2.1-0.1-3.1-0.1
			c-8.3,0-16.7-0.1-25-0.1c-3,0-6,0-9,0c-3,0-5-2-5-5c0-1.2,0-2.3,0-3.5c-0.1-2.8-2.1-4.8-4.7-4.8c-8.1-0.1-16.2-0.2-24.4-0.1
			c-7.5,0-14.1,6.3-14.6,13.7c-0.2,3.4-0.2,6.9-0.2,10.4c-0.1,20.2-0.2,40.3-0.3,60.5c0,12.6-0.1,25.2-0.1,37.9
			c-2.2-0.2-4.4-0.5-6.7-0.7c0-2.7,0.1-5.3,0.1-8c0-4.1,0-8.2-0.1-12.2c0-0.4,0.1-0.8,0.1-1.2c0-5.3,0-10.7,0.1-16
			c0-9.3,0.1-18.6,0.1-27.9c0-0.4,0-0.8,0-1.2c0-5.8,0.1-11.6,0.1-17.4c0-8.1,0-16.2,0.1-24.3c0.1-8.8,4-15.4,11.7-19.6
			c3-1.7,6.3-2.5,9.8-2.5c13.7,0,27.5,0.1,41.2,0.2c0.5,0,1,0,1.5-0.1c1.7,0,3.5,0,5.2,0c3.9,0,7.8,0,11.8,0c1.7,0,3.5,0,5.2,0
			c2.6,0.1,5.3,0.1,7.9,0.2c1.2,0,2.4,0,3.6-0.1c1.7,0,3.3,0,5,0.1c4.1,0,8.1,0,12.2,0.1c2.9,0.1,5.8,0.1,8.7,0.2
			c9,0.6,17.4,8.1,19.1,17.1c0.3,1.8,0.5,3.7,0.5,5.6c0.1,5,0,10.1,0,15.1c0,3.8-0.1,7.6-0.2,11.5
			C342.1,133.4,342.2,133.5,342.2,133.7z"/>
		<path class="st4" d="M393.7,299.7c0.6,2.7,0.2,5.2-0.8,7.7c-8,12.7-19.3,20.7-33.7,24.6c-6,1.6-12,1.9-18,0.6c0-3.8,0-7.6,0-11.3
			c0.3-1,0.6-2,1-3c2.2-6.1,4.2-12.2,6.6-18.2c3-7.5,6.3-14.9,9.5-22.4c0.3-0.6,0.9-1.3,1.4-1.5c8.8-2.6,17.8-4.5,26.9-5.7
			c3.2-0.4,6.4-0.8,9.7-1.2c-12.6,0.2-24.8,2.8-37.2,6.6c4.2-8.2,9.2-15.4,14.2-22.6c5-7.2,10.4-14.1,16.6-20.4
			c-12.7,12.5-22.5,27.1-31.5,42.6c-1.3-10.5-1.7-21-4.2-31.2c-0.1,0.5,0,1,0.1,1.6c0.4,2.6,0.8,5.3,1.1,7.9
			c0.9,7.3,1.8,14.5,2.7,21.8c0.1,0.4-0.1,0.9-0.3,1.3c-6.1,13.4-11.8,27-16.3,41c-0.1,0-0.2,0-0.3,0c0-6.1,0.1-12.1,0.1-18.2
			c0-2.8,0-5.6,0-8.5c0-2.5,0-5,0.1-7.5c1.8,0.3,3.4-0.2,4.4-1.8c0.7-1.1,1.3-2.4,1.3-3.7c0.1-6,0.1-12,0-17.9
			c0.2-2.9,0.2-5.9,0.5-8.8c0.3-2.6,1.5-4.9,3.5-6.6c1.7-1.4,3.6-2.1,5.8-1.6c2.6,0.6,4.2,2.6,4.2,5.3c0,0.9-0.1,1.8,0,2.7
			c0.3,2.4,2.2,3.2,4.1,1.7c2.5-2,4.3-4.7,5.8-7.4c1.8-3.2,3.4-6.5,5.1-9.7c2-3.6,4.4-7,8-9.3c3-1.9,6.2-2.9,9.7-2
			c6.1,1.5,8.7,7.1,6.2,12.9c-1.6,3.7-4.2,6.7-6.9,9.6c-3.2,3.4-6.7,6.5-10.5,9.2c-1.2,0.8-2.4,1.7-2.2,3.4c0.2,1.7,1.4,2.8,3,3.3
			c1.2,0.4,2.4,0.5,3.7,0.7c1.9,0.3,3.8,0.4,5.7,0.6c1.9,0.8,3.7,1.9,3.9,4.2c0.1,1.1-0.4,2.2-0.6,3.4c-0.9,1.1-1.7,2.1-2.6,3.2
			c-0.2,0.2-0.4,0.4-0.7,0.6c-1.1,0.8-2.2,1.7-3.3,2.5c-5.1,3.8-10.8,6.3-16.7,8.5c-1.6,0.6-3.2,1.7-4.3,3c-2.5,2.7-1.5,6.5,1.8,7.4
			c1.1,0.3,2.4,0.4,3.4,0.1c2.1-0.6,4.2-1.5,6.3-2.3c4.9-1.9,9.1-1.1,12.5,2.4C393,298.3,393.4,299,393.7,299.7z M389.1,304
			c-0.1-0.2-0.1-0.4-0.2-0.6c-14.5,4.8-29,9.6-43.6,14.4c0,0.1,0.1,0.2,0.1,0.4C360.2,314,374.5,308.6,389.1,304z"/>
		<path class="st1" d="M347.2,260.5c0,6,0.1,12,0,17.9c0,1.2-0.6,2.6-1.3,3.7c-1,1.5-2.6,2-4.4,1.8c0-7.8,0-15.6,0.1-23.4
			C343.5,260.5,345.4,260.5,347.2,260.5z"/>
		<path class="st10" d="M323.6,77.3c0.3-0.1,0.5-0.2,0.8-0.2c0,0,0,0.1,0,0.1c-0.3,0.1-0.6,0.1-0.9,0.2
			C323.6,77.3,323.6,77.3,323.6,77.3z"/>
		<path class="st2" d="M175.5,176.5c5-2.2,10-1.6,15,0c0.6,0.3,1.2,0.6,1.8,0.9c2.7,1.5,3.9,3.9,2.8,6.8c-0.7,2.1-2.1,3.9-3.1,5.9
			c-1.4,1.4-3.1,2.2-5,2.7c-0.7,0.2-1.4,0.5-2,0.9c-1.1,0.7-1.8,1.6-1.7,3c0.1,1.4,1,2.3,2.4,2.7c-0.2,0.7-0.4,1.4-0.5,2.1
			c-0.1,0.7,0.1,1.2,1,1.1c-0.4,1.4-0.7,2.8-1.1,4.2c-0.9,3.2-1.8,6.4-1.6,9.8c0,0.7,0,1.4,0.1,2.1c0.6,3.7,1.3,7.4,2,11
			c0.6,3.2,1.3,6.4,0.7,9.7c-0.9,5.2-4,8.9-8.4,11.5c-5.1,2.9-10.6,4-16.4,3.6c-1.8-0.4-3.7-0.9-5.5-1.3c-6-2.6-10.1-6.7-11.3-13.3
			c-0.6-4.7,0.6-8.9,3.9-12.4c1.9-2,2.9-4.4,3-7.2c0-3.3,1.3-6,4-8c4.8-3.7,6.5-9,7.5-14.6c0.2-1.4,0.3-2.8,0.5-4.2
			c0.4-2,0.7-4,1.3-5.9c0.6-2,1.7-3.6,4.1-3.8c0.4-2.4,1-3.6,2.9-5C172.9,178,174.2,177.3,175.5,176.5z"/>
		<path class="st4" d="M161.5,254.4c5.8,0.4,11.4-0.7,16.4-3.6c4.5-2.6,7.5-6.3,8.4-11.5c0.6-3.3-0.1-6.5-0.7-9.7
			c-0.7-3.7-1.4-7.4-2-11c-0.1-0.7-0.1-1.4-0.1-2.1c1.9-0.6,2.2-2.1,2.2-3.8c1,0.1,1.9,0.1,2.9,0.2c3.2,0.3,6.5,0.6,9.7,0.9
			c2.2,0.2,4.4,0.5,6.7,0.7c5.8,0.6,11.5,1.2,17.3,1.8c-0.4,6-0.3,11.9-0.1,17.8c0.1,0,0.3,0,0.4,0c0-5.9,0-11.9,0-17.8
			c0.8,0.3,2.2-0.4,2.2,1.2c0.1,3.1,0.2,6.2,0.3,9.3c0.1,2.3,0.3,4.6,0.4,6.9c0,0.3-0.1,0.6-0.1,1c-1.1,0-2.1,0-3.1,0
			c-0.2,0-0.4,0-0.5,0c-5.6-0.2-11.3-0.4-16.9-0.7c-1.9,0-3.9-0.1-5.8-0.1c-0.5-0.2-1-0.6-1.6-0.7c-3.6-0.9-6.4-2.8-8.4-5.9
			c-2.2-3.6-2.7-9.7,0.4-12.7c0.1-0.1,0.2-0.2,0.4-0.3c0-0.1-0.1-0.1-0.1-0.2c-0.1,0.1-0.3,0.2-0.4,0.3c-1.3,0.7-1.8,2-2.2,3.3
			c-2.1,7.1,2.9,14.7,10.3,15.8c0.5,0.1,1,0.3,1.5,0.4c0,0.6,0,1.2,0,1.8c0.3,2.9,1.2,5.8-0.7,8.5c-1,1.1-2,2.2-2.9,3.3
			c0.2-1.8,0.5-3.5,0.8-5.6c-0.2,0.4-0.3,0.4-0.3,0.6c-1.1,4.6-2.3,9.2-3.4,13.8c0,0.2,0.1,0.4,0.2,0.6c0.9,3.6,1.8,7.2,2.6,10.9
			c1,4.5,2,8.9,1.9,13.5c-0.2,0-0.4,0-0.6,0c-0.1,0-0.2,0-0.2,0c-0.2,0-0.3,0-0.5,0c-0.6,0.1-1.1,0.2-1.7,0.2
			c-3.2,0.1-6.4,0.1-9.6,0.2c-10.6,0.3-21.1,0.6-31.7,0.9c-0.3-3.9,1.2-7.4,2.9-10.7c1.2-2.4,2.5-4.7,4-6.9
			C162,261.7,162.3,258.2,161.5,254.4z M180.4,259.1c-5.8,0.7-11.8,1.3-17.7,2c2.2,1,12.8,2.1,15,1.4c-4.2-0.4-8.4-0.8-12.6-1.2
			C170.5,261.2,175.7,260.7,180.4,259.1z"/>
		<path class="st11" d="M151,266.7c-1,3.5-2,7-2.9,10.6c-2.6,11-5.1,22-7.6,33c0.2,4,0.2,8.1,3.3,11.3c0.6,0.6,1,1.3,0.4,1.8
			c-0.3,0.3-1.4,0.2-1.7-0.1c-1.1-1-2-2.2-3-3.3c-0.4-0.5-0.8-0.9-1.3-1.4c-0.4,0.5-0.9,1-1.1,1.6c-0.6,2-1.1,4.1-1.7,6.1
			c-0.3,1.2-0.7,2.3-1.2,3.4c-0.2,0.4-0.7,0.6-1.1,0.9c-0.2-0.4-0.7-0.9-0.7-1.3c0.2-1.8,0.6-3.5,0.8-5.3c0.1-0.9,0-1.8,0-2.8
			c-0.1,0-0.2-0.1-0.4-0.1c-0.3,0.5-0.6,1-0.8,1.6c-0.7,2.4-1.3,4.9-2,7.3c-0.1,0.4-0.1,0.8-0.3,1.1c-0.2,0.2-0.5,0.5-0.8,0.5
			c-0.2,0-0.6-0.4-0.6-0.6c0-1.3-0.1-2.6,0.1-3.8c0.3-1.7,0.8-3.4,1.2-5.1c0.1-0.4,0.1-0.9,0.1-1.4c-0.1,0-0.3-0.1-0.4-0.1
			c-0.2,0.4-0.4,0.9-0.6,1.4c-0.5,1.7-1,3.5-1.6,5.2c-0.2,0.7-0.7,1.3-1.1,1.9c-0.2,0.2-0.6,0.3-0.9,0.4c-0.1-0.4-0.4-0.8-0.3-1.1
			c0.2-1.1,0.6-2.1,0.8-3.1c0.4-1.6,0.8-3.1,1.1-4.7c0-0.2,0-0.4-0.3-0.7c-0.3,0.5-0.6,1.1-0.9,1.6c-0.5,1.1-0.9,2.2-1.5,3.3
			c-0.2,0.4-0.7,0.5-1.1,0.8c-0.1-0.4-0.4-0.9-0.3-1.2c1.1-2.8,1.9-5.7,3.4-8.3c1.9-3.4,2.6-7,3.1-10.8c1.2-9.2,3.4-18.2,5.6-27.1
			c1.2-4.9,2.5-9.7,3.8-14.6c0.1-0.2,0.2-0.4,0.3-0.6c1,0.3,2,0.5,3,0.8C145,264.7,148,265.8,151,266.7z"/>
		<path class="st5" d="M59.8,193.5c0-5.4,0-10.7,0-16.1c0-0.7,0.1-1.1,1-1.1c14.7,0,29.5,0,44.2,0c0,0,0.1,0,0.1,0
			c-4.6,4.8-7.3,10.5-7.9,17.2C84.7,193.5,72.2,193.5,59.8,193.5z M78.7,184.5c0,2,1.2,3.4,3.1,3.5c1.8,0,3.1-1.3,3.2-3.2
			c0-2-1.3-3.5-3.1-3.5C80.2,181.2,78.8,182.7,78.7,184.5z M69.1,181.5c-2,0-3.1,1-3.1,3.1c0,2.2,1.1,3.4,3,3.5
			c1.9,0,3.2-1.4,3.3-3.3C72.3,182.9,70.9,181.5,69.1,181.5z M97.8,184.6c0-2.1-1-3.1-3-3.2c-1.8,0-3.3,1.4-3.3,3.2
			c0,1.9,1.4,3.4,3.3,3.3C96.7,188,97.8,186.8,97.8,184.6z"/>
		<path class="st5" d="M175.5,176.5c-1.3,0.8-2.6,1.5-3.8,2.3c-1.8,1.4-2.4,2.5-2.9,5c-2.3,0.1-3.5,1.8-4.1,3.8
			c-0.6,1.9-0.9,3.9-1.3,5.9c-5,0-9.9,0-14.9,0c-0.6-6.7-3.2-12.4-7.9-17.2c0.5,0,1-0.1,1.5-0.1c10.6,0,21.3,0,31.9,0
			C174.6,176.3,175,176.4,175.5,176.5z"/>
		<path class="st4" d="M151,266.7c-3-1-6-2-9-3c-1-0.3-2-0.6-3-0.8c-0.5-0.3-0.9-0.5-0.7-1.3c2.1-7.2,4.1-14.3,6.1-21.5
			c0-0.1,0.1-0.2,0.2-0.3c1.2,6.6,5.3,10.7,11.3,13.3c-1.3,4.3-2.6,8.5-3.9,12.8C151.9,266.6,151.7,266.9,151,266.7z M139.3,260.5
			c0,0.2-0.1,0.3-0.1,0.5c4.2,1.1,8.4,2.3,12.6,3.4c0-0.1,0.1-0.3,0.1-0.4c-1.9-0.6-3.8-1.2-5.7-1.7
			C143.9,261.7,141.6,261.1,139.3,260.5z"/>
		<path class="st12" d="M152.8,282.6c10.6-0.3,21.1-0.6,31.7-0.9c3.2-0.1,6.4-0.1,9.6-0.2c0.6,0,1.1-0.1,1.7-0.2
			c-0.4,0.2-0.8,0.6-1.2,0.6c-5.3,0.9-10.5,1.8-15.8,2.6c-4.5,0.7-8.9,1.2-13.4,1.7c-1.8,0.2-3.6,0.4-5.4,0.5
			c-2.7,0.2-5.2-0.4-7.4-2C152.6,284,152.7,283.3,152.8,282.6z"/>
		<path class="st13" d="M140.7,176.3c4.7,4.8,7.3,10.5,7.9,17.2c0.6,7.7-1.6,14.6-6.7,20.5c-0.8,1-0.9,1.7-0.5,2.9
			c1.2,3.5,2.3,7.1,3.4,10.7c0,0,0,0,0,0c-0.4-0.1-0.9-0.2-1.3-0.4c-3.6-1.8-7.2-3.7-10.8-5.4c-0.5-0.3-1.3-0.3-1.8-0.1
			c-12.6,4-25.9-2-31.3-14.1c-2-4.4-2.7-9-2.4-13.9c0.6-6.7,3.3-12.4,7.9-17.2c0.6-0.4,1.1-0.9,1.7-1.3c-0.3,0.4-0.5,0.8-0.8,1.3
			c-5,4.7-7.6,10.5-8.2,17.3c-0.5,5.5,0.7,10.7,3.4,15.6c5.7,10.6,18.3,15.5,29.7,11.7c0.5-0.2,1.3-0.1,1.8,0.1
			c3.4,1.7,6.8,3.4,10.2,5.1c0.3,0.1,0.5,0.2,1,0.4c-1.1-3.5-2.2-6.8-3.3-10c-0.3-0.9-0.2-1.5,0.5-2.3c5.3-5.8,7.6-12.7,7-20.5
			c-0.1-0.6-0.1-1.2-0.2-1.7c-0.9-6.1-3.5-11.3-8-15.5c-0.2-0.3-0.4-0.7-0.5-1C139.7,175.6,140.2,176,140.7,176.3z"/>
		<path class="st13" d="M144.7,227.5C144.8,227.5,144.8,227.5,144.7,227.5C144.8,227.5,144.8,227.5,144.7,227.5
			C144.8,227.5,144.7,227.5,144.7,227.5z"/>
		<path class="st9" d="M204.8,234.1c0,14.3,0,28.5-0.1,42.8c0,10.5-0.1,21-0.2,31.5c0,0.3,0,0.6-0.1,0.9c-0.6-2-1.2-4-1.7-6
			c-1.7-6.4-3.3-12.8-5-19.1c0.1-0.5,0.2-1,0.2-1.5c0-5.7,0-11.3,0.1-17c0-7.2,0.1-14.3,0.1-21.5c1.9-2.7,1-5.6,0.7-8.5
			c-0.1-0.6,0-1.2,0-1.8c0,0,0.1,0,0.1,0C200.9,234,202.8,234.1,204.8,234.1z"/>
		<path class="st14" d="M198.2,244.2c0,7.2-0.1,14.3-0.1,21.5c0,5.7,0,11.3-0.1,17c0,0.5-0.1,1-0.2,1.5c-0.3-1-0.5-1.9-0.8-2.9
			c0.1-4.6-1-9.1-1.9-13.5c-0.8-3.6-1.7-7.3-2.6-10.9c0.8-3,1.6-5.9,2.4-8.9c0.1-0.2,0.2-0.3,0.3-0.5l0,0
			C196.2,246.4,197.2,245.3,198.2,244.2z"/>
		<path class="st14" d="M183.7,332.8c-2.7,0-5.4,0-8,0c0-0.2-0.1-0.3-0.1-0.5c-0.1-6-0.2-12-0.3-17.9c0-2.5-0.1-5-0.2-7.4
			c0.1,0,0.3,0.1,0.4,0.1c2,6.1,4,12.2,5.9,18.2C182.2,327.8,183,330.3,183.7,332.8z"/>
		<path class="st15" d="M195.3,289c0.8,3.2,1.6,6.3,2.4,9.5c3.3,13,6.5,26,9.8,39c1.8,7,3.6,13.9,5.3,20.9c0.2,0.8-0.1,1.7-0.1,2.6
			c-0.1,3.4-0.2,6.9-0.3,10.3c-0.1,4.2-0.3,8.4-0.5,12.6c-0.2,4-0.3,8-0.5,11.9c-0.2,4.1-0.3,8.2-0.5,12.3
			c-0.2,3.9-0.3,7.8-0.5,11.7c-0.2,3.9-0.3,7.7-0.5,11.6c-0.1,1.7-0.2,3.5-0.3,4.9c0-2.1,0-4.4,0-6.8c0-0.2,0.1-0.5,0.1-0.7
			c0.1-3.8,0.2-7.6,0.3-11.5c0.1-4.9,0.3-9.7,0.5-14.6c0.2-4.1,0.3-8.1,0.5-12.2c0.2-4.7,0.3-9.4,0.5-14.1c0.2-4.1,0.3-8.1,0.5-12.2
			c0-0.9,0.1-1.8,0.2-2.7c0.3-3.5-1-6.8-1.8-10.1c-3.5-14.3-7.1-28.6-10.7-43c-1.5-6.1-3-12.2-4.5-18.3c-0.1-0.4-0.1-0.7-0.2-1.1
			C195.1,289,195.2,289,195.3,289z"/>
		<path class="st15" d="M172.8,326.7c0.1,5.4,0.3,10.7,0.4,16.1c0.1,3.7,0,7.4,0,11.1c0.1,5.3,0.2,10.6,0.2,16
			c0.1,4.6,0.2,9.1,0.2,13.7c0.1,6,0.2,12,0.3,18c0.1,5.5,0.2,11,0.2,16.5c0.1,7.4,0.2,14.8,0.2,22.2c0,0.4,0,0.8-0.2,1.2
			c0-0.2-0.1-0.3-0.1-0.5c-0.1-6.2-0.2-12.3-0.3-18.5c-0.1-4.6-0.2-9.1-0.2-13.7c-0.1-4.1-0.2-8.2-0.2-12.3
			c-0.1-5.3-0.2-10.6-0.3-15.8c-0.1-5-0.2-10-0.2-15c-0.1-5.5-0.2-11-0.3-16.5c-0.1-5.7-0.2-11.5-0.3-17.2c-0.1-3.1-0.2-6.1-0.2-9.2
			c0-4.3,0-8.5,0-12.8c0.1,0,0.2,0,0.2,0C172.6,315.6,172.7,321.2,172.8,326.7z"/>
		<path class="st12" d="M172.8,326.7c-0.1-5.6-0.2-11.1-0.3-16.7c0-1.3,0-2.7,0-4c0.9,0.3,2-0.2,2.6,0.9c0.1,2.5,0.2,5,0.2,7.4
			c0.1,6,0.2,12,0.3,17.9c0,0.2,0.1,0.3,0.1,0.5c0,0.6,0,1.2-0.1,1.7c-0.2-0.3-0.6-0.5-0.7-0.8c-0.5-1.9-1-3.8-1.5-5.7
			C173.4,327.5,173,327.1,172.8,326.7z"/>
		<path class="st12" d="M172.3,310c0,4.3,0,8.5,0,12.8c-0.5-2-1.1-4-1.6-5.9c-1.1-4-2.1-8.1-3.2-12.1c1.5,0.3,3,0.7,4.5,1
			C172.1,307.2,172.2,308.6,172.3,310z"/>
		<path class="st15" d="M189.5,438.5c0-0.2,0-0.3,0-0.5c7.6,0.1,15.1-0.1,22.7,0.1c0,0.1,0,0.3,0,0.4
			C204.7,438.5,197.1,438.5,189.5,438.5z"/>
		<ellipse class="st9" cx="165.8" cy="442.7" rx="15.6" ry="0.2"/>
		<path class="st15" d="M172,305.8c-1.5-0.3-3-0.7-4.5-1c-0.3-0.2-0.5-0.3-0.8-0.5c0-0.1,0-0.1,0.1-0.2c4.7,0.9,9.4,1.9,14.1,2.8
			c0,0.1,0,0.2-0.1,0.3c-1.5-0.2-3.1-0.4-4.6-0.5c-0.2,0-0.5,0.2-0.7,0.4c-0.1,0-0.3-0.1-0.4-0.1c-0.5-1.2-1.7-0.6-2.6-0.9
			C172.3,305.9,172.2,305.8,172,305.8z"/>
		<path class="st15" d="M192.2,358.8c-0.2,0-0.4,0-0.6-0.1c0.3-0.2,0.4-0.3,0.6-0.4c3.1-0.5,6.3-1,9.4-1.6c0,0.2,0.1,0.4,0.1,0.6
			C198.5,357.8,195.3,358.3,192.2,358.8z"/>
		<path class="st15" d="M192.2,359.2c0-0.1-0.1-0.1-0.1-0.2c0,0,0-0.1,0-0.1c3-0.1,6-0.1,8.9,0.6c0,0.1,0,0.2,0,0.4
			C198.1,359.8,195.2,359.5,192.2,359.2z"/>
		<ellipse class="st15" cx="194.4" cy="286.1" rx="0.1" ry="0.3"/>
		<ellipse class="st15" cx="194.6" cy="287.1" rx="0.1" ry="0.3"/>
		<path class="st15" d="M194.9,287.9c0,0.1,0,0.3,0,0.4c0,0-0.1,0-0.1,0c0-0.1,0-0.3,0-0.4C194.9,287.9,194.9,287.9,194.9,287.9z"/>
		<path class="st12" d="M196.3,281.3c0.1,0,0.2,0,0.2,0C196.4,281.3,196.3,281.3,196.3,281.3z"/>
		<path class="st7" d="M193.9,443.3c-0.1,0-0.1-0.1-0.1-0.2c0.1,0,0.2,0,0.4,0C194.1,443.1,194,443.2,193.9,443.3z"/>
		<path class="st10" d="M382,75.3c3.5,10.2,6.9,20.5,10.3,30.7c0.3,1,0.5,2,0.6,3.1c0.4,3.4-1.1,6.3-4.4,7.9
			c-2.8,1.3-5.7,2.3-8.6,3.4c-9.5,3.4-18.9,6.7-28.4,10.1c0-0.1,0-0.3,0-0.4c10.8-3.9,21.6-7.8,32.3-11.8c1.3-0.5,2.7-1,3.9-1.6
			c3.8-1.9,5.3-4.8,4.3-8.9c-1.1-4.3-2.6-8.4-3.9-12.6c-2.2-6.6-4.4-13.3-6.6-19.9C381.7,75.3,381.8,75.3,382,75.3z"/>
		<path class="st10" d="M361.5,90.8c0.3,0.2,0.7,0.4,1,0.7c3.4,4.4,3.3,9.8-0.3,14c-0.6,0.7-0.7,1.2-0.4,2.1
			c1.2,3.1,2.3,6.2,3.4,9.2c0.2,0.4,0.3,0.9,0.5,1.5c-2.6,0.9-5.1,1.7-7.8,2.6c-1.2-3.6-2.4-7-3.6-10.5c-0.3-0.9-0.7-1.4-1.7-1.6
			c-4.1-0.8-7.6-4.8-8.3-9.2c0.1,0.2,0.3,0.4,0.4,0.6c0.2,0.5,0.5,1.1,0.7,1.6c0.1,0,0.1,0.1,0.1,0.1c0,0.1,0.1,0.2,0.1,0.3
			c1.8,3.3,4.3,5.6,8.2,6.2c0.3,0,0.7,0.5,0.8,0.9c1.1,3.3,2.2,6.5,3.3,9.8c0.1,0.3,0.3,0.6,0.4,0.9c2.2-0.7,4.3-1.4,6.5-2.2
			c-1.3-3.6-2.5-7-3.8-10.4c-0.3-0.8-0.3-1.3,0.3-2.1c3.9-4.4,3.9-10.2,0.1-14.1C361.5,91.1,361.5,90.9,361.5,90.8z"/>
		<path class="st16" d="M331.9,68.8c4.3,0,8.6,0,13-0.1c0.2,0,0.4,0.2,0.7,0.3c-4.1,1.5-8.1,3-12.2,4.5
			C332.8,71.9,332.4,70.4,331.9,68.8z"/>
		<path class="st16" d="M361.5,90.8c0,0.2,0.1,0.3,0.1,0.5c-4.7,0-9.4,0-14.1,0c0-0.1,0-0.2,0-0.3l0,0c0.1-0.1,0.2-0.2,0.3-0.3
			c0,0,0,0,0,0c0.1-0.1,0.2-0.2,0.3-0.3c0,0,0,0,0,0c0.1-0.1,0.2-0.2,0.4-0.3c0.6-0.4,1.3-0.8,1.9-1.2c0.2-0.1,0.4-0.2,0.6-0.3
			c0,0,0,0,0,0c1.5-0.2,3.1-0.5,4.6-0.7c0.3,0,0.7,0,1,0c1.5,0.7,3,1.5,4.5,2.2c0,0,0,0,0,0c0.1,0.1,0.2,0.2,0.3,0.3c0,0,0,0,0,0
			C361.3,90.6,361.4,90.7,361.5,90.8C361.5,90.8,361.5,90.8,361.5,90.8z"/>
		<path class="st10" d="M333.3,73.5c4.1-1.5,8.1-3,12.2-4.5c3.8-1.3,7.6-2.7,11.3-4c2.6-0.9,5.2-1.7,7.7-2.6c0,0.1,0.1,0.3,0.1,0.4
			c-13.3,4.8-26.5,9.6-39.8,14.4c0-0.1-0.1-0.2-0.1-0.4C327.6,75.7,330.5,74.6,333.3,73.5z"/>
		<path class="st10" d="M348.9,49.3c-4-1.3-7.8-1.3-11.5,0.4c-6.3,2.7-9.5,9.2-8,16.3c0.4,1.8,0.9,3.6,1.3,5.5
			c-0.1-0.1-0.3-0.2-0.3-0.3c-1.8-4.4-2.8-8.9-1.2-13.6c2.6-7.4,11.2-11.5,18.5-8.8C348.1,48.9,348.5,49.1,348.9,49.3z"/>
		<path class="st8" d="M345.4,101.8c-0.2-0.5-0.4-1.1-0.7-1.6c-0.1-0.2-0.3-0.4-0.4-0.6c-0.3-2.7,0.4-5.2,2.1-7.4
			c0.1,0.1,0.1,0.1,0.2,0.2C344.8,95.3,344.5,98.4,345.4,101.8z"/>
		<path class="st8" d="M351.5,130c0,0.1,0,0.3,0,0.4c-3.1,1.1-6.2,2.2-9.3,3.3c-0.1-0.2-0.1-0.3-0.2-0.5c0.4-0.1,0.9-0.1,1.3-0.2
			C346.1,132,348.8,131,351.5,130z"/>
		<path class="st8" d="M382,75.3c-0.1,0-0.3,0-0.4,0c-0.7-2-1.4-4.1-2.1-6.1c0.1,0,0.2-0.1,0.4-0.1C380.6,71.1,381.3,73.2,382,75.3z
			"/>
		<path class="st10" d="M361,90.3c-1.5-0.7-3-1.5-4.5-2.2C358.1,87.8,360.5,89,361,90.3z"/>
		<path class="st6" d="M355.5,88c-1.5,0.2-3.1,0.5-4.6,0.7C352.3,88,353.8,87.4,355.5,88z"/>
		<path class="st8" d="M346.4,92.1c0.3-0.3,0.5-0.6,0.8-0.9c0,0,0.1,0.1,0.1,0.1c-0.2,0.3-0.5,0.7-0.7,1
			C346.5,92.2,346.4,92.2,346.4,92.1z"/>
		<path class="st6" d="M350.9,88.7c-0.2,0.1-0.4,0.2-0.6,0.3C350.5,88.9,350.7,88.8,350.9,88.7z"/>
		<path class="st10" d="M361.5,90.8c-0.1-0.1-0.2-0.2-0.3-0.3c0.1,0,0.2,0,0.3,0C361.5,90.6,361.5,90.7,361.5,90.8z"/>
		<path class="st8" d="M348,90.5c-0.1,0.1-0.2,0.2-0.3,0.3C347.8,90.7,347.9,90.6,348,90.5z"/>
		<path class="st10" d="M361.2,90.5c-0.1-0.1-0.2-0.2-0.3-0.3c0.1,0,0.2,0,0.3,0C361.3,90.4,361.3,90.4,361.2,90.5z"/>
		<path class="st8" d="M348.4,90.3c-0.1,0.1-0.2,0.2-0.4,0.3C348.1,90.4,348.2,90.3,348.4,90.3z"/>
		<path class="st8" d="M347.8,90.7c-0.1,0.1-0.2,0.2-0.3,0.3C347.6,90.9,347.7,90.8,347.8,90.7z"/>
		<path class="st8" d="M347.5,91c0,0.1,0,0.2,0,0.3c-0.1,0-0.1,0-0.2,0.1c0,0-0.1-0.1-0.1-0.1C347.3,91.1,347.4,91.1,347.5,91z"/>
		<path class="st8" d="M181.3,452c0.1,0,0.2,0.1,0.3,0.1c-1.8,0.1-3.5,0.4-5.3,0.4c-4.9,0.1-9.7,0-14.6,0c-1.7,0-3.5-0.1-5.2-0.4
			c1.2-0.1,2.3-0.1,3.7-0.2c-1-1.4-2.1-2.3-3.7-2.3c0-0.1,0-0.2,0-0.3c0.5,0,1.1-0.2,1.5,0c0.7,0.4,1.6,0.9,2,1.6
			c0.6,0.9,1.3,1.1,2.3,1.1c4.7,0,9.4,0,14.1,0C178,451.8,179.7,451.9,181.3,452z"/>
		<path class="st17" d="M198.3,213.7c-3.2-0.3-6.5-0.6-9.7-0.9c-1-0.1-1.9-0.1-2.9-0.2c0-0.7,0-1.3,0.1-2c0.1-1.1,0.5-1.8,1.7-2.1
			c2.2-0.6,3.6-2.2,4.1-4.4c0.2-1,0.3-2,0.3-3.1c0.1-2.5,0-5.1,0-7.6c2.1,0,4.2,0,6.3,0c0,4.1,0.1,8.2,0.1,12.2
			C198.4,208.4,198.3,211.1,198.3,213.7z"/>
		<path class="st10" d="M341.7,318c4.4-14.1,10.2-27.6,16.3-41c0.2-0.4,0.3-0.9,0.3-1.3c-0.9-7.3-1.8-14.5-2.7-21.8
			c-0.3-2.6-0.7-5.3-1.1-7.9c-0.1-0.5-0.2-1-0.1-1.6c2.5,10.2,2.9,20.6,4.2,31.2c9-15.5,18.8-30.2,31.5-42.6
			c-6.1,6.3-11.5,13.2-16.6,20.4c-5,7.2-10,14.4-14.2,22.6c12.3-3.8,24.6-6.4,37.2-6.6c-3.2,0.4-6.4,0.7-9.7,1.2
			c-9.1,1.2-18.1,3.1-26.9,5.7c-0.6,0.2-1.2,0.9-1.4,1.5c-3.2,7.4-6.5,14.8-9.5,22.4c-2.4,6-4.4,12.1-6.6,18.2c-0.4,1-0.7,2-1,3
			c0-1,0-2.1,0-3.1C341.4,318.1,341.6,318.1,341.7,318z"/>
		<path class="st16" d="M198.3,193.5c-2.1,0-4.2,0-6.3,0c0-1.2,0-2.3,0-3.5c1.1-2,2.4-3.8,3.1-5.9c1-2.9-0.1-5.3-2.8-6.8
			c-0.6-0.3-1.2-0.6-1.8-0.9c1.1-0.1,2.3-0.2,3.4-0.2c1.5,0,3,0,4.6,0c0,5.3,0,10.7-0.1,16C198.4,192.7,198.3,193.1,198.3,193.5z"/>
		<path class="st7" d="M341.7,318c-0.1,0.1-0.3,0.1-0.4,0.2c0-0.1,0-0.1,0.1-0.2C341.5,318,341.6,318,341.7,318z"/>
		<path class="st3" d="M392.7,297.5c-3.4-3.5-7.6-4.3-12.5-2.4c-2.1,0.8-4.1,1.7-6.3,2.3c-1.1,0.3-2.3,0.2-3.4-0.1
			c-3.3-0.9-4.3-4.7-1.8-7.4c1.2-1.3,2.7-2.4,4.3-3c5.9-2.2,11.6-4.8,16.7-8.5c1.1-0.8,2.2-1.7,3.3-2.5c0,2.7,0,5.5,0,8.2
			c0,1.2,0,2.3,0,3.5c0,2.7,0,5.5,0,8.2C392.9,296.5,392.8,297,392.7,297.5z"/>
		<path class="st0" d="M392.7,297.5c0.1-0.5,0.2-1,0.3-1.5c15.4,0,30.8,0,46.2,0c0.6,0,1.6,0.2,1.6,0.4c0.2,1,0.1,2,0,3.1
			c0,0.1-0.3,0.2-0.5,0.2c-0.3,0-0.7,0-1,0c-15.2,0-30.4,0-45.6,0C393.4,299,393,298.3,392.7,297.5z"/>
		<path class="st0" d="M393,287.8c0-1.2,0-2.3,0-3.5c15.5,0,31,0,46.4,0c0.5,0,1.4,0.2,1.4,0.3c0.1,1,0.1,2,0,3c0,0.1-0.7,0.2-1,0.2
			c-2.2,0-4.4,0-6.6,0C419.8,287.8,406.4,287.8,393,287.8z"/>
		<path class="st0" d="M393.7,275.5c0.9-1.1,1.7-2.1,2.6-3.2c11.9,0,23.8,0,35.7,0c0.5,0,1.4,0.1,1.4,0.3c0.1,0.9,0.1,1.8,0,2.7
			c0,0.1-0.7,0.2-1,0.2c-3.2,0-6.5,0-9.7,0C413,275.5,403.3,275.5,393.7,275.5z"/>
		<path class="st10" d="M389.1,304c-14.6,4.6-28.9,10-43.6,14.2c0-0.1-0.1-0.2-0.1-0.4c14.5-4.8,29-9.6,43.6-14.4
			C389,303.6,389.1,303.8,389.1,304z"/>
		<path class="st0" d="M116,167.8c-17.5,0-35.1,0-52.6,0c-0.4,0-1.3-0.2-1.3-0.3c-0.1-0.9,0-1.8,0.1-2.7c0-0.1,0.4-0.2,0.5-0.2
			c0.4,0,0.7,0,1.1,0c34.9,0,69.7,0,104.6,0c0.6,0,1.6,0.1,1.7,0.3c0.2,0.8,0.1,1.7,0.1,2.6c0,0.1-0.4,0.3-0.6,0.3
			c-0.4,0.1-0.7,0-1.1,0C151,167.8,133.5,167.8,116,167.8z"/>
		<path class="st0" d="M80.8,155.7c-5.7,0-11.5,0-17.2,0c-1.6,0-1.6,0-1.6-1.6c0-1.9,0-3.8,0-5.7c0-0.8,0.1-1.1,1-1.1
			c11.9,0,23.8,0,35.7,0c0.9,0,1.1,0.3,1,1.1c0,2.1-0.1,4.2,0,6.2c0,1-0.3,1.2-1.2,1.2C92.6,155.7,86.7,155.7,80.8,155.7z"/>
		<path class="st18" d="M125.3,169.4c-3.8-0.4-7.4,0.3-10.9,1.5c-0.2,0.1-0.5,0.1-0.7,0.1c0.1-0.1,0.2-0.3,0.3-0.4
			c3.7-1.4,7.5-2,11.4-1.4C125.3,169.2,125.3,169.3,125.3,169.4z"/>
		<path class="st13" d="M139.3,175.3c-0.2,0-0.4,0-0.6-0.1c-2.1-1.3-4.2-2.6-6.2-3.9c-0.1-0.1-0.2-0.3-0.3-0.5
			C134.7,171.8,137.2,173.2,139.3,175.3z"/>
		<path class="st13" d="M113.6,171c-2.2,1.4-4.4,2.7-6.6,4.1c-0.1,0-0.2,0-0.3-0.1C108.7,173.1,110.9,171.6,113.6,171z"/>
		<path class="st19" d="M125.3,169.4c0-0.1,0-0.1,0-0.2c2.2,0.5,4.3,1,6.5,1.6c-0.3,0-0.6,0-0.9,0
			C129,170.3,127.2,169.8,125.3,169.4z"/>
		<path class="st18" d="M192,190c0,1.2,0,2.3,0,3.5c0,2.5,0,5.1,0,7.6c0,1-0.1,2.1-0.3,3.1c-0.5,2.2-2,3.8-4.1,4.4
			c-1.2,0.4-1.6,1-1.7,2.1c0,0.7,0,1.3-0.1,2c-0.1,1.7-0.3,3.2-2.2,3.8c-0.2-3.4,0.7-6.6,1.6-9.8c0.4-1.4,0.7-2.8,1.1-4.2
			c0.6-0.2,1.2-0.3,1.7-0.5c0.1-0.1,0.2-0.3,0.3-0.5c-0.1-0.1-0.1-0.2-0.2-0.3c0,0,0.1,0,0.1-0.1c0,0.1,0.1,0.2,0.1,0.3
			c-0.2,1.3-1.1,0.6-1.7,0.6c0.2-1,0.3-1.9,0.5-2.9c-0.6,0.1-1,0.1-1.3,0.1c-1.4-0.3-2.3-1.2-2.4-2.7c-0.1-1.3,0.6-2.3,1.7-3
			c0.6-0.4,1.3-0.7,2-0.9C188.9,192.3,190.6,191.4,192,190z"/>
		<path class="st10" d="M185.7,199.3c0.4,0,0.7-0.1,1.3-0.1c-0.2,1-0.3,1.9-0.5,2.9c0.6,0,1.4,0.7,1.7-0.6l0,0
			c-0.1,0.2-0.2,0.5-0.3,0.5c-0.6,0.2-1.2,0.3-1.7,0.5c-0.8,0.1-1.1-0.3-1-1.1C185.4,200.7,185.6,200,185.7,199.3z"/>
		<path class="st18" d="M262.5,182.5c0.4-0.3,0.8-0.6,1.2-0.8c0.8-0.4,1.4-0.3,1.3,0.8c-0.3,0.6-0.7,1.3-1,1.9
			c-0.5,0.9-1,1.7-1.5,2.6c-0.9,0.5-1.6,1.8-1.7,3.2c1.4,0,2.7,0.2,2.2,2.1c0.6,0.2,1,0.4,1.5,0.5c0,0.2,0,0.3,0.1,0.5
			c0,0.4,0,0.8,0,1.2c1.9,0.6,2.1,1.3,0.5,2.6c-5.8,4.8-9.9,11-14.7,16.6c-1.4,1.7-2.8,3.4-4.2,5.1c-0.2,0.2-0.5,0.5-0.7,0.7
			c-1.6,1.8-3.2,3.7-4.9,5.5c-0.1,0.1-0.1,0.3-0.1,0.5c-1.4,1.5-2.8,2.9-4.2,4.4c-0.5,0.4-1,0.7-1.4,1.1c-1.6,1.7-3.8,2.3-6,2.5
			c-1.1,0.1-2.2,0.2-3.3,0.3c-0.2-2.3-0.3-4.6-0.4-6.9c-0.1-3.1-0.2-6.2-0.3-9.3c1.3,0.2,2.3-0.3,3.3-1.3c1-1.1,2.2-2.1,3.3-3.1
			c0.3-0.3,0.5-0.7,0.7-1c0.9-0.8,1.9-1.6,2.8-2.4c0.8-0.7,1.5-1.6,2.2-2.4c0.3-0.2,0.6-0.3,0.8-0.5c4-3.9,8.1-7.7,12.1-11.6
			c0.5-0.5,0.7-1.3,1.1-1.9c0-0.2,0-0.3,0.1-0.5c0.9-1.9,1.2-3.8,0.7-5.8c-0.2-0.8-0.4-1.5-0.5-2.3c-0.1-0.4,0.1-1,0.3-1.1
			c0.4-0.1,1.1-0.1,1.3,0.2c0.6,1.1,1,2.2,1.5,3.3c0.1,0.7,0.2,1.5,0.3,2.2c0.1,1.1,0.8,1.4,1.6,0.7c0.9-0.9,1.6-1.9,2.4-2.9
			C259.9,185.5,261.2,184,262.5,182.5z"/>
		<path class="st3" d="M222.3,234.8c0.5,0.2,1,0.5,1.5,0.7c0.1,0,0.2,0,0.4,0c17.9,0.1,35.9,0.2,53.8,0.3
			c11.4,0.1,22.8,0.2,34.2,0.2c3.3,0,6.5,0,9.8,0c0,0.2,0,0.3,0,0.5c-0.4,0-0.8,0-1.2,0c-15.2,0-30.4,0-45.6,0
			c-17,0-34-0.2-50.9-0.2c-1.1,0-2.2,0-2.5-1.5C221.9,234.8,222.1,234.8,222.3,234.8z"/>
		<path class="st10" d="M180.4,259.1c-4.7,1.6-9.9,2.2-15.2,2.2c4.2,0.4,8.3,0.8,12.6,1.2c-2.2,0.7-12.9-0.3-15-1.4
			C168.6,260.4,174.6,259.7,180.4,259.1z"/>
		<path class="st10" d="M199,234C199,234,198.9,234,199,234c-0.6-0.1-1.1-0.3-1.6-0.4c-7.4-1-12.4-8.7-10.3-15.8
			c0.4-1.3,0.9-2.6,2.2-3.3c0.1,0.1,0.1,0.1,0.2,0.2c-3.1,3-2.6,9.1-0.4,12.7c2,3.2,4.8,5.1,8.4,5.9
			C197.9,233.4,198.4,233.7,199,234z"/>
		<path class="st10" d="M222.2,216.3c0.1,0,0.2,0,0.3,0c0,5.9,0,11.9,0,17.8c-0.1,0-0.3,0-0.4,0C222,228.2,221.8,222.2,222.2,216.3z
			"/>
		<path class="st10" d="M195,248c-0.8,3-1.6,5.9-2.4,8.9c-0.1-0.2-0.3-0.4-0.2-0.6c1.1-4.6,2.3-9.2,3.4-13.8c0-0.1,0.1-0.2,0.3-0.6
			c-0.3,2-0.5,3.8-0.8,5.6c0,0,0,0,0,0C195.1,247.6,195.1,247.8,195,248z"/>
		<path class="st10" d="M189.2,214.5c0.1-0.1,0.3-0.2,0.4-0.3c0,0.1,0.1,0.1,0.1,0.2c-0.1,0.1-0.2,0.2-0.4,0.3
			C189.3,214.6,189.3,214.5,189.2,214.5z"/>
		<path class="st10" d="M139.3,260.5c2.3,0.6,4.6,1.1,6.8,1.7c1.9,0.5,3.8,1.1,5.7,1.7c0,0.1-0.1,0.3-0.1,0.4
			c-4.2-1.1-8.4-2.3-12.6-3.4C139.2,260.8,139.3,260.7,139.3,260.5z"/>
		<path class="st17" d="M148,193.5c0.6,7.8-1.7,14.7-7,20.5c-0.7,0.8-0.8,1.4-0.5,2.3c1.1,3.3,2.1,6.6,3.3,10
			c-0.4-0.2-0.7-0.2-1-0.4c-3.4-1.7-6.7-3.4-10.2-5.1c-0.5-0.3-1.3-0.3-1.8-0.1c-11.4,3.9-24-1.1-29.7-11.7
			c-2.7-4.9-3.8-10.1-3.4-15.6c5.1,0,10.3,0,15.4,0c-0.1,2.7-0.2,5.5-0.2,8.2c0,2.3,1.4,3.7,3.7,3.5c3.9-0.4,7.8-0.9,11.9-1.4
			c0-3.3,0-6.7,0-10.1c0.3-0.1,0.6-0.2,0.9-0.2c0,3.5,0,7,0,10.6c1.2,0,2.2,0,3.3,0c0.4-3.6,0.7-7.1,1-10.6
			C138.5,193.5,143.2,193.5,148,193.5z"/>
		<path class="st16" d="M129.5,193.5c-0.3,0.1-0.6,0.2-0.9,0.2c0-0.4-0.1-0.8-0.2-1.3c-1.5,0.4-2.2-0.5-2.8-1.5
			c-0.2-0.4-0.5-0.7-0.7-1c-1.6-1.8-2.6-3.7-2.2-6.2c0-0.1-0.1-0.3-0.1-0.5c-1.1,0.1-1.8,0.7-2,1.6c-0.3,1.1-0.3,2.3-0.4,3.4
			c-0.1,1,0,2.1,0,3.3c-1.6,0-3.2,0-4.9,0c-1.3,0-2.1,0.5-2.1,2c-5.1,0-10.3,0-15.4,0c0.6-6.8,3.2-12.6,8.2-17.3
			c11.3,0,22.6,0,33.8,0c4.5,4.2,7,9.5,8,15.5c0.1,0.6,0.1,1.2,0.2,1.7c-4.7,0-9.5,0-14.2,0c0-0.6,0-1.3,0-2.1
			c-1.4,0.1-2.8,0.2-4.2,0.2C129.5,192.4,129.5,193,129.5,193.5z"/>
		<path class="st20" d="M284.5,334.6c-7,0-14.1,0-21.1,0c-9.9,0-19.9-0.1-29.8-0.2c-1.5,0-2.1-0.5-2.1-2c0-6.3,0-12.7,0-19
			c0-1.7,0.5-2.2,2.3-2.2c8.1,0,16.2,0,24.2,0.1c13.5,0.1,27,0.1,40.5,0.2c2.7,0,5.3,0,8,0.1c1.4,0,2,0.6,2,2c0,6.4,0,12.7,0,19.1
			c0,1.6-0.6,2.1-2.2,2.1c-7.2,0-14.5,0-21.7,0C284.5,334.7,284.5,334.7,284.5,334.6z M261,319.4c0,2,0,3.7,0,5.4
			c0,0.2,0.3,0.5,0.5,0.7c0.2-0.3,0.5-0.5,0.5-0.8c0.1-1,0-2,0-3.3c0.8,1.1,1.2,1.9,1.8,2.6c0.5,0.6,0.7,1.8,2.1,1.5
			c0-1.7,0-3.3,0-5c0-0.3-0.3-0.5-0.5-0.8c-0.2,0.3-0.5,0.5-0.5,0.8c-0.1,0.9,0,1.8,0,2.9C263.3,322.2,263.1,320.1,261,319.4z
			 M271.9,320.4c-1.3-1-2.6-1.1-3.8-0.3c-1,0.7-1.5,2-1.1,3.2c0.4,1.6,2,2.5,3.6,2.1c1.4-0.3,1.6-0.8,1.1-2.8
			c-0.3,0.3-0.5,0.6-0.5,0.9c0,0.9-0.5,1.2-1.2,1.1c-0.7-0.2-1.6-0.6-1.8-1.1c-0.3-0.6-0.1-1.7,0.3-2.1c0.4-0.5,1.4-0.5,2.1-0.6
			C271,320.6,271.6,321.5,271.9,320.4z M275.2,321.8C275.3,321.8,275.3,321.8,275.2,321.8c0,0.6,0,1.2,0,1.7c0.1,1.2,1,1.9,2.2,1.9
			c1.4,0.1,2.3-0.5,2.5-1.7c0.2-1.1,0.1-2.3,0.1-3.5c0-0.2-0.4-0.4-0.6-0.6c-0.1,0.2-0.4,0.4-0.4,0.6c-0.1,0.9-0.1,1.8-0.1,2.7
			c0,1-0.4,1.5-1.4,1.5c-1,0-1.5-0.6-1.5-1.6c0-0.9,0-1.8,0-2.6c0-0.2-0.3-0.4-0.5-0.6c-0.1,0.2-0.4,0.4-0.4,0.6
			C275.2,320.8,275.2,321.3,275.2,321.8z M257.5,321c-0.3-0.6-0.4-1.1-0.6-1.2c-0.7-0.1-1.5-0.3-2.2-0.1c-0.5,0.2-1.1,0.9-1.1,1.4
			c0,0.4,0.5,1,1,1.4c0.3,0.3,0.8,0.2,1.1,0.5c0.3,0.2,0.5,0.6,0.8,1c-0.4,0.2-0.8,0.5-1.2,0.5c-0.6-0.1-1.1-0.4-2-0.8
			c0.2,0.5,0.2,1.1,0.4,1.1c0.9,0.2,1.8,0.5,2.7,0.4c0.4-0.1,1.1-0.9,1.1-1.4c0-0.5-0.5-1.1-0.9-1.5c-0.3-0.3-0.9-0.3-1.2-0.5
			c-0.3-0.2-0.4-0.5-0.6-0.8c0.3-0.1,0.6-0.4,0.9-0.4C256.1,320.5,256.6,320.7,257.5,321z M282.8,323.7c0.3,0,0.8,0,1.2,0
			c1.2-0.1,1.9-0.9,1.9-2c0-1.1-0.6-1.9-1.8-1.9c-0.8-0.1-1.6,0-2.6,0c0,1.4,0,2.8,0,4.1c0,0.6,0.3,1.1,0.5,1.7
			C282.2,325,282.4,324.5,282.8,323.7z M259.7,322.5c0-0.8,0-1.6,0-2.4c0-0.2-0.3-0.4-0.5-0.6c-0.2,0.2-0.5,0.4-0.5,0.5
			c0,1.6,0,3.2,0,4.7c0,0.2,0.3,0.4,0.5,0.6c0.2-0.2,0.5-0.4,0.5-0.7C259.7,324,259.7,323.3,259.7,322.5z"/>
		<path class="st19" d="M249.1,139.7c3.4,0,6.6,0,9.8,0c6.4,0,12.7,0,19.1,0.1c5.7,0,11.4,0.1,17.1,0c1,0,1.4,0.2,1.4,1.3
			c-0.1,1.4,0,2.8,0,4.3c-0.3,0.1-0.6,0.1-0.8,0.1c-15.2,0-30.3-0.1-45.5-0.1c-0.9,0-1.1-0.3-1.1-1.2
			C249.1,142.8,249.1,141.4,249.1,139.7z"/>
		<path class="st19" d="M236.3,229.9c1.4-1.5,2.8-2.9,4.2-4.4c11.1,0,22.3,0,33.4,0.1c1.7,0,1.7,0,1.7,1.8c0,0.8,0,1.7,0,2.6
			c-0.5,0-0.9,0.1-1.4,0.1c-11.1,0-22.1,0-33.2-0.1C239.5,230,237.9,229.9,236.3,229.9z"/>
		<path class="st19" d="M262.5,182.5c-1.3,1.5-2.6,3-3.9,4.5c-1.4,0-2.9,0-4.3,0c-0.5-1.1-0.9-2.3-1.5-3.3c-0.1-0.2-0.9-0.3-1.3-0.2
			c-0.2,0.1-0.3,0.8-0.3,1.1c0.1,0.8,0.4,1.5,0.5,2.3c-6.9,0-13.8-0.1-20.7-0.1c-0.7,0-1.4,0-2.2,0c0-1.5,0-2.9,0-4.5
			c2,0,3.9,0,5.9,0c0.7,0,1.3,0.1,2,0.1c8.1,0,16.2,0,24.4,0.1C261.6,182.5,262,182.5,262.5,182.5z"/>
		<path class="st21" d="M275.3,128.9c3.6,1.6,4.7,3.3,4.7,7c-4.4,0-8.8,0-13.1,0c-0.4-3.1,1.2-5.4,4.8-7c-2.2-2.1-2.5-4.5-0.7-6.3
			c1.3-1.4,3.7-1.4,5.1-0.1C277.8,124.2,277.6,126.7,275.3,128.9z"/>
		<path class="st21" d="M221.5,256.9c0-1.7,0-3.2,0-4.7c8.5,0,17.1,0,25.7,0c0,1.6,0,3.1,0,4.7C238.7,256.9,230.2,256.9,221.5,256.9
			z"/>
		<path class="st21" d="M247.5,164.3c0,1.6,0,3.1,0,4.6c-8.5,0-17,0-25.5,0c0-1.6,0-3,0-4.6C230.5,164.3,239,164.3,247.5,164.3z"/>
		<path class="st1" d="M323,264.5c-3,0-6.1,0-9.1,0c-0.5,0-0.9,0-1.4,0c-22.3,0-44.6,0-66.9,0c-7.1,0-14.2-0.2-21.3-0.2
			c-2,0-2.6,0.6-2.6,2.6c0,3.7,0,7.4,0,11.1c0,1.9,0.6,2.5,2.6,2.5c5.7,0,11.3,0,17,0c16.6,0.1,33.1,0.2,49.7,0.3
			c9.2,0.1,18.4,0.2,27.6,0.2c0.3,0,0.6,0,0.8,0.2c-0.4,0-0.8,0-1.2,0c-29.8,0-59.7,0-89.5,0c-1.9,0-3.7-0.1-5.6-0.2
			c-1.4-0.1-2.2-1.1-2.2-3c0-3.3,0.2-6.6,0.2-9.8c0-0.7,0-1.3,0-2c0-1.6,0.9-2.4,2.5-2.4c9.4,0,18.7,0,28.1,0c0.4,0,0.8,0,1.1,0
			c17.9,0.1,35.9,0.2,53.8,0.3c5.1,0,10.1,0.2,15.2,0.2c0.3,0,0.7,0.1,1,0.1C323,264.4,323,264.5,323,264.5z"/>
		<path class="st3" d="M251,192.8c0,0.2,0,0.3-0.1,0.5c-8.7,0-17.5,0-26.2,0c-0.6,0-1.3,0-1.8-0.3c-0.9-0.3-1.4-0.9-1.4-2
			c0-4.3,0-8.7,0-13c0-1.6,0.7-2.3,2.3-2.3c11.4,0,22.8,0,34.2,0c15.1,0.1,30.1,0.1,45.2,0.2c6.5,0,13,0.2,19.5,0.2
			c1.4,0,2.2,0.6,2.2,1.9c0.1,4.6,0,9.2,0,13.8c-0.2,0-0.3,0-0.5,0c0-2.2,0-4.5,0-6.7c0-2.2,0-4.4,0-6.6c0-1.5-0.4-1.9-1.9-1.9
			c0,0-0.1,0-0.1,0c-27.8-0.1-55.6-0.2-83.5-0.3c-4.9,0-9.8-0.2-14.7-0.2c-1.6,0-2,0.4-2,2c0,3,0,6,0,9c0,1-0.2,2-0.2,3
			c0,1.8,0.4,2.3,2.3,2.3c7.1,0,14.2,0,21.2,0C247.4,192.5,249.2,192.7,251,192.8z"/>
		<path class="st21" d="M237,207.3c-0.7,0.8-1.4,1.6-2.2,2.4c-0.9,0.8-1.8,1.6-2.8,2.4c-3.4,0-6.7,0-10.2,0c0-1.6,0-3.1,0-4.8
			C226.9,207.3,231.9,207.3,237,207.3z"/>
		<path class="st19" d="M262.5,186.9c0.5-0.9,1-1.7,1.5-2.6c0.3-0.6,0.7-1.3,1-1.9c3.5,0,7.1,0,10.7,0c0,1.6,0,3,0,4.5
			C271.3,186.9,266.9,186.9,262.5,186.9z"/>
		<path class="st3" d="M245.5,219.5c0.2-0.2,0.5-0.5,0.7-0.7c25.6,0.2,51.2,0.4,76.8,0.6c0,0,0,0.1,0,0.1
			C297.2,219.5,271.3,219.5,245.5,219.5z"/>
		<path class="st3" d="M264.5,193.3c0-0.2,0-0.3-0.1-0.5c8.2,0,16.4-0.1,24.6,0c9,0,18,0.2,27,0.2c1.4,0,2.8,0.1,4.2,0.2
			C301.6,193.3,283.1,193.3,264.5,193.3z"/>
		<path class="st19" d="M271.2,273.2c0,1.2-0.9,2.2-2,2.3c-1.1,0.1-2.1-0.9-2.2-2.1c-0.1-1.3,0.9-2.4,2.1-2.4
			C270.2,271,271.2,272,271.2,273.2z"/>
		<path class="st19" d="M284,273.4c0,1.2-1,2.2-2.2,2.2c-1.2,0-2.1-0.9-2.1-2.2c0-1.2,1-2.3,2.2-2.3C283,271.1,284,272.2,284,273.4z
			"/>
		<path class="st19" d="M258.5,273.2c0,1.2-1,2.2-2.1,2.2c-1.1,0-2.1-1.1-2.1-2.3c0-1.2,0.9-2.2,2.1-2.1
			C257.5,271,258.5,272.1,258.5,273.2z"/>
		<path class="st19" d="M230.8,275.3c-1.2,0-2.1-1-2.1-2.2c0-1.2,0.9-2.2,2.1-2.2c1.2,0,2.2,1,2.2,2.3
			C232.9,274.3,231.9,275.3,230.8,275.3z"/>
		<path class="st19" d="M275.4,271c1.1,0,2.1,1,2.1,2.2c0,1.3-0.9,2.3-2.1,2.3c-1.1,0-2.1-1-2.1-2.2
			C273.3,272.1,274.3,271,275.4,271z"/>
		<path class="st19" d="M243.6,271c1.2,0,2.1,0.8,2.2,2.1c0,1.2-1,2.3-2.1,2.3c-1.1,0-2.1-1-2.1-2.2
			C241.5,271.9,242.3,271,243.6,271z"/>
		<path class="st19" d="M264.8,273.3c0,1.2-1,2.2-2.1,2.2c-1.1,0-2.1-1.1-2.1-2.4c0.1-1.2,1-2.1,2.2-2.1
			C264,271,264.8,272,264.8,273.3z"/>
		<path class="st19" d="M252,273.1c0,1.3-0.9,2.3-2.1,2.3c-1.1,0-2.1-1.1-2.1-2.2c0-1.2,0.9-2.2,2.1-2.2
			C251.1,271,252,271.8,252,273.1z"/>
		<path class="st19" d="M237.2,275.3c-1.1,0-2.1-1-2.1-2.2c0-1.2,1.1-2.3,2.2-2.3c1.1,0,2,1.1,2,2.3
			C239.3,274.4,238.4,275.3,237.2,275.3z"/>
		<path class="st3" d="M324,219.7c0.3,0.6,0.7,1.2,0.7,1.8c0.1,3.5,0,7.1,0,10.6c0,0.1-0.1,0.2-0.4,0.6c0-0.7-0.1-1.1-0.1-1.4
			c0-2.8,0-5.6,0-8.4c0-1-0.2-2-0.4-2.9C323.9,219.9,323.9,219.8,324,219.7z"/>
		<path class="st1" d="M324.4,265.7c0,4.4,0,8.8,0,13.2c0,0-0.1,0-0.1,0c0-4.4,0-8.8,0-13.2C324.3,265.7,324.3,265.7,324.4,265.7z"
			/>
		<path class="st3" d="M324.3,234.7c0-0.5,0-0.9,0-1.4c0,0,0.1,0,0.1,0c0,0.5,0,1,0,1.5C324.4,234.7,324.3,234.7,324.3,234.7z"/>
		<path class="st4" d="M195,248c0.1-0.2,0.2-0.3,0.3-0.5C195.1,247.6,195.1,247.8,195,248z"/>
		<path class="st2" d="M172,305.8c0.2,0.1,0.3,0.1,0.5,0.2c0,1.3,0,2.7,0,4c-0.1,0-0.2,0-0.2,0C172.2,308.6,172.1,307.2,172,305.8z"
			/>
		<path class="st22" d="M347.3,91.3c0.1,0,0.1,0,0.2-0.1c4.7,0,9.4,0,14.1,0c3.7,3.9,3.7,9.7-0.1,14.1c-0.6,0.7-0.7,1.2-0.3,2.1
			c1.3,3.4,2.5,6.8,3.8,10.4c-2.2,0.7-4.3,1.4-6.5,2.2c-0.2-0.3-0.3-0.6-0.4-0.9c-1.1-3.3-2.2-6.5-3.3-9.8c-0.1-0.4-0.5-0.9-0.8-0.9
			c-3.9-0.5-6.4-2.8-8.2-6.2c0-0.1-0.1-0.2-0.1-0.3c0-0.1,0-0.1-0.1-0.1c-0.9-3.3-0.6-6.5,1.2-9.4C346.8,92,347.1,91.6,347.3,91.3z"
			/>
		<path class="st8" d="M345.5,101.9c0,0.1,0.1,0.2,0.1,0.3C345.6,102.1,345.5,102,345.5,101.9z"/>
		<path class="st10" d="M188.3,201.5c0-0.1-0.1-0.2-0.1-0.3c0,0-0.1,0.1-0.1,0.1C188.1,201.3,188.2,201.4,188.3,201.5
			C188.2,201.5,188.3,201.5,188.3,201.5z"/>
		<path class="st20" d="M113.2,193.5c-0.1-1.5,0.8-1.9,2.1-2c1.6,0,3.2,0,4.9,0c0-1.3,0-2.3,0-3.3c0.1-1.1,0.1-2.3,0.4-3.4
			c0.2-0.9,0.9-1.5,2-1.6c0.1,0.2,0.2,0.3,0.1,0.5c-0.4,2.5,0.6,4.4,2.2,6.2c0.3,0.3,0.5,0.6,0.7,1c0.6,1.1,1.3,2,2.8,1.5
			c0.1,0.5,0.1,0.9,0.2,1.3c0,3.4,0,6.8,0,10.1c-4.1,0.5-8,1-11.9,1.4c-2.3,0.2-3.7-1.2-3.7-3.5C113,199,113.1,196.2,113.2,193.5z"
			/>
		<path class="st20" d="M129.5,193.5c0-0.5,0.1-1.1,0.1-1.8c1.4-0.1,2.8-0.2,4.2-0.2c0,0.8,0,1.4,0,2.1c-0.3,3.5-0.7,7-1,10.6
			c-1,0-2,0-3.3,0C129.5,200.5,129.5,197,129.5,193.5z"/>
		<path class="st16" d="M261,319.4c2,0.7,2.3,2.8,3.9,4c0-1.1,0-2,0-2.9c0-0.3,0.3-0.6,0.5-0.8c0.2,0.3,0.5,0.5,0.5,0.8
			c0,1.7,0,3.3,0,5c-1.4,0.4-1.5-0.8-2.1-1.5c-0.6-0.7-1.1-1.5-1.8-2.6c0,1.3,0,2.3,0,3.3c0,0.3-0.3,0.5-0.5,0.8
			c-0.2-0.2-0.5-0.5-0.5-0.7C261,323.1,261,321.4,261,319.4z"/>
		<path class="st16" d="M271.9,320.4c-0.3,1-0.9,0.2-1.3,0.2c-0.7,0.1-1.7,0.1-2.1,0.6c-0.4,0.5-0.6,1.6-0.3,2.1
			c0.3,0.6,1.2,1,1.8,1.1c0.6,0.2,1.2-0.2,1.2-1.1c0-0.3,0.2-0.6,0.5-0.9c0.6,2,0.3,2.5-1.1,2.8c-1.6,0.4-3.2-0.5-3.6-2.1
			c-0.3-1.2,0.1-2.5,1.1-3.2C269.3,319.3,270.6,319.4,271.9,320.4z"/>
		<path class="st16" d="M275.2,321.8c0-0.5,0-1,0-1.5c0-0.2,0.3-0.4,0.4-0.6c0.2,0.2,0.5,0.4,0.5,0.6c0.1,0.9,0,1.7,0,2.6
			c0,1,0.4,1.6,1.5,1.6c1,0,1.4-0.6,1.4-1.5c0-0.9,0-1.8,0.1-2.7c0-0.2,0.3-0.4,0.4-0.6c0.2,0.2,0.6,0.4,0.6,0.6
			c0,1.2,0,2.3-0.1,3.5c-0.2,1.2-1.1,1.8-2.5,1.7c-1.2-0.1-2.1-0.8-2.2-1.9C275.2,323,275.3,322.4,275.2,321.8
			C275.3,321.8,275.3,321.8,275.2,321.8z"/>
		<path class="st16" d="M257.5,321c-0.9-0.2-1.4-0.5-1.9-0.5c-0.3,0-0.6,0.3-0.9,0.4c0.2,0.3,0.3,0.7,0.6,0.8
			c0.4,0.2,0.9,0.2,1.2,0.5c0.4,0.4,1,1,0.9,1.5c0,0.5-0.7,1.3-1.1,1.4c-0.9,0.1-1.8-0.2-2.7-0.4c-0.2,0-0.2-0.6-0.4-1.1
			c0.9,0.4,1.4,0.7,2,0.8c0.4,0,0.8-0.3,1.2-0.5c-0.2-0.3-0.4-0.7-0.8-1c-0.3-0.2-0.9-0.2-1.1-0.5c-0.4-0.4-1-1-1-1.4
			c0.1-0.5,0.6-1.2,1.1-1.4c0.6-0.2,1.5-0.1,2.2,0.1C257.1,319.9,257.2,320.4,257.5,321z"/>
		<path class="st1" d="M282.8,323.7c-0.3,0.7-0.6,1.2-0.8,1.7c-0.2-0.6-0.4-1.1-0.5-1.7c-0.1-1.3,0-2.6,0-4.1c0.9,0,1.8,0,2.6,0
			c1.2,0.1,1.8,0.8,1.8,1.9c0,1.2-0.7,1.9-1.9,2C283.5,323.8,283.1,323.7,282.8,323.7z M282.3,321.7c-0.1,0.7-0.1,1.4,1,1.3
			c0.8-0.1,1.7-0.2,1.7-1.2c0-1-0.8-1.1-1.6-1.2C282.5,320.4,282.2,320.9,282.3,321.7z"/>
		<path class="st16" d="M259.7,322.5c0,0.7,0,1.5,0,2.2c0,0.2-0.3,0.5-0.5,0.7c-0.2-0.2-0.5-0.4-0.5-0.6c0-1.6,0-3.2,0-4.7
			c0-0.2,0.3-0.4,0.5-0.5c0.2,0.2,0.4,0.4,0.5,0.6C259.7,321,259.7,321.7,259.7,322.5z"/>
		<path class="st13" d="M282.3,321.7c-0.1-0.8,0.1-1.2,1.1-1.1c0.8,0.1,1.6,0.2,1.6,1.2c0,1-0.8,1.2-1.7,1.2
			C282.3,323,282.3,322.4,282.3,321.7z"/>
	</g>
</g>
</svg>
