<svg id="Calque_1" data-name="Calque 1" xmlns="http://www.w3.org/2000/svg" viewBox="0 0 577.82 204.13"><defs><style>.cls-1{fill:#bdbdbd;}.cls-2,.cls-3{fill:#bd8bca;}.cls-3{font-size:66px;font-family:BodoniSvtyTwoITCTT-Book, "Bodoni 72";letter-spacing:0.04em;}</style></defs><path class="cls-1" d="M1035.7,542c7.18,4.18,10.43,10.68,13.22,17.48,3.28,8,6.41,16,9.69,24,1.55,3.77.78,5.52-3.64,5.59-8,.13-8,.28-10.85-7-2.71-6.95-5.3-14-8.23-20.83-5.91-13.83-12.29-17.22-28.12-14.86v24.68c0,4.49-.14,9,0,13.48.12,3.17-1,4.41-4.28,4.54-8.19.34-8.33.33-8.33-7.89q0-40.7,0-81.41c0-6.74,1-7.76,7.84-7.68,8.65.11,17.31.14,25.93.68,12.8.79,22.13,8.19,24.2,18.62,2.66,13.45-2.2,23-15,29.28C1037.52,541,1036.86,541.39,1035.7,542Zm-27.56-6.44c4.47,0,8.58.1,12.69,0a36.42,36.42,0,0,0,6.9-.89c7.88-1.82,12.52-7.72,12.55-15.73,0-8.42-4-14.24-12.43-15.45-6.43-.93-13.11-.19-19.71-.19Z" transform="translate(-670.47 -490.69)"/><path class="cls-1" d="M1089.67,546.32v21.27c0,5.83-.07,11.67,0,17.5,0,2.76-1.11,3.75-3.83,3.95-8.29.62-8.66.37-8.66-8q0-40.74,0-81.48c0-6.49.93-7.52,7.52-7.43,9.15.12,18.32.14,27.45.77,11.86.82,21.07,8.65,23,18.84,2.43,13-2.33,22.61-14,28.45-1,.49-2,1-3.45,1.85,7.9,4.67,11,12.21,14.07,19.75,2.89,7.08,5.8,14.14,8.54,21.27,2,5.11,1.36,5.56-3.88,6.08-5.66.56-8.82-1.2-10.52-7-2-7-5.06-13.7-7.88-20.44C1112.08,547.49,1105.75,544,1089.67,546.32Zm0-43.14c0,10.07-.08,19.84.11,29.6,0,.94,1.65,2.66,2.51,2.65,6-.09,12,.1,17.82-1,8.08-1.58,12.38-8.09,12.09-16.49-.28-7.94-4.6-13.45-12.93-14.57C1103.11,502.51,1096.74,503.18,1089.69,503.18Z" transform="translate(-670.47 -490.69)"/><path class="cls-1" d="M1226.29,589c-4,1-6.19-1.24-7.41-5.71-1.48-5.43-3.83-10.61-5.52-16-.87-2.79-2.19-4-5.26-3.91q-16.23.27-32.46,0c-3.28,0-4.64,1.15-5.53,4.2-1.72,5.89-3.85,11.66-5.89,17.45-1.23,3.5-10.42,6-12.58,3.21-.86-1.12-.34-3.76.26-5.47,5.59-15.8,11.33-31.54,17-47.31,4.68-13,9.5-25.85,14-38.88,1.26-3.7,3.34-5,7-4.82,2,.12,4.19-.49,5.94.18,2,.78,4.66,2.23,5.32,4,10.76,29.11,21.28,58.3,31.78,87.5C1234.75,588.62,1234.2,589.06,1226.29,589Zm-17.81-36.1-16.93-48.21c-5.85,17-11.17,32.39-16.62,48.21Z" transform="translate(-670.47 -490.69)"/><path class="cls-1" d="M734.09,580.56c-6.52,3.22-12.5,7.63-19.13,9.14-13.92,3.16-25.15-4-29.32-17.55a59.43,59.43,0,0,1-.09-35.42c6.2-20.2,27.2-26.36,43.67-13.06l2.79,2.26a39.06,39.06,0,0,0,.46-3.94c0-8.66.19-17.33-.05-26-.13-4.77,3-4.49,6-4.41s6.55-1,6.53,4.3q-.17,44.72,0,89.43c0,4-2.51,4.19-5.24,4.17s-6,.24-5.6-4.22C734.22,583.48,734.09,581.67,734.09,580.56Zm-1.6-27c1.65-9.47-.51-17.18-9-22.87-9.83-6.56-20.63-3.93-25,7.07-4.19,10.63-3.89,21.56,0,32.21,2.55,7,7.66,10.11,14.53,10,9.94-.21,19.44-9.92,19.45-19.87Z" transform="translate(-670.47 -490.69)"/><path class="cls-1" d="M935.17,502.82v30.37c10,0,19.75.1,29.52-.06,3.28,0,5,1,5.2,4.4.22,3.9-.67,6.24-5.44,6.1-9.61-.29-19.24-.09-29.18-.09v35h5.46c10.17,0,20.34.16,30.5-.07,4.1-.08,4.76,2.23,4.68,5.3-.08,2.75-.46,5.22-4.4,5.18-14.49-.15-29-.08-43.49,0-4.23,0-5.85-2-5.84-6.2q.14-42.24,0-84.49c0-4.35,2.06-6.08,6.05-6.09,14.17,0,28.33.05,42.5,0,4.08,0,4.52,2.44,4.55,5.57,0,3.3-.83,5.33-4.8,5.27C958.86,502.71,947.23,502.82,935.17,502.82Z" transform="translate(-670.47 -490.69)"/><path class="cls-2" d="M670.7,609.28c2-.18,4-.51,6.07-.51q161.49,0,323,0h238a18.2,18.2,0,0,1,4,.06,29.38,29.38,0,0,1,4.42,1.78c-1.5.64-3,1.34-4.52,1.88a6.29,6.29,0,0,1-2,0q-281.23,0-562.49,0a54.51,54.51,0,0,1-6.69-.81Z" transform="translate(-670.47 -490.69)"/><path class="cls-1" d="M763.13,553c1.3-6,2-12.16,4-17.84,4.46-12.16,13.88-18.28,26.61-19.27a50.54,50.54,0,0,1,11.47.18c12.16,1.86,20.32,8.77,23.77,20.63a52.73,52.73,0,0,1,.05,29.57c-4.32,15.19-17.31,24-33.76,23C774.11,588.06,764,576.37,763.13,553Zm55.53-.43c-.48-3.7-.72-7.35-1.46-10.91-2-9.59-8.46-15.37-17.29-15.79-11.25-.54-18.3,3.89-21.55,13.74a43,43,0,0,0-.73,23.6c2.45,10.56,9.22,15.86,19.88,15.81,10.4,0,17.41-5.69,19.7-16.14C818,559.46,818.2,556,818.66,552.53Z" transform="translate(-670.47 -490.69)"/><path class="cls-1" d="M864.42,502.87c-8.59,0-16.4-.23-24.19.1-4,.17-5.52-1.34-5.43-5,.08-3.36.38-6,5.14-6,20.63.23,41.27.19,61.91,0,4.52,0,5.29,2.34,5.28,5.93s-1.56,5.18-5.49,5c-7.93-.3-15.89-.09-24.37-.09V582.1c0,6.9,0,6.92-6.29,6.93-6.45,0-6.56-.09-6.56-6.73V502.87Z" transform="translate(-670.47 -490.69)"/><path class="cls-2" d="M797.26,502.57c-5.65,0-11.3-.16-16.94.06-3.89.15-4.89-1.92-4.89-5.2s.77-5.45,4.73-5.4q17.18.18,34.37,0c3.81,0,4.85,1.8,4.82,5.23s-.69,5.48-4.66,5.37C808.88,502.45,803.07,502.57,797.26,502.57Z" transform="translate(-670.47 -490.69)"/><path class="cls-1" d="M1216.74,504.85a7.09,7.09,0,1,1,.37-14.16,6.93,6.93,0,0,1,7.16,7.2A7.28,7.28,0,0,1,1216.74,504.85Zm-6.31-8.3c0,.77,0,1.54,0,2.31,2.16,1.59,4.18,4.21,6.51,4.52,3.25.43,5.48-2.12,5.44-5.7s-2-6.16-5.47-5.57C1214.57,492.51,1212.58,495,1210.43,496.55Z" transform="translate(-670.47 -490.69)"/><path class="cls-1" d="M1214.4,501.91v-7.35c6.92-2.31,4.72,3.12,5.54,6.62C1218,500.2,1216.3,496.31,1214.4,501.91Z" transform="translate(-670.47 -490.69)"/><text class="cls-3" transform="translate(0 186.31)">Conseillère bien-être</text></svg>