<?xml version="1.0" encoding="utf-8"?>
<!-- Generator: Adobe Illustrator 24.1.0, SVG Export Plug-In . SVG Version: 6.00 Build 0)  -->
<svg version="1.1" id="Calque_1" xmlns="http://www.w3.org/2000/svg" xmlns:xlink="http://www.w3.org/1999/xlink" x="0px" y="0px"
	 viewBox="0 0 97 156" style="enable-background:new 0 0 97 156;" xml:space="preserve">
<g>
	<g>
		<path d="M68.9,145.5c2.6,1.9,7.1,0.9,6.7,5.9c-15.4,0-30.7,0-46.1,0c-0.5-5.1,4.2-4,6.7-5.8c-1.6-0.6-3.1-1.1-4.5-1.6
			c-5-1.9-9.5-4.4-13.2-8.3c-6.1-6.5-6.3-14.8-0.2-21.3c2.1-2.3,4.9-3.9,7.4-5.8c4.7-3.7,9.7-7,14.1-11.1c4.9-4.6,8.1-10.3,8.7-17.5
			c2.4,0,4.6-0.1,6.8,0.1c0.5,0,1.3,0.8,1.4,1.3c1.1,9,6.6,15.1,13.1,20.5c3,2.5,6.4,4.4,9.6,6.8c2.8,2.1,5.8,4,8,6.6
			c5.4,6.2,5,13.8-0.5,19.9c-4.1,4.6-9.4,7.3-15.2,9.3C70.9,144.8,70.1,145.1,68.9,145.5z M72.6,110.3c0,0.6-0.1,0.8,0,0.9
			c0.1,0.2,0.3,0.4,0.4,0.6c5.1,5.2,7.6,11.2,5.4,18.6c-0.6,2,0.7,2.9,2.8,2c2.5-1.1,4.3-4.3,3.9-7.7c-0.7-6.3-4.1-10.9-9.8-13.7
			C74.5,110.5,73.5,110.5,72.6,110.3z M55.6,135.5c-0.1-1.8-1-3.2-3-3.3c-2-0.1-3.1,1.2-3.1,3.1c-0.1,1.9,1,3.2,2.9,3.3
			C54.4,138.7,55.4,137.4,55.6,135.5z"/>
		<path d="M53.9,2.1c0.3,1.1,0.8,2.1,1,3.2c2.2,11.6,1.4,23-2.9,34.1c-0.8,2-1.4,4.1-2.2,6.1c-3.2,8.2-3.1,16.4,0.4,24.5
			c0.9,2.1,1.7,4.2,2.3,6.5c-4-5-7.1-10.5-7.7-16.9c-0.4-4.3-0.3-9,1.1-13c4.5-13,6.2-26.3,6.6-40c0-1.5,0.4-2.9,0.6-4.4
			C53.3,2.1,53.6,2.1,53.9,2.1z"/>
		<path d="M38.2,6.1c1.3,1.3,2.7,2.3,3.6,3.6c2.8,4.2,3.4,9,2.5,13.9c-0.8,4.4-1.8,8.8-2.9,13.1c-2.1,8.2-1.3,16.2,1.1,24.1
			c0.3,1,0.6,2,0.4,3.3c-0.5-0.7-1-1.4-1.4-2.2C36.7,53.1,36,43.6,38,33.8c0.9-4.6,2-9.2,2.1-13.8c0.1-4-1.2-8-2-11.9
			c-0.1-0.3-0.2-0.6-0.3-0.9C37.8,7.1,37.9,6.9,38.2,6.1z"/>
		<path d="M67.5,26.6c2.1,2.3,2.1,5,1,7.2c-1.6,3.2-4,6-6,9c-2.4,3.4-5.2,6.5-7.1,10.1c-2.7,5.2-2.9,11-2,16.8
			c0.1,0.6,0.2,1.1,0.2,1.7c0,0.2-0.1,0.5-0.1,1.1c-2.1-2.5-2.6-5.4-2.9-8.2c-0.9-8,1.1-15.3,6.2-21.7c1.1-1.4,2.3-2.6,3.4-3.9
			C63.4,35.2,66.4,31.5,67.5,26.6z"/>
	</g>
</g>
</svg>
