<?xml version="1.0" encoding="utf-8"?>
<!-- Generator: Adobe Illustrator 24.1.0, SVG Export Plug-In . SVG Version: 6.00 Build 0)  -->
<svg version="1.1" id="Calque_1" xmlns="http://www.w3.org/2000/svg" xmlns:xlink="http://www.w3.org/1999/xlink" x="0px" y="0px"
	 viewBox="0 0 170 170.1" style="enable-background:new 0 0 170 170.1;" xml:space="preserve">
<style type="text/css">
	.st0{fill:#070707;}
	.st1{fill:#050505;}
	.st2{fill:#585356;}
	.st3{fill:#605D5E;}
	.st4{fill:#3E3A3E;}
	.st5{fill:#413B3F;}
</style>
<path class="st0" d="M58.7,65.1c1-2.5,1.9-4.8,2.9-7.2c1.4,0.5,2.6,1.1,3.8,1.5c2.2,0.9,4.3,0.4,6-1.3c1.8-1.8,2.2-3.9,1.3-6.1
	c-0.5-1.2-1.1-2.5-1.6-3.8c2.4-1,4.7-2,7.1-3.1c0.5,1.3,1.2,2.5,1.6,3.8c1.3,3.7,7.1,4.5,9.5,1.4c0.8-0.9,1.1-2.2,1.6-3.3
	c0.3-0.6,0.5-1.2,0.8-2c2.4,0.9,4.7,1.9,7.2,2.9c-0.5,1.3-1,2.5-1.5,3.7c-0.9,2.2-0.5,4.4,1.3,6.1c1.8,1.6,3.8,2.3,6.1,1.3
	c1.2-0.5,2.5-1,3.8-1.6c1,2.4,2,4.7,3.1,7.1c-1.3,0.5-2.5,1.1-3.7,1.6c-2.3,1-3.4,2.8-3.4,5.4c0.1,2.4,1.1,4.2,3.4,5.1
	c1.2,0.5,2.5,1,3.8,1.5c-0.9,2.4-1.9,4.7-2.9,7.2c-1.2-0.5-2.5-0.9-3.6-1.5c-2.3-0.9-4.4-0.5-6.2,1.3c-1.8,1.8-2.2,3.9-1.2,6.2
	c0.5,1.2,1,2.3,1.5,3.6c-2.4,1-4.7,2-7.1,3.1c-0.5-1.2-1.1-2.5-1.5-3.6c-1-2.3-2.8-3.5-5.3-3.5c-2.5,0-4.3,1.2-5.2,3.6
	c-0.5,1.2-0.9,2.4-1.5,3.6c-2.4-0.9-4.7-1.9-7.2-2.9c0.5-1.2,0.9-2.5,1.4-3.6c0.9-2.4,0.5-4.5-1.2-6.2c-1.8-1.7-3.8-2.3-6.2-1.2
	c-1.2,0.5-2.3,1-3.6,1.5c-1-2.4-2-4.7-3.1-7.1c1.2-0.5,2.5-1.1,3.6-1.5c2.3-1,3.5-2.9,3.5-5.4c-0.1-2.5-1.2-4.2-3.5-5.1
	C61.2,66.1,60.1,65.7,58.7,65.1z M85.2,83.2c6.4,0.1,11.5-5.1,11.6-11.5c0.1-6.4-5.1-11.6-11.4-11.6c-6.5-0.1-11.7,5.1-11.8,11.5
	C73.7,78,78.9,83.1,85.2,83.2z"/>
<path class="st0" d="M39.7,35.2c5.5-0.1,11.1-0.1,16.6-0.2c0.8,0,1.5,0.1,2.2,0.1c22.8,0,45.5,0,68.2,0c1.4,0,2.8,0.2,4.2,0.4
	c2.9,1.6,4.1,4,4.1,7.3c-0.1,21.6-0.1,43.2,0,64.9c0,2.5-0.6,4.6-2.7,5.9c-1.2,0.8-2.8,1.4-4.3,1.4C99.4,115,70.8,115,42.2,115
	c-3.8,0-6-1.8-6.8-5.2c0.2-0.7,0.5-1.4,0.5-2.1c0-21.8,0-43.5,0-65.3c0-0.7-0.3-1.4-0.5-2.1C35.7,37.7,37.5,36.3,39.7,35.2z
	 M128.3,98c0.2-0.6,0.6-1.3,0.6-1.9c0.1-17.2,0.1-34.5,0-51.8c0-0.6-0.4-1.4-0.5-2c-0.7-0.2-1.5-0.5-2.2-0.5
	c-25.6-0.1-51.2-0.1-76.9-0.1c-2.5,0-5.1,0.2-7.6,0.3c-0.1,0.1-0.2,0.1-0.3,0.1c0.1,0.1,0.2,0.2,0.3,0.3c0.1,0.7,0.1,1.5,0.1,2.2
	c0,17.5,0,35,0,52.5c0,0.6-0.1,1.4-0.1,2c-0.9,0.6-0.9,1.2,0,1.8c0.6,0.2,1.4,0.7,2,0.7c27.4,0.1,54.8,0,82.2,0c0.7,0,1.4,0,2.2,0
	C128.2,100.3,128.3,99.1,128.3,98z"/>
<path class="st1" d="M65.6,131.5c0.7-0.2,1.4-0.5,2.1-0.8c4.4-1.3,6.9-4.2,7.4-8.9c6.5,0,13.1,0,19.8,0c0.2,0.9,0.4,1.8,0.7,2.8
	c1.2,3.6,3.9,5.5,7.5,6.4c1.6,0.4,2.4,1.2,2,2.9c-1,0.2-1.9,0.5-2.9,0.5c-11.2,0.1-22.4,0-33.6,0C65.5,134.3,65.5,134.3,65.6,131.5z
	"/>
<path class="st2" d="M35.3,40.3c0.2,0.7,0.5,1.4,0.5,2.1c0,21.8,0,43.5,0,65.3c0,0.7-0.3,1.4-0.5,2.1c-0.1-0.8-0.3-1.6-0.3-2.4
	c0-21.4,0-42.7,0-64.1C35,42.3,35.2,41.3,35.3,40.3z"/>
<path class="st3" d="M65.6,131.5c-0.1,2.8-0.1,2.8,2.8,2.8c11.2,0,22.4,0,33.6,0c1,0,1.9-0.3,2.9-0.5c0.5,1.4-0.5,1.2-1.4,1.2
	c-2.9,0-5.8,0-8.6,0c-9.3,0-18.5,0-27.8,0c-0.6,0-1.3,0-2.5,0C65,133.7,65.3,132.6,65.6,131.5z"/>
<path class="st4" d="M128.3,98c-0.1-2.5-0.1-5.1-0.1-7.6c0-15.1,0-30.2,0-45.2c0-0.9,0.1-1.9,0.1-2.8c0.2,0.6,0.5,1.4,0.5,2
	c0.1,17.2,0.1,34.5,0,51.8C128.9,96.7,128.5,97.4,128.3,98z"/>
<path class="st5" d="M41.7,99.1c0,0.6,0,1.2,0,1.8C40.7,100.3,40.7,99.7,41.7,99.1z"/>
<path class="st5" d="M41.7,42c0.1,0.1,0.1,0.2-0.1,0.4c-0.1-0.1-0.2-0.2-0.3-0.3C41.5,42.1,41.6,42,41.7,42z"/>
</svg>
