<?xml version="1.0" encoding="utf-8"?>
<!-- Generator: Adobe Illustrator 24.1.0, SVG Export Plug-In . SVG Version: 6.00 Build 0)  -->
<svg version="1.1" xmlns="http://www.w3.org/2000/svg" xmlns:xlink="http://www.w3.org/1999/xlink" x="0px" y="0px"
	 viewBox="0 0 500 500" style="enable-background:new 0 0 500 500;" xml:space="preserve">
<style type="text/css">
	.st0{fill:#EBEBEB;}
	.st1{fill:#E0E0E0;}
	.st2{fill:#F5F5F5;}
	.st3{display:none;}
	.st4{display:inline;fill:#EBEBEB;}
	.st5{fill:#B78876;}
	.st6{fill:#AA6550;}
	.st7{fill:#E8505B;}
	.st8{opacity:0.6;}
	.st9{fill:#FFFFFF;}
	.st10{fill:#263238;}
	.st11{fill:#455A64;}
	.st12{opacity:0.37;}
	.st13{fill:#FAFAFA;}
</style>
<g id="Background_Complete">
	<g>
		<g>
			<rect x="336.2" y="242.2" class="st0" width="53.5" height="14.2"/>
		</g>
		<g>
			<g>
				<path class="st1" d="M367.1,271.3c0,0,0-0.1,0-0.3c0-0.2,0-0.4,0-0.7c0-0.7,0-1.6,0-2.8c0-2.4-0.1-6-0.1-10.4l0.2,0.2
					c-12.2,0-31.7,0.1-53.5,0.1c0.1-0.1-0.3,0.3,0.3-0.3v0v0v0v0v0.1v0.1v0.2l0,0.5v0.9c0,0.6,0,1.2,0,1.8c0,1.2,0,2.4,0,3.6
					c0,2.4,0,4.7,0,7l-0.3-0.3c15.2,0,28.6,0.1,38.1,0.1c4.8,0,8.6,0.1,11.3,0.1c1.3,0,2.3,0,3,0c0.3,0,0.6,0,0.8,0
					C367,271.3,367.1,271.3,367.1,271.3c0,0-0.1,0-0.2,0c-0.2,0-0.4,0-0.8,0c-0.7,0-1.7,0-3,0c-2.7,0-6.5,0-11.2,0.1
					c-9.6,0-23,0.1-38.3,0.1l-0.3,0l0-0.3c0-2.3,0-4.6,0-7c0-1.2,0-2.4,0-3.6c0-0.6,0-1.2,0-1.8l0-0.9v-0.5v-0.2v-0.1v-0.1v0v0v0v0
					c0.5-0.5,0.2-0.2,0.3-0.3c21.9,0,41.3,0.1,53.5,0.1l0.2,0l0,0.2c0,4.5-0.1,8-0.1,10.5c0,1.2,0,2.1,0,2.7c0,0.3,0,0.5,0,0.7
					C367.1,271.2,367.1,271.3,367.1,271.3z"/>
			</g>
		</g>
	</g>
	<g>
		<g>
			<rect x="70.9" y="94.2" class="st2" width="53.5" height="14.2"/>
		</g>
		<g>
			<g>
				<path class="st1" d="M101.8,123.2c0,0,0-0.1,0-0.3c0-0.2,0-0.4,0-0.7c0-0.7,0-1.6,0-2.8c0-2.4-0.1-6-0.1-10.4l0.2,0.2
					c-12.2,0-31.7,0.1-53.5,0.1c0.1-0.1-0.3,0.3,0.3-0.3v0v0v0v0v0.1v0.1v0.2l0,0.5v0.9c0,0.6,0,1.2,0,1.8c0,1.2,0,2.4,0,3.6
					c0,2.4,0,4.7,0,7l-0.3-0.3c15.2,0,28.6,0.1,38.1,0.1c4.8,0,8.6,0.1,11.3,0.1c1.3,0,2.3,0,3,0c0.3,0,0.6,0,0.8,0
					C101.7,123.2,101.8,123.2,101.8,123.2c0,0-0.1,0-0.2,0c-0.2,0-0.4,0-0.8,0c-0.7,0-1.7,0-3,0c-2.7,0-6.5,0-11.2,0.1
					c-9.6,0-23,0.1-38.3,0.1l-0.3,0l0-0.3c0-2.3,0-4.6,0-7c0-1.2,0-2.4,0-3.6c0-0.6,0-1.2,0-1.8l0-0.9v-0.5v-0.2v-0.1v-0.1v0v0v0v0
					c0.5-0.5,0.2-0.2,0.3-0.3c21.9,0,41.3,0.1,53.5,0.1l0.2,0l0,0.2c0,4.5-0.1,8-0.1,10.5c0,1.2,0,2.1,0,2.7c0,0.3,0,0.5,0,0.7
					C101.8,123.2,101.8,123.2,101.8,123.2z"/>
			</g>
		</g>
	</g>
	<g>
		<g>
			<rect x="373.5" y="137" class="st1" width="53.5" height="14.2"/>
		</g>
		<g>
			<g>
				<path class="st1" d="M442.9,137c0,0,0-0.1,0-0.3c0-0.2,0-0.4,0-0.7c0-0.7,0-1.6,0-2.8c0-2.4-0.1-6-0.1-10.4l0.2,0.2
					c-12.2,0-31.7,0.1-53.5,0.1c0.1-0.1-0.3,0.3,0.3-0.3v0v0v0v0v0.1v0.1v0.2l0,0.5v0.9c0,0.6,0,1.2,0,1.8c0,1.2,0,2.4,0,3.6
					c0,2.4,0,4.7,0,7l-0.3-0.3c15.2,0,28.6,0.1,38.1,0.1c4.8,0,8.6,0.1,11.3,0.1c1.3,0,2.3,0,3,0c0.3,0,0.6,0,0.8,0
					C442.8,137,442.9,137,442.9,137c0,0-0.1,0-0.2,0c-0.2,0-0.4,0-0.8,0c-0.7,0-1.7,0-3,0c-2.7,0-6.5,0-11.2,0.1
					c-9.6,0-23,0.1-38.3,0.1l-0.3,0l0-0.3c0-2.3,0-4.6,0-7c0-1.2,0-2.4,0-3.6c0-0.6,0-1.2,0-1.8l0-0.9v-0.5v-0.2V123v-0.1v0v0v0v0
					c0.5-0.5,0.2-0.2,0.3-0.3c21.9,0,41.3,0.1,53.5,0.1l0.2,0l0,0.2c0,4.5-0.1,8-0.1,10.5c0,1.2,0,2.1,0,2.7c0,0.3,0,0.5,0,0.7
					C442.9,137,442.9,137,442.9,137z"/>
			</g>
		</g>
	</g>
	<g>
		<g>
			<g>
				<path class="st1" d="M340.8,70.8c0,0,0-0.1,0-0.3c0-0.2,0-0.4,0-0.7c0-0.7,0-1.6,0-2.8c0-2.4-0.1-6-0.1-10.4l0.2,0.2
					c-12.2,0-31.7,0.1-53.5,0.1c0.1-0.1-0.3,0.3,0.3-0.3v0v0v0v0v0.1v0.1l0,0.2v0.5v0.9c0,0.6,0,1.2,0,1.8c0,1.2,0,2.4,0,3.6
					c0,2.4,0,4.7,0,7l-0.3-0.3c15.2,0,28.6,0.1,38.1,0.1c4.8,0,8.6,0.1,11.3,0.1c1.3,0,2.3,0,3,0c0.3,0,0.6,0,0.8,0
					C340.7,70.8,340.8,70.8,340.8,70.8c0,0-0.1,0-0.2,0c-0.2,0-0.4,0-0.8,0c-0.7,0-1.7,0-3,0c-2.7,0-6.5,0-11.2,0.1
					c-9.6,0-23,0.1-38.3,0.1l-0.3,0l0-0.3c0-2.3,0-4.6,0-7c0-1.2,0-2.4,0-3.6c0-0.6,0-1.2,0-1.8v-0.9v-0.5v-0.2v-0.1v-0.1v0v0v0v0
					c0.5-0.5,0.2-0.2,0.3-0.3c21.9,0,41.3,0.1,53.5,0.1l0.2,0l0,0.2c0,4.5-0.1,8-0.1,10.5c0,1.2,0,2.1,0,2.7c0,0.3,0,0.5,0,0.7
					C340.9,70.7,340.9,70.8,340.8,70.8z"/>
			</g>
		</g>
		<g>
			<g>
				<path class="st1" d="M348.1,56.6c0,0,0-0.1,0-0.3c0-0.2,0-0.4,0-0.8c0-0.7,0-1.6,0-2.8c0-2.5-0.1-6-0.1-10.3l0.2,0.2
					c-8.3,0-19.7,0-32.2,0.1c-0.2,0.2,0.3-0.3,0.3-0.3v0v0v0v0v0.1v0.1l0,0.2v0.5l0,0.9c0,0.6,0,1.2,0,1.8c0,1.2,0,2.4,0,3.6
					c0,2.4,0,4.7,0,6.9l-0.3-0.3c9.3,0,17.3,0.1,23,0.1c2.8,0,5.1,0.1,6.7,0.1c0.8,0,1.4,0,1.8,0C347.9,56.6,348.1,56.6,348.1,56.6
					c0,0-0.2,0-0.6,0c-0.4,0-1,0-1.8,0c-1.6,0-3.8,0-6.6,0.1c-5.8,0-13.8,0.1-23.2,0.1l-0.3,0l0-0.3c0-2.2,0-4.5,0-6.9
					c0-1.2,0-2.4,0-3.6c0-0.6,0-1.2,0-1.8l0-0.9v-0.5v-0.2v-0.1v-0.1v0v0v0v0c-0.1,0.1,0.5-0.5,0.3-0.3c12.5,0,23.8,0.1,32.2,0.1
					l0.2,0l0,0.2c0,4.4-0.1,7.9-0.1,10.4c0,1.2,0,2.1,0,2.8C348.1,56.3,348.1,56.6,348.1,56.6z"/>
			</g>
		</g>
	</g>
	<g>
		<g>
			<g>
				<path class="st0" d="M104.9,262.3c0,0,0-0.1,0-0.3c0-0.2,0-0.4,0-0.7c0-0.7,0-1.6,0-2.8c0-2.4-0.1-6-0.1-10.4l0.2,0.2
					c-12.2,0-31.7,0.1-53.5,0.1c0.1-0.1-0.3,0.3,0.3-0.3v0v0v0v0v0.1v0.1l0,0.2v0.5v0.9c0,0.6,0,1.2,0,1.8c0,1.2,0,2.4,0,3.6
					c0,2.4,0,4.7,0,7l-0.3-0.3c15.2,0,28.6,0.1,38.1,0.1c4.8,0,8.6,0.1,11.3,0.1c1.3,0,2.3,0,3,0c0.3,0,0.6,0,0.8,0
					C104.8,262.3,104.8,262.3,104.9,262.3c0,0-0.1,0-0.2,0c-0.2,0-0.4,0-0.8,0c-0.7,0-1.7,0-3,0c-2.7,0-6.5,0-11.2,0.1
					c-9.6,0-23,0.1-38.3,0.1l-0.3,0l0-0.3c0-2.3,0-4.6,0-7c0-1.2,0-2.4,0-3.6c0-0.6,0-1.2,0-1.8v-0.9v-0.5v-0.2v-0.1v-0.1v0v0v0v0
					c0.5-0.5,0.2-0.2,0.3-0.3c21.9,0,41.3,0.1,53.5,0.1l0.2,0l0,0.2c0,4.5-0.1,8-0.1,10.5c0,1.2,0,2.1,0,2.7c0,0.3,0,0.5,0,0.7
					C104.9,262.2,104.9,262.3,104.9,262.3z"/>
			</g>
		</g>
		<g>
			<g>
				<path class="st0" d="M112.1,248.2c0,0,0-0.1,0-0.3c0-0.2,0-0.4,0-0.8c0-0.7,0-1.6,0-2.8c0-2.5-0.1-6-0.1-10.3l0.2,0.2
					c-8.3,0-19.7,0-32.2,0.1c-0.2,0.2,0.3-0.3,0.3-0.3v0v0v0v0v0.1v0.1l0,0.2v0.5l0,0.9c0,0.6,0,1.2,0,1.8c0,1.2,0,2.4,0,3.6
					c0,2.4,0,4.7,0,6.9l-0.3-0.3c9.3,0,17.3,0.1,23,0.1c2.8,0,5.1,0.1,6.7,0.1c0.8,0,1.4,0,1.8,0
					C111.9,248.1,112.1,248.1,112.1,248.2c0,0-0.2,0-0.6,0c-0.4,0-1,0-1.8,0c-1.6,0-3.8,0-6.6,0.1c-5.8,0-13.8,0.1-23.2,0.1l-0.3,0
					l0-0.3c0-2.2,0-4.5,0-6.9c0-1.2,0-2.4,0-3.6c0-0.6,0-1.2,0-1.8l0-0.9v-0.5v-0.2v-0.1v-0.1v0v0v0v0c-0.1,0.1,0.5-0.5,0.3-0.3
					c12.5,0,23.8,0.1,32.2,0.1l0.2,0l0,0.2c0,4.4-0.1,7.9-0.1,10.4c0,1.2,0,2.1,0,2.8C112.1,247.8,112.1,248.2,112.1,248.2z"/>
			</g>
		</g>
	</g>
	<g>
		<g>
			<path class="st0" d="M439.8,219.7c0,0-7-1.7-8.9,14.4c-1.9,16-1.7,24.8-1.7,24.8s-0.8,3.5-3.4,2.4c-2.6-1.1-7.2-5.4-10.2-3.2
				c-3.1,2.2-2.8,6.5-0.1,11.9c2.7,5.4,8.2,17.4,8.7,18.5c0.5,1.1,0.5,2.9-1.5,2.4c-1.9-0.5-14.3-7-17-1c-2.8,6.1,7.3,19.8,8.4,21.3
				c1.1,1.5,1,2.4,0.4,3.1c-0.6,0.7-4.6-1.9-8.2-3.6c-3.6-1.7-8.1-3.1-9.4,0.6c-1.3,3.6,2.2,15.4,20,30.1l8.7,6.3l9.9-4.3
				c20.6-10.4,26.6-21.2,26.1-25c-0.5-3.8-5.1-3.5-9-2.6c-3.9,0.9-8.3,2.6-8.8,1.7c-0.5-0.8-0.4-1.7,1-2.9
				c1.4-1.3,14.2-12.5,12.8-19c-1.4-6.5-14.9-2.8-16.8-2.8c-2,0.1-1.6-1.8-0.9-2.7c0.7-1,8.7-11.5,12.5-16.1c3.8-4.7,5-8.7,2.5-11.6
				c-2.4-2.8-7.8,0.4-10.6,1c-2.8,0.5-2.8-3-2.8-3s2.2-8.5,3.8-24.5c1.6-16.1-5.8-15.9-5.8-15.9"/>
		</g>
		<g>
			<g>
				<path class="st1" d="M424.8,349.9c1.2-11.8,3.8-32.7,5.9-50.7c2.1-18,4-34.2,5.3-46c0.6-5.9,1.2-10.6,1.5-14
					c0.2-1.6,0.3-2.9,0.4-3.8c0-0.4,0.1-0.8,0.1-1c0-0.2,0.1-0.3,0.1-0.3s0,0.1,0,0.3c0,0.2,0,0.6-0.1,1c-0.1,0.9-0.2,2.2-0.4,3.8
					c-0.3,3.3-0.8,8.1-1.4,14c-1.2,11.8-3.1,28.1-5.2,46c-2.1,18-4.7,38.9-6,50.7"/>
			</g>
		</g>
		<g>
			<g>
				<path class="st1" d="M421.8,264.2c0,0,0.2,0.2,0.5,0.6c0.3,0.4,0.7,1,1.3,1.7c1,1.4,2.4,3.5,3.9,5.7c1.5,2.2,2.8,4.3,3.8,5.8
					c0.5,0.7,0.9,1.3,1.2,1.8c0.3,0.4,0.4,0.6,0.4,0.7c0,0-0.2-0.2-0.5-0.6c-0.3-0.4-0.7-1-1.3-1.7c-1-1.5-2.4-3.5-3.9-5.8
					c-1.5-2.2-2.8-4.2-3.9-5.8c-0.5-0.7-0.9-1.3-1.2-1.7C421.9,264.5,421.8,264.2,421.8,264.2z"/>
			</g>
		</g>
		<g>
			<g>
				<path class="st1" d="M433.9,280.3c-0.1-0.1,4-3.1,9.1-6.8c5.1-3.7,9.2-6.7,9.3-6.6c0.1,0.1-4,3.1-9.1,6.8
					C438.1,277.4,434,280.4,433.9,280.3z"/>
			</g>
		</g>
		<g>
			<g>
				<path class="st1" d="M429.4,307.8c0,0,0.3-0.1,0.7-0.3c0.5-0.2,1.2-0.4,2-0.7c1.7-0.6,4.1-1.5,6.6-2.6c2.6-1.1,4.9-2.1,6.5-2.8
					c0.8-0.4,1.4-0.7,2-0.9c0.5-0.2,0.7-0.3,0.7-0.3c0,0-0.2,0.2-0.7,0.4c-0.4,0.2-1.1,0.6-1.9,1c-1.6,0.8-3.9,1.9-6.5,2.9
					c-2.6,1.1-4.9,1.9-6.7,2.5c-0.9,0.3-1.6,0.5-2.1,0.6C429.7,307.7,429.5,307.8,429.4,307.8z"/>
			</g>
		</g>
		<g>
			<g>
				<path class="st1" d="M415.3,295.6c0,0,0.2,0.1,0.6,0.4c0.4,0.3,0.9,0.7,1.6,1.2c1.3,1.1,3.1,2.5,5.1,4.2c2,1.6,3.7,3.1,5,4.2
					c0.6,0.5,1.1,1,1.5,1.3c0.3,0.3,0.5,0.5,0.5,0.5c0,0-0.2-0.1-0.6-0.4c-0.4-0.3-0.9-0.7-1.6-1.2c-1.3-1.1-3.1-2.5-5.1-4.2
					c-2-1.6-3.7-3.1-5-4.2c-0.6-0.5-1.1-1-1.5-1.3C415.5,295.8,415.3,295.6,415.3,295.6z"/>
			</g>
		</g>
		<g>
			<g>
				<path class="st1" d="M408.3,319.4c0,0,0.3,0.2,0.8,0.5c0.5,0.4,1.2,0.9,2,1.6c1.7,1.3,4,3.2,6.5,5.3c2.5,2.1,4.8,4,6.5,5.4
					c0.8,0.7,1.4,1.2,1.9,1.7c0.5,0.4,0.7,0.6,0.7,0.6c0,0-0.3-0.2-0.8-0.5c-0.5-0.4-1.2-0.9-2-1.6c-1.7-1.3-4-3.2-6.5-5.3
					c-2.5-2.1-4.8-4-6.5-5.4c-0.8-0.7-1.4-1.2-1.9-1.7C408.5,319.6,408.3,319.4,408.3,319.4z"/>
			</g>
		</g>
		<g>
			<g>
				<path class="st1" d="M426.4,334c0,0,0.3-0.2,0.9-0.4c0.7-0.3,1.5-0.6,2.5-1c2.1-0.9,5.1-2.1,8.3-3.5c3.2-1.4,6.1-2.8,8.2-3.8
					c1-0.5,1.8-0.9,2.5-1.2c0.6-0.3,0.9-0.4,0.9-0.4c0,0-0.3,0.2-0.9,0.5c-0.6,0.3-1.4,0.8-2.4,1.3c-2.1,1.1-4.9,2.5-8.1,3.9
					c-3.2,1.4-6.2,2.6-8.3,3.4c-1.1,0.4-2,0.7-2.6,0.9C426.7,333.9,426.4,334,426.4,334z"/>
			</g>
		</g>
	</g>
	<g>
		<g>
			<path class="st2" d="M335.5,334.2c2.8-0.7,5.9,0.1,8.4,1.7c2.4,1.6,4.3,4,5.8,6.5c2.9,4.9,3.7,11.3,3.7,17
				c-6.3-0.5-11.5-5.6-13.9-8.3C335.4,346.7,331,336.5,335.5,334.2"/>
		</g>
		<g>
			<path class="st2" d="M363.3,363.5c-2.5-2.1-3.5-5.7-2.9-8.9c0.6-3.2,2.8-6,5.6-7.7c1.3-0.8,2.8-1.4,4.3-1
				c1.3,0.4,2.2,1.8,2.5,3.2c0.2,1.4-0.1,2.8-0.6,4.1C370.3,357.8,367.8,361.8,363.3,363.5"/>
		</g>
		<g>
			<g>
				<path class="st1" d="M366.6,377.2c-0.1,0-0.8-1.2-1.7-3.3c-0.5-1.1-0.9-2.4-1.2-3.9c-0.3-1.5-0.6-3.2-0.7-4.9
					c-0.2-3.6,0.6-6.8,1.6-8.9c0.5-1.1,1.1-1.8,1.4-2.3c0.4-0.5,0.7-0.8,0.7-0.7c0.1,0.1-0.8,1.2-1.7,3.3c-0.9,2.1-1.6,5.2-1.4,8.7
					c0.1,1.7,0.4,3.4,0.6,4.9c0.2,1.5,0.6,2.8,1,3.9C366.1,375.9,366.7,377.2,366.6,377.2z"/>
			</g>
		</g>
		<g>
			<g>
				<path class="st1" d="M339.5,341.7c0,0,0.5,0.5,1.3,1.4c0.8,0.9,1.9,2.3,3.3,4c2.8,3.4,6.5,8,10.5,13.3c4,5.3,7.5,10.2,10,13.7
					c1.2,1.8,2.2,3.3,2.9,4.3c0.7,1,1,1.6,1,1.6c0,0-0.5-0.5-1.2-1.5c-0.8-1.1-1.8-2.5-3-4.2c-2.6-3.5-6.1-8.3-10.1-13.6
					c-4-5.2-7.7-9.9-10.4-13.4c-1.3-1.7-2.3-3-3.1-4.1C339.9,342.3,339.5,341.7,339.5,341.7z"/>
			</g>
		</g>
		<g>
			<path class="st2" d="M358.8,369.5c-5.6-4.1-13.1-5.2-19.6-2.9c-1.7,0.6-3.5,1.7-3.6,3.4c-0.1,1.8,1.6,3,3.2,3.8
				c6.7,3,15.1,1.4,20.2-3.9"/>
		</g>
		<g>
			<g>
				<path class="st1" d="M343.5,369.3c0,0,0.3-0.1,0.9-0.3c0.6-0.2,1.5-0.3,2.7-0.5c2.2-0.3,5.5-0.7,8.9,0.1
					c1.7,0.4,3.3,1.1,4.6,1.9c1.3,0.8,2.3,1.8,3.1,2.6c0.8,0.9,1.3,1.6,1.6,2.2c0.3,0.5,0.5,0.9,0.5,0.9c-0.1,0.1-0.9-1.1-2.4-2.7
					c-0.8-0.8-1.8-1.7-3.1-2.4c-1.3-0.7-2.8-1.4-4.4-1.8c-3.3-0.8-6.5-0.5-8.7-0.3C344.9,369.2,343.6,369.4,343.5,369.3z"/>
			</g>
		</g>
	</g>
</g>
<g id="Background_Simple" class="st3">
	<path class="st4" d="M406.8,108L406.8,108c-17.2-23.1-43.7-37.7-72.4-39c-11.2-0.5-22.4,0.8-33.1,4.1
		c-31.9,9.8-58.1,36.6-67.1,68.7c-5.3,18.9-5.3,40.2-17.2,55.9c-15.4,20.4-44.3,23.6-69.8,25.1c-25.5,1.5-54.4,4.7-69.7,25.2
		c-9.6,12.8-11.5,30-9.2,45.9c6,42,39.1,77,78.6,92.4c39.5,15.4,84.2,13.1,124.9,1.2c57-16.7,109.3-53.3,138.1-105.2
		c27.5-49.5,31-113,4.3-162.6C412,115.6,409.5,111.7,406.8,108z"/>
</g>
<g id="Character">
	<g>
		<g>
			<g>
				<g>
					<g>
						<g>
							<path class="st5" d="M257.3,209.3c0,0,11.3,2.7,12.4,3.5c1.1,0.8,7.5,8.8,7.5,9.7c0,0.9,1.8,12.6,0,11.7
								c-1.7-0.8-2.9-9.1-2.9-9.1l-0.9-0.9c0,0,1.1,7,0.8,8.7c-0.3,1.5-2.1,1.6-2.3,0.4c-0.3-1.3-1.1-7.4-1.4-7.7
								c-0.4-0.3,0.5,6.8,0.3,7.7c-0.3,1.2-1.9,1.8-2.3,0.6c-0.2-0.7-0.6-7.6-0.6-7.6s-0.3,5.6-0.6,6.2c-0.5,1-1.7,0.7-1.9-0.4
								c-0.1-0.8,0.4-4.9,0.3-5.9c0,0-0.6-0.8-2.7-1.1c-1-0.1-7.1-0.1-8.1-3.4c-0.9-2.9-4.2-5-4.2-5L257.3,209.3z"/>
						</g>
						<g>
							<g>
								<path class="st6" d="M277.3,234.2c-0.1,0-0.6-0.6-1.2-1.8c-0.3-0.6-0.6-1.4-0.8-2.3c-0.2-0.9-0.4-1.8-0.5-2.9
									c-0.1-0.8-0.3-1.5-0.4-2.2l0.1,0.1c-1.9-2.4-3.2-4.2-3.1-4.3c0.1-0.1,1.6,1.6,3.5,4l0,0l0,0.1c0.1,0.7,0.3,1.4,0.4,2.1
									c0.2,1,0.3,1.9,0.5,2.9c0.2,0.9,0.5,1.6,0.7,2.2C276.9,233.4,277.3,234.2,277.3,234.2z"/>
							</g>
						</g>
					</g>
					<g>
						<g>
							<g>
								<path class="st5" d="M259.9,213.3c-0.4,0.9,0.1,1.9,0.9,2.6c0.7,0.6,1.7,1,2.4,1.6c2.3,1.7,3,5.1,5.4,6.7
									c0.3,0.2,0.8,0.4,1.1,0.1c0.3-0.3,0.2-0.7,0-1.1c-1.1-3-2.2-6-3.2-9.1"/>
							</g>
							<g>
								<g>
									<path class="st6" d="M266.5,214.2c0,0,0.2,0.3,0.4,0.9c0.3,0.6,0.6,1.5,1,2.6c0.4,1.2,0.9,2.5,1.5,3.9
										c0.1,0.4,0.3,0.8,0.4,1.1c0.1,0.4,0.4,0.8,0.2,1.4c-0.1,0.3-0.5,0.5-0.8,0.4c-0.3,0-0.5-0.1-0.7-0.3
										c-0.4-0.3-0.8-0.6-1.1-0.9c-1.3-1.4-2-3-2.9-4.3c-0.4-0.6-0.9-1.2-1.5-1.6c-0.5-0.4-1.1-0.7-1.6-1
										c-1.1-0.6-1.7-1.6-1.8-2.3c-0.1-0.7,0.2-1.1,0.2-1c0.1,0-0.1,0.4,0,1c0.1,0.6,0.7,1.4,1.7,2c0.5,0.3,1.1,0.6,1.7,1
										c0.6,0.4,1.1,1,1.6,1.7c1,1.3,1.7,2.9,2.9,4.2c0.3,0.3,0.6,0.6,1,0.8c0.3,0.2,0.7,0.3,0.8,0.1c0.1-0.2,0-0.6-0.2-1
										c-0.1-0.4-0.3-0.8-0.4-1.1c-0.5-1.5-1-2.8-1.4-4c-0.4-1.1-0.7-2.1-0.9-2.7C266.6,214.5,266.5,214.2,266.5,214.2z"/>
								</g>
							</g>
						</g>
					</g>
					<polygon class="st5" points="229.9,205.7 253.2,218.6 258.4,209.6 227.1,184.8 					"/>
				</g>
				<g>
					<polygon class="st7" points="177.1,240.7 266.6,192.8 254.7,171.5 317.7,178.3 290.7,235.3 279.1,214.5 189.3,262.6 					"/>
					<polygon class="st8" points="177.1,240.7 266.6,192.8 254.7,171.5 317.7,178.3 290.7,235.3 279.1,214.5 189.3,262.6 					"/>
				</g>
				<polygon class="st7" points="173.3,243.1 265.8,201.5 255.5,179.4 317.8,190.6 286.9,245.6 276.8,224 183.9,265.7 				"/>
			</g>
			<g>
				<g>
					<g>
						<g>
							<g>
								<path class="st7" d="M177,409.7l-4.8,40l50.7,1.1c-0.2-4.8-28.3-15-28.3-15l5.4-26.6L177,409.7z"/>
							</g>
							<g>
								<g>
									<path class="st9" d="M181.1,433.1c-1,0.2-1.7,1.3-1.5,2.3c0.2,1,1.3,1.7,2.3,1.5c1-0.2,1.9-1.5,1.6-2.5
										c-0.3-1-1.7-1.7-2.6-1.3"/>
								</g>
							</g>
							<g>
								<path class="st10" d="M172.2,449.6l0.2-4.1l48.5,2.6c0,0,2.2,1,1.9,2.6L172.2,449.6z"/>
							</g>
							<g>
								<g>
									<path class="st10" d="M195.3,436.2c0,0.2-1.3,0.3-2.5,1.1c-1.3,0.7-1.9,1.8-2.1,1.7c-0.2-0.1,0.2-1.5,1.7-2.4
										C193.9,435.7,195.4,436,195.3,436.2z"/>
								</g>
							</g>
							<g>
								<g>
									<path class="st10" d="M201.9,438.7c0.1,0.2-1,0.6-1.9,1.7c-0.9,1-1.1,2.1-1.4,2.1c-0.2,0-0.4-1.4,0.7-2.7
										C200.5,438.5,201.9,438.4,201.9,438.7z"/>
								</g>
							</g>
							<g>
								<g>
									<path class="st10" d="M204.7,444.9c-0.2,0-0.5-1.2,0.1-2.5c0.7-1.3,1.8-1.9,1.9-1.6c0.1,0.2-0.6,0.9-1.2,2
										C205,443.8,204.9,444.8,204.7,444.9z"/>
								</g>
							</g>
							<g>
								<g>
									<path class="st10" d="M195.1,429.4c-0.1,0.2-1.2-0.1-2.6-0.1c-1.4,0-2.5,0.5-2.6,0.3c-0.1-0.2,0.9-1.1,2.6-1.1
										C194.1,428.4,195.2,429.2,195.1,429.4z"/>
								</g>
							</g>
							<g>
								<g>
									<path class="st10" d="M196.1,423.4c0,0.1-1,0.2-2.5-0.1c-0.8-0.2-1.7-0.4-2.6-0.9c-0.5-0.2-1-0.5-1.4-0.8
										c-0.2-0.2-0.5-0.3-0.8-0.6c-0.3-0.3-0.4-0.9-0.1-1.3c0.3-0.4,0.7-0.5,1.1-0.5c0.4,0,0.7,0.1,0.9,0.2
										c0.6,0.1,1.1,0.3,1.6,0.6c1,0.5,1.7,1,2.3,1.6c1.2,1.1,1.5,2,1.4,2.1c-0.1,0.1-0.7-0.7-1.8-1.6c-0.6-0.5-1.3-0.9-2.2-1.3
										c-0.4-0.2-0.9-0.4-1.4-0.5c-0.5-0.2-1-0.2-1.1,0.1c-0.1,0.1-0.1,0.1,0,0.3c0.1,0.1,0.3,0.3,0.6,0.4
										c0.4,0.3,0.9,0.6,1.3,0.8c0.9,0.5,1.7,0.8,2.4,1C195.2,423.1,196.1,423.2,196.1,423.4z"/>
								</g>
							</g>
							<g>
								<g>
									<path class="st10" d="M195.8,423.7c-0.1,0-0.6-0.9-0.6-2.5c0-0.8,0.1-1.8,0.4-2.8c0.2-0.5,0.4-1,0.7-1.5
										c0.3-0.5,0.7-1.2,1.6-1.2c0.5,0,0.9,0.4,1,0.7c0.2,0.3,0.2,0.6,0.2,0.9c0.1,0.6,0.1,1.2,0,1.7c-0.2,1.1-0.6,2-1.1,2.6
										c-1,1.3-2.1,1.6-2.1,1.5c-0.1-0.1,0.8-0.6,1.6-1.8c0.4-0.6,0.7-1.4,0.9-2.4c0.1-0.5,0.1-1,0-1.5c-0.1-0.5-0.3-1-0.5-0.9
										c-0.3,0-0.7,0.4-0.9,0.8c-0.3,0.4-0.5,0.9-0.7,1.4c-0.3,0.9-0.5,1.8-0.5,2.5C195.7,422.8,195.9,423.7,195.8,423.7z"/>
								</g>
							</g>
						</g>
					</g>
				</g>
			</g>
			<g>
				<g>
					<g>
						<g>
							<g>
								<path class="st7" d="M256.1,372.5l-0.3,40.7l50.7,1.1c-0.2-4.8-28.3-15-28.3-15l0.9-27.3L256.1,372.5z"/>
							</g>
							<g>
								<g>
									<path class="st9" d="M264.7,396.7c-1,0.2-1.7,1.3-1.5,2.3c0.2,1,1.3,1.7,2.3,1.5c1-0.2,1.9-1.5,1.6-2.5
										c-0.3-1-1.7-1.7-2.6-1.3"/>
								</g>
							</g>
							<g>
								<path class="st10" d="M255.8,413.2v-4.1l48.7,2.6c0,0,2.2,1,1.9,2.6L255.8,413.2z"/>
							</g>
							<g>
								<g>
									<path class="st10" d="M279,399.8c0,0.2-1.3,0.3-2.5,1.1c-1.3,0.7-1.9,1.8-2.1,1.7c-0.2-0.1,0.2-1.5,1.7-2.4
										C277.5,399.2,279,399.6,279,399.8z"/>
								</g>
							</g>
							<g>
								<g>
									<path class="st10" d="M285.5,402.2c0.1,0.2-1,0.6-1.9,1.7c-0.9,1-1.1,2.1-1.4,2.1c-0.2,0-0.4-1.4,0.7-2.7
										C284.1,402.1,285.5,402,285.5,402.2z"/>
								</g>
							</g>
							<g>
								<g>
									<path class="st10" d="M288.3,408.4c-0.2,0-0.5-1.2,0.1-2.5c0.7-1.3,1.8-1.9,1.9-1.6c0.1,0.2-0.6,0.9-1.2,2
										C288.7,407.4,288.6,408.4,288.3,408.4z"/>
								</g>
							</g>
							<g>
								<g>
									<path class="st10" d="M278.7,393c-0.1,0.2-1.2-0.1-2.6-0.1c-1.4,0-2.5,0.5-2.6,0.3c-0.1-0.2,0.9-1.1,2.6-1.1
										C277.7,392,278.8,392.8,278.7,393z"/>
								</g>
							</g>
							<g>
								<g>
									<path class="st10" d="M279.7,386.9c0,0.1-1,0.2-2.5-0.1c-0.8-0.2-1.7-0.4-2.6-0.9c-0.5-0.2-1-0.5-1.4-0.8
										c-0.2-0.2-0.5-0.3-0.8-0.6c-0.3-0.3-0.4-0.9-0.1-1.3c0.3-0.4,0.7-0.5,1.1-0.5c0.4,0,0.7,0.1,0.9,0.2
										c0.6,0.1,1.1,0.3,1.6,0.6c1,0.5,1.7,1,2.3,1.6c1.2,1.1,1.5,2,1.4,2.1c-0.1,0.1-0.7-0.7-1.8-1.6c-0.6-0.5-1.3-0.9-2.2-1.3
										c-0.4-0.2-0.9-0.4-1.4-0.5c-0.5-0.2-1-0.2-1.1,0.1c-0.1,0.1-0.1,0.1,0,0.3c0.1,0.1,0.3,0.3,0.6,0.4
										c0.4,0.3,0.9,0.6,1.3,0.8c0.9,0.5,1.7,0.8,2.4,1C278.8,386.7,279.7,386.8,279.7,386.9z"/>
								</g>
							</g>
							<g>
								<g>
									<path class="st10" d="M279.4,387.3c-0.1,0-0.6-0.9-0.6-2.5c0-0.8,0.1-1.8,0.4-2.8c0.2-0.5,0.4-1,0.7-1.5
										c0.3-0.5,0.7-1.2,1.6-1.2c0.5,0,0.9,0.4,1,0.7c0.2,0.3,0.2,0.6,0.2,0.9c0.1,0.6,0.1,1.2,0,1.7c-0.2,1.1-0.6,2-1.1,2.6
										c-1,1.3-2.1,1.6-2.1,1.5c-0.1-0.1,0.8-0.6,1.6-1.8c0.4-0.6,0.7-1.4,0.9-2.4c0.1-0.5,0.1-1,0-1.5c-0.1-0.5-0.3-1-0.5-0.9
										c-0.3,0-0.7,0.4-0.9,0.8c-0.3,0.4-0.5,0.9-0.7,1.4c-0.3,0.9-0.5,1.8-0.5,2.5C279.3,386.3,279.5,387.3,279.4,387.3z"/>
								</g>
							</g>
						</g>
					</g>
				</g>
			</g>
			<g>
				<path class="st10" d="M228.6,230.9c-0.4,1.8-3.6,48.2-5.8,65.3c-2.2,17.1-19.8,128.9-19.8,128.9l-32-2.1
					c0,0,10.2-118.8,10.9-128.6c0.7-9.9-6.6-48.5-3.3-58.7c3.3-10.2,8.7-14.4,8.7-14.4l18.3-6.1l23,3.3V230.9z"/>
				<path class="st10" d="M285.6,384.9c0,0,2.6-75,0-85.2s-61-65.2-61-65.2l-8.6,48.5c0,0,21.5,16.2,37.3,28.9l-1.7,72.9H285.6z"/>
				<g>
					<path class="st11" d="M228.3,238.1c0,0,0,0.1,0,0.3c0,0.2,0,0.4,0,0.7c0,0.7-0.1,1.6-0.1,2.8c-0.1,2.4-0.4,6-0.7,10.3
						c-0.7,8.7-1.9,20.7-3.5,34c-1.6,13.2-3.3,25.2-4.6,33.8c-0.7,4.3-1.2,7.8-1.6,10.2c-0.2,1.2-0.4,2.1-0.5,2.8
						c-0.1,0.3-0.1,0.5-0.1,0.7c0,0.2-0.1,0.2-0.1,0.2c0,0,0-0.1,0-0.3c0-0.2,0.1-0.4,0.1-0.7c0.1-0.7,0.2-1.6,0.4-2.8
						c0.4-2.5,0.9-5.9,1.5-10.2c1.2-8.6,2.9-20.6,4.5-33.8c1.6-13.2,2.9-25.2,3.7-33.9c0.4-4.3,0.7-7.9,0.9-10.3
						c0.1-1.2,0.2-2.1,0.2-2.8c0-0.3,0.1-0.5,0.1-0.7C228.3,238.2,228.3,238.1,228.3,238.1z"/>
				</g>
				<g>
					<path class="st11" d="M271.1,301.3c0,0.1-1.1,0.6-2.9,1.4c-1.8,0.8-4.2,2.1-6.8,3.7c-2.6,1.6-4.8,3.1-6.4,4.3
						c-1.6,1.2-2.5,2-2.6,1.9c0,0,0.2-0.3,0.6-0.6c0.4-0.4,1-0.9,1.8-1.6c1.5-1.3,3.7-2.9,6.3-4.5c2.6-1.6,5.1-2.8,6.9-3.5
						c0.9-0.4,1.7-0.7,2.2-0.8C270.8,301.3,271.1,301.2,271.1,301.3z"/>
				</g>
				<g>
					<path class="st11" d="M276,308.6c0,0.1-1.3,0.2-3.5,0.5c-2.2,0.3-5.2,0.6-8.5,1.1c-3.3,0.5-6.3,1-8.5,1.3
						c-2.2,0.4-3.5,0.6-3.5,0.5c0,0,0.3-0.1,0.9-0.3c0.6-0.2,1.5-0.3,2.5-0.6c2.1-0.4,5.1-1,8.5-1.5c3.3-0.5,6.3-0.8,8.5-1
						c1.1-0.1,2-0.1,2.6-0.2C275.7,308.6,276,308.6,276,308.6z"/>
				</g>
			</g>
			<g>
				<g>
					<g>
						<path class="st10" d="M186.1,92c-1.3-2.3-3.3-4.2-5.7-5c-2.5-0.8-5.4-0.4-7.3,1.3c-1.9,1.8-2.4,5-0.9,7.1
							c-3.4-0.6-7,1.4-8.3,4.5c-1.3,3.1-0.3,7.1,2.4,9.1c2.7,2,6.8,2,9.5-0.2c0.4,1.9,1.9,3.5,3.8,4.1c1.8,0.6,4,0.2,5.5-1
							c3.8-3.2,2.6-10.2,6.9-12.7"/>
					</g>
					<g>
						<g>
							<g>
								<g>
									<g>
										<g>
											<g>
												<g>
													<path class="st10" d="M191.7,66.3c1.1-3.5,6.9-6.6,10-8.4c4.7-2.7,9.1-2.2,11.8,0.2c4.9-4.1,11.3-8,17.4-6.4
														c6.1,1.6,11.1,7.9,10,14.2c-0.7,3.7-3.2,7-3.1,10.7c0.1,2.5,1.5,4.9,2.5,7.2c1.1,2.3,1.9,5,0.9,7.4
														c-0.9,2.2-3.1,3.6-4.3,5.6c-1,1.7-1.2,3.7-1.8,5.5c-2.3,6.8-10.3,10.6-17.4,9.4c-7.1-1.2-13-6.5-16.3-12.9
														c-3.3-6.3-4.4-13.6-4.8-20.8"/>
												</g>
											</g>
										</g>
									</g>
								</g>
								<g>
									<g>
										<g>
											<g>
												<g>
													<g>
														<g>
															<g>
																<g>
																	<g>
																		<g>
																			<g>
																				<g>
																					<g>
																						<path class="st5" d="M197,71.2l1.4,56.5l25.4-2.3c-0.4-6.9-0.7-14.1-0.7-14.1s8.8-2,9.9-13.7
																							c0.6-6-0.4-15.8-1.4-23.6c-0.9-6.5-7-11-13.5-9.9"/>
																					</g>
																				</g>
																			</g>
																		</g>
																	</g>
																</g>
															</g>
														</g>
													</g>
													<g>
														<g>
															<g>
																<g>
																	<g>
																		<g>
																			<g>
																				<g>
																					<g>
																						<path class="st6" d="M223,111.2c0,0-7.7,1-15.8-3.1c0,0,4.4,7.8,15.9,6L223,111.2z"/>
																					</g>
																				</g>
																			</g>
																		</g>
																	</g>
																</g>
															</g>
														</g>
													</g>
												</g>
											</g>
										</g>
										<g>
											<g>
												<g>
													<g>
														<g>
															<g>
																<g>
																	<g>
																		<g>
																			<path class="st10" d="M214.6,75.8c-0.1,0.4-1.7,0.3-3.6,0.7c-1.9,0.3-3.3,1-3.6,0.6c-0.1-0.2,0.1-0.6,0.7-1.1
																				c0.6-0.5,1.5-0.9,2.6-1.1c1.1-0.2,2.2-0.1,2.9,0.2C214.3,75.2,214.7,75.5,214.6,75.8z"/>
																		</g>
																	</g>
																</g>
															</g>
														</g>
													</g>
												</g>
											</g>
										</g>
										<g>
											<g>
												<g>
													<g>
														<g>
															<g>
																<g>
																	<g>
																		<g>
																			<path class="st10" d="M228.1,74.6c-0.3,0.4-1.4,0.1-2.7,0.1c-1.3,0-2.4,0.4-2.7,0c-0.1-0.2,0-0.6,0.5-0.9
																				c0.5-0.4,1.2-0.7,2.2-0.7c0.9,0,1.7,0.2,2.2,0.6C228.1,74.1,228.2,74.5,228.1,74.6z"/>
																		</g>
																	</g>
																</g>
															</g>
														</g>
													</g>
												</g>
											</g>
										</g>
									</g>
								</g>
								<g>
									<g>
										<g>
											<g>
												<g>
													<path class="st6" d="M215.5,88.8c0,0.2-0.2,0.4-0.4,0.4c-0.2,0-0.4-0.2-0.4-0.4s0.2-0.4,0.4-0.4
														C215.3,88.4,215.5,88.5,215.5,88.8z"/>
												</g>
											</g>
										</g>
									</g>
								</g>
								<g>
									<g>
										<g>
											<g>
												<g>
													<path class="st6" d="M227.4,86.7c0,0.2-0.2,0.4-0.4,0.4c-0.2,0-0.4-0.2-0.4-0.4c0-0.2,0.2-0.4,0.4-0.4
														C227.3,86.3,227.4,86.5,227.4,86.7z"/>
												</g>
											</g>
										</g>
									</g>
								</g>
								<g>
									<g>
										<g>
											<g>
												<g>
													<path class="st6" d="M229.8,87.8c0,0.2-0.2,0.4-0.4,0.4c-0.2,0-0.4-0.2-0.4-0.4c0-0.2,0.2-0.4,0.4-0.4
														C229.6,87.4,229.8,87.6,229.8,87.8z"/>
												</g>
											</g>
										</g>
									</g>
								</g>
								<g>
									<g>
										<g>
											<g>
												<g>
													<path class="st6" d="M230.5,86c0,0.2-0.2,0.4-0.4,0.4c-0.2,0-0.4-0.2-0.4-0.4c0-0.2,0.2-0.4,0.4-0.4
														C230.3,85.6,230.5,85.8,230.5,86z"/>
												</g>
											</g>
										</g>
									</g>
								</g>
								<g>
									<g>
										<g>
											<g>
												<g>
													<path class="st6" d="M213.5,90.7c0,0.2-0.2,0.4-0.4,0.4c-0.2,0-0.4-0.2-0.4-0.4c0-0.2,0.2-0.4,0.4-0.4
														C213.3,90.2,213.5,90.4,213.5,90.7z"/>
												</g>
											</g>
										</g>
									</g>
								</g>
								<g>
									<g>
										<g>
											<g>
												<g>
													<path class="st6" d="M211.9,88.9c0,0.2-0.2,0.4-0.4,0.4c-0.2,0-0.4-0.2-0.4-0.4c0-0.2,0.2-0.4,0.4-0.4
														C211.7,88.5,211.9,88.7,211.9,88.9z"/>
												</g>
											</g>
										</g>
									</g>
								</g>
								<g>
									<g>
										<g>
											<g>
												<g>
													<path class="st10" d="M217.4,62.3c-1,9.2-7.6,20.6-16.4,23.3c-8.4-2-2.5,6.5-2.4,13c0.1,6.1,3.3,10.2-0.6,13.3
														c-3.2,0.8-5.1-8.1-7.5-10.6c-2.4-2.5-4.7-5.6-4.5-9c0.1-1.6,0.7-3.2,0.8-4.8c0.1-1.8-0.5-3.5-0.8-5.3
														c-1.4-7.8,2.7-16.2,9.5-20.3c6.8-4.1,15.9-3.8,22.7,0.4"/>
												</g>
											</g>
										</g>
									</g>
								</g>
								<g>
									<g>
										<g>
											<g>
												<g>
													<g>
														<path class="st11" d="M187,86.7c0,0-0.1-0.1-0.3-0.3c-0.2-0.2-0.4-0.6-0.5-1.1c-0.3-1.1-0.2-2.7,0.7-4.5
															c0.4-0.9,1-1.8,1.8-2.6c0.8-0.8,1.7-1.6,2.8-2.4c1.1-0.7,2.3-1.4,3.6-1.8c1.3-0.5,2.7-0.8,4.2-1.2
															c1.4-0.4,2.8-0.7,4.1-1.2c1.3-0.5,2.5-1,3.7-1.6c2.2-1.2,4.1-2.6,5.5-3.9c1.4-1.3,2.4-2.5,3.1-3.3
															c0.3-0.4,0.6-0.8,0.7-1c0.2-0.2,0.3-0.3,0.3-0.3c0,0-0.1,0.1-0.2,0.4c-0.2,0.2-0.4,0.6-0.7,1
															c-0.6,0.9-1.6,2.1-3.1,3.4c-1.4,1.3-3.3,2.7-5.5,4c-1.1,0.6-2.4,1.2-3.7,1.6c-1.3,0.5-2.7,0.8-4.1,1.2
															c-1.4,0.4-2.8,0.7-4.1,1.1c-1.3,0.4-2.5,1.1-3.5,1.8c-1.1,0.7-2,1.5-2.8,2.3c-0.8,0.8-1.4,1.6-1.8,2.5
															c-0.8,1.7-1,3.3-0.7,4.4C186.5,86.2,187,86.6,187,86.7z"/>
													</g>
												</g>
											</g>
										</g>
									</g>
								</g>
								<g>
									<g>
										<g>
											<g>
												<g>
													<g>
														<path class="st11" d="M216.6,61.5c0,0-0.1,0.1-0.2,0.3c-0.2,0.2-0.4,0.5-0.7,0.8c-0.7,0.7-1.6,1.6-2.9,2.7
															c-1.3,1-3,2.2-5.1,3.1c-1,0.4-2.2,0.7-3.4,0.9c-1.2,0.2-2.4,0.4-3.7,0.6c-2.5,0.4-4.9,0.8-7,1.5
															c-2.1,0.7-3.8,1.7-5.1,2.8c-1.3,1.1-2,2.2-2.5,3.1c-0.2,0.4-0.3,0.8-0.4,1c-0.1,0.2-0.1,0.4-0.1,0.3
															c0,0,0-0.1,0.1-0.4c0.1-0.2,0.2-0.6,0.4-1c0.4-0.9,1.2-2,2.4-3.1c1.3-1.1,3-2.2,5.1-2.9c2.1-0.7,4.5-1.1,7.1-1.5
															c1.3-0.2,2.5-0.4,3.7-0.6c1.2-0.2,2.3-0.5,3.3-0.9c2.1-0.8,3.7-2,5-3c1.3-1,2.3-2,3-2.6c0.3-0.3,0.6-0.6,0.8-0.8
															C216.5,61.6,216.6,61.5,216.6,61.5z"/>
													</g>
												</g>
											</g>
										</g>
									</g>
								</g>
								<g>
									<g>
										<g>
											<g>
												<g>
													<g>
														<path class="st11" d="M229.5,51.4c0,0.1-1,0.1-2.5,0.5c-0.4,0.1-0.8,0.2-1.2,0.4c-0.4,0.1-0.9,0.4-1.4,0.6
															c-0.9,0.5-1.9,1.1-2.9,1.8c-0.9,0.8-1.8,1.6-2.4,2.4c-0.3,0.4-0.6,0.8-0.9,1.2c-0.3,0.4-0.5,0.8-0.7,1.1
															c-0.7,1.4-1,2.4-1.1,2.4c0,0,0-0.2,0.2-0.7c0.1-0.2,0.1-0.5,0.3-0.8c0.1-0.3,0.2-0.6,0.4-1c0.2-0.4,0.4-0.8,0.6-1.2
															c0.2-0.4,0.6-0.8,0.9-1.2c0.7-0.8,1.5-1.7,2.4-2.5c1-0.8,2-1.4,3-1.8c0.5-0.2,1-0.4,1.4-0.6c0.4-0.2,0.9-0.3,1.3-0.4
															c0.4-0.1,0.8-0.2,1.1-0.2c0.3-0.1,0.6-0.1,0.8-0.1C229.3,51.4,229.5,51.4,229.5,51.4z"/>
													</g>
												</g>
											</g>
										</g>
									</g>
								</g>
								<g>
									<g>
										<g>
											<g>
												<g>
													<g>
														<path class="st11" d="M237.7,95.4c0,0,0,0,0.1-0.1c0.1-0.1,0.1-0.2,0.2-0.3c0.2-0.2,0.5-0.6,0.9-1.1
															c0.4-0.5,0.8-1.1,1-2c0.1-0.4,0.2-0.9,0.1-1.4c-0.1-0.5-0.2-1-0.5-1.5c-0.6-1-1.5-1.8-2.3-2.8c-0.8-1-1.6-2.2-2.2-3.6
															c-0.6-1.4-1.1-2.9-1.3-4.5c-0.2-1.6-0.1-3.3-0.1-5c0-1.7,0-3.4-0.5-4.9c-0.4-1.5-1.2-2.9-2.2-3.9
															c-1-1.1-2.1-1.9-3.3-2.4c-1.2-0.5-2.4-0.8-3.5-0.8c-2.2-0.1-4,0.6-5.1,1.1c-0.5,0.3-1,0.5-1.2,0.7
															c-0.1,0.1-0.2,0.2-0.3,0.2c-0.1,0-0.1,0.1-0.1,0.1c0,0,0.5-0.5,1.6-1.1c1.1-0.6,2.9-1.3,5.1-1.2
															c1.1,0,2.4,0.3,3.6,0.8c1.2,0.5,2.4,1.3,3.4,2.4c1,1.1,1.8,2.5,2.3,4c0.4,1.6,0.5,3.3,0.5,5c0,1.7-0.1,3.4,0.1,4.9
															c0.2,1.6,0.6,3.1,1.2,4.4c0.6,1.3,1.3,2.5,2.1,3.6c0.8,1,1.7,1.9,2.3,2.9c0.3,0.5,0.5,1,0.5,1.5c0.1,0.5,0,1-0.1,1.4
															c-0.3,0.9-0.7,1.5-1.1,2c-0.4,0.5-0.7,0.8-0.9,1.1C238,95.2,237.9,95.3,237.7,95.4C237.8,95.4,237.7,95.4,237.7,95.4z
															"/>
													</g>
												</g>
											</g>
										</g>
									</g>
								</g>
								<g>
									<g>
										<g>
											<g>
												<g>
													<g>
														<path class="st10" d="M187.6,87.3c0,0,0,0-0.1-0.1c-0.1,0-0.2-0.1-0.4-0.2c-0.3-0.2-0.7-0.4-1.3-0.9
															c-1-0.8-2.4-2.3-3.3-4.6c-0.9-2.2-1-5.3,0.4-8.2c0.7-1.4,1.8-2.8,3.1-3.8c1.4-1.1,3-1.8,4.8-2.3
															c1.8-0.5,3.5-0.8,5.2-1c1.7-0.2,3.4-0.2,4.9-0.3c1.6-0.1,3.1-0.3,4.4-0.5c1.4-0.2,2.6-0.6,3.7-1c2.2-0.8,3.8-2,4.7-3
															c0.5-0.5,0.8-0.9,1-1.2c0.1-0.1,0.2-0.2,0.2-0.3c0.1-0.1,0.1-0.1,0.1-0.1c0,0-0.3,0.7-1.2,1.7c-0.9,1-2.5,2.2-4.7,3.1
															c-1.1,0.4-2.4,0.8-3.8,1.1c-1.4,0.3-2.9,0.4-4.5,0.5c-3.1,0.2-6.6,0.3-10.1,1.3c-1.7,0.5-3.4,1.3-4.7,2.3
															c-1.4,1-2.4,2.3-3.1,3.7c-1.4,2.8-1.3,5.9-0.5,8.1c0.8,2.2,2.2,3.7,3.2,4.6c0.5,0.4,0.9,0.7,1.2,0.9
															c0.1,0.1,0.2,0.2,0.3,0.2C187.5,87.3,187.6,87.3,187.6,87.3z"/>
													</g>
												</g>
											</g>
										</g>
									</g>
								</g>
							</g>
						</g>
					</g>
					<g>
						<g>
							<g>
								<g>
									<g>
										<g>
											<g>
												<path class="st10" d="M229.1,82.6c0.1,0.8-0.5,1.5-1.3,1.6c-0.8,0.1-1.5-0.5-1.6-1.3c-0.1-0.8,0.5-1.5,1.3-1.6
													C228.3,81.2,229,81.8,229.1,82.6z"/>
											</g>
										</g>
									</g>
								</g>
							</g>
						</g>
						<g>
							<g>
								<g>
									<g>
										<g>
											<g>
												<g>
													<path class="st10" d="M228.9,80.2c-0.2,0.2-1.3-0.6-2.9-0.5c-1.6,0.1-2.7,0.9-2.9,0.8c-0.1-0.1,0.1-0.4,0.6-0.8
														c0.5-0.4,1.3-0.8,2.3-0.8c1,0,1.8,0.3,2.3,0.6C228.8,79.8,229,80.2,228.9,80.2z"/>
												</g>
											</g>
										</g>
									</g>
								</g>
							</g>
						</g>
					</g>
					<g>
						<g>
							<g>
								<g>
									<g>
										<g>
											<g>
												<path class="st10" d="M213.4,84c0.1,0.8-0.5,1.5-1.3,1.6c-0.8,0.1-1.5-0.5-1.6-1.3c-0.1-0.8,0.5-1.5,1.3-1.6
													C212.6,82.6,213.3,83.2,213.4,84z"/>
											</g>
										</g>
									</g>
								</g>
							</g>
						</g>
						<g>
							<g>
								<g>
									<g>
										<g>
											<g>
												<g>
													<path class="st10" d="M213.4,81.1c-0.2,0.2-1.3-0.6-2.9-0.5c-1.6,0.1-2.7,0.9-2.9,0.8c-0.1-0.1,0.1-0.4,0.6-0.8
														c0.5-0.4,1.3-0.8,2.3-0.8c1,0,1.8,0.3,2.3,0.6C213.3,80.7,213.5,81,213.4,81.1z"/>
												</g>
											</g>
										</g>
									</g>
								</g>
							</g>
						</g>
					</g>
					<g>
						<g>
							<g>
								<g>
									<g>
										<g>
											<g>
												<path class="st10" d="M219.7,93.5c0-0.1,1-0.3,2.6-0.6c0.4-0.1,0.8-0.2,0.8-0.4c0.1-0.3-0.1-0.7-0.3-1.2
													c-0.4-1-0.9-2-1.4-3c-1.9-4.3-3.3-7.9-3.1-7.9c0.2-0.1,1.9,3.4,3.8,7.7c0.5,1.1,0.9,2.1,1.3,3.1c0.2,0.5,0.5,1,0.3,1.6
													c-0.1,0.3-0.4,0.5-0.6,0.6c-0.3,0.1-0.5,0.1-0.7,0.1C220.7,93.5,219.7,93.5,219.7,93.5z"/>
											</g>
										</g>
									</g>
								</g>
							</g>
						</g>
					</g>
					<g>
						<g>
							<g>
								<g>
									<g>
										<g>
											<path class="st6" d="M219.2,97.3c-0.6-0.7-1.6-1.1-2.6-0.9c-0.7,0.1-1.4,0.5-1.8,1.1c-0.4,0.6-0.4,1.4,0,1.9
												c0.5,0.6,1.4,0.7,2.1,0.4c0.7-0.3,1.4-0.8,2-1.3c0.2-0.1,0.3-0.3,0.4-0.5C219.4,97.8,219.4,97.5,219.2,97.3"/>
										</g>
									</g>
								</g>
							</g>
						</g>
					</g>
					<g>
						<g>
							<g>
								<g>
									<g>
										<g>
											<g>
												<path class="st10" d="M215.1,94.8c0.3,0,0.4,1.7,1.9,2.8c1.5,1.2,3.4,0.9,3.4,1.1c0,0.1-0.4,0.4-1.2,0.4
													c-0.8,0.1-1.9-0.1-2.8-0.8c-0.9-0.7-1.4-1.7-1.5-2.4C214.8,95.2,214.9,94.8,215.1,94.8z"/>
											</g>
										</g>
									</g>
								</g>
							</g>
						</g>
					</g>
				</g>
				<g>
					<g>
						<g>
							<g>
								<g>
									<path class="st5" d="M199.5,85.7c-0.2-0.1-7.6-2.6-7.7,5.1c-0.1,7.7,7.6,6.2,7.6,5.9C199.5,96.5,199.5,85.7,199.5,85.7z"/>
								</g>
							</g>
						</g>
					</g>
					<g>
						<g>
							<g>
								<g>
									<g>
										<path class="st6" d="M197.2,93.8c0,0-0.1,0.1-0.4,0.2c-0.2,0.1-0.6,0.2-1,0c-0.8-0.3-1.5-1.6-1.5-3c0-0.7,0.1-1.4,0.4-1.9
											c0.2-0.6,0.6-0.9,1-1c0.4-0.1,0.7,0.2,0.8,0.4c0.1,0.2,0.1,0.4,0.1,0.4c0,0,0.2-0.1,0.1-0.4c0-0.2-0.1-0.3-0.3-0.5
											c-0.2-0.2-0.5-0.2-0.7-0.2c-0.6,0-1.1,0.6-1.4,1.2c-0.3,0.6-0.5,1.3-0.5,2.1c0,1.5,0.8,3,1.9,3.3c0.5,0.1,1,0,1.2-0.2
											C197.1,93.9,197.2,93.8,197.2,93.8z"/>
									</g>
								</g>
							</g>
						</g>
					</g>
				</g>
				<g>
					<path class="st7" d="M190.8,100.5c-0.1,0.1-2.1-1.9-3.3-5.2c-1.2-3.3-0.9-6.1-0.7-6.1c0.2,0,0.1,2.8,1.2,5.9
						C189.1,98.3,191,100.4,190.8,100.5z"/>
				</g>
			</g>
			<g>
				<path class="st7" d="M195.6,123.7c0,0-17.1,11.8-17.8,24.6c-0.7,12.8,9.7,50.5,9.7,50.5s-5.5,17.5-2.9,21.2
					c2.6,3.6,17.5-0.7,28.5,1.8c10.9,2.6,17.9,5.5,21.2,2.2c3.3-3.3,4.4-5.5,2.9-18.6c-1.5-13.1,3.9-29.9,3.9-42
					c0-12.4-13.7-35.3-13.7-35.3l-1.7-5.8c0,0-23.2-7.5-28.7-6.8L195.6,123.7z"/>
				<path class="st7" d="M177.7,146.8c-0.2,1.1,0,51.3,0,51.3L174,205c-0.3,2.4,0.9,4.9,2.8,7.4l19.7,2.8l6.6-8.5l-5.9-9.4l11-41.8
					c0,0,4.1-8.5-1.6-16.1C200.9,131.8,180.6,129.4,177.7,146.8z"/>
				<g>
					<path class="st10" d="M204.7,143.6c-0.1,0.1-0.7-1.3-2.2-3c-1.5-1.7-4.1-3.9-7.4-4.9c-3.4-1.1-6.7-0.9-8.9-0.3
						c-2.3,0.5-3.5,1.3-3.6,1.2c0,0,0.3-0.2,0.9-0.5c0.6-0.3,1.5-0.7,2.6-1c2.3-0.7,5.7-1,9.2,0.2c3.5,1.1,6.1,3.3,7.6,5.2
						c0.7,0.9,1.2,1.7,1.5,2.3C204.6,143.3,204.7,143.6,204.7,143.6z"/>
				</g>
				<g>
					<path class="st10" d="M179.6,195c0,0,0,0.1-0.1,0.3c-0.1,0.3-0.3,0.6-0.5,1c-0.5,0.9-1.1,2.1-1.9,3.6c-0.8,1.5-1.9,3.4-2.9,5.4
						c-0.3,1,0.2,2.3,0.8,3.5c0.6,1.2,1.3,2.4,2.1,3.6l-0.2-0.1c3.9,0.6,8.3,1.2,12.9,1.8c1.7,0.2,3.4,0.5,5,0.7l-0.1,0
						c1.9-0.8,3.7-1.2,5.3-2c0.2-0.1,0.4-0.2,0.5-0.3c0.2-0.1,0.3-0.3,0.5-0.5c0.3-0.3,0.6-0.6,0.9-1c0.6-0.6,1.1-1.3,1.4-2.1
						c0.3-0.7,0.4-1.5,0.4-2.3c-0.1-0.7-0.3-1.4-0.6-2.1c-0.7-1.3-1.6-2.3-2.5-3.1c-1.8-1.7-3.2-3.2-3.7-4.5
						c-0.3-0.6-0.4-1.1-0.5-1.5c-0.1-0.4-0.1-0.5,0-0.5c0.1,0,0.1,0.8,0.7,2c0.6,1.2,2,2.6,3.8,4.3c0.9,0.9,1.9,1.9,2.6,3.2
						c0.4,0.7,0.6,1.4,0.7,2.2c0.1,0.8,0,1.7-0.4,2.5c-0.3,0.8-0.9,1.5-1.4,2.2c-0.3,0.3-0.6,0.7-0.9,1c-0.2,0.2-0.3,0.3-0.5,0.5
						c-0.2,0.2-0.4,0.3-0.6,0.4c-1.7,0.9-3.6,1.3-5.3,2l-0.1,0l-0.1,0c-1.6-0.2-3.3-0.5-5-0.7c-4.6-0.7-8.9-1.3-12.8-1.9l-0.1,0
						l-0.1-0.1c-0.8-1.2-1.5-2.4-2.1-3.6c-0.3-0.6-0.5-1.2-0.7-1.9c-0.1-0.6-0.3-1.3,0-1.9c1.1-2.2,2.2-3.9,3.1-5.4
						c0.8-1.5,1.5-2.6,2-3.5c0.2-0.4,0.4-0.7,0.6-0.9C179.5,195.1,179.6,195,179.6,195z"/>
				</g>
				<g>
					<path class="st10" d="M194.6,186.5c0,0,0.7,0.5,1.4,1.6c0.8,1.1,1.7,2.7,2.3,4.6c0.6,1.9,0.7,3.8,0.6,5.1
						c-0.1,1.3-0.3,2.1-0.4,2.1c-0.2,0,0.4-3.3-0.8-7C196.7,189,194.5,186.6,194.6,186.5z"/>
				</g>
				<g>
					<path class="st10" d="M206.8,157.5c0,0,0,0.5-0.2,1.4c-0.1,0.9-0.4,2.3-0.6,3.9c-0.6,3.3-1.5,7.8-2.7,12.8
						c-1.2,5-2.5,9.4-3.5,12.6c-0.5,1.6-0.9,2.9-1.2,3.8c-0.3,0.9-0.5,1.4-0.5,1.4c0,0,0.1-0.5,0.3-1.4c0.3-1,0.6-2.3,1.1-3.8
						c0.9-3.2,2.1-7.7,3.3-12.7c1.2-5,2.2-9.5,2.9-12.8c0.3-1.6,0.6-2.9,0.8-3.9C206.6,158,206.8,157.5,206.8,157.5z"/>
				</g>
				<g>
					<path class="st10" d="M227.3,128.2c0,0-0.1,0.1-0.1,0.3c0,0.2,0,0.6,0.2,1c0.1,0.4,0.3,1,0.6,1.6c0.1,0.3,0.2,0.7,0.3,1.1
						c0,0.2,0.1,0.4,0.1,0.6c0,0.2,0,0.5-0.3,0.7l-0.1,0.1l-0.1-0.2c-1.1-2.9-3.3-6.8-6-11.1l0.4,0c-1.3,3-2.5,6.5-3.5,10.1
						c-0.3,1.2-0.6,2.3-0.8,3.5l-0.1,0.3l-0.3-0.1c-6.5-3.1-12-6.3-15.9-8.7c-1.9-1.2-3.5-2.2-4.5-2.9c-0.5-0.3-0.9-0.6-1.2-0.8
						c-0.3-0.2-0.4-0.3-0.4-0.3c0,0,0.2,0.1,0.4,0.2c0.3,0.2,0.7,0.4,1.2,0.8c1.1,0.7,2.6,1.6,4.6,2.8c3.9,2.3,9.4,5.4,15.9,8.5
						l-0.4,0.2c0.2-1.1,0.5-2.3,0.8-3.5c1-3.7,2.2-7.1,3.6-10.2l0.2-0.4l0.2,0.4c2.7,4.4,4.8,8.2,5.8,11.3l-0.2-0.1
						c0.1,0,0.1-0.2,0.1-0.4c0-0.2,0-0.4-0.1-0.6c-0.1-0.4-0.2-0.7-0.3-1c-0.2-0.6-0.4-1.2-0.5-1.7c-0.1-0.5-0.2-0.8-0.1-1.1
						C227.1,128.2,227.3,128.2,227.3,128.2z"/>
				</g>
				<g>
					<path class="st10" d="M222.1,122.6c0,0,0.1,0.1,0.1,0.2c0.1,0.2,0.2,0.4,0.3,0.7c0.3,0.7,0.7,1.6,1.3,2.8
						c1.1,2.5,2.6,6,4.3,10.5c1.7,4.5,3.5,9.9,4.7,16.2c0.6,3.1,1,6.5,1,9.9c0.1,3.5-0.3,7.1-0.8,10.7c-0.5,3.6-1.2,7.1-1.6,10.6
						c-0.4,3.4-0.6,6.7-0.3,9.9c0.3,3.1,0.9,6.1,1.4,8.9c0.5,2.8,0.9,5.4,0.9,7.8c0,2.4-0.3,4.6-0.8,6.5c-0.5,1.9-1.2,3.4-2,4.5
						c-0.7,1.1-1.5,1.9-2,2.4c-0.3,0.2-0.5,0.4-0.6,0.5c-0.1,0.1-0.2,0.2-0.2,0.2c-0.1-0.1,1.2-0.9,2.7-3.1c1.4-2.2,2.7-6,2.5-10.8
						c-0.1-2.4-0.5-5-1-7.8c-0.5-2.8-1.1-5.7-1.4-8.9c-0.3-3.2-0.1-6.5,0.3-10c0.4-3.4,1.1-7,1.6-10.6c0.6-3.6,0.9-7.2,0.8-10.6
						c0-3.4-0.4-6.7-1-9.8c-1.1-6.2-2.9-11.7-4.6-16.2c-1.6-4.5-3.2-8.1-4.2-10.6c-0.5-1.2-0.9-2.2-1.2-2.9
						c-0.1-0.3-0.2-0.6-0.3-0.7C222.1,122.7,222.1,122.6,222.1,122.6z"/>
				</g>
				<g class="st12">
					<path d="M205.5,196c-1.4-10.1,3.3-21.7-0.1-31.3c-2.1,8-3,15.1-5.4,21.8c-1.2,3.4-1.5,6.7-1.6,6.3c-0.4-1.6,0.2,6.8,0.2,6.8
						s3.4,3.3,3.8,4c1.2,2.2,1.1,5.6-0.4,7.7c-1.4,2-5.9,2.7-8.1,3.7l-1,5.6c6.4,1.7,13.8-4.9,14.6-11.5
						C208.1,204.7,206.2,200.4,205.5,196z"/>
				</g>
				<g class="st12">
					<path d="M215.2,134.8c0.9,0.5,1.7,1,2.6,1.5c0.8-4.7,2.1-9.4,3.9-13.9c2.5,3.4,5.1,7.3,6.5,11.3c0-0.7-0.9-5.2-0.9-5.5
						c1.8,2.3,2.3,5.6,0.8,8c-2.5-2.3-4.5-5.2-5.6-8.5c-0.4,3-0.9,6-1.3,9c-0.2,1.2-0.6,2.7-1.7,3c-0.8,0.2-1.6-0.1-2.3-0.5
						c-6.4-3.2-12.3-7.7-17.1-13L215.2,134.8z"/>
				</g>
				<g>
					<path class="st10" d="M237.2,208.6c0,0,0.1,0.3,0.2,0.9c0.1,0.6,0.2,1.4,0.3,2.4c0.2,2,0.4,4.9-0.6,8c-0.5,1.5-1.3,2.8-2.3,3.8
						c-1,1-2.1,1.6-3.1,1.9c-1,0.3-1.9,0.4-2.4,0.3c-0.6,0-0.9-0.2-0.9-0.2c0-0.1,1.3,0.2,3.2-0.5c0.9-0.4,2-1,2.9-1.9
						c0.9-0.9,1.7-2.2,2.2-3.6c1-2.9,0.9-5.8,0.8-7.8C237.2,209.9,237.1,208.6,237.2,208.6z"/>
				</g>
			</g>
			<g>
				<path class="st11" d="M172.8,270.9c0,0-10.6,1.8-16.6,9.2c-6,7.4-8.1,12.9-8.1,12.9l9.7,2.4c0,0,0.2-9.6,5.2-14.9
					c5-5.3,11.1-7.3,13.4-3.2c2.4,4.2,3.9,18.4,0,22.7l8.7,2.1C185,302,186.9,271.6,172.8,270.9z"/>
				<g>
					<path class="st5" d="M175.7,250.6c0,0-9,17.7-9.8,19.9s-2.1,11.2-2.1,11.2l1.6,2.7c0,0,1.2,3.1,4.8,1.6
						c0.4-0.2,1.8,1.5,4.8,0.5c1.8-0.6,3.9-1.1,3.9-1.1l3.2-6.4l1.1,4.2c0,0,3.6-5.4,3.3-12.7c-0.3-7.4,0-19.9,0-19.9H175.7z"/>
					<g>
						<path class="st6" d="M176.6,275.3c0.1,0-0.1,0.7-0.6,1.7c-0.4,1-1.2,2.3-1.8,3.9c-0.6,1.6-0.6,3.1-0.2,4.1
							c0.4,1,0.9,1.5,0.8,1.5c0,0.1-0.7-0.3-1.2-1.4c-0.2-0.5-0.4-1.2-0.4-2c0-0.8,0.2-1.6,0.4-2.4c0.6-1.6,1.5-2.9,2-3.9
							C176.3,275.9,176.5,275.3,176.6,275.3z"/>
					</g>
					<g>
						<path class="st6" d="M172,274.1c0.1,0.1-1.7,2.3-2.2,5.8c-0.6,3.4,0.5,6.1,0.4,6.2c-0.1,0-0.4-0.6-0.7-1.7
							c-0.3-1.1-0.5-2.8-0.2-4.5c0.3-1.8,0.9-3.3,1.6-4.2C171.4,274.5,171.9,274,172,274.1z"/>
					</g>
					<g>
						<path class="st6" d="M183.9,273.3c0.1,0,0,1.8-0.8,3.8c-0.8,2-2,3.4-2.1,3.3c-0.1-0.1,0.8-1.5,1.6-3.5
							C183.4,275,183.8,273.3,183.9,273.3z"/>
					</g>
					<g>
						<path class="st6" d="M165.4,284.4c-0.1,0-0.4-1.9,0-4.1c0.4-2.3,1.3-3.9,1.4-3.9c0.1,0.1-0.5,1.8-0.9,4
							C165.5,282.6,165.5,284.4,165.4,284.4z"/>
					</g>
				</g>
				<g>
					<path class="st11" d="M123,291.6c0.5-2.4,2.9-3.9,5.3-3.3L148,293l57.3,14c2.3,0.6,3.8,2.9,3.2,5.3l-11,48
						c-0.5,2.4-2.9,3.8-5.3,3.3l-76.5-17.7c-2.3-0.5-3.8-2.9-3.3-5.2L123,291.6z"/>
					<g>
						<path class="st10" d="M207.3,315.1c0,0-0.3-0.1-0.9-0.2c-0.6-0.2-1.4-0.4-2.4-0.7c-2.2-0.6-5.2-1.5-8.9-2.6
							c-7.5-2.2-18-5-29.6-8c-11.6-2.9-22.2-5.3-29.8-7c-3.8-0.8-6.9-1.5-9.1-2c-1-0.2-1.9-0.4-2.5-0.5c-0.6-0.1-0.9-0.2-0.9-0.2
							c0,0,0.3,0,0.9,0.1c0.6,0.1,1.4,0.3,2.5,0.4c2.2,0.4,5.3,1,9.1,1.8c7.7,1.6,18.3,3.9,29.9,6.9c11.6,2.9,22,5.9,29.5,8.1
							c3.8,1.1,6.8,2.1,8.9,2.7c1,0.3,1.8,0.6,2.4,0.8C207,314.9,207.3,315,207.3,315.1z"/>
					</g>
				</g>
				<polygon class="st5" points="176.7,212.6 173,256.9 186,256.9 193.8,215.2 				"/>
			</g>
			<g>
				<path class="st13" d="M207.1,153.8c0,0-0.4,0.2-1.1,0.4c-0.7,0.3-1.8,0.6-3.1,0.9c-2.6,0.7-6.3,1.4-10.4,1.5
					c-4.1,0.2-7.9-0.2-10.5-0.6c-1.3-0.2-2.4-0.4-3.1-0.6c-0.7-0.2-1.1-0.3-1.1-0.3c0-0.1,1.6,0.3,4.3,0.6c2.7,0.4,6.4,0.6,10.5,0.5
					c4.1-0.2,7.8-0.8,10.4-1.4C205.5,154.2,207.1,153.8,207.1,153.8z"/>
			</g>
			<g>
				<path class="st13" d="M201.9,178c0,0-0.3,0.1-0.9,0.1c-0.6,0-1.5,0-2.6,0c-2.2,0-5.2-0.2-8.5-0.5c-3.3-0.3-6.3-0.8-8.4-1.2
					c-1.1-0.2-1.9-0.4-2.5-0.5c-0.6-0.1-0.9-0.2-0.9-0.3c0-0.1,1.3,0.1,3.5,0.4c2.2,0.3,5.1,0.7,8.4,1c3.3,0.3,6.3,0.5,8.5,0.6
					C200.5,177.9,201.9,178,201.9,178z"/>
			</g>
			<g>
				<path class="st13" d="M199.7,202.3c0,0-0.3,0.1-0.8,0.3c-0.6,0.2-1.4,0.3-2.4,0.5c-2,0.4-4.9,0.6-8,0.4
					c-3.2-0.2-5.9-0.9-7.9-1.6c-1-0.3-1.8-0.6-2.3-0.9c-0.5-0.2-0.8-0.4-0.8-0.4c0-0.1,1.2,0.4,3.2,0.9c2,0.6,4.7,1.2,7.8,1.4
					c3.1,0.2,5.9,0,8-0.2C198.5,202.5,199.7,202.2,199.7,202.3z"/>
			</g>
			<g>
				<path class="st13" d="M238.7,184.1c0,0-0.5,0.3-1.4,0.7c-0.9,0.4-2.2,1-3.9,1.7c-1.7,0.7-3.7,1.3-6,1.9
					c-2.3,0.6-4.9,1.2-7.6,1.5c-2.7,0.4-5.4,0.6-7.7,0.6c-2.4,0-4.5,0-6.3-0.2c-1.8-0.2-3.2-0.3-4.2-0.5c-1-0.2-1.5-0.3-1.5-0.3
					c0,0,0.6,0,1.6,0.1c1,0.1,2.4,0.2,4.2,0.3c1.8,0.1,3.9,0.1,6.3,0.1c2.4-0.1,5-0.3,7.7-0.7c2.7-0.4,5.3-0.9,7.6-1.5
					c2.3-0.6,4.3-1.2,6-1.8c1.7-0.6,3-1.1,4-1.5C238.1,184.2,238.6,184,238.7,184.1z"/>
			</g>
			<g>
				<path class="st13" d="M238.4,154.1c0,0-0.4,0.2-1.2,0.5c-0.8,0.3-2,0.6-3.5,1.1c-2.9,0.9-7,2-11.6,3.2
					c-4.5,1.1-8.7,2.1-11.7,2.7c-1.5,0.3-2.7,0.5-3.6,0.7c-0.8,0.1-1.3,0.2-1.3,0.2c0,0,0.4-0.2,1.3-0.4c0.9-0.2,2.1-0.5,3.5-0.8
					c3-0.7,7.1-1.7,11.6-2.8c4.5-1.1,8.6-2.2,11.6-3c1.4-0.4,2.6-0.7,3.5-0.9C238,154.2,238.4,154.1,238.4,154.1z"/>
			</g>
			<g>
				<path class="st13" d="M231.2,138.3c0,0-0.4,0.1-1,0.2c-0.8,0.1-1.7,0.3-2.8,0.5c-2.3,0.4-5.6,1-9.2,1.7
					c-3.6,0.7-6.8,1.4-9.1,1.9c-1.1,0.2-2,0.4-2.8,0.6c-0.7,0.1-1,0.2-1,0.2c0,0,0.3-0.2,1-0.4c0.6-0.2,1.6-0.5,2.7-0.8
					c2.3-0.6,5.5-1.4,9.1-2.1c3.6-0.7,6.8-1.2,9.2-1.5c1.2-0.2,2.1-0.3,2.8-0.3C230.8,138.3,231.2,138.3,231.2,138.3z"/>
			</g>
			<g>
				<path class="st13" d="M200,126.6c0.1,0.1-1.7,1.4-3.5,3.3c-1.9,1.9-3.1,3.6-3.3,3.5c-0.1-0.1,1-2,2.9-3.9
					C198,127.6,199.9,126.5,200,126.6z"/>
			</g>
			<g>
				<path class="st13" d="M218.2,127.8c0,0-0.3,0-0.9-0.1c-0.6-0.1-1.4-0.3-2.4-0.6c-2-0.6-4.8-1.5-7.8-2.8c-3-1.3-5.5-2.7-7.4-3.8
					c-0.9-0.6-1.6-1-2.1-1.4c-0.5-0.3-0.7-0.5-0.7-0.6c0-0.1,1.2,0.6,3,1.6c1.8,1,4.4,2.4,7.4,3.7c2.9,1.3,5.7,2.3,7.7,3
					C217,127.3,218.3,127.7,218.2,127.8z"/>
			</g>
			<g>
				<path class="st13" d="M237.2,209c0,0-0.4,0.3-1.2,0.6c-0.8,0.3-2,0.8-3.6,1.2c-3.1,0.8-7.5,1.3-12.3,0.9
					c-4.8-0.4-9.1-1.3-12.1-2.1c-1.5-0.4-2.8-0.7-3.6-0.9c-0.8-0.2-1.3-0.4-1.3-0.4c0,0,0.5,0,1.3,0.2c1,0.2,2.2,0.5,3.6,0.8
					c3.1,0.6,7.3,1.5,12.1,1.9c4.8,0.4,9.1,0,12.1-0.7c1.5-0.3,2.7-0.7,3.6-1C236.7,209.1,237.2,208.9,237.2,209z"/>
			</g>
		</g>
		<g>
			<path class="st11" d="M187.8,96.4c0,0-0.1,0.4-0.5,1c-0.3,0.6-0.9,1.4-1.7,2.3c-1.6,1.8-4.5,3.9-8.2,4.8
				c-3.7,0.9-7.2,0.2-9.4-0.7c-1.1-0.5-2-0.9-2.6-1.3c-0.6-0.4-0.9-0.6-0.8-0.6c0.1-0.1,1.3,0.8,3.5,1.6c2.2,0.8,5.6,1.4,9.2,0.5
				c3.6-0.8,6.4-2.8,8-4.5C187,97.7,187.7,96.3,187.8,96.4z"/>
		</g>
		<g>
			<path class="st11" d="M164.3,97.6c0,0,0.3-0.2,0.9-0.3c0.6-0.1,1.5-0.3,2.7-0.2c1.1,0.1,2.5,0.3,3.9,0.6c1.5,0.3,3,0.8,4.7,1
				c1.7,0.2,3.3,0.2,4.7-0.2c1.4-0.4,2.6-1,3.5-1.7c1.8-1.3,2.5-2.6,2.6-2.5c0,0-0.1,0.3-0.5,0.9c-0.4,0.5-1,1.2-1.9,2
				c-0.9,0.7-2.1,1.4-3.6,1.8c-1.5,0.5-3.2,0.5-4.9,0.2c-1.7-0.3-3.3-0.7-4.7-1.1c-1.4-0.4-2.7-0.6-3.8-0.7
				C165.7,97.2,164.4,97.7,164.3,97.6z"/>
		</g>
	</g>
</g>
<g id="Plant">
	<g>
		<g>
			<g>
				<path class="st7" d="M81.3,407.4c3,1.3,5.2,4.1,6.3,7.2c1.1,3.1,1.2,6.5,0.8,9.7c-0.7,6.3-4.3,12.7-8.2,17.7
					c-5.3-4.6-6.5-12.7-6.9-16.9C72.8,418.6,75.7,406.4,81.3,407.4"/>
			</g>
		</g>
		<g>
			<g>
				<path class="st7" d="M86.4,452.4c-0.8-3.6,0.6-7.5,3.4-9.9c2.7-2.4,6.6-3.5,10.2-3.2c1.7,0.1,3.5,0.6,4.5,2
					c0.9,1.3,0.8,3.1,0.1,4.5c-0.7,1.4-2,2.5-3.3,3.3C96.6,452,91.7,454,86.4,452.4"/>
			</g>
		</g>
		<g>
			<g>
				<g>
					<path class="st10" d="M79.6,471.7c0,0,0-0.5,0.2-1.3c0.2-0.9,0.4-2.1,0.6-3.5c0.6-2.9,1.3-7.1,3.6-11.2c2.2-4.1,5.4-7,8-8.5
						c1.3-0.8,2.5-1.2,3.3-1.4c0.4-0.1,0.7-0.2,0.9-0.2c0.2,0,0.3-0.1,0.3,0c0,0.1-1.8,0.4-4.4,2c-2.6,1.5-5.6,4.5-7.8,8.5
						c-2.2,4-3,8.1-3.7,11c-0.3,1.5-0.6,2.7-0.8,3.5C79.8,471.3,79.7,471.7,79.6,471.7z"/>
				</g>
			</g>
		</g>
		<g>
			<g>
				<g>
					<path class="st10" d="M79.8,416.9c0,0,0,0.2,0.1,0.6c0,0.4,0.1,1,0.1,1.6c0.1,1.4,0.2,3.5,0.2,6c0.2,5.1,0.3,12,0.3,19.7
						c0,7.7-0.2,14.7-0.4,19.7c-0.1,2.5-0.2,4.6-0.3,6c0,0.7-0.1,1.2-0.1,1.6c0,0.4-0.1,0.6-0.1,0.6c0,0,0-0.2,0-0.6
						c0-0.4,0-1,0-1.6c0-1.5,0.1-3.5,0.1-6c0.1-5.1,0.3-12,0.3-19.7c0-7.7,0-14.7-0.1-19.7c0-2.5-0.1-4.5-0.1-6c0-0.7,0-1.2,0-1.6
						C79.8,417.1,79.8,416.9,79.8,416.9z"/>
				</g>
			</g>
		</g>
		<g>
			<g>
				<path class="st7" d="M77.3,456.2c-1.2-7.6-6.3-14.5-13.3-17.9c-1.8-0.8-4.1-1.4-5.5-0.1c-1.5,1.3-1.1,3.7-0.4,5.5
					c3,7.6,11,13,19.2,12.9"/>
			</g>
		</g>
		<g>
			<g>
				<g>
					<path class="st10" d="M64.8,444.4c0,0,0.4,0.1,1.1,0.5c0.4,0.2,0.8,0.4,1.3,0.7c0.5,0.3,1.1,0.6,1.6,1c0.6,0.4,1.2,0.8,1.9,1.4
						c0.7,0.5,1.3,1.1,2,1.8c1.3,1.3,2.6,3,3.7,4.8c1.1,1.9,1.9,3.8,2.5,5.6c0.3,0.9,0.5,1.8,0.6,2.6c0.2,0.8,0.2,1.6,0.3,2.3
						c0.1,0.7,0.1,1.3,0.1,1.9c0,0.6,0,1,0,1.4c-0.1,0.8-0.1,1.2-0.1,1.2c-0.1,0,0.1-1.8-0.2-4.5c-0.1-0.7-0.2-1.5-0.4-2.3
						c-0.1-0.8-0.4-1.7-0.7-2.5c-0.6-1.8-1.4-3.6-2.5-5.5c-1.1-1.8-2.4-3.4-3.7-4.8c-0.7-0.7-1.3-1.3-1.9-1.8
						c-0.6-0.6-1.2-1-1.8-1.4C66.4,445.2,64.8,444.4,64.8,444.4z"/>
				</g>
			</g>
		</g>
	</g>
</g>
<g id="Stairs">
	<g>
		<path class="st10" d="M465.9,351.1c0,0-0.3,0-1,0c-0.7,0-1.7,0-3,0c-2.6,0-6.5,0-11.6,0c-10.1,0-24.9,0-43.6,0.1l0.2-0.2
			c0,8.7,0,18.6,0,29.2l0,0.2l-0.2,0c-26,0-57.4,0-92.1,0.1l0.2-0.2c0,10.7,0,22.1,0,33.8l0,0.3l-0.3,0c-19.1,0-39.1,0-59.7,0
			c-11,0-21.8,0-32.4,0l0.3-0.3c0,12.2,0,24.1,0,35.7l0,0.3l-0.3,0c-36.5,0-69.9,0-98.7,0l0.2-0.2c0,7.9,0,15.4,0,22.6l0,0.2l-0.2,0
			c-26.1,0-47.3-0.1-61.9-0.1c-7.3,0-13,0-16.8-0.1c-1.9,0-3.4,0-4.4,0c-1,0-1.5,0-1.5,0s0.5,0,1.5,0c1,0,2.5,0,4.4,0
			c3.9,0,9.5,0,16.8,0c14.6,0,35.8,0,61.9-0.1l-0.2,0.2c0-7.1,0-14.6,0-22.6l0-0.2l0.2,0c28.8,0,62.2,0,98.7,0l-0.3,0.3
			c0-11.6,0-23.5,0-35.7v-0.3h0.3c10.6,0,21.5,0,32.4,0c20.6,0,40.6,0,59.7,0l-0.3,0.3c0-11.7,0-23,0-33.8l0-0.2l0.2,0
			c34.7,0,66.1,0,92.1,0.1l-0.2,0.2c0-10.6,0-20.5,0-29.2l0-0.2l0.2,0c18.6,0,33.4,0.1,43.6,0.1c5.1,0,9,0,11.6,0c1.3,0,2.3,0,3,0
			C465.6,351.1,465.9,351.1,465.9,351.1z"/>
	</g>
</g>
</svg>
