<?xml version="1.0" encoding="utf-8"?>
<!-- Generator: Adobe Illustrator 24.1.0, SVG Export Plug-In . SVG Version: 6.00 Build 0)  -->
<svg version="1.1" id="Calque_1" xmlns="http://www.w3.org/2000/svg" xmlns:xlink="http://www.w3.org/1999/xlink" x="0px" y="0px"
	 viewBox="0 0 196.1 170" style="enable-background:new 0 0 196.1 170;" xml:space="preserve">
<style type="text/css">
	.st0{fill:#020202;}
	.st1{fill:#615C5E;}
	.st2{fill:#3F3A3E;}
</style>
<g>
	<path class="st0" d="M101.2,50.6c0.2-2.1,0.5-4.1,0.5-6.2c0.1-2.5,0.1-4.9,2.1-6.7c0.3-0.3,0.7-0.6,1-0.9c1.1-0.5,2.2-1,3.2-1.4
		c0.3,0,0.7-0.1,1-0.1c7.9,0,15.8-0.2,23.7-0.1c4.6,0.1,7.4,3.5,7.4,8.1c0,2.3,0,4.6,0,7.1c4.2,0.3,7.9,1.6,10.8,4.5
		c2.9,2.9,4.5,6.3,4.5,10.4c0.1,18.3,0.1,36.6,0,54.9c-0.1,8.3-6.8,14.8-15.1,14.8c-28.2,0-56.4,0-84.7,0c-8.8,0-15.4-6.8-15.4-15.6
		c0-17.6,0-35.2,0-52.8c0-8.9,5.1-14.6,13.9-16.1c0.6-0.1,1.4-0.5,1.6-1c1.1-2.6,3.2-3.7,5.7-4.3c3.7-0.9,7.2-0.8,10.6,1.2
		c0.8,0.5,1.9,1.1,2,1.8c0.7,2.8,2.8,2.3,4.7,2.3c7.3,0,14.6,0.1,21.8,0.1C100.9,50.6,101.1,50.6,101.2,50.6z M113.4,123.8
		c17.1,0,31.1-13.9,31.1-30.8c0-17.4-13.8-31.3-31-31.4c-16.9,0-31.1,13.9-31.1,30.6C82.3,109.8,96,123.8,113.4,123.8z M55.8,96.5
		c0,6.1,0,12.2,0,18.4c0,2.9,1.4,4.7,3.7,4.7c2.5,0,3.9-1.7,3.9-4.7c0-12.2,0-24.5,0-36.7c0-2.8-1.5-4.6-3.8-4.6
		c-2.3,0-3.8,1.7-3.8,4.6C55.8,84.2,55.8,90.4,55.8,96.5z M109.7,50.3c7.6,0,15.1,0,22.7,0c0-2.5,0-5,0-7.4c-7.7,0-15.1,0-22.7,0
		C109.7,45.4,109.7,47.8,109.7,50.3z"/>
	<path class="st1" d="M109.1,35.1c-0.3,0-0.7,0.1-1,0.1C108.5,35.2,108.8,35.2,109.1,35.1z"/>
	<path class="st1" d="M104.9,36.7c-0.3,0.3-0.7,0.6-1,0.9C104.2,37.3,104.6,37,104.9,36.7z"/>
	<path class="st2" d="M101.2,50.6c-0.2,0-0.4,0-0.5,0C100.9,50.6,101.1,50.6,101.2,50.6z"/>
	<path class="st0" d="M90.4,92.7c0-12.9,10.3-23.1,23.3-23c12.6,0,22.9,10.4,22.8,23c0,12.7-10.4,23.1-23.1,23.1
		C100.6,115.8,90.3,105.4,90.4,92.7z M105.7,92.6c4.3,0,7.7-3.4,7.7-7.6c0-4.1-3.4-7.6-7.5-7.6c-4.2-0.1-7.8,3.4-7.8,7.5
		C98,89.2,101.4,92.6,105.7,92.6z"/>
</g>
</svg>
