<?xml version="1.0" encoding="utf-8"?>
<!-- Generator: Adobe Illustrator 24.1.0, SVG Export Plug-In . SVG Version: 6.00 Build 0)  -->
<svg version="1.1" id="Calque_1" xmlns="http://www.w3.org/2000/svg" xmlns:xlink="http://www.w3.org/1999/xlink" x="0px" y="0px"
	 viewBox="0 0 137 120" style="enable-background:new 0 0 137 120;" xml:space="preserve">
<g>
	<g>
		<path d="M30.7,51.7c-0.1,1-0.3,1.8-0.2,2.6c0.7,6,1.4,12.1,2,18.1c0.2,2,1.1,3,2.9,3.9c4.7,2.5,8.2,6.3,11.3,10.4
			c-0.2,0.3-0.3,0.6-0.5,0.9c-0.8-0.3-1.7-0.3-2.3-0.8c-4.2-3.2-8.3-6.4-12.3-9.7c-0.7-0.6-1.3-1.8-1.4-2.8
			c-1-9.1-1.9-18.2-2.9-27.3c-0.1-0.7-0.1-1.5-0.3-2.2c-0.4-2-1.8-3.1-3.7-3c-2.1,0.1-2.7,1.7-2.8,3.5c-0.2,7.7-0.4,15.3-0.5,23
			c-0.1,10.7-0.5,9.6,7.5,16.8c4,3.6,8.1,7.2,12,10.9c1.9,1.8,3.8,2.3,6,0.6c0.4-0.3,0.9-0.6,1.3-0.7c0.6-0.1,1.2,0.1,1.8,0.2
			c-0.1,0.7,0,1.7-0.4,1.9c-1.1,0.8-2.4,1.5-3.8,1.8c-1.7,0.5-2.4,1.4-2.7,3.1c-0.1,0.9-1.1,1.6-1.6,2.4c-0.4-0.8-1.4-1.7-1.2-2.4
			c0.5-3.5-1.6-5.4-3.8-7.4c-4.3-3.9-8.6-7.8-13-11.8c-3.1-2.8-4.8-6.2-4.7-10.6c0.2-8,0.1-16,0.2-24c0-1.6,0.1-3.2,0.3-4.7
			c0.4-3.3,2.2-5.1,5.3-5.3c3.4-0.2,5.6,1.2,6.3,4.6c0.5,2.4,1.2,4.4,3.6,5.8c1.3,0.8,2,3.2,2.2,5c0.7,4.6,1.4,9.1,4.3,12.9
			c0.9,1.1,2.3,2.3,3.6,2.5c3.5,0.6,6.5,1.9,9.1,4.4c3.2,3,6.5,5.9,9.8,8.9c2.4,2.3,2.8,5,1.9,8.2c-1,3.8-1.6,7.6-2.4,11.4
			c-0.2,0.9-1,1.7-1.5,2.6c-0.4-1-1.1-2-1-3c0.5-4.1,1.2-8.2,2.1-12.3c0.5-2.3,0.2-4.2-1.5-5.7c-3.9-3.4-7.7-6.9-11.9-9.9
			c-1.7-1.3-4.3-1.5-6.5-1.9c-1.9-0.4-3.9-0.2-3.8-3.1c0-0.8-0.7-1.7-1.2-2.4c-2.2-3.4-3.3-7-3.5-11C32.8,54.9,33.2,52.8,30.7,51.7z
			"/>
		<path d="M69.2,62c-6-0.4-12.9-2.5-18.3-7.5C39.6,44,43.3,28.9,54.8,20.9c10.2-7,25.8-7.2,35.6,3.6c11.4,12.7,5.5,28.8-5.4,34
			C80.4,60.7,75.7,62,69.2,62z M84.5,40.9c0-0.4,0-0.8,0-1.2c0.8-0.2,1.6-0.5,2.4-0.6c1.6-0.1,3.2-0.1,4.7-0.2
			c1.5-0.1,2.6-0.9,2-2.4c-1.1-3-2.3-5.9-3.7-8.7c-0.8-1.5-2.1-1.8-3.5-0.5c-1.1,1-2.2,2.1-3.3,3c-0.3,0.3-1,0.1-1.6,0.1
			c0-0.5-0.1-1,0.1-1.4c0.7-0.9,1.4-1.8,2.2-2.7c1.7-1.8,1.8-2.9-0.3-3.9c-3.1-1.5-6.5-2.4-9.8-3.3c-0.4-0.1-1.6,1-1.7,1.7
			c-0.3,1.8,0,3.7-0.3,5.5c-0.1,0.6-0.9,1.2-1.4,1.8c-0.4-0.6-1.2-1.2-1.3-1.8c-0.2-1.6,0-3.3,0-5c0-1.5-0.7-2.3-2.2-1.9
			c-3.3,0.9-6.7,1.9-9.9,3.1c-1.5,0.5-1.7,1.7-0.4,2.9c1.1,1,2.2,2,3.1,3.2c0.4,0.4,0.2,1.3,0.3,2c-0.7-0.1-1.5,0.1-2-0.2
			c-1.1-0.8-2.1-1.9-3.1-2.9c-1.4-1.3-2.8-1.3-3.7,0.3c-1.6,2.8-3,5.7-4.2,8.7c-0.6,1.6,0.2,2.5,2,2.5c1.4,0,2.8-0.1,4.2,0
			c0.8,0.1,1.6,0.4,2.4,0.6c0,0.2,0,0.5,0,0.7c-0.8,0.3-1.5,0.7-2.3,0.8c-1.2,0.1-2.5,0-3.7,0.1c-1.9,0.1-2.9,1-2.1,2.9
			c1,2.3,2.2,4.7,3.5,6.8c1.1,1.8,2.6,1.9,4.3,0.2c1.4-1.3,3.1-2.3,4.8-3.6c0.9,3.1-1,4.3-2.4,5.6c-1.4,1.4-1.4,2.4,0.5,3.1
			c2.6,1,5.3,1.9,8,2.7c1.7,0.5,2.7-0.2,2.7-2.1c0-1.6,0.1-3.2,0.4-4.7c0.1-0.6,1-1.1,1.5-1.6c0.3,0.6,0.8,1.2,0.9,1.8
			c0.1,1.3,0,2.7,0.1,4c0.1,2.5,0.7,3.1,3.2,2.5c2.6-0.6,5.1-1.5,7.6-2.5c2.3-0.9,2.3-1.7,0.5-3.4c-1.3-1.2-2.6-2.4-3.9-3.6
			c0.2-0.3,0.3-0.6,0.5-0.9c1,0.3,2,0.4,2.9,0.8c1,0.5,1.9,1.3,2.7,2.1c1.6,1.5,3,1.2,4.1-0.6c1.2-2,2.4-4,3.3-6.1
			c1.1-2.7,0.6-3.2-2.2-3.4C88.7,41.3,86.6,41,84.5,40.9z"/>
		<path d="M96.7,99.2c4.1-3.6,8.1-7,11.9-10.5c2.4-2.2,4.7-4.5,7.1-6.7c1.9-1.7,2.8-3.8,2.8-6.4c-0.2-9.7-0.3-19.5-0.6-29.2
			c-0.1-1.9,0-4.3-2.7-4.7c-1.6-0.2-3.2,1.9-3.4,4.6c-0.9,9.5-1.7,19-2.6,28.6c-0.1,0.9-0.6,2.3-1.2,2.5c-4,1.4-6.2,4.9-9.2,7.6
			c-0.5,0.4-0.9,1.1-1.4,1.4c-0.7,0.3-1.5,0.4-2.2,0.6c0.1-0.8-0.1-1.8,0.3-2.2c2.6-2.7,5.2-5.4,8.1-7.7c1.6-1.2,2.4-2.3,2.6-4.3
			c0.6-5.7,1.5-11.4,2.3-17.1c0.1-1.1,0.1-2.3,0.2-3.4c-0.3-0.1-0.5-0.2-0.8-0.3c-0.4,0.8-1,1.6-1.3,2.4c-1.4,5.2-3.3,10.3-4,15.6
			c-0.5,3.8-2.5,3.1-4.9,3.4C96,73.4,94.3,74,93.1,75c-3.8,3.2-7.3,6.6-10.9,9.9c-2.2,2.1-2.3,4.4-1.6,7.3c0.9,3.5,1.3,7.2,1.7,10.8
			c0.1,0.8-0.9,1.6-1.4,2.5c-0.5-0.8-1.2-1.5-1.4-2.4c-0.8-4-1.7-8-2.2-12c-0.2-1.7-0.1-4,0.9-5.1c4.3-4.7,8.9-9.2,13.5-13.5
			c1.1-1.1,3.1-1.2,4.5-1.9c1.2-0.7,2.9-1.4,3.3-2.5c1.5-4.2,2.8-8.5,3.8-12.8c0.6-2.5,1.4-4.6,3.5-6.3c1.2-1,1.7-3.1,2.2-4.7
			c1-3.9,4.4-6,7.9-4.4c1.3,0.6,2.6,2,2.9,3.3c0.6,2.5,0.7,5.3,0.8,7.9c0.3,8.2,0.4,16.3,0.7,24.5c0.1,3.8-1.3,6.7-4.1,9.2
			c-4.4,3.8-8.8,7.7-12.9,11.8c-1.3,1.3-1.7,3.6-2.4,5.5c-0.3,0.7,0,1.7-0.2,2.5c-0.2,0.5-0.9,0.8-1.4,1.1c-0.3-0.4-0.9-0.9-0.9-1.3
			C99.7,101.8,99.4,99.8,96.7,99.2z"/>
		<path d="M64,39.1c0.1-3.3,3.2-6.1,6.7-6c3.3,0.1,5.7,2.8,5.6,6.4c-0.1,3-3,5.6-6.3,5.6C66.5,45,63.9,42.4,64,39.1z M73.8,39.2
			c0-1.8-1.8-3.7-3.4-3.7c-1.9,0-3.9,2-3.9,3.9c0,1.8,1.8,3.4,3.7,3.3C72,42.7,73.8,40.9,73.8,39.2z"/>
	</g>
</g>
</svg>
