<?xml version="1.0" encoding="utf-8"?>
<!-- Generator: Adobe Illustrator 24.1.0, SVG Export Plug-In . SVG Version: 6.00 Build 0)  -->
<svg version="1.1" id="Calque_1" xmlns="http://www.w3.org/2000/svg" xmlns:xlink="http://www.w3.org/1999/xlink" x="0px" y="0px"
	 viewBox="0 0 113 114" style="enable-background:new 0 0 113 114;" xml:space="preserve">
<g>
	<g>
		<path d="M90.7,46.4c0,4.7-1.3,9.2-4.1,12.9c-3.1,4.3-6.4,8.5-10.2,12.2c-5.3,5.3-11.1,10.1-16.6,15.1c-1.8,1.6-3.4,1.7-5.2,0
			C47.3,80,39.8,73.5,32.6,66.7c-5.3-5-8.4-11.3-9-18.7c-0.7-8,2.5-14.4,9.2-18.7c7-4.3,14.3-4.2,21.3,0.1c2.3,1.4,3.7,1.5,6,0.1
			c6.8-4.1,13.9-4.5,20.8-0.4C87.6,32.9,90.7,38.8,90.7,46.4z M37.8,54.7c-0.4,9.8,7.5,18.1,17.4,18.5c9.9,0.4,18.3-7.3,18.8-17.2
			c0.5-10.2-7.4-18.7-17.4-19.1C46.5,36.6,38.2,44.4,37.8,54.7z"/>
		<path d="M55.9,37.9c9.5,0,17.1,7.6,17.2,17.1c0.1,9.6-7.6,17.3-17.2,17.4c-9.4,0-17.2-7.7-17.2-17.1
			C38.6,45.7,46.3,37.9,55.9,37.9z M61.5,59c2.7,0,5.2,0,7.7,0c0-2.9,0-5.4,0-8.2c-2.7,0-5.1,0-7.9,0c0-2.7,0-5.2,0-7.7
			c-2.9,0-5.5,0-8.3,0c0,2.7,0,5.1,0,7.9c-2.8,0-5.3,0-7.8,0c0,2.8,0,5.3,0,8.1c2.6,0,5.2,0,8,0c0,2.8,0,5.4,0,7.8
			c2.9,0,5.5,0,8.3,0C61.5,64.3,61.5,61.9,61.5,59z"/>
	</g>
</g>
</svg>
