<?xml version="1.0" encoding="utf-8"?>
<!-- Generator: Adobe Illustrator 24.1.0, SVG Export Plug-In . SVG Version: 6.00 Build 0)  -->
<svg version="1.1" id="Calque_1" xmlns="http://www.w3.org/2000/svg" xmlns:xlink="http://www.w3.org/1999/xlink" x="0px" y="0px"
	 viewBox="0 0 1920 1080" style="enable-background:new 0 0 1920 1080;" xml:space="preserve">
<style type="text/css">
	.st0{fill:#E0E6F3;}
	.st1{fill:#C6D1E8;}
	.st2{fill:#27396C;}
	.st3{fill:#A2B1D3;}
	.st4{fill:#B3C0DE;}
	.st5{fill:#E7B285;}
	.st6{fill:#202D4E;}
	.st7{fill:#DEB08C;}
	.st8{fill:#7594C7;}
	.st9{fill:#A1B0D4;}
	.st10{fill:#7694C6;}
	.st11{fill:#293A6B;}
	.st12{fill:#516EAE;}
	.st13{fill:#2A3A6A;}
	.st14{fill:#E7B083;}
	.st15{fill:#DFE4F2;}
	.st16{fill:#DEA278;}
	.st17{fill:#E1E6F3;}
	.st18{fill:#DFE5F2;}
	.st19{fill:#293F7C;}
</style>
<path class="st0" d="M991,460c2.8,0.2,5.6,0.6,8.4,0.4c8.7-0.7,17.4-1.7,26.1-2.7c2.6-0.3,5.2-0.8,7.8-1.3c0.7-0.1,1.2-0.7,1.8-1
	c1,0.5,2.1,1,3.1,1.5c4.7,2.2,9.3,4.9,14.3,6.3c9.7,2.7,19.4,3,29.4,0.5c12.8-3.3,23.2-9.8,31.6-19.9c1.4-1.7,2.7-3.6,4.1-5.4
	c0.7,0.3,1.4,1,2.2,1c5.1,0.1,10.2,0,15.3,0c-0.5,9.7,2.6,18,10.2,24.3c6.5,5.5,14.1,7.5,22.5,6.3c5.6-0.8,10.4-3.4,14.8-6.7
	c2.5,4.2,5.3,8.2,7.5,12.6c5.2,10,7.6,20.7,9.2,31.8c1.3,8.7,0.9,17.4,0.7,26.1c-0.1,6.2-1.2,12.4-2.3,18.4
	c-1.6,8.2-3.2,16.4-5.6,24.4c-3.7,12.2-8.6,24-14.9,35.1c-4.8,8.5-10.3,16.4-16.5,24c-2,2.5-4.3,4.9-6.5,7.2
	c-0.4,0.4-1.1,0.6-1.7,0.9c0.3-5.8,0-11.7,1-17.3c2.3-13,1.3-25.3-5.8-36.8c0.2-0.9,0.5-1.7,0.7-2.6c2.1-6.6,5.3-13.2,6-19.9
	c1-10.4,0.3-20.9,0-31.4c-0.1-3.3-0.9-6.8-2-10c-1.3-3.8-4-6.5-8.2-7.1c0.9-2.1,1.6-4.1-0.8-5.7c-0.5-0.3-0.5-1.2-0.8-1.8
	c-0.8-1.3-1.3-2.9-2.4-3.8c-2.3-1.7-2.8-3.5-2.3-6.2c0.7-3.4,1.1-6.9,1-10.4c-0.1-4.3-2.5-6.6-6.7-7.5c-0.9-0.2-1.8-0.7-2.5-1.3
	c-4.8-3.7-10.1-5-15.9-3.5c-3.3,0.8-4.8,3.4-4,6.7c0.5,1.9,1.4,3.7,2.1,5.5c0,0.3,0.1,0.7,0.1,1c-0.4,0.6-0.7,1.3-1.1,1.9
	c-1.6,0.4-3.7-0.9-4.6,1.5c-0.3,0.3-0.6,0.7-0.9,1c-0.3,0.4-0.6,0.7-0.9,1.1c0,0-0.1,0.1-0.1,0.1c-4.6-0.3-4.6-0.3-5.5,4.3
	c-0.2,0.8-0.3,1.6-0.5,2.4c-6.3,6.6-12.8,13-18.8,19.9c-3.7,4.2-6.9,9-8.4,14.6c-0.9,3.5,0.2,5.3,3.8,5.2c4.6-0.1,9.3-0.3,13.8-1.3
	c4.8-1.1,9.3-3.3,14.1-5c-0.7,5.5,0.6,11.1,2.8,16.4c3.4,8.3,5.8,16.8,4.2,25.9c-1.4,4.5-2.6,9-4.2,13.5c-6.3,17.4-8.3,35.4-8,53.7
	c0,0.7,0.9,1.3,1.3,2c-0.2,1.2-0.5,2.4-0.5,3.7c0.2,7.6,0.6,15.2,0.9,22.7c-1,0.2-1.9,0.5-2.9,0.8c-10.9,3.2-21.7,6.6-32.6,9.7
	c-4.6,1.3-9.3,2-14,3c0-6.9-0.2-13.8-0.1-20.6c0.1-6.9,0-13.7-2-20.4c-0.5-1.7-0.8-3.6-1.1-5.3c14.5,0,28.9-0.1,43.4-0.1
	c0.7,0,1.5,0.2,2-0.1c0.5-0.3,1.1-1.3,0.9-1.7c-1.7-3-3.3-6.1-5.4-8.8c-2.6-3.3-6.3-5-10.3-6c-1.5-0.4-2.1-1.4-2.3-2.9
	c-0.7-6.3-3.4-11.8-7.1-16.9c-1.8-2.5-3.6-4.8-5.5-7.3c0.1-0.6,0.1-1.2,0.2-2c1,0.2,1.7,0.3,3,0.5c-0.9-1.6-1.5-2.8-2.2-3.9
	c0.9,0.2,1.8,0.5,3.5,0.9c-2.8-3.2-5.3-5.9-7.7-8.6c0.2-0.2,0.3-0.5,0.5-0.7c1.1,0.3,2.3,0.6,4,1c-0.5-1.2-0.6-2.2-1.1-2.5
	c-1.6-1-3.3-1.7-5-2.5c-1.2-0.6-2.7-0.9-3.6-1.8c-1.9-2-3.5-4.4-5.2-6.6c-3.1-4-6.2-8-9.3-12c-1-1.3-1.7-2.7,0.5-3.8
	c0.6-0.3,1.2-1.7,1-2.2c-1.3-2.9-1.7-2.9-5-1.4c-0.4,0.2-0.8,0.2-1.3,0.3c-0.6-3-1.2-5.8-1.9-8.6c1-0.1,1.9-0.1,3-0.2
	c-0.6-9.4-1.7-18.4-5.1-27c-1.5-3.7-3.4-7.1-7.2-8.8c-2.5-1.9-5.4-2.5-8.5-2.4c-0.5-1.8-1-3.7-1.5-5.5c0-0.6,0-1.3-0.1-1.9
	c1.6-1,4.2-1.7,4.7-3.1c2.7-7.7,1.8-15.2-2.3-22.3c1.7-1.9,1.8-5,0.2-7.3c-1.4-2.2-3.5-2.7-5.6-1.5c-4.3,2.3-8.8,4.3-12.5,7.4
	c-6.7,5.6-6.1,14.1,0.4,19.9c1.8,1.6,2.8,4,4.2,6c-0.4,3-0.8,5.9-1.1,8.9c-2.7,0.7-5.3,1.3-8,2c-6.4,1.7-11,5.3-12.9,11.8
	c-1.3,4.5-2.1,9.2-3.1,13.8c-4.5-0.3-8.9-1-13.4-0.9c-10.9,0.1-21.2,2.5-31.1,7.2c-7,3.3-13.1,7.8-18.5,13.1
	c-5.6,5.5-10.3,11.8-13.7,19.1c-0.3,0.7-1.6,1.2-2.5,1.2c-1.6,0-3.3-0.4-4.9-0.6c-0.1-2.6-0.3-5.2-0.4-7.9c4.2-2.3,7.5-5.5,10.3-9.3
	c8.2-11.6,7.2-22.6-3.1-32.2c-3.3-3.1-6.1-6.5-7.4-10.8c-1.1-3.5-1.9-7.1-2.8-10.6c-0.9-3.4-2.1-6.5-4.8-8.9
	c-7.1-6.4-16.2-4.4-21.7-0.6c-1.1,0.8-1.9,2.1-2.4,3.4c-1.7,4.5-3.4,9-4.9,13.6c-1.7,5.1-3.2,10.3-4.8,15.4c-3.1,7-6.4,14-9.2,21.2
	c-1.7,4.4-2.4,9.2-3.6,13.9c2.9,0.6,5.9,1.3,8.8,1.9c-0.3,1.7-0.5,3.4-0.8,5.1c-1.6,10-4.2,20-3.2,30.3c-1.7,3.3-3.4,6.5-4.9,9.5
	c-3.7-1.1-7.4-2.3-11.1-3.3c-6.1-1.6-12-0.6-17.8,1.4c-9.2,3.2-15.7,9.6-20.1,18.1c-0.3,0.5-0.8,1.1-1.3,1.1c-2.8,0.4-5.6,0.7-8.3,1
	c-0.5-5-0.7-9.9-1.5-14.9c-1.3-7.8-2.9-15.5-4.3-23.2c0.1-3.4,0-6.8,0.3-10.2c0.5-6.9,1.1-13.8,1.7-20.7c0.2-1.3,0.3-2.7,0.5-4
	c0.2-1.8,0.3-3.7,0.5-5.5c0-1.3,0-2.7,0-4c0-2.9,0-5.9,0-9c0.7,0.3,1.4,0.6,2.1,0.8c4.3,1.5,8.6,3.2,12.9,4.4
	c4.6,1.3,9.4,1.2,14-0.3c2.8-0.9,4.5-3.7,3.7-6.5c-0.8-2.7-1.9-5.5-3.5-7.9c-5.3-8.1-12.5-14.6-19.6-21.1c-1.9-1.7-4-3.2-6-4.7
	c-0.4-1.8-0.5-3.7-1.3-5.3c-0.5-1-2.2-2.4-3-2.2c-2.2,0.5-3.1-0.6-4.2-2c-0.5-0.7-1.4-1.2-2-1.7c-0.8-0.5-1.5-1.8-2.5-0.2
	c-0.3,0.1-0.7,0.1-1,0.2c-0.7-1.8-1.4-3.5-2.1-5.3c2.9-3.5,3-6.7,0.9-8.9c-4.1,1-7.7,1.9-11.4,2.6c-2.4,0.5-4.8,0.6-7.1,1.1
	c-2.7,0.6-4.6,2.1-4.9,5.2c-0.1,0.8-0.8,1.6-1.3,2.2c-2.8,3-3.8,6.4-2.4,10.3c2.2,6.2,6.4,10.2,13.2,10.9c-0.8,2.3-1.6,4.5-2.4,6.8
	c-0.5,0-1,0.1-1.4,0.1c-1.6,0.1-3.1,0.3-4.7,0.4c-11.6,1.3-19.1,8.2-21.3,19.5c-1.5,7.7-1.1,15.4-0.6,23.1
	c0.8,11.5,4.1,22.2,9.7,32.2c0.4,0.7,0.6,1.5,0.8,2.3c-3.9,8.6-5.1,17.7-5.2,27c-0.2,10.5,1.2,20.9,3.1,31.3
	c0.2,0.9,0.2,2.2-0.3,2.7c-3.7,3.4-5.4,7.8-6.6,12.4c-1.8,6.5-3.3,13.1-4.9,19.6c-6.2-4.8-11-10.7-14.2-17.8
	c-4.3-9.6-5.2-19.6-3.9-29.9c0.8-6.2,1.5-12.3,2.6-18.4c1.2-7.2,2.8-14.3,4-21.4c1-6.1,1.8-12.3,2.4-18.4c0.4-4.7,0.7-9.5,0.5-14.2
	c-0.4-11.4-2.8-22.3-7.9-32.6c-4.8-9.7-9.7-19.5-14-29.4c-1.9-4.3-2.5-9.2-3.7-13.9c-1.9-7.1-2.7-14.4-2.3-21.7
	c0.5-8.7,1.8-17.2,4.7-25.5c3-8.6,7-16.7,12.5-23.8c5.2-6.6,11.4-12.5,17.6-18.2c4.2-3.8,9.1-7,14-9.8c5.1-2.9,10.7-5.2,16.2-7.3
	c5-1.9,10.3-3.1,15.4-4.6c-1.3,3.7-2.8,7.4-3.8,11.2c-2.2,7.7-3.3,15.6-2.8,23.7c0.5,9.4,2.8,18.1,6.5,26.5
	c2.8,6.3,6.4,12.1,11.1,17.2c2.6,2.7,5.1,5.4,7.9,7.9c7.1,6.4,15.3,10.9,24.3,13.8c4.8,1.5,9.8,2.6,14.7,3.1
	c5.4,0.6,11,0.9,16.4,0.3c7.6-0.9,15.1-2.7,22.1-6.1c7.1-3.5,13.8-7.6,19.6-13c8.3-7.7,14.6-16.9,18.7-27.5c3-7.9,4.5-16.1,4.8-24.5
	c0.1-3.6-0.3-7.1-0.4-10.7c3,1.7,6.3,3.1,9.1,5.2c7.9,6.1,15.6,12.4,23.4,18.6c0.6,0.5,1,1.1,1.5,1.7c-1.7,0.8-3.4,1.7-5,2.5
	c-0.7,0.3-1.3,0.7-2,1c-1.7,1-3.4,2-5,3c-0.5,0.5-1,1-1.5,1.5c-1.3,1-2.7,2-4,3.1c-0.2,0.2-0.3,0.3-0.5,0.5
	c-0.6,0.8-1.1,1.6-1.7,2.4c-1,1-2,1.9-2.8,3.1c-6.5,9.4-8.8,19.8-7,31c2.3,14.7,10.5,25.4,23.5,32c11,5.5,22.6,6.2,34.3,1.7
	c13.1-5.1,22-14.3,26.2-27.8c0.3-0.9,0.9-1.8,0.9-2.7C990.3,470.2,990.6,465.1,991,460z M689,447.2c-0.2,15.3,12.3,27.9,27.7,28.1
	c16.6,0.2,29-12.8,28.8-28.5c-0.2-15.7-12.7-28.2-28.4-28.2C702.1,418.5,688.4,431.3,689,447.2z"/>
<path class="st1" d="M900.5,398.5c0.2,3.6,0.5,7.1,0.4,10.7c-0.3,8.4-1.7,16.6-4.8,24.5c-4.1,10.7-10.4,19.8-18.7,27.5
	c-5.8,5.4-12.5,9.5-19.6,13c-7,3.5-14.5,5.2-22.1,6.1c-5.4,0.6-11,0.3-16.4-0.3c-5-0.5-10-1.6-14.7-3.1c-9-2.9-17.2-7.4-24.3-13.8
	c-2.8-2.5-5.4-5.2-7.9-7.9c-4.8-5-8.4-10.9-11.1-17.2c-3.7-8.4-6-17.2-6.5-26.5c-0.5-8.2,0.7-16,2.8-23.7c1.1-3.8,2.5-7.5,3.8-11.2
	c3.4-5.2,6.6-10.6,10.3-15.5c5.3-7.1,12.3-12.3,19.9-16.8c6.2-3.6,12.9-6.2,19.9-7.7c9.5-2.1,19.1-2.5,28.8-0.7
	c13.8,2.5,25.8,8.3,36.2,17.6c10.1,8.9,17.1,19.8,21,32.6C898.8,390.1,899.6,394.3,900.5,398.5z M828.5,348.8
	c-2.6,0.2-5.3,0.3-7.9,0.7c-9,1.3-16.8,5.4-23,11.9c-4.6,4.8-7.6,10.6-8.5,17.4c-0.6,4.8,1.7,9.6,6.1,11.5c4.7,2,9.6,0.6,12.4-3.9
	c1.4-2.2,2-4.9,3.1-7.3c1.9-4,3.4-8.2,7.3-10.8c5.7-3.7,11.9-3.9,17.9-1.7c9.6,3.5,12.9,15.3,5.4,22.9c-5.3,5.3-11,10.1-16.3,15.4
	c-6,6.1-9,13.4-8.4,22.1c0.3,4.2,2.5,7.2,6.2,8.5c4.2,1.4,8,0.7,10.4-2.5c1.2-1.6,1.6-3.7,2.4-5.7c1.2-3.2,1.7-7.1,3.8-9.6
	c4.3-5,9.4-9.4,14.3-13.8c7.6-6.9,13.6-14.5,12.9-25.6c-0.6-9.3-4.9-16.3-12-21.7C846.9,350.9,837.9,348.9,828.5,348.8z
	 M838.5,454.8c0-6.6-5-11.9-11.6-11.7c-6.7,0.2-11.7,4.7-11.8,11.3c-0.2,6.9,4.9,12.1,11.5,12.1
	C833.5,466.4,838.5,461.6,838.5,454.8z"/>
<path class="st1" d="M1177.8,714.6c6.5,1.3,13,2.5,19.5,3.8c0.9,0.2,1.8,0.6,2.5,1c0.8,0.5,1.4,1.2,2.1,1.9
	c-0.7,0.7-1.3,1.9-2.2,2.2c-3.5,1.1-7.1,2.3-10.8,2.9c-9.2,1.4-18.4,2.6-27.6,3.5c-8.7,0.9-17.3,1.5-26,2.1
	c-8.4,0.6-16.7,1.1-25.1,1.5c-7.5,0.4-15.1,0.7-22.6,1c-9.5,0.4-19.1,0.7-28.6,1c-13.7,0.4-27.4,0.7-41.1,1
	c-10.1,0.2-20.1,0.4-30.2,0.5c-26.1,0.2-52.3,0.4-78.4,0.4c-11.9,0-23.8-0.3-35.7-0.5c-8.1-0.1-16.1-0.3-24.2-0.5
	c-10.9-0.3-21.8-0.6-32.6-1c-8-0.3-15.9-0.6-23.9-1c-9.6-0.5-19.2-0.9-28.8-1.5c-8.9-0.6-17.7-1.2-26.5-2
	c-14.3-1.3-28.7-2.3-42.8-5.5c-2-0.5-4-1.1-5.9-2c-0.8-0.4-2-1.5-1.9-2.1c0.1-0.8,1.2-1.9,2.1-2.1c3.2-1.1,6.5-2,9.8-2.7
	c4.3-0.8,8.7-1.4,13-2c-2,3-2.1,4.1,0.1,5c5.5,2.4,11.2,4.3,17.3,3.5c1.8-0.2,4.1-0.4,4-2.8c-0.1-2.3-2.5-1.7-3.9-2.2
	c-2.5-0.9-5.1-1.7-7.6-2.6c0-0.7,0-1.3,0-2c5.9-0.5,11.7-1.1,17.6-1.5c9.1-0.7,18.2-1.3,27.3-2c0.7,0.4,1.4,0.7,2.1,1.1
	c-0.1,1.2-0.3,2.3-0.4,3.5c-0.4,0.8-0.9,1.6-1.2,2.4c-0.9,2.3-0.3,3.6,2.1,3.6c6.6-0.1,13.1-0.5,19.7-0.9c0.6,0,1.2-1.1,1.8-1.6
	c-0.7-0.5-1.3-1.2-2.1-1.4c-3.7-1.1-7.5-2.1-11.2-3.1c-0.5-1.2-1-2.3-1.6-3.5c0.5-0.6,0.9-1.2,1.4-1.8c0.6,0.4,1.2,1,1.9,1
	c1.9,0,3.8-0.2,5.7-0.3c8.9-0.3,17.8-0.6,26.8-0.9c-1.2,1.7-2.3,3.5-3.5,5.2c-1,1.5-2,2.9-3.1,4.3c-2.3,1.1-4.6,2.3-5.4,5.4
	c2.4,0,4.4-0.2,6.5,0c3.7,0.4,6-1.2,7.3-4.5c0.7-1.7,1.8-2.9,4-3.2c0,2.4,0,4.6,0,7.4c1.2-0.5,2.4-0.7,2.5-1.2
	c0.8-4.3,3.9-8.3,1.8-13c0.7-0.3,1.3-1,2-1c8.7-0.4,17.3-0.8,26-1c6.7-0.2,13.4,0,20.1,0c-0.3,3.2-0.6,6.4-1,9.5
	c-0.2,1.3-0.3,2.6-0.5,3.9c-0.4,2,0.5,2.9,2.4,3.1c6.9,0.6,7.6-0.4,6.2-6.8c-0.1-3.4-1.1-6.9,0.5-10.2c16.7-0.2,33.3-0.4,50-0.5
	c23.8,0.2,47.6,0.3,71.4,0.5c1.6,0,2.7-0.2,2.9-2c0.2,2.5,0.4,5.1,0.6,7.6c-0.1,1.7-0.2,3.4-0.3,5.1c-0.6,2.3-1.1,4.7-1.7,7
	c10.3,1.4,25.2,1.1,28.5-0.6c-4.6-3.3-9.8-4.8-14.8-6.6c-0.6-1.6-3.1-2.5-1.8-4.8c1.7,0.1,2.3-0.7,2.2-2.4c0-1.1,0.2-2.3,0.3-3.4
	c6.8,0.2,13.5,0.3,20.3,0.6c0.9,0,1.8,0.3,2.7,0.4c0.4,1.2,0.8,2.4,1.3,3.6c-0.1,1.7-0.3,3.3-0.4,5c-0.5,2.5-1,4.9-1.5,7.8
	c9.6,0.1,18.6,0.9,27.5-1.5c-4.4-3.3-9.3-5.3-14.6-6.4c-0.5-1.8-1-3.6-1.5-5.3c2.6,0.2,1.5-1.9,1.9-3.1c6,0.2,11.9,0.3,17.9,0.5
	c6.4,0.2,12.7,0.3,19.1,0.5c4.2,0.1,8.4,0.4,12.6,0.6c-1.1,2.3-2.1,4.6-3.2,6.9c-3.7,1.5-7.3,3-11,4.6c-0.3,0.1-0.3,0.8-0.6,1.6
	c3.8,0.5,7.3,0.8,10.8,1.5c2.5,0.5,4-0.4,5.3-2.6c1.1-1.7,2.6-3.2,3.9-4.8c0.2,0.1,0.4,0.3,0.6,0.4c0.1,2.4,0.3,4.7,0.4,7.1
	c2.7-4.5,3.1-9.3,2.5-14.2c6.4,0.3,12.7,0.6,19.1,1c3.1,0.2,6.1,0.3,9.2,0.5c7.4,0.6,14.8,1.2,22.2,2c1.9,0.2,3.8,0.8,5.7,1.3
	c-0.7,3-2.6,5.1-5,6.9c-1.1,0.8-2.6,1.7-1.6,3.8c2.5-0.8,4.9-1.8,7.3-2.4c4-1,7-2.8,6.8-7.6c1.3,0,2.6,0,3.9,0
	c0.5,0.7,1.1,1.3,1.9,2.4C1177.8,715.7,1177.8,715.2,1177.8,714.6z"/>
<path class="st1" d="M1117.5,438.5c-1.3,1.8-2.6,3.6-4.1,5.4c-8.3,10.1-18.8,16.6-31.6,19.9c-10,2.6-19.7,2.2-29.4-0.5
	c-5-1.4-9.5-4.2-14.3-6.3c-1.1-0.5-2.1-1-3.1-1.5c-3-2.7-6.2-5.3-9-8.2c-8.9-9.1-14-20-15.6-32.6c-2.1-17.1,2.5-32.4,13.7-45.3
	c9.2-10.7,21.1-17.2,35.3-19.4c12-1.8,23.5-0.1,34.4,5.2c10.7,5.2,19.1,13.1,25,23.5c3.3,5.8,5.5,12,6.7,18.6
	c1.5,8.1,1.5,16.3-0.9,24.1C1122.9,427.2,1119.9,432.8,1117.5,438.5z M1099.1,386.3c0.1-9.5-4-15.7-10.6-20.3
	c-10.9-7.5-28.6-7.4-39.4,0.4c-6.6,4.8-11.4,10.9-11.6,19.6c-0.1,3.8,2,6.7,5.4,7.7c3.8,1.2,7.1,0,9.2-3.5c0.8-1.4,1.3-3,1.9-4.6
	c3.9-10.8,10.9-14.3,20.9-10.7c6.8,2.4,9.5,10.7,5.1,16.4c-3.2,4-7.1,7.5-11,10.8c-5.6,4.8-9.4,10.3-9.9,18
	c-0.3,4.2,1.3,8.1,4.9,9.4c4.9,1.8,8.8-0.6,10.4-6.4c0.8-2.7,1.4-5.7,3.1-7.7c3.3-4,7.3-7.5,11.2-11
	C1094.6,399.2,1099.2,393.5,1099.1,386.3z M1067.4,454c5.4,0,9.6-3.9,9.6-9c0-5.1-4.4-9.5-9.5-9.5c-5.2,0-9.4,4.1-9.4,9.2
	C1058,450.2,1061.8,454,1067.4,454z"/>
<path class="st2" d="M768.5,711.1c-0.7-0.4-1.4-0.7-2.1-1.1c-0.3-2.3-0.6-4.6-0.8-7c-0.6-5.9-1.3-11.7-1.8-17.6
	c-1-11.8-2.5-23.7-0.7-35.6c0.1-0.8-0.2-1.8-0.5-2.6c-2.8-8.2-5.7-16.3-8.6-24.5c-0.6-1.6-1-3.2-1.4-4.9c-0.6,2-0.8,4-1.1,5.9
	c-1.7,15.1-4,30-10.3,44c-3.7,8.3-6.8,16.8-10.2,25.2c-2.4,5.5-4.8,11.1-7.3,16.5c-0.4,0.8-1.4,1.4-2.1,2c-2.3-0.5-4.7-0.9-7-1.4
	c-1.3-0.4-1.4-1.2-1.2-2.5c1.5-8,2.9-16.1,4.3-24.1c1.6-6.5,3.1-13.1,4.9-19.6c1.3-4.6,3-9,6.6-12.4c0.5-0.5,0.5-1.8,0.3-2.7
	c-1.9-10.3-3.3-20.7-3.1-31.3c0.1-9.3,1.3-18.4,5.2-27c0.6,0.7,1.2,1.3,1.7,2c1.8,2.7,3.5,5.4,5.2,8.1c0.2,1.4,0,3.1,0.8,4
	c1.9,2.4,0.5,3.9-0.8,5.6c-0.3,0.5-0.8,1.2-0.6,1.7c0.8,2.5,3.6,4.8,6.3,2.2c2.9-2.7,4.8-5.9,3.7-10.2c-0.6-2.3-1.2-4.7-1.8-7
	c-0.5-2.6-0.9-5.2-1.4-7.8c0.6-0.1,1.2-0.1,1.9-0.2c1,0.2,1.9,0.5,2.9,0.5c8.2-0.5,16.4-1,24.7-1.5c1.5,7.7,3.1,15.4,4.3,23.2
	c0.8,4.9,1,9.9,1.5,14.9c0.3,5.5,0.5,11,0.8,16.5c0,0.4-0.1,0.8-0.1,1.2c-0.3,11.8-0.5,23.6-1.1,35.4c-0.4,8.1-1.4,16.2-2.2,24.4
	c-0.2,1.6-0.4,3.2-0.6,4.8c-0.5,0.6-0.9,1.2-1.4,1.8C773.1,710.4,770.8,710.7,768.5,711.1z"/>
<path class="st2" d="M1147.6,589.9c7.1,11.4,8.1,23.8,5.8,36.8c-1,5.7-0.7,11.5-1,17.3c0,2.1-1.8,1.9-3,2.5
	c-4.5,1.1-8.9,2.2-13.4,3.3c-7.9,1.3-15.9,2-24,1.4c-4.3-0.7-8.6-1.4-13-2.1c-0.5-0.7-1.3-1.3-1.3-2c-0.3-18.3,1.8-36.4,8-53.7
	c1.6-4.4,2.8-9,4.2-13.5c2.1,0.7,4.2,2,6.3,2c4.9,0.1,9.9-0.3,14.8-0.7c2.3-0.2,4.5-0.8,7.3-1.4c-0.8,3.5-1.5,6.5-2,9.6
	c-0.5,3-0.9,6.1-1.3,9.2c-0.5,2.3-1,4.5-1.4,6.8c-0.4,2.7,1.7,6.8,4.1,7.6c1,0.3,2.5-0.2,3.4-0.9c1.1-0.8,1.2-2,0.1-3.2
	c-0.6-0.7-1.3-1.8-1.2-2.6c0.2-1.9,0.9-3.8,1.4-5.6c0.7-1.1,1.4-2.1,2.1-3.3C1144.9,594.9,1146.2,592.4,1147.6,589.9z"/>
<path class="st3" d="M1182.4,463.4c-4.4,3.4-9.2,6-14.8,6.7c-8.4,1.2-16-0.9-22.5-6.3c-7.5-6.3-10.7-14.6-10.2-24.3
	c0.9-11.2,9.2-21.3,19.8-24.5c16.5-5,32.6,4.9,36.3,20.9c2.2,9.4-0.3,17.8-6.5,25.1C1183.9,461.9,1183.2,462.6,1182.4,463.4z
	 M1163.8,419.5c-0.8,0-1.7,0-2.5,0c-6.4,0.4-11.9,5.4-12.9,11.3c-0.4,2.2,0.4,3.8,2.4,4.6c2.2,0.8,4.1-0.1,5.1-2.3
	c0.7-1.5,1.3-3.1,2.1-4.5c2.1-3.2,7.2-3.8,10.1-1.2c2,1.8,2.6,4.2,1.1,6.5c-0.9,1.4-2.3,2.6-3.5,3.8c-3.4,3.2-7.1,6.2-6.8,11.6
	c0.1,2.1,0.9,3.5,3.1,3.8c2.1,0.2,3.6-0.4,4-2.7c0.6-3.7,3.1-6.1,5.9-8.4c1.3-1.1,2.5-2.2,3.6-3.4c3.1-3.4,3.8-7.9,1.7-12
	C1174.5,421,1169.5,419.4,1163.8,419.5z M1167.5,460.4c0-2.8-1.7-4.4-4.5-4.4c-2.8,0-4.5,1.7-4.5,4.5c0,2.6,1.9,4.5,4.5,4.5
	C1165.5,465,1167.5,462.9,1167.5,460.4z"/>
<path class="st4" d="M967.7,412c-15,0.3-28.2-12.1-28.2-28.4c0-15.3,13.1-28.4,28.8-28.2c14.7,0.2,28.1,12,28.1,28.4
	C996.4,399.6,983.2,412.5,967.7,412z M983,372.7c-0.2-3.2-1.5-6.1-4.2-8.3c-4.8-3.9-10.4-4.2-16.1-2.7c-5.7,1.5-9.8,6.6-9.9,11.5
	c0,2.3,1.1,3.8,3.2,4.1c2,0.3,3.7-0.6,4.5-2.7c0.5-1.3,1-2.7,1.7-3.9c1.8-3.2,6.5-4.3,9.6-2.5c3,1.7,3.7,5.8,1.3,8.4
	c-1.4,1.5-3,2.8-4.6,4.2c-3.2,2.8-5.4,6.1-5,10.6c0.2,2,1.4,3.4,3.3,3.5c1.8,0.1,3.2-0.6,3.9-2.7c0.7-2.2,1.9-4.4,3.4-6.2
	c1.7-2.1,3.9-3.8,6-5.6C982.2,378.3,982.8,375.7,983,372.7z M967.5,406.5c2.8,0,4.5-1.6,4.5-4.4c0-2.5-2.1-4.6-4.6-4.6
	c-2.6,0-4.4,2-4.5,4.6C962.9,404.9,964.6,406.5,967.5,406.5z"/>
<path class="st5" d="M1136,649.8c4.5-1.1,8.9-2.2,13.4-3.3c-0.7,2.3,0.6,3.7,2,5.3c4.2,4.6,6.2,10.3,8.1,16.1c3.6,11,7.3,22,11.1,33
	c0.3,0.8,1,1.4,1.5,2.1c-1,4.6-1.3,9.6-5,13.3c-0.8-1.1-1.4-1.9-2-2.6c1.2-4.2,1.8-8.4-0.4-12.3c-8.5-15-17.1-30-25.7-45
	C1138,654.3,1137,652.1,1136,649.8z"/>
<path class="st3" d="M929.5,426.5c1.7-0.8,3.4-1.7,5-2.5c4.7-0.6,9.4-1.9,14-1.8c15.2,0.5,27.1,7,35.6,19.9c3.7,5.6,5.5,11.6,6.8,18
	c-0.3,5.1-0.6,10.2-1,15.2c-0.1,0.9-0.6,1.8-0.9,2.7c0-1.6,0-3.2,0-5c-0.5,0-1.1,0.1-1.3,0.1c-0.4,1.7-0.7,3.1-1.1,4.4
	c-0.2,0.6-0.8,1.1-1.3,1.7c-0.3-0.7-0.7-1.5-0.7-2.2c0-1.3,0.3-2.6,0.2-3.9c-0.2-4.6-0.4-9.2-0.7-13.8c-0.1-2.5-0.2-5-0.4-7.5
	c-0.1-1.2-0.6-2.4,1.3-2.4c0.5,3,1,5.9,1.6,8.9c0.1,0.4,1.1,1,1.6,0.9c0.5-0.1,1.1-1.1,1-1.5c-0.5-2.1-1-4.3-1.8-6.3
	c-0.4-0.8-1.6-1.3-2.4-1.9c-0.1-1.6-0.2-3.2-0.3-5.3c-3.2,1.8-6.7-0.7-9.6,1.6c-0.2,0.2-1-0.2-1.5-0.5c-1.3-0.7-2-0.1-2,1.1
	c-0.1,1.8-0.2,3.7,0.1,5.5c0.6,3.8-0.3,5.4-4.2,7c0.3-0.5,0.5-1,0.8-1.5c2.5-3.9,3.1-8.1,1.9-12.5c-0.6-2.2-1.8-4.2-2.7-6.3
	c1.2-0.3,2.5-0.3,3.5-0.9c3.7-2.1,5-1.6,6.3,2.4c0.8,2.7,2.4,3.4,5.3,2.4c-1.7-2.4-3-5-5-6.9c-2.4-2.3-5.2-4.2-8-6.1
	c-0.8-0.5-2.5-1-2.7-0.8c-1,1.5-3,2.6-2.3,4.8c0.1,0.4,0.4,0.9,0.7,0.9c2.7,0.5,2.2,2.4,2.1,4.2c-2.1-1.6-3.9-3.7-6.3-4.9
	c-8.6-4.3-17.2-4.4-25.8,0.1c-1.8,1-3.5,2.2-5.2,3.3c-1.1-1-0.7-1.7,0.4-2.3c3.1-1.8,3.2-2.3-0.3-4.7c1.3-0.3,2.2-0.3,3-0.7
	c0.7-0.4,1.2-1.2,1.7-1.8c-0.6-0.4-1.3-1-1.9-1.1C931.8,426.4,930.6,426.5,929.5,426.5z"/>
<path class="st6" d="M1165.1,713.8c0.6,0.8,1.2,1.5,2,2.6c3.7-3.8,4-8.7,5-13.3c0.7,0.4,1.8,0.6,2.1,1.1c1.3,3.4,2.5,6.9,3.7,10.4
	c0,0.6,0,1.1,0,2.3c-0.8-1.1-1.4-1.7-1.9-2.4c-0.7-1.4-1.4-2.8-2.1-4.2c-0.3,0-0.5,0.1-0.8,0.1c-0.3,1.4-0.7,2.8-1,4.2
	c0.3,4.8-2.7,6.6-6.8,7.6c-2.5,0.6-4.8,1.6-7.3,2.4c-1-2.1,0.4-2.9,1.6-3.8c2.4-1.8,4.3-3.8,5-6.9
	C1164.7,713.8,1164.9,713.8,1165.1,713.8z"/>
<path class="st6" d="M721.5,715.5c2.5,0.9,5.1,1.7,7.6,2.6c1.5,0.5,3.9-0.1,3.9,2.2c0.1,2.4-2.2,2.6-4,2.8
	c-6.2,0.8-11.8-1.1-17.3-3.5c-2.3-1-2.2-2-0.1-5c0.6-0.1,1.3-0.2,1.9-0.3C715.9,715.9,718.6,716.2,721.5,715.5z"/>
<path class="st7" d="M721.5,715.5c-2.9,0.7-5.6,0.4-8.1-1.3c0.4-1.3,0.7-2.7,1.1-4c2.3,0.5,4.7,0.9,7,1.4c0,0.7,0,1.3,0,2
	C721.5,714.2,721.5,714.8,721.5,715.5z"/>
<path class="st2" d="M997.5,642.5c-0.8-8.2-1.6-16.3-2.3-24.5c-0.7-8.5-1.7-17,0.2-25.5c13.2,0,26.5,0.3,39.5-2.5
	c0.1,0.2,0.3,0.5,0.4,0.7c0.2,1.2,0.4,2.5,0.7,3.7c3.6,16.1,7.1,32.1,10.7,48.2c0.4,1.8,0.6,3.6,1.1,5.3c1.9,6.7,2.1,13.5,2,20.4
	c-0.1,6.9,0,13.8,0.1,20.6c0,6,0,12,0,18c-0.4,1.1,0.7,3.3-1.9,3.1c-3.2,0.2-6.3,0.3-9.5,0.5c-0.4-1.2-0.8-2.4-1.3-3.6
	c-0.6-4.8-1.2-9.6-1.8-14.4c-1-8.8-2.3-17.6-3-26.5c-0.7-8.4-4.3-15.6-7.5-23c-1.9-4.7-3.8-9.4-5.7-14.1c-0.2,0-0.4,0.1-0.6,0.1
	c-0.2,4.7-0.4,9.3-0.7,14c-0.2,4.2-0.4,8.5-0.6,12.7c-0.7,13.4-1.5,26.9-2.3,40.3c-0.2,3.3-0.5,6.6-0.7,10c-0.1,1.1-0.4,2.3-0.3,3.4
	c0.1,1.6-0.5,2.5-2.2,2.4c-3.3,0-6.6-0.1-9.9-0.1c-0.2-2.5-0.4-5.1-0.6-7.6c-0.1-1.2-0.2-2.3-0.3-3.5c0-0.2,0-0.3,0-0.5
	c0-0.7-0.1-1.3-0.1-2c0-0.5,0-1,0-1.5c-0.5-11.5-1-22.9-1.6-34.4C998.9,655.6,998.1,649,997.5,642.5z"/>
<path class="st8" d="M1147.6,589.9c-1.3,2.5-2.6,5-4,7.5c-0.6,1.1-1.4,2.2-2.1,3.3c-1.6-2.4-4.1-2-6.5-2.1c0.4-3.1,0.8-6.1,1.3-9.2
	c0.5-3.1,1.3-6.1,2-9.6c-2.8,0.6-5,1.2-7.3,1.4c-4.9,0.4-9.9,0.8-14.8,0.7c-2.1,0-4.2-1.3-6.3-2c1.7-9.1-0.8-17.6-4.2-25.9
	c-2.2-5.4-3.5-10.9-2.8-16.4c-4.8,1.7-9.3,3.9-14.1,5c-4.5,1-9.2,1.2-13.8,1.3c-3.6,0.1-4.7-1.7-3.8-5.2c1.5-5.6,4.6-10.4,8.4-14.6
	c6.1-6.8,12.5-13.3,18.8-19.9c1.5,1.1,2.9,2.1,4.4,3.2c-0.6,2.1-1.2,4.2-2,6.3c-1.2,3.1-2.6,6.2-4,9.2l0,0c0,0.1-0.1,0.3-0.1,0.4
	c-2.3,2.9-4.6,5.7-6.9,8.6c0,0.1-0.1,0.1-0.1,0.2c0-0.1,0.1-0.1,0.1-0.2c0.5-0.1,1.3-0.1,1.6-0.5c3.3-3.6,6.6-7.2,9.9-10.8
	c2.2-1.1,4.3-2.2,6.5-3.3c1.8,0.7,3.5,0.9,5-0.6c0.6,0.9,1.5,1.8,1.9,2.8c0.9,2.5,2.8,2.5,4.9,2.1c3.8-0.7,7.2-2.4,9.6-5.6
	c0.6,0.5,1.2,0.9,1.7,1.4c2.7,2.5,5.7,3.5,9.3,2.2c1.2-0.4,2.6-0.6,3.8-0.8c4.2,0.6,6.9,3.3,8.2,7.1c1.1,3.2,1.9,6.6,2,10
	c0.3,10.5,0.9,21,0,31.4c-0.6,6.8-3.9,13.3-6,19.9C1148,588.2,1147.8,589,1147.6,589.9z M1142.5,559.2c-0.4-3-0.8-5.9-1.1-8.9
	c-3.3,9.3-3.8,18.8-3.2,28.4c0.3,0.1,0.6,0.1,0.8,0.2c0.3-1.8,0.6-3.5,1-5.3c2-3.9,4.5-7.7,2.6-12.4
	C1142.4,560.6,1142.5,559.9,1142.5,559.2z"/>
<path class="st9" d="M967.4,458.9c3.9-1.6,4.7-3.1,4.2-7c-0.3-1.8-0.2-3.6-0.1-5.5c0.1-1.3,0.8-1.8,2-1.1c0.5,0.2,1.3,0.7,1.5,0.5
	c3-2.3,6.5,0.3,9.6-1.6c0.1,2.1,0.2,3.7,0.3,5.3v0c-2,0-1.4,1.2-1.3,2.4c0.2,2.5,0.3,5,0.4,7.5c0.2,4.6,0.5,9.2,0.7,13.8
	c0,1.3-0.3,2.6-0.2,3.9c0,0.7,0.5,1.5,0.7,2.2c0.4-0.6,1-1.1,1.3-1.7c0.5-1.3,0.7-2.8,1.1-4.4c0.2,0,0.8-0.1,1.3-0.1
	c0,1.7,0,3.4,0,5c-4.2,13.5-13,22.7-26.2,27.8c-11.7,4.5-23.3,3.8-34.3-1.7c-13.1-6.6-21.3-17.3-23.5-32c-1.7-11.2,0.5-21.6,7-31
	c0.8-1.1,1.9-2.1,2.8-3.1c0.6-0.8,1.1-1.6,1.7-2.4c0.2-0.2,0.3-0.3,0.5-0.5c1.3-1,2.7-2,4-3.1c0.5-0.5,1-1,1.5-1.5
	c1.4,0.5,4.3-1.2,5-3c0.7-0.3,1.3-0.7,2-1c1.2,0,2.4-0.1,3.5,0.1c0.7,0.1,1.3,0.7,1.9,1.1c-0.6,0.6-1,1.4-1.7,1.8
	c-0.8,0.4-1.7,0.4-3,0.7c3.4,2.4,3.4,2.9,0.3,4.7c-1.1,0.6-1.4,1.3-0.4,2.3c-2.2,3.5-4.8,6.9-5.3,11.3c-0.3,2.9,1.1,5.8,3.8,6.8
	c2.8,1.1,5.8,0.1,7.3-2.6c0.7-1.2,1-2.6,1.6-3.9c1.2-2.6,2-5.5,5-6.8c0.7,0.1,1.4,0.5,2,0.3c2.5-1,4.7-1.1,7.1,0.7
	c1.2,0.9,3,1.1,4.6,1.6c0,0,0,0,0,0c0.2,0.9,0.4,1.7,0.7,2.6c0.9,2.7-0.5,5.7-2.9,7c-2.6,1.4-4.1,3.7-4.9,6.5c0,0,0,0,0,0
	c-0.7-0.3-1.4-0.7-2.2-0.8c-1.3-0.2-2.9-0.8-3.8-0.2c-0.9,0.6-1.8,2.9-1.4,3.5c1.2,1.5,0.7,3.1,0.9,4.6c0,0,0,0,0,0
	c-0.8-0.3-1.5-0.6-2.3-0.9c-2.4-0.9-5.3-0.1-5.3,1.6c0,3.5,0.3,6.9,0.5,10.4c0,0.4,0.7,0.8,1,1.1c0.3-0.4,0.8-0.9,0.8-1.3
	c0.1-1.2-0.1-2.5,0.1-3.7c0.1-0.8,0.8-1.4,1.2-2.2c0.4,0.7,0.9,1.4,1.2,2.1c0.2,0.7,0.1,1.5,0,2.2c-0.1,3,2,5.6,4.9,5.9
	c0.3,0,0.7-0.4,1.1-0.7c0.5,0,1,0,1.5,0c0.7,0.4,1.9,1.2,2.1,1.1c0.8-0.8,1.3-1.9,1.9-2.9l0,0c1.3-2.1,2.6-4.2,4.1-6.2
	c1.2-1.7,0.7-4.3,3.2-5.2c0.7-0.3,1.4-1.1,1.8-1.8c0.9-1.5,1.7-2.9,3.9-1.7c0.8,0.4,1.9,0.3,2.7,0.5c-0.8-1.7-1.5-3.1-2.1-4.5
	c0.2-0.2,0.3-0.3,0.5-0.5C967.1,461.2,967.8,460.5,967.4,458.9L967.4,458.9z M947.3,486.5c-4.2,0-7.1,2.8-7.2,6.9
	c0,3.7,3,6.6,6.9,6.7c4.4,0,7.1-2.6,7.1-6.9C954,489.3,951.2,486.5,947.3,486.5z M975.9,452.1c-0.3,0.1-0.6,0.2-0.9,0.4
	c0.3,0.6,0.5,1.3,0.8,1.9c0.2-0.1,0.5-0.2,0.8-0.3C976.3,453.4,976.1,452.8,975.9,452.1z"/>
<path class="st8" d="M738.4,600.6c-1.7-2.7-3.4-5.4-5.2-8.1c-0.5-0.7-1.1-1.4-1.7-2c-0.3-0.8-0.5-1.6-0.8-2.3
	c-5.6-10-9-20.7-9.7-32.2c-0.5-7.7-0.9-15.4,0.6-23.1c2.2-11.3,9.8-18.2,21.3-19.5c1.6-0.2,3.1-0.3,4.7-0.4c0.1,0.4,0,0.9,0.2,1.2
	c2.9,5,7.9,6.2,12.9,6.3c3,0.1,4.1-3.6,5.4-6.2c0.2-0.4,0.3-0.9,0.5-1.4c2.3,0.8,4.7,1.6,7,2.5c0.7,0.3,1.4,0.7,2,1l0,0
	c0.2,0.2,0.4,0.4,0.5,0.5l0,0c3.9,3.6,7.8,7.1,12,11c-0.3-0.7-0.4-0.9-0.5-1.2c-1.5-2.5-3-5.1-4.5-7.6c-0.1-0.1-0.5-0.1-0.7-0.1
	c-2.2-4.2-4.5-8.5-6.7-12.7c-0.4-0.8-0.3-1.9-0.4-2.9c1.8-1.4,3.5-2.8,5.3-4.3c2,1.6,4.2,3,6,4.7c7.1,6.5,14.3,13,19.6,21.1
	c1.6,2.4,2.6,5.2,3.5,7.9c0.9,2.8-0.9,5.6-3.7,6.5c-4.6,1.5-9.4,1.6-14,0.3c-4.4-1.2-8.6-2.9-12.9-4.4c-0.7-0.2-1.3-0.5-2.1-0.8
	c0,3.1,0,6.1,0,9c-1.5,0.5-3,1.1-4.5,1.5c-10.4,2.8-21.1,3.2-31.8,3.1c-1.4,0-2.2-0.4-2.3-1.9c-0.1-1.2-0.6-2.5-0.9-3.7
	c-0.2,0-0.4,0.1-0.6,0.1c0.2,1.9,0.6,3.9,0.5,5.8c-0.2,4.1-0.7,8.2-0.8,12.4c0,2.1,0.3,4.3,0.9,6.3c2.3,7.4,4.7,14.8,7.1,22.2
	c0.5,2.6,0.9,5.2,1.4,7.8c-1.2,0-2.3-0.1-3.5,0.1C740.5,597.4,738.7,598.2,738.4,600.6z"/>
<path class="st4" d="M689,447.2c-0.6-16,13.1-28.7,28.1-28.7c15.7,0,28.3,12.6,28.4,28.2c0.2,15.7-12.2,28.8-28.8,28.5
	C701.3,475.1,688.7,462.5,689,447.2z M713,453.5c0,2.9,0.7,4.1,3.1,4.4c2.1,0.3,3.2-0.8,4.2-3.5c0.8-2,1.8-3.9,3.2-5.5
	c1.7-2,3.9-3.6,5.8-5.5c4.2-4.3,4.1-10.6-0.1-15c-2.6-2.7-5.9-3.9-9.6-4.3c-7.6-0.9-16.1,3.3-17.3,11.1c-0.4,2.3,0.9,4.6,2.9,5.1
	c2,0.5,4-0.7,4.9-2.9c0.3-0.8,0.6-1.6,0.9-2.3c1.3-3.5,4.2-5.2,7.8-4.6c4.6,0.7,6.8,5.4,4,8.9c-1.2,1.5-2.8,2.8-4.3,4.1
	C715.5,446.1,712.8,448.9,713,453.5z M716.9,469.5c3,0,4.7-1.7,4.6-4.6c-0.1-2.3-2.2-4.3-4.6-4.4c-2.2-0.1-4.8,2.4-4.7,4.6
	C712.2,467.2,714,470,716.9,469.5z"/>
<path class="st10" d="M838.7,560.7c1.2-4.6,1.9-9.4,3.6-13.9c2.7-7.2,6.1-14.1,9.2-21.2c2.2-0.9,4.3-2,6.6-2.5
	c2.2-0.5,4.6-0.2,6.9-0.3c3.9,0,7.9,0,11.8,0c3.7,0.6,7.4,0.9,11,1.8c4.3,1.1,5.5,2.8,5.3,7.2c-0.3,4.7-1,9.4-1.6,14.1
	c-0.4,0.6-0.8,1.1-1.1,1.7c-2.7,6.6-5.4,13.1-8.1,19.7c-0.8,2-2.2,2.8-4.3,1.7c-1-1.3-2.6-2.4-2.9-3.8c-0.8-3.5-1-7.2-1.5-10.8
	c0.2-2.9,0.4-5.8,0.6-8.6c-0.4-0.1-0.8-0.2-1.2-0.2c-1,2.6-2,5.3-3,7.9c-2.1,0.2-4.2,0.4-6.4,0.5c-2.9,0.1-5.9,0.3-8.8,0
	c-1.7-0.2-3.2-1.5-4.8-2.3c-0.2-5.5,0.2-10.9,3.1-16.2c-3.7,1.2-8.1,12.3-8,19C842.9,556.6,840.8,558.6,838.7,560.7z"/>
<path class="st10" d="M993.5,508.9c2.7-0.7,5.3-1.3,8-2c1.7,3.1,3.2,6.3,5.1,9.3c1.1,1.7,2.7,3.2,4.2,4.4c2.3,1.8,3.6,1.3,4.6-1.4
	c0.3-0.8,0.5-1.8,0.5-2.7c-0.2-3.4-0.5-6.7-0.8-10.1c3.1-0.1,5.9,0.6,8.5,2.4c0.2,0.5,0.3,0.9,0.5,1.3c0.9,1.8,2.5,3.5,2.8,5.4
	c1.1,6.5,1.8,13,2.7,19.5c0.4,3.1,1,6.3,1.6,9.4c0.1,2.4,0.1,4.8,0.4,7.2c0.4,3.4-0.4,4.3-3.6,3.3c-0.5-0.2-0.8-0.6-1.3-1
	c0.4-0.4,0.7-0.8,1.2-1c0.5-0.3,1-0.5,2.1-0.9c-2.8-1.5-4.9-1.5-7.1-0.2c-2.1,1.3-4,3.7-6.2,3.9c-7.3,0.7-14.7,0.8-22.1,1
	c-0.9-3.8-1.7-7.5-2.6-11.3c0.9-3.3-0.3-7,1.9-10.1c1-1.4,1.8-3,2.3-4.6c2.4-7.3,3.3-14.4-2.4-20.8
	C993.6,509.7,993.6,509.3,993.5,508.9z"/>
<path class="st8" d="M844.8,600.1c-0.4-0.7-0.9-1.4-1.3-2.1c-1-10.3,1.5-20.2,3.2-30.3c0.3-1.7,0.5-3.4,0.8-5.2
	c3.3-0.4,6.7-0.8,10-1.1c4,1.9,8,3.7,12,5.6c2.5,5.2,5.4,10.2,9.9,14c4.4,3.7,9.2,6.5,15.1,6.4c0.1,2.2,0.5,4.5,0.3,6.7
	c-0.1,1.8-0.9,3.6-1.4,5.4c-4.3,1.1-8.6,2.2-12.9,3.3c-1-0.1-2-0.2-3-0.2c-6.7-0.3-13.4-0.5-20.1-1
	C853.2,601.3,849,600.6,844.8,600.1z"/>
<path class="st11" d="M891.5,546c0.6-4.7,1.3-9.4,1.6-14.1c0.2-4.4-1-6.1-5.3-7.2c-3.6-0.9-7.3-1.2-11-1.8c-0.4-3.4-1.6-6.8,1.2-9.9
	c0.6-0.7,0.8-1.9,0.8-2.8c0-0.7-0.6-1.9-1.2-2.1c-4-1.3-6.2-4.3-7.6-8c-0.6-1.7-1.2-3.3-1.8-5.1c-4.8,2-5.5,6.8-7.3,10.4
	c-1.3,2.6-0.2,6.5,0.5,9.7c0.2,1.1,2.3,1.9,3.6,2.9c0,0.3,0.1,0.7,0.1,1c0,1.3,0,2.6,0,3.9c-2.3,0.1-4.7-0.2-6.9,0.3
	c-2.3,0.5-4.4,1.6-6.6,2.5c1.6-5.1,3.1-10.3,4.8-15.4c1.5-4.6,3.1-9.1,4.9-13.6c0.5-1.3,1.4-2.6,2.4-3.4c5.5-3.8,14.6-5.8,21.7,0.6
	c2.7,2.4,3.9,5.5,4.8,8.9c0.9,3.5,1.7,7.1,2.8,10.6c1.4,4.3,4.2,7.7,7.4,10.8c10.3,9.6,11.3,20.6,3.1,32.2c-2.7,3.8-6.1,7-10.3,9.3
	c-0.5-2.5-1.3-5-1.5-7.6C891.3,554.1,891.5,550,891.5,546z"/>
<path class="st5" d="M994.6,556.8c7.4-0.3,14.7-0.3,22.1-1c2.2-0.2,4.1-2.5,6.2-3.9c2.1-1.4,4.3-1.4,7.1,0.2
	c-1.1,0.5-1.6,0.6-2.1,0.9c-0.4,0.3-0.8,0.7-1.2,1c0.4,0.3,0.8,0.8,1.3,1c3.1,1,4,0.1,3.6-3.3c-0.3-2.4-0.3-4.8-0.4-7.2
	c0.6,0.1,1.2,0.2,1.9,0.3c0.6,2.8,1.2,5.6,1.9,8.6c0.5-0.1,0.9-0.1,1.3-0.3c3.3-1.5,3.7-1.5,5,1.4c0.2,0.5-0.4,1.9-1,2.2
	c-2.2,1.1-1.5,2.5-0.5,3.8c3,4,6.2,8,9.3,12c1.7,2.2,3.3,4.6,5.2,6.6c0.9,0.9,2.4,1.2,3.6,1.8c1.7,0.8,3.4,1.5,5,2.5
	c0.5,0.3,0.6,1.3,1.1,2.5c-1.7-0.4-2.9-0.7-4-1c-0.2,0.2-0.3,0.5-0.5,0.7c2.4,2.7,4.8,5.4,7.7,8.6c-1.6-0.4-2.6-0.7-3.5-0.9
	c0,0,0,0,0,0c-0.2-0.2-0.3-0.4-0.5-0.7c-0.8-0.8-1.6-1.6-2.4-2.4c-0.2,0.1-0.3,0.2-0.5,0.4c0.2,0.9,0.5,1.8,0.8,3.1
	c-1.2-0.6-1.9-1-2.8-1.4c-0.1,0.8-0.1,1.4-0.1,1.9c-0.8-0.3-1.6-0.7-2.3-1c-0.6,0.5-1,1-1.5,1.5c-0.2-0.4-0.5-0.9-0.7-1.3
	c1.1-2.1-0.5-1.6-1.6-1.6c-0.1,0-0.3,0.1-0.4,0.1c-1-2.5-1.5-5.5-3.2-7.5c-4.8-5.5-10-10.5-15.1-15.7c-0.2-2.1-0.3-4.2-0.7-6.2
	c-0.1-0.7-1.1-1.7-1.7-1.7c-3.2,0.1-6.5,0.1-9.7,0.7c-5.5,1-11,2.3-16.5,3.6c-2.7,0.6-5.4,1.4-8.1,2.2c-3.2,0.6-6.3,1.1-9.5,1.7
	c-4.2,0.8-5,0.6-5.7-3.5c-0.9-5.2-1.2-10.5-1.7-15.8c3.7,0.5,7.4,1.1,11.1,1.6c0.2,1.8,0.4,3.5,0.6,5.4
	C992.5,557,993.6,556.9,994.6,556.8z"/>
<path class="st8" d="M774.1,587.9c-8.2,0.5-16.4,1.1-24.7,1.5c-0.9,0.1-1.9-0.3-2.9-0.5c-0.1-1.4,0-2.9-0.4-4.2
	c-1.8-6.5-3.7-13-5.6-19.5c-0.8-2.7-0.6-3.2,2.3-3.3c2.1-0.1,4.3-0.4,6.4-0.5c9.1-0.5,18.1-1.8,26.8-4.5c-0.6,6.9-1.2,13.8-1.7,20.7
	C774.1,581.1,774.1,584.5,774.1,587.9z"/>
<path class="st5" d="M1099.6,708.7c0.3-0.4,0.9-0.9,0.9-1.3c0.2-3.2,0.5-6.3,0.4-9.5c-0.1-4.9-0.5-9.8-0.8-14.7
	c-0.2-2.6-0.4-5.1-0.6-7.7c-0.3-7.6-0.6-15.2-0.9-22.7c0-1.2,0.3-2.4,0.5-3.7c4.3,0.7,8.6,1.4,13,2.1c0.2,6.3,0.4,12.5,0.6,18.8
	c-0.5,2.9-0.9,5.7-1.4,8.6c-1.7,9-3.4,17.9-5,26.9c-0.2,1.1,0.5,2.5,0.8,3.7c-2.7,3.8-5.3,7.8-10.4,9.5c-0.1-1.3-0.1-2.2-0.2-3.1
	C1097.5,713.3,1098.5,711,1099.6,708.7z"/>
<path class="st12" d="M990.6,551.6c-3.7-0.5-7.4-1.1-11.1-1.6c-1.1-0.3-2.2-0.6-3.6-1c0.5-4.8,1-9.6,1.6-14.5
	c1-4.6,1.9-9.3,3.1-13.8c1.8-6.5,6.5-10.2,12.9-11.8c0.1,0.4,0.1,0.9,0.4,1.2c5.8,6.4,4.8,13.5,2.4,20.8c-0.5,1.6-1.3,3.3-2.3,4.6
	c-2.2,3.1-1,6.8-1.9,10.1C991.6,547.6,991.1,549.6,990.6,551.6z"/>
<path class="st13" d="M1144.1,518.9c-1.3,0.3-2.6,0.4-3.8,0.8c-3.6,1.3-6.6,0.3-9.3-2.2c-0.5-0.5-1.2-0.9-1.7-1.4
	c-0.1-0.2-0.2-0.5-0.2-0.7c-0.9-2.2-2.3-4.4-2.5-6.7c-0.2-2.8,2.8-3.5,4.6-5c2-1.6,1.9-3-0.4-4.7c-0.2,0.1-0.3,0.1-0.5,0.2
	c-0.7,0.6-1.3,1.3-1.9,1.9c-1.3,1.2-2.5,1-2.7-0.8c-0.2-1.4,0-3,0.4-4.4c0.9-3.8,0.5-5-2.9-7.1c-1.2-0.5-2.4-1-3.6-1.5
	c-0.3,0-0.5-0.1-0.8-0.1c-1.6-0.3-3.1-0.5-4.7-0.8c-0.8,1.6-1.4,3-2.1,4.5c-0.7-1.8-1.7-3.6-2.1-5.5c-0.8-3.3,0.7-5.9,4-6.7
	c5.8-1.5,11.2-0.2,15.9,3.5c0.7,0.6,1.6,1.1,2.5,1.3c4.1,0.8,6.6,3.1,6.7,7.5c0.1,3.5-0.3,7-1,10.4c-0.6,2.8,0,4.5,2.3,6.2
	c1.1,0.8,1.7,2.5,2.4,3.8c0.3,0.6,0.4,1.4,0.8,1.8C1145.7,514.9,1145.1,516.9,1144.1,518.9z"/>
<path class="st14" d="M749,512.9c0.8-2.3,1.6-4.5,2.4-6.8c-0.9-1.2-1.7-2.5-2.7-3.6c-0.9-0.9-2.5-1.4-3.1-2.4
	c-0.4-0.8,0.2-2.2,0.3-3.3c0.8,0.2,1.8,0.2,2.5,0.7c0.7,0.5,1.1,1.4,1.6,2.2c0.4-0.1,0.7-0.2,1.1-0.3c0.1-1,0.5-2,0.2-2.8
	c-0.4-1.5-1.3-2.9-1.9-4.3c-1.5-3.2-1.1-4.5,2-6.3c3.8-2.2,8-2.6,12.2-2.8c1.3,3.6,2.8,7.2,3.7,10.9c0.7,2.7,0.7,5.5,0.7,8.3
	c0,0.9-0.9,2.1-1.6,2.8c-0.8,0.7-2,1-3.1,1.5c-1.8,0-3.7,0-5.5,0c-0.1,0.3-0.1,0.7-0.2,1c2.1,0.8,4.1,1.6,6.2,2.4
	c0.3,0.9,0.7,1.9,1,2.8c-0.7,1.6-1.3,3.2-2.2,4.7c-0.5,0.7-1.6,1.5-2.3,1.4C755.9,518,751.6,517,749,512.9z"/>
<path class="st12" d="M776,557c-8.7,2.7-17.7,4.1-26.8,4.5c-2.1,0.1-4.3,0.4-6.4,0.5c-2.8,0.1-3.1,0.6-2.3,3.3
	c1.9,6.5,3.8,13,5.6,19.5c0.4,1.3,0.3,2.8,0.4,4.2c-0.6,0.1-1.2,0.1-1.9,0.2c-2.4-7.4-4.8-14.8-7.1-22.2c-0.6-2-1-4.2-0.9-6.3
	c0.1-4.1,0.6-8.2,0.8-12.4c0.1-1.9-0.3-3.9-0.5-5.8c0.2,0,0.4-0.1,0.6-0.1c0.3,1.2,0.8,2.4,0.9,3.7c0.1,1.5,0.9,1.9,2.3,1.9
	c10.7,0.1,21.4-0.3,31.8-3.1c1.5-0.4,3-1,4.5-1.5c0,1.3,0,2.7,0,4c-12,4.5-24.7,4.3-37.4,5.2c0.2,1.8,0.5,3.5,0.7,5.5
	c5.4-0.5,10.6-0.8,15.7-1.5c6.9-1,13.7-2.4,20.5-3.7C776.4,554.3,776.2,555.7,776,557z"/>
<path class="st12" d="M891.5,546c0,4-0.1,8.1,0.1,12.1c0.2,2.5,1,5,1.5,7.6c0.1,2.6,0.3,5.2,0.4,7.9c0.3,4.7,0.7,9.3,1,14
	c-6,0.1-10.8-2.7-15.1-6.4c-4.5-3.8-7.4-8.8-9.9-14c2.8,0.7,5.7,1.3,8.5,2c2.1,1.2,3.5,0.3,4.3-1.7c2.7-6.6,5.4-13.1,8.1-19.7
	C890.6,547.1,891.1,546.5,891.5,546z"/>
<path class="st13" d="M763.5,483.1c-4.3,0.2-8.5,0.6-12.2,2.8c-3.1,1.8-3.4,3.1-2,6.3c0.6,1.4,1.5,2.8,1.9,4.3
	c0.3,0.9-0.1,1.9-0.2,2.8c-0.4,0.1-0.7,0.2-1.1,0.3c-0.5-0.7-0.9-1.7-1.6-2.2c-0.7-0.5-1.6-0.5-2.5-0.7c-0.1,1.1-0.7,2.5-0.3,3.3
	c0.6,1,2.1,1.5,3.1,2.4c1,1.1,1.8,2.4,2.7,3.6c-6.8-0.7-11-4.6-13.2-10.9c-1.4-3.9-0.4-7.3,2.4-10.3c0.6-0.6,1.3-1.4,1.3-2.2
	c0.3-3.1,2.2-4.6,4.9-5.2c2.3-0.5,4.8-0.6,7.1-1.1c3.7-0.8,7.3-1.7,11.4-2.6c2.1,2.3,2,5.4-0.9,8.9
	C764.1,482.9,763.8,483,763.5,483.1z"/>
<path class="st13" d="M1002.6,498c-1.4-2-2.4-4.4-4.2-6c-6.5-5.9-7.1-14.3-0.4-19.9c3.6-3.1,8.2-5.1,12.5-7.4
	c2.1-1.1,4.2-0.7,5.6,1.5c1.5,2.4,1.4,5.4-0.2,7.3c-5.2-0.3-7.5,1.6-8.6,6.6c-0.3,1.4-0.7,2.8-1,4.3c-2.7-1.4-3.8-0.8-3.9,1.9
	c0,0.7,0.1,1.3,0.2,2c0.5,2.6,1,5.1,1.6,7.7c-0.1,0.2-0.1,0.3-0.2,0.5C1003.5,497,1003.1,497.5,1002.6,498z"/>
<path class="st5" d="M1004.1,496c-0.5-2.6-1.1-5.1-1.6-7.7c-0.1-0.6-0.2-1.3-0.2-2c0.1-2.7,1.2-3.2,3.9-1.9c0.4-1.5,0.7-2.9,1-4.3
	c1.1-5,3.4-6.9,8.6-6.6c4.1,7.1,5,14.6,2.3,22.3c-0.5,1.4-3.1,2.1-4.7,3.1C1010.4,498,1007.3,497,1004.1,496z"/>
<path class="st15" d="M763.5,483.1c0.3-0.1,0.6-0.3,0.9-0.4c0.7,1.8,1.4,3.5,2.1,5.3c0.4,0.5,0.6,1.3,1.1,1.4
	c3.4,1.1,4.1,3.9,4.2,7.2c-1-0.8-1.9-1.7-2.9-2.6c-0.7,3.9,2.2,8.1,6.3,9.5c0.1,1,0,2.1,0.4,2.9c2.2,4.3,4.4,8.5,6.7,12.7
	c-0.7-0.1-1.4-0.2-2.1-0.4c-1.4-0.5-2.8-1.1-4.2-1.7c0,0,0,0,0,0c-0.2-0.2-0.4-0.4-0.5-0.5c0,0,0,0,0,0c-0.7-0.3-1.4-0.7-2-1
	c-2.3-0.8-4.7-1.6-7-2.5c-0.6-0.1-1.2-0.2-1.7-0.3c-0.3-0.9-0.7-1.9-1-2.8c-0.2-1.1-0.3-2.3-0.5-3.4c1-0.5,2.3-0.8,3.1-1.5
	c0.8-0.7,1.6-1.8,1.6-2.8c0-2.8-0.1-5.6-0.7-8.3C766.3,490.3,764.8,486.7,763.5,483.1z"/>
<path class="st8" d="M776.5,553c-6.8,1.3-13.6,2.7-20.5,3.7c-5.1,0.8-10.4,1-15.7,1.5c-0.3-2-0.5-3.7-0.7-5.5
	c12.8-0.9,25.4-0.7,37.4-5.2C776.8,549.3,776.7,551.2,776.5,553z"/>
<path class="st12" d="M1032.9,544.9c-0.6-0.1-1.2-0.2-1.9-0.3c-0.5-3.1-1.1-6.2-1.6-9.4c-0.9-6.5-1.6-13.1-2.7-19.5
	c-0.3-1.9-1.8-3.6-2.8-5.4c-0.2-0.4-0.3-0.9-0.5-1.3c3.9,1.7,5.8,5.2,7.2,8.8c3.4,8.6,4.5,17.6,5.1,27
	C1034.9,544.8,1033.9,544.9,1032.9,544.9z"/>
<path class="st5" d="M775.2,503.5c-4.1-1.3-7-5.5-6.3-9.5c1,0.9,2,1.7,2.9,2.6c-0.1-3.3-0.8-6.1-4.2-7.2c-0.5-0.1-0.7-0.9-1.1-1.4
	c0.3-0.1,0.7-0.1,1-0.2c0.8,0.1,1.7,0.2,2.5,0.2c0.7,0.6,1.5,1,2,1.7c1.1,1.4,2,2.5,4.2,2c0.8-0.2,2.5,1.2,3,2.2
	c0.8,1.6,0.9,3.5,1.3,5.3C778.7,500.6,777,502,775.2,503.5z"/>
<path class="st5" d="M1002.6,498c0.4-0.5,0.9-1,1.3-1.5c0.2,0.3,0.4,0.7,0.6,1c-3,6.6-1.6,12.5,3.8,18.3c-0.1-1.5-0.3-2.4-0.2-3.3
	c0-0.6,0.4-1.3,0.6-1.9c0.6,0.5,1.5,0.9,1.6,1.4c0.3,1.3,0.1,2.6,0.2,4c-0.7,0.1-1.3,0.2-2.2,0.3c0.9,1.1,1.5,1.9,2.1,2.6
	c0.1-0.1,0.2-0.2,0.3-0.4c-0.1-0.9-0.2-1.7-0.2-2.6c1.4,0,2.8,0,4.5,0c-0.2-1.2,0-3.9-1.1-4.6c-1.6-1.1-1.4-2.1-1.5-3.4c0,0,0,0,0,0
	c0.5-0.3,1.4-0.8,1.4-0.9c-0.4-1.1-0.9-2.2-1.4-3.3c-0.1,0.1-0.3,0.1-0.4,0.2c0.1-1,0.2-1.9,0.4-2.9c0.4,0,0.7,0,1.1-0.1
	c0.5,1.8,1,3.7,1.5,5.5c0.3,3.4,0.6,6.7,0.8,10.1c0.1,0.9-0.2,1.8-0.5,2.7c-1,2.7-2.3,3.2-4.6,1.4c-1.6-1.3-3.2-2.7-4.2-4.4
	c-1.9-3-3.4-6.2-5.1-9.3C1001.8,503.9,1002.2,501,1002.6,498z"/>
<path class="st16" d="M857.5,561.5c-3.3,0.4-6.7,0.8-10,1.1c-2.9-0.6-5.9-1.3-8.8-1.9c2.1-2,4.2-4.1,6.4-6.2c0.3-0.1,0.7-0.2,1-0.3
	c2.4,1.5,4.8,2.9,7.2,4.4C854.6,559.5,856,560.5,857.5,561.5z"/>
<path class="st12" d="M764.7,512.8c0.6,0.1,1.2,0.2,1.7,0.3c-0.2,0.5-0.3,1-0.5,1.4c-1.3,2.5-2.3,6.2-5.4,6.2
	c-5-0.1-10-1.4-12.9-6.3c-0.2-0.3-0.1-0.8-0.2-1.2c0.5,0,1-0.1,1.4-0.1c2.7,4,6.9,5.1,11.3,5.9c0.7,0.1,1.9-0.7,2.3-1.4
	C763.5,516,764,514.3,764.7,512.8z"/>
<path class="st14" d="M1105.5,496.5c0.3-0.3,0.6-0.7,0.9-1c0.4,0.2,0.8,0.5,1.2,0.7c-0.3,0.5-0.6,0.9-1,1.4
	c-0.2,0.2-0.4,0.4-0.6,0.6c0,0.5-0.1,0.9-0.1,1.4c-0.3,0.5-0.6,1-0.9,1.5c0.3,0,0.6,0,0.9,0.1c0.3,0,0.6-0.1,0.9-0.1
	c0.5,1.5-0.6,4.3-2.1,4.8c-2.9,1-3.6-1.9-5.2-3c0.7-1.6,1.3-2.9,1.7-3.8c1.3-0.6,2.2-1,3.2-1.4c0,0,0.1-0.1,0.1-0.1
	C1104.9,497.2,1105.2,496.8,1105.5,496.5z"/>
<path class="st7" d="M1104.5,497.6c-1,0.4-1.9,0.9-3.2,1.4c-0.4,0.9-1,2.2-1.7,3.8c1.6,1.1,2.2,3.9,5.2,3c1.5-0.5,2.6-3.3,2.1-4.8
	c0.4-0.5,0.8-1.1,1.4-1.8c1.1,3.3-1.4,7-5.4,8.3c-1.5-1.1-2.9-2.1-4.4-3.2c0.2-0.8,0.3-1.6,0.5-2.4
	C1100,497.3,1100,497.3,1104.5,497.6z"/>
<path class="st7" d="M1058,594.5c0-0.6,0.1-1.1,0.1-1.9c0.9,0.5,1.6,0.8,2.8,1.4c-0.4-1.4-0.6-2.3-0.8-3.1c0.2-0.1,0.3-0.2,0.5-0.4
	c0.8,0.8,1.6,1.6,2.4,2.4c0.2,0.2,0.3,0.4,0.5,0.7c0,0,0,0,0,0c0.7,1.2,1.3,2.4,2.2,3.9c-1.3-0.2-2-0.3-3-0.5
	c-0.1,0.7-0.2,1.3-0.2,2c-0.3-0.2-0.7-0.5-1-0.7C1060.3,597,1059.1,595.7,1058,594.5L1058,594.5z"/>
<path class="st16" d="M1013.6,501c-0.4,0-0.7,0-1.1,0.1c-2.7-1.2-5.3-2.4-8-3.5c-0.2-0.3-0.4-0.7-0.6-1c0.1-0.2,0.1-0.3,0.2-0.5
	c3.1,1,6.3,2,9.4,3C1013.6,499.7,1013.6,500.3,1013.6,501z"/>
<path class="st7" d="M1107.6,496.1c-0.4-0.2-0.8-0.5-1.2-0.7c0.9-2.3,3-1.1,4.6-1.5l0.1,0.1c-0.3,1.5-0.6,3-0.9,4.5
	c-0.1-0.9-0.2-1.9-0.3-3.1C1108.9,495.7,1108.2,495.9,1107.6,496.1z"/>
<path class="st7" d="M1111.9,491c0.7-1.4,1.4-2.9,2.1-4.5c1.6,0.3,3.1,0.5,4.7,0.8c-0.6,0-1.2,0.2-1.7,0.1c-2-0.3-3.2,0.4-3.5,2.5
	c-0.1,0.7-0.9,1.4-1.4,2c0,0,0,0,0,0C1112,491.7,1112,491.4,1111.9,491z"/>
<path class="st3" d="M927.5,427.4c-0.8,1.8-3.6,3.4-5,3C924.1,429.4,925.8,428.4,927.5,427.4z"/>
<path class="st3" d="M921,431.9c-1.3,1-2.7,2-4,3.1C918.3,434,919.6,433,921,431.9z"/>
<path class="st3" d="M916.5,435.5c-0.6,0.8-1.1,1.6-1.7,2.4C915.4,437.1,915.9,436.3,916.5,435.5z"/>
<path class="st15" d="M770,488c-0.8-0.1-1.7-0.2-2.5-0.2C768.5,486.2,769.2,487.5,770,488z"/>
<path class="st7" d="M1111,494c0.4-0.6,0.7-1.3,1.1-1.9c0,0,0,0,0,0C1111.7,492.7,1111.4,493.4,1111,494L1111,494z"/>
<path class="st7" d="M1105.5,496.5c-0.3,0.4-0.6,0.7-0.9,1.1C1104.9,497.2,1105.2,496.8,1105.5,496.5z"/>
<path class="st17" d="M997.5,642.5c0.6,6.5,1.3,13.1,1.7,19.6c0.7,11.5,1.1,22.9,1.6,34.4c0,0.5,0,1,0,1.5c-3.5,0.3-7.1,0.6-10.6,1
	c-9.7,1.1-19.3,2.5-29,3.4c-9.5,0.9-19.1,1.4-28.7,2.1c-1.9,0.1-3.7,0.6-5.5,1c-16.7,0.2-33.3,0.4-50,0.5c0.2-1.7,0.3-3.3,0.5-5
	c0.6-0.9,1.5-1.8,1.7-2.8c1.2-5.8,2.4-11.6,3.3-17.4c2.2-13,4.2-26.1,6.3-39.1c1.1,0.3,2.1,0.8,3.2,0.8
	C927.2,642.5,962.4,642.5,997.5,642.5z"/>
<path class="st18" d="M869.4,706.5c-6.7,0-13.4-0.1-20.1,0c-8.7,0.2-17.3,0.6-26,1c-0.7,0-1.4,0.7-2,1c-0.2-0.3-0.3-0.6-0.5-0.9
	c0.3-0.5,0.7-0.9,1-1.4c1.1-1.6,2.1-3.2,3.2-4.8c2.9-0.3,4.6-2.1,6.3-4.3c7.5-10,13.4-21,17.8-32.7c2.8-7.5,5.8-14.8,8.8-22.2
	c0.5,0.4,1.1,1.2,1.6,1.2c2.3,0,4.5-0.3,6.8-0.5c0.1,0.8,0.2,1.7,0.3,2.5c0,0.3,0,0.7,0.1,1c0,5.1,0,10.1,0.1,15.2
	c0.2,6.6,0.5,13.2,0.7,19.8c0,0.3,0,0.7,0,1c0.2,3.3,0.4,6.7,0.6,10c0,0.3,0,0.7,0.1,1c0.4,2.2,0.7,4.5,1.1,6.7l0,0
	c0.1,0.2,0.3,0.5,0.4,0.7C869.5,702.8,869.5,704.7,869.4,706.5z"/>
<path class="st6" d="M1049.6,715.4c5.3,1.1,10.1,3.2,14.6,6.4c-9,2.4-17.9,1.6-27.5,1.5c0.6-2.9,1-5.4,1.5-7.8
	c0.8,0.1,1.8-0.1,2.4,0.3C1043.7,717.5,1046.6,716.7,1049.6,715.4z"/>
<path class="st6" d="M1013.5,716.5c5,1.8,10.2,3.2,14.8,6.6c-3.3,1.7-18.2,2-28.5,0.6c0.6-2.4,1.1-4.7,1.7-7c0.7,0,1.4-0.1,1.9,0.2
	C1006.9,718.7,1010.2,717.8,1013.5,716.5z"/>
<path class="st6" d="M820.8,707.7c0.2,0.3,0.3,0.6,0.5,0.9c2.1,4.7-1,8.7-1.8,13c-0.1,0.4-1.3,0.6-2.5,1.2c0-2.8,0-5,0-7.4
	c-2.2,0.4-3.4,1.5-4,3.2c-1.3,3.4-3.6,5-7.3,4.5c-2-0.2-4.1,0-6.5,0c0.8-3.1,3.1-4.3,5.4-5.4c2.6,0.2,4.3-1.2,6-2.9
	c1.9-1.8,3.7-3.8,5.8-5.4C817.6,708.5,819.3,708.2,820.8,707.7z"/>
<path class="st6" d="M1107,709.1c0.5,0,0.9,0,1.4-0.1c0.6,4.9,0.1,9.7-2.5,14.2c-0.1-2.4-0.3-4.7-0.4-7.1c-0.2-0.1-0.4-0.3-0.6-0.4
	c-1.3,1.6-2.8,3.1-3.9,4.8c-1.3,2.1-2.8,3-5.3,2.6c-3.5-0.7-7-1-10.8-1.5c0.3-0.7,0.3-1.4,0.6-1.6c3.6-1.6,7.3-3.1,11-4.6
	c0.1,0.9,0.1,1.8,0.2,3.1C1101.7,716.9,1104.2,712.9,1107,709.1z"/>
<path class="st6" d="M777,713.6c3.7,1,7.5,2,11.2,3.1c0.8,0.2,1.4,0.9,2.1,1.4c-0.6,0.6-1.2,1.6-1.8,1.6c-6.5,0.4-13.1,0.8-19.7,0.9
	c-2.4,0-2.9-1.3-2.1-3.6c0.3-0.8,0.8-1.6,1.2-2.4C771.2,715.5,774.2,715.3,777,713.6z"/>
<path class="st7" d="M869.4,706.5c0.1-1.8,0.1-3.7,0.2-5.5c2.6,0,5.2,0,7.9,0c-0.2,1.7-0.3,3.3-0.5,5c-1.6,3.3-0.5,6.8-0.5,10.2
	c-2.7,1.7-5.4,2-8-0.2C868.8,712.9,869.1,709.7,869.4,706.5z"/>
<path class="st7" d="M811.1,708.1c0.7-0.7,1.4-1.3,2.1-2c0.9-1.7,1.9-3.3,2.8-5c3,0.2,5.9,0.3,8.9,0.5c-1.1,1.6-2.1,3.2-3.2,4.8
	c-0.3,0.5-0.6,0.9-1,1.4c-1.5,0.5-3.2,0.8-4.4,1.7c-2.1,1.6-3.9,3.5-5.8,5.4c-1.7,1.7-3.5,3.1-6,2.9c1-1.4,2.1-2.9,3.1-4.3
	C808.8,711.5,809.9,709.8,811.1,708.1z"/>
<path class="st7" d="M1049.6,715.4c-3,1.3-5.9,2.1-9.1,0.4c-0.7-0.4-1.6-0.2-2.4-0.3c0.1-1.7,0.3-3.3,0.4-5c3.2-0.2,6.3-0.3,9.5-0.5
	C1048.6,711.8,1049.1,713.6,1049.6,715.4z"/>
<path class="st7" d="M1013.5,716.5c-3.3,1.3-6.6,2.3-10,0.3c-0.5-0.3-1.3-0.1-1.9-0.2c0.1-1.7,0.2-3.4,0.3-5.1
	c3.3,0,6.6,0.1,9.9,0.1C1010.4,714,1013,714.9,1013.5,716.5z"/>
<path class="st6" d="M868.5,716c2.6,2.3,5.3,1.9,8,0.2c1.4,6.4,0.8,7.4-6.2,6.8c-1.9-0.2-2.8-1-2.4-3.1
	C868.2,718.7,868.3,717.4,868.5,716z"/>
<path class="st7" d="M777,713.6c-2.8,1.7-5.8,1.9-9,1c0.1-1.2,0.3-2.3,0.4-3.5c2.3-0.3,4.6-0.7,7-1C776,711.2,776.5,712.4,777,713.6
	z"/>
<path class="st17" d="M1172,714.5c0.3-1.4,0.7-2.8,1-4.2c0.3,0,0.5-0.1,0.8-0.1c0.7,1.4,1.4,2.8,2.1,4.2
	C1174.6,714.5,1173.3,714.5,1172,714.5z"/>
<path class="st0" d="M816,701c-0.9,1.7-1.9,3.3-2.8,5c-9.2-0.7-18.4-1.3-27.7-2c-2.7-0.2-5.4-0.4-8.2-0.6c0.7-8.1,1.8-16.2,2.2-24.4
	c0.6-11.8,0.7-23.6,1.1-35.4c0-0.4,0-0.8,0.1-1.2c16.3,0,32.6,0,48.8,0c1.2,0,2.5,0.1,3.7,0.1c-2.3,8-4.5,16-6.9,24
	c-2.9,9.6-5.9,19.3-8.8,28.9C817,697.3,816.5,699.2,816,701z"/>
<path class="st15" d="M765.5,703c-1-2.4-3.4-1.6-5.2-1.9c-9.1-1.6-18.1-3.4-26.5-7.4c-0.9-0.4-1.9-0.5-2.8-0.7
	c3.4-8.4,6.5-16.9,10.2-25.2c6.3-14,8.6-28.9,10.3-44c0.2-2,0.4-3.9,1.1-5.9c0.5,1.6,0.9,3.3,1.4,4.9c2.8,8.2,5.7,16.3,8.6,24.5
	c0.3,0.8,0.6,1.8,0.5,2.6c-1.8,11.9-0.4,23.7,0.7,35.6C764.2,691.3,764.9,697.1,765.5,703z"/>
<path class="st7" d="M738.4,600.6c0.3-2.4,2.1-3.3,4.1-3.6c1.1-0.2,2.3-0.1,3.5-0.1c0.6,2.3,1.1,4.7,1.8,7c1.1,4.2-0.7,7.4-3.7,10.2
	c-2.8,2.6-5.5,0.3-6.3-2.2c-0.1-0.4,0.3-1.2,0.6-1.7c1.3-1.8,2.7-3.3,0.8-5.6C738.4,603.7,738.6,602,738.4,600.6z"/>
<path class="st18" d="M1138.9,656.5c-8.2,4.4-16.4,8.9-24.6,13.3c-0.5,0.3-1.1,0.2-1.7,0.2c-0.2-6.3-0.4-12.5-0.6-18.8
	c8.1,0.7,16-0.1,24-1.4C1137,652.1,1138,654.3,1138.9,656.5z"/>
<path class="st7" d="M1135,598.6c2.4,0.1,4.9-0.3,6.5,2.1c-0.5,1.9-1.2,3.7-1.4,5.7c-0.1,0.8,0.5,1.9,1.2,2.6c1.2,1.2,1,2.4-0.1,3.2
	c-0.9,0.7-2.5,1.2-3.4,0.9c-2.5-0.8-4.6-4.9-4.1-7.6C1134,603.1,1134.5,600.8,1135,598.6z"/>
<path class="st9" d="M967.5,438.5c0.1-1.8,0.5-3.8-2.1-4.2c-0.3-0.1-0.6-0.6-0.7-0.9c-0.6-2.2,1.3-3.4,2.3-4.8
	c0.2-0.3,1.9,0.2,2.7,0.8c2.7,1.9,5.6,3.8,8,6.1c2,2,3.3,4.5,5,6.9c-3,1.1-4.5,0.3-5.3-2.4c-1.3-4-2.6-4.5-6.3-2.4
	C970,438.2,968.6,438.3,967.5,438.5C967.5,438.5,967.5,438.5,967.5,438.5z M968.1,431.4c0.3,1.2,0.5,2.4,0.9,3.6
	c0,0.1,1.6,0,1.7-0.3C971.3,433.1,970.9,431.8,968.1,431.4z"/>
<path class="st9" d="M985,449.5c0.8,0.6,2.1,1.1,2.4,1.9c0.9,2,1.4,4.2,1.8,6.3c0.1,0.4-0.6,1.4-1,1.5c-0.5,0.1-1.5-0.5-1.6-0.9
	C986,455.4,985.5,452.5,985,449.5L985,449.5z"/>
<path class="st10" d="M996.4,567.5c2.7-0.7,5.4-1.5,8.1-2.2c5.5-1.3,11-2.6,16.5-3.6c3.2-0.6,6.4-0.6,9.7-0.7c0.6,0,1.6,1,1.7,1.7
	c0.4,2,0.5,4.1,0.7,6.2c1.2,6.5,2.4,13,3.6,19.6c-0.4,0.4-0.8,0.8-1.2,1.1c-0.2,0.1-0.4,0.2-0.6,0.3c-13,2.8-26.3,2.5-39.5,2.5
	c-0.1-1.6-0.3-3.2-0.2-4.7C995.6,581,996,574.3,996.4,567.5z"/>
<path class="st11" d="M877.5,701c-2.6,0-5.2,0-7.9,0c-0.1-0.2-0.3-0.5-0.4-0.7c1.9-0.1,3.7-0.1,6-0.2c-1.1-1.2-1.7-1.8-2.6-2.7
	c1.4-0.3,2.3-0.4,2.9-0.5c0.9-3.2,1.7-6.2,2.4-9.3c1.5-6.6,1-13.6,3.4-20.1c0.9-2.4,0.7-5.1,1.1-7.7c0.8-5.5,1.6-11,2.4-16.6
	c0.6-4.6,1.2-9.3,1.6-13.9c0.2-2.9-0.2-5.8,0.1-8.7c0.4-4-1.1-7.2-2.9-10.6c-1.2-2.3-2.2-4.7-3.2-7.1c4.3-1.1,8.6-2.2,12.9-3.3
	c-0.2,4.1-0.3,8.2-0.8,12.3c-1.2,10-2.5,19.9-3.8,29.9c-2.1,13-4.1,26.1-6.3,39.1c-1,5.8-2.1,11.6-3.3,17.4
	C879,699.2,878,700.1,877.5,701z"/>
<path class="st15" d="M1035.5,692.5c-6.8,1.2-13.6,2.3-20.5,3.5c0.8-13.4,1.5-26.9,2.3-40.3c0.2-4.2,0.4-8.5,0.6-12.7
	c2.3,0,4.7,0,7,0c3.2,7.4,6.9,14.7,7.5,23C1033.1,674.9,1034.4,683.7,1035.5,692.5z"/>
<path class="st15" d="M1035,590c0.2-0.1,0.4-0.2,0.6-0.3c-0.1,0.4-0.1,0.7-0.2,1.1C1035.2,590.5,1035.1,590.3,1035,590z"/>
<path class="st17" d="M1001,700.5c-0.1-0.1-0.2-0.2-0.2-0.3c0,0,0.1-0.1,0.2-0.1C1001,700.2,1001,700.3,1001,700.5z"/>
<path class="st14" d="M1111,494c0.3-0.7,0.7-1.3,1-2c0.5-0.7,1.3-1.3,1.4-2c0.3-2.1,1.5-2.8,3.5-2.5c0.6,0.1,1.1-0.1,1.7-0.1
	c0.3,0,0.5,0.1,0.8,0.1c0.6,2,2.2,1.4,3.6,1.5c3.4,2.1,3.9,3.3,2.9,7.1c-0.3,1.4-0.5,3-0.4,4.4c0.2,1.8,1.5,2.1,2.7,0.8
	c0.7-0.6,1.3-1.3,1.9-1.9c0.1-0.1,0.3-0.1,0.5-0.2c2.3,1.7,2.4,3.1,0.4,4.7c-1.8,1.5-4.9,2.2-4.6,5c0.2,2.3,1.6,4.4,2.5,6.7
	c0.1,0.2,0.2,0.5,0.2,0.7c-2.4,3.2-5.7,4.9-9.5,5.6c-2,0.4-3.9,0.4-4.9-2.1c-0.4-1-1.2-1.9-1.9-2.8c0.5-1.3,1-2.6,1.5-3.9
	c2.7,0.4,4.2-1.4,5.9-2.8c-0.1-0.3-0.1-0.5-0.2-0.8c-1.7,0.2-3.5,0.5-5.2,0.7c-0.5-0.1-1-0.3-1.6-0.4c-1.3-0.8-3.2-1-3.3-3.1
	c0-0.7,0-1.3,0-2c0-2,0-4,0-6C1110.4,497,1110.7,495.5,1111,494z"/>
<path class="st15" d="M1110.1,498.5c0,2,0,4,0,6c0,0.7,0,1.3,0,2c0.1,2.1,1.9,2.4,3.3,3.1c-1.8,2.6-3.6,5.2-5.3,7.9
	c-2.2,1.1-4.3,2.2-6.5,3.3c-1.5,0.7-3,1.5-4.5,2.2c1.3-3.1,2.8-6.1,4-9.2c0.8-2,1.3-4.2,2-6.3c4-1.4,6.5-5,5.4-8.3
	c-0.6,0.7-1,1.2-1.4,1.8c-0.3,0-0.6,0.1-0.9,0.1c0-0.5,0-1,0-1.5c0-0.5,0.1-0.9,0.1-1.4c0.2-0.2,0.4-0.4,0.6-0.6
	c0.3-0.5,0.6-0.9,1-1.4c0.7-0.2,1.4-0.4,2.3-0.7C1109.9,496.6,1110,497.6,1110.1,498.5z"/>
<path class="st12" d="M1140,573.6c-0.3,1.8-0.6,3.5-1,5.3c-0.3-0.1-0.6-0.1-0.8-0.2c-0.6-9.6-0.2-19.1,3.2-28.4
	c0.4,3,0.8,5.9,1.1,8.9c-0.8,2.8-1.8,5.6-2.3,8.4C1139.8,569.5,1140,571.6,1140,573.6z"/>
<path class="st13" d="M1108,517.5c1.8-2.6,3.6-5.2,5.3-7.9c0.5,0.1,1,0.3,1.6,0.4c-0.2,1-0.3,1.9-0.5,2.9c-0.5,1.3-1,2.6-1.5,3.9
	C1111.5,518.4,1109.7,518.2,1108,517.5z"/>
<path class="st15" d="M1140,573.6c0-2-0.2-4,0.2-6c0.5-2.8,1.5-5.6,2.3-8.4c0,0.7-0.1,1.4,0.1,2C1144.5,565.9,1142,569.7,1140,573.6
	z"/>
<path class="st12" d="M1097,523c1.5-0.7,3-1.5,4.5-2.2c-3.3,3.6-6.6,7.2-9.9,10.8c-0.3,0.3-1.1,0.3-1.6,0.5c0,0,0,0,0,0
	c2.3-2.9,4.6-5.7,6.9-8.6C1096.9,523.3,1097,523.1,1097,523C1097,523,1097,523,1097,523z"/>
<path class="st12" d="M1090,532c0,0.1-0.1,0.1-0.1,0.2C1089.9,532.1,1090,532.1,1090,532C1090,532,1090,532,1090,532z"/>
<path class="st15" d="M1097,523c0,0.1-0.1,0.3-0.1,0.4C1097,523.3,1097,523.1,1097,523z"/>
<path class="st3" d="M942.6,467.6c-0.5,2.7-1.3,5.5-1.5,8.2c-0.2,3.6,1.3,5.4,4.9,6.4c-0.4,0.2-0.7,0.7-1.1,0.7
	c-2.9-0.4-5.1-3-4.9-5.9c0-0.7,0.2-1.5,0-2.2c-0.2-0.8-0.8-1.4-1.2-2.1c-0.4,0.7-1.1,1.4-1.2,2.2c-0.2,1.2,0,2.5-0.1,3.7
	c0,0.5-0.5,0.9-0.8,1.3c-0.4-0.4-1-0.7-1-1.1c-0.3-3.5-0.5-6.9-0.5-10.4c0-1.7,2.8-2.5,5.3-1.6C941.1,467,941.8,467.3,942.6,467.6z"
	/>
<path class="st3" d="M951.4,480.5c0.6-6.9,4.6-11.7,9.8-15.8c1.3-1,2.5-2.1,3.8-3.2c0.6,1.4,1.3,2.8,2.1,4.5c-0.8-0.1-1.9,0-2.7-0.5
	c-2.2-1.2-2.9,0.2-3.9,1.7c-0.5,0.7-1.1,1.5-1.8,1.8c-2.5,0.9-2,3.6-3.2,5.2C954,476.2,952.8,478.4,951.4,480.5z"/>
<path class="st3" d="M956.1,444.4c2.3,1.9,2.9,5.8,0.7,8.4c-2.3,2.8-5.2,5.1-7.8,7.7c0.7-2.8,2.3-5.2,4.9-6.5c2.3-1.3,3.7-4.3,2.9-7
	C956.5,446.2,956.3,445.3,956.1,444.4z"/>
<path class="st3" d="M945.7,463.6c-1,1.3-2.1,2.6-3.1,3.9c-0.2-1.5,0.3-3.1-0.9-4.6c-0.4-0.5,0.5-2.9,1.4-3.5c0.9-0.6,2.5,0,3.8,0.2
	c0.8,0.1,1.5,0.5,2.2,0.8c-1,0.9-1.9,1.8-2.9,2.6L946,463c0.1-0.7,0.3-1.4,0.5-2.7c-1.3,0.3-2.3,0.4-3.2,0.8c-0.3,0.2-0.3,1.6,0.1,2
	c0.4,0.4,1.3,0.3,2.1,0.4C945.5,463.5,945.7,463.6,945.7,463.6z"/>
<path class="st3" d="M942.5,441.9c3.6-2.2,9.2-2,12.4,0.5c0.6,0.5,0.8,1.3,1.2,2c-1.6-0.5-3.4-0.6-4.6-1.6c-2.3-1.8-4.5-1.7-7.1-0.7
	C943.9,442.4,943.1,442,942.5,441.9z"/>
<path class="st3" d="M947.5,482.2c1.3-0.6,2.6-1.2,3.9-1.8c-0.6,1-1.1,2-1.9,2.9C949.4,483.4,948.2,482.6,947.5,482.2z"/>
<path class="st3" d="M975.9,452.1c0.2,0.7,0.4,1.3,0.6,2c-0.2,0.1-0.5,0.2-0.8,0.3c-0.3-0.6-0.5-1.3-0.8-1.9
	C975.2,452.3,975.6,452.2,975.9,452.1z"/>
<path class="st3" d="M965.5,461c0.7-0.7,1.3-1.4,2-2C967.8,460.5,967.1,461.2,965.5,461z"/>
<path class="st12" d="M776,517c1.4,0.6,2.8,1.2,4.2,1.7c0.7,0.2,1.4,0.3,2.1,0.4c0.2,0,0.6,0,0.7,0.1c1.5,2.5,3,5.1,4.5,7.6
	c0.1,0.3,0.2,0.5,0.5,1.2C783.8,524.1,779.9,520.5,776,517z"/>
<path class="st12" d="M773.5,515.5c0.7,0.3,1.4,0.7,2,1C774.9,516.1,774.2,515.8,773.5,515.5z"/>
<path class="st12" d="M775.5,516.5c0.2,0.2,0.4,0.4,0.5,0.5C775.9,516.8,775.7,516.6,775.5,516.5z"/>
<path class="st19" d="M880.5,602.8c1.1,2.4,2,4.8,3.2,7.1c1.8,3.3,3.3,6.6,2.9,10.6c-0.3,2.9,0.1,5.8-0.1,8.7
	c-0.4,4.6-1,9.3-1.6,13.9c-0.7,5.5-1.6,11-2.4,16.6c-0.4,2.6-0.2,5.3-1.1,7.7c-2.5,6.5-1.9,13.5-3.4,20.1c-0.7,3-1.6,6-2.4,9.3
	c-0.6,0.1-1.5,0.3-2.9,0.5c0.9,0.9,1.5,1.5,2.6,2.7c-2.3,0.1-4.2,0.1-6,0.2c0,0,0,0,0,0c0.1-0.8,0.4-1.6,0.3-2.3
	c-0.3-1.5-0.9-3-1.4-4.4c0-0.3,0-0.7-0.1-1c0.1-3.1,0.3-6.2,0.3-9.3c0-0.2-0.6-0.5-0.9-0.7c0-0.3,0-0.7,0-1c0.2-0.8,0.5-1.5,0.5-2.3
	c-0.1-10.3-0.3-20.6-0.5-30.9c0-0.6-0.5-1.2-0.8-1.8c0-0.3,0-0.7-0.1-1c0.1-1.7,0.3-3.3,0.4-5c-0.2-1-0.3-2-0.5-3c0-1.2,0-2.3,0-3.5
	c-0.2-0.5-0.3-1-0.5-1.5c0-1.3,0-2.7,0-4c-0.3-0.5-0.6-1-0.9-1.5c-0.2,0-0.2-0.2-0.2-0.3c-0.1-5-0.3-9.9-0.4-14.9
	c0-0.2,0-0.6-0.1-0.7c-0.4-0.5-0.8-1-1.2-1.5c-0.5,0.4-1,0.7-1.3,1.1c-1,1.6-1.9,3.3-2.7,5c-1.5,3.2-2.9,6.4-4.2,9.6
	c-1.2,2.7-2.3,5.5-3.3,8.3c-0.9,2.5-2,5-2.6,7.5c-1.1,4.4-1.7,8.9-3,13.2c-1.3,4.1-3.1,8.1-5,12c-2.7,5.7-5.6,11.4-8.6,16.9
	c-1.7,3.2-3.7,6.3-5.6,9.4c-1.3,2.1-2.7,4.2-4.2,6.4c0.8,0.2,1.7,0.5,2.9,0.9c-3.5,0.9-6.7,0.7-8.1-0.3c0-1.5,0-2.9,0-4.2
	c2.9-9.6,5.9-19.2,8.8-28.9c2.4-8,4.6-16,6.9-24c3.9-14.2,7.7-28.3,11.6-42.5c4.2,0.5,8.4,1.2,12.5,1.4c6.7,0.5,13.4,0.7,20.1,1
	C878.5,602.6,879.5,602.7,880.5,602.8z"/>
<path class="st15" d="M1036.7,588.6c-1.2-6.5-2.4-13-3.6-19.6c5.1,5.2,10.3,10.2,15.1,15.7c1.7,1.9,2.2,4.9,3.2,7.5
	c-1.4-0.4-2.7-0.9-4.1-1.2C1043.8,590.1,1040.3,589.4,1036.7,588.6z"/>
<path class="st7" d="M1054.1,595c0.5-0.5,1-0.9,1.5-1.5c0.8,0.3,1.5,0.6,2.3,1c0,0,0,0,0,0c0.3,0.8,0.7,1.5,1,2.3
	c-0.3,0.5-0.6,1-1.1,1.9C1056.6,597.4,1055.3,596.2,1054.1,595z"/>
<path class="st5" d="M1059,596.8c-0.3-0.8-0.7-1.5-1-2.3c1.1,1.2,2.3,2.5,3.4,3.7C1060.6,597.7,1059.8,597.3,1059,596.8z"/>
<path class="st7" d="M1051.8,592.1c1.1,0,2.7-0.5,1.6,1.6C1052.9,593.2,1052.3,592.6,1051.8,592.1z"/>
<path class="st14" d="M864.9,522.9c0-1.3,0-2.6,0-3.9c0.6,1.4,1,3,3.2,2.5c1.7-0.4,4.5-2.9,4.5-4.4c-2.6,0.3-5.2,0.6-7.7,0.9
	c-1.2-0.9-3.3-1.7-3.6-2.9c-0.7-3.2-1.7-7.1-0.5-9.7c1.8-3.6,2.6-8.4,7.3-10.4c0.6,1.7,1.2,3.4,1.8,5.1c1.4,3.7,3.6,6.7,7.6,8
	c0.6,0.2,1.2,1.3,1.2,2.1c0,0.9-0.2,2.1-0.8,2.8c-2.7,3.1-1.6,6.5-1.2,9.9C872.8,522.9,868.9,522.9,864.9,522.9z"/>
<path class="st14" d="M857.5,561.5c-1.4-1-2.8-1.9-4.3-2.9c-2.4-1.5-4.8-2.9-7.2-4.4c1.3-0.9,2.6-1.7,4-2.6c1.6,0.8,3.1,2,4.8,2.3
	c2.9,0.4,5.9,0.1,8.8,0c2.1-0.1,4.2-0.3,6.4-0.5c1.2,0.3,2.4,0.7,3.6,1c0.5,3.6,0.7,7.3,1.5,10.8c0.3,1.4,1.9,2.6,2.9,3.8
	c-2.8-0.7-5.7-1.3-8.5-2C865.5,565.2,861.5,563.3,857.5,561.5z"/>
<path class="st12" d="M850,551.7c-1.3,0.8-2.6,1.7-4,2.6c-0.3,0.1-0.7,0.2-1,0.3c-0.1-6.7,4.4-17.9,8-19
	C850.2,540.8,849.8,546.2,850,551.7z"/>
<path class="st12" d="M873.5,554.4c-1.2-0.3-2.4-0.7-3.6-1c1-2.6,2-5.3,3-7.9c0.4,0.1,0.8,0.2,1.2,0.2
	C873.9,548.7,873.7,551.5,873.5,554.4z"/>
<path class="st17" d="M990.6,551.6c0.5-2,0.9-4,1.4-6c0.9,3.8,1.7,7.5,2.6,11.3c-1.1,0.1-2.1,0.1-3.3,0.2
	C991.1,555.1,990.8,553.3,990.6,551.6z"/>
<path class="st16" d="M864.9,518c2.6-0.3,5.1-0.6,7.7-0.9c0,1.5-2.8,4-4.5,4.4c-2.2,0.5-2.6-1.1-3.2-2.5
	C864.9,518.7,864.9,518.3,864.9,518z"/>
<path class="st0" d="M1063.5,593.5c-0.2-0.2-0.3-0.4-0.5-0.7C1063.2,593.1,1063.3,593.3,1063.5,593.5z"/>
<path class="st7" d="M1123.1,489c-1.4-0.1-3,0.5-3.6-1.5C1120.7,488,1121.9,488.5,1123.1,489z"/>
<path class="st16" d="M763.2,506.6c0.2,1.1,0.3,2.3,0.5,3.4c-2.1-0.8-4.1-1.6-6.2-2.4c0.1-0.3,0.1-0.7,0.2-1
	C759.6,506.6,761.4,506.6,763.2,506.6z"/>
<path class="st14" d="M1004.5,497.5c2.7,1.2,5.3,2.4,8,3.5c-0.1,1-0.2,1.9-0.4,2.9c0.1-0.1,0.3-0.1,0.4-0.2c0.5,1.1,1,2.2,1.4,3.3
	c0,0.1-0.9,0.6-1.4,0.9c-0.2-0.3-0.4-0.5-0.6-0.8c-0.1,0.3-0.3,0.5-0.4,0.8c-0.3,0.2-0.5,0.4-0.8,0.6c0.1,0.1,0.1,0.1,0.2,0.2
	c0.2-0.3,0.4-0.5,0.6-0.8c0.3,0,0.7,0,1,0c0.1,1.3-0.1,2.4,1.5,3.4c1.1,0.7,0.8,3.4,1.1,4.6c-1.8,0-3.2,0-4.5,0l0,0
	c0-1.3,0.1-2.7-0.2-4c-0.1-0.6-1.1-1-1.6-1.4c-0.2,0.6-0.6,1.3-0.6,1.9c-0.1,0.9,0.1,1.8,0.2,3.3
	C1002.9,510,1001.5,504.1,1004.5,497.5z"/>
<path class="st14" d="M1010.5,516c0.1,0.9,0.2,1.7,0.2,2.6c-0.1,0.1-0.2,0.2-0.3,0.4c-0.6-0.8-1.2-1.5-2.1-2.6
	C1009.2,516.2,1009.8,516.1,1010.5,516C1010.5,516,1010.5,516,1010.5,516z"/>
<path class="st7" d="M1105.9,499.5c0,0.5,0,1,0,1.5c-0.3,0-0.6,0-0.9-0.1C1105.4,500.5,1105.7,500,1105.9,499.5z"/>
<path class="st7" d="M1106.6,497.5c-0.2,0.2-0.4,0.4-0.6,0.6C1106.2,497.9,1106.4,497.7,1106.6,497.5z"/>
<path class="st2" d="M817.5,695.5c0,1.3,0,2.7,0,4.2c1.3,1,4.6,1.2,8.1,0.3c-1.3-0.4-2.1-0.7-2.9-0.9c1.5-2.3,2.9-4.3,4.2-6.4
	c1.9-3.1,3.9-6.2,5.6-9.4c3-5.6,5.8-11.2,8.6-16.9c1.9-3.9,3.7-7.9,5-12c1.3-4.3,1.9-8.8,3-13.2c0.7-2.6,1.7-5,2.6-7.5
	c1.1-2.8,2.2-5.5,3.3-8.3c1.4-3.2,2.8-6.4,4.2-9.6c0.8-1.7,1.7-3.4,2.7-5c0.3-0.5,0.9-0.8,1.3-1.1c0.4,0.5,0.8,1,1.2,1.5
	c0.1,0.2,0.1,0.5,0.1,0.7c0.1,5,0.3,9.9,0.4,14.9c-2.4,5.2-4.8,10.4-7.1,15.5c-2.9,7.4-6,14.8-8.8,22.2
	c-4.4,11.7-10.3,22.7-17.8,32.7c-1.7,2.2-3.4,4.1-6.3,4.3c-3-0.2-5.9-0.3-8.9-0.5C816.5,699.2,817,697.3,817.5,695.5z"/>
<path class="st11" d="M866.6,646.5c0.3,0.6,0.8,1.2,0.8,1.8c0.2,10.3,0.4,20.6,0.5,30.9c0,0.8-0.3,1.5-0.5,2.3
	c-0.2-6.6-0.6-13.2-0.7-19.8C866.6,656.6,866.7,651.6,866.6,646.5z"/>
<path class="st11" d="M867.5,682.5c0.3,0.2,0.9,0.5,0.9,0.7c-0.1,3.1-0.2,6.2-0.3,9.3C867.9,689.2,867.7,685.8,867.5,682.5z"/>
<path class="st11" d="M868.1,693.5c0.5,1.5,1,2.9,1.4,4.4c0.2,0.7-0.2,1.5-0.3,2.3C868.9,698,868.5,695.7,868.1,693.5z"/>
<path class="st11" d="M866.2,643c0-0.8,0-1.7-0.1-2.5c0.3,0,0.5,0,0.8,0c-0.1,1.7-0.3,3.3-0.4,5C866.5,644.6,866.3,643.8,866.2,643z
	"/>
<path class="st3" d="M946.2,463.2c-0.2,0.2-0.3,0.3-0.5,0.5c0,0-0.2-0.2-0.2-0.2c0.2-0.2,0.3-0.3,0.5-0.5L946.2,463.2z"/>
<path class="st3" d="M968.1,431.4c2.8,0.4,3.2,1.7,2.6,3.3c-0.1,0.3-1.7,0.4-1.7,0.3C968.6,433.8,968.4,432.6,968.1,431.4z"/>
<path class="st16" d="M1114.4,513c0.2-1,0.3-1.9,0.5-2.9c1.7-0.2,3.5-0.5,5.2-0.7c0.1,0.3,0.1,0.5,0.2,0.8
	C1118.7,511.6,1117.1,513.3,1114.4,513z"/>
<path class="st7" d="M1110.1,506.5c0-0.7,0-1.3,0-2C1110.1,505.2,1110.1,505.8,1110.1,506.5z"/>
<path class="st9" d="M946,463c-0.2,0.2-0.3,0.3-0.5,0.5c-0.7-0.1-1.7,0-2.1-0.4c-0.4-0.4-0.4-1.8-0.1-2c0.8-0.5,1.9-0.5,3.2-0.8
	C946.3,461.6,946.1,462.3,946,463z"/>
<path class="st11" d="M866,637.5c-0.2-3-0.4-6-0.7-9c0.2,0,0.4,0,0.6,0c0,1.3,0,2.7,0,4c0.2,0.5,0.3,1,0.5,1.5c0,1.2,0,2.3,0,3.5
	C866.3,637.5,866.2,637.5,866,637.5z"/>
<path class="st2" d="M866,637.5c0.2,0,0.3,0,0.5,0c0.2,1,0.3,2,0.5,3c-0.3,0-0.5,0-0.8,0C866.1,639.5,866.1,638.5,866,637.5z"/>
<path class="st2" d="M866,628.5c-0.2,0-0.4,0-0.6,0c-0.1-0.5-0.1-1-0.2-1.5C865.4,627.5,865.7,628,866,628.5z"/>
<path class="st2" d="M866.5,634c-0.2-0.5-0.3-1-0.5-1.5C866.2,633,866.3,633.5,866.5,634z"/>
<path class="st5" d="M1011.5,508c-0.2,0.3-0.4,0.5-0.6,0.8c-0.1-0.1-0.1-0.1-0.2-0.2C1011,508.4,1011.2,508.2,1011.5,508L1011.5,508
	z"/>
<path class="st5" d="M1011.5,508c0.1-0.3,0.3-0.5,0.4-0.8c0.2,0.3,0.4,0.5,0.6,0.8c0,0,0,0,0,0C1012.2,508,1011.8,508,1011.5,508
	L1011.5,508z"/>
</svg>
