<?xml version="1.0" encoding="utf-8"?>
<!-- Generator: Adobe Illustrator 24.1.0, SVG Export Plug-In . SVG Version: 6.00 Build 0)  -->
<svg version="1.1" id="Calque_1" xmlns="http://www.w3.org/2000/svg" xmlns:xlink="http://www.w3.org/1999/xlink" x="0px" y="0px"
	 viewBox="0 0 41.3 41.3" style="enable-background:new 0 0 41.3 41.3;" xml:space="preserve">
<g>
	<g>
		<path d="M19.5,0.1c0.9,0,1.7,0,2.6,0c0.3,0,0.5,0.1,0.8,0.1c4.1,0.4,7.7,1.9,10.9,4.5c3.9,3.2,6.4,7.4,7.3,12.4
			c0.1,0.7,0.2,1.5,0.3,2.3c0,0.9,0,1.7,0,2.6c0,0.1-0.1,0.2-0.1,0.3c-0.5,5.5-2.7,10.1-6.8,13.7c-4.5,4-9.9,5.7-16,5.1
			c-4.6-0.5-8.6-2.4-11.9-5.6c-5-4.8-7-10.7-6.2-17.6c0.5-4.2,2.2-7.8,5-10.9c3.2-3.6,7.1-5.8,11.8-6.6C17.9,0.3,18.7,0.2,19.5,0.1z
			 M8,34.8c0.4-0.2,0.8-0.4,1.1-0.6c1.7-0.9,3.5-1.9,5.2-2.8c0.7-0.4,1-0.9,1-1.7c0-0.6,0-1.1,0-1.7c0-0.2-0.1-0.4-0.2-0.5
			c-0.9-1.3-1.6-2.7-2.1-4.3c0-0.2-0.1-0.3-0.3-0.4c-0.5-0.5-0.8-1.2-0.8-1.9c0-0.9,0-1.8,0-2.7c0-0.6,0.2-1,0.5-1.5
			c0.1-0.2,0.2-0.4,0.2-0.6c0-1.2,0-2.4,0-3.5c0-2.6,1.2-4.5,3.6-5.5C19.1,5.9,22.1,5.9,25,7c2.4,0.9,3.8,3.1,3.7,5.7
			c0,1.2,0,2.3,0,3.5c0,0.2,0.1,0.3,0.2,0.5c0.3,0.5,0.5,1,0.5,1.5c0,0.9,0,1.8,0,2.7c0,1-0.5,1.7-1.3,2.3c-0.2,0.1-0.3,0.3-0.4,0.5
			c-0.4,0.9-0.7,1.9-1.3,2.7c-0.8,1.1-1.1,2.2-1,3.5c0.1,0.8,0.3,1.3,1,1.6c2.3,1.2,4.6,2.3,6.9,3.5c5.2-4.5,7.9-12.2,5.5-19.9
			C36.5,7,29.2,1.7,20.8,1.6C12.6,1.5,5.2,6.8,2.6,14.8C0.1,22.3,2.7,30.2,8,34.8z"/>
	</g>
</g>
</svg>
